G04 #@! TF.GenerationSoftware,KiCad,Pcbnew,6.0.0-unknown-62d453e~86~ubuntu18.04.1*
G04 #@! TF.CreationDate,2019-07-13T13:42:48-04:00*
G04 #@! TF.ProjectId,OBC,4f42432e-6b69-4636-9164-5f7063625858,rev?*
G04 #@! TF.SameCoordinates,Original*
G04 #@! TF.FileFunction,Legend,Top*
G04 #@! TF.FilePolarity,Positive*
%FSLAX46Y46*%
G04 Gerber Fmt 4.6, Leading zero omitted, Abs format (unit mm)*
G04 Created by KiCad (PCBNEW 6.0.0-unknown-62d453e~86~ubuntu18.04.1) date 2019-07-13 13:42:48*
%MOMM*%
%LPD*%
G04 APERTURE LIST*
%ADD10C,0.150000*%
%ADD11C,0.200000*%
%ADD12C,0.120000*%
G04 APERTURE END LIST*
D10*
X107973809Y-59002380D02*
X108164285Y-59002380D01*
X108259523Y-59050000D01*
X108354761Y-59145238D01*
X108402380Y-59335714D01*
X108402380Y-59669047D01*
X108354761Y-59859523D01*
X108259523Y-59954761D01*
X108164285Y-60002380D01*
X107973809Y-60002380D01*
X107878571Y-59954761D01*
X107783333Y-59859523D01*
X107735714Y-59669047D01*
X107735714Y-59335714D01*
X107783333Y-59145238D01*
X107878571Y-59050000D01*
X107973809Y-59002380D01*
X108830952Y-59002380D02*
X108830952Y-59811904D01*
X108878571Y-59907142D01*
X108926190Y-59954761D01*
X109021428Y-60002380D01*
X109211904Y-60002380D01*
X109307142Y-59954761D01*
X109354761Y-59907142D01*
X109402380Y-59811904D01*
X109402380Y-59002380D01*
X109735714Y-59002380D02*
X110307142Y-59002380D01*
X110021428Y-60002380D02*
X110021428Y-59002380D01*
X111116666Y-59002380D02*
X110640476Y-59002380D01*
X110592857Y-59478571D01*
X110640476Y-59430952D01*
X110735714Y-59383333D01*
X110973809Y-59383333D01*
X111069047Y-59430952D01*
X111116666Y-59478571D01*
X111164285Y-59573809D01*
X111164285Y-59811904D01*
X111116666Y-59907142D01*
X111069047Y-59954761D01*
X110973809Y-60002380D01*
X110735714Y-60002380D01*
X110640476Y-59954761D01*
X110592857Y-59907142D01*
X177461904Y-72815476D02*
X177461904Y-72320238D01*
X177766666Y-72586904D01*
X177766666Y-72472619D01*
X177804761Y-72396428D01*
X177842857Y-72358333D01*
X177919047Y-72320238D01*
X178109523Y-72320238D01*
X178185714Y-72358333D01*
X178223809Y-72396428D01*
X178261904Y-72472619D01*
X178261904Y-72701190D01*
X178223809Y-72777380D01*
X178185714Y-72815476D01*
X177461904Y-72091666D02*
X178261904Y-71825000D01*
X177461904Y-71558333D01*
X177461904Y-71367857D02*
X177461904Y-70872619D01*
X177766666Y-71139285D01*
X177766666Y-71025000D01*
X177804761Y-70948809D01*
X177842857Y-70910714D01*
X177919047Y-70872619D01*
X178109523Y-70872619D01*
X178185714Y-70910714D01*
X178223809Y-70948809D01*
X178261904Y-71025000D01*
X178261904Y-71253571D01*
X178223809Y-71329761D01*
X178185714Y-71367857D01*
X177500000Y-69934523D02*
X177461904Y-70010714D01*
X177461904Y-70125000D01*
X177500000Y-70239285D01*
X177576190Y-70315476D01*
X177652380Y-70353571D01*
X177804761Y-70391666D01*
X177919047Y-70391666D01*
X178071428Y-70353571D01*
X178147619Y-70315476D01*
X178223809Y-70239285D01*
X178261904Y-70125000D01*
X178261904Y-70048809D01*
X178223809Y-69934523D01*
X178185714Y-69896428D01*
X177919047Y-69896428D01*
X177919047Y-70048809D01*
X178261904Y-69553571D02*
X177461904Y-69553571D01*
X178261904Y-69096428D01*
X177461904Y-69096428D01*
X178261904Y-68715476D02*
X177461904Y-68715476D01*
X177461904Y-68525000D01*
X177500000Y-68410714D01*
X177576190Y-68334523D01*
X177652380Y-68296428D01*
X177804761Y-68258333D01*
X177919047Y-68258333D01*
X178071428Y-68296428D01*
X178147619Y-68334523D01*
X178223809Y-68410714D01*
X178261904Y-68525000D01*
X178261904Y-68715476D01*
X177461904Y-67358333D02*
X177461904Y-67739285D01*
X177842857Y-67777380D01*
X177804761Y-67739285D01*
X177766666Y-67663095D01*
X177766666Y-67472619D01*
X177804761Y-67396428D01*
X177842857Y-67358333D01*
X177919047Y-67320238D01*
X178109523Y-67320238D01*
X178185714Y-67358333D01*
X178223809Y-67396428D01*
X178261904Y-67472619D01*
X178261904Y-67663095D01*
X178223809Y-67739285D01*
X178185714Y-67777380D01*
X177461904Y-67091666D02*
X178261904Y-66825000D01*
X177461904Y-66558333D01*
X177461904Y-66139285D02*
X177461904Y-66063095D01*
X177500000Y-65986904D01*
X177538095Y-65948809D01*
X177614285Y-65910714D01*
X177766666Y-65872619D01*
X177957142Y-65872619D01*
X178109523Y-65910714D01*
X178185714Y-65948809D01*
X178223809Y-65986904D01*
X178261904Y-66063095D01*
X178261904Y-66139285D01*
X178223809Y-66215476D01*
X178185714Y-66253571D01*
X178109523Y-66291666D01*
X177957142Y-66329761D01*
X177766666Y-66329761D01*
X177614285Y-66291666D01*
X177538095Y-66253571D01*
X177500000Y-66215476D01*
X177461904Y-66139285D01*
X126815476Y-47238095D02*
X126320238Y-47238095D01*
X126586904Y-46933333D01*
X126472619Y-46933333D01*
X126396428Y-46895238D01*
X126358333Y-46857142D01*
X126320238Y-46780952D01*
X126320238Y-46590476D01*
X126358333Y-46514285D01*
X126396428Y-46476190D01*
X126472619Y-46438095D01*
X126701190Y-46438095D01*
X126777380Y-46476190D01*
X126815476Y-46514285D01*
X126091666Y-47238095D02*
X125825000Y-46438095D01*
X125558333Y-47238095D01*
X125367857Y-47238095D02*
X124872619Y-47238095D01*
X125139285Y-46933333D01*
X125025000Y-46933333D01*
X124948809Y-46895238D01*
X124910714Y-46857142D01*
X124872619Y-46780952D01*
X124872619Y-46590476D01*
X124910714Y-46514285D01*
X124948809Y-46476190D01*
X125025000Y-46438095D01*
X125253571Y-46438095D01*
X125329761Y-46476190D01*
X125367857Y-46514285D01*
X114550000Y-53111904D02*
X114502380Y-53207142D01*
X114502380Y-53350000D01*
X114550000Y-53492857D01*
X114645238Y-53588095D01*
X114740476Y-53635714D01*
X114930952Y-53683333D01*
X115073809Y-53683333D01*
X115264285Y-53635714D01*
X115359523Y-53588095D01*
X115454761Y-53492857D01*
X115502380Y-53350000D01*
X115502380Y-53254761D01*
X115454761Y-53111904D01*
X115407142Y-53064285D01*
X115073809Y-53064285D01*
X115073809Y-53254761D01*
X115502380Y-52635714D02*
X114502380Y-52635714D01*
X115502380Y-52064285D01*
X114502380Y-52064285D01*
X115502380Y-51588095D02*
X114502380Y-51588095D01*
X114502380Y-51350000D01*
X114550000Y-51207142D01*
X114645238Y-51111904D01*
X114740476Y-51064285D01*
X114930952Y-51016666D01*
X115073809Y-51016666D01*
X115264285Y-51064285D01*
X115359523Y-51111904D01*
X115454761Y-51207142D01*
X115502380Y-51350000D01*
X115502380Y-51588095D01*
X101902380Y-53016666D02*
X101902380Y-53492857D01*
X102378571Y-53540476D01*
X102330952Y-53492857D01*
X102283333Y-53397619D01*
X102283333Y-53159523D01*
X102330952Y-53064285D01*
X102378571Y-53016666D01*
X102473809Y-52969047D01*
X102711904Y-52969047D01*
X102807142Y-53016666D01*
X102854761Y-53064285D01*
X102902380Y-53159523D01*
X102902380Y-53397619D01*
X102854761Y-53492857D01*
X102807142Y-53540476D01*
X101902380Y-52683333D02*
X102902380Y-52350000D01*
X101902380Y-52016666D01*
X101902380Y-51492857D02*
X101902380Y-51397619D01*
X101950000Y-51302380D01*
X101997619Y-51254761D01*
X102092857Y-51207142D01*
X102283333Y-51159523D01*
X102521428Y-51159523D01*
X102711904Y-51207142D01*
X102807142Y-51254761D01*
X102854761Y-51302380D01*
X102902380Y-51397619D01*
X102902380Y-51492857D01*
X102854761Y-51588095D01*
X102807142Y-51635714D01*
X102711904Y-51683333D01*
X102521428Y-51730952D01*
X102283333Y-51730952D01*
X102092857Y-51683333D01*
X101997619Y-51635714D01*
X101950000Y-51588095D01*
X101902380Y-51492857D01*
X103980000Y-129258333D02*
X104080000Y-129291666D01*
X104246666Y-129291666D01*
X104313333Y-129258333D01*
X104346666Y-129225000D01*
X104380000Y-129158333D01*
X104380000Y-129091666D01*
X104346666Y-129025000D01*
X104313333Y-128991666D01*
X104246666Y-128958333D01*
X104113333Y-128925000D01*
X104046666Y-128891666D01*
X104013333Y-128858333D01*
X103980000Y-128791666D01*
X103980000Y-128725000D01*
X104013333Y-128658333D01*
X104046666Y-128625000D01*
X104113333Y-128591666D01*
X104280000Y-128591666D01*
X104380000Y-128625000D01*
X104680000Y-129291666D02*
X104680000Y-128591666D01*
X104846666Y-128591666D01*
X104946666Y-128625000D01*
X105013333Y-128691666D01*
X105046666Y-128758333D01*
X105080000Y-128891666D01*
X105080000Y-128991666D01*
X105046666Y-129125000D01*
X105013333Y-129191666D01*
X104946666Y-129258333D01*
X104846666Y-129291666D01*
X104680000Y-129291666D01*
X105346666Y-129091666D02*
X105680000Y-129091666D01*
X105280000Y-129291666D02*
X105513333Y-128591666D01*
X105746666Y-129291666D01*
X106536666Y-129258333D02*
X106636666Y-129291666D01*
X106803333Y-129291666D01*
X106870000Y-129258333D01*
X106903333Y-129225000D01*
X106936666Y-129158333D01*
X106936666Y-129091666D01*
X106903333Y-129025000D01*
X106870000Y-128991666D01*
X106803333Y-128958333D01*
X106670000Y-128925000D01*
X106603333Y-128891666D01*
X106570000Y-128858333D01*
X106536666Y-128791666D01*
X106536666Y-128725000D01*
X106570000Y-128658333D01*
X106603333Y-128625000D01*
X106670000Y-128591666D01*
X106836666Y-128591666D01*
X106936666Y-128625000D01*
X107636666Y-129225000D02*
X107603333Y-129258333D01*
X107503333Y-129291666D01*
X107436666Y-129291666D01*
X107336666Y-129258333D01*
X107270000Y-129191666D01*
X107236666Y-129125000D01*
X107203333Y-128991666D01*
X107203333Y-128891666D01*
X107236666Y-128758333D01*
X107270000Y-128691666D01*
X107336666Y-128625000D01*
X107436666Y-128591666D01*
X107503333Y-128591666D01*
X107603333Y-128625000D01*
X107636666Y-128658333D01*
X108270000Y-129291666D02*
X107936666Y-129291666D01*
X107936666Y-128591666D01*
X109376666Y-128625000D02*
X109310000Y-128591666D01*
X109210000Y-128591666D01*
X109110000Y-128625000D01*
X109043333Y-128691666D01*
X109010000Y-128758333D01*
X108976666Y-128891666D01*
X108976666Y-128991666D01*
X109010000Y-129125000D01*
X109043333Y-129191666D01*
X109110000Y-129258333D01*
X109210000Y-129291666D01*
X109276666Y-129291666D01*
X109376666Y-129258333D01*
X109410000Y-129225000D01*
X109410000Y-128991666D01*
X109276666Y-128991666D01*
X109710000Y-129291666D02*
X109710000Y-128591666D01*
X110110000Y-129291666D01*
X110110000Y-128591666D01*
X110443333Y-129291666D02*
X110443333Y-128591666D01*
X110610000Y-128591666D01*
X110710000Y-128625000D01*
X110776666Y-128691666D01*
X110810000Y-128758333D01*
X110843333Y-128891666D01*
X110843333Y-128991666D01*
X110810000Y-129125000D01*
X110776666Y-129191666D01*
X110710000Y-129258333D01*
X110610000Y-129291666D01*
X110443333Y-129291666D01*
X111583333Y-128591666D02*
X112016666Y-128591666D01*
X111783333Y-128858333D01*
X111883333Y-128858333D01*
X111950000Y-128891666D01*
X111983333Y-128925000D01*
X112016666Y-128991666D01*
X112016666Y-129158333D01*
X111983333Y-129225000D01*
X111950000Y-129258333D01*
X111883333Y-129291666D01*
X111683333Y-129291666D01*
X111616666Y-129258333D01*
X111583333Y-129225000D01*
X112216666Y-128591666D02*
X112450000Y-129291666D01*
X112683333Y-128591666D01*
X112850000Y-128591666D02*
X113283333Y-128591666D01*
X113050000Y-128858333D01*
X113150000Y-128858333D01*
X113216666Y-128891666D01*
X113250000Y-128925000D01*
X113283333Y-128991666D01*
X113283333Y-129158333D01*
X113250000Y-129225000D01*
X113216666Y-129258333D01*
X113150000Y-129291666D01*
X112950000Y-129291666D01*
X112883333Y-129258333D01*
X112850000Y-129225000D01*
X107663809Y-124927380D02*
X107663809Y-123927380D01*
X108092380Y-124022619D02*
X108140000Y-123975000D01*
X108235238Y-123927380D01*
X108473333Y-123927380D01*
X108568571Y-123975000D01*
X108616190Y-124022619D01*
X108663809Y-124117857D01*
X108663809Y-124213095D01*
X108616190Y-124355952D01*
X108044761Y-124927380D01*
X108663809Y-124927380D01*
X109663809Y-124832142D02*
X109616190Y-124879761D01*
X109473333Y-124927380D01*
X109378095Y-124927380D01*
X109235238Y-124879761D01*
X109140000Y-124784523D01*
X109092380Y-124689285D01*
X109044761Y-124498809D01*
X109044761Y-124355952D01*
X109092380Y-124165476D01*
X109140000Y-124070238D01*
X109235238Y-123975000D01*
X109378095Y-123927380D01*
X109473333Y-123927380D01*
X109616190Y-123975000D01*
X109663809Y-124022619D01*
X106378095Y-130832142D02*
X106330476Y-130879761D01*
X106187619Y-130927380D01*
X106092380Y-130927380D01*
X105949523Y-130879761D01*
X105854285Y-130784523D01*
X105806666Y-130689285D01*
X105759047Y-130498809D01*
X105759047Y-130355952D01*
X105806666Y-130165476D01*
X105854285Y-130070238D01*
X105949523Y-129975000D01*
X106092380Y-129927380D01*
X106187619Y-129927380D01*
X106330476Y-129975000D01*
X106378095Y-130022619D01*
X106759047Y-130879761D02*
X106901904Y-130927380D01*
X107140000Y-130927380D01*
X107235238Y-130879761D01*
X107282857Y-130832142D01*
X107330476Y-130736904D01*
X107330476Y-130641666D01*
X107282857Y-130546428D01*
X107235238Y-130498809D01*
X107140000Y-130451190D01*
X106949523Y-130403571D01*
X106854285Y-130355952D01*
X106806666Y-130308333D01*
X106759047Y-130213095D01*
X106759047Y-130117857D01*
X106806666Y-130022619D01*
X106854285Y-129975000D01*
X106949523Y-129927380D01*
X107187619Y-129927380D01*
X107330476Y-129975000D01*
X107759047Y-130927380D02*
X107759047Y-129927380D01*
X108140000Y-129927380D01*
X108235238Y-129975000D01*
X108282857Y-130022619D01*
X108330476Y-130117857D01*
X108330476Y-130260714D01*
X108282857Y-130355952D01*
X108235238Y-130403571D01*
X108140000Y-130451190D01*
X107759047Y-130451190D01*
X108520952Y-131022619D02*
X109282857Y-131022619D01*
X109520952Y-130927380D02*
X109520952Y-129927380D01*
X109949523Y-130022619D02*
X109997142Y-129975000D01*
X110092380Y-129927380D01*
X110330476Y-129927380D01*
X110425714Y-129975000D01*
X110473333Y-130022619D01*
X110520952Y-130117857D01*
X110520952Y-130213095D01*
X110473333Y-130355952D01*
X109901904Y-130927380D01*
X110520952Y-130927380D01*
X111520952Y-130832142D02*
X111473333Y-130879761D01*
X111330476Y-130927380D01*
X111235238Y-130927380D01*
X111092380Y-130879761D01*
X110997142Y-130784523D01*
X110949523Y-130689285D01*
X110901904Y-130498809D01*
X110901904Y-130355952D01*
X110949523Y-130165476D01*
X110997142Y-130070238D01*
X111092380Y-129975000D01*
X111235238Y-129927380D01*
X111330476Y-129927380D01*
X111473333Y-129975000D01*
X111520952Y-130022619D01*
X103980000Y-135258333D02*
X104080000Y-135291666D01*
X104246666Y-135291666D01*
X104313333Y-135258333D01*
X104346666Y-135225000D01*
X104380000Y-135158333D01*
X104380000Y-135091666D01*
X104346666Y-135025000D01*
X104313333Y-134991666D01*
X104246666Y-134958333D01*
X104113333Y-134925000D01*
X104046666Y-134891666D01*
X104013333Y-134858333D01*
X103980000Y-134791666D01*
X103980000Y-134725000D01*
X104013333Y-134658333D01*
X104046666Y-134625000D01*
X104113333Y-134591666D01*
X104280000Y-134591666D01*
X104380000Y-134625000D01*
X104680000Y-135291666D02*
X104680000Y-134591666D01*
X104846666Y-134591666D01*
X104946666Y-134625000D01*
X105013333Y-134691666D01*
X105046666Y-134758333D01*
X105080000Y-134891666D01*
X105080000Y-134991666D01*
X105046666Y-135125000D01*
X105013333Y-135191666D01*
X104946666Y-135258333D01*
X104846666Y-135291666D01*
X104680000Y-135291666D01*
X105346666Y-135091666D02*
X105680000Y-135091666D01*
X105280000Y-135291666D02*
X105513333Y-134591666D01*
X105746666Y-135291666D01*
X106536666Y-135258333D02*
X106636666Y-135291666D01*
X106803333Y-135291666D01*
X106870000Y-135258333D01*
X106903333Y-135225000D01*
X106936666Y-135158333D01*
X106936666Y-135091666D01*
X106903333Y-135025000D01*
X106870000Y-134991666D01*
X106803333Y-134958333D01*
X106670000Y-134925000D01*
X106603333Y-134891666D01*
X106570000Y-134858333D01*
X106536666Y-134791666D01*
X106536666Y-134725000D01*
X106570000Y-134658333D01*
X106603333Y-134625000D01*
X106670000Y-134591666D01*
X106836666Y-134591666D01*
X106936666Y-134625000D01*
X107636666Y-135225000D02*
X107603333Y-135258333D01*
X107503333Y-135291666D01*
X107436666Y-135291666D01*
X107336666Y-135258333D01*
X107270000Y-135191666D01*
X107236666Y-135125000D01*
X107203333Y-134991666D01*
X107203333Y-134891666D01*
X107236666Y-134758333D01*
X107270000Y-134691666D01*
X107336666Y-134625000D01*
X107436666Y-134591666D01*
X107503333Y-134591666D01*
X107603333Y-134625000D01*
X107636666Y-134658333D01*
X108270000Y-135291666D02*
X107936666Y-135291666D01*
X107936666Y-134591666D01*
X109376666Y-134625000D02*
X109310000Y-134591666D01*
X109210000Y-134591666D01*
X109110000Y-134625000D01*
X109043333Y-134691666D01*
X109010000Y-134758333D01*
X108976666Y-134891666D01*
X108976666Y-134991666D01*
X109010000Y-135125000D01*
X109043333Y-135191666D01*
X109110000Y-135258333D01*
X109210000Y-135291666D01*
X109276666Y-135291666D01*
X109376666Y-135258333D01*
X109410000Y-135225000D01*
X109410000Y-134991666D01*
X109276666Y-134991666D01*
X109710000Y-135291666D02*
X109710000Y-134591666D01*
X110110000Y-135291666D01*
X110110000Y-134591666D01*
X110443333Y-135291666D02*
X110443333Y-134591666D01*
X110610000Y-134591666D01*
X110710000Y-134625000D01*
X110776666Y-134691666D01*
X110810000Y-134758333D01*
X110843333Y-134891666D01*
X110843333Y-134991666D01*
X110810000Y-135125000D01*
X110776666Y-135191666D01*
X110710000Y-135258333D01*
X110610000Y-135291666D01*
X110443333Y-135291666D01*
X111583333Y-134591666D02*
X112016666Y-134591666D01*
X111783333Y-134858333D01*
X111883333Y-134858333D01*
X111950000Y-134891666D01*
X111983333Y-134925000D01*
X112016666Y-134991666D01*
X112016666Y-135158333D01*
X111983333Y-135225000D01*
X111950000Y-135258333D01*
X111883333Y-135291666D01*
X111683333Y-135291666D01*
X111616666Y-135258333D01*
X111583333Y-135225000D01*
X112216666Y-134591666D02*
X112450000Y-135291666D01*
X112683333Y-134591666D01*
X112850000Y-134591666D02*
X113283333Y-134591666D01*
X113050000Y-134858333D01*
X113150000Y-134858333D01*
X113216666Y-134891666D01*
X113250000Y-134925000D01*
X113283333Y-134991666D01*
X113283333Y-135158333D01*
X113250000Y-135225000D01*
X113216666Y-135258333D01*
X113150000Y-135291666D01*
X112950000Y-135291666D01*
X112883333Y-135258333D01*
X112850000Y-135225000D01*
X121358333Y-47238095D02*
X121739285Y-47238095D01*
X121777380Y-46857142D01*
X121739285Y-46895238D01*
X121663095Y-46933333D01*
X121472619Y-46933333D01*
X121396428Y-46895238D01*
X121358333Y-46857142D01*
X121320238Y-46780952D01*
X121320238Y-46590476D01*
X121358333Y-46514285D01*
X121396428Y-46476190D01*
X121472619Y-46438095D01*
X121663095Y-46438095D01*
X121739285Y-46476190D01*
X121777380Y-46514285D01*
X121091666Y-47238095D02*
X120825000Y-46438095D01*
X120558333Y-47238095D01*
X120139285Y-47238095D02*
X120063095Y-47238095D01*
X119986904Y-47200000D01*
X119948809Y-47161904D01*
X119910714Y-47085714D01*
X119872619Y-46933333D01*
X119872619Y-46742857D01*
X119910714Y-46590476D01*
X119948809Y-46514285D01*
X119986904Y-46476190D01*
X120063095Y-46438095D01*
X120139285Y-46438095D01*
X120215476Y-46476190D01*
X120253571Y-46514285D01*
X120291666Y-46590476D01*
X120329761Y-46742857D01*
X120329761Y-46933333D01*
X120291666Y-47085714D01*
X120253571Y-47161904D01*
X120215476Y-47200000D01*
X120139285Y-47238095D01*
X123934523Y-47200000D02*
X124010714Y-47238095D01*
X124125000Y-47238095D01*
X124239285Y-47200000D01*
X124315476Y-47123809D01*
X124353571Y-47047619D01*
X124391666Y-46895238D01*
X124391666Y-46780952D01*
X124353571Y-46628571D01*
X124315476Y-46552380D01*
X124239285Y-46476190D01*
X124125000Y-46438095D01*
X124048809Y-46438095D01*
X123934523Y-46476190D01*
X123896428Y-46514285D01*
X123896428Y-46780952D01*
X124048809Y-46780952D01*
X123553571Y-46438095D02*
X123553571Y-47238095D01*
X123096428Y-46438095D01*
X123096428Y-47238095D01*
X122715476Y-46438095D02*
X122715476Y-47238095D01*
X122525000Y-47238095D01*
X122410714Y-47200000D01*
X122334523Y-47123809D01*
X122296428Y-47047619D01*
X122258333Y-46895238D01*
X122258333Y-46780952D01*
X122296428Y-46628571D01*
X122334523Y-46552380D01*
X122410714Y-46476190D01*
X122525000Y-46438095D01*
X122715476Y-46438095D01*
D11*
X165278571Y-47628571D02*
X165564285Y-47628571D01*
X165707142Y-47700000D01*
X165850000Y-47842857D01*
X165921428Y-48128571D01*
X165921428Y-48628571D01*
X165850000Y-48914285D01*
X165707142Y-49057142D01*
X165564285Y-49128571D01*
X165278571Y-49128571D01*
X165135714Y-49057142D01*
X164992857Y-48914285D01*
X164921428Y-48628571D01*
X164921428Y-48128571D01*
X164992857Y-47842857D01*
X165135714Y-47700000D01*
X165278571Y-47628571D01*
X167064285Y-48342857D02*
X167278571Y-48414285D01*
X167350000Y-48485714D01*
X167421428Y-48628571D01*
X167421428Y-48842857D01*
X167350000Y-48985714D01*
X167278571Y-49057142D01*
X167135714Y-49128571D01*
X166564285Y-49128571D01*
X166564285Y-47628571D01*
X167064285Y-47628571D01*
X167207142Y-47700000D01*
X167278571Y-47771428D01*
X167350000Y-47914285D01*
X167350000Y-48057142D01*
X167278571Y-48200000D01*
X167207142Y-48271428D01*
X167064285Y-48342857D01*
X166564285Y-48342857D01*
X168921428Y-48985714D02*
X168850000Y-49057142D01*
X168635714Y-49128571D01*
X168492857Y-49128571D01*
X168278571Y-49057142D01*
X168135714Y-48914285D01*
X168064285Y-48771428D01*
X167992857Y-48485714D01*
X167992857Y-48271428D01*
X168064285Y-47985714D01*
X168135714Y-47842857D01*
X168278571Y-47700000D01*
X168492857Y-47628571D01*
X168635714Y-47628571D01*
X168850000Y-47700000D01*
X168921428Y-47771428D01*
X170564285Y-48128571D02*
X170921428Y-49128571D01*
X171278571Y-48128571D01*
X171778571Y-47771428D02*
X171850000Y-47700000D01*
X171992857Y-47628571D01*
X172350000Y-47628571D01*
X172492857Y-47700000D01*
X172564285Y-47771428D01*
X172635714Y-47914285D01*
X172635714Y-48057142D01*
X172564285Y-48271428D01*
X171707142Y-49128571D01*
X172635714Y-49128571D01*
X173278571Y-48985714D02*
X173350000Y-49057142D01*
X173278571Y-49128571D01*
X173207142Y-49057142D01*
X173278571Y-48985714D01*
X173278571Y-49128571D01*
X174278571Y-47628571D02*
X174421428Y-47628571D01*
X174564285Y-47700000D01*
X174635714Y-47771428D01*
X174707142Y-47914285D01*
X174778571Y-48200000D01*
X174778571Y-48557142D01*
X174707142Y-48842857D01*
X174635714Y-48985714D01*
X174564285Y-49057142D01*
X174421428Y-49128571D01*
X174278571Y-49128571D01*
X174135714Y-49057142D01*
X174064285Y-48985714D01*
X173992857Y-48842857D01*
X173921428Y-48557142D01*
X173921428Y-48200000D01*
X173992857Y-47914285D01*
X174064285Y-47771428D01*
X174135714Y-47700000D01*
X174278571Y-47628571D01*
D10*
X123397500Y-85376666D02*
X123830833Y-85376666D01*
X123597500Y-85643333D01*
X123697500Y-85643333D01*
X123764166Y-85676666D01*
X123797500Y-85710000D01*
X123830833Y-85776666D01*
X123830833Y-85943333D01*
X123797500Y-86010000D01*
X123764166Y-86043333D01*
X123697500Y-86076666D01*
X123497500Y-86076666D01*
X123430833Y-86043333D01*
X123397500Y-86010000D01*
X124030833Y-85376666D02*
X124264166Y-86076666D01*
X124497500Y-85376666D01*
X124664166Y-85376666D02*
X125097500Y-85376666D01*
X124864166Y-85643333D01*
X124964166Y-85643333D01*
X125030833Y-85676666D01*
X125064166Y-85710000D01*
X125097500Y-85776666D01*
X125097500Y-85943333D01*
X125064166Y-86010000D01*
X125030833Y-86043333D01*
X124964166Y-86076666D01*
X124764166Y-86076666D01*
X124697500Y-86043333D01*
X124664166Y-86010000D01*
X125230833Y-86143333D02*
X125764166Y-86143333D01*
X125930833Y-86076666D02*
X125930833Y-85376666D01*
X126197500Y-85376666D01*
X126264166Y-85410000D01*
X126297500Y-85443333D01*
X126330833Y-85510000D01*
X126330833Y-85610000D01*
X126297500Y-85676666D01*
X126264166Y-85710000D01*
X126197500Y-85743333D01*
X125930833Y-85743333D01*
X126630833Y-86076666D02*
X126630833Y-85376666D01*
X123830833Y-113350000D02*
X123764166Y-113316666D01*
X123664166Y-113316666D01*
X123564166Y-113350000D01*
X123497500Y-113416666D01*
X123464166Y-113483333D01*
X123430833Y-113616666D01*
X123430833Y-113716666D01*
X123464166Y-113850000D01*
X123497500Y-113916666D01*
X123564166Y-113983333D01*
X123664166Y-114016666D01*
X123730833Y-114016666D01*
X123830833Y-113983333D01*
X123864166Y-113950000D01*
X123864166Y-113716666D01*
X123730833Y-113716666D01*
X124164166Y-114016666D02*
X124164166Y-113316666D01*
X124564166Y-114016666D01*
X124564166Y-113316666D01*
X124897500Y-114016666D02*
X124897500Y-113316666D01*
X125064166Y-113316666D01*
X125164166Y-113350000D01*
X125230833Y-113416666D01*
X125264166Y-113483333D01*
X125297500Y-113616666D01*
X125297500Y-113716666D01*
X125264166Y-113850000D01*
X125230833Y-113916666D01*
X125164166Y-113983333D01*
X125064166Y-114016666D01*
X124897500Y-114016666D01*
X123830833Y-110810000D02*
X123764166Y-110776666D01*
X123664166Y-110776666D01*
X123564166Y-110810000D01*
X123497500Y-110876666D01*
X123464166Y-110943333D01*
X123430833Y-111076666D01*
X123430833Y-111176666D01*
X123464166Y-111310000D01*
X123497500Y-111376666D01*
X123564166Y-111443333D01*
X123664166Y-111476666D01*
X123730833Y-111476666D01*
X123830833Y-111443333D01*
X123864166Y-111410000D01*
X123864166Y-111176666D01*
X123730833Y-111176666D01*
X124164166Y-111476666D02*
X124164166Y-110776666D01*
X124430833Y-110776666D01*
X124497500Y-110810000D01*
X124530833Y-110843333D01*
X124564166Y-110910000D01*
X124564166Y-111010000D01*
X124530833Y-111076666D01*
X124497500Y-111110000D01*
X124430833Y-111143333D01*
X124164166Y-111143333D01*
X124864166Y-111476666D02*
X124864166Y-110776666D01*
X125330833Y-110776666D02*
X125464166Y-110776666D01*
X125530833Y-110810000D01*
X125597500Y-110876666D01*
X125630833Y-111010000D01*
X125630833Y-111243333D01*
X125597500Y-111376666D01*
X125530833Y-111443333D01*
X125464166Y-111476666D01*
X125330833Y-111476666D01*
X125264166Y-111443333D01*
X125197500Y-111376666D01*
X125164166Y-111243333D01*
X125164166Y-111010000D01*
X125197500Y-110876666D01*
X125264166Y-110810000D01*
X125330833Y-110776666D01*
X125897500Y-110843333D02*
X125930833Y-110810000D01*
X125997500Y-110776666D01*
X126164166Y-110776666D01*
X126230833Y-110810000D01*
X126264166Y-110843333D01*
X126297500Y-110910000D01*
X126297500Y-110976666D01*
X126264166Y-111076666D01*
X125864166Y-111476666D01*
X126297500Y-111476666D01*
X126897500Y-110776666D02*
X126764166Y-110776666D01*
X126697500Y-110810000D01*
X126664166Y-110843333D01*
X126597500Y-110943333D01*
X126564166Y-111076666D01*
X126564166Y-111343333D01*
X126597500Y-111410000D01*
X126630833Y-111443333D01*
X126697500Y-111476666D01*
X126830833Y-111476666D01*
X126897500Y-111443333D01*
X126930833Y-111410000D01*
X126964166Y-111343333D01*
X126964166Y-111176666D01*
X126930833Y-111110000D01*
X126897500Y-111076666D01*
X126830833Y-111043333D01*
X126697500Y-111043333D01*
X126630833Y-111076666D01*
X126597500Y-111110000D01*
X126564166Y-111176666D01*
X123464166Y-108936666D02*
X123464166Y-108236666D01*
X123697500Y-108736666D01*
X123930833Y-108236666D01*
X123930833Y-108936666D01*
X124264166Y-108936666D02*
X124264166Y-108236666D01*
X124564166Y-108903333D02*
X124664166Y-108936666D01*
X124830833Y-108936666D01*
X124897500Y-108903333D01*
X124930833Y-108870000D01*
X124964166Y-108803333D01*
X124964166Y-108736666D01*
X124930833Y-108670000D01*
X124897500Y-108636666D01*
X124830833Y-108603333D01*
X124697500Y-108570000D01*
X124630833Y-108536666D01*
X124597500Y-108503333D01*
X124564166Y-108436666D01*
X124564166Y-108370000D01*
X124597500Y-108303333D01*
X124630833Y-108270000D01*
X124697500Y-108236666D01*
X124864166Y-108236666D01*
X124964166Y-108270000D01*
X125397500Y-108236666D02*
X125530833Y-108236666D01*
X125597500Y-108270000D01*
X125664166Y-108336666D01*
X125697500Y-108470000D01*
X125697500Y-108703333D01*
X125664166Y-108836666D01*
X125597500Y-108903333D01*
X125530833Y-108936666D01*
X125397500Y-108936666D01*
X125330833Y-108903333D01*
X125264166Y-108836666D01*
X125230833Y-108703333D01*
X125230833Y-108470000D01*
X125264166Y-108336666D01*
X125330833Y-108270000D01*
X125397500Y-108236666D01*
X126364166Y-108936666D02*
X125964166Y-108936666D01*
X126164166Y-108936666D02*
X126164166Y-108236666D01*
X126097500Y-108336666D01*
X126030833Y-108403333D01*
X125964166Y-108436666D01*
X123830833Y-105730000D02*
X123764166Y-105696666D01*
X123664166Y-105696666D01*
X123564166Y-105730000D01*
X123497500Y-105796666D01*
X123464166Y-105863333D01*
X123430833Y-105996666D01*
X123430833Y-106096666D01*
X123464166Y-106230000D01*
X123497500Y-106296666D01*
X123564166Y-106363333D01*
X123664166Y-106396666D01*
X123730833Y-106396666D01*
X123830833Y-106363333D01*
X123864166Y-106330000D01*
X123864166Y-106096666D01*
X123730833Y-106096666D01*
X124164166Y-106396666D02*
X124164166Y-105696666D01*
X124430833Y-105696666D01*
X124497500Y-105730000D01*
X124530833Y-105763333D01*
X124564166Y-105830000D01*
X124564166Y-105930000D01*
X124530833Y-105996666D01*
X124497500Y-106030000D01*
X124430833Y-106063333D01*
X124164166Y-106063333D01*
X124864166Y-106396666D02*
X124864166Y-105696666D01*
X125330833Y-105696666D02*
X125464166Y-105696666D01*
X125530833Y-105730000D01*
X125597500Y-105796666D01*
X125630833Y-105930000D01*
X125630833Y-106163333D01*
X125597500Y-106296666D01*
X125530833Y-106363333D01*
X125464166Y-106396666D01*
X125330833Y-106396666D01*
X125264166Y-106363333D01*
X125197500Y-106296666D01*
X125164166Y-106163333D01*
X125164166Y-105930000D01*
X125197500Y-105796666D01*
X125264166Y-105730000D01*
X125330833Y-105696666D01*
X126297500Y-106396666D02*
X125897500Y-106396666D01*
X126097500Y-106396666D02*
X126097500Y-105696666D01*
X126030833Y-105796666D01*
X125964166Y-105863333D01*
X125897500Y-105896666D01*
X126530833Y-105696666D02*
X126964166Y-105696666D01*
X126730833Y-105963333D01*
X126830833Y-105963333D01*
X126897500Y-105996666D01*
X126930833Y-106030000D01*
X126964166Y-106096666D01*
X126964166Y-106263333D01*
X126930833Y-106330000D01*
X126897500Y-106363333D01*
X126830833Y-106396666D01*
X126630833Y-106396666D01*
X126564166Y-106363333D01*
X126530833Y-106330000D01*
X123830833Y-103190000D02*
X123764166Y-103156666D01*
X123664166Y-103156666D01*
X123564166Y-103190000D01*
X123497500Y-103256666D01*
X123464166Y-103323333D01*
X123430833Y-103456666D01*
X123430833Y-103556666D01*
X123464166Y-103690000D01*
X123497500Y-103756666D01*
X123564166Y-103823333D01*
X123664166Y-103856666D01*
X123730833Y-103856666D01*
X123830833Y-103823333D01*
X123864166Y-103790000D01*
X123864166Y-103556666D01*
X123730833Y-103556666D01*
X124164166Y-103856666D02*
X124164166Y-103156666D01*
X124430833Y-103156666D01*
X124497500Y-103190000D01*
X124530833Y-103223333D01*
X124564166Y-103290000D01*
X124564166Y-103390000D01*
X124530833Y-103456666D01*
X124497500Y-103490000D01*
X124430833Y-103523333D01*
X124164166Y-103523333D01*
X124864166Y-103856666D02*
X124864166Y-103156666D01*
X125330833Y-103156666D02*
X125464166Y-103156666D01*
X125530833Y-103190000D01*
X125597500Y-103256666D01*
X125630833Y-103390000D01*
X125630833Y-103623333D01*
X125597500Y-103756666D01*
X125530833Y-103823333D01*
X125464166Y-103856666D01*
X125330833Y-103856666D01*
X125264166Y-103823333D01*
X125197500Y-103756666D01*
X125164166Y-103623333D01*
X125164166Y-103390000D01*
X125197500Y-103256666D01*
X125264166Y-103190000D01*
X125330833Y-103156666D01*
X126230833Y-103156666D02*
X126097500Y-103156666D01*
X126030833Y-103190000D01*
X125997500Y-103223333D01*
X125930833Y-103323333D01*
X125897500Y-103456666D01*
X125897500Y-103723333D01*
X125930833Y-103790000D01*
X125964166Y-103823333D01*
X126030833Y-103856666D01*
X126164166Y-103856666D01*
X126230833Y-103823333D01*
X126264166Y-103790000D01*
X126297500Y-103723333D01*
X126297500Y-103556666D01*
X126264166Y-103490000D01*
X126230833Y-103456666D01*
X126164166Y-103423333D01*
X126030833Y-103423333D01*
X125964166Y-103456666D01*
X125930833Y-103490000D01*
X125897500Y-103556666D01*
X123830833Y-100650000D02*
X123764166Y-100616666D01*
X123664166Y-100616666D01*
X123564166Y-100650000D01*
X123497500Y-100716666D01*
X123464166Y-100783333D01*
X123430833Y-100916666D01*
X123430833Y-101016666D01*
X123464166Y-101150000D01*
X123497500Y-101216666D01*
X123564166Y-101283333D01*
X123664166Y-101316666D01*
X123730833Y-101316666D01*
X123830833Y-101283333D01*
X123864166Y-101250000D01*
X123864166Y-101016666D01*
X123730833Y-101016666D01*
X124164166Y-101316666D02*
X124164166Y-100616666D01*
X124430833Y-100616666D01*
X124497500Y-100650000D01*
X124530833Y-100683333D01*
X124564166Y-100750000D01*
X124564166Y-100850000D01*
X124530833Y-100916666D01*
X124497500Y-100950000D01*
X124430833Y-100983333D01*
X124164166Y-100983333D01*
X124864166Y-101316666D02*
X124864166Y-100616666D01*
X125330833Y-100616666D02*
X125464166Y-100616666D01*
X125530833Y-100650000D01*
X125597500Y-100716666D01*
X125630833Y-100850000D01*
X125630833Y-101083333D01*
X125597500Y-101216666D01*
X125530833Y-101283333D01*
X125464166Y-101316666D01*
X125330833Y-101316666D01*
X125264166Y-101283333D01*
X125197500Y-101216666D01*
X125164166Y-101083333D01*
X125164166Y-100850000D01*
X125197500Y-100716666D01*
X125264166Y-100650000D01*
X125330833Y-100616666D01*
X126264166Y-100616666D02*
X125930833Y-100616666D01*
X125897500Y-100950000D01*
X125930833Y-100916666D01*
X125997500Y-100883333D01*
X126164166Y-100883333D01*
X126230833Y-100916666D01*
X126264166Y-100950000D01*
X126297500Y-101016666D01*
X126297500Y-101183333D01*
X126264166Y-101250000D01*
X126230833Y-101283333D01*
X126164166Y-101316666D01*
X125997500Y-101316666D01*
X125930833Y-101283333D01*
X125897500Y-101250000D01*
X123430833Y-98743333D02*
X123530833Y-98776666D01*
X123697500Y-98776666D01*
X123764166Y-98743333D01*
X123797500Y-98710000D01*
X123830833Y-98643333D01*
X123830833Y-98576666D01*
X123797500Y-98510000D01*
X123764166Y-98476666D01*
X123697500Y-98443333D01*
X123564166Y-98410000D01*
X123497500Y-98376666D01*
X123464166Y-98343333D01*
X123430833Y-98276666D01*
X123430833Y-98210000D01*
X123464166Y-98143333D01*
X123497500Y-98110000D01*
X123564166Y-98076666D01*
X123730833Y-98076666D01*
X123830833Y-98110000D01*
X124130833Y-98776666D02*
X124130833Y-98076666D01*
X124297500Y-98076666D01*
X124397500Y-98110000D01*
X124464166Y-98176666D01*
X124497500Y-98243333D01*
X124530833Y-98376666D01*
X124530833Y-98476666D01*
X124497500Y-98610000D01*
X124464166Y-98676666D01*
X124397500Y-98743333D01*
X124297500Y-98776666D01*
X124130833Y-98776666D01*
X124797500Y-98576666D02*
X125130833Y-98576666D01*
X124730833Y-98776666D02*
X124964166Y-98076666D01*
X125197500Y-98776666D01*
X123830833Y-95570000D02*
X123764166Y-95536666D01*
X123664166Y-95536666D01*
X123564166Y-95570000D01*
X123497500Y-95636666D01*
X123464166Y-95703333D01*
X123430833Y-95836666D01*
X123430833Y-95936666D01*
X123464166Y-96070000D01*
X123497500Y-96136666D01*
X123564166Y-96203333D01*
X123664166Y-96236666D01*
X123730833Y-96236666D01*
X123830833Y-96203333D01*
X123864166Y-96170000D01*
X123864166Y-95936666D01*
X123730833Y-95936666D01*
X124164166Y-96236666D02*
X124164166Y-95536666D01*
X124564166Y-96236666D01*
X124564166Y-95536666D01*
X124897500Y-96236666D02*
X124897500Y-95536666D01*
X125064166Y-95536666D01*
X125164166Y-95570000D01*
X125230833Y-95636666D01*
X125264166Y-95703333D01*
X125297500Y-95836666D01*
X125297500Y-95936666D01*
X125264166Y-96070000D01*
X125230833Y-96136666D01*
X125164166Y-96203333D01*
X125064166Y-96236666D01*
X124897500Y-96236666D01*
X123430833Y-93663333D02*
X123530833Y-93696666D01*
X123697500Y-93696666D01*
X123764166Y-93663333D01*
X123797500Y-93630000D01*
X123830833Y-93563333D01*
X123830833Y-93496666D01*
X123797500Y-93430000D01*
X123764166Y-93396666D01*
X123697500Y-93363333D01*
X123564166Y-93330000D01*
X123497500Y-93296666D01*
X123464166Y-93263333D01*
X123430833Y-93196666D01*
X123430833Y-93130000D01*
X123464166Y-93063333D01*
X123497500Y-93030000D01*
X123564166Y-92996666D01*
X123730833Y-92996666D01*
X123830833Y-93030000D01*
X124530833Y-93630000D02*
X124497500Y-93663333D01*
X124397500Y-93696666D01*
X124330833Y-93696666D01*
X124230833Y-93663333D01*
X124164166Y-93596666D01*
X124130833Y-93530000D01*
X124097500Y-93396666D01*
X124097500Y-93296666D01*
X124130833Y-93163333D01*
X124164166Y-93096666D01*
X124230833Y-93030000D01*
X124330833Y-92996666D01*
X124397500Y-92996666D01*
X124497500Y-93030000D01*
X124530833Y-93063333D01*
X125164166Y-93696666D02*
X124830833Y-93696666D01*
X124830833Y-92996666D01*
X125397500Y-93696666D02*
X125397500Y-92996666D01*
X125797500Y-93696666D02*
X125497500Y-93296666D01*
X125797500Y-92996666D02*
X125397500Y-93396666D01*
X126230833Y-92996666D02*
X126297500Y-92996666D01*
X126364166Y-93030000D01*
X126397500Y-93063333D01*
X126430833Y-93130000D01*
X126464166Y-93263333D01*
X126464166Y-93430000D01*
X126430833Y-93563333D01*
X126397500Y-93630000D01*
X126364166Y-93663333D01*
X126297500Y-93696666D01*
X126230833Y-93696666D01*
X126164166Y-93663333D01*
X126130833Y-93630000D01*
X126097500Y-93563333D01*
X126064166Y-93430000D01*
X126064166Y-93263333D01*
X126097500Y-93130000D01*
X126130833Y-93063333D01*
X126164166Y-93030000D01*
X126230833Y-92996666D01*
X123464166Y-91156666D02*
X123464166Y-90456666D01*
X123697500Y-90956666D01*
X123930833Y-90456666D01*
X123930833Y-91156666D01*
X124264166Y-91156666D02*
X124264166Y-90456666D01*
X124564166Y-91123333D02*
X124664166Y-91156666D01*
X124830833Y-91156666D01*
X124897500Y-91123333D01*
X124930833Y-91090000D01*
X124964166Y-91023333D01*
X124964166Y-90956666D01*
X124930833Y-90890000D01*
X124897500Y-90856666D01*
X124830833Y-90823333D01*
X124697500Y-90790000D01*
X124630833Y-90756666D01*
X124597500Y-90723333D01*
X124564166Y-90656666D01*
X124564166Y-90590000D01*
X124597500Y-90523333D01*
X124630833Y-90490000D01*
X124697500Y-90456666D01*
X124864166Y-90456666D01*
X124964166Y-90490000D01*
X125397500Y-90456666D02*
X125530833Y-90456666D01*
X125597500Y-90490000D01*
X125664166Y-90556666D01*
X125697500Y-90690000D01*
X125697500Y-90923333D01*
X125664166Y-91056666D01*
X125597500Y-91123333D01*
X125530833Y-91156666D01*
X125397500Y-91156666D01*
X125330833Y-91123333D01*
X125264166Y-91056666D01*
X125230833Y-90923333D01*
X125230833Y-90690000D01*
X125264166Y-90556666D01*
X125330833Y-90490000D01*
X125397500Y-90456666D01*
X126130833Y-90456666D02*
X126197500Y-90456666D01*
X126264166Y-90490000D01*
X126297500Y-90523333D01*
X126330833Y-90590000D01*
X126364166Y-90723333D01*
X126364166Y-90890000D01*
X126330833Y-91023333D01*
X126297500Y-91090000D01*
X126264166Y-91123333D01*
X126197500Y-91156666D01*
X126130833Y-91156666D01*
X126064166Y-91123333D01*
X126030833Y-91090000D01*
X125997500Y-91023333D01*
X125964166Y-90890000D01*
X125964166Y-90723333D01*
X125997500Y-90590000D01*
X126030833Y-90523333D01*
X126064166Y-90490000D01*
X126130833Y-90456666D01*
X123464166Y-88616666D02*
X123464166Y-87916666D01*
X123697500Y-88416666D01*
X123930833Y-87916666D01*
X123930833Y-88616666D01*
X124397500Y-87916666D02*
X124530833Y-87916666D01*
X124597500Y-87950000D01*
X124664166Y-88016666D01*
X124697500Y-88150000D01*
X124697500Y-88383333D01*
X124664166Y-88516666D01*
X124597500Y-88583333D01*
X124530833Y-88616666D01*
X124397500Y-88616666D01*
X124330833Y-88583333D01*
X124264166Y-88516666D01*
X124230833Y-88383333D01*
X124230833Y-88150000D01*
X124264166Y-88016666D01*
X124330833Y-87950000D01*
X124397500Y-87916666D01*
X124964166Y-88583333D02*
X125064166Y-88616666D01*
X125230833Y-88616666D01*
X125297500Y-88583333D01*
X125330833Y-88550000D01*
X125364166Y-88483333D01*
X125364166Y-88416666D01*
X125330833Y-88350000D01*
X125297500Y-88316666D01*
X125230833Y-88283333D01*
X125097500Y-88250000D01*
X125030833Y-88216666D01*
X124997500Y-88183333D01*
X124964166Y-88116666D01*
X124964166Y-88050000D01*
X124997500Y-87983333D01*
X125030833Y-87950000D01*
X125097500Y-87916666D01*
X125264166Y-87916666D01*
X125364166Y-87950000D01*
X125664166Y-88616666D02*
X125664166Y-87916666D01*
X126130833Y-87916666D02*
X126197500Y-87916666D01*
X126264166Y-87950000D01*
X126297500Y-87983333D01*
X126330833Y-88050000D01*
X126364166Y-88183333D01*
X126364166Y-88350000D01*
X126330833Y-88483333D01*
X126297500Y-88550000D01*
X126264166Y-88583333D01*
X126197500Y-88616666D01*
X126130833Y-88616666D01*
X126064166Y-88583333D01*
X126030833Y-88550000D01*
X125997500Y-88483333D01*
X125964166Y-88350000D01*
X125964166Y-88183333D01*
X125997500Y-88050000D01*
X126030833Y-87983333D01*
X126064166Y-87950000D01*
X126130833Y-87916666D01*
X123830833Y-82870000D02*
X123764166Y-82836666D01*
X123664166Y-82836666D01*
X123564166Y-82870000D01*
X123497500Y-82936666D01*
X123464166Y-83003333D01*
X123430833Y-83136666D01*
X123430833Y-83236666D01*
X123464166Y-83370000D01*
X123497500Y-83436666D01*
X123564166Y-83503333D01*
X123664166Y-83536666D01*
X123730833Y-83536666D01*
X123830833Y-83503333D01*
X123864166Y-83470000D01*
X123864166Y-83236666D01*
X123730833Y-83236666D01*
X124164166Y-83536666D02*
X124164166Y-82836666D01*
X124430833Y-82836666D01*
X124497500Y-82870000D01*
X124530833Y-82903333D01*
X124564166Y-82970000D01*
X124564166Y-83070000D01*
X124530833Y-83136666D01*
X124497500Y-83170000D01*
X124430833Y-83203333D01*
X124164166Y-83203333D01*
X124864166Y-83536666D02*
X124864166Y-82836666D01*
X125330833Y-82836666D02*
X125464166Y-82836666D01*
X125530833Y-82870000D01*
X125597500Y-82936666D01*
X125630833Y-83070000D01*
X125630833Y-83303333D01*
X125597500Y-83436666D01*
X125530833Y-83503333D01*
X125464166Y-83536666D01*
X125330833Y-83536666D01*
X125264166Y-83503333D01*
X125197500Y-83436666D01*
X125164166Y-83303333D01*
X125164166Y-83070000D01*
X125197500Y-82936666D01*
X125264166Y-82870000D01*
X125330833Y-82836666D01*
X125897500Y-82903333D02*
X125930833Y-82870000D01*
X125997500Y-82836666D01*
X126164166Y-82836666D01*
X126230833Y-82870000D01*
X126264166Y-82903333D01*
X126297500Y-82970000D01*
X126297500Y-83036666D01*
X126264166Y-83136666D01*
X125864166Y-83536666D01*
X126297500Y-83536666D01*
X126564166Y-82903333D02*
X126597500Y-82870000D01*
X126664166Y-82836666D01*
X126830833Y-82836666D01*
X126897500Y-82870000D01*
X126930833Y-82903333D01*
X126964166Y-82970000D01*
X126964166Y-83036666D01*
X126930833Y-83136666D01*
X126530833Y-83536666D01*
X126964166Y-83536666D01*
X123830833Y-80330000D02*
X123764166Y-80296666D01*
X123664166Y-80296666D01*
X123564166Y-80330000D01*
X123497500Y-80396666D01*
X123464166Y-80463333D01*
X123430833Y-80596666D01*
X123430833Y-80696666D01*
X123464166Y-80830000D01*
X123497500Y-80896666D01*
X123564166Y-80963333D01*
X123664166Y-80996666D01*
X123730833Y-80996666D01*
X123830833Y-80963333D01*
X123864166Y-80930000D01*
X123864166Y-80696666D01*
X123730833Y-80696666D01*
X124164166Y-80996666D02*
X124164166Y-80296666D01*
X124430833Y-80296666D01*
X124497500Y-80330000D01*
X124530833Y-80363333D01*
X124564166Y-80430000D01*
X124564166Y-80530000D01*
X124530833Y-80596666D01*
X124497500Y-80630000D01*
X124430833Y-80663333D01*
X124164166Y-80663333D01*
X124864166Y-80996666D02*
X124864166Y-80296666D01*
X125330833Y-80296666D02*
X125464166Y-80296666D01*
X125530833Y-80330000D01*
X125597500Y-80396666D01*
X125630833Y-80530000D01*
X125630833Y-80763333D01*
X125597500Y-80896666D01*
X125530833Y-80963333D01*
X125464166Y-80996666D01*
X125330833Y-80996666D01*
X125264166Y-80963333D01*
X125197500Y-80896666D01*
X125164166Y-80763333D01*
X125164166Y-80530000D01*
X125197500Y-80396666D01*
X125264166Y-80330000D01*
X125330833Y-80296666D01*
X125897500Y-80363333D02*
X125930833Y-80330000D01*
X125997500Y-80296666D01*
X126164166Y-80296666D01*
X126230833Y-80330000D01*
X126264166Y-80363333D01*
X126297500Y-80430000D01*
X126297500Y-80496666D01*
X126264166Y-80596666D01*
X125864166Y-80996666D01*
X126297500Y-80996666D01*
X126530833Y-80296666D02*
X126997500Y-80296666D01*
X126697500Y-80996666D01*
X123830833Y-77790000D02*
X123764166Y-77756666D01*
X123664166Y-77756666D01*
X123564166Y-77790000D01*
X123497500Y-77856666D01*
X123464166Y-77923333D01*
X123430833Y-78056666D01*
X123430833Y-78156666D01*
X123464166Y-78290000D01*
X123497500Y-78356666D01*
X123564166Y-78423333D01*
X123664166Y-78456666D01*
X123730833Y-78456666D01*
X123830833Y-78423333D01*
X123864166Y-78390000D01*
X123864166Y-78156666D01*
X123730833Y-78156666D01*
X124164166Y-78456666D02*
X124164166Y-77756666D01*
X124430833Y-77756666D01*
X124497500Y-77790000D01*
X124530833Y-77823333D01*
X124564166Y-77890000D01*
X124564166Y-77990000D01*
X124530833Y-78056666D01*
X124497500Y-78090000D01*
X124430833Y-78123333D01*
X124164166Y-78123333D01*
X124864166Y-78456666D02*
X124864166Y-77756666D01*
X125330833Y-77756666D02*
X125464166Y-77756666D01*
X125530833Y-77790000D01*
X125597500Y-77856666D01*
X125630833Y-77990000D01*
X125630833Y-78223333D01*
X125597500Y-78356666D01*
X125530833Y-78423333D01*
X125464166Y-78456666D01*
X125330833Y-78456666D01*
X125264166Y-78423333D01*
X125197500Y-78356666D01*
X125164166Y-78223333D01*
X125164166Y-77990000D01*
X125197500Y-77856666D01*
X125264166Y-77790000D01*
X125330833Y-77756666D01*
X126297500Y-78456666D02*
X125897500Y-78456666D01*
X126097500Y-78456666D02*
X126097500Y-77756666D01*
X126030833Y-77856666D01*
X125964166Y-77923333D01*
X125897500Y-77956666D01*
X126530833Y-77756666D02*
X126997500Y-77756666D01*
X126697500Y-78456666D01*
X123830833Y-75250000D02*
X123764166Y-75216666D01*
X123664166Y-75216666D01*
X123564166Y-75250000D01*
X123497500Y-75316666D01*
X123464166Y-75383333D01*
X123430833Y-75516666D01*
X123430833Y-75616666D01*
X123464166Y-75750000D01*
X123497500Y-75816666D01*
X123564166Y-75883333D01*
X123664166Y-75916666D01*
X123730833Y-75916666D01*
X123830833Y-75883333D01*
X123864166Y-75850000D01*
X123864166Y-75616666D01*
X123730833Y-75616666D01*
X124164166Y-75916666D02*
X124164166Y-75216666D01*
X124564166Y-75916666D01*
X124564166Y-75216666D01*
X124897500Y-75916666D02*
X124897500Y-75216666D01*
X125064166Y-75216666D01*
X125164166Y-75250000D01*
X125230833Y-75316666D01*
X125264166Y-75383333D01*
X125297500Y-75516666D01*
X125297500Y-75616666D01*
X125264166Y-75750000D01*
X125230833Y-75816666D01*
X125164166Y-75883333D01*
X125064166Y-75916666D01*
X124897500Y-75916666D01*
X123830833Y-72710000D02*
X123764166Y-72676666D01*
X123664166Y-72676666D01*
X123564166Y-72710000D01*
X123497500Y-72776666D01*
X123464166Y-72843333D01*
X123430833Y-72976666D01*
X123430833Y-73076666D01*
X123464166Y-73210000D01*
X123497500Y-73276666D01*
X123564166Y-73343333D01*
X123664166Y-73376666D01*
X123730833Y-73376666D01*
X123830833Y-73343333D01*
X123864166Y-73310000D01*
X123864166Y-73076666D01*
X123730833Y-73076666D01*
X124164166Y-73376666D02*
X124164166Y-72676666D01*
X124430833Y-72676666D01*
X124497500Y-72710000D01*
X124530833Y-72743333D01*
X124564166Y-72810000D01*
X124564166Y-72910000D01*
X124530833Y-72976666D01*
X124497500Y-73010000D01*
X124430833Y-73043333D01*
X124164166Y-73043333D01*
X124864166Y-73376666D02*
X124864166Y-72676666D01*
X125330833Y-72676666D02*
X125464166Y-72676666D01*
X125530833Y-72710000D01*
X125597500Y-72776666D01*
X125630833Y-72910000D01*
X125630833Y-73143333D01*
X125597500Y-73276666D01*
X125530833Y-73343333D01*
X125464166Y-73376666D01*
X125330833Y-73376666D01*
X125264166Y-73343333D01*
X125197500Y-73276666D01*
X125164166Y-73143333D01*
X125164166Y-72910000D01*
X125197500Y-72776666D01*
X125264166Y-72710000D01*
X125330833Y-72676666D01*
X126230833Y-72910000D02*
X126230833Y-73376666D01*
X126064166Y-72643333D02*
X125897500Y-73143333D01*
X126330833Y-73143333D01*
X123864166Y-70770000D02*
X123830833Y-70803333D01*
X123730833Y-70836666D01*
X123664166Y-70836666D01*
X123564166Y-70803333D01*
X123497500Y-70736666D01*
X123464166Y-70670000D01*
X123430833Y-70536666D01*
X123430833Y-70436666D01*
X123464166Y-70303333D01*
X123497500Y-70236666D01*
X123564166Y-70170000D01*
X123664166Y-70136666D01*
X123730833Y-70136666D01*
X123830833Y-70170000D01*
X123864166Y-70203333D01*
X124130833Y-70803333D02*
X124230833Y-70836666D01*
X124397500Y-70836666D01*
X124464166Y-70803333D01*
X124497500Y-70770000D01*
X124530833Y-70703333D01*
X124530833Y-70636666D01*
X124497500Y-70570000D01*
X124464166Y-70536666D01*
X124397500Y-70503333D01*
X124264166Y-70470000D01*
X124197500Y-70436666D01*
X124164166Y-70403333D01*
X124130833Y-70336666D01*
X124130833Y-70270000D01*
X124164166Y-70203333D01*
X124197500Y-70170000D01*
X124264166Y-70136666D01*
X124430833Y-70136666D01*
X124530833Y-70170000D01*
X124830833Y-70836666D02*
X124830833Y-70136666D01*
X125097500Y-70136666D01*
X125164166Y-70170000D01*
X125197500Y-70203333D01*
X125230833Y-70270000D01*
X125230833Y-70370000D01*
X125197500Y-70436666D01*
X125164166Y-70470000D01*
X125097500Y-70503333D01*
X124830833Y-70503333D01*
X125364166Y-70903333D02*
X125897500Y-70903333D01*
X126030833Y-70803333D02*
X126130833Y-70836666D01*
X126297500Y-70836666D01*
X126364166Y-70803333D01*
X126397500Y-70770000D01*
X126430833Y-70703333D01*
X126430833Y-70636666D01*
X126397500Y-70570000D01*
X126364166Y-70536666D01*
X126297500Y-70503333D01*
X126164166Y-70470000D01*
X126097500Y-70436666D01*
X126064166Y-70403333D01*
X126030833Y-70336666D01*
X126030833Y-70270000D01*
X126064166Y-70203333D01*
X126097500Y-70170000D01*
X126164166Y-70136666D01*
X126330833Y-70136666D01*
X126430833Y-70170000D01*
X127130833Y-70770000D02*
X127097500Y-70803333D01*
X126997500Y-70836666D01*
X126930833Y-70836666D01*
X126830833Y-70803333D01*
X126764166Y-70736666D01*
X126730833Y-70670000D01*
X126697500Y-70536666D01*
X126697500Y-70436666D01*
X126730833Y-70303333D01*
X126764166Y-70236666D01*
X126830833Y-70170000D01*
X126930833Y-70136666D01*
X126997500Y-70136666D01*
X127097500Y-70170000D01*
X127130833Y-70203333D01*
X127764166Y-70836666D02*
X127430833Y-70836666D01*
X127430833Y-70136666D01*
X123864166Y-68230000D02*
X123830833Y-68263333D01*
X123730833Y-68296666D01*
X123664166Y-68296666D01*
X123564166Y-68263333D01*
X123497500Y-68196666D01*
X123464166Y-68130000D01*
X123430833Y-67996666D01*
X123430833Y-67896666D01*
X123464166Y-67763333D01*
X123497500Y-67696666D01*
X123564166Y-67630000D01*
X123664166Y-67596666D01*
X123730833Y-67596666D01*
X123830833Y-67630000D01*
X123864166Y-67663333D01*
X124130833Y-68263333D02*
X124230833Y-68296666D01*
X124397500Y-68296666D01*
X124464166Y-68263333D01*
X124497500Y-68230000D01*
X124530833Y-68163333D01*
X124530833Y-68096666D01*
X124497500Y-68030000D01*
X124464166Y-67996666D01*
X124397500Y-67963333D01*
X124264166Y-67930000D01*
X124197500Y-67896666D01*
X124164166Y-67863333D01*
X124130833Y-67796666D01*
X124130833Y-67730000D01*
X124164166Y-67663333D01*
X124197500Y-67630000D01*
X124264166Y-67596666D01*
X124430833Y-67596666D01*
X124530833Y-67630000D01*
X124830833Y-68296666D02*
X124830833Y-67596666D01*
X125097500Y-67596666D01*
X125164166Y-67630000D01*
X125197500Y-67663333D01*
X125230833Y-67730000D01*
X125230833Y-67830000D01*
X125197500Y-67896666D01*
X125164166Y-67930000D01*
X125097500Y-67963333D01*
X124830833Y-67963333D01*
X125364166Y-68363333D02*
X125897500Y-68363333D01*
X126030833Y-68263333D02*
X126130833Y-68296666D01*
X126297500Y-68296666D01*
X126364166Y-68263333D01*
X126397500Y-68230000D01*
X126430833Y-68163333D01*
X126430833Y-68096666D01*
X126397500Y-68030000D01*
X126364166Y-67996666D01*
X126297500Y-67963333D01*
X126164166Y-67930000D01*
X126097500Y-67896666D01*
X126064166Y-67863333D01*
X126030833Y-67796666D01*
X126030833Y-67730000D01*
X126064166Y-67663333D01*
X126097500Y-67630000D01*
X126164166Y-67596666D01*
X126330833Y-67596666D01*
X126430833Y-67630000D01*
X126730833Y-68296666D02*
X126730833Y-67596666D01*
X126897500Y-67596666D01*
X126997500Y-67630000D01*
X127064166Y-67696666D01*
X127097500Y-67763333D01*
X127130833Y-67896666D01*
X127130833Y-67996666D01*
X127097500Y-68130000D01*
X127064166Y-68196666D01*
X126997500Y-68263333D01*
X126897500Y-68296666D01*
X126730833Y-68296666D01*
X127397500Y-68096666D02*
X127730833Y-68096666D01*
X127330833Y-68296666D02*
X127564166Y-67596666D01*
X127797500Y-68296666D01*
X123397500Y-65056666D02*
X123830833Y-65056666D01*
X123597500Y-65323333D01*
X123697500Y-65323333D01*
X123764166Y-65356666D01*
X123797500Y-65390000D01*
X123830833Y-65456666D01*
X123830833Y-65623333D01*
X123797500Y-65690000D01*
X123764166Y-65723333D01*
X123697500Y-65756666D01*
X123497500Y-65756666D01*
X123430833Y-65723333D01*
X123397500Y-65690000D01*
X124030833Y-65056666D02*
X124264166Y-65756666D01*
X124497500Y-65056666D01*
X124664166Y-65056666D02*
X125097500Y-65056666D01*
X124864166Y-65323333D01*
X124964166Y-65323333D01*
X125030833Y-65356666D01*
X125064166Y-65390000D01*
X125097500Y-65456666D01*
X125097500Y-65623333D01*
X125064166Y-65690000D01*
X125030833Y-65723333D01*
X124964166Y-65756666D01*
X124764166Y-65756666D01*
X124697500Y-65723333D01*
X124664166Y-65690000D01*
X125230833Y-65823333D02*
X125764166Y-65823333D01*
X125930833Y-65756666D02*
X125930833Y-65056666D01*
X126197500Y-65056666D01*
X126264166Y-65090000D01*
X126297500Y-65123333D01*
X126330833Y-65190000D01*
X126330833Y-65290000D01*
X126297500Y-65356666D01*
X126264166Y-65390000D01*
X126197500Y-65423333D01*
X125930833Y-65423333D01*
X126630833Y-65756666D02*
X126630833Y-65056666D01*
X113835833Y-113983333D02*
X113935833Y-114016666D01*
X114102500Y-114016666D01*
X114169166Y-113983333D01*
X114202500Y-113950000D01*
X114235833Y-113883333D01*
X114235833Y-113816666D01*
X114202500Y-113750000D01*
X114169166Y-113716666D01*
X114102500Y-113683333D01*
X113969166Y-113650000D01*
X113902500Y-113616666D01*
X113869166Y-113583333D01*
X113835833Y-113516666D01*
X113835833Y-113450000D01*
X113869166Y-113383333D01*
X113902500Y-113350000D01*
X113969166Y-113316666D01*
X114135833Y-113316666D01*
X114235833Y-113350000D01*
X114935833Y-113950000D02*
X114902500Y-113983333D01*
X114802500Y-114016666D01*
X114735833Y-114016666D01*
X114635833Y-113983333D01*
X114569166Y-113916666D01*
X114535833Y-113850000D01*
X114502500Y-113716666D01*
X114502500Y-113616666D01*
X114535833Y-113483333D01*
X114569166Y-113416666D01*
X114635833Y-113350000D01*
X114735833Y-113316666D01*
X114802500Y-113316666D01*
X114902500Y-113350000D01*
X114935833Y-113383333D01*
X115569166Y-114016666D02*
X115235833Y-114016666D01*
X115235833Y-113316666D01*
X115802500Y-114016666D02*
X115802500Y-113316666D01*
X116202500Y-114016666D02*
X115902500Y-113616666D01*
X116202500Y-113316666D02*
X115802500Y-113716666D01*
X116869166Y-114016666D02*
X116469166Y-114016666D01*
X116669166Y-114016666D02*
X116669166Y-113316666D01*
X116602500Y-113416666D01*
X116535833Y-113483333D01*
X116469166Y-113516666D01*
X113969166Y-111476666D02*
X113969166Y-110776666D01*
X114202500Y-111276666D01*
X114435833Y-110776666D01*
X114435833Y-111476666D01*
X114902500Y-110776666D02*
X115035833Y-110776666D01*
X115102500Y-110810000D01*
X115169166Y-110876666D01*
X115202500Y-111010000D01*
X115202500Y-111243333D01*
X115169166Y-111376666D01*
X115102500Y-111443333D01*
X115035833Y-111476666D01*
X114902500Y-111476666D01*
X114835833Y-111443333D01*
X114769166Y-111376666D01*
X114735833Y-111243333D01*
X114735833Y-111010000D01*
X114769166Y-110876666D01*
X114835833Y-110810000D01*
X114902500Y-110776666D01*
X115469166Y-111443333D02*
X115569166Y-111476666D01*
X115735833Y-111476666D01*
X115802500Y-111443333D01*
X115835833Y-111410000D01*
X115869166Y-111343333D01*
X115869166Y-111276666D01*
X115835833Y-111210000D01*
X115802500Y-111176666D01*
X115735833Y-111143333D01*
X115602500Y-111110000D01*
X115535833Y-111076666D01*
X115502500Y-111043333D01*
X115469166Y-110976666D01*
X115469166Y-110910000D01*
X115502500Y-110843333D01*
X115535833Y-110810000D01*
X115602500Y-110776666D01*
X115769166Y-110776666D01*
X115869166Y-110810000D01*
X116169166Y-111476666D02*
X116169166Y-110776666D01*
X116869166Y-111476666D02*
X116469166Y-111476666D01*
X116669166Y-111476666D02*
X116669166Y-110776666D01*
X116602500Y-110876666D01*
X116535833Y-110943333D01*
X116469166Y-110976666D01*
X113735833Y-108270000D02*
X113669166Y-108236666D01*
X113569166Y-108236666D01*
X113469166Y-108270000D01*
X113402500Y-108336666D01*
X113369166Y-108403333D01*
X113335833Y-108536666D01*
X113335833Y-108636666D01*
X113369166Y-108770000D01*
X113402500Y-108836666D01*
X113469166Y-108903333D01*
X113569166Y-108936666D01*
X113635833Y-108936666D01*
X113735833Y-108903333D01*
X113769166Y-108870000D01*
X113769166Y-108636666D01*
X113635833Y-108636666D01*
X114069166Y-108936666D02*
X114069166Y-108236666D01*
X114335833Y-108236666D01*
X114402500Y-108270000D01*
X114435833Y-108303333D01*
X114469166Y-108370000D01*
X114469166Y-108470000D01*
X114435833Y-108536666D01*
X114402500Y-108570000D01*
X114335833Y-108603333D01*
X114069166Y-108603333D01*
X114769166Y-108936666D02*
X114769166Y-108236666D01*
X115235833Y-108236666D02*
X115369166Y-108236666D01*
X115435833Y-108270000D01*
X115502500Y-108336666D01*
X115535833Y-108470000D01*
X115535833Y-108703333D01*
X115502500Y-108836666D01*
X115435833Y-108903333D01*
X115369166Y-108936666D01*
X115235833Y-108936666D01*
X115169166Y-108903333D01*
X115102500Y-108836666D01*
X115069166Y-108703333D01*
X115069166Y-108470000D01*
X115102500Y-108336666D01*
X115169166Y-108270000D01*
X115235833Y-108236666D01*
X116202500Y-108936666D02*
X115802500Y-108936666D01*
X116002500Y-108936666D02*
X116002500Y-108236666D01*
X115935833Y-108336666D01*
X115869166Y-108403333D01*
X115802500Y-108436666D01*
X116802500Y-108236666D02*
X116669166Y-108236666D01*
X116602500Y-108270000D01*
X116569166Y-108303333D01*
X116502500Y-108403333D01*
X116469166Y-108536666D01*
X116469166Y-108803333D01*
X116502500Y-108870000D01*
X116535833Y-108903333D01*
X116602500Y-108936666D01*
X116735833Y-108936666D01*
X116802500Y-108903333D01*
X116835833Y-108870000D01*
X116869166Y-108803333D01*
X116869166Y-108636666D01*
X116835833Y-108570000D01*
X116802500Y-108536666D01*
X116735833Y-108503333D01*
X116602500Y-108503333D01*
X116535833Y-108536666D01*
X116502500Y-108570000D01*
X116469166Y-108636666D01*
X115402500Y-105730000D02*
X115335833Y-105696666D01*
X115235833Y-105696666D01*
X115135833Y-105730000D01*
X115069166Y-105796666D01*
X115035833Y-105863333D01*
X115002500Y-105996666D01*
X115002500Y-106096666D01*
X115035833Y-106230000D01*
X115069166Y-106296666D01*
X115135833Y-106363333D01*
X115235833Y-106396666D01*
X115302500Y-106396666D01*
X115402500Y-106363333D01*
X115435833Y-106330000D01*
X115435833Y-106096666D01*
X115302500Y-106096666D01*
X115735833Y-106396666D02*
X115735833Y-105696666D01*
X116135833Y-106396666D01*
X116135833Y-105696666D01*
X116469166Y-106396666D02*
X116469166Y-105696666D01*
X116635833Y-105696666D01*
X116735833Y-105730000D01*
X116802500Y-105796666D01*
X116835833Y-105863333D01*
X116869166Y-105996666D01*
X116869166Y-106096666D01*
X116835833Y-106230000D01*
X116802500Y-106296666D01*
X116735833Y-106363333D01*
X116635833Y-106396666D01*
X116469166Y-106396666D01*
X113735833Y-103190000D02*
X113669166Y-103156666D01*
X113569166Y-103156666D01*
X113469166Y-103190000D01*
X113402500Y-103256666D01*
X113369166Y-103323333D01*
X113335833Y-103456666D01*
X113335833Y-103556666D01*
X113369166Y-103690000D01*
X113402500Y-103756666D01*
X113469166Y-103823333D01*
X113569166Y-103856666D01*
X113635833Y-103856666D01*
X113735833Y-103823333D01*
X113769166Y-103790000D01*
X113769166Y-103556666D01*
X113635833Y-103556666D01*
X114069166Y-103856666D02*
X114069166Y-103156666D01*
X114335833Y-103156666D01*
X114402500Y-103190000D01*
X114435833Y-103223333D01*
X114469166Y-103290000D01*
X114469166Y-103390000D01*
X114435833Y-103456666D01*
X114402500Y-103490000D01*
X114335833Y-103523333D01*
X114069166Y-103523333D01*
X114769166Y-103856666D02*
X114769166Y-103156666D01*
X115235833Y-103156666D02*
X115369166Y-103156666D01*
X115435833Y-103190000D01*
X115502500Y-103256666D01*
X115535833Y-103390000D01*
X115535833Y-103623333D01*
X115502500Y-103756666D01*
X115435833Y-103823333D01*
X115369166Y-103856666D01*
X115235833Y-103856666D01*
X115169166Y-103823333D01*
X115102500Y-103756666D01*
X115069166Y-103623333D01*
X115069166Y-103390000D01*
X115102500Y-103256666D01*
X115169166Y-103190000D01*
X115235833Y-103156666D01*
X116202500Y-103856666D02*
X115802500Y-103856666D01*
X116002500Y-103856666D02*
X116002500Y-103156666D01*
X115935833Y-103256666D01*
X115869166Y-103323333D01*
X115802500Y-103356666D01*
X116469166Y-103223333D02*
X116502500Y-103190000D01*
X116569166Y-103156666D01*
X116735833Y-103156666D01*
X116802500Y-103190000D01*
X116835833Y-103223333D01*
X116869166Y-103290000D01*
X116869166Y-103356666D01*
X116835833Y-103456666D01*
X116435833Y-103856666D01*
X116869166Y-103856666D01*
X115402500Y-100650000D02*
X115335833Y-100616666D01*
X115235833Y-100616666D01*
X115135833Y-100650000D01*
X115069166Y-100716666D01*
X115035833Y-100783333D01*
X115002500Y-100916666D01*
X115002500Y-101016666D01*
X115035833Y-101150000D01*
X115069166Y-101216666D01*
X115135833Y-101283333D01*
X115235833Y-101316666D01*
X115302500Y-101316666D01*
X115402500Y-101283333D01*
X115435833Y-101250000D01*
X115435833Y-101016666D01*
X115302500Y-101016666D01*
X115735833Y-101316666D02*
X115735833Y-100616666D01*
X116135833Y-101316666D01*
X116135833Y-100616666D01*
X116469166Y-101316666D02*
X116469166Y-100616666D01*
X116635833Y-100616666D01*
X116735833Y-100650000D01*
X116802500Y-100716666D01*
X116835833Y-100783333D01*
X116869166Y-100916666D01*
X116869166Y-101016666D01*
X116835833Y-101150000D01*
X116802500Y-101216666D01*
X116735833Y-101283333D01*
X116635833Y-101316666D01*
X116469166Y-101316666D01*
X115202500Y-98743333D02*
X115302500Y-98776666D01*
X115469166Y-98776666D01*
X115535833Y-98743333D01*
X115569166Y-98710000D01*
X115602500Y-98643333D01*
X115602500Y-98576666D01*
X115569166Y-98510000D01*
X115535833Y-98476666D01*
X115469166Y-98443333D01*
X115335833Y-98410000D01*
X115269166Y-98376666D01*
X115235833Y-98343333D01*
X115202500Y-98276666D01*
X115202500Y-98210000D01*
X115235833Y-98143333D01*
X115269166Y-98110000D01*
X115335833Y-98076666D01*
X115502500Y-98076666D01*
X115602500Y-98110000D01*
X116302500Y-98710000D02*
X116269166Y-98743333D01*
X116169166Y-98776666D01*
X116102500Y-98776666D01*
X116002500Y-98743333D01*
X115935833Y-98676666D01*
X115902500Y-98610000D01*
X115869166Y-98476666D01*
X115869166Y-98376666D01*
X115902500Y-98243333D01*
X115935833Y-98176666D01*
X116002500Y-98110000D01*
X116102500Y-98076666D01*
X116169166Y-98076666D01*
X116269166Y-98110000D01*
X116302500Y-98143333D01*
X116935833Y-98776666D02*
X116602500Y-98776666D01*
X116602500Y-98076666D01*
X115535833Y-96170000D02*
X115502500Y-96203333D01*
X115402500Y-96236666D01*
X115335833Y-96236666D01*
X115235833Y-96203333D01*
X115169166Y-96136666D01*
X115135833Y-96070000D01*
X115102500Y-95936666D01*
X115102500Y-95836666D01*
X115135833Y-95703333D01*
X115169166Y-95636666D01*
X115235833Y-95570000D01*
X115335833Y-95536666D01*
X115402500Y-95536666D01*
X115502500Y-95570000D01*
X115535833Y-95603333D01*
X115802500Y-96203333D02*
X115902500Y-96236666D01*
X116069166Y-96236666D01*
X116135833Y-96203333D01*
X116169166Y-96170000D01*
X116202500Y-96103333D01*
X116202500Y-96036666D01*
X116169166Y-95970000D01*
X116135833Y-95936666D01*
X116069166Y-95903333D01*
X115935833Y-95870000D01*
X115869166Y-95836666D01*
X115835833Y-95803333D01*
X115802500Y-95736666D01*
X115802500Y-95670000D01*
X115835833Y-95603333D01*
X115869166Y-95570000D01*
X115935833Y-95536666D01*
X116102500Y-95536666D01*
X116202500Y-95570000D01*
X116869166Y-96236666D02*
X116469166Y-96236666D01*
X116669166Y-96236666D02*
X116669166Y-95536666D01*
X116602500Y-95636666D01*
X116535833Y-95703333D01*
X116469166Y-95736666D01*
X115535833Y-93630000D02*
X115502500Y-93663333D01*
X115402500Y-93696666D01*
X115335833Y-93696666D01*
X115235833Y-93663333D01*
X115169166Y-93596666D01*
X115135833Y-93530000D01*
X115102500Y-93396666D01*
X115102500Y-93296666D01*
X115135833Y-93163333D01*
X115169166Y-93096666D01*
X115235833Y-93030000D01*
X115335833Y-92996666D01*
X115402500Y-92996666D01*
X115502500Y-93030000D01*
X115535833Y-93063333D01*
X115802500Y-93663333D02*
X115902500Y-93696666D01*
X116069166Y-93696666D01*
X116135833Y-93663333D01*
X116169166Y-93630000D01*
X116202500Y-93563333D01*
X116202500Y-93496666D01*
X116169166Y-93430000D01*
X116135833Y-93396666D01*
X116069166Y-93363333D01*
X115935833Y-93330000D01*
X115869166Y-93296666D01*
X115835833Y-93263333D01*
X115802500Y-93196666D01*
X115802500Y-93130000D01*
X115835833Y-93063333D01*
X115869166Y-93030000D01*
X115935833Y-92996666D01*
X116102500Y-92996666D01*
X116202500Y-93030000D01*
X116635833Y-92996666D02*
X116702500Y-92996666D01*
X116769166Y-93030000D01*
X116802500Y-93063333D01*
X116835833Y-93130000D01*
X116869166Y-93263333D01*
X116869166Y-93430000D01*
X116835833Y-93563333D01*
X116802500Y-93630000D01*
X116769166Y-93663333D01*
X116702500Y-93696666D01*
X116635833Y-93696666D01*
X116569166Y-93663333D01*
X116535833Y-93630000D01*
X116502500Y-93563333D01*
X116469166Y-93430000D01*
X116469166Y-93263333D01*
X116502500Y-93130000D01*
X116535833Y-93063333D01*
X116569166Y-93030000D01*
X116635833Y-92996666D01*
X113735833Y-90490000D02*
X113669166Y-90456666D01*
X113569166Y-90456666D01*
X113469166Y-90490000D01*
X113402500Y-90556666D01*
X113369166Y-90623333D01*
X113335833Y-90756666D01*
X113335833Y-90856666D01*
X113369166Y-90990000D01*
X113402500Y-91056666D01*
X113469166Y-91123333D01*
X113569166Y-91156666D01*
X113635833Y-91156666D01*
X113735833Y-91123333D01*
X113769166Y-91090000D01*
X113769166Y-90856666D01*
X113635833Y-90856666D01*
X114069166Y-91156666D02*
X114069166Y-90456666D01*
X114335833Y-90456666D01*
X114402500Y-90490000D01*
X114435833Y-90523333D01*
X114469166Y-90590000D01*
X114469166Y-90690000D01*
X114435833Y-90756666D01*
X114402500Y-90790000D01*
X114335833Y-90823333D01*
X114069166Y-90823333D01*
X114769166Y-91156666D02*
X114769166Y-90456666D01*
X115235833Y-90456666D02*
X115369166Y-90456666D01*
X115435833Y-90490000D01*
X115502500Y-90556666D01*
X115535833Y-90690000D01*
X115535833Y-90923333D01*
X115502500Y-91056666D01*
X115435833Y-91123333D01*
X115369166Y-91156666D01*
X115235833Y-91156666D01*
X115169166Y-91123333D01*
X115102500Y-91056666D01*
X115069166Y-90923333D01*
X115069166Y-90690000D01*
X115102500Y-90556666D01*
X115169166Y-90490000D01*
X115235833Y-90456666D01*
X115802500Y-90523333D02*
X115835833Y-90490000D01*
X115902500Y-90456666D01*
X116069166Y-90456666D01*
X116135833Y-90490000D01*
X116169166Y-90523333D01*
X116202500Y-90590000D01*
X116202500Y-90656666D01*
X116169166Y-90756666D01*
X115769166Y-91156666D01*
X116202500Y-91156666D01*
X116835833Y-90456666D02*
X116502500Y-90456666D01*
X116469166Y-90790000D01*
X116502500Y-90756666D01*
X116569166Y-90723333D01*
X116735833Y-90723333D01*
X116802500Y-90756666D01*
X116835833Y-90790000D01*
X116869166Y-90856666D01*
X116869166Y-91023333D01*
X116835833Y-91090000D01*
X116802500Y-91123333D01*
X116735833Y-91156666D01*
X116569166Y-91156666D01*
X116502500Y-91123333D01*
X116469166Y-91090000D01*
X115402500Y-87950000D02*
X115335833Y-87916666D01*
X115235833Y-87916666D01*
X115135833Y-87950000D01*
X115069166Y-88016666D01*
X115035833Y-88083333D01*
X115002500Y-88216666D01*
X115002500Y-88316666D01*
X115035833Y-88450000D01*
X115069166Y-88516666D01*
X115135833Y-88583333D01*
X115235833Y-88616666D01*
X115302500Y-88616666D01*
X115402500Y-88583333D01*
X115435833Y-88550000D01*
X115435833Y-88316666D01*
X115302500Y-88316666D01*
X115735833Y-88616666D02*
X115735833Y-87916666D01*
X116135833Y-88616666D01*
X116135833Y-87916666D01*
X116469166Y-88616666D02*
X116469166Y-87916666D01*
X116635833Y-87916666D01*
X116735833Y-87950000D01*
X116802500Y-88016666D01*
X116835833Y-88083333D01*
X116869166Y-88216666D01*
X116869166Y-88316666D01*
X116835833Y-88450000D01*
X116802500Y-88516666D01*
X116735833Y-88583333D01*
X116635833Y-88616666D01*
X116469166Y-88616666D01*
X113735833Y-85410000D02*
X113669166Y-85376666D01*
X113569166Y-85376666D01*
X113469166Y-85410000D01*
X113402500Y-85476666D01*
X113369166Y-85543333D01*
X113335833Y-85676666D01*
X113335833Y-85776666D01*
X113369166Y-85910000D01*
X113402500Y-85976666D01*
X113469166Y-86043333D01*
X113569166Y-86076666D01*
X113635833Y-86076666D01*
X113735833Y-86043333D01*
X113769166Y-86010000D01*
X113769166Y-85776666D01*
X113635833Y-85776666D01*
X114069166Y-86076666D02*
X114069166Y-85376666D01*
X114335833Y-85376666D01*
X114402500Y-85410000D01*
X114435833Y-85443333D01*
X114469166Y-85510000D01*
X114469166Y-85610000D01*
X114435833Y-85676666D01*
X114402500Y-85710000D01*
X114335833Y-85743333D01*
X114069166Y-85743333D01*
X114769166Y-86076666D02*
X114769166Y-85376666D01*
X115235833Y-85376666D02*
X115369166Y-85376666D01*
X115435833Y-85410000D01*
X115502500Y-85476666D01*
X115535833Y-85610000D01*
X115535833Y-85843333D01*
X115502500Y-85976666D01*
X115435833Y-86043333D01*
X115369166Y-86076666D01*
X115235833Y-86076666D01*
X115169166Y-86043333D01*
X115102500Y-85976666D01*
X115069166Y-85843333D01*
X115069166Y-85610000D01*
X115102500Y-85476666D01*
X115169166Y-85410000D01*
X115235833Y-85376666D01*
X115802500Y-85443333D02*
X115835833Y-85410000D01*
X115902500Y-85376666D01*
X116069166Y-85376666D01*
X116135833Y-85410000D01*
X116169166Y-85443333D01*
X116202500Y-85510000D01*
X116202500Y-85576666D01*
X116169166Y-85676666D01*
X115769166Y-86076666D01*
X116202500Y-86076666D01*
X116802500Y-85610000D02*
X116802500Y-86076666D01*
X116635833Y-85343333D02*
X116469166Y-85843333D01*
X116902500Y-85843333D01*
X113735833Y-82870000D02*
X113669166Y-82836666D01*
X113569166Y-82836666D01*
X113469166Y-82870000D01*
X113402500Y-82936666D01*
X113369166Y-83003333D01*
X113335833Y-83136666D01*
X113335833Y-83236666D01*
X113369166Y-83370000D01*
X113402500Y-83436666D01*
X113469166Y-83503333D01*
X113569166Y-83536666D01*
X113635833Y-83536666D01*
X113735833Y-83503333D01*
X113769166Y-83470000D01*
X113769166Y-83236666D01*
X113635833Y-83236666D01*
X114069166Y-83536666D02*
X114069166Y-82836666D01*
X114335833Y-82836666D01*
X114402500Y-82870000D01*
X114435833Y-82903333D01*
X114469166Y-82970000D01*
X114469166Y-83070000D01*
X114435833Y-83136666D01*
X114402500Y-83170000D01*
X114335833Y-83203333D01*
X114069166Y-83203333D01*
X114769166Y-83536666D02*
X114769166Y-82836666D01*
X115235833Y-82836666D02*
X115369166Y-82836666D01*
X115435833Y-82870000D01*
X115502500Y-82936666D01*
X115535833Y-83070000D01*
X115535833Y-83303333D01*
X115502500Y-83436666D01*
X115435833Y-83503333D01*
X115369166Y-83536666D01*
X115235833Y-83536666D01*
X115169166Y-83503333D01*
X115102500Y-83436666D01*
X115069166Y-83303333D01*
X115069166Y-83070000D01*
X115102500Y-82936666D01*
X115169166Y-82870000D01*
X115235833Y-82836666D01*
X115802500Y-82903333D02*
X115835833Y-82870000D01*
X115902500Y-82836666D01*
X116069166Y-82836666D01*
X116135833Y-82870000D01*
X116169166Y-82903333D01*
X116202500Y-82970000D01*
X116202500Y-83036666D01*
X116169166Y-83136666D01*
X115769166Y-83536666D01*
X116202500Y-83536666D01*
X116435833Y-82836666D02*
X116869166Y-82836666D01*
X116635833Y-83103333D01*
X116735833Y-83103333D01*
X116802500Y-83136666D01*
X116835833Y-83170000D01*
X116869166Y-83236666D01*
X116869166Y-83403333D01*
X116835833Y-83470000D01*
X116802500Y-83503333D01*
X116735833Y-83536666D01*
X116535833Y-83536666D01*
X116469166Y-83503333D01*
X116435833Y-83470000D01*
X115402500Y-80330000D02*
X115335833Y-80296666D01*
X115235833Y-80296666D01*
X115135833Y-80330000D01*
X115069166Y-80396666D01*
X115035833Y-80463333D01*
X115002500Y-80596666D01*
X115002500Y-80696666D01*
X115035833Y-80830000D01*
X115069166Y-80896666D01*
X115135833Y-80963333D01*
X115235833Y-80996666D01*
X115302500Y-80996666D01*
X115402500Y-80963333D01*
X115435833Y-80930000D01*
X115435833Y-80696666D01*
X115302500Y-80696666D01*
X115735833Y-80996666D02*
X115735833Y-80296666D01*
X116135833Y-80996666D01*
X116135833Y-80296666D01*
X116469166Y-80996666D02*
X116469166Y-80296666D01*
X116635833Y-80296666D01*
X116735833Y-80330000D01*
X116802500Y-80396666D01*
X116835833Y-80463333D01*
X116869166Y-80596666D01*
X116869166Y-80696666D01*
X116835833Y-80830000D01*
X116802500Y-80896666D01*
X116735833Y-80963333D01*
X116635833Y-80996666D01*
X116469166Y-80996666D01*
X113735833Y-77790000D02*
X113669166Y-77756666D01*
X113569166Y-77756666D01*
X113469166Y-77790000D01*
X113402500Y-77856666D01*
X113369166Y-77923333D01*
X113335833Y-78056666D01*
X113335833Y-78156666D01*
X113369166Y-78290000D01*
X113402500Y-78356666D01*
X113469166Y-78423333D01*
X113569166Y-78456666D01*
X113635833Y-78456666D01*
X113735833Y-78423333D01*
X113769166Y-78390000D01*
X113769166Y-78156666D01*
X113635833Y-78156666D01*
X114069166Y-78456666D02*
X114069166Y-77756666D01*
X114335833Y-77756666D01*
X114402500Y-77790000D01*
X114435833Y-77823333D01*
X114469166Y-77890000D01*
X114469166Y-77990000D01*
X114435833Y-78056666D01*
X114402500Y-78090000D01*
X114335833Y-78123333D01*
X114069166Y-78123333D01*
X114769166Y-78456666D02*
X114769166Y-77756666D01*
X115235833Y-77756666D02*
X115369166Y-77756666D01*
X115435833Y-77790000D01*
X115502500Y-77856666D01*
X115535833Y-77990000D01*
X115535833Y-78223333D01*
X115502500Y-78356666D01*
X115435833Y-78423333D01*
X115369166Y-78456666D01*
X115235833Y-78456666D01*
X115169166Y-78423333D01*
X115102500Y-78356666D01*
X115069166Y-78223333D01*
X115069166Y-77990000D01*
X115102500Y-77856666D01*
X115169166Y-77790000D01*
X115235833Y-77756666D01*
X116202500Y-78456666D02*
X115802500Y-78456666D01*
X116002500Y-78456666D02*
X116002500Y-77756666D01*
X115935833Y-77856666D01*
X115869166Y-77923333D01*
X115802500Y-77956666D01*
X116602500Y-78056666D02*
X116535833Y-78023333D01*
X116502500Y-77990000D01*
X116469166Y-77923333D01*
X116469166Y-77890000D01*
X116502500Y-77823333D01*
X116535833Y-77790000D01*
X116602500Y-77756666D01*
X116735833Y-77756666D01*
X116802500Y-77790000D01*
X116835833Y-77823333D01*
X116869166Y-77890000D01*
X116869166Y-77923333D01*
X116835833Y-77990000D01*
X116802500Y-78023333D01*
X116735833Y-78056666D01*
X116602500Y-78056666D01*
X116535833Y-78090000D01*
X116502500Y-78123333D01*
X116469166Y-78190000D01*
X116469166Y-78323333D01*
X116502500Y-78390000D01*
X116535833Y-78423333D01*
X116602500Y-78456666D01*
X116735833Y-78456666D01*
X116802500Y-78423333D01*
X116835833Y-78390000D01*
X116869166Y-78323333D01*
X116869166Y-78190000D01*
X116835833Y-78123333D01*
X116802500Y-78090000D01*
X116735833Y-78056666D01*
X115502500Y-75916666D02*
X115269166Y-75583333D01*
X115102500Y-75916666D02*
X115102500Y-75216666D01*
X115369166Y-75216666D01*
X115435833Y-75250000D01*
X115469166Y-75283333D01*
X115502500Y-75350000D01*
X115502500Y-75450000D01*
X115469166Y-75516666D01*
X115435833Y-75550000D01*
X115369166Y-75583333D01*
X115102500Y-75583333D01*
X115735833Y-75216666D02*
X116202500Y-75916666D01*
X116202500Y-75216666D02*
X115735833Y-75916666D01*
X116469166Y-75916666D02*
X116469166Y-75216666D01*
X116635833Y-75216666D01*
X116735833Y-75250000D01*
X116802500Y-75316666D01*
X116835833Y-75383333D01*
X116869166Y-75516666D01*
X116869166Y-75616666D01*
X116835833Y-75750000D01*
X116802500Y-75816666D01*
X116735833Y-75883333D01*
X116635833Y-75916666D01*
X116469166Y-75916666D01*
X115169166Y-72676666D02*
X115569166Y-72676666D01*
X115369166Y-73376666D02*
X115369166Y-72676666D01*
X115735833Y-72676666D02*
X116202500Y-73376666D01*
X116202500Y-72676666D02*
X115735833Y-73376666D01*
X116469166Y-73376666D02*
X116469166Y-72676666D01*
X116635833Y-72676666D01*
X116735833Y-72710000D01*
X116802500Y-72776666D01*
X116835833Y-72843333D01*
X116869166Y-72976666D01*
X116869166Y-73076666D01*
X116835833Y-73210000D01*
X116802500Y-73276666D01*
X116735833Y-73343333D01*
X116635833Y-73376666D01*
X116469166Y-73376666D01*
X115402500Y-70170000D02*
X115335833Y-70136666D01*
X115235833Y-70136666D01*
X115135833Y-70170000D01*
X115069166Y-70236666D01*
X115035833Y-70303333D01*
X115002500Y-70436666D01*
X115002500Y-70536666D01*
X115035833Y-70670000D01*
X115069166Y-70736666D01*
X115135833Y-70803333D01*
X115235833Y-70836666D01*
X115302500Y-70836666D01*
X115402500Y-70803333D01*
X115435833Y-70770000D01*
X115435833Y-70536666D01*
X115302500Y-70536666D01*
X115735833Y-70836666D02*
X115735833Y-70136666D01*
X116135833Y-70836666D01*
X116135833Y-70136666D01*
X116469166Y-70836666D02*
X116469166Y-70136666D01*
X116635833Y-70136666D01*
X116735833Y-70170000D01*
X116802500Y-70236666D01*
X116835833Y-70303333D01*
X116869166Y-70436666D01*
X116869166Y-70536666D01*
X116835833Y-70670000D01*
X116802500Y-70736666D01*
X116735833Y-70803333D01*
X116635833Y-70836666D01*
X116469166Y-70836666D01*
X114669166Y-67596666D02*
X114335833Y-67596666D01*
X114302500Y-67930000D01*
X114335833Y-67896666D01*
X114402500Y-67863333D01*
X114569166Y-67863333D01*
X114635833Y-67896666D01*
X114669166Y-67930000D01*
X114702500Y-67996666D01*
X114702500Y-68163333D01*
X114669166Y-68230000D01*
X114635833Y-68263333D01*
X114569166Y-68296666D01*
X114402500Y-68296666D01*
X114335833Y-68263333D01*
X114302500Y-68230000D01*
X114902500Y-67596666D02*
X115135833Y-68296666D01*
X115369166Y-67596666D01*
X115435833Y-68363333D02*
X115969166Y-68363333D01*
X116135833Y-68296666D02*
X116135833Y-67596666D01*
X116402500Y-67596666D01*
X116469166Y-67630000D01*
X116502500Y-67663333D01*
X116535833Y-67730000D01*
X116535833Y-67830000D01*
X116502500Y-67896666D01*
X116469166Y-67930000D01*
X116402500Y-67963333D01*
X116135833Y-67963333D01*
X116835833Y-68296666D02*
X116835833Y-67596666D01*
X114669166Y-65056666D02*
X114335833Y-65056666D01*
X114302500Y-65390000D01*
X114335833Y-65356666D01*
X114402500Y-65323333D01*
X114569166Y-65323333D01*
X114635833Y-65356666D01*
X114669166Y-65390000D01*
X114702500Y-65456666D01*
X114702500Y-65623333D01*
X114669166Y-65690000D01*
X114635833Y-65723333D01*
X114569166Y-65756666D01*
X114402500Y-65756666D01*
X114335833Y-65723333D01*
X114302500Y-65690000D01*
X114902500Y-65056666D02*
X115135833Y-65756666D01*
X115369166Y-65056666D01*
X115435833Y-65823333D02*
X115969166Y-65823333D01*
X116135833Y-65756666D02*
X116135833Y-65056666D01*
X116402500Y-65056666D01*
X116469166Y-65090000D01*
X116502500Y-65123333D01*
X116535833Y-65190000D01*
X116535833Y-65290000D01*
X116502500Y-65356666D01*
X116469166Y-65390000D01*
X116402500Y-65423333D01*
X116135833Y-65423333D01*
X116835833Y-65756666D02*
X116835833Y-65056666D01*
X102780833Y-66295000D02*
X102714166Y-66261666D01*
X102614166Y-66261666D01*
X102514166Y-66295000D01*
X102447500Y-66361666D01*
X102414166Y-66428333D01*
X102380833Y-66561666D01*
X102380833Y-66661666D01*
X102414166Y-66795000D01*
X102447500Y-66861666D01*
X102514166Y-66928333D01*
X102614166Y-66961666D01*
X102680833Y-66961666D01*
X102780833Y-66928333D01*
X102814166Y-66895000D01*
X102814166Y-66661666D01*
X102680833Y-66661666D01*
X103114166Y-66961666D02*
X103114166Y-66261666D01*
X103380833Y-66261666D01*
X103447500Y-66295000D01*
X103480833Y-66328333D01*
X103514166Y-66395000D01*
X103514166Y-66495000D01*
X103480833Y-66561666D01*
X103447500Y-66595000D01*
X103380833Y-66628333D01*
X103114166Y-66628333D01*
X103814166Y-66961666D02*
X103814166Y-66261666D01*
X104280833Y-66261666D02*
X104414166Y-66261666D01*
X104480833Y-66295000D01*
X104547500Y-66361666D01*
X104580833Y-66495000D01*
X104580833Y-66728333D01*
X104547500Y-66861666D01*
X104480833Y-66928333D01*
X104414166Y-66961666D01*
X104280833Y-66961666D01*
X104214166Y-66928333D01*
X104147500Y-66861666D01*
X104114166Y-66728333D01*
X104114166Y-66495000D01*
X104147500Y-66361666D01*
X104214166Y-66295000D01*
X104280833Y-66261666D01*
X105180833Y-66495000D02*
X105180833Y-66961666D01*
X105014166Y-66228333D02*
X104847500Y-66728333D01*
X105280833Y-66728333D01*
X102814166Y-69435000D02*
X102780833Y-69468333D01*
X102680833Y-69501666D01*
X102614166Y-69501666D01*
X102514166Y-69468333D01*
X102447500Y-69401666D01*
X102414166Y-69335000D01*
X102380833Y-69201666D01*
X102380833Y-69101666D01*
X102414166Y-68968333D01*
X102447500Y-68901666D01*
X102514166Y-68835000D01*
X102614166Y-68801666D01*
X102680833Y-68801666D01*
X102780833Y-68835000D01*
X102814166Y-68868333D01*
X103080833Y-69468333D02*
X103180833Y-69501666D01*
X103347500Y-69501666D01*
X103414166Y-69468333D01*
X103447500Y-69435000D01*
X103480833Y-69368333D01*
X103480833Y-69301666D01*
X103447500Y-69235000D01*
X103414166Y-69201666D01*
X103347500Y-69168333D01*
X103214166Y-69135000D01*
X103147500Y-69101666D01*
X103114166Y-69068333D01*
X103080833Y-69001666D01*
X103080833Y-68935000D01*
X103114166Y-68868333D01*
X103147500Y-68835000D01*
X103214166Y-68801666D01*
X103380833Y-68801666D01*
X103480833Y-68835000D01*
X103780833Y-69501666D02*
X103780833Y-68801666D01*
X104047500Y-68801666D01*
X104114166Y-68835000D01*
X104147500Y-68868333D01*
X104180833Y-68935000D01*
X104180833Y-69035000D01*
X104147500Y-69101666D01*
X104114166Y-69135000D01*
X104047500Y-69168333D01*
X103780833Y-69168333D01*
X104314166Y-69568333D02*
X104847500Y-69568333D01*
X104980833Y-69468333D02*
X105080833Y-69501666D01*
X105247500Y-69501666D01*
X105314166Y-69468333D01*
X105347500Y-69435000D01*
X105380833Y-69368333D01*
X105380833Y-69301666D01*
X105347500Y-69235000D01*
X105314166Y-69201666D01*
X105247500Y-69168333D01*
X105114166Y-69135000D01*
X105047500Y-69101666D01*
X105014166Y-69068333D01*
X104980833Y-69001666D01*
X104980833Y-68935000D01*
X105014166Y-68868333D01*
X105047500Y-68835000D01*
X105114166Y-68801666D01*
X105280833Y-68801666D01*
X105380833Y-68835000D01*
X106080833Y-69435000D02*
X106047500Y-69468333D01*
X105947500Y-69501666D01*
X105880833Y-69501666D01*
X105780833Y-69468333D01*
X105714166Y-69401666D01*
X105680833Y-69335000D01*
X105647500Y-69201666D01*
X105647500Y-69101666D01*
X105680833Y-68968333D01*
X105714166Y-68901666D01*
X105780833Y-68835000D01*
X105880833Y-68801666D01*
X105947500Y-68801666D01*
X106047500Y-68835000D01*
X106080833Y-68868333D01*
X106714166Y-69501666D02*
X106380833Y-69501666D01*
X106380833Y-68801666D01*
X102814166Y-71975000D02*
X102780833Y-72008333D01*
X102680833Y-72041666D01*
X102614166Y-72041666D01*
X102514166Y-72008333D01*
X102447500Y-71941666D01*
X102414166Y-71875000D01*
X102380833Y-71741666D01*
X102380833Y-71641666D01*
X102414166Y-71508333D01*
X102447500Y-71441666D01*
X102514166Y-71375000D01*
X102614166Y-71341666D01*
X102680833Y-71341666D01*
X102780833Y-71375000D01*
X102814166Y-71408333D01*
X103080833Y-72008333D02*
X103180833Y-72041666D01*
X103347500Y-72041666D01*
X103414166Y-72008333D01*
X103447500Y-71975000D01*
X103480833Y-71908333D01*
X103480833Y-71841666D01*
X103447500Y-71775000D01*
X103414166Y-71741666D01*
X103347500Y-71708333D01*
X103214166Y-71675000D01*
X103147500Y-71641666D01*
X103114166Y-71608333D01*
X103080833Y-71541666D01*
X103080833Y-71475000D01*
X103114166Y-71408333D01*
X103147500Y-71375000D01*
X103214166Y-71341666D01*
X103380833Y-71341666D01*
X103480833Y-71375000D01*
X103780833Y-72041666D02*
X103780833Y-71341666D01*
X104047500Y-71341666D01*
X104114166Y-71375000D01*
X104147500Y-71408333D01*
X104180833Y-71475000D01*
X104180833Y-71575000D01*
X104147500Y-71641666D01*
X104114166Y-71675000D01*
X104047500Y-71708333D01*
X103780833Y-71708333D01*
X104314166Y-72108333D02*
X104847500Y-72108333D01*
X104980833Y-72008333D02*
X105080833Y-72041666D01*
X105247500Y-72041666D01*
X105314166Y-72008333D01*
X105347500Y-71975000D01*
X105380833Y-71908333D01*
X105380833Y-71841666D01*
X105347500Y-71775000D01*
X105314166Y-71741666D01*
X105247500Y-71708333D01*
X105114166Y-71675000D01*
X105047500Y-71641666D01*
X105014166Y-71608333D01*
X104980833Y-71541666D01*
X104980833Y-71475000D01*
X105014166Y-71408333D01*
X105047500Y-71375000D01*
X105114166Y-71341666D01*
X105280833Y-71341666D01*
X105380833Y-71375000D01*
X105680833Y-72041666D02*
X105680833Y-71341666D01*
X105847500Y-71341666D01*
X105947500Y-71375000D01*
X106014166Y-71441666D01*
X106047500Y-71508333D01*
X106080833Y-71641666D01*
X106080833Y-71741666D01*
X106047500Y-71875000D01*
X106014166Y-71941666D01*
X105947500Y-72008333D01*
X105847500Y-72041666D01*
X105680833Y-72041666D01*
X106347500Y-71841666D02*
X106680833Y-71841666D01*
X106280833Y-72041666D02*
X106514166Y-71341666D01*
X106747500Y-72041666D01*
X102314166Y-73881666D02*
X102714166Y-73881666D01*
X102514166Y-74581666D02*
X102514166Y-73881666D01*
X102880833Y-73881666D02*
X103347500Y-74581666D01*
X103347500Y-73881666D02*
X102880833Y-74581666D01*
X103614166Y-74581666D02*
X103614166Y-73881666D01*
X103780833Y-73881666D01*
X103880833Y-73915000D01*
X103947500Y-73981666D01*
X103980833Y-74048333D01*
X104014166Y-74181666D01*
X104014166Y-74281666D01*
X103980833Y-74415000D01*
X103947500Y-74481666D01*
X103880833Y-74548333D01*
X103780833Y-74581666D01*
X103614166Y-74581666D01*
X102780833Y-76455000D02*
X102714166Y-76421666D01*
X102614166Y-76421666D01*
X102514166Y-76455000D01*
X102447500Y-76521666D01*
X102414166Y-76588333D01*
X102380833Y-76721666D01*
X102380833Y-76821666D01*
X102414166Y-76955000D01*
X102447500Y-77021666D01*
X102514166Y-77088333D01*
X102614166Y-77121666D01*
X102680833Y-77121666D01*
X102780833Y-77088333D01*
X102814166Y-77055000D01*
X102814166Y-76821666D01*
X102680833Y-76821666D01*
X103114166Y-77121666D02*
X103114166Y-76421666D01*
X103380833Y-76421666D01*
X103447500Y-76455000D01*
X103480833Y-76488333D01*
X103514166Y-76555000D01*
X103514166Y-76655000D01*
X103480833Y-76721666D01*
X103447500Y-76755000D01*
X103380833Y-76788333D01*
X103114166Y-76788333D01*
X103814166Y-77121666D02*
X103814166Y-76421666D01*
X104280833Y-76421666D02*
X104414166Y-76421666D01*
X104480833Y-76455000D01*
X104547500Y-76521666D01*
X104580833Y-76655000D01*
X104580833Y-76888333D01*
X104547500Y-77021666D01*
X104480833Y-77088333D01*
X104414166Y-77121666D01*
X104280833Y-77121666D01*
X104214166Y-77088333D01*
X104147500Y-77021666D01*
X104114166Y-76888333D01*
X104114166Y-76655000D01*
X104147500Y-76521666D01*
X104214166Y-76455000D01*
X104280833Y-76421666D01*
X105247500Y-77121666D02*
X104847500Y-77121666D01*
X105047500Y-77121666D02*
X105047500Y-76421666D01*
X104980833Y-76521666D01*
X104914166Y-76588333D01*
X104847500Y-76621666D01*
X105647500Y-76721666D02*
X105580833Y-76688333D01*
X105547500Y-76655000D01*
X105514166Y-76588333D01*
X105514166Y-76555000D01*
X105547500Y-76488333D01*
X105580833Y-76455000D01*
X105647500Y-76421666D01*
X105780833Y-76421666D01*
X105847500Y-76455000D01*
X105880833Y-76488333D01*
X105914166Y-76555000D01*
X105914166Y-76588333D01*
X105880833Y-76655000D01*
X105847500Y-76688333D01*
X105780833Y-76721666D01*
X105647500Y-76721666D01*
X105580833Y-76755000D01*
X105547500Y-76788333D01*
X105514166Y-76855000D01*
X105514166Y-76988333D01*
X105547500Y-77055000D01*
X105580833Y-77088333D01*
X105647500Y-77121666D01*
X105780833Y-77121666D01*
X105847500Y-77088333D01*
X105880833Y-77055000D01*
X105914166Y-76988333D01*
X105914166Y-76855000D01*
X105880833Y-76788333D01*
X105847500Y-76755000D01*
X105780833Y-76721666D01*
X102780833Y-78995000D02*
X102714166Y-78961666D01*
X102614166Y-78961666D01*
X102514166Y-78995000D01*
X102447500Y-79061666D01*
X102414166Y-79128333D01*
X102380833Y-79261666D01*
X102380833Y-79361666D01*
X102414166Y-79495000D01*
X102447500Y-79561666D01*
X102514166Y-79628333D01*
X102614166Y-79661666D01*
X102680833Y-79661666D01*
X102780833Y-79628333D01*
X102814166Y-79595000D01*
X102814166Y-79361666D01*
X102680833Y-79361666D01*
X103114166Y-79661666D02*
X103114166Y-78961666D01*
X103380833Y-78961666D01*
X103447500Y-78995000D01*
X103480833Y-79028333D01*
X103514166Y-79095000D01*
X103514166Y-79195000D01*
X103480833Y-79261666D01*
X103447500Y-79295000D01*
X103380833Y-79328333D01*
X103114166Y-79328333D01*
X103814166Y-79661666D02*
X103814166Y-78961666D01*
X104280833Y-78961666D02*
X104414166Y-78961666D01*
X104480833Y-78995000D01*
X104547500Y-79061666D01*
X104580833Y-79195000D01*
X104580833Y-79428333D01*
X104547500Y-79561666D01*
X104480833Y-79628333D01*
X104414166Y-79661666D01*
X104280833Y-79661666D01*
X104214166Y-79628333D01*
X104147500Y-79561666D01*
X104114166Y-79428333D01*
X104114166Y-79195000D01*
X104147500Y-79061666D01*
X104214166Y-78995000D01*
X104280833Y-78961666D01*
X104847500Y-79028333D02*
X104880833Y-78995000D01*
X104947500Y-78961666D01*
X105114166Y-78961666D01*
X105180833Y-78995000D01*
X105214166Y-79028333D01*
X105247500Y-79095000D01*
X105247500Y-79161666D01*
X105214166Y-79261666D01*
X104814166Y-79661666D01*
X105247500Y-79661666D01*
X105480833Y-78961666D02*
X105947500Y-78961666D01*
X105647500Y-79661666D01*
X102780833Y-81535000D02*
X102714166Y-81501666D01*
X102614166Y-81501666D01*
X102514166Y-81535000D01*
X102447500Y-81601666D01*
X102414166Y-81668333D01*
X102380833Y-81801666D01*
X102380833Y-81901666D01*
X102414166Y-82035000D01*
X102447500Y-82101666D01*
X102514166Y-82168333D01*
X102614166Y-82201666D01*
X102680833Y-82201666D01*
X102780833Y-82168333D01*
X102814166Y-82135000D01*
X102814166Y-81901666D01*
X102680833Y-81901666D01*
X103114166Y-82201666D02*
X103114166Y-81501666D01*
X103380833Y-81501666D01*
X103447500Y-81535000D01*
X103480833Y-81568333D01*
X103514166Y-81635000D01*
X103514166Y-81735000D01*
X103480833Y-81801666D01*
X103447500Y-81835000D01*
X103380833Y-81868333D01*
X103114166Y-81868333D01*
X103814166Y-82201666D02*
X103814166Y-81501666D01*
X104280833Y-81501666D02*
X104414166Y-81501666D01*
X104480833Y-81535000D01*
X104547500Y-81601666D01*
X104580833Y-81735000D01*
X104580833Y-81968333D01*
X104547500Y-82101666D01*
X104480833Y-82168333D01*
X104414166Y-82201666D01*
X104280833Y-82201666D01*
X104214166Y-82168333D01*
X104147500Y-82101666D01*
X104114166Y-81968333D01*
X104114166Y-81735000D01*
X104147500Y-81601666D01*
X104214166Y-81535000D01*
X104280833Y-81501666D01*
X104847500Y-81568333D02*
X104880833Y-81535000D01*
X104947500Y-81501666D01*
X105114166Y-81501666D01*
X105180833Y-81535000D01*
X105214166Y-81568333D01*
X105247500Y-81635000D01*
X105247500Y-81701666D01*
X105214166Y-81801666D01*
X104814166Y-82201666D01*
X105247500Y-82201666D01*
X105480833Y-81501666D02*
X105914166Y-81501666D01*
X105680833Y-81768333D01*
X105780833Y-81768333D01*
X105847500Y-81801666D01*
X105880833Y-81835000D01*
X105914166Y-81901666D01*
X105914166Y-82068333D01*
X105880833Y-82135000D01*
X105847500Y-82168333D01*
X105780833Y-82201666D01*
X105580833Y-82201666D01*
X105514166Y-82168333D01*
X105480833Y-82135000D01*
X102780833Y-84075000D02*
X102714166Y-84041666D01*
X102614166Y-84041666D01*
X102514166Y-84075000D01*
X102447500Y-84141666D01*
X102414166Y-84208333D01*
X102380833Y-84341666D01*
X102380833Y-84441666D01*
X102414166Y-84575000D01*
X102447500Y-84641666D01*
X102514166Y-84708333D01*
X102614166Y-84741666D01*
X102680833Y-84741666D01*
X102780833Y-84708333D01*
X102814166Y-84675000D01*
X102814166Y-84441666D01*
X102680833Y-84441666D01*
X103114166Y-84741666D02*
X103114166Y-84041666D01*
X103380833Y-84041666D01*
X103447500Y-84075000D01*
X103480833Y-84108333D01*
X103514166Y-84175000D01*
X103514166Y-84275000D01*
X103480833Y-84341666D01*
X103447500Y-84375000D01*
X103380833Y-84408333D01*
X103114166Y-84408333D01*
X103814166Y-84741666D02*
X103814166Y-84041666D01*
X104280833Y-84041666D02*
X104414166Y-84041666D01*
X104480833Y-84075000D01*
X104547500Y-84141666D01*
X104580833Y-84275000D01*
X104580833Y-84508333D01*
X104547500Y-84641666D01*
X104480833Y-84708333D01*
X104414166Y-84741666D01*
X104280833Y-84741666D01*
X104214166Y-84708333D01*
X104147500Y-84641666D01*
X104114166Y-84508333D01*
X104114166Y-84275000D01*
X104147500Y-84141666D01*
X104214166Y-84075000D01*
X104280833Y-84041666D01*
X104847500Y-84108333D02*
X104880833Y-84075000D01*
X104947500Y-84041666D01*
X105114166Y-84041666D01*
X105180833Y-84075000D01*
X105214166Y-84108333D01*
X105247500Y-84175000D01*
X105247500Y-84241666D01*
X105214166Y-84341666D01*
X104814166Y-84741666D01*
X105247500Y-84741666D01*
X105847500Y-84275000D02*
X105847500Y-84741666D01*
X105680833Y-84008333D02*
X105514166Y-84508333D01*
X105947500Y-84508333D01*
X102780833Y-89155000D02*
X102714166Y-89121666D01*
X102614166Y-89121666D01*
X102514166Y-89155000D01*
X102447500Y-89221666D01*
X102414166Y-89288333D01*
X102380833Y-89421666D01*
X102380833Y-89521666D01*
X102414166Y-89655000D01*
X102447500Y-89721666D01*
X102514166Y-89788333D01*
X102614166Y-89821666D01*
X102680833Y-89821666D01*
X102780833Y-89788333D01*
X102814166Y-89755000D01*
X102814166Y-89521666D01*
X102680833Y-89521666D01*
X103114166Y-89821666D02*
X103114166Y-89121666D01*
X103380833Y-89121666D01*
X103447500Y-89155000D01*
X103480833Y-89188333D01*
X103514166Y-89255000D01*
X103514166Y-89355000D01*
X103480833Y-89421666D01*
X103447500Y-89455000D01*
X103380833Y-89488333D01*
X103114166Y-89488333D01*
X103814166Y-89821666D02*
X103814166Y-89121666D01*
X104280833Y-89121666D02*
X104414166Y-89121666D01*
X104480833Y-89155000D01*
X104547500Y-89221666D01*
X104580833Y-89355000D01*
X104580833Y-89588333D01*
X104547500Y-89721666D01*
X104480833Y-89788333D01*
X104414166Y-89821666D01*
X104280833Y-89821666D01*
X104214166Y-89788333D01*
X104147500Y-89721666D01*
X104114166Y-89588333D01*
X104114166Y-89355000D01*
X104147500Y-89221666D01*
X104214166Y-89155000D01*
X104280833Y-89121666D01*
X104847500Y-89188333D02*
X104880833Y-89155000D01*
X104947500Y-89121666D01*
X105114166Y-89121666D01*
X105180833Y-89155000D01*
X105214166Y-89188333D01*
X105247500Y-89255000D01*
X105247500Y-89321666D01*
X105214166Y-89421666D01*
X104814166Y-89821666D01*
X105247500Y-89821666D01*
X105880833Y-89121666D02*
X105547500Y-89121666D01*
X105514166Y-89455000D01*
X105547500Y-89421666D01*
X105614166Y-89388333D01*
X105780833Y-89388333D01*
X105847500Y-89421666D01*
X105880833Y-89455000D01*
X105914166Y-89521666D01*
X105914166Y-89688333D01*
X105880833Y-89755000D01*
X105847500Y-89788333D01*
X105780833Y-89821666D01*
X105614166Y-89821666D01*
X105547500Y-89788333D01*
X105514166Y-89755000D01*
X102414166Y-94901666D02*
X102414166Y-94201666D01*
X102647500Y-94701666D01*
X102880833Y-94201666D01*
X102880833Y-94901666D01*
X103347500Y-94201666D02*
X103480833Y-94201666D01*
X103547500Y-94235000D01*
X103614166Y-94301666D01*
X103647500Y-94435000D01*
X103647500Y-94668333D01*
X103614166Y-94801666D01*
X103547500Y-94868333D01*
X103480833Y-94901666D01*
X103347500Y-94901666D01*
X103280833Y-94868333D01*
X103214166Y-94801666D01*
X103180833Y-94668333D01*
X103180833Y-94435000D01*
X103214166Y-94301666D01*
X103280833Y-94235000D01*
X103347500Y-94201666D01*
X103914166Y-94868333D02*
X104014166Y-94901666D01*
X104180833Y-94901666D01*
X104247500Y-94868333D01*
X104280833Y-94835000D01*
X104314166Y-94768333D01*
X104314166Y-94701666D01*
X104280833Y-94635000D01*
X104247500Y-94601666D01*
X104180833Y-94568333D01*
X104047500Y-94535000D01*
X103980833Y-94501666D01*
X103947500Y-94468333D01*
X103914166Y-94401666D01*
X103914166Y-94335000D01*
X103947500Y-94268333D01*
X103980833Y-94235000D01*
X104047500Y-94201666D01*
X104214166Y-94201666D01*
X104314166Y-94235000D01*
X104614166Y-94901666D02*
X104614166Y-94201666D01*
X105080833Y-94201666D02*
X105147500Y-94201666D01*
X105214166Y-94235000D01*
X105247500Y-94268333D01*
X105280833Y-94335000D01*
X105314166Y-94468333D01*
X105314166Y-94635000D01*
X105280833Y-94768333D01*
X105247500Y-94835000D01*
X105214166Y-94868333D01*
X105147500Y-94901666D01*
X105080833Y-94901666D01*
X105014166Y-94868333D01*
X104980833Y-94835000D01*
X104947500Y-94768333D01*
X104914166Y-94635000D01*
X104914166Y-94468333D01*
X104947500Y-94335000D01*
X104980833Y-94268333D01*
X105014166Y-94235000D01*
X105080833Y-94201666D01*
X102380833Y-97408333D02*
X102480833Y-97441666D01*
X102647500Y-97441666D01*
X102714166Y-97408333D01*
X102747500Y-97375000D01*
X102780833Y-97308333D01*
X102780833Y-97241666D01*
X102747500Y-97175000D01*
X102714166Y-97141666D01*
X102647500Y-97108333D01*
X102514166Y-97075000D01*
X102447500Y-97041666D01*
X102414166Y-97008333D01*
X102380833Y-96941666D01*
X102380833Y-96875000D01*
X102414166Y-96808333D01*
X102447500Y-96775000D01*
X102514166Y-96741666D01*
X102680833Y-96741666D01*
X102780833Y-96775000D01*
X103480833Y-97375000D02*
X103447500Y-97408333D01*
X103347500Y-97441666D01*
X103280833Y-97441666D01*
X103180833Y-97408333D01*
X103114166Y-97341666D01*
X103080833Y-97275000D01*
X103047500Y-97141666D01*
X103047500Y-97041666D01*
X103080833Y-96908333D01*
X103114166Y-96841666D01*
X103180833Y-96775000D01*
X103280833Y-96741666D01*
X103347500Y-96741666D01*
X103447500Y-96775000D01*
X103480833Y-96808333D01*
X104114166Y-97441666D02*
X103780833Y-97441666D01*
X103780833Y-96741666D01*
X104347500Y-97441666D02*
X104347500Y-96741666D01*
X104747500Y-97441666D02*
X104447500Y-97041666D01*
X104747500Y-96741666D02*
X104347500Y-97141666D01*
X105180833Y-96741666D02*
X105247500Y-96741666D01*
X105314166Y-96775000D01*
X105347500Y-96808333D01*
X105380833Y-96875000D01*
X105414166Y-97008333D01*
X105414166Y-97175000D01*
X105380833Y-97308333D01*
X105347500Y-97375000D01*
X105314166Y-97408333D01*
X105247500Y-97441666D01*
X105180833Y-97441666D01*
X105114166Y-97408333D01*
X105080833Y-97375000D01*
X105047500Y-97308333D01*
X105014166Y-97175000D01*
X105014166Y-97008333D01*
X105047500Y-96875000D01*
X105080833Y-96808333D01*
X105114166Y-96775000D01*
X105180833Y-96741666D01*
X102780833Y-101855000D02*
X102714166Y-101821666D01*
X102614166Y-101821666D01*
X102514166Y-101855000D01*
X102447500Y-101921666D01*
X102414166Y-101988333D01*
X102380833Y-102121666D01*
X102380833Y-102221666D01*
X102414166Y-102355000D01*
X102447500Y-102421666D01*
X102514166Y-102488333D01*
X102614166Y-102521666D01*
X102680833Y-102521666D01*
X102780833Y-102488333D01*
X102814166Y-102455000D01*
X102814166Y-102221666D01*
X102680833Y-102221666D01*
X103114166Y-102521666D02*
X103114166Y-101821666D01*
X103380833Y-101821666D01*
X103447500Y-101855000D01*
X103480833Y-101888333D01*
X103514166Y-101955000D01*
X103514166Y-102055000D01*
X103480833Y-102121666D01*
X103447500Y-102155000D01*
X103380833Y-102188333D01*
X103114166Y-102188333D01*
X103814166Y-102521666D02*
X103814166Y-101821666D01*
X104280833Y-101821666D02*
X104414166Y-101821666D01*
X104480833Y-101855000D01*
X104547500Y-101921666D01*
X104580833Y-102055000D01*
X104580833Y-102288333D01*
X104547500Y-102421666D01*
X104480833Y-102488333D01*
X104414166Y-102521666D01*
X104280833Y-102521666D01*
X104214166Y-102488333D01*
X104147500Y-102421666D01*
X104114166Y-102288333D01*
X104114166Y-102055000D01*
X104147500Y-101921666D01*
X104214166Y-101855000D01*
X104280833Y-101821666D01*
X105214166Y-101821666D02*
X104880833Y-101821666D01*
X104847500Y-102155000D01*
X104880833Y-102121666D01*
X104947500Y-102088333D01*
X105114166Y-102088333D01*
X105180833Y-102121666D01*
X105214166Y-102155000D01*
X105247500Y-102221666D01*
X105247500Y-102388333D01*
X105214166Y-102455000D01*
X105180833Y-102488333D01*
X105114166Y-102521666D01*
X104947500Y-102521666D01*
X104880833Y-102488333D01*
X104847500Y-102455000D01*
X102780833Y-104395000D02*
X102714166Y-104361666D01*
X102614166Y-104361666D01*
X102514166Y-104395000D01*
X102447500Y-104461666D01*
X102414166Y-104528333D01*
X102380833Y-104661666D01*
X102380833Y-104761666D01*
X102414166Y-104895000D01*
X102447500Y-104961666D01*
X102514166Y-105028333D01*
X102614166Y-105061666D01*
X102680833Y-105061666D01*
X102780833Y-105028333D01*
X102814166Y-104995000D01*
X102814166Y-104761666D01*
X102680833Y-104761666D01*
X103114166Y-105061666D02*
X103114166Y-104361666D01*
X103380833Y-104361666D01*
X103447500Y-104395000D01*
X103480833Y-104428333D01*
X103514166Y-104495000D01*
X103514166Y-104595000D01*
X103480833Y-104661666D01*
X103447500Y-104695000D01*
X103380833Y-104728333D01*
X103114166Y-104728333D01*
X103814166Y-105061666D02*
X103814166Y-104361666D01*
X104280833Y-104361666D02*
X104414166Y-104361666D01*
X104480833Y-104395000D01*
X104547500Y-104461666D01*
X104580833Y-104595000D01*
X104580833Y-104828333D01*
X104547500Y-104961666D01*
X104480833Y-105028333D01*
X104414166Y-105061666D01*
X104280833Y-105061666D01*
X104214166Y-105028333D01*
X104147500Y-104961666D01*
X104114166Y-104828333D01*
X104114166Y-104595000D01*
X104147500Y-104461666D01*
X104214166Y-104395000D01*
X104280833Y-104361666D01*
X105180833Y-104361666D02*
X105047500Y-104361666D01*
X104980833Y-104395000D01*
X104947500Y-104428333D01*
X104880833Y-104528333D01*
X104847500Y-104661666D01*
X104847500Y-104928333D01*
X104880833Y-104995000D01*
X104914166Y-105028333D01*
X104980833Y-105061666D01*
X105114166Y-105061666D01*
X105180833Y-105028333D01*
X105214166Y-104995000D01*
X105247500Y-104928333D01*
X105247500Y-104761666D01*
X105214166Y-104695000D01*
X105180833Y-104661666D01*
X105114166Y-104628333D01*
X104980833Y-104628333D01*
X104914166Y-104661666D01*
X104880833Y-104695000D01*
X104847500Y-104761666D01*
X102780833Y-106935000D02*
X102714166Y-106901666D01*
X102614166Y-106901666D01*
X102514166Y-106935000D01*
X102447500Y-107001666D01*
X102414166Y-107068333D01*
X102380833Y-107201666D01*
X102380833Y-107301666D01*
X102414166Y-107435000D01*
X102447500Y-107501666D01*
X102514166Y-107568333D01*
X102614166Y-107601666D01*
X102680833Y-107601666D01*
X102780833Y-107568333D01*
X102814166Y-107535000D01*
X102814166Y-107301666D01*
X102680833Y-107301666D01*
X103114166Y-107601666D02*
X103114166Y-106901666D01*
X103380833Y-106901666D01*
X103447500Y-106935000D01*
X103480833Y-106968333D01*
X103514166Y-107035000D01*
X103514166Y-107135000D01*
X103480833Y-107201666D01*
X103447500Y-107235000D01*
X103380833Y-107268333D01*
X103114166Y-107268333D01*
X103814166Y-107601666D02*
X103814166Y-106901666D01*
X104280833Y-106901666D02*
X104414166Y-106901666D01*
X104480833Y-106935000D01*
X104547500Y-107001666D01*
X104580833Y-107135000D01*
X104580833Y-107368333D01*
X104547500Y-107501666D01*
X104480833Y-107568333D01*
X104414166Y-107601666D01*
X104280833Y-107601666D01*
X104214166Y-107568333D01*
X104147500Y-107501666D01*
X104114166Y-107368333D01*
X104114166Y-107135000D01*
X104147500Y-107001666D01*
X104214166Y-106935000D01*
X104280833Y-106901666D01*
X105247500Y-107601666D02*
X104847500Y-107601666D01*
X105047500Y-107601666D02*
X105047500Y-106901666D01*
X104980833Y-107001666D01*
X104914166Y-107068333D01*
X104847500Y-107101666D01*
X105480833Y-106901666D02*
X105914166Y-106901666D01*
X105680833Y-107168333D01*
X105780833Y-107168333D01*
X105847500Y-107201666D01*
X105880833Y-107235000D01*
X105914166Y-107301666D01*
X105914166Y-107468333D01*
X105880833Y-107535000D01*
X105847500Y-107568333D01*
X105780833Y-107601666D01*
X105580833Y-107601666D01*
X105514166Y-107568333D01*
X105480833Y-107535000D01*
X102380833Y-110108333D02*
X102480833Y-110141666D01*
X102647500Y-110141666D01*
X102714166Y-110108333D01*
X102747500Y-110075000D01*
X102780833Y-110008333D01*
X102780833Y-109941666D01*
X102747500Y-109875000D01*
X102714166Y-109841666D01*
X102647500Y-109808333D01*
X102514166Y-109775000D01*
X102447500Y-109741666D01*
X102414166Y-109708333D01*
X102380833Y-109641666D01*
X102380833Y-109575000D01*
X102414166Y-109508333D01*
X102447500Y-109475000D01*
X102514166Y-109441666D01*
X102680833Y-109441666D01*
X102780833Y-109475000D01*
X103480833Y-110075000D02*
X103447500Y-110108333D01*
X103347500Y-110141666D01*
X103280833Y-110141666D01*
X103180833Y-110108333D01*
X103114166Y-110041666D01*
X103080833Y-109975000D01*
X103047500Y-109841666D01*
X103047500Y-109741666D01*
X103080833Y-109608333D01*
X103114166Y-109541666D01*
X103180833Y-109475000D01*
X103280833Y-109441666D01*
X103347500Y-109441666D01*
X103447500Y-109475000D01*
X103480833Y-109508333D01*
X104114166Y-110141666D02*
X103780833Y-110141666D01*
X103780833Y-109441666D01*
X102380833Y-112648333D02*
X102480833Y-112681666D01*
X102647500Y-112681666D01*
X102714166Y-112648333D01*
X102747500Y-112615000D01*
X102780833Y-112548333D01*
X102780833Y-112481666D01*
X102747500Y-112415000D01*
X102714166Y-112381666D01*
X102647500Y-112348333D01*
X102514166Y-112315000D01*
X102447500Y-112281666D01*
X102414166Y-112248333D01*
X102380833Y-112181666D01*
X102380833Y-112115000D01*
X102414166Y-112048333D01*
X102447500Y-112015000D01*
X102514166Y-111981666D01*
X102680833Y-111981666D01*
X102780833Y-112015000D01*
X103080833Y-112681666D02*
X103080833Y-111981666D01*
X103247500Y-111981666D01*
X103347500Y-112015000D01*
X103414166Y-112081666D01*
X103447500Y-112148333D01*
X103480833Y-112281666D01*
X103480833Y-112381666D01*
X103447500Y-112515000D01*
X103414166Y-112581666D01*
X103347500Y-112648333D01*
X103247500Y-112681666D01*
X103080833Y-112681666D01*
X103747500Y-112481666D02*
X104080833Y-112481666D01*
X103680833Y-112681666D02*
X103914166Y-111981666D01*
X104147500Y-112681666D01*
X102780833Y-114555000D02*
X102714166Y-114521666D01*
X102614166Y-114521666D01*
X102514166Y-114555000D01*
X102447500Y-114621666D01*
X102414166Y-114688333D01*
X102380833Y-114821666D01*
X102380833Y-114921666D01*
X102414166Y-115055000D01*
X102447500Y-115121666D01*
X102514166Y-115188333D01*
X102614166Y-115221666D01*
X102680833Y-115221666D01*
X102780833Y-115188333D01*
X102814166Y-115155000D01*
X102814166Y-114921666D01*
X102680833Y-114921666D01*
X103114166Y-115221666D02*
X103114166Y-114521666D01*
X103380833Y-114521666D01*
X103447500Y-114555000D01*
X103480833Y-114588333D01*
X103514166Y-114655000D01*
X103514166Y-114755000D01*
X103480833Y-114821666D01*
X103447500Y-114855000D01*
X103380833Y-114888333D01*
X103114166Y-114888333D01*
X103814166Y-115221666D02*
X103814166Y-114521666D01*
X104280833Y-114521666D02*
X104414166Y-114521666D01*
X104480833Y-114555000D01*
X104547500Y-114621666D01*
X104580833Y-114755000D01*
X104580833Y-114988333D01*
X104547500Y-115121666D01*
X104480833Y-115188333D01*
X104414166Y-115221666D01*
X104280833Y-115221666D01*
X104214166Y-115188333D01*
X104147500Y-115121666D01*
X104114166Y-114988333D01*
X104114166Y-114755000D01*
X104147500Y-114621666D01*
X104214166Y-114555000D01*
X104280833Y-114521666D01*
X105247500Y-115221666D02*
X104847500Y-115221666D01*
X105047500Y-115221666D02*
X105047500Y-114521666D01*
X104980833Y-114621666D01*
X104914166Y-114688333D01*
X104847500Y-114721666D01*
X105514166Y-114588333D02*
X105547500Y-114555000D01*
X105614166Y-114521666D01*
X105780833Y-114521666D01*
X105847500Y-114555000D01*
X105880833Y-114588333D01*
X105914166Y-114655000D01*
X105914166Y-114721666D01*
X105880833Y-114821666D01*
X105480833Y-115221666D01*
X105914166Y-115221666D01*
X102780833Y-117095000D02*
X102714166Y-117061666D01*
X102614166Y-117061666D01*
X102514166Y-117095000D01*
X102447500Y-117161666D01*
X102414166Y-117228333D01*
X102380833Y-117361666D01*
X102380833Y-117461666D01*
X102414166Y-117595000D01*
X102447500Y-117661666D01*
X102514166Y-117728333D01*
X102614166Y-117761666D01*
X102680833Y-117761666D01*
X102780833Y-117728333D01*
X102814166Y-117695000D01*
X102814166Y-117461666D01*
X102680833Y-117461666D01*
X103114166Y-117761666D02*
X103114166Y-117061666D01*
X103380833Y-117061666D01*
X103447500Y-117095000D01*
X103480833Y-117128333D01*
X103514166Y-117195000D01*
X103514166Y-117295000D01*
X103480833Y-117361666D01*
X103447500Y-117395000D01*
X103380833Y-117428333D01*
X103114166Y-117428333D01*
X103814166Y-117761666D02*
X103814166Y-117061666D01*
X104280833Y-117061666D02*
X104414166Y-117061666D01*
X104480833Y-117095000D01*
X104547500Y-117161666D01*
X104580833Y-117295000D01*
X104580833Y-117528333D01*
X104547500Y-117661666D01*
X104480833Y-117728333D01*
X104414166Y-117761666D01*
X104280833Y-117761666D01*
X104214166Y-117728333D01*
X104147500Y-117661666D01*
X104114166Y-117528333D01*
X104114166Y-117295000D01*
X104147500Y-117161666D01*
X104214166Y-117095000D01*
X104280833Y-117061666D01*
X104847500Y-117128333D02*
X104880833Y-117095000D01*
X104947500Y-117061666D01*
X105114166Y-117061666D01*
X105180833Y-117095000D01*
X105214166Y-117128333D01*
X105247500Y-117195000D01*
X105247500Y-117261666D01*
X105214166Y-117361666D01*
X104814166Y-117761666D01*
X105247500Y-117761666D01*
X105847500Y-117061666D02*
X105714166Y-117061666D01*
X105647500Y-117095000D01*
X105614166Y-117128333D01*
X105547500Y-117228333D01*
X105514166Y-117361666D01*
X105514166Y-117628333D01*
X105547500Y-117695000D01*
X105580833Y-117728333D01*
X105647500Y-117761666D01*
X105780833Y-117761666D01*
X105847500Y-117728333D01*
X105880833Y-117695000D01*
X105914166Y-117628333D01*
X105914166Y-117461666D01*
X105880833Y-117395000D01*
X105847500Y-117361666D01*
X105780833Y-117328333D01*
X105647500Y-117328333D01*
X105580833Y-117361666D01*
X105547500Y-117395000D01*
X105514166Y-117461666D01*
X94866666Y-124716666D02*
X94866666Y-124016666D01*
X95100000Y-124516666D01*
X95333333Y-124016666D01*
X95333333Y-124716666D01*
X95666666Y-124716666D02*
X95666666Y-124016666D01*
X95966666Y-124683333D02*
X96066666Y-124716666D01*
X96233333Y-124716666D01*
X96300000Y-124683333D01*
X96333333Y-124650000D01*
X96366666Y-124583333D01*
X96366666Y-124516666D01*
X96333333Y-124450000D01*
X96300000Y-124416666D01*
X96233333Y-124383333D01*
X96100000Y-124350000D01*
X96033333Y-124316666D01*
X96000000Y-124283333D01*
X95966666Y-124216666D01*
X95966666Y-124150000D01*
X96000000Y-124083333D01*
X96033333Y-124050000D01*
X96100000Y-124016666D01*
X96266666Y-124016666D01*
X96366666Y-124050000D01*
X96800000Y-124016666D02*
X96933333Y-124016666D01*
X97000000Y-124050000D01*
X97066666Y-124116666D01*
X97100000Y-124250000D01*
X97100000Y-124483333D01*
X97066666Y-124616666D01*
X97000000Y-124683333D01*
X96933333Y-124716666D01*
X96800000Y-124716666D01*
X96733333Y-124683333D01*
X96666666Y-124616666D01*
X96633333Y-124483333D01*
X96633333Y-124250000D01*
X96666666Y-124116666D01*
X96733333Y-124050000D01*
X96800000Y-124016666D01*
X97766666Y-124716666D02*
X97366666Y-124716666D01*
X97566666Y-124716666D02*
X97566666Y-124016666D01*
X97500000Y-124116666D01*
X97433333Y-124183333D01*
X97366666Y-124216666D01*
X91050000Y-84958333D02*
X91016666Y-85025000D01*
X91016666Y-85125000D01*
X91050000Y-85225000D01*
X91116666Y-85291666D01*
X91183333Y-85325000D01*
X91316666Y-85358333D01*
X91416666Y-85358333D01*
X91550000Y-85325000D01*
X91616666Y-85291666D01*
X91683333Y-85225000D01*
X91716666Y-85125000D01*
X91716666Y-85058333D01*
X91683333Y-84958333D01*
X91650000Y-84925000D01*
X91416666Y-84925000D01*
X91416666Y-85058333D01*
X91716666Y-84625000D02*
X91016666Y-84625000D01*
X91716666Y-84225000D01*
X91016666Y-84225000D01*
X91716666Y-83891666D02*
X91016666Y-83891666D01*
X91016666Y-83725000D01*
X91050000Y-83625000D01*
X91116666Y-83558333D01*
X91183333Y-83525000D01*
X91316666Y-83491666D01*
X91416666Y-83491666D01*
X91550000Y-83525000D01*
X91616666Y-83558333D01*
X91683333Y-83625000D01*
X91716666Y-83725000D01*
X91716666Y-83891666D01*
X91050000Y-87498333D02*
X91016666Y-87565000D01*
X91016666Y-87665000D01*
X91050000Y-87765000D01*
X91116666Y-87831666D01*
X91183333Y-87865000D01*
X91316666Y-87898333D01*
X91416666Y-87898333D01*
X91550000Y-87865000D01*
X91616666Y-87831666D01*
X91683333Y-87765000D01*
X91716666Y-87665000D01*
X91716666Y-87598333D01*
X91683333Y-87498333D01*
X91650000Y-87465000D01*
X91416666Y-87465000D01*
X91416666Y-87598333D01*
X91716666Y-87165000D02*
X91016666Y-87165000D01*
X91716666Y-86765000D01*
X91016666Y-86765000D01*
X91716666Y-86431666D02*
X91016666Y-86431666D01*
X91016666Y-86265000D01*
X91050000Y-86165000D01*
X91116666Y-86098333D01*
X91183333Y-86065000D01*
X91316666Y-86031666D01*
X91416666Y-86031666D01*
X91550000Y-86065000D01*
X91616666Y-86098333D01*
X91683333Y-86165000D01*
X91716666Y-86265000D01*
X91716666Y-86431666D01*
X91016666Y-92511666D02*
X91016666Y-92845000D01*
X91350000Y-92878333D01*
X91316666Y-92845000D01*
X91283333Y-92778333D01*
X91283333Y-92611666D01*
X91316666Y-92545000D01*
X91350000Y-92511666D01*
X91416666Y-92478333D01*
X91583333Y-92478333D01*
X91650000Y-92511666D01*
X91683333Y-92545000D01*
X91716666Y-92611666D01*
X91716666Y-92778333D01*
X91683333Y-92845000D01*
X91650000Y-92878333D01*
X91016666Y-92278333D02*
X91716666Y-92045000D01*
X91016666Y-91811666D01*
X91016666Y-91445000D02*
X91016666Y-91378333D01*
X91050000Y-91311666D01*
X91083333Y-91278333D01*
X91150000Y-91245000D01*
X91283333Y-91211666D01*
X91450000Y-91211666D01*
X91583333Y-91245000D01*
X91650000Y-91278333D01*
X91683333Y-91311666D01*
X91716666Y-91378333D01*
X91716666Y-91445000D01*
X91683333Y-91511666D01*
X91650000Y-91545000D01*
X91583333Y-91578333D01*
X91450000Y-91611666D01*
X91283333Y-91611666D01*
X91150000Y-91578333D01*
X91083333Y-91545000D01*
X91050000Y-91511666D01*
X91016666Y-91445000D01*
X90335833Y-120235000D02*
X90302500Y-120268333D01*
X90202500Y-120301666D01*
X90135833Y-120301666D01*
X90035833Y-120268333D01*
X89969166Y-120201666D01*
X89935833Y-120135000D01*
X89902500Y-120001666D01*
X89902500Y-119901666D01*
X89935833Y-119768333D01*
X89969166Y-119701666D01*
X90035833Y-119635000D01*
X90135833Y-119601666D01*
X90202500Y-119601666D01*
X90302500Y-119635000D01*
X90335833Y-119668333D01*
X90602500Y-120268333D02*
X90702500Y-120301666D01*
X90869166Y-120301666D01*
X90935833Y-120268333D01*
X90969166Y-120235000D01*
X91002500Y-120168333D01*
X91002500Y-120101666D01*
X90969166Y-120035000D01*
X90935833Y-120001666D01*
X90869166Y-119968333D01*
X90735833Y-119935000D01*
X90669166Y-119901666D01*
X90635833Y-119868333D01*
X90602500Y-119801666D01*
X90602500Y-119735000D01*
X90635833Y-119668333D01*
X90669166Y-119635000D01*
X90735833Y-119601666D01*
X90902500Y-119601666D01*
X91002500Y-119635000D01*
X91669166Y-120301666D02*
X91269166Y-120301666D01*
X91469166Y-120301666D02*
X91469166Y-119601666D01*
X91402500Y-119701666D01*
X91335833Y-119768333D01*
X91269166Y-119801666D01*
X88769166Y-122841666D02*
X88769166Y-122141666D01*
X89002500Y-122641666D01*
X89235833Y-122141666D01*
X89235833Y-122841666D01*
X89702500Y-122141666D02*
X89835833Y-122141666D01*
X89902500Y-122175000D01*
X89969166Y-122241666D01*
X90002500Y-122375000D01*
X90002500Y-122608333D01*
X89969166Y-122741666D01*
X89902500Y-122808333D01*
X89835833Y-122841666D01*
X89702500Y-122841666D01*
X89635833Y-122808333D01*
X89569166Y-122741666D01*
X89535833Y-122608333D01*
X89535833Y-122375000D01*
X89569166Y-122241666D01*
X89635833Y-122175000D01*
X89702500Y-122141666D01*
X90269166Y-122808333D02*
X90369166Y-122841666D01*
X90535833Y-122841666D01*
X90602500Y-122808333D01*
X90635833Y-122775000D01*
X90669166Y-122708333D01*
X90669166Y-122641666D01*
X90635833Y-122575000D01*
X90602500Y-122541666D01*
X90535833Y-122508333D01*
X90402500Y-122475000D01*
X90335833Y-122441666D01*
X90302500Y-122408333D01*
X90269166Y-122341666D01*
X90269166Y-122275000D01*
X90302500Y-122208333D01*
X90335833Y-122175000D01*
X90402500Y-122141666D01*
X90569166Y-122141666D01*
X90669166Y-122175000D01*
X90969166Y-122841666D02*
X90969166Y-122141666D01*
X91669166Y-122841666D02*
X91269166Y-122841666D01*
X91469166Y-122841666D02*
X91469166Y-122141666D01*
X91402500Y-122241666D01*
X91335833Y-122308333D01*
X91269166Y-122341666D01*
X106482142Y-68129761D02*
X106625000Y-68177380D01*
X106863095Y-68177380D01*
X106958333Y-68129761D01*
X107005952Y-68082142D01*
X107053571Y-67986904D01*
X107053571Y-67891666D01*
X107005952Y-67796428D01*
X106958333Y-67748809D01*
X106863095Y-67701190D01*
X106672619Y-67653571D01*
X106577380Y-67605952D01*
X106529761Y-67558333D01*
X106482142Y-67463095D01*
X106482142Y-67367857D01*
X106529761Y-67272619D01*
X106577380Y-67225000D01*
X106672619Y-67177380D01*
X106910714Y-67177380D01*
X107053571Y-67225000D01*
X107339285Y-67510714D02*
X107720238Y-67510714D01*
X107482142Y-67177380D02*
X107482142Y-68034523D01*
X107529761Y-68129761D01*
X107625000Y-68177380D01*
X107720238Y-68177380D01*
X108482142Y-68177380D02*
X108482142Y-67653571D01*
X108434523Y-67558333D01*
X108339285Y-67510714D01*
X108148809Y-67510714D01*
X108053571Y-67558333D01*
X108482142Y-68129761D02*
X108386904Y-68177380D01*
X108148809Y-68177380D01*
X108053571Y-68129761D01*
X108005952Y-68034523D01*
X108005952Y-67939285D01*
X108053571Y-67844047D01*
X108148809Y-67796428D01*
X108386904Y-67796428D01*
X108482142Y-67748809D01*
X109386904Y-68129761D02*
X109291666Y-68177380D01*
X109101190Y-68177380D01*
X109005952Y-68129761D01*
X108958333Y-68082142D01*
X108910714Y-67986904D01*
X108910714Y-67701190D01*
X108958333Y-67605952D01*
X109005952Y-67558333D01*
X109101190Y-67510714D01*
X109291666Y-67510714D01*
X109386904Y-67558333D01*
X109815476Y-68177380D02*
X109815476Y-67177380D01*
X109910714Y-67796428D02*
X110196428Y-68177380D01*
X110196428Y-67510714D02*
X109815476Y-67891666D01*
X111863095Y-67177380D02*
X111386904Y-67177380D01*
X111339285Y-67653571D01*
X111386904Y-67605952D01*
X111482142Y-67558333D01*
X111720238Y-67558333D01*
X111815476Y-67605952D01*
X111863095Y-67653571D01*
X111910714Y-67748809D01*
X111910714Y-67986904D01*
X111863095Y-68082142D01*
X111815476Y-68129761D01*
X111720238Y-68177380D01*
X111482142Y-68177380D01*
X111386904Y-68129761D01*
X111339285Y-68082142D01*
X112196428Y-67177380D02*
X112529761Y-68177380D01*
X112863095Y-67177380D01*
D12*
X106970000Y-62830000D02*
X106970000Y-61500000D01*
X108300000Y-62830000D02*
X106970000Y-62830000D01*
X109570000Y-62830000D02*
X109570000Y-60170000D01*
X109570000Y-60170000D02*
X112170000Y-60170000D01*
X109570000Y-62830000D02*
X112170000Y-62830000D01*
X112170000Y-62830000D02*
X112170000Y-60170000D01*
D11*
X182155000Y-51405000D02*
G75*
G03X182155000Y-51405000I-3200000J0D01*
G01*
X182155000Y-131415000D02*
G75*
G03X182155000Y-131415000I-3200000J0D01*
G01*
X96425000Y-127605000D02*
G75*
G03X96425000Y-127605000I-3200000J0D01*
G01*
X96425000Y-53945000D02*
G75*
G03X96425000Y-53945000I-3200000J0D01*
G01*
X97015000Y-57755000D02*
X97015000Y-123795000D01*
X91935000Y-123795000D02*
X91935000Y-57755000D01*
X102095000Y-123795000D02*
X91935000Y-123795000D01*
X102095000Y-57755000D02*
X102095000Y-123795000D01*
X91935000Y-57755000D02*
X102095000Y-57755000D01*
D12*
X171450000Y-72700000D02*
X171150000Y-72700000D01*
X171150000Y-72700000D02*
X171150000Y-73200000D01*
X171740000Y-69325000D02*
X171740000Y-72990000D01*
X171740000Y-72990000D02*
X171440000Y-72990000D01*
X171440000Y-72990000D02*
X171440000Y-74060000D01*
X171440000Y-74060000D02*
X177160000Y-74060000D01*
X177160000Y-74060000D02*
X177160000Y-69325000D01*
X171740000Y-69325000D02*
X171740000Y-65660000D01*
X171740000Y-65660000D02*
X171440000Y-65660000D01*
X171440000Y-65660000D02*
X171440000Y-64590000D01*
X171440000Y-64590000D02*
X177160000Y-64590000D01*
X177160000Y-64590000D02*
X177160000Y-69325000D01*
X126700000Y-53125000D02*
X126700000Y-53425000D01*
X126700000Y-53425000D02*
X127200000Y-53425000D01*
X123325000Y-52835000D02*
X126990000Y-52835000D01*
X126990000Y-52835000D02*
X126990000Y-53135000D01*
X126990000Y-53135000D02*
X128060000Y-53135000D01*
X128060000Y-53135000D02*
X128060000Y-47415000D01*
X128060000Y-47415000D02*
X123325000Y-47415000D01*
X123325000Y-52835000D02*
X119660000Y-52835000D01*
X119660000Y-52835000D02*
X119660000Y-53135000D01*
X119660000Y-53135000D02*
X118590000Y-53135000D01*
X118590000Y-53135000D02*
X118590000Y-47415000D01*
X118590000Y-47415000D02*
X123325000Y-47415000D01*
X103500000Y-131470000D02*
X103500000Y-134130000D01*
X111180000Y-131470000D02*
X103500000Y-131470000D01*
X111180000Y-134130000D02*
X103500000Y-134130000D01*
X111180000Y-131470000D02*
X111180000Y-134130000D01*
X112450000Y-131470000D02*
X113780000Y-131470000D01*
X113780000Y-131470000D02*
X113780000Y-132800000D01*
X103500000Y-125470000D02*
X103500000Y-128130000D01*
X111180000Y-125470000D02*
X103500000Y-125470000D01*
X111180000Y-128130000D02*
X103500000Y-128130000D01*
X111180000Y-125470000D02*
X111180000Y-128130000D01*
X112450000Y-125470000D02*
X113780000Y-125470000D01*
X113780000Y-125470000D02*
X113780000Y-126800000D01*
X114150000Y-58650000D02*
X114150000Y-46050000D01*
X114150000Y-46050000D02*
X103800000Y-46050000D01*
X103800000Y-46050000D02*
X103800000Y-47000000D01*
X103800000Y-47000000D02*
X103300000Y-46750000D01*
X103300000Y-46750000D02*
X103300000Y-48650000D01*
X103300000Y-48650000D02*
X103300000Y-48700000D01*
X103300000Y-48700000D02*
X103800000Y-48450000D01*
X103800000Y-48450000D02*
X103800000Y-53850000D01*
X103800000Y-53850000D02*
X103300000Y-53550000D01*
X103300000Y-53550000D02*
X103300000Y-58650000D01*
X103300000Y-58650000D02*
X114150000Y-58650000D01*
X106970000Y-66580000D02*
X106970000Y-65250000D01*
X108300000Y-66580000D02*
X106970000Y-66580000D01*
X109570000Y-66580000D02*
X109570000Y-63920000D01*
X109570000Y-63920000D02*
X112170000Y-63920000D01*
X109570000Y-66580000D02*
X112170000Y-66580000D01*
X112170000Y-66580000D02*
X112170000Y-63920000D01*
X121450000Y-64110000D02*
X122780000Y-64110000D01*
X122780000Y-64110000D02*
X122780000Y-65440000D01*
X120180000Y-64110000D02*
X120180000Y-66710000D01*
X120180000Y-66710000D02*
X122780000Y-66710000D01*
X122780000Y-66710000D02*
X122780000Y-115030000D01*
X117580000Y-115030000D02*
X122780000Y-115030000D01*
X117580000Y-64110000D02*
X117580000Y-115030000D01*
X117580000Y-64110000D02*
X120180000Y-64110000D01*
D10*
X105422380Y-61833333D02*
X106136666Y-61833333D01*
X106279523Y-61880952D01*
X106374761Y-61976190D01*
X106422380Y-62119047D01*
X106422380Y-62214285D01*
X105850952Y-61214285D02*
X105803333Y-61309523D01*
X105755714Y-61357142D01*
X105660476Y-61404761D01*
X105612857Y-61404761D01*
X105517619Y-61357142D01*
X105470000Y-61309523D01*
X105422380Y-61214285D01*
X105422380Y-61023809D01*
X105470000Y-60928571D01*
X105517619Y-60880952D01*
X105612857Y-60833333D01*
X105660476Y-60833333D01*
X105755714Y-60880952D01*
X105803333Y-60928571D01*
X105850952Y-61023809D01*
X105850952Y-61214285D01*
X105898571Y-61309523D01*
X105946190Y-61357142D01*
X106041428Y-61404761D01*
X106231904Y-61404761D01*
X106327142Y-61357142D01*
X106374761Y-61309523D01*
X106422380Y-61214285D01*
X106422380Y-61023809D01*
X106374761Y-60928571D01*
X106327142Y-60880952D01*
X106231904Y-60833333D01*
X106041428Y-60833333D01*
X105946190Y-60880952D01*
X105898571Y-60928571D01*
X105850952Y-61023809D01*
X170102380Y-69663333D02*
X170816666Y-69663333D01*
X170959523Y-69710952D01*
X171054761Y-69806190D01*
X171102380Y-69949047D01*
X171102380Y-70044285D01*
X170435714Y-68758571D02*
X171102380Y-68758571D01*
X170054761Y-68996666D02*
X170769047Y-69234761D01*
X170769047Y-68615714D01*
X175407142Y-73187142D02*
X174507142Y-73187142D01*
X174507142Y-72844285D01*
X174550000Y-72758571D01*
X174592857Y-72715714D01*
X174678571Y-72672857D01*
X174807142Y-72672857D01*
X174892857Y-72715714D01*
X174935714Y-72758571D01*
X174978571Y-72844285D01*
X174978571Y-73187142D01*
X175407142Y-72287142D02*
X174507142Y-72287142D01*
X175321428Y-71344285D02*
X175364285Y-71387142D01*
X175407142Y-71515714D01*
X175407142Y-71601428D01*
X175364285Y-71730000D01*
X175278571Y-71815714D01*
X175192857Y-71858571D01*
X175021428Y-71901428D01*
X174892857Y-71901428D01*
X174721428Y-71858571D01*
X174635714Y-71815714D01*
X174550000Y-71730000D01*
X174507142Y-71601428D01*
X174507142Y-71515714D01*
X174550000Y-71387142D01*
X174592857Y-71344285D01*
X174507142Y-70787142D02*
X174507142Y-70615714D01*
X174550000Y-70530000D01*
X174635714Y-70444285D01*
X174807142Y-70401428D01*
X175107142Y-70401428D01*
X175278571Y-70444285D01*
X175364285Y-70530000D01*
X175407142Y-70615714D01*
X175407142Y-70787142D01*
X175364285Y-70872857D01*
X175278571Y-70958571D01*
X175107142Y-71001428D01*
X174807142Y-71001428D01*
X174635714Y-70958571D01*
X174550000Y-70872857D01*
X174507142Y-70787142D01*
X174935714Y-69715714D02*
X174978571Y-69587142D01*
X175021428Y-69544285D01*
X175107142Y-69501428D01*
X175235714Y-69501428D01*
X175321428Y-69544285D01*
X175364285Y-69587142D01*
X175407142Y-69672857D01*
X175407142Y-70015714D01*
X174507142Y-70015714D01*
X174507142Y-69715714D01*
X174550000Y-69630000D01*
X174592857Y-69587142D01*
X174678571Y-69544285D01*
X174764285Y-69544285D01*
X174850000Y-69587142D01*
X174892857Y-69630000D01*
X174935714Y-69715714D01*
X174935714Y-70015714D01*
X175407142Y-68687142D02*
X175407142Y-69115714D01*
X174507142Y-69115714D01*
X175150000Y-68430000D02*
X175150000Y-68001428D01*
X175407142Y-68515714D02*
X174507142Y-68215714D01*
X175407142Y-67915714D01*
X175407142Y-67615714D02*
X174507142Y-67615714D01*
X174507142Y-67401428D01*
X174550000Y-67272857D01*
X174635714Y-67187142D01*
X174721428Y-67144285D01*
X174892857Y-67101428D01*
X175021428Y-67101428D01*
X175192857Y-67144285D01*
X175278571Y-67187142D01*
X175364285Y-67272857D01*
X175407142Y-67401428D01*
X175407142Y-67615714D01*
X174935714Y-66715714D02*
X174935714Y-66415714D01*
X175407142Y-66287142D02*
X175407142Y-66715714D01*
X174507142Y-66715714D01*
X174507142Y-66287142D01*
X174592857Y-65944285D02*
X174550000Y-65901428D01*
X174507142Y-65815714D01*
X174507142Y-65601428D01*
X174550000Y-65515714D01*
X174592857Y-65472857D01*
X174678571Y-65430000D01*
X174764285Y-65430000D01*
X174892857Y-65472857D01*
X175407142Y-65987142D01*
X175407142Y-65430000D01*
X122996666Y-53377380D02*
X122996666Y-54091666D01*
X122949047Y-54234523D01*
X122853809Y-54329761D01*
X122710952Y-54377380D01*
X122615714Y-54377380D01*
X123377619Y-53377380D02*
X123996666Y-53377380D01*
X123663333Y-53758333D01*
X123806190Y-53758333D01*
X123901428Y-53805952D01*
X123949047Y-53853571D01*
X123996666Y-53948809D01*
X123996666Y-54186904D01*
X123949047Y-54282142D01*
X123901428Y-54329761D01*
X123806190Y-54377380D01*
X123520476Y-54377380D01*
X123425238Y-54329761D01*
X123377619Y-54282142D01*
X119472857Y-49407142D02*
X119472857Y-48507142D01*
X119815714Y-48507142D01*
X119901428Y-48550000D01*
X119944285Y-48592857D01*
X119987142Y-48678571D01*
X119987142Y-48807142D01*
X119944285Y-48892857D01*
X119901428Y-48935714D01*
X119815714Y-48978571D01*
X119472857Y-48978571D01*
X120372857Y-49407142D02*
X120372857Y-48507142D01*
X121315714Y-49321428D02*
X121272857Y-49364285D01*
X121144285Y-49407142D01*
X121058571Y-49407142D01*
X120930000Y-49364285D01*
X120844285Y-49278571D01*
X120801428Y-49192857D01*
X120758571Y-49021428D01*
X120758571Y-48892857D01*
X120801428Y-48721428D01*
X120844285Y-48635714D01*
X120930000Y-48550000D01*
X121058571Y-48507142D01*
X121144285Y-48507142D01*
X121272857Y-48550000D01*
X121315714Y-48592857D01*
X121872857Y-48507142D02*
X122044285Y-48507142D01*
X122130000Y-48550000D01*
X122215714Y-48635714D01*
X122258571Y-48807142D01*
X122258571Y-49107142D01*
X122215714Y-49278571D01*
X122130000Y-49364285D01*
X122044285Y-49407142D01*
X121872857Y-49407142D01*
X121787142Y-49364285D01*
X121701428Y-49278571D01*
X121658571Y-49107142D01*
X121658571Y-48807142D01*
X121701428Y-48635714D01*
X121787142Y-48550000D01*
X121872857Y-48507142D01*
X122944285Y-48935714D02*
X123072857Y-48978571D01*
X123115714Y-49021428D01*
X123158571Y-49107142D01*
X123158571Y-49235714D01*
X123115714Y-49321428D01*
X123072857Y-49364285D01*
X122987142Y-49407142D01*
X122644285Y-49407142D01*
X122644285Y-48507142D01*
X122944285Y-48507142D01*
X123030000Y-48550000D01*
X123072857Y-48592857D01*
X123115714Y-48678571D01*
X123115714Y-48764285D01*
X123072857Y-48850000D01*
X123030000Y-48892857D01*
X122944285Y-48935714D01*
X122644285Y-48935714D01*
X123972857Y-49407142D02*
X123544285Y-49407142D01*
X123544285Y-48507142D01*
X124230000Y-49150000D02*
X124658571Y-49150000D01*
X124144285Y-49407142D02*
X124444285Y-48507142D01*
X124744285Y-49407142D01*
X125044285Y-49407142D02*
X125044285Y-48507142D01*
X125258571Y-48507142D01*
X125387142Y-48550000D01*
X125472857Y-48635714D01*
X125515714Y-48721428D01*
X125558571Y-48892857D01*
X125558571Y-49021428D01*
X125515714Y-49192857D01*
X125472857Y-49278571D01*
X125387142Y-49364285D01*
X125258571Y-49407142D01*
X125044285Y-49407142D01*
X125944285Y-48935714D02*
X126244285Y-48935714D01*
X126372857Y-49407142D02*
X125944285Y-49407142D01*
X125944285Y-48507142D01*
X126372857Y-48507142D01*
X127230000Y-49407142D02*
X126715714Y-49407142D01*
X126972857Y-49407142D02*
X126972857Y-48507142D01*
X126887142Y-48635714D01*
X126801428Y-48721428D01*
X126715714Y-48764285D01*
X114232380Y-133133333D02*
X114946666Y-133133333D01*
X115089523Y-133180952D01*
X115184761Y-133276190D01*
X115232380Y-133419047D01*
X115232380Y-133514285D01*
X114232380Y-132752380D02*
X114232380Y-132085714D01*
X115232380Y-132514285D01*
X114232380Y-127133333D02*
X114946666Y-127133333D01*
X115089523Y-127180952D01*
X115184761Y-127276190D01*
X115232380Y-127419047D01*
X115232380Y-127514285D01*
X114232380Y-126228571D02*
X114232380Y-126419047D01*
X114280000Y-126514285D01*
X114327619Y-126561904D01*
X114470476Y-126657142D01*
X114660952Y-126704761D01*
X115041904Y-126704761D01*
X115137142Y-126657142D01*
X115184761Y-126609523D01*
X115232380Y-126514285D01*
X115232380Y-126323809D01*
X115184761Y-126228571D01*
X115137142Y-126180952D01*
X115041904Y-126133333D01*
X114803809Y-126133333D01*
X114708571Y-126180952D01*
X114660952Y-126228571D01*
X114613333Y-126323809D01*
X114613333Y-126514285D01*
X114660952Y-126609523D01*
X114708571Y-126657142D01*
X114803809Y-126704761D01*
X108666666Y-53502380D02*
X108666666Y-54216666D01*
X108619047Y-54359523D01*
X108523809Y-54454761D01*
X108380952Y-54502380D01*
X108285714Y-54502380D01*
X109095238Y-53597619D02*
X109142857Y-53550000D01*
X109238095Y-53502380D01*
X109476190Y-53502380D01*
X109571428Y-53550000D01*
X109619047Y-53597619D01*
X109666666Y-53692857D01*
X109666666Y-53788095D01*
X109619047Y-53930952D01*
X109047619Y-54502380D01*
X109666666Y-54502380D01*
X105422380Y-65583333D02*
X106136666Y-65583333D01*
X106279523Y-65630952D01*
X106374761Y-65726190D01*
X106422380Y-65869047D01*
X106422380Y-65964285D01*
X106422380Y-64583333D02*
X106422380Y-65154761D01*
X106422380Y-64869047D02*
X105422380Y-64869047D01*
X105565238Y-64964285D01*
X105660476Y-65059523D01*
X105708095Y-65154761D01*
X119846666Y-62902380D02*
X119846666Y-63616666D01*
X119799047Y-63759523D01*
X119703809Y-63854761D01*
X119560952Y-63902380D01*
X119465714Y-63902380D01*
X120513333Y-62902380D02*
X120608571Y-62902380D01*
X120703809Y-62950000D01*
X120751428Y-62997619D01*
X120799047Y-63092857D01*
X120846666Y-63283333D01*
X120846666Y-63521428D01*
X120799047Y-63711904D01*
X120751428Y-63807142D01*
X120703809Y-63854761D01*
X120608571Y-63902380D01*
X120513333Y-63902380D01*
X120418095Y-63854761D01*
X120370476Y-63807142D01*
X120322857Y-63711904D01*
X120275238Y-63521428D01*
X120275238Y-63283333D01*
X120322857Y-63092857D01*
X120370476Y-62997619D01*
X120418095Y-62950000D01*
X120513333Y-62902380D01*
M02*
