G04 #@! TF.GenerationSoftware,KiCad,Pcbnew,6.0.0-unknown-62d453e~86~ubuntu18.04.1*
G04 #@! TF.CreationDate,2019-07-13T13:42:48-04:00*
G04 #@! TF.ProjectId,OBC,4f42432e-6b69-4636-9164-5f7063625858,rev?*
G04 #@! TF.SameCoordinates,Original*
G04 #@! TF.FileFunction,Legend,Bot*
G04 #@! TF.FilePolarity,Positive*
%FSLAX46Y46*%
G04 Gerber Fmt 4.6, Leading zero omitted, Abs format (unit mm)*
G04 Created by KiCad (PCBNEW 6.0.0-unknown-62d453e~86~ubuntu18.04.1) date 2019-07-13 13:42:48*
%MOMM*%
%LPD*%
G04 APERTURE LIST*
%ADD10C,0.150000*%
%ADD11C,0.120000*%
G04 APERTURE END LIST*
D10*
X152035000Y-70407023D02*
X151996904Y-70330833D01*
X151996904Y-70216547D01*
X152035000Y-70102261D01*
X152111190Y-70026071D01*
X152187380Y-69987976D01*
X152339761Y-69949880D01*
X152454047Y-69949880D01*
X152606428Y-69987976D01*
X152682619Y-70026071D01*
X152758809Y-70102261D01*
X152796904Y-70216547D01*
X152796904Y-70292738D01*
X152758809Y-70407023D01*
X152720714Y-70445119D01*
X152454047Y-70445119D01*
X152454047Y-70292738D01*
X152796904Y-70787976D02*
X151996904Y-70787976D01*
X151996904Y-71092738D01*
X152035000Y-71168928D01*
X152073095Y-71207023D01*
X152149285Y-71245119D01*
X152263571Y-71245119D01*
X152339761Y-71207023D01*
X152377857Y-71168928D01*
X152415952Y-71092738D01*
X152415952Y-70787976D01*
X152758809Y-71549880D02*
X152796904Y-71664166D01*
X152796904Y-71854642D01*
X152758809Y-71930833D01*
X152720714Y-71968928D01*
X152644523Y-72007023D01*
X152568333Y-72007023D01*
X152492142Y-71968928D01*
X152454047Y-71930833D01*
X152415952Y-71854642D01*
X152377857Y-71702261D01*
X152339761Y-71626071D01*
X152301666Y-71587976D01*
X152225476Y-71549880D01*
X152149285Y-71549880D01*
X152073095Y-71587976D01*
X152035000Y-71626071D01*
X151996904Y-71702261D01*
X151996904Y-71892738D01*
X152035000Y-72007023D01*
X152873095Y-72159404D02*
X152873095Y-72768928D01*
X151996904Y-72845119D02*
X151996904Y-73302261D01*
X152796904Y-73073690D02*
X151996904Y-73073690D01*
X151996904Y-73492738D02*
X152796904Y-74026071D01*
X151996904Y-74026071D02*
X152796904Y-73492738D01*
X149495000Y-70407023D02*
X149456904Y-70330833D01*
X149456904Y-70216547D01*
X149495000Y-70102261D01*
X149571190Y-70026071D01*
X149647380Y-69987976D01*
X149799761Y-69949880D01*
X149914047Y-69949880D01*
X150066428Y-69987976D01*
X150142619Y-70026071D01*
X150218809Y-70102261D01*
X150256904Y-70216547D01*
X150256904Y-70292738D01*
X150218809Y-70407023D01*
X150180714Y-70445119D01*
X149914047Y-70445119D01*
X149914047Y-70292738D01*
X150256904Y-70787976D02*
X149456904Y-70787976D01*
X149456904Y-71092738D01*
X149495000Y-71168928D01*
X149533095Y-71207023D01*
X149609285Y-71245119D01*
X149723571Y-71245119D01*
X149799761Y-71207023D01*
X149837857Y-71168928D01*
X149875952Y-71092738D01*
X149875952Y-70787976D01*
X150218809Y-71549880D02*
X150256904Y-71664166D01*
X150256904Y-71854642D01*
X150218809Y-71930833D01*
X150180714Y-71968928D01*
X150104523Y-72007023D01*
X150028333Y-72007023D01*
X149952142Y-71968928D01*
X149914047Y-71930833D01*
X149875952Y-71854642D01*
X149837857Y-71702261D01*
X149799761Y-71626071D01*
X149761666Y-71587976D01*
X149685476Y-71549880D01*
X149609285Y-71549880D01*
X149533095Y-71587976D01*
X149495000Y-71626071D01*
X149456904Y-71702261D01*
X149456904Y-71892738D01*
X149495000Y-72007023D01*
X150333095Y-72159404D02*
X150333095Y-72768928D01*
X149456904Y-72845119D02*
X149456904Y-73302261D01*
X150256904Y-73073690D02*
X149456904Y-73073690D01*
X149456904Y-73492738D02*
X150256904Y-74026071D01*
X149456904Y-74026071D02*
X150256904Y-73492738D01*
X157115000Y-93507023D02*
X157076904Y-93430833D01*
X157076904Y-93316547D01*
X157115000Y-93202261D01*
X157191190Y-93126071D01*
X157267380Y-93087976D01*
X157419761Y-93049880D01*
X157534047Y-93049880D01*
X157686428Y-93087976D01*
X157762619Y-93126071D01*
X157838809Y-93202261D01*
X157876904Y-93316547D01*
X157876904Y-93392738D01*
X157838809Y-93507023D01*
X157800714Y-93545119D01*
X157534047Y-93545119D01*
X157534047Y-93392738D01*
X157876904Y-93887976D02*
X157076904Y-93887976D01*
X157876904Y-94345119D01*
X157076904Y-94345119D01*
X157876904Y-94726071D02*
X157076904Y-94726071D01*
X157076904Y-94916547D01*
X157115000Y-95030833D01*
X157191190Y-95107023D01*
X157267380Y-95145119D01*
X157419761Y-95183214D01*
X157534047Y-95183214D01*
X157686428Y-95145119D01*
X157762619Y-95107023D01*
X157838809Y-95030833D01*
X157876904Y-94916547D01*
X157876904Y-94726071D01*
X154536904Y-93011785D02*
X154536904Y-93507023D01*
X154841666Y-93240357D01*
X154841666Y-93354642D01*
X154879761Y-93430833D01*
X154917857Y-93468928D01*
X154994047Y-93507023D01*
X155184523Y-93507023D01*
X155260714Y-93468928D01*
X155298809Y-93430833D01*
X155336904Y-93354642D01*
X155336904Y-93126071D01*
X155298809Y-93049880D01*
X155260714Y-93011785D01*
X154536904Y-93735595D02*
X155336904Y-94002261D01*
X154536904Y-94268928D01*
X154536904Y-94459404D02*
X154536904Y-94954642D01*
X154841666Y-94687976D01*
X154841666Y-94802261D01*
X154879761Y-94878452D01*
X154917857Y-94916547D01*
X154994047Y-94954642D01*
X155184523Y-94954642D01*
X155260714Y-94916547D01*
X155298809Y-94878452D01*
X155336904Y-94802261D01*
X155336904Y-94573690D01*
X155298809Y-94497500D01*
X155260714Y-94459404D01*
X159126666Y-46791666D02*
X159226666Y-46758333D01*
X159393333Y-46758333D01*
X159460000Y-46791666D01*
X159493333Y-46825000D01*
X159526666Y-46891666D01*
X159526666Y-46958333D01*
X159493333Y-47025000D01*
X159460000Y-47058333D01*
X159393333Y-47091666D01*
X159260000Y-47125000D01*
X159193333Y-47158333D01*
X159160000Y-47191666D01*
X159126666Y-47258333D01*
X159126666Y-47325000D01*
X159160000Y-47391666D01*
X159193333Y-47425000D01*
X159260000Y-47458333D01*
X159426666Y-47458333D01*
X159526666Y-47425000D01*
X160226666Y-46825000D02*
X160193333Y-46791666D01*
X160093333Y-46758333D01*
X160026666Y-46758333D01*
X159926666Y-46791666D01*
X159860000Y-46858333D01*
X159826666Y-46925000D01*
X159793333Y-47058333D01*
X159793333Y-47158333D01*
X159826666Y-47291666D01*
X159860000Y-47358333D01*
X159926666Y-47425000D01*
X160026666Y-47458333D01*
X160093333Y-47458333D01*
X160193333Y-47425000D01*
X160226666Y-47391666D01*
X160860000Y-46758333D02*
X160526666Y-46758333D01*
X160526666Y-47458333D01*
X156550000Y-46791666D02*
X156650000Y-46758333D01*
X156816666Y-46758333D01*
X156883333Y-46791666D01*
X156916666Y-46825000D01*
X156950000Y-46891666D01*
X156950000Y-46958333D01*
X156916666Y-47025000D01*
X156883333Y-47058333D01*
X156816666Y-47091666D01*
X156683333Y-47125000D01*
X156616666Y-47158333D01*
X156583333Y-47191666D01*
X156550000Y-47258333D01*
X156550000Y-47325000D01*
X156583333Y-47391666D01*
X156616666Y-47425000D01*
X156683333Y-47458333D01*
X156850000Y-47458333D01*
X156950000Y-47425000D01*
X157250000Y-46758333D02*
X157250000Y-47458333D01*
X157416666Y-47458333D01*
X157516666Y-47425000D01*
X157583333Y-47358333D01*
X157616666Y-47291666D01*
X157650000Y-47158333D01*
X157650000Y-47058333D01*
X157616666Y-46925000D01*
X157583333Y-46858333D01*
X157516666Y-46791666D01*
X157416666Y-46758333D01*
X157250000Y-46758333D01*
X157916666Y-46958333D02*
X158250000Y-46958333D01*
X157850000Y-46758333D02*
X158083333Y-47458333D01*
X158316666Y-46758333D01*
X153973333Y-47458333D02*
X154406666Y-47458333D01*
X154173333Y-47191666D01*
X154273333Y-47191666D01*
X154340000Y-47158333D01*
X154373333Y-47125000D01*
X154406666Y-47058333D01*
X154406666Y-46891666D01*
X154373333Y-46825000D01*
X154340000Y-46791666D01*
X154273333Y-46758333D01*
X154073333Y-46758333D01*
X154006666Y-46791666D01*
X153973333Y-46825000D01*
X154606666Y-47458333D02*
X154840000Y-46758333D01*
X155073333Y-47458333D01*
X155240000Y-47458333D02*
X155673333Y-47458333D01*
X155440000Y-47191666D01*
X155540000Y-47191666D01*
X155606666Y-47158333D01*
X155640000Y-47125000D01*
X155673333Y-47058333D01*
X155673333Y-46891666D01*
X155640000Y-46825000D01*
X155606666Y-46791666D01*
X155540000Y-46758333D01*
X155340000Y-46758333D01*
X155273333Y-46791666D01*
X155240000Y-46825000D01*
X151746666Y-47425000D02*
X151680000Y-47458333D01*
X151580000Y-47458333D01*
X151480000Y-47425000D01*
X151413333Y-47358333D01*
X151380000Y-47291666D01*
X151346666Y-47158333D01*
X151346666Y-47058333D01*
X151380000Y-46925000D01*
X151413333Y-46858333D01*
X151480000Y-46791666D01*
X151580000Y-46758333D01*
X151646666Y-46758333D01*
X151746666Y-46791666D01*
X151780000Y-46825000D01*
X151780000Y-47058333D01*
X151646666Y-47058333D01*
X152080000Y-46758333D02*
X152080000Y-47458333D01*
X152480000Y-46758333D01*
X152480000Y-47458333D01*
X152813333Y-46758333D02*
X152813333Y-47458333D01*
X152980000Y-47458333D01*
X153080000Y-47425000D01*
X153146666Y-47358333D01*
X153180000Y-47291666D01*
X153213333Y-47158333D01*
X153213333Y-47058333D01*
X153180000Y-46925000D01*
X153146666Y-46858333D01*
X153080000Y-46791666D01*
X152980000Y-46758333D01*
X152813333Y-46758333D01*
X140235000Y-46716666D02*
X140335000Y-46683333D01*
X140501666Y-46683333D01*
X140568333Y-46716666D01*
X140601666Y-46750000D01*
X140635000Y-46816666D01*
X140635000Y-46883333D01*
X140601666Y-46950000D01*
X140568333Y-46983333D01*
X140501666Y-47016666D01*
X140368333Y-47050000D01*
X140301666Y-47083333D01*
X140268333Y-47116666D01*
X140235000Y-47183333D01*
X140235000Y-47250000D01*
X140268333Y-47316666D01*
X140301666Y-47350000D01*
X140368333Y-47383333D01*
X140535000Y-47383333D01*
X140635000Y-47350000D01*
X140935000Y-46683333D02*
X140935000Y-47383333D01*
X141101666Y-47383333D01*
X141201666Y-47350000D01*
X141268333Y-47283333D01*
X141301666Y-47216666D01*
X141335000Y-47083333D01*
X141335000Y-46983333D01*
X141301666Y-46850000D01*
X141268333Y-46783333D01*
X141201666Y-46716666D01*
X141101666Y-46683333D01*
X140935000Y-46683333D01*
X141601666Y-46883333D02*
X141935000Y-46883333D01*
X141535000Y-46683333D02*
X141768333Y-47383333D01*
X142001666Y-46683333D01*
X137711666Y-46716666D02*
X137811666Y-46683333D01*
X137978333Y-46683333D01*
X138045000Y-46716666D01*
X138078333Y-46750000D01*
X138111666Y-46816666D01*
X138111666Y-46883333D01*
X138078333Y-46950000D01*
X138045000Y-46983333D01*
X137978333Y-47016666D01*
X137845000Y-47050000D01*
X137778333Y-47083333D01*
X137745000Y-47116666D01*
X137711666Y-47183333D01*
X137711666Y-47250000D01*
X137745000Y-47316666D01*
X137778333Y-47350000D01*
X137845000Y-47383333D01*
X138011666Y-47383333D01*
X138111666Y-47350000D01*
X138811666Y-46750000D02*
X138778333Y-46716666D01*
X138678333Y-46683333D01*
X138611666Y-46683333D01*
X138511666Y-46716666D01*
X138445000Y-46783333D01*
X138411666Y-46850000D01*
X138378333Y-46983333D01*
X138378333Y-47083333D01*
X138411666Y-47216666D01*
X138445000Y-47283333D01*
X138511666Y-47350000D01*
X138611666Y-47383333D01*
X138678333Y-47383333D01*
X138778333Y-47350000D01*
X138811666Y-47316666D01*
X139445000Y-46683333D02*
X139111666Y-46683333D01*
X139111666Y-47383333D01*
X135471666Y-47350000D02*
X135405000Y-47383333D01*
X135305000Y-47383333D01*
X135205000Y-47350000D01*
X135138333Y-47283333D01*
X135105000Y-47216666D01*
X135071666Y-47083333D01*
X135071666Y-46983333D01*
X135105000Y-46850000D01*
X135138333Y-46783333D01*
X135205000Y-46716666D01*
X135305000Y-46683333D01*
X135371666Y-46683333D01*
X135471666Y-46716666D01*
X135505000Y-46750000D01*
X135505000Y-46983333D01*
X135371666Y-46983333D01*
X135805000Y-46683333D02*
X135805000Y-47383333D01*
X136205000Y-46683333D01*
X136205000Y-47383333D01*
X136538333Y-46683333D02*
X136538333Y-47383333D01*
X136705000Y-47383333D01*
X136805000Y-47350000D01*
X136871666Y-47283333D01*
X136905000Y-47216666D01*
X136938333Y-47083333D01*
X136938333Y-46983333D01*
X136905000Y-46850000D01*
X136871666Y-46783333D01*
X136805000Y-46716666D01*
X136705000Y-46683333D01*
X136538333Y-46683333D01*
X132598333Y-47383333D02*
X133031666Y-47383333D01*
X132798333Y-47116666D01*
X132898333Y-47116666D01*
X132965000Y-47083333D01*
X132998333Y-47050000D01*
X133031666Y-46983333D01*
X133031666Y-46816666D01*
X132998333Y-46750000D01*
X132965000Y-46716666D01*
X132898333Y-46683333D01*
X132698333Y-46683333D01*
X132631666Y-46716666D01*
X132598333Y-46750000D01*
X133231666Y-47383333D02*
X133465000Y-46683333D01*
X133698333Y-47383333D01*
X133865000Y-47383333D02*
X134298333Y-47383333D01*
X134065000Y-47116666D01*
X134165000Y-47116666D01*
X134231666Y-47083333D01*
X134265000Y-47050000D01*
X134298333Y-46983333D01*
X134298333Y-46816666D01*
X134265000Y-46750000D01*
X134231666Y-46716666D01*
X134165000Y-46683333D01*
X133965000Y-46683333D01*
X133898333Y-46716666D01*
X133865000Y-46750000D01*
X132605833Y-75950000D02*
X132539166Y-75983333D01*
X132439166Y-75983333D01*
X132339166Y-75950000D01*
X132272500Y-75883333D01*
X132239166Y-75816666D01*
X132205833Y-75683333D01*
X132205833Y-75583333D01*
X132239166Y-75450000D01*
X132272500Y-75383333D01*
X132339166Y-75316666D01*
X132439166Y-75283333D01*
X132505833Y-75283333D01*
X132605833Y-75316666D01*
X132639166Y-75350000D01*
X132639166Y-75583333D01*
X132505833Y-75583333D01*
X132939166Y-75283333D02*
X132939166Y-75983333D01*
X133339166Y-75283333D01*
X133339166Y-75983333D01*
X133672500Y-75283333D02*
X133672500Y-75983333D01*
X133839166Y-75983333D01*
X133939166Y-75950000D01*
X134005833Y-75883333D01*
X134039166Y-75816666D01*
X134072500Y-75683333D01*
X134072500Y-75583333D01*
X134039166Y-75450000D01*
X134005833Y-75383333D01*
X133939166Y-75316666D01*
X133839166Y-75283333D01*
X133672500Y-75283333D01*
X132172500Y-73443333D02*
X132605833Y-73443333D01*
X132372500Y-73176666D01*
X132472500Y-73176666D01*
X132539166Y-73143333D01*
X132572500Y-73110000D01*
X132605833Y-73043333D01*
X132605833Y-72876666D01*
X132572500Y-72810000D01*
X132539166Y-72776666D01*
X132472500Y-72743333D01*
X132272500Y-72743333D01*
X132205833Y-72776666D01*
X132172500Y-72810000D01*
X132805833Y-73443333D02*
X133039166Y-72743333D01*
X133272500Y-73443333D01*
X133439166Y-73443333D02*
X133872500Y-73443333D01*
X133639166Y-73176666D01*
X133739166Y-73176666D01*
X133805833Y-73143333D01*
X133839166Y-73110000D01*
X133872500Y-73043333D01*
X133872500Y-72876666D01*
X133839166Y-72810000D01*
X133805833Y-72776666D01*
X133739166Y-72743333D01*
X133539166Y-72743333D01*
X133472500Y-72776666D01*
X133439166Y-72810000D01*
X132639166Y-70270000D02*
X132605833Y-70236666D01*
X132505833Y-70203333D01*
X132439166Y-70203333D01*
X132339166Y-70236666D01*
X132272500Y-70303333D01*
X132239166Y-70370000D01*
X132205833Y-70503333D01*
X132205833Y-70603333D01*
X132239166Y-70736666D01*
X132272500Y-70803333D01*
X132339166Y-70870000D01*
X132439166Y-70903333D01*
X132505833Y-70903333D01*
X132605833Y-70870000D01*
X132639166Y-70836666D01*
X132905833Y-70236666D02*
X133005833Y-70203333D01*
X133172500Y-70203333D01*
X133239166Y-70236666D01*
X133272500Y-70270000D01*
X133305833Y-70336666D01*
X133305833Y-70403333D01*
X133272500Y-70470000D01*
X133239166Y-70503333D01*
X133172500Y-70536666D01*
X133039166Y-70570000D01*
X132972500Y-70603333D01*
X132939166Y-70636666D01*
X132905833Y-70703333D01*
X132905833Y-70770000D01*
X132939166Y-70836666D01*
X132972500Y-70870000D01*
X133039166Y-70903333D01*
X133205833Y-70903333D01*
X133305833Y-70870000D01*
X133605833Y-70203333D02*
X133605833Y-70903333D01*
X133872500Y-70903333D01*
X133939166Y-70870000D01*
X133972500Y-70836666D01*
X134005833Y-70770000D01*
X134005833Y-70670000D01*
X133972500Y-70603333D01*
X133939166Y-70570000D01*
X133872500Y-70536666D01*
X133605833Y-70536666D01*
X134139166Y-70136666D02*
X134672500Y-70136666D01*
X134805833Y-70236666D02*
X134905833Y-70203333D01*
X135072500Y-70203333D01*
X135139166Y-70236666D01*
X135172500Y-70270000D01*
X135205833Y-70336666D01*
X135205833Y-70403333D01*
X135172500Y-70470000D01*
X135139166Y-70503333D01*
X135072500Y-70536666D01*
X134939166Y-70570000D01*
X134872500Y-70603333D01*
X134839166Y-70636666D01*
X134805833Y-70703333D01*
X134805833Y-70770000D01*
X134839166Y-70836666D01*
X134872500Y-70870000D01*
X134939166Y-70903333D01*
X135105833Y-70903333D01*
X135205833Y-70870000D01*
X135905833Y-70270000D02*
X135872500Y-70236666D01*
X135772500Y-70203333D01*
X135705833Y-70203333D01*
X135605833Y-70236666D01*
X135539166Y-70303333D01*
X135505833Y-70370000D01*
X135472500Y-70503333D01*
X135472500Y-70603333D01*
X135505833Y-70736666D01*
X135539166Y-70803333D01*
X135605833Y-70870000D01*
X135705833Y-70903333D01*
X135772500Y-70903333D01*
X135872500Y-70870000D01*
X135905833Y-70836666D01*
X136539166Y-70203333D02*
X136205833Y-70203333D01*
X136205833Y-70903333D01*
X132639166Y-67730000D02*
X132605833Y-67696666D01*
X132505833Y-67663333D01*
X132439166Y-67663333D01*
X132339166Y-67696666D01*
X132272500Y-67763333D01*
X132239166Y-67830000D01*
X132205833Y-67963333D01*
X132205833Y-68063333D01*
X132239166Y-68196666D01*
X132272500Y-68263333D01*
X132339166Y-68330000D01*
X132439166Y-68363333D01*
X132505833Y-68363333D01*
X132605833Y-68330000D01*
X132639166Y-68296666D01*
X132905833Y-67696666D02*
X133005833Y-67663333D01*
X133172500Y-67663333D01*
X133239166Y-67696666D01*
X133272500Y-67730000D01*
X133305833Y-67796666D01*
X133305833Y-67863333D01*
X133272500Y-67930000D01*
X133239166Y-67963333D01*
X133172500Y-67996666D01*
X133039166Y-68030000D01*
X132972500Y-68063333D01*
X132939166Y-68096666D01*
X132905833Y-68163333D01*
X132905833Y-68230000D01*
X132939166Y-68296666D01*
X132972500Y-68330000D01*
X133039166Y-68363333D01*
X133205833Y-68363333D01*
X133305833Y-68330000D01*
X133605833Y-67663333D02*
X133605833Y-68363333D01*
X133872500Y-68363333D01*
X133939166Y-68330000D01*
X133972500Y-68296666D01*
X134005833Y-68230000D01*
X134005833Y-68130000D01*
X133972500Y-68063333D01*
X133939166Y-68030000D01*
X133872500Y-67996666D01*
X133605833Y-67996666D01*
X134139166Y-67596666D02*
X134672500Y-67596666D01*
X134805833Y-67696666D02*
X134905833Y-67663333D01*
X135072500Y-67663333D01*
X135139166Y-67696666D01*
X135172500Y-67730000D01*
X135205833Y-67796666D01*
X135205833Y-67863333D01*
X135172500Y-67930000D01*
X135139166Y-67963333D01*
X135072500Y-67996666D01*
X134939166Y-68030000D01*
X134872500Y-68063333D01*
X134839166Y-68096666D01*
X134805833Y-68163333D01*
X134805833Y-68230000D01*
X134839166Y-68296666D01*
X134872500Y-68330000D01*
X134939166Y-68363333D01*
X135105833Y-68363333D01*
X135205833Y-68330000D01*
X135505833Y-67663333D02*
X135505833Y-68363333D01*
X135672500Y-68363333D01*
X135772500Y-68330000D01*
X135839166Y-68263333D01*
X135872500Y-68196666D01*
X135905833Y-68063333D01*
X135905833Y-67963333D01*
X135872500Y-67830000D01*
X135839166Y-67763333D01*
X135772500Y-67696666D01*
X135672500Y-67663333D01*
X135505833Y-67663333D01*
X136172500Y-67863333D02*
X136505833Y-67863333D01*
X136105833Y-67663333D02*
X136339166Y-68363333D01*
X136572500Y-67663333D01*
D11*
X129145000Y-66650000D02*
X131805000Y-66650000D01*
X129145000Y-74330000D02*
X129145000Y-66650000D01*
X131805000Y-74330000D02*
X131805000Y-66650000D01*
X129145000Y-74330000D02*
X131805000Y-74330000D01*
X129145000Y-75600000D02*
X129145000Y-76930000D01*
X129145000Y-76930000D02*
X130475000Y-76930000D01*
D10*
X170215000Y-92625000D02*
X139735000Y-92625000D01*
X139735000Y-92625000D02*
X139735000Y-67225000D01*
X139735000Y-67225000D02*
X170215000Y-67225000D01*
X170215000Y-92625000D02*
X170215000Y-67225000D01*
X161960000Y-47685000D02*
X161960000Y-65465000D01*
X144940000Y-47685000D02*
X144940000Y-65465000D01*
X144940000Y-47685000D02*
X161960000Y-47685000D01*
X144940000Y-65465000D02*
X161960000Y-65465000D01*
X151040000Y-47685000D02*
X151040000Y-65465000D01*
X132025000Y-47625000D02*
X142525000Y-47625000D01*
X142525000Y-47625000D02*
X142525000Y-60625000D01*
X142525000Y-60625000D02*
X132025000Y-60625000D01*
X132025000Y-60625000D02*
X132025000Y-47625000D01*
X130808333Y-77382380D02*
X130808333Y-78096666D01*
X130855952Y-78239523D01*
X130951190Y-78334761D01*
X131094047Y-78382380D01*
X131189285Y-78382380D01*
X129855952Y-77382380D02*
X130332142Y-77382380D01*
X130379761Y-77858571D01*
X130332142Y-77810952D01*
X130236904Y-77763333D01*
X129998809Y-77763333D01*
X129903571Y-77810952D01*
X129855952Y-77858571D01*
X129808333Y-77953809D01*
X129808333Y-78191904D01*
X129855952Y-78287142D01*
X129903571Y-78334761D01*
X129998809Y-78382380D01*
X130236904Y-78382380D01*
X130332142Y-78334761D01*
X130379761Y-78287142D01*
X170937380Y-79163095D02*
X171746904Y-79163095D01*
X171842142Y-79210714D01*
X171889761Y-79258333D01*
X171937380Y-79353571D01*
X171937380Y-79544047D01*
X171889761Y-79639285D01*
X171842142Y-79686904D01*
X171746904Y-79734523D01*
X170937380Y-79734523D01*
X170937380Y-80115476D02*
X170937380Y-80734523D01*
X171318333Y-80401190D01*
X171318333Y-80544047D01*
X171365952Y-80639285D01*
X171413571Y-80686904D01*
X171508809Y-80734523D01*
X171746904Y-80734523D01*
X171842142Y-80686904D01*
X171889761Y-80639285D01*
X171937380Y-80544047D01*
X171937380Y-80258333D01*
X171889761Y-80163095D01*
X171842142Y-80115476D01*
X154427380Y-77258333D02*
X155427380Y-77925000D01*
X154427380Y-77925000D02*
X155427380Y-77258333D01*
X155141666Y-78258333D02*
X155141666Y-78734523D01*
X155427380Y-78163095D02*
X154427380Y-78496428D01*
X155427380Y-78829761D01*
X155427380Y-79686904D02*
X155427380Y-79115476D01*
X155427380Y-79401190D02*
X154427380Y-79401190D01*
X154570238Y-79305952D01*
X154665476Y-79210714D01*
X154713095Y-79115476D01*
X155427380Y-80639285D02*
X155427380Y-80067857D01*
X155427380Y-80353571D02*
X154427380Y-80353571D01*
X154570238Y-80258333D01*
X154665476Y-80163095D01*
X154713095Y-80067857D01*
X155427380Y-81591666D02*
X155427380Y-81020238D01*
X155427380Y-81305952D02*
X154427380Y-81305952D01*
X154570238Y-81210714D01*
X154665476Y-81115476D01*
X154713095Y-81020238D01*
X154427380Y-82210714D02*
X154427380Y-82305952D01*
X154475000Y-82401190D01*
X154522619Y-82448809D01*
X154617857Y-82496428D01*
X154808333Y-82544047D01*
X155046428Y-82544047D01*
X155236904Y-82496428D01*
X155332142Y-82448809D01*
X155379761Y-82401190D01*
X155427380Y-82305952D01*
X155427380Y-82210714D01*
X155379761Y-82115476D01*
X155332142Y-82067857D01*
X155236904Y-82020238D01*
X155046428Y-81972619D01*
X154808333Y-81972619D01*
X154617857Y-82020238D01*
X154522619Y-82067857D01*
X154475000Y-82115476D01*
X154427380Y-82210714D01*
X142742380Y-55813095D02*
X143551904Y-55813095D01*
X143647142Y-55860714D01*
X143694761Y-55908333D01*
X143742380Y-56003571D01*
X143742380Y-56194047D01*
X143694761Y-56289285D01*
X143647142Y-56336904D01*
X143551904Y-56384523D01*
X142742380Y-56384523D01*
X142837619Y-56813095D02*
X142790000Y-56860714D01*
X142742380Y-56955952D01*
X142742380Y-57194047D01*
X142790000Y-57289285D01*
X142837619Y-57336904D01*
X142932857Y-57384523D01*
X143028095Y-57384523D01*
X143170952Y-57336904D01*
X143742380Y-56765476D01*
X143742380Y-57384523D01*
X153952380Y-47171428D02*
X152952380Y-47171428D01*
X153666666Y-47504761D01*
X152952380Y-47838095D01*
X153952380Y-47838095D01*
X153952380Y-48314285D02*
X152952380Y-48314285D01*
X152952380Y-48695238D01*
X153000000Y-48790476D01*
X153047619Y-48838095D01*
X153142857Y-48885714D01*
X153285714Y-48885714D01*
X153380952Y-48838095D01*
X153428571Y-48790476D01*
X153476190Y-48695238D01*
X153476190Y-48314285D01*
X152952380Y-49314285D02*
X153761904Y-49314285D01*
X153857142Y-49361904D01*
X153904761Y-49409523D01*
X153952380Y-49504761D01*
X153952380Y-49695238D01*
X153904761Y-49790476D01*
X153857142Y-49838095D01*
X153761904Y-49885714D01*
X152952380Y-49885714D01*
X153571428Y-50361904D02*
X153571428Y-51123809D01*
X153952380Y-51647619D02*
X153952380Y-51838095D01*
X153904761Y-51933333D01*
X153857142Y-51980952D01*
X153714285Y-52076190D01*
X153523809Y-52123809D01*
X153142857Y-52123809D01*
X153047619Y-52076190D01*
X153000000Y-52028571D01*
X152952380Y-51933333D01*
X152952380Y-51742857D01*
X153000000Y-51647619D01*
X153047619Y-51600000D01*
X153142857Y-51552380D01*
X153380952Y-51552380D01*
X153476190Y-51600000D01*
X153523809Y-51647619D01*
X153571428Y-51742857D01*
X153571428Y-51933333D01*
X153523809Y-52028571D01*
X153476190Y-52076190D01*
X153380952Y-52123809D01*
X153047619Y-52504761D02*
X153000000Y-52552380D01*
X152952380Y-52647619D01*
X152952380Y-52885714D01*
X153000000Y-52980952D01*
X153047619Y-53028571D01*
X153142857Y-53076190D01*
X153238095Y-53076190D01*
X153380952Y-53028571D01*
X153952380Y-52457142D01*
X153952380Y-53076190D01*
X152952380Y-53980952D02*
X152952380Y-53504761D01*
X153428571Y-53457142D01*
X153380952Y-53504761D01*
X153333333Y-53600000D01*
X153333333Y-53838095D01*
X153380952Y-53933333D01*
X153428571Y-53980952D01*
X153523809Y-54028571D01*
X153761904Y-54028571D01*
X153857142Y-53980952D01*
X153904761Y-53933333D01*
X153952380Y-53838095D01*
X153952380Y-53600000D01*
X153904761Y-53504761D01*
X153857142Y-53457142D01*
X152952380Y-54647619D02*
X152952380Y-54742857D01*
X153000000Y-54838095D01*
X153047619Y-54885714D01*
X153142857Y-54933333D01*
X153333333Y-54980952D01*
X153571428Y-54980952D01*
X153761904Y-54933333D01*
X153857142Y-54885714D01*
X153904761Y-54838095D01*
X153952380Y-54742857D01*
X153952380Y-54647619D01*
X153904761Y-54552380D01*
X153857142Y-54504761D01*
X153761904Y-54457142D01*
X153571428Y-54409523D01*
X153333333Y-54409523D01*
X153142857Y-54457142D01*
X153047619Y-54504761D01*
X153000000Y-54552380D01*
X152952380Y-54647619D01*
X153571428Y-55409523D02*
X153571428Y-56171428D01*
X153428571Y-56980952D02*
X153476190Y-57123809D01*
X153523809Y-57171428D01*
X153619047Y-57219047D01*
X153761904Y-57219047D01*
X153857142Y-57171428D01*
X153904761Y-57123809D01*
X153952380Y-57028571D01*
X153952380Y-56647619D01*
X152952380Y-56647619D01*
X152952380Y-56980952D01*
X153000000Y-57076190D01*
X153047619Y-57123809D01*
X153142857Y-57171428D01*
X153238095Y-57171428D01*
X153333333Y-57123809D01*
X153380952Y-57076190D01*
X153428571Y-56980952D01*
X153428571Y-56647619D01*
X153952380Y-58219047D02*
X153476190Y-57885714D01*
X153952380Y-57647619D02*
X152952380Y-57647619D01*
X152952380Y-58028571D01*
X153000000Y-58123809D01*
X153047619Y-58171428D01*
X153142857Y-58219047D01*
X153285714Y-58219047D01*
X153380952Y-58171428D01*
X153428571Y-58123809D01*
X153476190Y-58028571D01*
X153476190Y-57647619D01*
X153428571Y-58647619D02*
X153428571Y-58980952D01*
X153952380Y-59123809D02*
X153952380Y-58647619D01*
X152952380Y-58647619D01*
X152952380Y-59123809D01*
X153666666Y-59504761D02*
X153666666Y-59980952D01*
X153952380Y-59409523D02*
X152952380Y-59742857D01*
X153952380Y-60076190D01*
X153952380Y-60409523D02*
X152952380Y-60409523D01*
X153952380Y-60980952D02*
X153380952Y-60552380D01*
X152952380Y-60980952D02*
X153523809Y-60409523D01*
X152952380Y-61599999D02*
X152952380Y-61790476D01*
X153000000Y-61885714D01*
X153095238Y-61980952D01*
X153285714Y-62028571D01*
X153619047Y-62028571D01*
X153809523Y-61980952D01*
X153904761Y-61885714D01*
X153952380Y-61790476D01*
X153952380Y-61599999D01*
X153904761Y-61504761D01*
X153809523Y-61409523D01*
X153619047Y-61361904D01*
X153285714Y-61361904D01*
X153095238Y-61409523D01*
X153000000Y-61504761D01*
X152952380Y-61599999D01*
X152952380Y-62457142D02*
X153761904Y-62457142D01*
X153857142Y-62504761D01*
X153904761Y-62552380D01*
X153952380Y-62647619D01*
X153952380Y-62838095D01*
X153904761Y-62933333D01*
X153857142Y-62980952D01*
X153761904Y-63028571D01*
X152952380Y-63028571D01*
X152952380Y-63361904D02*
X152952380Y-63933333D01*
X153952380Y-63647619D02*
X152952380Y-63647619D01*
X153571428Y-64266666D02*
X153571428Y-65028571D01*
X153952380Y-66076190D02*
X153476190Y-65742857D01*
X153952380Y-65504761D02*
X152952380Y-65504761D01*
X152952380Y-65885714D01*
X153000000Y-65980952D01*
X153047619Y-66028571D01*
X153142857Y-66076190D01*
X153285714Y-66076190D01*
X153380952Y-66028571D01*
X153428571Y-65980952D01*
X153476190Y-65885714D01*
X153476190Y-65504761D01*
X130377380Y-53363095D02*
X131186904Y-53363095D01*
X131282142Y-53410714D01*
X131329761Y-53458333D01*
X131377380Y-53553571D01*
X131377380Y-53744047D01*
X131329761Y-53839285D01*
X131282142Y-53886904D01*
X131186904Y-53934523D01*
X130377380Y-53934523D01*
X131377380Y-54934523D02*
X131377380Y-54363095D01*
X131377380Y-54648809D02*
X130377380Y-54648809D01*
X130520238Y-54553571D01*
X130615476Y-54458333D01*
X130663095Y-54363095D01*
X137253571Y-50147619D02*
X137301190Y-50290476D01*
X137348809Y-50338095D01*
X137444047Y-50385714D01*
X137586904Y-50385714D01*
X137682142Y-50338095D01*
X137729761Y-50290476D01*
X137777380Y-50195238D01*
X137777380Y-49814285D01*
X136777380Y-49814285D01*
X136777380Y-50147619D01*
X136825000Y-50242857D01*
X136872619Y-50290476D01*
X136967857Y-50338095D01*
X137063095Y-50338095D01*
X137158333Y-50290476D01*
X137205952Y-50242857D01*
X137253571Y-50147619D01*
X137253571Y-49814285D01*
X137777380Y-50814285D02*
X136777380Y-50814285D01*
X137491666Y-51147619D01*
X136777380Y-51480952D01*
X137777380Y-51480952D01*
X137777380Y-51957142D02*
X136777380Y-51957142D01*
X136777380Y-52338095D01*
X136825000Y-52433333D01*
X136872619Y-52480952D01*
X136967857Y-52528571D01*
X137110714Y-52528571D01*
X137205952Y-52480952D01*
X137253571Y-52433333D01*
X137301190Y-52338095D01*
X137301190Y-51957142D01*
X137777380Y-53480952D02*
X137777380Y-52909523D01*
X137777380Y-53195238D02*
X136777380Y-53195238D01*
X136920238Y-53100000D01*
X137015476Y-53004761D01*
X137063095Y-52909523D01*
X137205952Y-54052380D02*
X137158333Y-53957142D01*
X137110714Y-53909523D01*
X137015476Y-53861904D01*
X136967857Y-53861904D01*
X136872619Y-53909523D01*
X136825000Y-53957142D01*
X136777380Y-54052380D01*
X136777380Y-54242857D01*
X136825000Y-54338095D01*
X136872619Y-54385714D01*
X136967857Y-54433333D01*
X137015476Y-54433333D01*
X137110714Y-54385714D01*
X137158333Y-54338095D01*
X137205952Y-54242857D01*
X137205952Y-54052380D01*
X137253571Y-53957142D01*
X137301190Y-53909523D01*
X137396428Y-53861904D01*
X137586904Y-53861904D01*
X137682142Y-53909523D01*
X137729761Y-53957142D01*
X137777380Y-54052380D01*
X137777380Y-54242857D01*
X137729761Y-54338095D01*
X137682142Y-54385714D01*
X137586904Y-54433333D01*
X137396428Y-54433333D01*
X137301190Y-54385714D01*
X137253571Y-54338095D01*
X137205952Y-54242857D01*
X136777380Y-55052380D02*
X136777380Y-55147619D01*
X136825000Y-55242857D01*
X136872619Y-55290476D01*
X136967857Y-55338095D01*
X137158333Y-55385714D01*
X137396428Y-55385714D01*
X137586904Y-55338095D01*
X137682142Y-55290476D01*
X137729761Y-55242857D01*
X137777380Y-55147619D01*
X137777380Y-55052380D01*
X137729761Y-54957142D01*
X137682142Y-54909523D01*
X137586904Y-54861904D01*
X137396428Y-54814285D01*
X137158333Y-54814285D01*
X136967857Y-54861904D01*
X136872619Y-54909523D01*
X136825000Y-54957142D01*
X136777380Y-55052380D01*
X137396428Y-55814285D02*
X137396428Y-56576190D01*
X136777380Y-56909523D02*
X137777380Y-57242857D01*
X136777380Y-57576190D01*
X136872619Y-57861904D02*
X136825000Y-57909523D01*
X136777380Y-58004761D01*
X136777380Y-58242857D01*
X136825000Y-58338095D01*
X136872619Y-58385714D01*
X136967857Y-58433333D01*
X137063095Y-58433333D01*
X137205952Y-58385714D01*
X137777380Y-57814285D01*
X137777380Y-58433333D01*
M02*
