G04 #@! TF.GenerationSoftware,KiCad,Pcbnew,6.0.0-unknown-920f128~86~ubuntu18.04.1*
G04 #@! TF.CreationDate,2019-07-19T16:23:03-04:00*
G04 #@! TF.ProjectId,OBC,4f42432e-6b69-4636-9164-5f7063625858,rev?*
G04 #@! TF.SameCoordinates,Original*
G04 #@! TF.FileFunction,Copper,L2,Bot*
G04 #@! TF.FilePolarity,Positive*
%FSLAX46Y46*%
G04 Gerber Fmt 4.6, Leading zero omitted, Abs format (unit mm)*
G04 Created by KiCad (PCBNEW 6.0.0-unknown-920f128~86~ubuntu18.04.1) date 2019-07-19 16:23:03*
%MOMM*%
%LPD*%
G04 APERTURE LIST*
%ADD10C,6.000000*%
%ADD11O,1.700000X1.700000*%
%ADD12R,1.700000X1.700000*%
%ADD13C,6.350000*%
%ADD14C,1.600000*%
%ADD15R,1.600000X1.600000*%
%ADD16O,1.300000X0.800000*%
%ADD17C,0.100000*%
%ADD18C,0.800000*%
%ADD19O,0.800000X1.300000*%
%ADD20C,1.524000*%
%ADD21R,1.524000X1.524000*%
%ADD22O,1.980000X3.960000*%
%ADD23R,1.980000X3.960000*%
%ADD24C,1.000000*%
%ADD25C,1.500000*%
%ADD26C,0.400000*%
%ADD27C,0.500000*%
%ADD28C,0.800000*%
%ADD29C,1.000000*%
%ADD30C,0.254000*%
G04 APERTURE END LIST*
D10*
X120180000Y-118570000D03*
X143180000Y-60570000D03*
X143180000Y-118570000D03*
X120180000Y-60570000D03*
D11*
X118910000Y-113700000D03*
X121450000Y-113700000D03*
X118910000Y-95920000D03*
X121450000Y-95920000D03*
X118910000Y-90840000D03*
X121450000Y-90840000D03*
X118910000Y-101000000D03*
X121450000Y-101000000D03*
X118910000Y-73060000D03*
X121450000Y-73060000D03*
X118910000Y-103540000D03*
X121450000Y-103540000D03*
X118910000Y-85760000D03*
X121450000Y-85760000D03*
X118910000Y-108620000D03*
X121450000Y-108620000D03*
X118910000Y-106080000D03*
X121450000Y-106080000D03*
X118910000Y-111160000D03*
X121450000Y-111160000D03*
X118910000Y-88300000D03*
X121450000Y-88300000D03*
X118910000Y-75600000D03*
X121450000Y-75600000D03*
X118910000Y-80680000D03*
X121450000Y-80680000D03*
X118910000Y-98460000D03*
X121450000Y-98460000D03*
X118910000Y-78140000D03*
X121450000Y-78140000D03*
X118910000Y-93380000D03*
X121450000Y-93380000D03*
D12*
X121450000Y-65440000D03*
D11*
X118910000Y-65440000D03*
X121450000Y-70520000D03*
X118910000Y-67980000D03*
X118910000Y-83220000D03*
X121450000Y-83220000D03*
X121450000Y-67980000D03*
X118910000Y-70520000D03*
X110840000Y-61500000D03*
D12*
X108300000Y-61500000D03*
D13*
X178955000Y-51405000D03*
X178955000Y-131415000D03*
D14*
X95745000Y-122525000D03*
X93205000Y-122525000D03*
X95745000Y-119985000D03*
X93205000Y-119985000D03*
X95745000Y-117445000D03*
X93205000Y-117445000D03*
X95745000Y-114905000D03*
X93205000Y-114905000D03*
X95745000Y-112365000D03*
X93205000Y-112365000D03*
X95745000Y-109825000D03*
X93205000Y-109825000D03*
X95745000Y-107285000D03*
X93205000Y-107285000D03*
X95745000Y-104745000D03*
X93205000Y-104745000D03*
X95745000Y-102205000D03*
X93205000Y-102205000D03*
X95745000Y-99665000D03*
X93205000Y-99665000D03*
X95745000Y-97125000D03*
X93205000Y-97125000D03*
X95745000Y-94585000D03*
X93205000Y-94585000D03*
X95745000Y-92045000D03*
X93205000Y-92045000D03*
X95745000Y-89505000D03*
X93205000Y-89505000D03*
X95745000Y-86965000D03*
X93205000Y-86965000D03*
X95745000Y-84425000D03*
X93205000Y-84425000D03*
X95745000Y-81885000D03*
X93205000Y-81885000D03*
X95745000Y-79345000D03*
X93205000Y-79345000D03*
X95745000Y-76805000D03*
X93205000Y-76805000D03*
X95745000Y-74265000D03*
X93205000Y-74265000D03*
X95745000Y-71725000D03*
X93205000Y-71725000D03*
X95745000Y-69185000D03*
X93205000Y-69185000D03*
X95745000Y-66645000D03*
X93205000Y-66645000D03*
X95745000Y-64105000D03*
X93205000Y-64105000D03*
X95745000Y-61565000D03*
X93205000Y-61565000D03*
X95745000Y-59025000D03*
X93205000Y-59025000D03*
D15*
X100825000Y-122525000D03*
D14*
X98285000Y-122525000D03*
X100825000Y-119985000D03*
X98285000Y-119985000D03*
X100825000Y-117445000D03*
X98285000Y-117445000D03*
X100825000Y-114905000D03*
X98285000Y-114905000D03*
X100825000Y-112365000D03*
X98285000Y-112365000D03*
X100825000Y-109825000D03*
X98285000Y-109825000D03*
X100825000Y-107285000D03*
X98285000Y-107285000D03*
X100825000Y-104745000D03*
X98285000Y-104745000D03*
X100825000Y-102205000D03*
X98285000Y-102205000D03*
X100825000Y-99665000D03*
X98285000Y-99665000D03*
X100825000Y-97125000D03*
X98285000Y-97125000D03*
X100825000Y-94585000D03*
X98285000Y-94585000D03*
X100825000Y-92045000D03*
X98285000Y-92045000D03*
X100825000Y-89505000D03*
X98285000Y-89505000D03*
X100825000Y-86965000D03*
X98285000Y-86965000D03*
X100825000Y-84425000D03*
X98285000Y-84425000D03*
X100825000Y-81885000D03*
X98285000Y-81885000D03*
X100825000Y-79345000D03*
X98285000Y-79345000D03*
X100825000Y-76805000D03*
X98285000Y-76805000D03*
X100825000Y-74265000D03*
X98285000Y-74265000D03*
X100825000Y-71725000D03*
X98285000Y-71725000D03*
X100825000Y-69185000D03*
X98285000Y-69185000D03*
X100825000Y-66645000D03*
X98285000Y-66645000D03*
X100825000Y-64105000D03*
X98285000Y-64105000D03*
X100825000Y-61565000D03*
X98285000Y-61565000D03*
X100825000Y-59025000D03*
X98285000Y-59025000D03*
D13*
X93225000Y-53945000D03*
X93225000Y-127605000D03*
D10*
X169180000Y-60570000D03*
X169180000Y-118570000D03*
D11*
X130475000Y-67980000D03*
X130475000Y-70520000D03*
X130475000Y-73060000D03*
D12*
X130475000Y-75600000D03*
D16*
X172600000Y-66200000D03*
X172600000Y-67450000D03*
X172600000Y-68700000D03*
X172600000Y-69950000D03*
X172600000Y-71200000D03*
D17*
G36*
X173126537Y-72065224D02*
G01*
X173191421Y-72108579D01*
X173234776Y-72173463D01*
X173250000Y-72250000D01*
X173250000Y-72650000D01*
X173234776Y-72726537D01*
X173191421Y-72791421D01*
X173126537Y-72834776D01*
X173050000Y-72850000D01*
X172150000Y-72850000D01*
X172073463Y-72834776D01*
X172008579Y-72791421D01*
X171965224Y-72726537D01*
X171950000Y-72650000D01*
X171950000Y-72250000D01*
X171965224Y-72173463D01*
X172008579Y-72108579D01*
X172073463Y-72065224D01*
X172150000Y-72050000D01*
X173050000Y-72050000D01*
X173126537Y-72065224D01*
X173126537Y-72065224D01*
G37*
D18*
X172600000Y-72450000D03*
D19*
X120200000Y-51975000D03*
X121450000Y-51975000D03*
X122700000Y-51975000D03*
X123950000Y-51975000D03*
X125200000Y-51975000D03*
D17*
G36*
X126726537Y-51340224D02*
G01*
X126791421Y-51383579D01*
X126834776Y-51448463D01*
X126850000Y-51525000D01*
X126850000Y-52425000D01*
X126834776Y-52501537D01*
X126791421Y-52566421D01*
X126726537Y-52609776D01*
X126650000Y-52625000D01*
X126250000Y-52625000D01*
X126173463Y-52609776D01*
X126108579Y-52566421D01*
X126065224Y-52501537D01*
X126050000Y-52425000D01*
X126050000Y-51525000D01*
X126065224Y-51448463D01*
X126108579Y-51383579D01*
X126173463Y-51340224D01*
X126250000Y-51325000D01*
X126650000Y-51325000D01*
X126726537Y-51340224D01*
X126726537Y-51340224D01*
G37*
D18*
X126450000Y-51975000D03*
D20*
X160055000Y-68495000D03*
X157515000Y-68495000D03*
X154975000Y-68495000D03*
X152435000Y-68495000D03*
X149895000Y-68495000D03*
X149895000Y-91355000D03*
X152435000Y-91355000D03*
X154975000Y-91355000D03*
X157515000Y-91355000D03*
X160055000Y-91355000D03*
X152280000Y-48955000D03*
X154840000Y-48955000D03*
X157400000Y-48955000D03*
D21*
X159960000Y-48955000D03*
D20*
X141085000Y-49045000D03*
X138545000Y-49045000D03*
X136005000Y-49045000D03*
X133465000Y-49045000D03*
D11*
X104830000Y-132800000D03*
X107370000Y-132800000D03*
X109910000Y-132800000D03*
D12*
X112450000Y-132800000D03*
D11*
X104830000Y-126800000D03*
X107370000Y-126800000D03*
X109910000Y-126800000D03*
D12*
X112450000Y-126800000D03*
D22*
X106500000Y-52350000D03*
D23*
X111500000Y-52350000D03*
D11*
X110840000Y-65250000D03*
D12*
X108300000Y-65250000D03*
D24*
X109850000Y-106075000D03*
X124075000Y-99725000D03*
X127450000Y-97125000D03*
X124100000Y-97125000D03*
X123000000Y-75600000D03*
X124450000Y-113700000D03*
X127850000Y-113700000D03*
X112450000Y-128250000D03*
X112450000Y-131550000D03*
X154800000Y-72450000D03*
X113575001Y-86660000D03*
X124475000Y-73075000D03*
X112525000Y-125275000D03*
D14*
X123775000Y-66525000D03*
D24*
X124475000Y-84050000D03*
D14*
X132775000Y-52025000D03*
D24*
X114950000Y-63800000D03*
X110825000Y-88125000D03*
X109850000Y-119950000D03*
X104350000Y-125350000D03*
X106625000Y-124275000D03*
X113500000Y-124375000D03*
X103050000Y-124450000D03*
X126975000Y-75600000D03*
X143900000Y-76825000D03*
X149825000Y-73950000D03*
X123200000Y-71850000D03*
X155700000Y-53250000D03*
X141085000Y-53285000D03*
X156775000Y-58050000D03*
X138500000Y-62400000D03*
X138525000Y-58050000D03*
D14*
X153550000Y-47275000D03*
X128900000Y-58225000D03*
X116979999Y-55445001D03*
D24*
X128525000Y-70525000D03*
X128425000Y-67975000D03*
X103850000Y-86350000D03*
X116450000Y-70500000D03*
X114250000Y-74250000D03*
X114200000Y-67650000D03*
X112500000Y-70500000D03*
X116400000Y-80700000D03*
X111250000Y-84150000D03*
X109150000Y-82000000D03*
X116250000Y-87350000D03*
X106850000Y-90850000D03*
X104650000Y-88650000D03*
X105500000Y-92150000D03*
X105500000Y-98450000D03*
X116400000Y-101000000D03*
X116250000Y-106100000D03*
X103050000Y-109800000D03*
X103850000Y-100750000D03*
X113500000Y-99300000D03*
X113500000Y-108350000D03*
X106050000Y-103600000D03*
X106050000Y-113700000D03*
X110950000Y-121050000D03*
X111450000Y-117150000D03*
D25*
X102600000Y-90950000D03*
D24*
X106350000Y-70975000D03*
X104525000Y-69150000D03*
X160900000Y-60600000D03*
X164280000Y-60570000D03*
X130500000Y-79425000D03*
X168600000Y-69950000D03*
X168625000Y-74350000D03*
D25*
X104425000Y-65250000D03*
D24*
X123925000Y-57825000D03*
X125750000Y-63575000D03*
X102850000Y-62200000D03*
X123300000Y-115150000D03*
X123300000Y-109950000D03*
X117250000Y-129250000D03*
X123900000Y-121700000D03*
X127350000Y-118550000D03*
D26*
X109875000Y-106100000D02*
X109850000Y-106075000D01*
X116250000Y-106100000D02*
X109875000Y-106100000D01*
X120185000Y-99725000D02*
X120874998Y-99725000D01*
X118910000Y-101000000D02*
X120185000Y-99725000D01*
X120874998Y-99725000D02*
X124075000Y-99725000D01*
X124100000Y-97125000D02*
X127450000Y-97125000D01*
X122895000Y-95920000D02*
X124100000Y-97125000D01*
X121450000Y-95920000D02*
X122895000Y-95920000D01*
X121450000Y-75600000D02*
X123000000Y-75600000D01*
X123000000Y-75600000D02*
X126975000Y-75600000D01*
X121450000Y-113700000D02*
X124450000Y-113700000D01*
X124450000Y-113700000D02*
X127850000Y-113700000D01*
X112450000Y-128250000D02*
X112450000Y-126800000D01*
X112450000Y-132800000D02*
X112450000Y-131550000D01*
X96508998Y-89505000D02*
X97763998Y-88250000D01*
X95745000Y-89505000D02*
X96508998Y-89505000D01*
D27*
X93205000Y-89505000D02*
X95745000Y-89505000D01*
D26*
X120600001Y-86609999D02*
X121450000Y-85760000D01*
X120199999Y-87010001D02*
X120600001Y-86609999D01*
X118309999Y-87010001D02*
X120199999Y-87010001D01*
X117749997Y-86449999D02*
X118309999Y-87010001D01*
X103494352Y-88250000D02*
X105294353Y-86449999D01*
X97763998Y-88250000D02*
X103494352Y-88250000D01*
X112525000Y-126725000D02*
X112450000Y-126800000D01*
D28*
X121450000Y-65440000D02*
X122690000Y-65440000D01*
D26*
X132725000Y-51975000D02*
X132775000Y-52025000D01*
D28*
X172600000Y-71200000D02*
X172600000Y-72450000D01*
X126450000Y-51975000D02*
X132725000Y-51975000D01*
D26*
X124490000Y-73060000D02*
X124475000Y-73075000D01*
D28*
X154800000Y-72450000D02*
X139710000Y-72450000D01*
X126450000Y-59190000D02*
X126450000Y-52725000D01*
D26*
X126450000Y-52725000D02*
X126450000Y-51975000D01*
D28*
X130475000Y-73060000D02*
X124490000Y-73060000D01*
X121450000Y-85760000D02*
X122765000Y-85760000D01*
X172600000Y-72450000D02*
X154800000Y-72450000D01*
X139710000Y-72450000D02*
X138460000Y-71200000D01*
D26*
X112525000Y-125275000D02*
X112525000Y-126725000D01*
D28*
X122765000Y-85760000D02*
X124475000Y-84050000D01*
D26*
X113575001Y-86449999D02*
X113575001Y-86660000D01*
D28*
X122690000Y-65440000D02*
X123775000Y-66525000D01*
X125200000Y-51975000D02*
X126450000Y-51975000D01*
D26*
X113575001Y-86449999D02*
X117749997Y-86449999D01*
X105294353Y-86449999D02*
X113575001Y-86449999D01*
X115475000Y-88125000D02*
X113442003Y-88125000D01*
X116250000Y-87350000D02*
X115475000Y-88125000D01*
X113442003Y-88125000D02*
X110825000Y-88125000D01*
X104350000Y-125350000D02*
X104350000Y-126320000D01*
X104350000Y-126320000D02*
X104830000Y-126800000D01*
X106725000Y-124375000D02*
X106625000Y-124275000D01*
X113500000Y-124375000D02*
X106725000Y-124375000D01*
X103050000Y-124450000D02*
X105020000Y-124450000D01*
X105020000Y-124450000D02*
X107370000Y-126800000D01*
D28*
X172600000Y-67450000D02*
X172600000Y-66200000D01*
D26*
X120160001Y-76850001D02*
X143874999Y-76850001D01*
X118910000Y-75600000D02*
X120160001Y-76850001D01*
X143874999Y-76850001D02*
X143900000Y-76825000D01*
X138650000Y-73950000D02*
X149825000Y-73950000D01*
X136470001Y-71770001D02*
X138650000Y-73950000D01*
X123907106Y-71850000D02*
X123987105Y-71770001D01*
X123200000Y-71850000D02*
X123907106Y-71850000D01*
X123987105Y-71770001D02*
X136470001Y-71770001D01*
X155665000Y-53285000D02*
X155700000Y-53250000D01*
X141085000Y-53285000D02*
X155665000Y-53285000D01*
X138525000Y-62375000D02*
X138500000Y-62400000D01*
X138525000Y-58050000D02*
X138525000Y-62375000D01*
D28*
X135235000Y-47275000D02*
X153550000Y-47275000D01*
X133465000Y-49045000D02*
X135235000Y-47275000D01*
D29*
X128900000Y-58225000D02*
X136875000Y-66200000D01*
X136875000Y-66200000D02*
X172600000Y-66200000D01*
D26*
X128520000Y-70520000D02*
X128525000Y-70525000D01*
X121450000Y-70520000D02*
X128520000Y-70520000D01*
X128420000Y-67980000D02*
X128425000Y-67975000D01*
X121450000Y-67980000D02*
X128420000Y-67980000D01*
D28*
X121450000Y-51975000D02*
X120200000Y-51975000D01*
X120200000Y-51975000D02*
X120200000Y-52225000D01*
D29*
X120200000Y-52225000D02*
X116979999Y-55445001D01*
X118910000Y-65440000D02*
X118910000Y-67980000D01*
X110840000Y-65250000D02*
X118720000Y-65250000D01*
X118720000Y-65250000D02*
X118910000Y-65440000D01*
D26*
X108575000Y-84425000D02*
X109910000Y-85760000D01*
X109910000Y-85760000D02*
X118910000Y-85760000D01*
X100825000Y-84425000D02*
X108575000Y-84425000D01*
X96945001Y-85764999D02*
X103264999Y-85764999D01*
X95745000Y-86965000D02*
X96945001Y-85764999D01*
X103264999Y-85764999D02*
X103850000Y-86350000D01*
X102030000Y-73060000D02*
X100825000Y-74265000D01*
X118910000Y-73060000D02*
X102030000Y-73060000D01*
X99620000Y-75600000D02*
X98285000Y-74265000D01*
X118910000Y-75600000D02*
X99620000Y-75600000D01*
X117575000Y-76805000D02*
X118910000Y-78140000D01*
X100825000Y-76805000D02*
X117575000Y-76805000D01*
X118910000Y-70520000D02*
X116470000Y-70520000D01*
X116470000Y-70520000D02*
X116450000Y-70500000D01*
X114310001Y-74310001D02*
X114250000Y-74250000D01*
X121450000Y-73060000D02*
X120199999Y-74310001D01*
X120199999Y-74310001D02*
X114310001Y-74310001D01*
X113195000Y-66645000D02*
X100825000Y-66645000D01*
X114200000Y-67650000D02*
X113195000Y-66645000D01*
X116450000Y-70500000D02*
X112500000Y-70500000D01*
X118910000Y-80680000D02*
X116420000Y-80680000D01*
X116420000Y-80680000D02*
X116400000Y-80700000D01*
X102160000Y-83220000D02*
X100825000Y-81885000D01*
X118910000Y-83220000D02*
X102160000Y-83220000D01*
X111570001Y-84470001D02*
X111250000Y-84150000D01*
X121450000Y-83220000D02*
X120199999Y-84470001D01*
X120199999Y-84470001D02*
X111570001Y-84470001D01*
X108650001Y-81500001D02*
X109150000Y-82000000D01*
X107695001Y-80545001D02*
X108650001Y-81500001D01*
X99485001Y-80545001D02*
X107695001Y-80545001D01*
X98285000Y-79345000D02*
X99485001Y-80545001D01*
X120199999Y-81930001D02*
X121450000Y-80680000D01*
X112880001Y-81930001D02*
X120199999Y-81930001D01*
X100825000Y-79345000D02*
X110295000Y-79345000D01*
X110295000Y-79345000D02*
X112880001Y-81930001D01*
X116924999Y-78005001D02*
X118309999Y-79390001D01*
X120199999Y-79390001D02*
X120600001Y-78989999D01*
X99485001Y-78005001D02*
X116924999Y-78005001D01*
X120600001Y-78989999D02*
X121450000Y-78140000D01*
X118309999Y-79390001D02*
X120199999Y-79390001D01*
X98285000Y-76805000D02*
X99485001Y-78005001D01*
X118910000Y-88300000D02*
X117200000Y-88300000D01*
X117200000Y-88300000D02*
X116250000Y-87350000D01*
X120600001Y-89149999D02*
X121450000Y-88300000D01*
X120160001Y-89589999D02*
X120600001Y-89149999D01*
X105820001Y-89589999D02*
X120160001Y-89589999D01*
X100825000Y-94585000D02*
X105820001Y-89589999D01*
X118910000Y-90840000D02*
X106860000Y-90840000D01*
X106860000Y-90840000D02*
X106850000Y-90850000D01*
X101956370Y-89505000D02*
X100825000Y-89505000D01*
X103087894Y-89505000D02*
X101956370Y-89505000D01*
X103942894Y-88650000D02*
X103087894Y-89505000D01*
X104650000Y-88650000D02*
X103942894Y-88650000D01*
X102514999Y-95785001D02*
X104920000Y-93380000D01*
X98285000Y-94585000D02*
X99485001Y-95785001D01*
X104920000Y-93380000D02*
X118910000Y-93380000D01*
X99485001Y-95785001D02*
X102514999Y-95785001D01*
X100825000Y-97125000D02*
X105575000Y-97125000D01*
X120600001Y-94229999D02*
X121450000Y-93380000D01*
X120160001Y-94669999D02*
X120600001Y-94229999D01*
X108030001Y-94669999D02*
X120160001Y-94669999D01*
X105575000Y-97125000D02*
X108030001Y-94669999D01*
X105559999Y-92090001D02*
X105500000Y-92150000D01*
X121450000Y-90840000D02*
X120199999Y-92090001D01*
X120199999Y-92090001D02*
X105559999Y-92090001D01*
X99610000Y-98450000D02*
X98285000Y-97125000D01*
X105500000Y-98450000D02*
X99610000Y-98450000D01*
X118910000Y-101000000D02*
X116400000Y-101000000D01*
X118910000Y-106080000D02*
X116270000Y-106080000D01*
X116270000Y-106080000D02*
X116250000Y-106100000D01*
X120600001Y-101849999D02*
X121450000Y-101000000D01*
X120199999Y-102250001D02*
X120600001Y-101849999D01*
X118309999Y-102250001D02*
X120199999Y-102250001D01*
X118264998Y-102205000D02*
X118309999Y-102250001D01*
X100825000Y-102205000D02*
X118264998Y-102205000D01*
X120199999Y-104790001D02*
X120600001Y-104389999D01*
X102001371Y-104790001D02*
X120199999Y-104790001D01*
X101956370Y-104745000D02*
X102001371Y-104790001D01*
X120600001Y-104389999D02*
X121450000Y-103540000D01*
X100825000Y-104745000D02*
X101956370Y-104745000D01*
X120600001Y-106929999D02*
X121450000Y-106080000D01*
X120199999Y-107330001D02*
X120600001Y-106929999D01*
X118309999Y-107330001D02*
X120199999Y-107330001D01*
X118264998Y-107285000D02*
X118309999Y-107330001D01*
X100825000Y-107285000D02*
X118264998Y-107285000D01*
X100825000Y-109825000D02*
X103025000Y-109825000D01*
X103025000Y-109825000D02*
X103050000Y-109800000D01*
X103850000Y-100750000D02*
X114050000Y-100750000D01*
X116340000Y-98460000D02*
X118910000Y-98460000D01*
X114050000Y-100750000D02*
X116340000Y-98460000D01*
X115590001Y-97209999D02*
X113500000Y-99300000D01*
X121450000Y-98460000D02*
X120199999Y-97209999D01*
X120199999Y-97209999D02*
X115590001Y-97209999D01*
X109485000Y-112365000D02*
X113500000Y-108350000D01*
X100825000Y-112365000D02*
X109485000Y-112365000D01*
X92405001Y-119185001D02*
X93205000Y-119985000D01*
X92004999Y-118784999D02*
X92405001Y-119185001D01*
X92004999Y-101628999D02*
X92004999Y-118784999D01*
X92628999Y-101004999D02*
X92004999Y-101628999D01*
X101261003Y-101004999D02*
X92628999Y-101004999D01*
X102416003Y-99849999D02*
X101261003Y-101004999D01*
X105432003Y-99849999D02*
X102416003Y-99849999D01*
X109362002Y-95920000D02*
X105432003Y-99849999D01*
X118910000Y-95920000D02*
X109362002Y-95920000D01*
X118910000Y-103540000D02*
X106110000Y-103540000D01*
X106110000Y-103540000D02*
X106050000Y-103600000D01*
X102030000Y-113700000D02*
X100825000Y-114905000D01*
X106050000Y-113700000D02*
X102030000Y-113700000D01*
X99485001Y-116105001D02*
X107444999Y-116105001D01*
X98285000Y-114905000D02*
X99485001Y-116105001D01*
X114930000Y-108620000D02*
X118910000Y-108620000D01*
X107444999Y-116105001D02*
X114930000Y-108620000D01*
X118060001Y-114549999D02*
X118910000Y-113700000D01*
X113964999Y-118645001D02*
X118060001Y-114549999D01*
X97084999Y-118645001D02*
X113964999Y-118645001D01*
X95745000Y-119985000D02*
X97084999Y-118645001D01*
X110675001Y-121324999D02*
X110950000Y-121050000D01*
X93205000Y-122525000D02*
X94405001Y-121324999D01*
X94405001Y-121324999D02*
X110675001Y-121324999D01*
X112920000Y-117150000D02*
X118910000Y-111160000D01*
X111450000Y-117150000D02*
X112920000Y-117150000D01*
X106953542Y-117445000D02*
X101956370Y-117445000D01*
X101956370Y-117445000D02*
X100825000Y-117445000D01*
X120199999Y-109909999D02*
X114488543Y-109909999D01*
X114488543Y-109909999D02*
X106953542Y-117445000D01*
X121450000Y-111160000D02*
X120199999Y-109909999D01*
D29*
X93205000Y-92045000D02*
X95745000Y-92045000D01*
D27*
X102444999Y-90794999D02*
X102600000Y-90950000D01*
X95745000Y-92045000D02*
X96995001Y-90794999D01*
X96995001Y-90794999D02*
X102444999Y-90794999D01*
D26*
X107184999Y-71809999D02*
X120160001Y-71809999D01*
X106350000Y-70975000D02*
X107184999Y-71809999D01*
X120600001Y-71369999D02*
X121450000Y-70520000D01*
X120160001Y-71809999D02*
X120600001Y-71369999D01*
X100825000Y-69185000D02*
X104490000Y-69185000D01*
X104490000Y-69185000D02*
X104525000Y-69150000D01*
X104025000Y-71725000D02*
X100825000Y-71725000D01*
X120160001Y-69269999D02*
X106480001Y-69269999D01*
X106480001Y-69269999D02*
X104025000Y-71725000D01*
X121450000Y-67980000D02*
X120160001Y-69269999D01*
X169180000Y-60570000D02*
X164280000Y-60570000D01*
X160930000Y-60570000D02*
X160900000Y-60600000D01*
X164280000Y-60570000D02*
X160930000Y-60570000D01*
D28*
X133785000Y-66525000D02*
X138460000Y-71200000D01*
X123775000Y-66525000D02*
X133785000Y-66525000D01*
D26*
X172600000Y-69950000D02*
X168600000Y-69950000D01*
D29*
X104425000Y-65250000D02*
X108300000Y-65250000D01*
D26*
X123950000Y-51975000D02*
X123950000Y-57800000D01*
X123950000Y-57800000D02*
X123925000Y-57825000D01*
D29*
X116180000Y-56245000D02*
X116979999Y-55445001D01*
X116180000Y-62710000D02*
X116180000Y-56245000D01*
X118910000Y-65440000D02*
X116180000Y-62710000D01*
D28*
X122690000Y-64227998D02*
X126450000Y-60467998D01*
X126450000Y-60467998D02*
X126450000Y-59190000D01*
X121477998Y-65440000D02*
X122690000Y-64227998D01*
D26*
X121450000Y-65440000D02*
X121477998Y-65440000D01*
X107050000Y-61500000D02*
X108300000Y-61500000D01*
X105914999Y-60364999D02*
X107050000Y-61500000D01*
X99485001Y-60364999D02*
X105914999Y-60364999D01*
X98285000Y-61565000D02*
X99485001Y-60364999D01*
X103550000Y-61500000D02*
X108300000Y-61500000D01*
X102850000Y-62200000D02*
X103550000Y-61500000D01*
D29*
X110840000Y-60297919D02*
X110840000Y-61500000D01*
X106500000Y-55330000D02*
X110840000Y-59670000D01*
X110840000Y-59670000D02*
X110840000Y-60297919D01*
X106500000Y-52350000D02*
X106500000Y-55330000D01*
X110840000Y-61500000D02*
X110840000Y-65250000D01*
D26*
X96945001Y-123725001D02*
X101945001Y-123725001D01*
X95745000Y-122525000D02*
X96945001Y-123725001D01*
X101945001Y-123725001D02*
X103145002Y-122525000D01*
X103145002Y-122525000D02*
X111192998Y-122525000D01*
X111192998Y-122525000D02*
X118567998Y-115150000D01*
X118567998Y-115150000D02*
X123300000Y-115150000D01*
X122780000Y-109950000D02*
X121450000Y-108620000D01*
X123300000Y-109950000D02*
X122780000Y-109950000D01*
X104830000Y-132800000D02*
X108380000Y-129250000D01*
X108380000Y-129250000D02*
X117250000Y-129250000D01*
X123495010Y-122104990D02*
X123900000Y-121700000D01*
X110019999Y-130150001D02*
X117682001Y-130150001D01*
X107370000Y-132800000D02*
X110019999Y-130150001D01*
X117682001Y-130150001D02*
X118724990Y-129107012D01*
X118724990Y-129107012D02*
X118724990Y-122397890D01*
X118724990Y-122397890D02*
X119017890Y-122104990D01*
X119017890Y-122104990D02*
X123495010Y-122104990D01*
X120180000Y-118570000D02*
X127330000Y-118570000D01*
X127330000Y-118570000D02*
X127350000Y-118550000D01*
X156275001Y-57550001D02*
X156775000Y-58050000D01*
X155894999Y-57169999D02*
X156275001Y-57550001D01*
X139405001Y-57169999D02*
X155894999Y-57169999D01*
X138525000Y-58050000D02*
X139405001Y-57169999D01*
D30*
G36*
X111975236Y-120563310D02*
G01*
X111891417Y-120402981D01*
X111709907Y-120197098D01*
X111484526Y-120040455D01*
X111228286Y-119942094D01*
X110955981Y-119907694D01*
X110683330Y-119939241D01*
X110426075Y-120034912D01*
X110199065Y-120189187D01*
X110015409Y-120393159D01*
X109962948Y-120490999D01*
X102166862Y-120490999D01*
X102215429Y-120357564D01*
X102259000Y-120110459D01*
X102259000Y-119859541D01*
X102215429Y-119612436D01*
X102166862Y-119479001D01*
X113059544Y-119479001D01*
X111975236Y-120563310D01*
X111975236Y-120563310D01*
G37*
X111975236Y-120563310D02*
X111891417Y-120402981D01*
X111709907Y-120197098D01*
X111484526Y-120040455D01*
X111228286Y-119942094D01*
X110955981Y-119907694D01*
X110683330Y-119939241D01*
X110426075Y-120034912D01*
X110199065Y-120189187D01*
X110015409Y-120393159D01*
X109962948Y-120490999D01*
X102166862Y-120490999D01*
X102215429Y-120357564D01*
X102259000Y-120110459D01*
X102259000Y-119859541D01*
X102215429Y-119612436D01*
X102166862Y-119479001D01*
X113059544Y-119479001D01*
X111975236Y-120563310D01*
G36*
X102058678Y-105630615D02*
G01*
X102089662Y-105624001D01*
X117497667Y-105624001D01*
X117455382Y-105760181D01*
X117429957Y-105952000D01*
X119038000Y-105952000D01*
X119038000Y-106208000D01*
X117420513Y-106208000D01*
X117471500Y-106451000D01*
X101997144Y-106451000D01*
X101842864Y-106267136D01*
X101650651Y-106105850D01*
X101493294Y-106015000D01*
X101650651Y-105924150D01*
X101842864Y-105762864D01*
X101959384Y-105624001D01*
X101969688Y-105624001D01*
X102058678Y-105630615D01*
X102058678Y-105630615D01*
G37*
X102058678Y-105630615D02*
X102089662Y-105624001D01*
X117497667Y-105624001D01*
X117455382Y-105760181D01*
X117429957Y-105952000D01*
X119038000Y-105952000D01*
X119038000Y-106208000D01*
X117420513Y-106208000D01*
X117471500Y-106451000D01*
X101997144Y-106451000D01*
X101842864Y-106267136D01*
X101650651Y-106105850D01*
X101493294Y-106015000D01*
X101650651Y-105924150D01*
X101842864Y-105762864D01*
X101959384Y-105624001D01*
X101969688Y-105624001D01*
X102058678Y-105630615D01*
G36*
X117706610Y-99337526D02*
G01*
X117871669Y-99527739D01*
X118066416Y-99687422D01*
X118140061Y-99729343D01*
X117976760Y-99839284D01*
X117794534Y-100013119D01*
X117644203Y-100215172D01*
X117530064Y-100439666D01*
X117455382Y-100680181D01*
X117429957Y-100872000D01*
X119038000Y-100872000D01*
X119038000Y-101128000D01*
X117420513Y-101128000D01*
X117471500Y-101371000D01*
X114608454Y-101371000D01*
X114617307Y-101362146D01*
X114684926Y-101303882D01*
X114702162Y-101277291D01*
X116685453Y-99294000D01*
X117680198Y-99294000D01*
X117706610Y-99337526D01*
X117706610Y-99337526D01*
G37*
X117706610Y-99337526D02*
X117871669Y-99527739D01*
X118066416Y-99687422D01*
X118140061Y-99729343D01*
X117976760Y-99839284D01*
X117794534Y-100013119D01*
X117644203Y-100215172D01*
X117530064Y-100439666D01*
X117455382Y-100680181D01*
X117429957Y-100872000D01*
X119038000Y-100872000D01*
X119038000Y-101128000D01*
X117420513Y-101128000D01*
X117471500Y-101371000D01*
X114608454Y-101371000D01*
X114617307Y-101362146D01*
X114684926Y-101303882D01*
X114702162Y-101277291D01*
X116685453Y-99294000D01*
X117680198Y-99294000D01*
X117706610Y-99337526D01*
G36*
X120246610Y-99337526D02*
G01*
X120411669Y-99527739D01*
X120606416Y-99687422D01*
X120680061Y-99729343D01*
X120516760Y-99839284D01*
X120334534Y-100013119D01*
X120184203Y-100215172D01*
X120177564Y-100228230D01*
X120113390Y-100122474D01*
X119948331Y-99932261D01*
X119753584Y-99772578D01*
X119679939Y-99730657D01*
X119843240Y-99620716D01*
X120025466Y-99446881D01*
X120175797Y-99244828D01*
X120182436Y-99231770D01*
X120246610Y-99337526D01*
X120246610Y-99337526D01*
G37*
X120246610Y-99337526D02*
X120411669Y-99527739D01*
X120606416Y-99687422D01*
X120680061Y-99729343D01*
X120516760Y-99839284D01*
X120334534Y-100013119D01*
X120184203Y-100215172D01*
X120177564Y-100228230D01*
X120113390Y-100122474D01*
X119948331Y-99932261D01*
X119753584Y-99772578D01*
X119679939Y-99730657D01*
X119843240Y-99620716D01*
X120025466Y-99446881D01*
X120175797Y-99244828D01*
X120182436Y-99231770D01*
X120246610Y-99337526D01*
G36*
X112626859Y-87297124D02*
G01*
X112806204Y-87504897D01*
X113029932Y-87663893D01*
X113285127Y-87764932D01*
X113557059Y-87802182D01*
X113830025Y-87773491D01*
X114088268Y-87680518D01*
X114316880Y-87528628D01*
X114502662Y-87326592D01*
X114526078Y-87283999D01*
X117404543Y-87283999D01*
X117641342Y-87520799D01*
X117530064Y-87739666D01*
X117455382Y-87980181D01*
X117429957Y-88172000D01*
X119038000Y-88172000D01*
X119038000Y-88428000D01*
X117420513Y-88428000D01*
X117483456Y-88727983D01*
X117494520Y-88755999D01*
X105913429Y-88755999D01*
X105887574Y-88750148D01*
X105793269Y-88755999D01*
X105781668Y-88755999D01*
X105784209Y-88513416D01*
X105718579Y-88246218D01*
X105591417Y-88002981D01*
X105409907Y-87797098D01*
X105242829Y-87680976D01*
X105639806Y-87283999D01*
X112620172Y-87283999D01*
X112626859Y-87297124D01*
X112626859Y-87297124D01*
G37*
X112626859Y-87297124D02*
X112806204Y-87504897D01*
X113029932Y-87663893D01*
X113285127Y-87764932D01*
X113557059Y-87802182D01*
X113830025Y-87773491D01*
X114088268Y-87680518D01*
X114316880Y-87528628D01*
X114502662Y-87326592D01*
X114526078Y-87283999D01*
X117404543Y-87283999D01*
X117641342Y-87520799D01*
X117530064Y-87739666D01*
X117455382Y-87980181D01*
X117429957Y-88172000D01*
X119038000Y-88172000D01*
X119038000Y-88428000D01*
X117420513Y-88428000D01*
X117483456Y-88727983D01*
X117494520Y-88755999D01*
X105913429Y-88755999D01*
X105887574Y-88750148D01*
X105793269Y-88755999D01*
X105781668Y-88755999D01*
X105784209Y-88513416D01*
X105718579Y-88246218D01*
X105591417Y-88002981D01*
X105409907Y-87797098D01*
X105242829Y-87680976D01*
X105639806Y-87283999D01*
X112620172Y-87283999D01*
X112626859Y-87297124D01*
G36*
X108586546Y-85615999D02*
G01*
X105387779Y-85615999D01*
X105361925Y-85610149D01*
X105267621Y-85615999D01*
X105234542Y-85615999D01*
X105209265Y-85619619D01*
X105123491Y-85624940D01*
X105091524Y-85636480D01*
X105057873Y-85641300D01*
X104979636Y-85676873D01*
X104898423Y-85706190D01*
X104871755Y-85725923D01*
X104840403Y-85740179D01*
X104766899Y-85803513D01*
X104745692Y-85819206D01*
X104727047Y-85837852D01*
X104659427Y-85896117D01*
X104642191Y-85922708D01*
X103148900Y-87416000D01*
X102186880Y-87416000D01*
X102215429Y-87337564D01*
X102259000Y-87090459D01*
X102259000Y-86839541D01*
X102215429Y-86592436D01*
X102129609Y-86356651D01*
X102004150Y-86139349D01*
X101842864Y-85947136D01*
X101650651Y-85785850D01*
X101493294Y-85695000D01*
X101650651Y-85604150D01*
X101842864Y-85442864D01*
X101997144Y-85259000D01*
X108229547Y-85259000D01*
X108586546Y-85615999D01*
X108586546Y-85615999D01*
G37*
X108586546Y-85615999D02*
X105387779Y-85615999D01*
X105361925Y-85610149D01*
X105267621Y-85615999D01*
X105234542Y-85615999D01*
X105209265Y-85619619D01*
X105123491Y-85624940D01*
X105091524Y-85636480D01*
X105057873Y-85641300D01*
X104979636Y-85676873D01*
X104898423Y-85706190D01*
X104871755Y-85725923D01*
X104840403Y-85740179D01*
X104766899Y-85803513D01*
X104745692Y-85819206D01*
X104727047Y-85837852D01*
X104659427Y-85896117D01*
X104642191Y-85922708D01*
X103148900Y-87416000D01*
X102186880Y-87416000D01*
X102215429Y-87337564D01*
X102259000Y-87090459D01*
X102259000Y-86839541D01*
X102215429Y-86592436D01*
X102129609Y-86356651D01*
X102004150Y-86139349D01*
X101842864Y-85947136D01*
X101650651Y-85785850D01*
X101493294Y-85695000D01*
X101650651Y-85604150D01*
X101842864Y-85442864D01*
X101997144Y-85259000D01*
X108229547Y-85259000D01*
X108586546Y-85615999D01*
G36*
X117641343Y-79900798D02*
G01*
X117530064Y-80119666D01*
X117455382Y-80360181D01*
X117429957Y-80552000D01*
X119038000Y-80552000D01*
X119038000Y-80808000D01*
X117420513Y-80808000D01*
X117480942Y-81096001D01*
X113225454Y-81096001D01*
X110968453Y-78839001D01*
X116579546Y-78839001D01*
X117641343Y-79900798D01*
X117641343Y-79900798D01*
G37*
X117641343Y-79900798D02*
X117530064Y-80119666D01*
X117455382Y-80360181D01*
X117429957Y-80552000D01*
X119038000Y-80552000D01*
X119038000Y-80808000D01*
X117420513Y-80808000D01*
X117480942Y-81096001D01*
X113225454Y-81096001D01*
X110968453Y-78839001D01*
X116579546Y-78839001D01*
X117641343Y-79900798D01*
G36*
X117455382Y-70200181D02*
G01*
X117429957Y-70392000D01*
X119038000Y-70392000D01*
X119038000Y-70648000D01*
X117420513Y-70648000D01*
X117483456Y-70947983D01*
X117494520Y-70975999D01*
X107530453Y-70975999D01*
X107483262Y-70928809D01*
X107484209Y-70838416D01*
X107418579Y-70571218D01*
X107291417Y-70327981D01*
X107109907Y-70122098D01*
X107083866Y-70103999D01*
X117485247Y-70103999D01*
X117455382Y-70200181D01*
X117455382Y-70200181D01*
G37*
X117455382Y-70200181D02*
X117429957Y-70392000D01*
X119038000Y-70392000D01*
X119038000Y-70648000D01*
X117420513Y-70648000D01*
X117483456Y-70947983D01*
X117494520Y-70975999D01*
X107530453Y-70975999D01*
X107483262Y-70928809D01*
X107484209Y-70838416D01*
X107418579Y-70571218D01*
X107291417Y-70327981D01*
X107109907Y-70122098D01*
X107083866Y-70103999D01*
X117485247Y-70103999D01*
X117455382Y-70200181D01*
G36*
X89336398Y-129850079D02*
G01*
X89155528Y-129502631D01*
X89005620Y-129140720D01*
X88887832Y-128767142D01*
X88803048Y-128384709D01*
X88751920Y-127996353D01*
X88733225Y-127568150D01*
X88729000Y-127545686D01*
X88729000Y-127405379D01*
X89416000Y-127405379D01*
X89416000Y-127804621D01*
X89457732Y-128201677D01*
X89540739Y-128592195D01*
X89664112Y-128971896D01*
X89826499Y-129336622D01*
X90026120Y-129682377D01*
X90260789Y-130005371D01*
X90442167Y-130206813D01*
X93043981Y-127605000D01*
X93406019Y-127605000D01*
X96007833Y-130206813D01*
X96189211Y-130005371D01*
X96423880Y-129682377D01*
X96623501Y-129336622D01*
X96785888Y-128971896D01*
X96909261Y-128592195D01*
X96992268Y-128201677D01*
X97034000Y-127804621D01*
X97034000Y-127405379D01*
X96992268Y-127008323D01*
X96909261Y-126617805D01*
X96785888Y-126238104D01*
X96623501Y-125873378D01*
X96423880Y-125527623D01*
X96189211Y-125204629D01*
X96007833Y-125003187D01*
X93406019Y-127605000D01*
X93043981Y-127605000D01*
X90442167Y-125003187D01*
X90260789Y-125204629D01*
X90026120Y-125527623D01*
X89826499Y-125873378D01*
X89664112Y-126238104D01*
X89540739Y-126617805D01*
X89457732Y-127008323D01*
X89416000Y-127405379D01*
X88729000Y-127405379D01*
X88729000Y-114567609D01*
X90993088Y-112303522D01*
X91010126Y-112292772D01*
X91057661Y-112238949D01*
X91075440Y-112221171D01*
X91087084Y-112205634D01*
X91130343Y-112156653D01*
X91141325Y-112133262D01*
X91156818Y-112112589D01*
X91171000Y-112074761D01*
X91171000Y-118691566D01*
X91165148Y-118717427D01*
X91171000Y-118811748D01*
X91171000Y-118844810D01*
X91174619Y-118870082D01*
X91179940Y-118955859D01*
X91191482Y-118987831D01*
X91196301Y-119021480D01*
X91231870Y-119099707D01*
X91261191Y-119180929D01*
X91280923Y-119207593D01*
X91295179Y-119238949D01*
X91358513Y-119312451D01*
X91374206Y-119333660D01*
X91392859Y-119352312D01*
X91451118Y-119419926D01*
X91477706Y-119437159D01*
X91790350Y-119749803D01*
X91771000Y-119859542D01*
X91771000Y-120110459D01*
X91814571Y-120357564D01*
X91900391Y-120593349D01*
X92025850Y-120810651D01*
X92187136Y-121002864D01*
X92379349Y-121164150D01*
X92536706Y-121255000D01*
X92379349Y-121345850D01*
X92187136Y-121507136D01*
X92025850Y-121699349D01*
X91900391Y-121916651D01*
X91814571Y-122152436D01*
X91771000Y-122399541D01*
X91771000Y-122650459D01*
X91814571Y-122897564D01*
X91900391Y-123133349D01*
X92025850Y-123350651D01*
X92187136Y-123542864D01*
X92379349Y-123704150D01*
X92596651Y-123829609D01*
X92622417Y-123838987D01*
X92237805Y-123920739D01*
X91858104Y-124044112D01*
X91493378Y-124206499D01*
X91147623Y-124406120D01*
X90824629Y-124640789D01*
X90623187Y-124822167D01*
X93225000Y-127423981D01*
X95826813Y-124822167D01*
X95625371Y-124640789D01*
X95302377Y-124406120D01*
X94956622Y-124206499D01*
X94591896Y-124044112D01*
X94212195Y-123920739D01*
X93821677Y-123837732D01*
X93797898Y-123835233D01*
X93813349Y-123829609D01*
X94030651Y-123704150D01*
X94222864Y-123542864D01*
X94384150Y-123350651D01*
X94475000Y-123193294D01*
X94565850Y-123350651D01*
X94727136Y-123542864D01*
X94919349Y-123704150D01*
X95136651Y-123829609D01*
X95372436Y-123915429D01*
X95619541Y-123959000D01*
X95870458Y-123959000D01*
X95980197Y-123939650D01*
X96289206Y-124248659D01*
X96303355Y-124271084D01*
X96374193Y-124333646D01*
X96397567Y-124357021D01*
X96417994Y-124372330D01*
X96482412Y-124429222D01*
X96513179Y-124443668D01*
X96540381Y-124464054D01*
X96620855Y-124494222D01*
X96699015Y-124530918D01*
X96731819Y-124535820D01*
X96764072Y-124547911D01*
X96860846Y-124555103D01*
X96886927Y-124559001D01*
X96913301Y-124559001D01*
X97002309Y-124565615D01*
X97033292Y-124559001D01*
X101851575Y-124559001D01*
X101877429Y-124564851D01*
X101914710Y-124562538D01*
X101914576Y-124575353D01*
X101977252Y-124842570D01*
X102101858Y-125087124D01*
X102281203Y-125294897D01*
X102504931Y-125453893D01*
X102760126Y-125554932D01*
X103032058Y-125592182D01*
X103236928Y-125570648D01*
X103277252Y-125742570D01*
X103401858Y-125987125D01*
X103512999Y-126115882D01*
X103450064Y-126239666D01*
X103375382Y-126480181D01*
X103342292Y-126729841D01*
X103351740Y-126981508D01*
X103403456Y-127227983D01*
X103495961Y-127462222D01*
X103626610Y-127677526D01*
X103791669Y-127867739D01*
X103986416Y-128027422D01*
X104205284Y-128152009D01*
X104444831Y-128238960D01*
X104784648Y-128284000D01*
X104893190Y-128284000D01*
X105080942Y-128268069D01*
X105324708Y-128204800D01*
X105554329Y-128101363D01*
X105763240Y-127960716D01*
X105945466Y-127786881D01*
X106095797Y-127584828D01*
X106102436Y-127571770D01*
X106166610Y-127677526D01*
X106331669Y-127867739D01*
X106526416Y-128027422D01*
X106745284Y-128152009D01*
X106984831Y-128238960D01*
X107324648Y-128284000D01*
X107433190Y-128284000D01*
X107620942Y-128268069D01*
X107864708Y-128204800D01*
X108094329Y-128101363D01*
X108303240Y-127960716D01*
X108485466Y-127786881D01*
X108635797Y-127584828D01*
X108642436Y-127571770D01*
X108706610Y-127677526D01*
X108871669Y-127867739D01*
X109066416Y-128027422D01*
X109285284Y-128152009D01*
X109524831Y-128238960D01*
X109782000Y-128273047D01*
X109782000Y-125300022D01*
X109415292Y-125395200D01*
X109185671Y-125498637D01*
X108976760Y-125639284D01*
X108794534Y-125813119D01*
X108644203Y-126015172D01*
X108637564Y-126028230D01*
X108573390Y-125922474D01*
X108408331Y-125732261D01*
X108213584Y-125572578D01*
X107994716Y-125447991D01*
X107755169Y-125361040D01*
X107415352Y-125316000D01*
X107306810Y-125316000D01*
X107119058Y-125331931D01*
X107089148Y-125339694D01*
X107069668Y-125320215D01*
X107138267Y-125295518D01*
X107268487Y-125209000D01*
X111391580Y-125209000D01*
X111389999Y-125359988D01*
X111282489Y-125388795D01*
X111106835Y-125536185D01*
X110995044Y-125729814D01*
X110986796Y-125776588D01*
X110948331Y-125732261D01*
X110753584Y-125572578D01*
X110534716Y-125447991D01*
X110295169Y-125361040D01*
X110038000Y-125326953D01*
X110038000Y-128299978D01*
X110404708Y-128204800D01*
X110634329Y-128101363D01*
X110843240Y-127960716D01*
X110997535Y-127813526D01*
X111038795Y-127967512D01*
X111186185Y-128143165D01*
X111316222Y-128218241D01*
X111314576Y-128375353D01*
X111324110Y-128416000D01*
X108473428Y-128416000D01*
X108447573Y-128410149D01*
X108353268Y-128416000D01*
X108320189Y-128416000D01*
X108294912Y-128419620D01*
X108209138Y-128424941D01*
X108177171Y-128436481D01*
X108143520Y-128441301D01*
X108065283Y-128476874D01*
X107984070Y-128506191D01*
X107957403Y-128525923D01*
X107926050Y-128540179D01*
X107852553Y-128603508D01*
X107831337Y-128619208D01*
X107812687Y-128637859D01*
X107745073Y-128696118D01*
X107727840Y-128722706D01*
X105104214Y-131346333D01*
X104875352Y-131316000D01*
X104766810Y-131316000D01*
X104579058Y-131331931D01*
X104335292Y-131395200D01*
X104105671Y-131498637D01*
X103896760Y-131639284D01*
X103714534Y-131813119D01*
X103564203Y-132015172D01*
X103450064Y-132239666D01*
X103375382Y-132480181D01*
X103342292Y-132729841D01*
X103351740Y-132981508D01*
X103403456Y-133227983D01*
X103495961Y-133462222D01*
X103626610Y-133677526D01*
X103791669Y-133867739D01*
X103986416Y-134027422D01*
X104205284Y-134152009D01*
X104444831Y-134238960D01*
X104784648Y-134284000D01*
X104893190Y-134284000D01*
X105080942Y-134268069D01*
X105324708Y-134204800D01*
X105554329Y-134101363D01*
X105763240Y-133960716D01*
X105945466Y-133786881D01*
X106095797Y-133584828D01*
X106102436Y-133571770D01*
X106166610Y-133677526D01*
X106331669Y-133867739D01*
X106526416Y-134027422D01*
X106745284Y-134152009D01*
X106984831Y-134238960D01*
X107324648Y-134284000D01*
X107433190Y-134284000D01*
X107620942Y-134268069D01*
X107864708Y-134204800D01*
X108094329Y-134101363D01*
X108303240Y-133960716D01*
X108485466Y-133786881D01*
X108635797Y-133584828D01*
X108642436Y-133571770D01*
X108706610Y-133677526D01*
X108871669Y-133867739D01*
X109066416Y-134027422D01*
X109285284Y-134152009D01*
X109524831Y-134238960D01*
X109782000Y-134273047D01*
X109782000Y-132672000D01*
X110038000Y-132672000D01*
X110038000Y-134299978D01*
X110404708Y-134204800D01*
X110634329Y-134101363D01*
X110843240Y-133960716D01*
X110997535Y-133813526D01*
X111038795Y-133967512D01*
X111186185Y-134143165D01*
X111379814Y-134254956D01*
X111588976Y-134291837D01*
X113316588Y-134291837D01*
X113617512Y-134211205D01*
X113793165Y-134063815D01*
X113904956Y-133870186D01*
X113941837Y-133661024D01*
X113941837Y-131933412D01*
X113861205Y-131632489D01*
X113713815Y-131456835D01*
X113575219Y-131376818D01*
X113518579Y-131146218D01*
X113433773Y-130984001D01*
X117588575Y-130984001D01*
X117614429Y-130989851D01*
X117708733Y-130984001D01*
X117741812Y-130984001D01*
X117767088Y-130980381D01*
X117852862Y-130975060D01*
X117884826Y-130963520D01*
X117918481Y-130958701D01*
X117996724Y-130923124D01*
X118077930Y-130893809D01*
X118104593Y-130874080D01*
X118135951Y-130859822D01*
X118209461Y-130796481D01*
X118230662Y-130780794D01*
X118249308Y-130762147D01*
X118316927Y-130703883D01*
X118334163Y-130677292D01*
X118591001Y-130420454D01*
X118591001Y-135061000D01*
X101627610Y-135061000D01*
X98903522Y-132336912D01*
X98892772Y-132319874D01*
X98838949Y-132272339D01*
X98821170Y-132254559D01*
X98805632Y-132242915D01*
X98756652Y-132199657D01*
X98733259Y-132188674D01*
X98712589Y-132173182D01*
X98651415Y-132150249D01*
X98591911Y-132122311D01*
X98566934Y-132118578D01*
X98542538Y-132109433D01*
X98469343Y-132103993D01*
X98449313Y-132101000D01*
X98429062Y-132101000D01*
X98361435Y-132095975D01*
X98337895Y-132101000D01*
X93288210Y-132101000D01*
X93269268Y-132097198D01*
X93253269Y-132096401D01*
X92833647Y-132078080D01*
X92445291Y-132026952D01*
X92062861Y-131942168D01*
X91689288Y-131824383D01*
X91327369Y-131674472D01*
X90979921Y-131493602D01*
X90649550Y-131283132D01*
X90338768Y-131044661D01*
X90049972Y-130780028D01*
X89785329Y-130491219D01*
X89705998Y-130387833D01*
X90623187Y-130387833D01*
X90824629Y-130569211D01*
X91147623Y-130803880D01*
X91493378Y-131003501D01*
X91858104Y-131165888D01*
X92237805Y-131289261D01*
X92628323Y-131372268D01*
X93025379Y-131414000D01*
X93424621Y-131414000D01*
X93821677Y-131372268D01*
X94212195Y-131289261D01*
X94591896Y-131165888D01*
X94956622Y-131003501D01*
X95302377Y-130803880D01*
X95625371Y-130569211D01*
X95826813Y-130387833D01*
X93225000Y-127786019D01*
X90623187Y-130387833D01*
X89705998Y-130387833D01*
X89546873Y-130180458D01*
X89336398Y-129850079D01*
X89336398Y-129850079D01*
G37*
X89336398Y-129850079D02*
X89155528Y-129502631D01*
X89005620Y-129140720D01*
X88887832Y-128767142D01*
X88803048Y-128384709D01*
X88751920Y-127996353D01*
X88733225Y-127568150D01*
X88729000Y-127545686D01*
X88729000Y-127405379D01*
X89416000Y-127405379D01*
X89416000Y-127804621D01*
X89457732Y-128201677D01*
X89540739Y-128592195D01*
X89664112Y-128971896D01*
X89826499Y-129336622D01*
X90026120Y-129682377D01*
X90260789Y-130005371D01*
X90442167Y-130206813D01*
X93043981Y-127605000D01*
X93406019Y-127605000D01*
X96007833Y-130206813D01*
X96189211Y-130005371D01*
X96423880Y-129682377D01*
X96623501Y-129336622D01*
X96785888Y-128971896D01*
X96909261Y-128592195D01*
X96992268Y-128201677D01*
X97034000Y-127804621D01*
X97034000Y-127405379D01*
X96992268Y-127008323D01*
X96909261Y-126617805D01*
X96785888Y-126238104D01*
X96623501Y-125873378D01*
X96423880Y-125527623D01*
X96189211Y-125204629D01*
X96007833Y-125003187D01*
X93406019Y-127605000D01*
X93043981Y-127605000D01*
X90442167Y-125003187D01*
X90260789Y-125204629D01*
X90026120Y-125527623D01*
X89826499Y-125873378D01*
X89664112Y-126238104D01*
X89540739Y-126617805D01*
X89457732Y-127008323D01*
X89416000Y-127405379D01*
X88729000Y-127405379D01*
X88729000Y-114567609D01*
X90993088Y-112303522D01*
X91010126Y-112292772D01*
X91057661Y-112238949D01*
X91075440Y-112221171D01*
X91087084Y-112205634D01*
X91130343Y-112156653D01*
X91141325Y-112133262D01*
X91156818Y-112112589D01*
X91171000Y-112074761D01*
X91171000Y-118691566D01*
X91165148Y-118717427D01*
X91171000Y-118811748D01*
X91171000Y-118844810D01*
X91174619Y-118870082D01*
X91179940Y-118955859D01*
X91191482Y-118987831D01*
X91196301Y-119021480D01*
X91231870Y-119099707D01*
X91261191Y-119180929D01*
X91280923Y-119207593D01*
X91295179Y-119238949D01*
X91358513Y-119312451D01*
X91374206Y-119333660D01*
X91392859Y-119352312D01*
X91451118Y-119419926D01*
X91477706Y-119437159D01*
X91790350Y-119749803D01*
X91771000Y-119859542D01*
X91771000Y-120110459D01*
X91814571Y-120357564D01*
X91900391Y-120593349D01*
X92025850Y-120810651D01*
X92187136Y-121002864D01*
X92379349Y-121164150D01*
X92536706Y-121255000D01*
X92379349Y-121345850D01*
X92187136Y-121507136D01*
X92025850Y-121699349D01*
X91900391Y-121916651D01*
X91814571Y-122152436D01*
X91771000Y-122399541D01*
X91771000Y-122650459D01*
X91814571Y-122897564D01*
X91900391Y-123133349D01*
X92025850Y-123350651D01*
X92187136Y-123542864D01*
X92379349Y-123704150D01*
X92596651Y-123829609D01*
X92622417Y-123838987D01*
X92237805Y-123920739D01*
X91858104Y-124044112D01*
X91493378Y-124206499D01*
X91147623Y-124406120D01*
X90824629Y-124640789D01*
X90623187Y-124822167D01*
X93225000Y-127423981D01*
X95826813Y-124822167D01*
X95625371Y-124640789D01*
X95302377Y-124406120D01*
X94956622Y-124206499D01*
X94591896Y-124044112D01*
X94212195Y-123920739D01*
X93821677Y-123837732D01*
X93797898Y-123835233D01*
X93813349Y-123829609D01*
X94030651Y-123704150D01*
X94222864Y-123542864D01*
X94384150Y-123350651D01*
X94475000Y-123193294D01*
X94565850Y-123350651D01*
X94727136Y-123542864D01*
X94919349Y-123704150D01*
X95136651Y-123829609D01*
X95372436Y-123915429D01*
X95619541Y-123959000D01*
X95870458Y-123959000D01*
X95980197Y-123939650D01*
X96289206Y-124248659D01*
X96303355Y-124271084D01*
X96374193Y-124333646D01*
X96397567Y-124357021D01*
X96417994Y-124372330D01*
X96482412Y-124429222D01*
X96513179Y-124443668D01*
X96540381Y-124464054D01*
X96620855Y-124494222D01*
X96699015Y-124530918D01*
X96731819Y-124535820D01*
X96764072Y-124547911D01*
X96860846Y-124555103D01*
X96886927Y-124559001D01*
X96913301Y-124559001D01*
X97002309Y-124565615D01*
X97033292Y-124559001D01*
X101851575Y-124559001D01*
X101877429Y-124564851D01*
X101914710Y-124562538D01*
X101914576Y-124575353D01*
X101977252Y-124842570D01*
X102101858Y-125087124D01*
X102281203Y-125294897D01*
X102504931Y-125453893D01*
X102760126Y-125554932D01*
X103032058Y-125592182D01*
X103236928Y-125570648D01*
X103277252Y-125742570D01*
X103401858Y-125987125D01*
X103512999Y-126115882D01*
X103450064Y-126239666D01*
X103375382Y-126480181D01*
X103342292Y-126729841D01*
X103351740Y-126981508D01*
X103403456Y-127227983D01*
X103495961Y-127462222D01*
X103626610Y-127677526D01*
X103791669Y-127867739D01*
X103986416Y-128027422D01*
X104205284Y-128152009D01*
X104444831Y-128238960D01*
X104784648Y-128284000D01*
X104893190Y-128284000D01*
X105080942Y-128268069D01*
X105324708Y-128204800D01*
X105554329Y-128101363D01*
X105763240Y-127960716D01*
X105945466Y-127786881D01*
X106095797Y-127584828D01*
X106102436Y-127571770D01*
X106166610Y-127677526D01*
X106331669Y-127867739D01*
X106526416Y-128027422D01*
X106745284Y-128152009D01*
X106984831Y-128238960D01*
X107324648Y-128284000D01*
X107433190Y-128284000D01*
X107620942Y-128268069D01*
X107864708Y-128204800D01*
X108094329Y-128101363D01*
X108303240Y-127960716D01*
X108485466Y-127786881D01*
X108635797Y-127584828D01*
X108642436Y-127571770D01*
X108706610Y-127677526D01*
X108871669Y-127867739D01*
X109066416Y-128027422D01*
X109285284Y-128152009D01*
X109524831Y-128238960D01*
X109782000Y-128273047D01*
X109782000Y-125300022D01*
X109415292Y-125395200D01*
X109185671Y-125498637D01*
X108976760Y-125639284D01*
X108794534Y-125813119D01*
X108644203Y-126015172D01*
X108637564Y-126028230D01*
X108573390Y-125922474D01*
X108408331Y-125732261D01*
X108213584Y-125572578D01*
X107994716Y-125447991D01*
X107755169Y-125361040D01*
X107415352Y-125316000D01*
X107306810Y-125316000D01*
X107119058Y-125331931D01*
X107089148Y-125339694D01*
X107069668Y-125320215D01*
X107138267Y-125295518D01*
X107268487Y-125209000D01*
X111391580Y-125209000D01*
X111389999Y-125359988D01*
X111282489Y-125388795D01*
X111106835Y-125536185D01*
X110995044Y-125729814D01*
X110986796Y-125776588D01*
X110948331Y-125732261D01*
X110753584Y-125572578D01*
X110534716Y-125447991D01*
X110295169Y-125361040D01*
X110038000Y-125326953D01*
X110038000Y-128299978D01*
X110404708Y-128204800D01*
X110634329Y-128101363D01*
X110843240Y-127960716D01*
X110997535Y-127813526D01*
X111038795Y-127967512D01*
X111186185Y-128143165D01*
X111316222Y-128218241D01*
X111314576Y-128375353D01*
X111324110Y-128416000D01*
X108473428Y-128416000D01*
X108447573Y-128410149D01*
X108353268Y-128416000D01*
X108320189Y-128416000D01*
X108294912Y-128419620D01*
X108209138Y-128424941D01*
X108177171Y-128436481D01*
X108143520Y-128441301D01*
X108065283Y-128476874D01*
X107984070Y-128506191D01*
X107957403Y-128525923D01*
X107926050Y-128540179D01*
X107852553Y-128603508D01*
X107831337Y-128619208D01*
X107812687Y-128637859D01*
X107745073Y-128696118D01*
X107727840Y-128722706D01*
X105104214Y-131346333D01*
X104875352Y-131316000D01*
X104766810Y-131316000D01*
X104579058Y-131331931D01*
X104335292Y-131395200D01*
X104105671Y-131498637D01*
X103896760Y-131639284D01*
X103714534Y-131813119D01*
X103564203Y-132015172D01*
X103450064Y-132239666D01*
X103375382Y-132480181D01*
X103342292Y-132729841D01*
X103351740Y-132981508D01*
X103403456Y-133227983D01*
X103495961Y-133462222D01*
X103626610Y-133677526D01*
X103791669Y-133867739D01*
X103986416Y-134027422D01*
X104205284Y-134152009D01*
X104444831Y-134238960D01*
X104784648Y-134284000D01*
X104893190Y-134284000D01*
X105080942Y-134268069D01*
X105324708Y-134204800D01*
X105554329Y-134101363D01*
X105763240Y-133960716D01*
X105945466Y-133786881D01*
X106095797Y-133584828D01*
X106102436Y-133571770D01*
X106166610Y-133677526D01*
X106331669Y-133867739D01*
X106526416Y-134027422D01*
X106745284Y-134152009D01*
X106984831Y-134238960D01*
X107324648Y-134284000D01*
X107433190Y-134284000D01*
X107620942Y-134268069D01*
X107864708Y-134204800D01*
X108094329Y-134101363D01*
X108303240Y-133960716D01*
X108485466Y-133786881D01*
X108635797Y-133584828D01*
X108642436Y-133571770D01*
X108706610Y-133677526D01*
X108871669Y-133867739D01*
X109066416Y-134027422D01*
X109285284Y-134152009D01*
X109524831Y-134238960D01*
X109782000Y-134273047D01*
X109782000Y-132672000D01*
X110038000Y-132672000D01*
X110038000Y-134299978D01*
X110404708Y-134204800D01*
X110634329Y-134101363D01*
X110843240Y-133960716D01*
X110997535Y-133813526D01*
X111038795Y-133967512D01*
X111186185Y-134143165D01*
X111379814Y-134254956D01*
X111588976Y-134291837D01*
X113316588Y-134291837D01*
X113617512Y-134211205D01*
X113793165Y-134063815D01*
X113904956Y-133870186D01*
X113941837Y-133661024D01*
X113941837Y-131933412D01*
X113861205Y-131632489D01*
X113713815Y-131456835D01*
X113575219Y-131376818D01*
X113518579Y-131146218D01*
X113433773Y-130984001D01*
X117588575Y-130984001D01*
X117614429Y-130989851D01*
X117708733Y-130984001D01*
X117741812Y-130984001D01*
X117767088Y-130980381D01*
X117852862Y-130975060D01*
X117884826Y-130963520D01*
X117918481Y-130958701D01*
X117996724Y-130923124D01*
X118077930Y-130893809D01*
X118104593Y-130874080D01*
X118135951Y-130859822D01*
X118209461Y-130796481D01*
X118230662Y-130780794D01*
X118249308Y-130762147D01*
X118316927Y-130703883D01*
X118334163Y-130677292D01*
X118591001Y-130420454D01*
X118591001Y-135061000D01*
X101627610Y-135061000D01*
X98903522Y-132336912D01*
X98892772Y-132319874D01*
X98838949Y-132272339D01*
X98821170Y-132254559D01*
X98805632Y-132242915D01*
X98756652Y-132199657D01*
X98733259Y-132188674D01*
X98712589Y-132173182D01*
X98651415Y-132150249D01*
X98591911Y-132122311D01*
X98566934Y-132118578D01*
X98542538Y-132109433D01*
X98469343Y-132103993D01*
X98449313Y-132101000D01*
X98429062Y-132101000D01*
X98361435Y-132095975D01*
X98337895Y-132101000D01*
X93288210Y-132101000D01*
X93269268Y-132097198D01*
X93253269Y-132096401D01*
X92833647Y-132078080D01*
X92445291Y-132026952D01*
X92062861Y-131942168D01*
X91689288Y-131824383D01*
X91327369Y-131674472D01*
X90979921Y-131493602D01*
X90649550Y-131283132D01*
X90338768Y-131044661D01*
X90049972Y-130780028D01*
X89785329Y-130491219D01*
X89705998Y-130387833D01*
X90623187Y-130387833D01*
X90824629Y-130569211D01*
X91147623Y-130803880D01*
X91493378Y-131003501D01*
X91858104Y-131165888D01*
X92237805Y-131289261D01*
X92628323Y-131372268D01*
X93025379Y-131414000D01*
X93424621Y-131414000D01*
X93821677Y-131372268D01*
X94212195Y-131289261D01*
X94591896Y-131165888D01*
X94956622Y-131003501D01*
X95302377Y-130803880D01*
X95625371Y-130569211D01*
X95826813Y-130387833D01*
X93225000Y-127786019D01*
X90623187Y-130387833D01*
X89705998Y-130387833D01*
X89546873Y-130180458D01*
X89336398Y-129850079D01*
G36*
X171859000Y-122613539D02*
G01*
X171859583Y-122518073D01*
X171846509Y-122472328D01*
X171839764Y-122425232D01*
X171821684Y-122385467D01*
X171809677Y-122343460D01*
X171784294Y-122303229D01*
X171764598Y-122259911D01*
X171736080Y-122226816D01*
X171712773Y-122189874D01*
X171677111Y-122158379D01*
X171646054Y-122122336D01*
X171609399Y-122098578D01*
X171576654Y-122069658D01*
X171533584Y-122049436D01*
X171493662Y-122023561D01*
X171451817Y-122011047D01*
X171411912Y-121992311D01*
X171366454Y-121985517D01*
X171319673Y-121971527D01*
X171270832Y-121971228D01*
X171269306Y-121971000D01*
X171233539Y-121971000D01*
X171138074Y-121970417D01*
X171136034Y-121971000D01*
X170466739Y-121971000D01*
X170763874Y-121846401D01*
X171103070Y-121659541D01*
X171420489Y-121437694D01*
X171658986Y-121230005D01*
X169180000Y-118751019D01*
X166693659Y-121237360D01*
X167082272Y-121543718D01*
X167410150Y-121749794D01*
X167758068Y-121919861D01*
X167898954Y-121971000D01*
X144466739Y-121971000D01*
X144763874Y-121846401D01*
X145103070Y-121659541D01*
X145420489Y-121437694D01*
X145658986Y-121230005D01*
X143180000Y-118751019D01*
X140693659Y-121237360D01*
X141082272Y-121543718D01*
X141410150Y-121749794D01*
X141758068Y-121919861D01*
X141898954Y-121971000D01*
X125001440Y-121971000D01*
X125031099Y-121860308D01*
X125034209Y-121563416D01*
X124968579Y-121296218D01*
X124841417Y-121052981D01*
X124659907Y-120847098D01*
X124434526Y-120690455D01*
X124178286Y-120592094D01*
X123905981Y-120557694D01*
X123633330Y-120589241D01*
X123376075Y-120684912D01*
X123149065Y-120839187D01*
X122965409Y-121043159D01*
X122843248Y-121270990D01*
X122611921Y-121270990D01*
X122658986Y-121230005D01*
X120180000Y-118751019D01*
X117693659Y-121237360D01*
X118082272Y-121543718D01*
X118277196Y-121666231D01*
X118201331Y-121742096D01*
X118178907Y-121756245D01*
X118116346Y-121827082D01*
X118092971Y-121850456D01*
X118077662Y-121870882D01*
X118020769Y-121935302D01*
X118006324Y-121966069D01*
X117985937Y-121993271D01*
X117955769Y-122073746D01*
X117919074Y-122151904D01*
X117914172Y-122184709D01*
X117902081Y-122216962D01*
X117894889Y-122313730D01*
X117890991Y-122339813D01*
X117890991Y-122366194D01*
X117884376Y-122455197D01*
X117890991Y-122486186D01*
X117890990Y-128314449D01*
X117784526Y-128240455D01*
X117528286Y-128142094D01*
X117255981Y-128107694D01*
X116983330Y-128139241D01*
X116726075Y-128234912D01*
X116499065Y-128389187D01*
X116474923Y-128416000D01*
X113579574Y-128416000D01*
X113581099Y-128410308D01*
X113583088Y-128220429D01*
X113617512Y-128211205D01*
X113793165Y-128063815D01*
X113904956Y-127870186D01*
X113941837Y-127661024D01*
X113941837Y-125933412D01*
X113861205Y-125632489D01*
X113741564Y-125489906D01*
X113755024Y-125488491D01*
X114013267Y-125395518D01*
X114241879Y-125243628D01*
X114427661Y-125041592D01*
X114559888Y-124801072D01*
X114631099Y-124535308D01*
X114634209Y-124238416D01*
X114568579Y-123971218D01*
X114441417Y-123727981D01*
X114259907Y-123522098D01*
X114034526Y-123365455D01*
X113778286Y-123267094D01*
X113505981Y-123232694D01*
X113233330Y-123264241D01*
X112976075Y-123359912D01*
X112749065Y-123514187D01*
X112724923Y-123541000D01*
X107489733Y-123541000D01*
X107384907Y-123422098D01*
X107294120Y-123359000D01*
X111099572Y-123359000D01*
X111125426Y-123364850D01*
X111219730Y-123359000D01*
X111252809Y-123359000D01*
X111278085Y-123355380D01*
X111363859Y-123350059D01*
X111395823Y-123338519D01*
X111429478Y-123333700D01*
X111507721Y-123298123D01*
X111588927Y-123268808D01*
X111615590Y-123249079D01*
X111646948Y-123234821D01*
X111720458Y-123171480D01*
X111741659Y-123155793D01*
X111760305Y-123137146D01*
X111827924Y-123078882D01*
X111845160Y-123052291D01*
X116552907Y-118344544D01*
X116540848Y-118563649D01*
X116560778Y-118950395D01*
X116621694Y-119332834D01*
X116722903Y-119706636D01*
X116863260Y-120067565D01*
X117041177Y-120411536D01*
X117254639Y-120734653D01*
X117516830Y-121052151D01*
X120180000Y-118388980D01*
X122838548Y-121047529D01*
X122975904Y-120899460D01*
X123207612Y-120589166D01*
X123405034Y-120256007D01*
X123565935Y-119903756D01*
X123688494Y-119536401D01*
X123771322Y-119158102D01*
X123813488Y-118773089D01*
X123813854Y-118563649D01*
X139540848Y-118563649D01*
X139560778Y-118950395D01*
X139621694Y-119332834D01*
X139722903Y-119706636D01*
X139863260Y-120067565D01*
X140041177Y-120411536D01*
X140254639Y-120734653D01*
X140516830Y-121052151D01*
X142998981Y-118570000D01*
X143361019Y-118570000D01*
X145838548Y-121047529D01*
X145975904Y-120899460D01*
X146207612Y-120589166D01*
X146405034Y-120256007D01*
X146565935Y-119903756D01*
X146688494Y-119536401D01*
X146771322Y-119158102D01*
X146813488Y-118773089D01*
X146813854Y-118563649D01*
X165540848Y-118563649D01*
X165560778Y-118950395D01*
X165621694Y-119332834D01*
X165722903Y-119706636D01*
X165863260Y-120067565D01*
X166041177Y-120411536D01*
X166254639Y-120734653D01*
X166516830Y-121052151D01*
X168998981Y-118570000D01*
X169361019Y-118570000D01*
X171838548Y-121047529D01*
X171975904Y-120899460D01*
X172207612Y-120589166D01*
X172405034Y-120256007D01*
X172565935Y-119903756D01*
X172688494Y-119536401D01*
X172771322Y-119158102D01*
X172813488Y-118773089D01*
X172814176Y-118379596D01*
X172773354Y-117994438D01*
X172691847Y-117615852D01*
X172570571Y-117248071D01*
X172410899Y-116895261D01*
X172214642Y-116561415D01*
X171984018Y-116250315D01*
X171838586Y-116092433D01*
X169361019Y-118570000D01*
X168998981Y-118570000D01*
X166517355Y-116088374D01*
X166262213Y-116395148D01*
X166047625Y-116717519D01*
X165868508Y-117060866D01*
X165726891Y-117421304D01*
X165624378Y-117794749D01*
X165562129Y-118176974D01*
X165540848Y-118563649D01*
X146813854Y-118563649D01*
X146814176Y-118379596D01*
X146773354Y-117994438D01*
X146691847Y-117615852D01*
X146570571Y-117248071D01*
X146410899Y-116895261D01*
X146214642Y-116561415D01*
X145984018Y-116250315D01*
X145838586Y-116092433D01*
X143361019Y-118570000D01*
X142998981Y-118570000D01*
X140517355Y-116088374D01*
X140262213Y-116395148D01*
X140047625Y-116717519D01*
X139868508Y-117060866D01*
X139726891Y-117421304D01*
X139624378Y-117794749D01*
X139562129Y-118176974D01*
X139540848Y-118563649D01*
X123813854Y-118563649D01*
X123814176Y-118379596D01*
X123773354Y-117994438D01*
X123691847Y-117615852D01*
X123570571Y-117248071D01*
X123410899Y-116895261D01*
X123214642Y-116561415D01*
X122984018Y-116250315D01*
X122975724Y-116241311D01*
X123010126Y-116254932D01*
X123282058Y-116292182D01*
X123555024Y-116263491D01*
X123813267Y-116170518D01*
X124041879Y-116018628D01*
X124149239Y-115901875D01*
X140692894Y-115901875D01*
X143180000Y-118388981D01*
X145658698Y-115910282D01*
X145649112Y-115901875D01*
X166692894Y-115901875D01*
X169180000Y-118388981D01*
X171658698Y-115910282D01*
X171430485Y-115710144D01*
X171113843Y-115487190D01*
X170775301Y-115299147D01*
X170418695Y-115148144D01*
X170048061Y-115035890D01*
X169667597Y-114963657D01*
X169281611Y-114932262D01*
X168894475Y-114942061D01*
X168510572Y-114992944D01*
X168134250Y-115084334D01*
X167769770Y-115215195D01*
X167421260Y-115384047D01*
X167092666Y-115588977D01*
X166692894Y-115901875D01*
X145649112Y-115901875D01*
X145430485Y-115710144D01*
X145113843Y-115487190D01*
X144775301Y-115299147D01*
X144418695Y-115148144D01*
X144048061Y-115035890D01*
X143667597Y-114963657D01*
X143281611Y-114932262D01*
X142894475Y-114942061D01*
X142510572Y-114992944D01*
X142134250Y-115084334D01*
X141769770Y-115215195D01*
X141421260Y-115384047D01*
X141092666Y-115588977D01*
X140692894Y-115901875D01*
X124149239Y-115901875D01*
X124227661Y-115816592D01*
X124359888Y-115576072D01*
X124431099Y-115310308D01*
X124434209Y-115013416D01*
X124368579Y-114746218D01*
X124241417Y-114502981D01*
X124059907Y-114297098D01*
X123834526Y-114140455D01*
X123578286Y-114042094D01*
X123305981Y-114007694D01*
X123033330Y-114039241D01*
X122880996Y-114095893D01*
X122904618Y-114019819D01*
X122930043Y-113828000D01*
X121322000Y-113828000D01*
X121322000Y-113572000D01*
X122939487Y-113572000D01*
X122876544Y-113272017D01*
X122784039Y-113037778D01*
X122653390Y-112822474D01*
X122488331Y-112632261D01*
X122293584Y-112472578D01*
X122219939Y-112430657D01*
X122383240Y-112320716D01*
X122565466Y-112146881D01*
X122715797Y-111944828D01*
X122829936Y-111720334D01*
X122904618Y-111479819D01*
X122937708Y-111230159D01*
X122929938Y-111023183D01*
X123010126Y-111054932D01*
X123282058Y-111092182D01*
X123555024Y-111063491D01*
X123813267Y-110970518D01*
X124041879Y-110818628D01*
X124227661Y-110616592D01*
X124359888Y-110376072D01*
X124431099Y-110110308D01*
X124434209Y-109813416D01*
X124368579Y-109546218D01*
X124241417Y-109302981D01*
X124059907Y-109097098D01*
X123834526Y-108940455D01*
X123578286Y-108842094D01*
X123305981Y-108807694D01*
X123033330Y-108839241D01*
X122911967Y-108884375D01*
X122937708Y-108690159D01*
X122928260Y-108438492D01*
X122876544Y-108192017D01*
X122784039Y-107957778D01*
X122653390Y-107742474D01*
X122488331Y-107552261D01*
X122293584Y-107392578D01*
X122219939Y-107350657D01*
X122383240Y-107240716D01*
X122565466Y-107066881D01*
X122715797Y-106864828D01*
X122829936Y-106640334D01*
X122904618Y-106399819D01*
X122937708Y-106150159D01*
X122928260Y-105898492D01*
X122876544Y-105652017D01*
X122784039Y-105417778D01*
X122653390Y-105202474D01*
X122488331Y-105012261D01*
X122293584Y-104852578D01*
X122219939Y-104810657D01*
X122383240Y-104700716D01*
X122565466Y-104526881D01*
X122715797Y-104324828D01*
X122829936Y-104100334D01*
X122904618Y-103859819D01*
X122937708Y-103610159D01*
X122928260Y-103358492D01*
X122876544Y-103112017D01*
X122784039Y-102877778D01*
X122653390Y-102662474D01*
X122488331Y-102472261D01*
X122293584Y-102312578D01*
X122219939Y-102270657D01*
X122383240Y-102160716D01*
X122565466Y-101986881D01*
X122715797Y-101784828D01*
X122829936Y-101560334D01*
X122837204Y-101536927D01*
X150340417Y-101536927D01*
X150353493Y-101582678D01*
X150360237Y-101629769D01*
X150378318Y-101669538D01*
X150390322Y-101711539D01*
X150415706Y-101751771D01*
X150435402Y-101795089D01*
X150463920Y-101828184D01*
X150487227Y-101865126D01*
X150522889Y-101896621D01*
X150553946Y-101932664D01*
X150590601Y-101956422D01*
X150623346Y-101985342D01*
X150666416Y-102005564D01*
X150706338Y-102031439D01*
X150748183Y-102043953D01*
X150788088Y-102062689D01*
X150833546Y-102069483D01*
X150880327Y-102083473D01*
X150929168Y-102083772D01*
X150930694Y-102084000D01*
X150966461Y-102084000D01*
X151061926Y-102084583D01*
X151063966Y-102084000D01*
X170516462Y-102084000D01*
X170611927Y-102084583D01*
X170657672Y-102071509D01*
X170704768Y-102064764D01*
X170744533Y-102046684D01*
X170786540Y-102034677D01*
X170826771Y-102009294D01*
X170870089Y-101989598D01*
X170903184Y-101961080D01*
X170940126Y-101937773D01*
X170971621Y-101902111D01*
X171007664Y-101871054D01*
X171031422Y-101834399D01*
X171060342Y-101801654D01*
X171080564Y-101758584D01*
X171106439Y-101718662D01*
X171118953Y-101676817D01*
X171137689Y-101636912D01*
X171144483Y-101591454D01*
X171158473Y-101544673D01*
X171158772Y-101495832D01*
X171159000Y-101494306D01*
X171159000Y-101458539D01*
X171159583Y-101363073D01*
X171159000Y-101361033D01*
X171159000Y-99408539D01*
X171159583Y-99313073D01*
X171146509Y-99267328D01*
X171139764Y-99220232D01*
X171121684Y-99180467D01*
X171109677Y-99138460D01*
X171084294Y-99098229D01*
X171064598Y-99054911D01*
X171036080Y-99021816D01*
X171012773Y-98984874D01*
X170977111Y-98953378D01*
X170946053Y-98917335D01*
X170909399Y-98893578D01*
X170876654Y-98864658D01*
X170833578Y-98844434D01*
X170793661Y-98818561D01*
X170751818Y-98806048D01*
X170711911Y-98787311D01*
X170666455Y-98780518D01*
X170619672Y-98766527D01*
X170570832Y-98766228D01*
X170569306Y-98766000D01*
X170533538Y-98766000D01*
X170438073Y-98765417D01*
X170436033Y-98766000D01*
X150983539Y-98766000D01*
X150888075Y-98765417D01*
X150842322Y-98778492D01*
X150795230Y-98785237D01*
X150755459Y-98803319D01*
X150713462Y-98815322D01*
X150673231Y-98840706D01*
X150629912Y-98860402D01*
X150596817Y-98888919D01*
X150559875Y-98912228D01*
X150528383Y-98947886D01*
X150492336Y-98978946D01*
X150468576Y-99015604D01*
X150439659Y-99048346D01*
X150419440Y-99091411D01*
X150393561Y-99131338D01*
X150381043Y-99173194D01*
X150362312Y-99213089D01*
X150355519Y-99258540D01*
X150341527Y-99305327D01*
X150341228Y-99354173D01*
X150341001Y-99355692D01*
X150341001Y-99391301D01*
X150340417Y-99486932D01*
X150341001Y-99488975D01*
X150341000Y-101441458D01*
X150340417Y-101536927D01*
X122837204Y-101536927D01*
X122904618Y-101319819D01*
X122937708Y-101070159D01*
X122928260Y-100818492D01*
X122876544Y-100572017D01*
X122784039Y-100337778D01*
X122653390Y-100122474D01*
X122488331Y-99932261D01*
X122293584Y-99772578D01*
X122219939Y-99730657D01*
X122383240Y-99620716D01*
X122523481Y-99486932D01*
X122565466Y-99446881D01*
X122715797Y-99244828D01*
X122829936Y-99020334D01*
X122904618Y-98779819D01*
X122937708Y-98530159D01*
X122928260Y-98278492D01*
X122876544Y-98032017D01*
X122784039Y-97797778D01*
X122653390Y-97582474D01*
X122488331Y-97392261D01*
X122293584Y-97232578D01*
X122219939Y-97190657D01*
X122383240Y-97080716D01*
X122565466Y-96906881D01*
X122715797Y-96704828D01*
X122829936Y-96480334D01*
X122904618Y-96239819D01*
X122930043Y-96048000D01*
X121322000Y-96048000D01*
X121322000Y-95792000D01*
X122939487Y-95792000D01*
X122876544Y-95492017D01*
X122784039Y-95257778D01*
X122653390Y-95042474D01*
X122488331Y-94852261D01*
X122293584Y-94692578D01*
X122219939Y-94650657D01*
X122383240Y-94540716D01*
X122565466Y-94366881D01*
X122715797Y-94164828D01*
X122829936Y-93940334D01*
X122904618Y-93699819D01*
X122937708Y-93450159D01*
X122928260Y-93198492D01*
X122876544Y-92952017D01*
X122784039Y-92717778D01*
X122653390Y-92502474D01*
X122488331Y-92312261D01*
X122293584Y-92152578D01*
X122219939Y-92110657D01*
X122383240Y-92000716D01*
X122565466Y-91826881D01*
X122715797Y-91624828D01*
X122829936Y-91400334D01*
X122855405Y-91318310D01*
X148493847Y-91318310D01*
X148509494Y-91567013D01*
X148568934Y-91809014D01*
X148670291Y-92036664D01*
X148810360Y-92242768D01*
X148984711Y-92420811D01*
X149187837Y-92565164D01*
X149413315Y-92671266D01*
X149654019Y-92735762D01*
X149902339Y-92756615D01*
X150150428Y-92733164D01*
X150390442Y-92666150D01*
X150614796Y-92557693D01*
X150816399Y-92411221D01*
X150988878Y-92231362D01*
X151126780Y-92023802D01*
X151165119Y-91935206D01*
X151210291Y-92036664D01*
X151350360Y-92242768D01*
X151524711Y-92420811D01*
X151727837Y-92565164D01*
X151953315Y-92671266D01*
X152194019Y-92735762D01*
X152442339Y-92756615D01*
X152690428Y-92733164D01*
X152930442Y-92666150D01*
X153154796Y-92557693D01*
X153356399Y-92411221D01*
X153528878Y-92231362D01*
X153666780Y-92023802D01*
X153705119Y-91935206D01*
X153750291Y-92036664D01*
X153890360Y-92242768D01*
X154064711Y-92420811D01*
X154267837Y-92565164D01*
X154493315Y-92671266D01*
X154734019Y-92735762D01*
X154982339Y-92756615D01*
X155230428Y-92733164D01*
X155470442Y-92666150D01*
X155694796Y-92557693D01*
X155868620Y-92431403D01*
X156619616Y-92431403D01*
X156807837Y-92565164D01*
X157033315Y-92671266D01*
X157274019Y-92735762D01*
X157522339Y-92756615D01*
X157770428Y-92733164D01*
X158010442Y-92666150D01*
X158234796Y-92557693D01*
X158409643Y-92430662D01*
X157515000Y-91536019D01*
X156619616Y-92431403D01*
X155868620Y-92431403D01*
X155896399Y-92411221D01*
X156068878Y-92231362D01*
X156206780Y-92023802D01*
X156245119Y-91935206D01*
X156290291Y-92036664D01*
X156436773Y-92252208D01*
X157333981Y-91355000D01*
X157696019Y-91355000D01*
X158594309Y-92253290D01*
X158746780Y-92023802D01*
X158785119Y-91935206D01*
X158830291Y-92036664D01*
X158970360Y-92242768D01*
X159144711Y-92420811D01*
X159347837Y-92565164D01*
X159573315Y-92671266D01*
X159814019Y-92735762D01*
X160062339Y-92756615D01*
X160310428Y-92733164D01*
X160550442Y-92666150D01*
X160774796Y-92557693D01*
X160976399Y-92411221D01*
X161148878Y-92231362D01*
X161286780Y-92023802D01*
X161385747Y-91795102D01*
X161443031Y-91550872D01*
X161451380Y-91232041D01*
X161406956Y-90985147D01*
X161320094Y-90751581D01*
X161193244Y-90537089D01*
X161030414Y-90348449D01*
X160836754Y-90191627D01*
X160618384Y-90071576D01*
X160382205Y-89992093D01*
X160135684Y-89955690D01*
X159886612Y-89963517D01*
X159642863Y-90015328D01*
X159412141Y-90109484D01*
X159201739Y-90243009D01*
X159018308Y-90411683D01*
X158867645Y-90610173D01*
X158786634Y-90769167D01*
X158780094Y-90751581D01*
X158601472Y-90449547D01*
X157696019Y-91355000D01*
X157333981Y-91355000D01*
X156440487Y-90461506D01*
X156327645Y-90610175D01*
X156246634Y-90769167D01*
X156240094Y-90751581D01*
X156113244Y-90537089D01*
X155950414Y-90348449D01*
X155857463Y-90273179D01*
X156614198Y-90273179D01*
X157515000Y-91173981D01*
X158426194Y-90262786D01*
X158078384Y-90071576D01*
X157842205Y-89992093D01*
X157595684Y-89955690D01*
X157346612Y-89963517D01*
X157102863Y-90015328D01*
X156872142Y-90109484D01*
X156614198Y-90273179D01*
X155857463Y-90273179D01*
X155756754Y-90191627D01*
X155538384Y-90071576D01*
X155302205Y-89992093D01*
X155055684Y-89955690D01*
X154806612Y-89963517D01*
X154562863Y-90015328D01*
X154332141Y-90109484D01*
X154121739Y-90243009D01*
X153938308Y-90411683D01*
X153787645Y-90610173D01*
X153706634Y-90769167D01*
X153700094Y-90751581D01*
X153573244Y-90537089D01*
X153410414Y-90348449D01*
X153216754Y-90191627D01*
X152998384Y-90071576D01*
X152762205Y-89992093D01*
X152515684Y-89955690D01*
X152266612Y-89963517D01*
X152022863Y-90015328D01*
X151792141Y-90109484D01*
X151581739Y-90243009D01*
X151398308Y-90411683D01*
X151247645Y-90610173D01*
X151166634Y-90769167D01*
X151160094Y-90751581D01*
X151033244Y-90537089D01*
X150870414Y-90348449D01*
X150676754Y-90191627D01*
X150458384Y-90071576D01*
X150222205Y-89992093D01*
X149975684Y-89955690D01*
X149726612Y-89963517D01*
X149482863Y-90015328D01*
X149252141Y-90109484D01*
X149041739Y-90243009D01*
X148858308Y-90411683D01*
X148707645Y-90610173D01*
X148594513Y-90832208D01*
X148522489Y-91070766D01*
X148493847Y-91318310D01*
X122855405Y-91318310D01*
X122904618Y-91159819D01*
X122937708Y-90910159D01*
X122928260Y-90658492D01*
X122876544Y-90412017D01*
X122784039Y-90177778D01*
X122653390Y-89962474D01*
X122488331Y-89772261D01*
X122293584Y-89612578D01*
X122219939Y-89570657D01*
X122383240Y-89460716D01*
X122565466Y-89286881D01*
X122715797Y-89084828D01*
X122829936Y-88860334D01*
X122904618Y-88619819D01*
X122937708Y-88370159D01*
X122928260Y-88118492D01*
X122876544Y-87872017D01*
X122784039Y-87637778D01*
X122653390Y-87422474D01*
X122488331Y-87232261D01*
X122293584Y-87072578D01*
X122219939Y-87030657D01*
X122383240Y-86920716D01*
X122516073Y-86794000D01*
X122697236Y-86794000D01*
X122765000Y-86802921D01*
X122832764Y-86794000D01*
X122832771Y-86794000D01*
X123034929Y-86767386D01*
X123286461Y-86663197D01*
X123502457Y-86497457D01*
X123544073Y-86443222D01*
X124876562Y-85110734D01*
X124988267Y-85070518D01*
X125216879Y-84918628D01*
X125402661Y-84716592D01*
X125534888Y-84476072D01*
X125606099Y-84210308D01*
X125609209Y-83913416D01*
X125543579Y-83646218D01*
X125416417Y-83402981D01*
X125234907Y-83197098D01*
X125009526Y-83040455D01*
X124753286Y-82942094D01*
X124480981Y-82907694D01*
X124208330Y-82939241D01*
X123951075Y-83034912D01*
X123724065Y-83189187D01*
X123540409Y-83393159D01*
X123410709Y-83635050D01*
X123404855Y-83657849D01*
X122423556Y-84639148D01*
X122293584Y-84532578D01*
X122219939Y-84490657D01*
X122383240Y-84380716D01*
X122565466Y-84206881D01*
X122715797Y-84004828D01*
X122829936Y-83780334D01*
X122904618Y-83539819D01*
X122937708Y-83290159D01*
X122928260Y-83038492D01*
X122876544Y-82792017D01*
X122784039Y-82557778D01*
X122653390Y-82342474D01*
X122488331Y-82152261D01*
X122293584Y-81992578D01*
X122219939Y-81950657D01*
X122383240Y-81840716D01*
X122565466Y-81666881D01*
X122715797Y-81464828D01*
X122829936Y-81240334D01*
X122904618Y-80999819D01*
X122937708Y-80750159D01*
X122928260Y-80498492D01*
X122876544Y-80252017D01*
X122784039Y-80017778D01*
X122653390Y-79802474D01*
X122488331Y-79612261D01*
X122293584Y-79452578D01*
X122219939Y-79410657D01*
X122383240Y-79300716D01*
X122565466Y-79126881D01*
X122715797Y-78924828D01*
X122829936Y-78700334D01*
X122904618Y-78459819D01*
X122937708Y-78210159D01*
X122928260Y-77958492D01*
X122876544Y-77712016D01*
X122865480Y-77684001D01*
X143151049Y-77684001D01*
X143354931Y-77828893D01*
X143610126Y-77929932D01*
X143882058Y-77967182D01*
X144155024Y-77938491D01*
X144413267Y-77845518D01*
X144641879Y-77693628D01*
X144827661Y-77491592D01*
X144959888Y-77251072D01*
X145031099Y-76985308D01*
X145034209Y-76688416D01*
X144968579Y-76421218D01*
X144841417Y-76177981D01*
X144659907Y-75972098D01*
X144434526Y-75815455D01*
X144178286Y-75717094D01*
X143905981Y-75682694D01*
X143633330Y-75714241D01*
X143376075Y-75809912D01*
X143149065Y-75964187D01*
X143102412Y-76016001D01*
X131966837Y-76016001D01*
X131966837Y-75728000D01*
X128983163Y-75728000D01*
X128983163Y-76016001D01*
X122874753Y-76016001D01*
X122904618Y-75919819D01*
X122930043Y-75728000D01*
X121322000Y-75728000D01*
X121322000Y-75472000D01*
X122939487Y-75472000D01*
X122876544Y-75172017D01*
X122784039Y-74937778D01*
X122653390Y-74722474D01*
X122488331Y-74532261D01*
X122293584Y-74372578D01*
X122219939Y-74330657D01*
X122383240Y-74220716D01*
X122565466Y-74046881D01*
X122715797Y-73844828D01*
X122829936Y-73620334D01*
X122904618Y-73379819D01*
X122937708Y-73130159D01*
X122931238Y-72957824D01*
X123182058Y-72992182D01*
X123341933Y-72975378D01*
X123339576Y-73200352D01*
X123402252Y-73467570D01*
X123526858Y-73712124D01*
X123706203Y-73919897D01*
X123929931Y-74078893D01*
X124185126Y-74179932D01*
X124457058Y-74217182D01*
X124730024Y-74188491D01*
X124988268Y-74095518D01*
X124990553Y-74094000D01*
X129407391Y-74094000D01*
X129436669Y-74127739D01*
X129460975Y-74147669D01*
X129307489Y-74188795D01*
X129131835Y-74336185D01*
X129020044Y-74529814D01*
X128983163Y-74738976D01*
X128983163Y-75472000D01*
X131966837Y-75472000D01*
X131966837Y-74733412D01*
X131886205Y-74432489D01*
X131738815Y-74256835D01*
X131545186Y-74145044D01*
X131496554Y-74136469D01*
X131590466Y-74046881D01*
X131740797Y-73844828D01*
X131854936Y-73620334D01*
X131929618Y-73379819D01*
X131962708Y-73130159D01*
X131953260Y-72878492D01*
X131901544Y-72632016D01*
X131890480Y-72604001D01*
X136124548Y-72604001D01*
X137994205Y-74473658D01*
X138008354Y-74496083D01*
X138079192Y-74558645D01*
X138102566Y-74582020D01*
X138122993Y-74597329D01*
X138187411Y-74654221D01*
X138218178Y-74668667D01*
X138245380Y-74689053D01*
X138325850Y-74719219D01*
X138404013Y-74755917D01*
X138436825Y-74760821D01*
X138469071Y-74772909D01*
X138565826Y-74780100D01*
X138591926Y-74784000D01*
X138618317Y-74784000D01*
X138707307Y-74790614D01*
X138738291Y-74784000D01*
X149046797Y-74784000D01*
X149056203Y-74794897D01*
X149279931Y-74953893D01*
X149535126Y-75054932D01*
X149807058Y-75092182D01*
X150080024Y-75063491D01*
X150338267Y-74970518D01*
X150566879Y-74818628D01*
X150752661Y-74616592D01*
X150884888Y-74376072D01*
X150956099Y-74110308D01*
X150959209Y-73813416D01*
X150893579Y-73546218D01*
X150861052Y-73484000D01*
X154330972Y-73484000D01*
X154510126Y-73554932D01*
X154782058Y-73592182D01*
X155055024Y-73563491D01*
X155275820Y-73484000D01*
X172106708Y-73484000D01*
X172143045Y-73489224D01*
X172571910Y-73489224D01*
X172600000Y-73492922D01*
X172628090Y-73489224D01*
X173061490Y-73489224D01*
X173394078Y-73416873D01*
X173599713Y-73284720D01*
X173756764Y-73103474D01*
X173856389Y-72885324D01*
X173889224Y-72656955D01*
X173889224Y-72238510D01*
X173816873Y-71905922D01*
X173722220Y-71758638D01*
X173750402Y-71719848D01*
X173838809Y-71521283D01*
X173883999Y-71308678D01*
X173883999Y-71091322D01*
X173838809Y-70878716D01*
X173750402Y-70680153D01*
X173674005Y-70575000D01*
X173750402Y-70469848D01*
X173838809Y-70271284D01*
X173879894Y-70078000D01*
X171320106Y-70078000D01*
X171361191Y-70271284D01*
X171449598Y-70469847D01*
X171525995Y-70575000D01*
X171449598Y-70680152D01*
X171361191Y-70878717D01*
X171316001Y-71091322D01*
X171316001Y-71308678D01*
X171338813Y-71416000D01*
X155270818Y-71416000D01*
X155078286Y-71342094D01*
X154805981Y-71307694D01*
X154533330Y-71339241D01*
X154326928Y-71416000D01*
X140138297Y-71416000D01*
X139239564Y-70517268D01*
X139239561Y-70517264D01*
X134564076Y-65841781D01*
X134522457Y-65787543D01*
X134306461Y-65621803D01*
X134054929Y-65517614D01*
X133852771Y-65491000D01*
X133852764Y-65491000D01*
X133785000Y-65482079D01*
X133717237Y-65491000D01*
X124772633Y-65491000D01*
X124585779Y-65331975D01*
X124310681Y-65185702D01*
X124010590Y-65101916D01*
X123802581Y-65090286D01*
X123546294Y-64833999D01*
X127133226Y-61247068D01*
X127187457Y-61205456D01*
X127234097Y-61144673D01*
X127353197Y-60989460D01*
X127398536Y-60880001D01*
X127457386Y-60737926D01*
X127484000Y-60535769D01*
X127484000Y-60535762D01*
X127492921Y-60467998D01*
X127484000Y-60400235D01*
X127484000Y-58471571D01*
X127490123Y-58529827D01*
X127588469Y-58825466D01*
X127748006Y-59093090D01*
X127961289Y-59320213D01*
X128218367Y-59496240D01*
X128507249Y-59612955D01*
X128720267Y-59648984D01*
X136045331Y-66974048D01*
X136110637Y-67048910D01*
X136198611Y-67110740D01*
X136283246Y-67177101D01*
X136310624Y-67189463D01*
X136335195Y-67206732D01*
X136435378Y-67245792D01*
X136533397Y-67290049D01*
X136562932Y-67295524D01*
X136591229Y-67306555D01*
X136689309Y-67318946D01*
X136803273Y-67340068D01*
X136908502Y-67334000D01*
X149118965Y-67334000D01*
X149041739Y-67383009D01*
X148858308Y-67551683D01*
X148707645Y-67750173D01*
X148594513Y-67972208D01*
X148522489Y-68210766D01*
X148493847Y-68458310D01*
X148509494Y-68707013D01*
X148568934Y-68949014D01*
X148670291Y-69176664D01*
X148810360Y-69382768D01*
X148984711Y-69560811D01*
X149187837Y-69705164D01*
X149413315Y-69811266D01*
X149654019Y-69875762D01*
X149902339Y-69896615D01*
X150150428Y-69873164D01*
X150390442Y-69806150D01*
X150614796Y-69697693D01*
X150816399Y-69551221D01*
X150988878Y-69371362D01*
X151126780Y-69163802D01*
X151165119Y-69075206D01*
X151210291Y-69176664D01*
X151350360Y-69382768D01*
X151524711Y-69560811D01*
X151727837Y-69705164D01*
X151953315Y-69811266D01*
X152194019Y-69875762D01*
X152442339Y-69896615D01*
X152690428Y-69873164D01*
X152930442Y-69806150D01*
X153154796Y-69697693D01*
X153356399Y-69551221D01*
X153528878Y-69371362D01*
X153666780Y-69163802D01*
X153705119Y-69075206D01*
X153750291Y-69176664D01*
X153890360Y-69382768D01*
X154064711Y-69560811D01*
X154267837Y-69705164D01*
X154493315Y-69811266D01*
X154734019Y-69875762D01*
X154982339Y-69896615D01*
X155230428Y-69873164D01*
X155470442Y-69806150D01*
X155694796Y-69697693D01*
X155896399Y-69551221D01*
X156068878Y-69371362D01*
X156206780Y-69163802D01*
X156245119Y-69075206D01*
X156290291Y-69176664D01*
X156430360Y-69382768D01*
X156604711Y-69560811D01*
X156807837Y-69705164D01*
X157033315Y-69811266D01*
X157274019Y-69875762D01*
X157522339Y-69896615D01*
X157770428Y-69873164D01*
X158010442Y-69806150D01*
X158234796Y-69697693D01*
X158436399Y-69551221D01*
X158608878Y-69371362D01*
X158746780Y-69163802D01*
X158785119Y-69075206D01*
X158830291Y-69176664D01*
X158970360Y-69382768D01*
X159144711Y-69560811D01*
X159347837Y-69705164D01*
X159573315Y-69811266D01*
X159814019Y-69875762D01*
X160062339Y-69896615D01*
X160310428Y-69873164D01*
X160493674Y-69822000D01*
X171320106Y-69822000D01*
X173879894Y-69822000D01*
X173838809Y-69628716D01*
X173750402Y-69430153D01*
X173674005Y-69325000D01*
X173750402Y-69219848D01*
X173838809Y-69021284D01*
X173879894Y-68828000D01*
X171320106Y-68828000D01*
X171361191Y-69021284D01*
X171449598Y-69219847D01*
X171525995Y-69325000D01*
X171449598Y-69430152D01*
X171361191Y-69628716D01*
X171320106Y-69822000D01*
X160493674Y-69822000D01*
X160550442Y-69806150D01*
X160774796Y-69697693D01*
X160976399Y-69551221D01*
X161148878Y-69371362D01*
X161286780Y-69163802D01*
X161385747Y-68935102D01*
X161410867Y-68828000D01*
X161443031Y-68690872D01*
X161451380Y-68372041D01*
X161406956Y-68125147D01*
X161320094Y-67891581D01*
X161193244Y-67677089D01*
X161030414Y-67488449D01*
X160839684Y-67334000D01*
X171317557Y-67334000D01*
X171316001Y-67341322D01*
X171316001Y-67558678D01*
X171361191Y-67771284D01*
X171449598Y-67969847D01*
X171525995Y-68075000D01*
X171449598Y-68180152D01*
X171361191Y-68378716D01*
X171320106Y-68572000D01*
X173879894Y-68572000D01*
X173838809Y-68378716D01*
X173750402Y-68180153D01*
X173674005Y-68075000D01*
X173750402Y-67969848D01*
X173838809Y-67771283D01*
X173883999Y-67558678D01*
X173883999Y-67341322D01*
X173838809Y-67128716D01*
X173750402Y-66930153D01*
X173674005Y-66825000D01*
X173750402Y-66719848D01*
X173838809Y-66521283D01*
X173883999Y-66308678D01*
X173883999Y-66091322D01*
X173838809Y-65878716D01*
X173750402Y-65680153D01*
X173622644Y-65504308D01*
X173461118Y-65358869D01*
X173272882Y-65250191D01*
X173176017Y-65218718D01*
X173139805Y-65193268D01*
X172883772Y-65093445D01*
X172666527Y-65066000D01*
X137344717Y-65066000D01*
X134804069Y-62525352D01*
X137364576Y-62525352D01*
X137427252Y-62792570D01*
X137551858Y-63037124D01*
X137731203Y-63244897D01*
X137954931Y-63403893D01*
X138210126Y-63504932D01*
X138482058Y-63542182D01*
X138755024Y-63513491D01*
X139013267Y-63420518D01*
X139241879Y-63268628D01*
X139270631Y-63237360D01*
X140693659Y-63237360D01*
X141082272Y-63543718D01*
X141410150Y-63749794D01*
X141758068Y-63919861D01*
X142122089Y-64051994D01*
X142498090Y-64144698D01*
X142881813Y-64196919D01*
X143268913Y-64208070D01*
X143655006Y-64178023D01*
X144035719Y-64107119D01*
X144406742Y-63996159D01*
X144763874Y-63846401D01*
X145103070Y-63659541D01*
X145420489Y-63437694D01*
X145650539Y-63237360D01*
X166693659Y-63237360D01*
X167082272Y-63543718D01*
X167410150Y-63749794D01*
X167758068Y-63919861D01*
X168122089Y-64051994D01*
X168498090Y-64144698D01*
X168881813Y-64196919D01*
X169268913Y-64208070D01*
X169655006Y-64178023D01*
X170035719Y-64107119D01*
X170406742Y-63996159D01*
X170763874Y-63846401D01*
X171103070Y-63659541D01*
X171420489Y-63437694D01*
X171658986Y-63230005D01*
X169180000Y-60751019D01*
X166693659Y-63237360D01*
X145650539Y-63237360D01*
X145658986Y-63230005D01*
X143180000Y-60751019D01*
X140693659Y-63237360D01*
X139270631Y-63237360D01*
X139427661Y-63066592D01*
X139559888Y-62826072D01*
X139631099Y-62560308D01*
X139634209Y-62263416D01*
X139568579Y-61996218D01*
X139441417Y-61752981D01*
X139359000Y-61659497D01*
X139359000Y-60563649D01*
X139540848Y-60563649D01*
X139560778Y-60950395D01*
X139621694Y-61332834D01*
X139722903Y-61706636D01*
X139863260Y-62067565D01*
X140041177Y-62411536D01*
X140254639Y-62734653D01*
X140516830Y-63052151D01*
X142998981Y-60570000D01*
X143361019Y-60570000D01*
X145838548Y-63047529D01*
X145975904Y-62899460D01*
X146207612Y-62589166D01*
X146405034Y-62256007D01*
X146565935Y-61903756D01*
X146688494Y-61536401D01*
X146771322Y-61158102D01*
X146813488Y-60773089D01*
X146813854Y-60563649D01*
X165540848Y-60563649D01*
X165560778Y-60950395D01*
X165621694Y-61332834D01*
X165722903Y-61706636D01*
X165863260Y-62067565D01*
X166041177Y-62411536D01*
X166254639Y-62734653D01*
X166516830Y-63052151D01*
X168998981Y-60570000D01*
X169361019Y-60570000D01*
X171838548Y-63047529D01*
X171975904Y-62899460D01*
X172207612Y-62589166D01*
X172405034Y-62256007D01*
X172565935Y-61903756D01*
X172688494Y-61536401D01*
X172771322Y-61158102D01*
X172813488Y-60773089D01*
X172814176Y-60379596D01*
X172773354Y-59994438D01*
X172691847Y-59615852D01*
X172570571Y-59248071D01*
X172410899Y-58895261D01*
X172214642Y-58561415D01*
X171984018Y-58250315D01*
X171838586Y-58092433D01*
X169361019Y-60570000D01*
X168998981Y-60570000D01*
X166517355Y-58088374D01*
X166262213Y-58395148D01*
X166047625Y-58717519D01*
X165868508Y-59060866D01*
X165726891Y-59421304D01*
X165624378Y-59794749D01*
X165562129Y-60176974D01*
X165540848Y-60563649D01*
X146813854Y-60563649D01*
X146814176Y-60379596D01*
X146773354Y-59994438D01*
X146691847Y-59615852D01*
X146570571Y-59248071D01*
X146410899Y-58895261D01*
X146214642Y-58561415D01*
X145984018Y-58250315D01*
X145838586Y-58092433D01*
X143361019Y-60570000D01*
X142998981Y-60570000D01*
X140517355Y-58088374D01*
X140262213Y-58395148D01*
X140047625Y-58717519D01*
X139868508Y-59060866D01*
X139726891Y-59421304D01*
X139624378Y-59794749D01*
X139562129Y-60176974D01*
X139540848Y-60563649D01*
X139359000Y-60563649D01*
X139359000Y-58818447D01*
X139452661Y-58716592D01*
X139584888Y-58476072D01*
X139656099Y-58210308D01*
X139657284Y-58097170D01*
X139750455Y-58003999D01*
X140795018Y-58003999D01*
X143180000Y-60388981D01*
X145564982Y-58003999D01*
X155549547Y-58003999D01*
X155640419Y-58094871D01*
X155639576Y-58175352D01*
X155702252Y-58442570D01*
X155826858Y-58687124D01*
X156006203Y-58894897D01*
X156229931Y-59053893D01*
X156485126Y-59154932D01*
X156757058Y-59192182D01*
X157030024Y-59163491D01*
X157288267Y-59070518D01*
X157516879Y-58918628D01*
X157702661Y-58716592D01*
X157834888Y-58476072D01*
X157906099Y-58210308D01*
X157909209Y-57913416D01*
X157906375Y-57901875D01*
X166692894Y-57901875D01*
X169180000Y-60388981D01*
X171658698Y-57910282D01*
X171430485Y-57710144D01*
X171113843Y-57487190D01*
X170775301Y-57299147D01*
X170418695Y-57148144D01*
X170048061Y-57035890D01*
X169667597Y-56963657D01*
X169281611Y-56932262D01*
X168894475Y-56942061D01*
X168510572Y-56992944D01*
X168134250Y-57084334D01*
X167769770Y-57215195D01*
X167421260Y-57384047D01*
X167092666Y-57588977D01*
X166692894Y-57901875D01*
X157906375Y-57901875D01*
X157843579Y-57646218D01*
X157716417Y-57402981D01*
X157534907Y-57197098D01*
X157309526Y-57040455D01*
X157053286Y-56942094D01*
X156816653Y-56912200D01*
X156550794Y-56646341D01*
X156536643Y-56623915D01*
X156465799Y-56561347D01*
X156442433Y-56537980D01*
X156422015Y-56522677D01*
X156357587Y-56465777D01*
X156326816Y-56451330D01*
X156299618Y-56430946D01*
X156219157Y-56400784D01*
X156140986Y-56364082D01*
X156108173Y-56359178D01*
X156075926Y-56347090D01*
X155979174Y-56339900D01*
X155953076Y-56335999D01*
X155926682Y-56335999D01*
X155837692Y-56329385D01*
X155806708Y-56335999D01*
X139498429Y-56335999D01*
X139472574Y-56330148D01*
X139378269Y-56335999D01*
X139345190Y-56335999D01*
X139319913Y-56339619D01*
X139234139Y-56344940D01*
X139202172Y-56356480D01*
X139168521Y-56361300D01*
X139090283Y-56396873D01*
X139009070Y-56426191D01*
X138982406Y-56445922D01*
X138951052Y-56460178D01*
X138877545Y-56523515D01*
X138856338Y-56539208D01*
X138837695Y-56557852D01*
X138770075Y-56616117D01*
X138752839Y-56642708D01*
X138482210Y-56913337D01*
X138258330Y-56939241D01*
X138001075Y-57034912D01*
X137774065Y-57189187D01*
X137590409Y-57393159D01*
X137460708Y-57635051D01*
X137392451Y-57900897D01*
X137389576Y-58175352D01*
X137452252Y-58442570D01*
X137576858Y-58687125D01*
X137691000Y-58819359D01*
X137691001Y-61603675D01*
X137565409Y-61743159D01*
X137435708Y-61985051D01*
X137367451Y-62250897D01*
X137364576Y-62525352D01*
X134804069Y-62525352D01*
X130330094Y-58051378D01*
X130267111Y-57764916D01*
X130136423Y-57482081D01*
X129948050Y-57233909D01*
X129710779Y-57031975D01*
X129435681Y-56885702D01*
X129135590Y-56801916D01*
X128824508Y-56784523D01*
X128516948Y-56834337D01*
X128227260Y-56949033D01*
X127968958Y-57123259D01*
X127754094Y-57348888D01*
X127592693Y-57615393D01*
X127492286Y-57910338D01*
X127484000Y-57984207D01*
X127484000Y-53009000D01*
X131731853Y-53009000D01*
X131836289Y-53120213D01*
X132093367Y-53296240D01*
X132382249Y-53412955D01*
X132689454Y-53464914D01*
X133000650Y-53449694D01*
X133145452Y-53410352D01*
X139949576Y-53410352D01*
X140012252Y-53677570D01*
X140136858Y-53922124D01*
X140316203Y-54129897D01*
X140539931Y-54288893D01*
X140795126Y-54389932D01*
X141067058Y-54427182D01*
X141340024Y-54398491D01*
X141598267Y-54305518D01*
X141826878Y-54153628D01*
X141858721Y-54119000D01*
X154965118Y-54119000D01*
X155154931Y-54253893D01*
X155410126Y-54354932D01*
X155682058Y-54392182D01*
X155955024Y-54363491D01*
X156213267Y-54270518D01*
X156337717Y-54187833D01*
X176353187Y-54187833D01*
X176554629Y-54369211D01*
X176877623Y-54603880D01*
X177223378Y-54803501D01*
X177588104Y-54965888D01*
X177967805Y-55089261D01*
X178358323Y-55172268D01*
X178755379Y-55214000D01*
X179154621Y-55214000D01*
X179551677Y-55172268D01*
X179942195Y-55089261D01*
X180321896Y-54965888D01*
X180686622Y-54803501D01*
X181032377Y-54603880D01*
X181355371Y-54369211D01*
X181556813Y-54187833D01*
X178955000Y-51586019D01*
X176353187Y-54187833D01*
X156337717Y-54187833D01*
X156441879Y-54118628D01*
X156627661Y-53916592D01*
X156759888Y-53676072D01*
X156831099Y-53410308D01*
X156834209Y-53113416D01*
X156768579Y-52846218D01*
X156641417Y-52602981D01*
X156459907Y-52397098D01*
X156234526Y-52240455D01*
X155978286Y-52142094D01*
X155705981Y-52107694D01*
X155433330Y-52139241D01*
X155176075Y-52234912D01*
X154949065Y-52389187D01*
X154893409Y-52451000D01*
X141861572Y-52451000D01*
X141844908Y-52432098D01*
X141619526Y-52275455D01*
X141363286Y-52177094D01*
X141090981Y-52142694D01*
X140818330Y-52174241D01*
X140561075Y-52269912D01*
X140334065Y-52424187D01*
X140150409Y-52628159D01*
X140020708Y-52870051D01*
X139952451Y-53135897D01*
X139949576Y-53410352D01*
X133145452Y-53410352D01*
X133301318Y-53368004D01*
X133577431Y-53223656D01*
X133816106Y-53023384D01*
X134006207Y-52776532D01*
X134138866Y-52494617D01*
X134207943Y-52190574D01*
X134209064Y-51869433D01*
X134142111Y-51564916D01*
X134011423Y-51282081D01*
X133953203Y-51205379D01*
X175146000Y-51205379D01*
X175146000Y-51604621D01*
X175187732Y-52001677D01*
X175270739Y-52392195D01*
X175394112Y-52771896D01*
X175556499Y-53136622D01*
X175756120Y-53482377D01*
X175990789Y-53805371D01*
X176172167Y-54006813D01*
X178773981Y-51405000D01*
X179136019Y-51405000D01*
X181737833Y-54006813D01*
X181919211Y-53805371D01*
X182153880Y-53482377D01*
X182353501Y-53136622D01*
X182515888Y-52771896D01*
X182639261Y-52392195D01*
X182722268Y-52001677D01*
X182764000Y-51604621D01*
X182764000Y-51205379D01*
X182722268Y-50808323D01*
X182639261Y-50417805D01*
X182515888Y-50038104D01*
X182353501Y-49673378D01*
X182153880Y-49327623D01*
X181919211Y-49004629D01*
X181737833Y-48803187D01*
X179136019Y-51405000D01*
X178773981Y-51405000D01*
X176172167Y-48803187D01*
X175990789Y-49004629D01*
X175756120Y-49327623D01*
X175556499Y-49673378D01*
X175394112Y-50038104D01*
X175270739Y-50417805D01*
X175187732Y-50808323D01*
X175146000Y-51205379D01*
X133953203Y-51205379D01*
X133823050Y-51033909D01*
X133585779Y-50831975D01*
X133310681Y-50685702D01*
X133010590Y-50601916D01*
X132699508Y-50584523D01*
X132391948Y-50634337D01*
X132102260Y-50749033D01*
X131843958Y-50923259D01*
X131827063Y-50941000D01*
X127245151Y-50941000D01*
X127103474Y-50818236D01*
X126885324Y-50718611D01*
X126656955Y-50685776D01*
X126238510Y-50685776D01*
X125905922Y-50758127D01*
X125758638Y-50852780D01*
X125719848Y-50824598D01*
X125521283Y-50736191D01*
X125308678Y-50691001D01*
X125091323Y-50691001D01*
X124878717Y-50736191D01*
X124680154Y-50824598D01*
X124575001Y-50900996D01*
X124469848Y-50824598D01*
X124271284Y-50736191D01*
X124078000Y-50695106D01*
X124078000Y-53254895D01*
X124271284Y-53213809D01*
X124469846Y-53125402D01*
X124575000Y-53049004D01*
X124680152Y-53125402D01*
X124878717Y-53213809D01*
X125091322Y-53258999D01*
X125308677Y-53258999D01*
X125416001Y-53236187D01*
X125416000Y-59258467D01*
X125416001Y-59258474D01*
X125416000Y-60039702D01*
X123572939Y-61882763D01*
X123688494Y-61536401D01*
X123771322Y-61158102D01*
X123813488Y-60773089D01*
X123814176Y-60379596D01*
X123773354Y-59994438D01*
X123691847Y-59615852D01*
X123570571Y-59248071D01*
X123410899Y-58895261D01*
X123214642Y-58561415D01*
X122984018Y-58250315D01*
X122838586Y-58092433D01*
X120180000Y-60751020D01*
X117517355Y-58088374D01*
X117314000Y-58332881D01*
X117314000Y-57901875D01*
X117692894Y-57901875D01*
X120180000Y-60388981D01*
X122658698Y-57910282D01*
X122430485Y-57710144D01*
X122113843Y-57487190D01*
X121775301Y-57299147D01*
X121418695Y-57148144D01*
X121048061Y-57035890D01*
X120667597Y-56963657D01*
X120281611Y-56932262D01*
X119894475Y-56942061D01*
X119510572Y-56992944D01*
X119134250Y-57084334D01*
X118769770Y-57215195D01*
X118421260Y-57384047D01*
X118092666Y-57588977D01*
X117692894Y-57901875D01*
X117314000Y-57901875D01*
X117314000Y-56840256D01*
X117506317Y-56788005D01*
X117782430Y-56643657D01*
X118021105Y-56443385D01*
X118211206Y-56196533D01*
X118343865Y-55914618D01*
X118411412Y-55617305D01*
X120914608Y-53114109D01*
X120930152Y-53125402D01*
X121128717Y-53213809D01*
X121341322Y-53258999D01*
X121558677Y-53258999D01*
X121771283Y-53213809D01*
X121969846Y-53125402D01*
X122075000Y-53049004D01*
X122180152Y-53125402D01*
X122378716Y-53213809D01*
X122572000Y-53254894D01*
X122572000Y-50695106D01*
X122828000Y-50695106D01*
X122828000Y-53254895D01*
X123021284Y-53213809D01*
X123219846Y-53125402D01*
X123325000Y-53049004D01*
X123430152Y-53125402D01*
X123628716Y-53213809D01*
X123822000Y-53254894D01*
X123822000Y-50695105D01*
X123628716Y-50736191D01*
X123430154Y-50824598D01*
X123325001Y-50900996D01*
X123219848Y-50824598D01*
X123021284Y-50736191D01*
X122828000Y-50695106D01*
X122572000Y-50695106D01*
X122572000Y-50695105D01*
X122378716Y-50736191D01*
X122180154Y-50824598D01*
X122075001Y-50900996D01*
X121969848Y-50824598D01*
X121771283Y-50736191D01*
X121558678Y-50691001D01*
X121341323Y-50691001D01*
X121128717Y-50736191D01*
X120930154Y-50824598D01*
X120825001Y-50900996D01*
X120719848Y-50824598D01*
X120521283Y-50736191D01*
X120308678Y-50691001D01*
X120091323Y-50691001D01*
X119878717Y-50736191D01*
X119680154Y-50824598D01*
X119504309Y-50952356D01*
X119358871Y-51113882D01*
X119250191Y-51302117D01*
X119183025Y-51508835D01*
X119167824Y-51653458D01*
X116799801Y-54021483D01*
X116596947Y-54054338D01*
X116307259Y-54169034D01*
X116048957Y-54343260D01*
X115834093Y-54568889D01*
X115672692Y-54835394D01*
X115572285Y-55130339D01*
X115557293Y-55263991D01*
X115405953Y-55415331D01*
X115331091Y-55480637D01*
X115269264Y-55568607D01*
X115202899Y-55653246D01*
X115190537Y-55680624D01*
X115173268Y-55705196D01*
X115134209Y-55805377D01*
X115089950Y-55903400D01*
X115084477Y-55932936D01*
X115073446Y-55961228D01*
X115061058Y-56059291D01*
X115039932Y-56173274D01*
X115046001Y-56278520D01*
X115046000Y-62670692D01*
X115039245Y-62769784D01*
X115057731Y-62875704D01*
X115070651Y-62982481D01*
X115081271Y-63010586D01*
X115086434Y-63040166D01*
X115129651Y-63138621D01*
X115167670Y-63239232D01*
X115184683Y-63263987D01*
X115196890Y-63291795D01*
X115257481Y-63369909D01*
X115323132Y-63465431D01*
X115401851Y-63535568D01*
X115982283Y-64116000D01*
X111974000Y-64116000D01*
X111974000Y-62461969D01*
X112105797Y-62284828D01*
X112219936Y-62060334D01*
X112294618Y-61819819D01*
X112327708Y-61570159D01*
X112318260Y-61318492D01*
X112266544Y-61072017D01*
X112174039Y-60837778D01*
X112043390Y-60622473D01*
X111974000Y-60542510D01*
X111974000Y-59709317D01*
X111980756Y-59610215D01*
X111962268Y-59504283D01*
X111949349Y-59397517D01*
X111938729Y-59369413D01*
X111933566Y-59339833D01*
X111890349Y-59241379D01*
X111852330Y-59140765D01*
X111835317Y-59116013D01*
X111823110Y-59088204D01*
X111762523Y-59010097D01*
X111696869Y-58914569D01*
X111618157Y-58844439D01*
X107634000Y-54860284D01*
X107634000Y-54504066D01*
X107766405Y-54365514D01*
X107916893Y-54144907D01*
X108029329Y-53902683D01*
X108100901Y-53644602D01*
X108124000Y-53400243D01*
X108124000Y-52478000D01*
X109868163Y-52478000D01*
X109868163Y-54346588D01*
X109948795Y-54647512D01*
X110096185Y-54823165D01*
X110289814Y-54934956D01*
X110498976Y-54971837D01*
X111372000Y-54971837D01*
X111372000Y-52478000D01*
X111628000Y-52478000D01*
X111628000Y-54971837D01*
X112506588Y-54971837D01*
X112807512Y-54891205D01*
X112983165Y-54743815D01*
X113094956Y-54550186D01*
X113131837Y-54341024D01*
X113131837Y-52478000D01*
X111628000Y-52478000D01*
X111372000Y-52478000D01*
X109868163Y-52478000D01*
X108124000Y-52478000D01*
X108124000Y-51292396D01*
X108107677Y-51093851D01*
X108042620Y-50834850D01*
X107936135Y-50589951D01*
X107791082Y-50365733D01*
X107784934Y-50358976D01*
X109868163Y-50358976D01*
X109868163Y-52222000D01*
X111372000Y-52222000D01*
X111372000Y-49728163D01*
X111628000Y-49728163D01*
X111628000Y-52222000D01*
X113131837Y-52222000D01*
X113131837Y-50353412D01*
X113051205Y-50052489D01*
X112903815Y-49876835D01*
X112710186Y-49765044D01*
X112501024Y-49728163D01*
X111628000Y-49728163D01*
X111372000Y-49728163D01*
X110493412Y-49728163D01*
X110192489Y-49808795D01*
X110016835Y-49956185D01*
X109905044Y-50149814D01*
X109868163Y-50358976D01*
X107784934Y-50358976D01*
X107611356Y-50168216D01*
X107401784Y-50002707D01*
X107167994Y-49873647D01*
X106916264Y-49784505D01*
X106653355Y-49737674D01*
X106386329Y-49734412D01*
X106122354Y-49774805D01*
X105868522Y-49857770D01*
X105631648Y-49981079D01*
X105418095Y-50141420D01*
X105233596Y-50334486D01*
X105083108Y-50555093D01*
X104970672Y-50797317D01*
X104899100Y-51055398D01*
X104876001Y-51299757D01*
X104876000Y-53407603D01*
X104892323Y-53606148D01*
X104957380Y-53865149D01*
X105063865Y-54110048D01*
X105208918Y-54334266D01*
X105366001Y-54506898D01*
X105366001Y-55290678D01*
X105359245Y-55389784D01*
X105377731Y-55495704D01*
X105390652Y-55602483D01*
X105401271Y-55630583D01*
X105406433Y-55660165D01*
X105449653Y-55758625D01*
X105487671Y-55859234D01*
X105504684Y-55883987D01*
X105516891Y-55911795D01*
X105577475Y-55989901D01*
X105643133Y-56085432D01*
X105721844Y-56155561D01*
X109706000Y-60139717D01*
X109706000Y-60326286D01*
X109563815Y-60156835D01*
X109370186Y-60045044D01*
X109161024Y-60008163D01*
X107433412Y-60008163D01*
X107132489Y-60088795D01*
X106961622Y-60232168D01*
X106570794Y-59841341D01*
X106556645Y-59818916D01*
X106485798Y-59756346D01*
X106462433Y-59732980D01*
X106442015Y-59717677D01*
X106377587Y-59660777D01*
X106346816Y-59646330D01*
X106319618Y-59625946D01*
X106239157Y-59595784D01*
X106160986Y-59559082D01*
X106128173Y-59554178D01*
X106095926Y-59542090D01*
X105999174Y-59534900D01*
X105973076Y-59530999D01*
X105946682Y-59530999D01*
X105857692Y-59524385D01*
X105826708Y-59530999D01*
X102166862Y-59530999D01*
X102215429Y-59397564D01*
X102259000Y-59150459D01*
X102259000Y-58899541D01*
X102215429Y-58652436D01*
X102129609Y-58416651D01*
X102004150Y-58199349D01*
X101842864Y-58007136D01*
X101650651Y-57845850D01*
X101433349Y-57720391D01*
X101197564Y-57634571D01*
X100950459Y-57591000D01*
X100699541Y-57591000D01*
X100452436Y-57634571D01*
X100216651Y-57720391D01*
X99999349Y-57845850D01*
X99807136Y-58007136D01*
X99645850Y-58199349D01*
X99555000Y-58356706D01*
X99464150Y-58199349D01*
X99302864Y-58007136D01*
X99110651Y-57845850D01*
X98893349Y-57720391D01*
X98657564Y-57634571D01*
X98410459Y-57591000D01*
X98159541Y-57591000D01*
X97912436Y-57634571D01*
X97676651Y-57720391D01*
X97459349Y-57845850D01*
X97267136Y-58007136D01*
X97105850Y-58199349D01*
X97015000Y-58356706D01*
X96924150Y-58199349D01*
X96762864Y-58007136D01*
X96570651Y-57845850D01*
X96353349Y-57720391D01*
X96117564Y-57634571D01*
X95870459Y-57591000D01*
X95619541Y-57591000D01*
X95372436Y-57634571D01*
X95136651Y-57720391D01*
X94919349Y-57845850D01*
X94727136Y-58007136D01*
X94565850Y-58199349D01*
X94475000Y-58356706D01*
X94384150Y-58199349D01*
X94222864Y-58007136D01*
X94030651Y-57845850D01*
X93813349Y-57720391D01*
X93797898Y-57714767D01*
X93821677Y-57712268D01*
X94212195Y-57629261D01*
X94591896Y-57505888D01*
X94956622Y-57343501D01*
X95302377Y-57143880D01*
X95625371Y-56909211D01*
X95826813Y-56727833D01*
X93225000Y-54126019D01*
X90623187Y-56727833D01*
X90824629Y-56909211D01*
X91147623Y-57143880D01*
X91493378Y-57343501D01*
X91858104Y-57505888D01*
X92237805Y-57629261D01*
X92622417Y-57711013D01*
X92596651Y-57720391D01*
X92379349Y-57845850D01*
X92187136Y-58007136D01*
X92025850Y-58199349D01*
X91900391Y-58416651D01*
X91814571Y-58652436D01*
X91771000Y-58899541D01*
X91771000Y-59150459D01*
X91814571Y-59397564D01*
X91900391Y-59633349D01*
X92025850Y-59850651D01*
X92187136Y-60042864D01*
X92379349Y-60204150D01*
X92536706Y-60295000D01*
X92379349Y-60385850D01*
X92187136Y-60547136D01*
X92025850Y-60739349D01*
X91900391Y-60956651D01*
X91814571Y-61192436D01*
X91771000Y-61439541D01*
X91771000Y-61690459D01*
X91814571Y-61937564D01*
X91900391Y-62173349D01*
X92025850Y-62390651D01*
X92187136Y-62582864D01*
X92379349Y-62744150D01*
X92536706Y-62835000D01*
X92379349Y-62925850D01*
X92187136Y-63087136D01*
X92025850Y-63279349D01*
X91900391Y-63496651D01*
X91814571Y-63732436D01*
X91771000Y-63979541D01*
X91771000Y-64230459D01*
X91814571Y-64477564D01*
X91900391Y-64713349D01*
X92025850Y-64930651D01*
X92187136Y-65122864D01*
X92379349Y-65284150D01*
X92536706Y-65375000D01*
X92379349Y-65465850D01*
X92187136Y-65627136D01*
X92025850Y-65819349D01*
X91900391Y-66036651D01*
X91814571Y-66272436D01*
X91771000Y-66519541D01*
X91771000Y-66770459D01*
X91814571Y-67017564D01*
X91900391Y-67253349D01*
X92025850Y-67470651D01*
X92187136Y-67662864D01*
X92379349Y-67824150D01*
X92536706Y-67915000D01*
X92379349Y-68005850D01*
X92187136Y-68167136D01*
X92025850Y-68359349D01*
X91900391Y-68576651D01*
X91814571Y-68812436D01*
X91771000Y-69059541D01*
X91771000Y-69310459D01*
X91814571Y-69557564D01*
X91900391Y-69793349D01*
X92025850Y-70010651D01*
X92187136Y-70202864D01*
X92379349Y-70364150D01*
X92536706Y-70455000D01*
X92379349Y-70545850D01*
X92187136Y-70707136D01*
X92025850Y-70899349D01*
X91900391Y-71116651D01*
X91814571Y-71352436D01*
X91771000Y-71599541D01*
X91771000Y-71850459D01*
X91814571Y-72097564D01*
X91900391Y-72333349D01*
X92025850Y-72550651D01*
X92187136Y-72742864D01*
X92379349Y-72904150D01*
X92536706Y-72995000D01*
X92379349Y-73085850D01*
X92187136Y-73247136D01*
X92025850Y-73439349D01*
X91900391Y-73656651D01*
X91814571Y-73892436D01*
X91771000Y-74139541D01*
X91771000Y-74390459D01*
X91814571Y-74637564D01*
X91900391Y-74873349D01*
X92025850Y-75090651D01*
X92187136Y-75282864D01*
X92379349Y-75444150D01*
X92536706Y-75535000D01*
X92379349Y-75625850D01*
X92187136Y-75787136D01*
X92025850Y-75979349D01*
X91900391Y-76196651D01*
X91814571Y-76432436D01*
X91771000Y-76679541D01*
X91771000Y-76930459D01*
X91814571Y-77177564D01*
X91900391Y-77413349D01*
X92025850Y-77630651D01*
X92187136Y-77822864D01*
X92379349Y-77984150D01*
X92536706Y-78075000D01*
X92379349Y-78165850D01*
X92187136Y-78327136D01*
X92025850Y-78519349D01*
X91900391Y-78736651D01*
X91814571Y-78972436D01*
X91771000Y-79219541D01*
X91771000Y-79470459D01*
X91814571Y-79717564D01*
X91900391Y-79953349D01*
X92025850Y-80170651D01*
X92187136Y-80362864D01*
X92379349Y-80524150D01*
X92536706Y-80615000D01*
X92379349Y-80705850D01*
X92187136Y-80867136D01*
X92025850Y-81059349D01*
X91900391Y-81276651D01*
X91814571Y-81512436D01*
X91771000Y-81759541D01*
X91771000Y-82010459D01*
X91814571Y-82257564D01*
X91900391Y-82493349D01*
X92025850Y-82710651D01*
X92187136Y-82902864D01*
X92379349Y-83064150D01*
X92536706Y-83155000D01*
X92270001Y-83308982D01*
X93205000Y-84243981D01*
X94139999Y-83308982D01*
X93873294Y-83155000D01*
X94030651Y-83064150D01*
X94222864Y-82902864D01*
X94384150Y-82710651D01*
X94475000Y-82553294D01*
X94565850Y-82710651D01*
X94727136Y-82902864D01*
X94919349Y-83064150D01*
X95076706Y-83155000D01*
X94919349Y-83245850D01*
X94727136Y-83407136D01*
X94565850Y-83599349D01*
X94475000Y-83756706D01*
X94321018Y-83490001D01*
X93386019Y-84425000D01*
X94321018Y-85359999D01*
X94475000Y-85093294D01*
X94565850Y-85250651D01*
X94727136Y-85442864D01*
X94919349Y-85604150D01*
X95076706Y-85695000D01*
X94810001Y-85848982D01*
X95745000Y-86783981D01*
X96679999Y-85848982D01*
X96413294Y-85695000D01*
X96570651Y-85604150D01*
X96762864Y-85442864D01*
X96924150Y-85250651D01*
X97015000Y-85093294D01*
X97105850Y-85250651D01*
X97267136Y-85442864D01*
X97459349Y-85604150D01*
X97616706Y-85695000D01*
X97459349Y-85785850D01*
X97267136Y-85947136D01*
X97105850Y-86139349D01*
X97015000Y-86296706D01*
X96861018Y-86030001D01*
X95926019Y-86965000D01*
X96861018Y-87899999D01*
X97015000Y-87633294D01*
X97083172Y-87751371D01*
X96531372Y-88303172D01*
X96413294Y-88235000D01*
X96679999Y-88081018D01*
X95745000Y-87146019D01*
X94810001Y-88081018D01*
X95076706Y-88235000D01*
X94919349Y-88325850D01*
X94727136Y-88487136D01*
X94614810Y-88621000D01*
X94335190Y-88621000D01*
X94222864Y-88487136D01*
X94030651Y-88325850D01*
X93873294Y-88235000D01*
X94139999Y-88081018D01*
X93205000Y-87146019D01*
X92270001Y-88081018D01*
X92536706Y-88235000D01*
X92379349Y-88325850D01*
X92187136Y-88487136D01*
X92025850Y-88679349D01*
X91900391Y-88896651D01*
X91814571Y-89132436D01*
X91771000Y-89379541D01*
X91771000Y-89630459D01*
X91814571Y-89877564D01*
X91900391Y-90113349D01*
X92025850Y-90330651D01*
X92187136Y-90522864D01*
X92379349Y-90684150D01*
X92536706Y-90775000D01*
X92379349Y-90865850D01*
X92187136Y-91027136D01*
X92025850Y-91219349D01*
X91900391Y-91436651D01*
X91814571Y-91672436D01*
X91771000Y-91919541D01*
X91771000Y-92170459D01*
X91814571Y-92417564D01*
X91900391Y-92653349D01*
X92025850Y-92870651D01*
X92187136Y-93062864D01*
X92379349Y-93224150D01*
X92536706Y-93315000D01*
X92379349Y-93405850D01*
X92187136Y-93567136D01*
X92025850Y-93759349D01*
X91900391Y-93976651D01*
X91814571Y-94212436D01*
X91771000Y-94459541D01*
X91771000Y-94710459D01*
X91814571Y-94957564D01*
X91900391Y-95193349D01*
X92025850Y-95410651D01*
X92187136Y-95602864D01*
X92379349Y-95764150D01*
X92536706Y-95855000D01*
X92379349Y-95945850D01*
X92187136Y-96107136D01*
X92025850Y-96299349D01*
X91900391Y-96516651D01*
X91814571Y-96752436D01*
X91771000Y-96999541D01*
X91771000Y-97250459D01*
X91814571Y-97497564D01*
X91900391Y-97733349D01*
X92025850Y-97950651D01*
X92187136Y-98142864D01*
X92379349Y-98304150D01*
X92536706Y-98395000D01*
X92379349Y-98485850D01*
X92187136Y-98647136D01*
X92025850Y-98839349D01*
X91900391Y-99056651D01*
X91814571Y-99292436D01*
X91771000Y-99539541D01*
X91771000Y-99790459D01*
X91814571Y-100037564D01*
X91900391Y-100273349D01*
X92000051Y-100445966D01*
X91994072Y-100451118D01*
X91976841Y-100477702D01*
X91481340Y-100973205D01*
X91458916Y-100987353D01*
X91396348Y-101058198D01*
X91372979Y-101081567D01*
X91357671Y-101101992D01*
X91300778Y-101166411D01*
X91286332Y-101197178D01*
X91265946Y-101224380D01*
X91235780Y-101304850D01*
X91229000Y-101319290D01*
X91229000Y-86839541D01*
X91771000Y-86839541D01*
X91771000Y-87090459D01*
X91814571Y-87337564D01*
X91900391Y-87573349D01*
X92088982Y-87899999D01*
X93023981Y-86965000D01*
X93386019Y-86965000D01*
X94321018Y-87899999D01*
X94475000Y-87633294D01*
X94628982Y-87899999D01*
X95563981Y-86965000D01*
X94628982Y-86030001D01*
X94475000Y-86296706D01*
X94321018Y-86030001D01*
X93386019Y-86965000D01*
X93023981Y-86965000D01*
X92088982Y-86030001D01*
X91900391Y-86356651D01*
X91814571Y-86592436D01*
X91771000Y-86839541D01*
X91229000Y-86839541D01*
X91229000Y-85848982D01*
X92270001Y-85848982D01*
X93205000Y-86783981D01*
X94139999Y-85848982D01*
X93873294Y-85695000D01*
X94139999Y-85541018D01*
X93205000Y-84606019D01*
X92270001Y-85541018D01*
X92536706Y-85695000D01*
X92270001Y-85848982D01*
X91229000Y-85848982D01*
X91229000Y-85541018D01*
X91229000Y-84299541D01*
X91771000Y-84299541D01*
X91771000Y-84550459D01*
X91814571Y-84797564D01*
X91900391Y-85033349D01*
X92088982Y-85359999D01*
X93023981Y-84425000D01*
X92088982Y-83490001D01*
X91900391Y-83816651D01*
X91814571Y-84052436D01*
X91771000Y-84299541D01*
X91229000Y-84299541D01*
X91229000Y-71876010D01*
X91233445Y-71856368D01*
X91229000Y-71784728D01*
X91229000Y-71759553D01*
X91226245Y-71740316D01*
X91222200Y-71675111D01*
X91213427Y-71650810D01*
X91209764Y-71625232D01*
X91182720Y-71565751D01*
X91160402Y-71503930D01*
X91145383Y-71483631D01*
X91134597Y-71459911D01*
X91086681Y-71404302D01*
X91074638Y-71388027D01*
X91060326Y-71373716D01*
X91016054Y-71322336D01*
X90995852Y-71309242D01*
X88729000Y-69042390D01*
X88729000Y-54008210D01*
X88732802Y-53989268D01*
X88733599Y-53973269D01*
X88743548Y-53745379D01*
X89416000Y-53745379D01*
X89416000Y-54144621D01*
X89457732Y-54541677D01*
X89540739Y-54932195D01*
X89664112Y-55311896D01*
X89826499Y-55676622D01*
X90026120Y-56022377D01*
X90260789Y-56345371D01*
X90442167Y-56546813D01*
X93043981Y-53945000D01*
X93406019Y-53945000D01*
X96007833Y-56546813D01*
X96189211Y-56345371D01*
X96423880Y-56022377D01*
X96623501Y-55676622D01*
X96785888Y-55311896D01*
X96909261Y-54932195D01*
X96992268Y-54541677D01*
X97034000Y-54144621D01*
X97034000Y-53745379D01*
X96992268Y-53348323D01*
X96909261Y-52957805D01*
X96785888Y-52578104D01*
X96623501Y-52213378D01*
X96423880Y-51867623D01*
X96189211Y-51544629D01*
X96007833Y-51343187D01*
X93406019Y-53945000D01*
X93043981Y-53945000D01*
X90442167Y-51343187D01*
X90260789Y-51544629D01*
X90026120Y-51867623D01*
X89826499Y-52213378D01*
X89664112Y-52578104D01*
X89540739Y-52957805D01*
X89457732Y-53348323D01*
X89416000Y-53745379D01*
X88743548Y-53745379D01*
X88751920Y-53553647D01*
X88803048Y-53165291D01*
X88887832Y-52782858D01*
X89005620Y-52409280D01*
X89155528Y-52047369D01*
X89336398Y-51699921D01*
X89546873Y-51369542D01*
X89705997Y-51162167D01*
X90623187Y-51162167D01*
X93225000Y-53763981D01*
X95826813Y-51162167D01*
X95625371Y-50980789D01*
X95302377Y-50746120D01*
X94956622Y-50546499D01*
X94591896Y-50384112D01*
X94212195Y-50260739D01*
X93821677Y-50177732D01*
X93424621Y-50136000D01*
X93025379Y-50136000D01*
X92628323Y-50177732D01*
X92237805Y-50260739D01*
X91858104Y-50384112D01*
X91493378Y-50546499D01*
X91147623Y-50746120D01*
X90824629Y-50980789D01*
X90623187Y-51162167D01*
X89705997Y-51162167D01*
X89785329Y-51058781D01*
X90049972Y-50769972D01*
X90338768Y-50505339D01*
X90649550Y-50266868D01*
X90979921Y-50056398D01*
X91327369Y-49875528D01*
X91689288Y-49725617D01*
X92062861Y-49607832D01*
X92445291Y-49523048D01*
X92833647Y-49471920D01*
X93261850Y-49453225D01*
X93284314Y-49449000D01*
X98333991Y-49449000D01*
X98353633Y-49453445D01*
X98425272Y-49449000D01*
X98450447Y-49449000D01*
X98469683Y-49446245D01*
X98534885Y-49442200D01*
X98559188Y-49433427D01*
X98584772Y-49429763D01*
X98644250Y-49402719D01*
X98706068Y-49380403D01*
X98726365Y-49365384D01*
X98750089Y-49354597D01*
X98805701Y-49306678D01*
X98821970Y-49294640D01*
X98836276Y-49280333D01*
X98887664Y-49236054D01*
X98900761Y-49215848D01*
X101657610Y-46459000D01*
X134599903Y-46459000D01*
X134497543Y-46537543D01*
X134455927Y-46591778D01*
X133397354Y-47650351D01*
X133296612Y-47653517D01*
X133052863Y-47705328D01*
X132822141Y-47799484D01*
X132611739Y-47933009D01*
X132428308Y-48101683D01*
X132277645Y-48300173D01*
X132164513Y-48522208D01*
X132092489Y-48760766D01*
X132063847Y-49008310D01*
X132079494Y-49257013D01*
X132138934Y-49499014D01*
X132240291Y-49726664D01*
X132380360Y-49932768D01*
X132554711Y-50110811D01*
X132757837Y-50255164D01*
X132983315Y-50361266D01*
X133224019Y-50425762D01*
X133472339Y-50446615D01*
X133720428Y-50423164D01*
X133960442Y-50356150D01*
X134184796Y-50247693D01*
X134358620Y-50121403D01*
X135109616Y-50121403D01*
X135297837Y-50255164D01*
X135523315Y-50361266D01*
X135764019Y-50425762D01*
X136012339Y-50446615D01*
X136260428Y-50423164D01*
X136500442Y-50356150D01*
X136724796Y-50247693D01*
X136899643Y-50120662D01*
X136005000Y-49226019D01*
X135109616Y-50121403D01*
X134358620Y-50121403D01*
X134386399Y-50101221D01*
X134558878Y-49921362D01*
X134696780Y-49713802D01*
X134735119Y-49625206D01*
X134780291Y-49726664D01*
X134926773Y-49942208D01*
X136005000Y-48863980D01*
X137084309Y-49943290D01*
X137236780Y-49713802D01*
X137275119Y-49625206D01*
X137320291Y-49726664D01*
X137460360Y-49932768D01*
X137634711Y-50110811D01*
X137837837Y-50255164D01*
X138063315Y-50361266D01*
X138304019Y-50425762D01*
X138552339Y-50446615D01*
X138800428Y-50423164D01*
X139040442Y-50356150D01*
X139264796Y-50247693D01*
X139466399Y-50101221D01*
X139638878Y-49921362D01*
X139776780Y-49713802D01*
X139815119Y-49625206D01*
X139860291Y-49726664D01*
X140000360Y-49932768D01*
X140174711Y-50110811D01*
X140377837Y-50255164D01*
X140603315Y-50361266D01*
X140844019Y-50425762D01*
X141092339Y-50446615D01*
X141340428Y-50423164D01*
X141580442Y-50356150D01*
X141804796Y-50247693D01*
X142006399Y-50101221D01*
X142073352Y-50031403D01*
X151384616Y-50031403D01*
X151572837Y-50165164D01*
X151798315Y-50271266D01*
X152039019Y-50335762D01*
X152287339Y-50356615D01*
X152535428Y-50333164D01*
X152775442Y-50266150D01*
X152999796Y-50157693D01*
X153174643Y-50030662D01*
X152280000Y-49136019D01*
X151384616Y-50031403D01*
X142073352Y-50031403D01*
X142178878Y-49921362D01*
X142316780Y-49713802D01*
X142415747Y-49485102D01*
X142473031Y-49240872D01*
X142481380Y-48922041D01*
X142436956Y-48675147D01*
X142350094Y-48441581D01*
X142271686Y-48309000D01*
X151042291Y-48309000D01*
X150979513Y-48432208D01*
X150907489Y-48670766D01*
X150878847Y-48918310D01*
X150894494Y-49167013D01*
X150953934Y-49409014D01*
X151055291Y-49636664D01*
X151201773Y-49852208D01*
X152280000Y-48773980D01*
X153359309Y-49853290D01*
X153511780Y-49623802D01*
X153559976Y-49512426D01*
X153615291Y-49636664D01*
X153755360Y-49842768D01*
X153929711Y-50020811D01*
X154132837Y-50165164D01*
X154358315Y-50271266D01*
X154599019Y-50335762D01*
X154847339Y-50356615D01*
X155095428Y-50333164D01*
X155335442Y-50266150D01*
X155559796Y-50157693D01*
X155761399Y-50011221D01*
X155933878Y-49831362D01*
X156071780Y-49623802D01*
X156119976Y-49512426D01*
X156175291Y-49636664D01*
X156315360Y-49842768D01*
X156489711Y-50020811D01*
X156692837Y-50165164D01*
X156918315Y-50271266D01*
X157159019Y-50335762D01*
X157407339Y-50356615D01*
X157655428Y-50333164D01*
X157895442Y-50266150D01*
X158119796Y-50157693D01*
X158321399Y-50011221D01*
X158493878Y-49831362D01*
X158556932Y-49736458D01*
X158636795Y-50034512D01*
X158784185Y-50210165D01*
X158977814Y-50321956D01*
X159186976Y-50358837D01*
X160738588Y-50358837D01*
X161039512Y-50278205D01*
X161215165Y-50130815D01*
X161326956Y-49937186D01*
X161363837Y-49728024D01*
X161363837Y-48622167D01*
X176353187Y-48622167D01*
X178955000Y-51223981D01*
X181556813Y-48622167D01*
X181355371Y-48440789D01*
X181032377Y-48206120D01*
X180686622Y-48006499D01*
X180321896Y-47844112D01*
X179942195Y-47720739D01*
X179551677Y-47637732D01*
X179154621Y-47596000D01*
X178755379Y-47596000D01*
X178358323Y-47637732D01*
X177967805Y-47720739D01*
X177588104Y-47844112D01*
X177223378Y-48006499D01*
X176877623Y-48206120D01*
X176554629Y-48440789D01*
X176353187Y-48622167D01*
X161363837Y-48622167D01*
X161363837Y-48176412D01*
X161283205Y-47875489D01*
X161135815Y-47699835D01*
X160942186Y-47588044D01*
X160733024Y-47551163D01*
X159181412Y-47551163D01*
X158880489Y-47631795D01*
X158704835Y-47779185D01*
X158593044Y-47972814D01*
X158558144Y-48170739D01*
X158538244Y-48137089D01*
X158375414Y-47948449D01*
X158181754Y-47791627D01*
X157963384Y-47671576D01*
X157727205Y-47592093D01*
X157480684Y-47555690D01*
X157231612Y-47563517D01*
X156987863Y-47615328D01*
X156757141Y-47709484D01*
X156546739Y-47843009D01*
X156363308Y-48011683D01*
X156212645Y-48210173D01*
X156120073Y-48391857D01*
X156105094Y-48351581D01*
X155978244Y-48137089D01*
X155815414Y-47948449D01*
X155621754Y-47791627D01*
X155403384Y-47671576D01*
X155167205Y-47592093D01*
X154955617Y-47560848D01*
X154982943Y-47440574D01*
X154984064Y-47119433D01*
X154917111Y-46814916D01*
X154786423Y-46532081D01*
X154730951Y-46459000D01*
X183501000Y-46459000D01*
X183501001Y-57612755D01*
X178686640Y-62436650D01*
X178669875Y-62447227D01*
X178622126Y-62501291D01*
X178604147Y-62519306D01*
X178592706Y-62534603D01*
X178549657Y-62583347D01*
X178538540Y-62607027D01*
X178522876Y-62627970D01*
X178500119Y-62688862D01*
X178472311Y-62748091D01*
X178468533Y-62773370D01*
X178459298Y-62798079D01*
X178453959Y-62870883D01*
X178451000Y-62890690D01*
X178451000Y-62911253D01*
X178446019Y-62979196D01*
X178451000Y-63002418D01*
X178451001Y-75613986D01*
X178446555Y-75633633D01*
X178451001Y-75705289D01*
X178451001Y-75730446D01*
X178453755Y-75749677D01*
X178457800Y-75814887D01*
X178466575Y-75839195D01*
X178470238Y-75864770D01*
X178497277Y-75924241D01*
X178519598Y-75986070D01*
X178534619Y-76006369D01*
X178545403Y-76030088D01*
X178593317Y-76085693D01*
X178605361Y-76101971D01*
X178619675Y-76116284D01*
X178663947Y-76167664D01*
X178684149Y-76180758D01*
X183501000Y-80997611D01*
X183501001Y-90640085D01*
X178937081Y-94287442D01*
X178889874Y-94317228D01*
X178836218Y-94377981D01*
X178780772Y-94436986D01*
X178776260Y-94445871D01*
X178769657Y-94453348D01*
X178735217Y-94526703D01*
X178698554Y-94598910D01*
X178696716Y-94608708D01*
X178692311Y-94618093D01*
X178681915Y-94687647D01*
X178665087Y-94777407D01*
X178671000Y-94836847D01*
X178671001Y-113016643D01*
X178667900Y-113029024D01*
X178671001Y-113108403D01*
X178671001Y-113140449D01*
X178672723Y-113152471D01*
X178674989Y-113210485D01*
X178685536Y-113241938D01*
X178690238Y-113274770D01*
X178714268Y-113327622D01*
X178732726Y-113382667D01*
X178751674Y-113409892D01*
X178765403Y-113440088D01*
X178803301Y-113484070D01*
X178836692Y-113532048D01*
X178861981Y-113552171D01*
X178883946Y-113577663D01*
X178938217Y-113612840D01*
X178949511Y-113621827D01*
X178973146Y-113635479D01*
X179036338Y-113676439D01*
X179052337Y-113681224D01*
X183501000Y-116250949D01*
X183501001Y-135061000D01*
X180059950Y-135061000D01*
X180321896Y-134975888D01*
X180686622Y-134813501D01*
X181032377Y-134613880D01*
X181355371Y-134379211D01*
X181556813Y-134197833D01*
X178955000Y-131596019D01*
X176353187Y-134197833D01*
X176554629Y-134379211D01*
X176877623Y-134613880D01*
X177223378Y-134813501D01*
X177588104Y-134975888D01*
X177850050Y-135061000D01*
X171859000Y-135061000D01*
X171859000Y-131215379D01*
X175146000Y-131215379D01*
X175146000Y-131614621D01*
X175187732Y-132011677D01*
X175270739Y-132402195D01*
X175394112Y-132781896D01*
X175556499Y-133146622D01*
X175756120Y-133492377D01*
X175990789Y-133815371D01*
X176172167Y-134016813D01*
X178773981Y-131415000D01*
X179136019Y-131415000D01*
X181737833Y-134016813D01*
X181919211Y-133815371D01*
X182153880Y-133492377D01*
X182353501Y-133146622D01*
X182515888Y-132781896D01*
X182639261Y-132402195D01*
X182722268Y-132011677D01*
X182764000Y-131614621D01*
X182764000Y-131215379D01*
X182722268Y-130818323D01*
X182639261Y-130427805D01*
X182515888Y-130048104D01*
X182353501Y-129683378D01*
X182153880Y-129337623D01*
X181919211Y-129014629D01*
X181737833Y-128813187D01*
X179136019Y-131415000D01*
X178773981Y-131415000D01*
X176172167Y-128813187D01*
X175990789Y-129014629D01*
X175756120Y-129337623D01*
X175556499Y-129683378D01*
X175394112Y-130048104D01*
X175270739Y-130427805D01*
X175187732Y-130818323D01*
X175146000Y-131215379D01*
X171859000Y-131215379D01*
X171859000Y-128632167D01*
X176353187Y-128632167D01*
X178955000Y-131233981D01*
X181556813Y-128632167D01*
X181355371Y-128450789D01*
X181032377Y-128216120D01*
X180686622Y-128016499D01*
X180321896Y-127854112D01*
X179942195Y-127730739D01*
X179551677Y-127647732D01*
X179154621Y-127606000D01*
X178755379Y-127606000D01*
X178358323Y-127647732D01*
X177967805Y-127730739D01*
X177588104Y-127854112D01*
X177223378Y-128016499D01*
X176877623Y-128216120D01*
X176554629Y-128450789D01*
X176353187Y-128632167D01*
X171859000Y-128632167D01*
X171859000Y-122613539D01*
X171859000Y-122613539D01*
G37*
X171859000Y-122613539D02*
X171859583Y-122518073D01*
X171846509Y-122472328D01*
X171839764Y-122425232D01*
X171821684Y-122385467D01*
X171809677Y-122343460D01*
X171784294Y-122303229D01*
X171764598Y-122259911D01*
X171736080Y-122226816D01*
X171712773Y-122189874D01*
X171677111Y-122158379D01*
X171646054Y-122122336D01*
X171609399Y-122098578D01*
X171576654Y-122069658D01*
X171533584Y-122049436D01*
X171493662Y-122023561D01*
X171451817Y-122011047D01*
X171411912Y-121992311D01*
X171366454Y-121985517D01*
X171319673Y-121971527D01*
X171270832Y-121971228D01*
X171269306Y-121971000D01*
X171233539Y-121971000D01*
X171138074Y-121970417D01*
X171136034Y-121971000D01*
X170466739Y-121971000D01*
X170763874Y-121846401D01*
X171103070Y-121659541D01*
X171420489Y-121437694D01*
X171658986Y-121230005D01*
X169180000Y-118751019D01*
X166693659Y-121237360D01*
X167082272Y-121543718D01*
X167410150Y-121749794D01*
X167758068Y-121919861D01*
X167898954Y-121971000D01*
X144466739Y-121971000D01*
X144763874Y-121846401D01*
X145103070Y-121659541D01*
X145420489Y-121437694D01*
X145658986Y-121230005D01*
X143180000Y-118751019D01*
X140693659Y-121237360D01*
X141082272Y-121543718D01*
X141410150Y-121749794D01*
X141758068Y-121919861D01*
X141898954Y-121971000D01*
X125001440Y-121971000D01*
X125031099Y-121860308D01*
X125034209Y-121563416D01*
X124968579Y-121296218D01*
X124841417Y-121052981D01*
X124659907Y-120847098D01*
X124434526Y-120690455D01*
X124178286Y-120592094D01*
X123905981Y-120557694D01*
X123633330Y-120589241D01*
X123376075Y-120684912D01*
X123149065Y-120839187D01*
X122965409Y-121043159D01*
X122843248Y-121270990D01*
X122611921Y-121270990D01*
X122658986Y-121230005D01*
X120180000Y-118751019D01*
X117693659Y-121237360D01*
X118082272Y-121543718D01*
X118277196Y-121666231D01*
X118201331Y-121742096D01*
X118178907Y-121756245D01*
X118116346Y-121827082D01*
X118092971Y-121850456D01*
X118077662Y-121870882D01*
X118020769Y-121935302D01*
X118006324Y-121966069D01*
X117985937Y-121993271D01*
X117955769Y-122073746D01*
X117919074Y-122151904D01*
X117914172Y-122184709D01*
X117902081Y-122216962D01*
X117894889Y-122313730D01*
X117890991Y-122339813D01*
X117890991Y-122366194D01*
X117884376Y-122455197D01*
X117890991Y-122486186D01*
X117890990Y-128314449D01*
X117784526Y-128240455D01*
X117528286Y-128142094D01*
X117255981Y-128107694D01*
X116983330Y-128139241D01*
X116726075Y-128234912D01*
X116499065Y-128389187D01*
X116474923Y-128416000D01*
X113579574Y-128416000D01*
X113581099Y-128410308D01*
X113583088Y-128220429D01*
X113617512Y-128211205D01*
X113793165Y-128063815D01*
X113904956Y-127870186D01*
X113941837Y-127661024D01*
X113941837Y-125933412D01*
X113861205Y-125632489D01*
X113741564Y-125489906D01*
X113755024Y-125488491D01*
X114013267Y-125395518D01*
X114241879Y-125243628D01*
X114427661Y-125041592D01*
X114559888Y-124801072D01*
X114631099Y-124535308D01*
X114634209Y-124238416D01*
X114568579Y-123971218D01*
X114441417Y-123727981D01*
X114259907Y-123522098D01*
X114034526Y-123365455D01*
X113778286Y-123267094D01*
X113505981Y-123232694D01*
X113233330Y-123264241D01*
X112976075Y-123359912D01*
X112749065Y-123514187D01*
X112724923Y-123541000D01*
X107489733Y-123541000D01*
X107384907Y-123422098D01*
X107294120Y-123359000D01*
X111099572Y-123359000D01*
X111125426Y-123364850D01*
X111219730Y-123359000D01*
X111252809Y-123359000D01*
X111278085Y-123355380D01*
X111363859Y-123350059D01*
X111395823Y-123338519D01*
X111429478Y-123333700D01*
X111507721Y-123298123D01*
X111588927Y-123268808D01*
X111615590Y-123249079D01*
X111646948Y-123234821D01*
X111720458Y-123171480D01*
X111741659Y-123155793D01*
X111760305Y-123137146D01*
X111827924Y-123078882D01*
X111845160Y-123052291D01*
X116552907Y-118344544D01*
X116540848Y-118563649D01*
X116560778Y-118950395D01*
X116621694Y-119332834D01*
X116722903Y-119706636D01*
X116863260Y-120067565D01*
X117041177Y-120411536D01*
X117254639Y-120734653D01*
X117516830Y-121052151D01*
X120180000Y-118388980D01*
X122838548Y-121047529D01*
X122975904Y-120899460D01*
X123207612Y-120589166D01*
X123405034Y-120256007D01*
X123565935Y-119903756D01*
X123688494Y-119536401D01*
X123771322Y-119158102D01*
X123813488Y-118773089D01*
X123813854Y-118563649D01*
X139540848Y-118563649D01*
X139560778Y-118950395D01*
X139621694Y-119332834D01*
X139722903Y-119706636D01*
X139863260Y-120067565D01*
X140041177Y-120411536D01*
X140254639Y-120734653D01*
X140516830Y-121052151D01*
X142998981Y-118570000D01*
X143361019Y-118570000D01*
X145838548Y-121047529D01*
X145975904Y-120899460D01*
X146207612Y-120589166D01*
X146405034Y-120256007D01*
X146565935Y-119903756D01*
X146688494Y-119536401D01*
X146771322Y-119158102D01*
X146813488Y-118773089D01*
X146813854Y-118563649D01*
X165540848Y-118563649D01*
X165560778Y-118950395D01*
X165621694Y-119332834D01*
X165722903Y-119706636D01*
X165863260Y-120067565D01*
X166041177Y-120411536D01*
X166254639Y-120734653D01*
X166516830Y-121052151D01*
X168998981Y-118570000D01*
X169361019Y-118570000D01*
X171838548Y-121047529D01*
X171975904Y-120899460D01*
X172207612Y-120589166D01*
X172405034Y-120256007D01*
X172565935Y-119903756D01*
X172688494Y-119536401D01*
X172771322Y-119158102D01*
X172813488Y-118773089D01*
X172814176Y-118379596D01*
X172773354Y-117994438D01*
X172691847Y-117615852D01*
X172570571Y-117248071D01*
X172410899Y-116895261D01*
X172214642Y-116561415D01*
X171984018Y-116250315D01*
X171838586Y-116092433D01*
X169361019Y-118570000D01*
X168998981Y-118570000D01*
X166517355Y-116088374D01*
X166262213Y-116395148D01*
X166047625Y-116717519D01*
X165868508Y-117060866D01*
X165726891Y-117421304D01*
X165624378Y-117794749D01*
X165562129Y-118176974D01*
X165540848Y-118563649D01*
X146813854Y-118563649D01*
X146814176Y-118379596D01*
X146773354Y-117994438D01*
X146691847Y-117615852D01*
X146570571Y-117248071D01*
X146410899Y-116895261D01*
X146214642Y-116561415D01*
X145984018Y-116250315D01*
X145838586Y-116092433D01*
X143361019Y-118570000D01*
X142998981Y-118570000D01*
X140517355Y-116088374D01*
X140262213Y-116395148D01*
X140047625Y-116717519D01*
X139868508Y-117060866D01*
X139726891Y-117421304D01*
X139624378Y-117794749D01*
X139562129Y-118176974D01*
X139540848Y-118563649D01*
X123813854Y-118563649D01*
X123814176Y-118379596D01*
X123773354Y-117994438D01*
X123691847Y-117615852D01*
X123570571Y-117248071D01*
X123410899Y-116895261D01*
X123214642Y-116561415D01*
X122984018Y-116250315D01*
X122975724Y-116241311D01*
X123010126Y-116254932D01*
X123282058Y-116292182D01*
X123555024Y-116263491D01*
X123813267Y-116170518D01*
X124041879Y-116018628D01*
X124149239Y-115901875D01*
X140692894Y-115901875D01*
X143180000Y-118388981D01*
X145658698Y-115910282D01*
X145649112Y-115901875D01*
X166692894Y-115901875D01*
X169180000Y-118388981D01*
X171658698Y-115910282D01*
X171430485Y-115710144D01*
X171113843Y-115487190D01*
X170775301Y-115299147D01*
X170418695Y-115148144D01*
X170048061Y-115035890D01*
X169667597Y-114963657D01*
X169281611Y-114932262D01*
X168894475Y-114942061D01*
X168510572Y-114992944D01*
X168134250Y-115084334D01*
X167769770Y-115215195D01*
X167421260Y-115384047D01*
X167092666Y-115588977D01*
X166692894Y-115901875D01*
X145649112Y-115901875D01*
X145430485Y-115710144D01*
X145113843Y-115487190D01*
X144775301Y-115299147D01*
X144418695Y-115148144D01*
X144048061Y-115035890D01*
X143667597Y-114963657D01*
X143281611Y-114932262D01*
X142894475Y-114942061D01*
X142510572Y-114992944D01*
X142134250Y-115084334D01*
X141769770Y-115215195D01*
X141421260Y-115384047D01*
X141092666Y-115588977D01*
X140692894Y-115901875D01*
X124149239Y-115901875D01*
X124227661Y-115816592D01*
X124359888Y-115576072D01*
X124431099Y-115310308D01*
X124434209Y-115013416D01*
X124368579Y-114746218D01*
X124241417Y-114502981D01*
X124059907Y-114297098D01*
X123834526Y-114140455D01*
X123578286Y-114042094D01*
X123305981Y-114007694D01*
X123033330Y-114039241D01*
X122880996Y-114095893D01*
X122904618Y-114019819D01*
X122930043Y-113828000D01*
X121322000Y-113828000D01*
X121322000Y-113572000D01*
X122939487Y-113572000D01*
X122876544Y-113272017D01*
X122784039Y-113037778D01*
X122653390Y-112822474D01*
X122488331Y-112632261D01*
X122293584Y-112472578D01*
X122219939Y-112430657D01*
X122383240Y-112320716D01*
X122565466Y-112146881D01*
X122715797Y-111944828D01*
X122829936Y-111720334D01*
X122904618Y-111479819D01*
X122937708Y-111230159D01*
X122929938Y-111023183D01*
X123010126Y-111054932D01*
X123282058Y-111092182D01*
X123555024Y-111063491D01*
X123813267Y-110970518D01*
X124041879Y-110818628D01*
X124227661Y-110616592D01*
X124359888Y-110376072D01*
X124431099Y-110110308D01*
X124434209Y-109813416D01*
X124368579Y-109546218D01*
X124241417Y-109302981D01*
X124059907Y-109097098D01*
X123834526Y-108940455D01*
X123578286Y-108842094D01*
X123305981Y-108807694D01*
X123033330Y-108839241D01*
X122911967Y-108884375D01*
X122937708Y-108690159D01*
X122928260Y-108438492D01*
X122876544Y-108192017D01*
X122784039Y-107957778D01*
X122653390Y-107742474D01*
X122488331Y-107552261D01*
X122293584Y-107392578D01*
X122219939Y-107350657D01*
X122383240Y-107240716D01*
X122565466Y-107066881D01*
X122715797Y-106864828D01*
X122829936Y-106640334D01*
X122904618Y-106399819D01*
X122937708Y-106150159D01*
X122928260Y-105898492D01*
X122876544Y-105652017D01*
X122784039Y-105417778D01*
X122653390Y-105202474D01*
X122488331Y-105012261D01*
X122293584Y-104852578D01*
X122219939Y-104810657D01*
X122383240Y-104700716D01*
X122565466Y-104526881D01*
X122715797Y-104324828D01*
X122829936Y-104100334D01*
X122904618Y-103859819D01*
X122937708Y-103610159D01*
X122928260Y-103358492D01*
X122876544Y-103112017D01*
X122784039Y-102877778D01*
X122653390Y-102662474D01*
X122488331Y-102472261D01*
X122293584Y-102312578D01*
X122219939Y-102270657D01*
X122383240Y-102160716D01*
X122565466Y-101986881D01*
X122715797Y-101784828D01*
X122829936Y-101560334D01*
X122837204Y-101536927D01*
X150340417Y-101536927D01*
X150353493Y-101582678D01*
X150360237Y-101629769D01*
X150378318Y-101669538D01*
X150390322Y-101711539D01*
X150415706Y-101751771D01*
X150435402Y-101795089D01*
X150463920Y-101828184D01*
X150487227Y-101865126D01*
X150522889Y-101896621D01*
X150553946Y-101932664D01*
X150590601Y-101956422D01*
X150623346Y-101985342D01*
X150666416Y-102005564D01*
X150706338Y-102031439D01*
X150748183Y-102043953D01*
X150788088Y-102062689D01*
X150833546Y-102069483D01*
X150880327Y-102083473D01*
X150929168Y-102083772D01*
X150930694Y-102084000D01*
X150966461Y-102084000D01*
X151061926Y-102084583D01*
X151063966Y-102084000D01*
X170516462Y-102084000D01*
X170611927Y-102084583D01*
X170657672Y-102071509D01*
X170704768Y-102064764D01*
X170744533Y-102046684D01*
X170786540Y-102034677D01*
X170826771Y-102009294D01*
X170870089Y-101989598D01*
X170903184Y-101961080D01*
X170940126Y-101937773D01*
X170971621Y-101902111D01*
X171007664Y-101871054D01*
X171031422Y-101834399D01*
X171060342Y-101801654D01*
X171080564Y-101758584D01*
X171106439Y-101718662D01*
X171118953Y-101676817D01*
X171137689Y-101636912D01*
X171144483Y-101591454D01*
X171158473Y-101544673D01*
X171158772Y-101495832D01*
X171159000Y-101494306D01*
X171159000Y-101458539D01*
X171159583Y-101363073D01*
X171159000Y-101361033D01*
X171159000Y-99408539D01*
X171159583Y-99313073D01*
X171146509Y-99267328D01*
X171139764Y-99220232D01*
X171121684Y-99180467D01*
X171109677Y-99138460D01*
X171084294Y-99098229D01*
X171064598Y-99054911D01*
X171036080Y-99021816D01*
X171012773Y-98984874D01*
X170977111Y-98953378D01*
X170946053Y-98917335D01*
X170909399Y-98893578D01*
X170876654Y-98864658D01*
X170833578Y-98844434D01*
X170793661Y-98818561D01*
X170751818Y-98806048D01*
X170711911Y-98787311D01*
X170666455Y-98780518D01*
X170619672Y-98766527D01*
X170570832Y-98766228D01*
X170569306Y-98766000D01*
X170533538Y-98766000D01*
X170438073Y-98765417D01*
X170436033Y-98766000D01*
X150983539Y-98766000D01*
X150888075Y-98765417D01*
X150842322Y-98778492D01*
X150795230Y-98785237D01*
X150755459Y-98803319D01*
X150713462Y-98815322D01*
X150673231Y-98840706D01*
X150629912Y-98860402D01*
X150596817Y-98888919D01*
X150559875Y-98912228D01*
X150528383Y-98947886D01*
X150492336Y-98978946D01*
X150468576Y-99015604D01*
X150439659Y-99048346D01*
X150419440Y-99091411D01*
X150393561Y-99131338D01*
X150381043Y-99173194D01*
X150362312Y-99213089D01*
X150355519Y-99258540D01*
X150341527Y-99305327D01*
X150341228Y-99354173D01*
X150341001Y-99355692D01*
X150341001Y-99391301D01*
X150340417Y-99486932D01*
X150341001Y-99488975D01*
X150341000Y-101441458D01*
X150340417Y-101536927D01*
X122837204Y-101536927D01*
X122904618Y-101319819D01*
X122937708Y-101070159D01*
X122928260Y-100818492D01*
X122876544Y-100572017D01*
X122784039Y-100337778D01*
X122653390Y-100122474D01*
X122488331Y-99932261D01*
X122293584Y-99772578D01*
X122219939Y-99730657D01*
X122383240Y-99620716D01*
X122523481Y-99486932D01*
X122565466Y-99446881D01*
X122715797Y-99244828D01*
X122829936Y-99020334D01*
X122904618Y-98779819D01*
X122937708Y-98530159D01*
X122928260Y-98278492D01*
X122876544Y-98032017D01*
X122784039Y-97797778D01*
X122653390Y-97582474D01*
X122488331Y-97392261D01*
X122293584Y-97232578D01*
X122219939Y-97190657D01*
X122383240Y-97080716D01*
X122565466Y-96906881D01*
X122715797Y-96704828D01*
X122829936Y-96480334D01*
X122904618Y-96239819D01*
X122930043Y-96048000D01*
X121322000Y-96048000D01*
X121322000Y-95792000D01*
X122939487Y-95792000D01*
X122876544Y-95492017D01*
X122784039Y-95257778D01*
X122653390Y-95042474D01*
X122488331Y-94852261D01*
X122293584Y-94692578D01*
X122219939Y-94650657D01*
X122383240Y-94540716D01*
X122565466Y-94366881D01*
X122715797Y-94164828D01*
X122829936Y-93940334D01*
X122904618Y-93699819D01*
X122937708Y-93450159D01*
X122928260Y-93198492D01*
X122876544Y-92952017D01*
X122784039Y-92717778D01*
X122653390Y-92502474D01*
X122488331Y-92312261D01*
X122293584Y-92152578D01*
X122219939Y-92110657D01*
X122383240Y-92000716D01*
X122565466Y-91826881D01*
X122715797Y-91624828D01*
X122829936Y-91400334D01*
X122855405Y-91318310D01*
X148493847Y-91318310D01*
X148509494Y-91567013D01*
X148568934Y-91809014D01*
X148670291Y-92036664D01*
X148810360Y-92242768D01*
X148984711Y-92420811D01*
X149187837Y-92565164D01*
X149413315Y-92671266D01*
X149654019Y-92735762D01*
X149902339Y-92756615D01*
X150150428Y-92733164D01*
X150390442Y-92666150D01*
X150614796Y-92557693D01*
X150816399Y-92411221D01*
X150988878Y-92231362D01*
X151126780Y-92023802D01*
X151165119Y-91935206D01*
X151210291Y-92036664D01*
X151350360Y-92242768D01*
X151524711Y-92420811D01*
X151727837Y-92565164D01*
X151953315Y-92671266D01*
X152194019Y-92735762D01*
X152442339Y-92756615D01*
X152690428Y-92733164D01*
X152930442Y-92666150D01*
X153154796Y-92557693D01*
X153356399Y-92411221D01*
X153528878Y-92231362D01*
X153666780Y-92023802D01*
X153705119Y-91935206D01*
X153750291Y-92036664D01*
X153890360Y-92242768D01*
X154064711Y-92420811D01*
X154267837Y-92565164D01*
X154493315Y-92671266D01*
X154734019Y-92735762D01*
X154982339Y-92756615D01*
X155230428Y-92733164D01*
X155470442Y-92666150D01*
X155694796Y-92557693D01*
X155868620Y-92431403D01*
X156619616Y-92431403D01*
X156807837Y-92565164D01*
X157033315Y-92671266D01*
X157274019Y-92735762D01*
X157522339Y-92756615D01*
X157770428Y-92733164D01*
X158010442Y-92666150D01*
X158234796Y-92557693D01*
X158409643Y-92430662D01*
X157515000Y-91536019D01*
X156619616Y-92431403D01*
X155868620Y-92431403D01*
X155896399Y-92411221D01*
X156068878Y-92231362D01*
X156206780Y-92023802D01*
X156245119Y-91935206D01*
X156290291Y-92036664D01*
X156436773Y-92252208D01*
X157333981Y-91355000D01*
X157696019Y-91355000D01*
X158594309Y-92253290D01*
X158746780Y-92023802D01*
X158785119Y-91935206D01*
X158830291Y-92036664D01*
X158970360Y-92242768D01*
X159144711Y-92420811D01*
X159347837Y-92565164D01*
X159573315Y-92671266D01*
X159814019Y-92735762D01*
X160062339Y-92756615D01*
X160310428Y-92733164D01*
X160550442Y-92666150D01*
X160774796Y-92557693D01*
X160976399Y-92411221D01*
X161148878Y-92231362D01*
X161286780Y-92023802D01*
X161385747Y-91795102D01*
X161443031Y-91550872D01*
X161451380Y-91232041D01*
X161406956Y-90985147D01*
X161320094Y-90751581D01*
X161193244Y-90537089D01*
X161030414Y-90348449D01*
X160836754Y-90191627D01*
X160618384Y-90071576D01*
X160382205Y-89992093D01*
X160135684Y-89955690D01*
X159886612Y-89963517D01*
X159642863Y-90015328D01*
X159412141Y-90109484D01*
X159201739Y-90243009D01*
X159018308Y-90411683D01*
X158867645Y-90610173D01*
X158786634Y-90769167D01*
X158780094Y-90751581D01*
X158601472Y-90449547D01*
X157696019Y-91355000D01*
X157333981Y-91355000D01*
X156440487Y-90461506D01*
X156327645Y-90610175D01*
X156246634Y-90769167D01*
X156240094Y-90751581D01*
X156113244Y-90537089D01*
X155950414Y-90348449D01*
X155857463Y-90273179D01*
X156614198Y-90273179D01*
X157515000Y-91173981D01*
X158426194Y-90262786D01*
X158078384Y-90071576D01*
X157842205Y-89992093D01*
X157595684Y-89955690D01*
X157346612Y-89963517D01*
X157102863Y-90015328D01*
X156872142Y-90109484D01*
X156614198Y-90273179D01*
X155857463Y-90273179D01*
X155756754Y-90191627D01*
X155538384Y-90071576D01*
X155302205Y-89992093D01*
X155055684Y-89955690D01*
X154806612Y-89963517D01*
X154562863Y-90015328D01*
X154332141Y-90109484D01*
X154121739Y-90243009D01*
X153938308Y-90411683D01*
X153787645Y-90610173D01*
X153706634Y-90769167D01*
X153700094Y-90751581D01*
X153573244Y-90537089D01*
X153410414Y-90348449D01*
X153216754Y-90191627D01*
X152998384Y-90071576D01*
X152762205Y-89992093D01*
X152515684Y-89955690D01*
X152266612Y-89963517D01*
X152022863Y-90015328D01*
X151792141Y-90109484D01*
X151581739Y-90243009D01*
X151398308Y-90411683D01*
X151247645Y-90610173D01*
X151166634Y-90769167D01*
X151160094Y-90751581D01*
X151033244Y-90537089D01*
X150870414Y-90348449D01*
X150676754Y-90191627D01*
X150458384Y-90071576D01*
X150222205Y-89992093D01*
X149975684Y-89955690D01*
X149726612Y-89963517D01*
X149482863Y-90015328D01*
X149252141Y-90109484D01*
X149041739Y-90243009D01*
X148858308Y-90411683D01*
X148707645Y-90610173D01*
X148594513Y-90832208D01*
X148522489Y-91070766D01*
X148493847Y-91318310D01*
X122855405Y-91318310D01*
X122904618Y-91159819D01*
X122937708Y-90910159D01*
X122928260Y-90658492D01*
X122876544Y-90412017D01*
X122784039Y-90177778D01*
X122653390Y-89962474D01*
X122488331Y-89772261D01*
X122293584Y-89612578D01*
X122219939Y-89570657D01*
X122383240Y-89460716D01*
X122565466Y-89286881D01*
X122715797Y-89084828D01*
X122829936Y-88860334D01*
X122904618Y-88619819D01*
X122937708Y-88370159D01*
X122928260Y-88118492D01*
X122876544Y-87872017D01*
X122784039Y-87637778D01*
X122653390Y-87422474D01*
X122488331Y-87232261D01*
X122293584Y-87072578D01*
X122219939Y-87030657D01*
X122383240Y-86920716D01*
X122516073Y-86794000D01*
X122697236Y-86794000D01*
X122765000Y-86802921D01*
X122832764Y-86794000D01*
X122832771Y-86794000D01*
X123034929Y-86767386D01*
X123286461Y-86663197D01*
X123502457Y-86497457D01*
X123544073Y-86443222D01*
X124876562Y-85110734D01*
X124988267Y-85070518D01*
X125216879Y-84918628D01*
X125402661Y-84716592D01*
X125534888Y-84476072D01*
X125606099Y-84210308D01*
X125609209Y-83913416D01*
X125543579Y-83646218D01*
X125416417Y-83402981D01*
X125234907Y-83197098D01*
X125009526Y-83040455D01*
X124753286Y-82942094D01*
X124480981Y-82907694D01*
X124208330Y-82939241D01*
X123951075Y-83034912D01*
X123724065Y-83189187D01*
X123540409Y-83393159D01*
X123410709Y-83635050D01*
X123404855Y-83657849D01*
X122423556Y-84639148D01*
X122293584Y-84532578D01*
X122219939Y-84490657D01*
X122383240Y-84380716D01*
X122565466Y-84206881D01*
X122715797Y-84004828D01*
X122829936Y-83780334D01*
X122904618Y-83539819D01*
X122937708Y-83290159D01*
X122928260Y-83038492D01*
X122876544Y-82792017D01*
X122784039Y-82557778D01*
X122653390Y-82342474D01*
X122488331Y-82152261D01*
X122293584Y-81992578D01*
X122219939Y-81950657D01*
X122383240Y-81840716D01*
X122565466Y-81666881D01*
X122715797Y-81464828D01*
X122829936Y-81240334D01*
X122904618Y-80999819D01*
X122937708Y-80750159D01*
X122928260Y-80498492D01*
X122876544Y-80252017D01*
X122784039Y-80017778D01*
X122653390Y-79802474D01*
X122488331Y-79612261D01*
X122293584Y-79452578D01*
X122219939Y-79410657D01*
X122383240Y-79300716D01*
X122565466Y-79126881D01*
X122715797Y-78924828D01*
X122829936Y-78700334D01*
X122904618Y-78459819D01*
X122937708Y-78210159D01*
X122928260Y-77958492D01*
X122876544Y-77712016D01*
X122865480Y-77684001D01*
X143151049Y-77684001D01*
X143354931Y-77828893D01*
X143610126Y-77929932D01*
X143882058Y-77967182D01*
X144155024Y-77938491D01*
X144413267Y-77845518D01*
X144641879Y-77693628D01*
X144827661Y-77491592D01*
X144959888Y-77251072D01*
X145031099Y-76985308D01*
X145034209Y-76688416D01*
X144968579Y-76421218D01*
X144841417Y-76177981D01*
X144659907Y-75972098D01*
X144434526Y-75815455D01*
X144178286Y-75717094D01*
X143905981Y-75682694D01*
X143633330Y-75714241D01*
X143376075Y-75809912D01*
X143149065Y-75964187D01*
X143102412Y-76016001D01*
X131966837Y-76016001D01*
X131966837Y-75728000D01*
X128983163Y-75728000D01*
X128983163Y-76016001D01*
X122874753Y-76016001D01*
X122904618Y-75919819D01*
X122930043Y-75728000D01*
X121322000Y-75728000D01*
X121322000Y-75472000D01*
X122939487Y-75472000D01*
X122876544Y-75172017D01*
X122784039Y-74937778D01*
X122653390Y-74722474D01*
X122488331Y-74532261D01*
X122293584Y-74372578D01*
X122219939Y-74330657D01*
X122383240Y-74220716D01*
X122565466Y-74046881D01*
X122715797Y-73844828D01*
X122829936Y-73620334D01*
X122904618Y-73379819D01*
X122937708Y-73130159D01*
X122931238Y-72957824D01*
X123182058Y-72992182D01*
X123341933Y-72975378D01*
X123339576Y-73200352D01*
X123402252Y-73467570D01*
X123526858Y-73712124D01*
X123706203Y-73919897D01*
X123929931Y-74078893D01*
X124185126Y-74179932D01*
X124457058Y-74217182D01*
X124730024Y-74188491D01*
X124988268Y-74095518D01*
X124990553Y-74094000D01*
X129407391Y-74094000D01*
X129436669Y-74127739D01*
X129460975Y-74147669D01*
X129307489Y-74188795D01*
X129131835Y-74336185D01*
X129020044Y-74529814D01*
X128983163Y-74738976D01*
X128983163Y-75472000D01*
X131966837Y-75472000D01*
X131966837Y-74733412D01*
X131886205Y-74432489D01*
X131738815Y-74256835D01*
X131545186Y-74145044D01*
X131496554Y-74136469D01*
X131590466Y-74046881D01*
X131740797Y-73844828D01*
X131854936Y-73620334D01*
X131929618Y-73379819D01*
X131962708Y-73130159D01*
X131953260Y-72878492D01*
X131901544Y-72632016D01*
X131890480Y-72604001D01*
X136124548Y-72604001D01*
X137994205Y-74473658D01*
X138008354Y-74496083D01*
X138079192Y-74558645D01*
X138102566Y-74582020D01*
X138122993Y-74597329D01*
X138187411Y-74654221D01*
X138218178Y-74668667D01*
X138245380Y-74689053D01*
X138325850Y-74719219D01*
X138404013Y-74755917D01*
X138436825Y-74760821D01*
X138469071Y-74772909D01*
X138565826Y-74780100D01*
X138591926Y-74784000D01*
X138618317Y-74784000D01*
X138707307Y-74790614D01*
X138738291Y-74784000D01*
X149046797Y-74784000D01*
X149056203Y-74794897D01*
X149279931Y-74953893D01*
X149535126Y-75054932D01*
X149807058Y-75092182D01*
X150080024Y-75063491D01*
X150338267Y-74970518D01*
X150566879Y-74818628D01*
X150752661Y-74616592D01*
X150884888Y-74376072D01*
X150956099Y-74110308D01*
X150959209Y-73813416D01*
X150893579Y-73546218D01*
X150861052Y-73484000D01*
X154330972Y-73484000D01*
X154510126Y-73554932D01*
X154782058Y-73592182D01*
X155055024Y-73563491D01*
X155275820Y-73484000D01*
X172106708Y-73484000D01*
X172143045Y-73489224D01*
X172571910Y-73489224D01*
X172600000Y-73492922D01*
X172628090Y-73489224D01*
X173061490Y-73489224D01*
X173394078Y-73416873D01*
X173599713Y-73284720D01*
X173756764Y-73103474D01*
X173856389Y-72885324D01*
X173889224Y-72656955D01*
X173889224Y-72238510D01*
X173816873Y-71905922D01*
X173722220Y-71758638D01*
X173750402Y-71719848D01*
X173838809Y-71521283D01*
X173883999Y-71308678D01*
X173883999Y-71091322D01*
X173838809Y-70878716D01*
X173750402Y-70680153D01*
X173674005Y-70575000D01*
X173750402Y-70469848D01*
X173838809Y-70271284D01*
X173879894Y-70078000D01*
X171320106Y-70078000D01*
X171361191Y-70271284D01*
X171449598Y-70469847D01*
X171525995Y-70575000D01*
X171449598Y-70680152D01*
X171361191Y-70878717D01*
X171316001Y-71091322D01*
X171316001Y-71308678D01*
X171338813Y-71416000D01*
X155270818Y-71416000D01*
X155078286Y-71342094D01*
X154805981Y-71307694D01*
X154533330Y-71339241D01*
X154326928Y-71416000D01*
X140138297Y-71416000D01*
X139239564Y-70517268D01*
X139239561Y-70517264D01*
X134564076Y-65841781D01*
X134522457Y-65787543D01*
X134306461Y-65621803D01*
X134054929Y-65517614D01*
X133852771Y-65491000D01*
X133852764Y-65491000D01*
X133785000Y-65482079D01*
X133717237Y-65491000D01*
X124772633Y-65491000D01*
X124585779Y-65331975D01*
X124310681Y-65185702D01*
X124010590Y-65101916D01*
X123802581Y-65090286D01*
X123546294Y-64833999D01*
X127133226Y-61247068D01*
X127187457Y-61205456D01*
X127234097Y-61144673D01*
X127353197Y-60989460D01*
X127398536Y-60880001D01*
X127457386Y-60737926D01*
X127484000Y-60535769D01*
X127484000Y-60535762D01*
X127492921Y-60467998D01*
X127484000Y-60400235D01*
X127484000Y-58471571D01*
X127490123Y-58529827D01*
X127588469Y-58825466D01*
X127748006Y-59093090D01*
X127961289Y-59320213D01*
X128218367Y-59496240D01*
X128507249Y-59612955D01*
X128720267Y-59648984D01*
X136045331Y-66974048D01*
X136110637Y-67048910D01*
X136198611Y-67110740D01*
X136283246Y-67177101D01*
X136310624Y-67189463D01*
X136335195Y-67206732D01*
X136435378Y-67245792D01*
X136533397Y-67290049D01*
X136562932Y-67295524D01*
X136591229Y-67306555D01*
X136689309Y-67318946D01*
X136803273Y-67340068D01*
X136908502Y-67334000D01*
X149118965Y-67334000D01*
X149041739Y-67383009D01*
X148858308Y-67551683D01*
X148707645Y-67750173D01*
X148594513Y-67972208D01*
X148522489Y-68210766D01*
X148493847Y-68458310D01*
X148509494Y-68707013D01*
X148568934Y-68949014D01*
X148670291Y-69176664D01*
X148810360Y-69382768D01*
X148984711Y-69560811D01*
X149187837Y-69705164D01*
X149413315Y-69811266D01*
X149654019Y-69875762D01*
X149902339Y-69896615D01*
X150150428Y-69873164D01*
X150390442Y-69806150D01*
X150614796Y-69697693D01*
X150816399Y-69551221D01*
X150988878Y-69371362D01*
X151126780Y-69163802D01*
X151165119Y-69075206D01*
X151210291Y-69176664D01*
X151350360Y-69382768D01*
X151524711Y-69560811D01*
X151727837Y-69705164D01*
X151953315Y-69811266D01*
X152194019Y-69875762D01*
X152442339Y-69896615D01*
X152690428Y-69873164D01*
X152930442Y-69806150D01*
X153154796Y-69697693D01*
X153356399Y-69551221D01*
X153528878Y-69371362D01*
X153666780Y-69163802D01*
X153705119Y-69075206D01*
X153750291Y-69176664D01*
X153890360Y-69382768D01*
X154064711Y-69560811D01*
X154267837Y-69705164D01*
X154493315Y-69811266D01*
X154734019Y-69875762D01*
X154982339Y-69896615D01*
X155230428Y-69873164D01*
X155470442Y-69806150D01*
X155694796Y-69697693D01*
X155896399Y-69551221D01*
X156068878Y-69371362D01*
X156206780Y-69163802D01*
X156245119Y-69075206D01*
X156290291Y-69176664D01*
X156430360Y-69382768D01*
X156604711Y-69560811D01*
X156807837Y-69705164D01*
X157033315Y-69811266D01*
X157274019Y-69875762D01*
X157522339Y-69896615D01*
X157770428Y-69873164D01*
X158010442Y-69806150D01*
X158234796Y-69697693D01*
X158436399Y-69551221D01*
X158608878Y-69371362D01*
X158746780Y-69163802D01*
X158785119Y-69075206D01*
X158830291Y-69176664D01*
X158970360Y-69382768D01*
X159144711Y-69560811D01*
X159347837Y-69705164D01*
X159573315Y-69811266D01*
X159814019Y-69875762D01*
X160062339Y-69896615D01*
X160310428Y-69873164D01*
X160493674Y-69822000D01*
X171320106Y-69822000D01*
X173879894Y-69822000D01*
X173838809Y-69628716D01*
X173750402Y-69430153D01*
X173674005Y-69325000D01*
X173750402Y-69219848D01*
X173838809Y-69021284D01*
X173879894Y-68828000D01*
X171320106Y-68828000D01*
X171361191Y-69021284D01*
X171449598Y-69219847D01*
X171525995Y-69325000D01*
X171449598Y-69430152D01*
X171361191Y-69628716D01*
X171320106Y-69822000D01*
X160493674Y-69822000D01*
X160550442Y-69806150D01*
X160774796Y-69697693D01*
X160976399Y-69551221D01*
X161148878Y-69371362D01*
X161286780Y-69163802D01*
X161385747Y-68935102D01*
X161410867Y-68828000D01*
X161443031Y-68690872D01*
X161451380Y-68372041D01*
X161406956Y-68125147D01*
X161320094Y-67891581D01*
X161193244Y-67677089D01*
X161030414Y-67488449D01*
X160839684Y-67334000D01*
X171317557Y-67334000D01*
X171316001Y-67341322D01*
X171316001Y-67558678D01*
X171361191Y-67771284D01*
X171449598Y-67969847D01*
X171525995Y-68075000D01*
X171449598Y-68180152D01*
X171361191Y-68378716D01*
X171320106Y-68572000D01*
X173879894Y-68572000D01*
X173838809Y-68378716D01*
X173750402Y-68180153D01*
X173674005Y-68075000D01*
X173750402Y-67969848D01*
X173838809Y-67771283D01*
X173883999Y-67558678D01*
X173883999Y-67341322D01*
X173838809Y-67128716D01*
X173750402Y-66930153D01*
X173674005Y-66825000D01*
X173750402Y-66719848D01*
X173838809Y-66521283D01*
X173883999Y-66308678D01*
X173883999Y-66091322D01*
X173838809Y-65878716D01*
X173750402Y-65680153D01*
X173622644Y-65504308D01*
X173461118Y-65358869D01*
X173272882Y-65250191D01*
X173176017Y-65218718D01*
X173139805Y-65193268D01*
X172883772Y-65093445D01*
X172666527Y-65066000D01*
X137344717Y-65066000D01*
X134804069Y-62525352D01*
X137364576Y-62525352D01*
X137427252Y-62792570D01*
X137551858Y-63037124D01*
X137731203Y-63244897D01*
X137954931Y-63403893D01*
X138210126Y-63504932D01*
X138482058Y-63542182D01*
X138755024Y-63513491D01*
X139013267Y-63420518D01*
X139241879Y-63268628D01*
X139270631Y-63237360D01*
X140693659Y-63237360D01*
X141082272Y-63543718D01*
X141410150Y-63749794D01*
X141758068Y-63919861D01*
X142122089Y-64051994D01*
X142498090Y-64144698D01*
X142881813Y-64196919D01*
X143268913Y-64208070D01*
X143655006Y-64178023D01*
X144035719Y-64107119D01*
X144406742Y-63996159D01*
X144763874Y-63846401D01*
X145103070Y-63659541D01*
X145420489Y-63437694D01*
X145650539Y-63237360D01*
X166693659Y-63237360D01*
X167082272Y-63543718D01*
X167410150Y-63749794D01*
X167758068Y-63919861D01*
X168122089Y-64051994D01*
X168498090Y-64144698D01*
X168881813Y-64196919D01*
X169268913Y-64208070D01*
X169655006Y-64178023D01*
X170035719Y-64107119D01*
X170406742Y-63996159D01*
X170763874Y-63846401D01*
X171103070Y-63659541D01*
X171420489Y-63437694D01*
X171658986Y-63230005D01*
X169180000Y-60751019D01*
X166693659Y-63237360D01*
X145650539Y-63237360D01*
X145658986Y-63230005D01*
X143180000Y-60751019D01*
X140693659Y-63237360D01*
X139270631Y-63237360D01*
X139427661Y-63066592D01*
X139559888Y-62826072D01*
X139631099Y-62560308D01*
X139634209Y-62263416D01*
X139568579Y-61996218D01*
X139441417Y-61752981D01*
X139359000Y-61659497D01*
X139359000Y-60563649D01*
X139540848Y-60563649D01*
X139560778Y-60950395D01*
X139621694Y-61332834D01*
X139722903Y-61706636D01*
X139863260Y-62067565D01*
X140041177Y-62411536D01*
X140254639Y-62734653D01*
X140516830Y-63052151D01*
X142998981Y-60570000D01*
X143361019Y-60570000D01*
X145838548Y-63047529D01*
X145975904Y-62899460D01*
X146207612Y-62589166D01*
X146405034Y-62256007D01*
X146565935Y-61903756D01*
X146688494Y-61536401D01*
X146771322Y-61158102D01*
X146813488Y-60773089D01*
X146813854Y-60563649D01*
X165540848Y-60563649D01*
X165560778Y-60950395D01*
X165621694Y-61332834D01*
X165722903Y-61706636D01*
X165863260Y-62067565D01*
X166041177Y-62411536D01*
X166254639Y-62734653D01*
X166516830Y-63052151D01*
X168998981Y-60570000D01*
X169361019Y-60570000D01*
X171838548Y-63047529D01*
X171975904Y-62899460D01*
X172207612Y-62589166D01*
X172405034Y-62256007D01*
X172565935Y-61903756D01*
X172688494Y-61536401D01*
X172771322Y-61158102D01*
X172813488Y-60773089D01*
X172814176Y-60379596D01*
X172773354Y-59994438D01*
X172691847Y-59615852D01*
X172570571Y-59248071D01*
X172410899Y-58895261D01*
X172214642Y-58561415D01*
X171984018Y-58250315D01*
X171838586Y-58092433D01*
X169361019Y-60570000D01*
X168998981Y-60570000D01*
X166517355Y-58088374D01*
X166262213Y-58395148D01*
X166047625Y-58717519D01*
X165868508Y-59060866D01*
X165726891Y-59421304D01*
X165624378Y-59794749D01*
X165562129Y-60176974D01*
X165540848Y-60563649D01*
X146813854Y-60563649D01*
X146814176Y-60379596D01*
X146773354Y-59994438D01*
X146691847Y-59615852D01*
X146570571Y-59248071D01*
X146410899Y-58895261D01*
X146214642Y-58561415D01*
X145984018Y-58250315D01*
X145838586Y-58092433D01*
X143361019Y-60570000D01*
X142998981Y-60570000D01*
X140517355Y-58088374D01*
X140262213Y-58395148D01*
X140047625Y-58717519D01*
X139868508Y-59060866D01*
X139726891Y-59421304D01*
X139624378Y-59794749D01*
X139562129Y-60176974D01*
X139540848Y-60563649D01*
X139359000Y-60563649D01*
X139359000Y-58818447D01*
X139452661Y-58716592D01*
X139584888Y-58476072D01*
X139656099Y-58210308D01*
X139657284Y-58097170D01*
X139750455Y-58003999D01*
X140795018Y-58003999D01*
X143180000Y-60388981D01*
X145564982Y-58003999D01*
X155549547Y-58003999D01*
X155640419Y-58094871D01*
X155639576Y-58175352D01*
X155702252Y-58442570D01*
X155826858Y-58687124D01*
X156006203Y-58894897D01*
X156229931Y-59053893D01*
X156485126Y-59154932D01*
X156757058Y-59192182D01*
X157030024Y-59163491D01*
X157288267Y-59070518D01*
X157516879Y-58918628D01*
X157702661Y-58716592D01*
X157834888Y-58476072D01*
X157906099Y-58210308D01*
X157909209Y-57913416D01*
X157906375Y-57901875D01*
X166692894Y-57901875D01*
X169180000Y-60388981D01*
X171658698Y-57910282D01*
X171430485Y-57710144D01*
X171113843Y-57487190D01*
X170775301Y-57299147D01*
X170418695Y-57148144D01*
X170048061Y-57035890D01*
X169667597Y-56963657D01*
X169281611Y-56932262D01*
X168894475Y-56942061D01*
X168510572Y-56992944D01*
X168134250Y-57084334D01*
X167769770Y-57215195D01*
X167421260Y-57384047D01*
X167092666Y-57588977D01*
X166692894Y-57901875D01*
X157906375Y-57901875D01*
X157843579Y-57646218D01*
X157716417Y-57402981D01*
X157534907Y-57197098D01*
X157309526Y-57040455D01*
X157053286Y-56942094D01*
X156816653Y-56912200D01*
X156550794Y-56646341D01*
X156536643Y-56623915D01*
X156465799Y-56561347D01*
X156442433Y-56537980D01*
X156422015Y-56522677D01*
X156357587Y-56465777D01*
X156326816Y-56451330D01*
X156299618Y-56430946D01*
X156219157Y-56400784D01*
X156140986Y-56364082D01*
X156108173Y-56359178D01*
X156075926Y-56347090D01*
X155979174Y-56339900D01*
X155953076Y-56335999D01*
X155926682Y-56335999D01*
X155837692Y-56329385D01*
X155806708Y-56335999D01*
X139498429Y-56335999D01*
X139472574Y-56330148D01*
X139378269Y-56335999D01*
X139345190Y-56335999D01*
X139319913Y-56339619D01*
X139234139Y-56344940D01*
X139202172Y-56356480D01*
X139168521Y-56361300D01*
X139090283Y-56396873D01*
X139009070Y-56426191D01*
X138982406Y-56445922D01*
X138951052Y-56460178D01*
X138877545Y-56523515D01*
X138856338Y-56539208D01*
X138837695Y-56557852D01*
X138770075Y-56616117D01*
X138752839Y-56642708D01*
X138482210Y-56913337D01*
X138258330Y-56939241D01*
X138001075Y-57034912D01*
X137774065Y-57189187D01*
X137590409Y-57393159D01*
X137460708Y-57635051D01*
X137392451Y-57900897D01*
X137389576Y-58175352D01*
X137452252Y-58442570D01*
X137576858Y-58687125D01*
X137691000Y-58819359D01*
X137691001Y-61603675D01*
X137565409Y-61743159D01*
X137435708Y-61985051D01*
X137367451Y-62250897D01*
X137364576Y-62525352D01*
X134804069Y-62525352D01*
X130330094Y-58051378D01*
X130267111Y-57764916D01*
X130136423Y-57482081D01*
X129948050Y-57233909D01*
X129710779Y-57031975D01*
X129435681Y-56885702D01*
X129135590Y-56801916D01*
X128824508Y-56784523D01*
X128516948Y-56834337D01*
X128227260Y-56949033D01*
X127968958Y-57123259D01*
X127754094Y-57348888D01*
X127592693Y-57615393D01*
X127492286Y-57910338D01*
X127484000Y-57984207D01*
X127484000Y-53009000D01*
X131731853Y-53009000D01*
X131836289Y-53120213D01*
X132093367Y-53296240D01*
X132382249Y-53412955D01*
X132689454Y-53464914D01*
X133000650Y-53449694D01*
X133145452Y-53410352D01*
X139949576Y-53410352D01*
X140012252Y-53677570D01*
X140136858Y-53922124D01*
X140316203Y-54129897D01*
X140539931Y-54288893D01*
X140795126Y-54389932D01*
X141067058Y-54427182D01*
X141340024Y-54398491D01*
X141598267Y-54305518D01*
X141826878Y-54153628D01*
X141858721Y-54119000D01*
X154965118Y-54119000D01*
X155154931Y-54253893D01*
X155410126Y-54354932D01*
X155682058Y-54392182D01*
X155955024Y-54363491D01*
X156213267Y-54270518D01*
X156337717Y-54187833D01*
X176353187Y-54187833D01*
X176554629Y-54369211D01*
X176877623Y-54603880D01*
X177223378Y-54803501D01*
X177588104Y-54965888D01*
X177967805Y-55089261D01*
X178358323Y-55172268D01*
X178755379Y-55214000D01*
X179154621Y-55214000D01*
X179551677Y-55172268D01*
X179942195Y-55089261D01*
X180321896Y-54965888D01*
X180686622Y-54803501D01*
X181032377Y-54603880D01*
X181355371Y-54369211D01*
X181556813Y-54187833D01*
X178955000Y-51586019D01*
X176353187Y-54187833D01*
X156337717Y-54187833D01*
X156441879Y-54118628D01*
X156627661Y-53916592D01*
X156759888Y-53676072D01*
X156831099Y-53410308D01*
X156834209Y-53113416D01*
X156768579Y-52846218D01*
X156641417Y-52602981D01*
X156459907Y-52397098D01*
X156234526Y-52240455D01*
X155978286Y-52142094D01*
X155705981Y-52107694D01*
X155433330Y-52139241D01*
X155176075Y-52234912D01*
X154949065Y-52389187D01*
X154893409Y-52451000D01*
X141861572Y-52451000D01*
X141844908Y-52432098D01*
X141619526Y-52275455D01*
X141363286Y-52177094D01*
X141090981Y-52142694D01*
X140818330Y-52174241D01*
X140561075Y-52269912D01*
X140334065Y-52424187D01*
X140150409Y-52628159D01*
X140020708Y-52870051D01*
X139952451Y-53135897D01*
X139949576Y-53410352D01*
X133145452Y-53410352D01*
X133301318Y-53368004D01*
X133577431Y-53223656D01*
X133816106Y-53023384D01*
X134006207Y-52776532D01*
X134138866Y-52494617D01*
X134207943Y-52190574D01*
X134209064Y-51869433D01*
X134142111Y-51564916D01*
X134011423Y-51282081D01*
X133953203Y-51205379D01*
X175146000Y-51205379D01*
X175146000Y-51604621D01*
X175187732Y-52001677D01*
X175270739Y-52392195D01*
X175394112Y-52771896D01*
X175556499Y-53136622D01*
X175756120Y-53482377D01*
X175990789Y-53805371D01*
X176172167Y-54006813D01*
X178773981Y-51405000D01*
X179136019Y-51405000D01*
X181737833Y-54006813D01*
X181919211Y-53805371D01*
X182153880Y-53482377D01*
X182353501Y-53136622D01*
X182515888Y-52771896D01*
X182639261Y-52392195D01*
X182722268Y-52001677D01*
X182764000Y-51604621D01*
X182764000Y-51205379D01*
X182722268Y-50808323D01*
X182639261Y-50417805D01*
X182515888Y-50038104D01*
X182353501Y-49673378D01*
X182153880Y-49327623D01*
X181919211Y-49004629D01*
X181737833Y-48803187D01*
X179136019Y-51405000D01*
X178773981Y-51405000D01*
X176172167Y-48803187D01*
X175990789Y-49004629D01*
X175756120Y-49327623D01*
X175556499Y-49673378D01*
X175394112Y-50038104D01*
X175270739Y-50417805D01*
X175187732Y-50808323D01*
X175146000Y-51205379D01*
X133953203Y-51205379D01*
X133823050Y-51033909D01*
X133585779Y-50831975D01*
X133310681Y-50685702D01*
X133010590Y-50601916D01*
X132699508Y-50584523D01*
X132391948Y-50634337D01*
X132102260Y-50749033D01*
X131843958Y-50923259D01*
X131827063Y-50941000D01*
X127245151Y-50941000D01*
X127103474Y-50818236D01*
X126885324Y-50718611D01*
X126656955Y-50685776D01*
X126238510Y-50685776D01*
X125905922Y-50758127D01*
X125758638Y-50852780D01*
X125719848Y-50824598D01*
X125521283Y-50736191D01*
X125308678Y-50691001D01*
X125091323Y-50691001D01*
X124878717Y-50736191D01*
X124680154Y-50824598D01*
X124575001Y-50900996D01*
X124469848Y-50824598D01*
X124271284Y-50736191D01*
X124078000Y-50695106D01*
X124078000Y-53254895D01*
X124271284Y-53213809D01*
X124469846Y-53125402D01*
X124575000Y-53049004D01*
X124680152Y-53125402D01*
X124878717Y-53213809D01*
X125091322Y-53258999D01*
X125308677Y-53258999D01*
X125416001Y-53236187D01*
X125416000Y-59258467D01*
X125416001Y-59258474D01*
X125416000Y-60039702D01*
X123572939Y-61882763D01*
X123688494Y-61536401D01*
X123771322Y-61158102D01*
X123813488Y-60773089D01*
X123814176Y-60379596D01*
X123773354Y-59994438D01*
X123691847Y-59615852D01*
X123570571Y-59248071D01*
X123410899Y-58895261D01*
X123214642Y-58561415D01*
X122984018Y-58250315D01*
X122838586Y-58092433D01*
X120180000Y-60751020D01*
X117517355Y-58088374D01*
X117314000Y-58332881D01*
X117314000Y-57901875D01*
X117692894Y-57901875D01*
X120180000Y-60388981D01*
X122658698Y-57910282D01*
X122430485Y-57710144D01*
X122113843Y-57487190D01*
X121775301Y-57299147D01*
X121418695Y-57148144D01*
X121048061Y-57035890D01*
X120667597Y-56963657D01*
X120281611Y-56932262D01*
X119894475Y-56942061D01*
X119510572Y-56992944D01*
X119134250Y-57084334D01*
X118769770Y-57215195D01*
X118421260Y-57384047D01*
X118092666Y-57588977D01*
X117692894Y-57901875D01*
X117314000Y-57901875D01*
X117314000Y-56840256D01*
X117506317Y-56788005D01*
X117782430Y-56643657D01*
X118021105Y-56443385D01*
X118211206Y-56196533D01*
X118343865Y-55914618D01*
X118411412Y-55617305D01*
X120914608Y-53114109D01*
X120930152Y-53125402D01*
X121128717Y-53213809D01*
X121341322Y-53258999D01*
X121558677Y-53258999D01*
X121771283Y-53213809D01*
X121969846Y-53125402D01*
X122075000Y-53049004D01*
X122180152Y-53125402D01*
X122378716Y-53213809D01*
X122572000Y-53254894D01*
X122572000Y-50695106D01*
X122828000Y-50695106D01*
X122828000Y-53254895D01*
X123021284Y-53213809D01*
X123219846Y-53125402D01*
X123325000Y-53049004D01*
X123430152Y-53125402D01*
X123628716Y-53213809D01*
X123822000Y-53254894D01*
X123822000Y-50695105D01*
X123628716Y-50736191D01*
X123430154Y-50824598D01*
X123325001Y-50900996D01*
X123219848Y-50824598D01*
X123021284Y-50736191D01*
X122828000Y-50695106D01*
X122572000Y-50695106D01*
X122572000Y-50695105D01*
X122378716Y-50736191D01*
X122180154Y-50824598D01*
X122075001Y-50900996D01*
X121969848Y-50824598D01*
X121771283Y-50736191D01*
X121558678Y-50691001D01*
X121341323Y-50691001D01*
X121128717Y-50736191D01*
X120930154Y-50824598D01*
X120825001Y-50900996D01*
X120719848Y-50824598D01*
X120521283Y-50736191D01*
X120308678Y-50691001D01*
X120091323Y-50691001D01*
X119878717Y-50736191D01*
X119680154Y-50824598D01*
X119504309Y-50952356D01*
X119358871Y-51113882D01*
X119250191Y-51302117D01*
X119183025Y-51508835D01*
X119167824Y-51653458D01*
X116799801Y-54021483D01*
X116596947Y-54054338D01*
X116307259Y-54169034D01*
X116048957Y-54343260D01*
X115834093Y-54568889D01*
X115672692Y-54835394D01*
X115572285Y-55130339D01*
X115557293Y-55263991D01*
X115405953Y-55415331D01*
X115331091Y-55480637D01*
X115269264Y-55568607D01*
X115202899Y-55653246D01*
X115190537Y-55680624D01*
X115173268Y-55705196D01*
X115134209Y-55805377D01*
X115089950Y-55903400D01*
X115084477Y-55932936D01*
X115073446Y-55961228D01*
X115061058Y-56059291D01*
X115039932Y-56173274D01*
X115046001Y-56278520D01*
X115046000Y-62670692D01*
X115039245Y-62769784D01*
X115057731Y-62875704D01*
X115070651Y-62982481D01*
X115081271Y-63010586D01*
X115086434Y-63040166D01*
X115129651Y-63138621D01*
X115167670Y-63239232D01*
X115184683Y-63263987D01*
X115196890Y-63291795D01*
X115257481Y-63369909D01*
X115323132Y-63465431D01*
X115401851Y-63535568D01*
X115982283Y-64116000D01*
X111974000Y-64116000D01*
X111974000Y-62461969D01*
X112105797Y-62284828D01*
X112219936Y-62060334D01*
X112294618Y-61819819D01*
X112327708Y-61570159D01*
X112318260Y-61318492D01*
X112266544Y-61072017D01*
X112174039Y-60837778D01*
X112043390Y-60622473D01*
X111974000Y-60542510D01*
X111974000Y-59709317D01*
X111980756Y-59610215D01*
X111962268Y-59504283D01*
X111949349Y-59397517D01*
X111938729Y-59369413D01*
X111933566Y-59339833D01*
X111890349Y-59241379D01*
X111852330Y-59140765D01*
X111835317Y-59116013D01*
X111823110Y-59088204D01*
X111762523Y-59010097D01*
X111696869Y-58914569D01*
X111618157Y-58844439D01*
X107634000Y-54860284D01*
X107634000Y-54504066D01*
X107766405Y-54365514D01*
X107916893Y-54144907D01*
X108029329Y-53902683D01*
X108100901Y-53644602D01*
X108124000Y-53400243D01*
X108124000Y-52478000D01*
X109868163Y-52478000D01*
X109868163Y-54346588D01*
X109948795Y-54647512D01*
X110096185Y-54823165D01*
X110289814Y-54934956D01*
X110498976Y-54971837D01*
X111372000Y-54971837D01*
X111372000Y-52478000D01*
X111628000Y-52478000D01*
X111628000Y-54971837D01*
X112506588Y-54971837D01*
X112807512Y-54891205D01*
X112983165Y-54743815D01*
X113094956Y-54550186D01*
X113131837Y-54341024D01*
X113131837Y-52478000D01*
X111628000Y-52478000D01*
X111372000Y-52478000D01*
X109868163Y-52478000D01*
X108124000Y-52478000D01*
X108124000Y-51292396D01*
X108107677Y-51093851D01*
X108042620Y-50834850D01*
X107936135Y-50589951D01*
X107791082Y-50365733D01*
X107784934Y-50358976D01*
X109868163Y-50358976D01*
X109868163Y-52222000D01*
X111372000Y-52222000D01*
X111372000Y-49728163D01*
X111628000Y-49728163D01*
X111628000Y-52222000D01*
X113131837Y-52222000D01*
X113131837Y-50353412D01*
X113051205Y-50052489D01*
X112903815Y-49876835D01*
X112710186Y-49765044D01*
X112501024Y-49728163D01*
X111628000Y-49728163D01*
X111372000Y-49728163D01*
X110493412Y-49728163D01*
X110192489Y-49808795D01*
X110016835Y-49956185D01*
X109905044Y-50149814D01*
X109868163Y-50358976D01*
X107784934Y-50358976D01*
X107611356Y-50168216D01*
X107401784Y-50002707D01*
X107167994Y-49873647D01*
X106916264Y-49784505D01*
X106653355Y-49737674D01*
X106386329Y-49734412D01*
X106122354Y-49774805D01*
X105868522Y-49857770D01*
X105631648Y-49981079D01*
X105418095Y-50141420D01*
X105233596Y-50334486D01*
X105083108Y-50555093D01*
X104970672Y-50797317D01*
X104899100Y-51055398D01*
X104876001Y-51299757D01*
X104876000Y-53407603D01*
X104892323Y-53606148D01*
X104957380Y-53865149D01*
X105063865Y-54110048D01*
X105208918Y-54334266D01*
X105366001Y-54506898D01*
X105366001Y-55290678D01*
X105359245Y-55389784D01*
X105377731Y-55495704D01*
X105390652Y-55602483D01*
X105401271Y-55630583D01*
X105406433Y-55660165D01*
X105449653Y-55758625D01*
X105487671Y-55859234D01*
X105504684Y-55883987D01*
X105516891Y-55911795D01*
X105577475Y-55989901D01*
X105643133Y-56085432D01*
X105721844Y-56155561D01*
X109706000Y-60139717D01*
X109706000Y-60326286D01*
X109563815Y-60156835D01*
X109370186Y-60045044D01*
X109161024Y-60008163D01*
X107433412Y-60008163D01*
X107132489Y-60088795D01*
X106961622Y-60232168D01*
X106570794Y-59841341D01*
X106556645Y-59818916D01*
X106485798Y-59756346D01*
X106462433Y-59732980D01*
X106442015Y-59717677D01*
X106377587Y-59660777D01*
X106346816Y-59646330D01*
X106319618Y-59625946D01*
X106239157Y-59595784D01*
X106160986Y-59559082D01*
X106128173Y-59554178D01*
X106095926Y-59542090D01*
X105999174Y-59534900D01*
X105973076Y-59530999D01*
X105946682Y-59530999D01*
X105857692Y-59524385D01*
X105826708Y-59530999D01*
X102166862Y-59530999D01*
X102215429Y-59397564D01*
X102259000Y-59150459D01*
X102259000Y-58899541D01*
X102215429Y-58652436D01*
X102129609Y-58416651D01*
X102004150Y-58199349D01*
X101842864Y-58007136D01*
X101650651Y-57845850D01*
X101433349Y-57720391D01*
X101197564Y-57634571D01*
X100950459Y-57591000D01*
X100699541Y-57591000D01*
X100452436Y-57634571D01*
X100216651Y-57720391D01*
X99999349Y-57845850D01*
X99807136Y-58007136D01*
X99645850Y-58199349D01*
X99555000Y-58356706D01*
X99464150Y-58199349D01*
X99302864Y-58007136D01*
X99110651Y-57845850D01*
X98893349Y-57720391D01*
X98657564Y-57634571D01*
X98410459Y-57591000D01*
X98159541Y-57591000D01*
X97912436Y-57634571D01*
X97676651Y-57720391D01*
X97459349Y-57845850D01*
X97267136Y-58007136D01*
X97105850Y-58199349D01*
X97015000Y-58356706D01*
X96924150Y-58199349D01*
X96762864Y-58007136D01*
X96570651Y-57845850D01*
X96353349Y-57720391D01*
X96117564Y-57634571D01*
X95870459Y-57591000D01*
X95619541Y-57591000D01*
X95372436Y-57634571D01*
X95136651Y-57720391D01*
X94919349Y-57845850D01*
X94727136Y-58007136D01*
X94565850Y-58199349D01*
X94475000Y-58356706D01*
X94384150Y-58199349D01*
X94222864Y-58007136D01*
X94030651Y-57845850D01*
X93813349Y-57720391D01*
X93797898Y-57714767D01*
X93821677Y-57712268D01*
X94212195Y-57629261D01*
X94591896Y-57505888D01*
X94956622Y-57343501D01*
X95302377Y-57143880D01*
X95625371Y-56909211D01*
X95826813Y-56727833D01*
X93225000Y-54126019D01*
X90623187Y-56727833D01*
X90824629Y-56909211D01*
X91147623Y-57143880D01*
X91493378Y-57343501D01*
X91858104Y-57505888D01*
X92237805Y-57629261D01*
X92622417Y-57711013D01*
X92596651Y-57720391D01*
X92379349Y-57845850D01*
X92187136Y-58007136D01*
X92025850Y-58199349D01*
X91900391Y-58416651D01*
X91814571Y-58652436D01*
X91771000Y-58899541D01*
X91771000Y-59150459D01*
X91814571Y-59397564D01*
X91900391Y-59633349D01*
X92025850Y-59850651D01*
X92187136Y-60042864D01*
X92379349Y-60204150D01*
X92536706Y-60295000D01*
X92379349Y-60385850D01*
X92187136Y-60547136D01*
X92025850Y-60739349D01*
X91900391Y-60956651D01*
X91814571Y-61192436D01*
X91771000Y-61439541D01*
X91771000Y-61690459D01*
X91814571Y-61937564D01*
X91900391Y-62173349D01*
X92025850Y-62390651D01*
X92187136Y-62582864D01*
X92379349Y-62744150D01*
X92536706Y-62835000D01*
X92379349Y-62925850D01*
X92187136Y-63087136D01*
X92025850Y-63279349D01*
X91900391Y-63496651D01*
X91814571Y-63732436D01*
X91771000Y-63979541D01*
X91771000Y-64230459D01*
X91814571Y-64477564D01*
X91900391Y-64713349D01*
X92025850Y-64930651D01*
X92187136Y-65122864D01*
X92379349Y-65284150D01*
X92536706Y-65375000D01*
X92379349Y-65465850D01*
X92187136Y-65627136D01*
X92025850Y-65819349D01*
X91900391Y-66036651D01*
X91814571Y-66272436D01*
X91771000Y-66519541D01*
X91771000Y-66770459D01*
X91814571Y-67017564D01*
X91900391Y-67253349D01*
X92025850Y-67470651D01*
X92187136Y-67662864D01*
X92379349Y-67824150D01*
X92536706Y-67915000D01*
X92379349Y-68005850D01*
X92187136Y-68167136D01*
X92025850Y-68359349D01*
X91900391Y-68576651D01*
X91814571Y-68812436D01*
X91771000Y-69059541D01*
X91771000Y-69310459D01*
X91814571Y-69557564D01*
X91900391Y-69793349D01*
X92025850Y-70010651D01*
X92187136Y-70202864D01*
X92379349Y-70364150D01*
X92536706Y-70455000D01*
X92379349Y-70545850D01*
X92187136Y-70707136D01*
X92025850Y-70899349D01*
X91900391Y-71116651D01*
X91814571Y-71352436D01*
X91771000Y-71599541D01*
X91771000Y-71850459D01*
X91814571Y-72097564D01*
X91900391Y-72333349D01*
X92025850Y-72550651D01*
X92187136Y-72742864D01*
X92379349Y-72904150D01*
X92536706Y-72995000D01*
X92379349Y-73085850D01*
X92187136Y-73247136D01*
X92025850Y-73439349D01*
X91900391Y-73656651D01*
X91814571Y-73892436D01*
X91771000Y-74139541D01*
X91771000Y-74390459D01*
X91814571Y-74637564D01*
X91900391Y-74873349D01*
X92025850Y-75090651D01*
X92187136Y-75282864D01*
X92379349Y-75444150D01*
X92536706Y-75535000D01*
X92379349Y-75625850D01*
X92187136Y-75787136D01*
X92025850Y-75979349D01*
X91900391Y-76196651D01*
X91814571Y-76432436D01*
X91771000Y-76679541D01*
X91771000Y-76930459D01*
X91814571Y-77177564D01*
X91900391Y-77413349D01*
X92025850Y-77630651D01*
X92187136Y-77822864D01*
X92379349Y-77984150D01*
X92536706Y-78075000D01*
X92379349Y-78165850D01*
X92187136Y-78327136D01*
X92025850Y-78519349D01*
X91900391Y-78736651D01*
X91814571Y-78972436D01*
X91771000Y-79219541D01*
X91771000Y-79470459D01*
X91814571Y-79717564D01*
X91900391Y-79953349D01*
X92025850Y-80170651D01*
X92187136Y-80362864D01*
X92379349Y-80524150D01*
X92536706Y-80615000D01*
X92379349Y-80705850D01*
X92187136Y-80867136D01*
X92025850Y-81059349D01*
X91900391Y-81276651D01*
X91814571Y-81512436D01*
X91771000Y-81759541D01*
X91771000Y-82010459D01*
X91814571Y-82257564D01*
X91900391Y-82493349D01*
X92025850Y-82710651D01*
X92187136Y-82902864D01*
X92379349Y-83064150D01*
X92536706Y-83155000D01*
X92270001Y-83308982D01*
X93205000Y-84243981D01*
X94139999Y-83308982D01*
X93873294Y-83155000D01*
X94030651Y-83064150D01*
X94222864Y-82902864D01*
X94384150Y-82710651D01*
X94475000Y-82553294D01*
X94565850Y-82710651D01*
X94727136Y-82902864D01*
X94919349Y-83064150D01*
X95076706Y-83155000D01*
X94919349Y-83245850D01*
X94727136Y-83407136D01*
X94565850Y-83599349D01*
X94475000Y-83756706D01*
X94321018Y-83490001D01*
X93386019Y-84425000D01*
X94321018Y-85359999D01*
X94475000Y-85093294D01*
X94565850Y-85250651D01*
X94727136Y-85442864D01*
X94919349Y-85604150D01*
X95076706Y-85695000D01*
X94810001Y-85848982D01*
X95745000Y-86783981D01*
X96679999Y-85848982D01*
X96413294Y-85695000D01*
X96570651Y-85604150D01*
X96762864Y-85442864D01*
X96924150Y-85250651D01*
X97015000Y-85093294D01*
X97105850Y-85250651D01*
X97267136Y-85442864D01*
X97459349Y-85604150D01*
X97616706Y-85695000D01*
X97459349Y-85785850D01*
X97267136Y-85947136D01*
X97105850Y-86139349D01*
X97015000Y-86296706D01*
X96861018Y-86030001D01*
X95926019Y-86965000D01*
X96861018Y-87899999D01*
X97015000Y-87633294D01*
X97083172Y-87751371D01*
X96531372Y-88303172D01*
X96413294Y-88235000D01*
X96679999Y-88081018D01*
X95745000Y-87146019D01*
X94810001Y-88081018D01*
X95076706Y-88235000D01*
X94919349Y-88325850D01*
X94727136Y-88487136D01*
X94614810Y-88621000D01*
X94335190Y-88621000D01*
X94222864Y-88487136D01*
X94030651Y-88325850D01*
X93873294Y-88235000D01*
X94139999Y-88081018D01*
X93205000Y-87146019D01*
X92270001Y-88081018D01*
X92536706Y-88235000D01*
X92379349Y-88325850D01*
X92187136Y-88487136D01*
X92025850Y-88679349D01*
X91900391Y-88896651D01*
X91814571Y-89132436D01*
X91771000Y-89379541D01*
X91771000Y-89630459D01*
X91814571Y-89877564D01*
X91900391Y-90113349D01*
X92025850Y-90330651D01*
X92187136Y-90522864D01*
X92379349Y-90684150D01*
X92536706Y-90775000D01*
X92379349Y-90865850D01*
X92187136Y-91027136D01*
X92025850Y-91219349D01*
X91900391Y-91436651D01*
X91814571Y-91672436D01*
X91771000Y-91919541D01*
X91771000Y-92170459D01*
X91814571Y-92417564D01*
X91900391Y-92653349D01*
X92025850Y-92870651D01*
X92187136Y-93062864D01*
X92379349Y-93224150D01*
X92536706Y-93315000D01*
X92379349Y-93405850D01*
X92187136Y-93567136D01*
X92025850Y-93759349D01*
X91900391Y-93976651D01*
X91814571Y-94212436D01*
X91771000Y-94459541D01*
X91771000Y-94710459D01*
X91814571Y-94957564D01*
X91900391Y-95193349D01*
X92025850Y-95410651D01*
X92187136Y-95602864D01*
X92379349Y-95764150D01*
X92536706Y-95855000D01*
X92379349Y-95945850D01*
X92187136Y-96107136D01*
X92025850Y-96299349D01*
X91900391Y-96516651D01*
X91814571Y-96752436D01*
X91771000Y-96999541D01*
X91771000Y-97250459D01*
X91814571Y-97497564D01*
X91900391Y-97733349D01*
X92025850Y-97950651D01*
X92187136Y-98142864D01*
X92379349Y-98304150D01*
X92536706Y-98395000D01*
X92379349Y-98485850D01*
X92187136Y-98647136D01*
X92025850Y-98839349D01*
X91900391Y-99056651D01*
X91814571Y-99292436D01*
X91771000Y-99539541D01*
X91771000Y-99790459D01*
X91814571Y-100037564D01*
X91900391Y-100273349D01*
X92000051Y-100445966D01*
X91994072Y-100451118D01*
X91976841Y-100477702D01*
X91481340Y-100973205D01*
X91458916Y-100987353D01*
X91396348Y-101058198D01*
X91372979Y-101081567D01*
X91357671Y-101101992D01*
X91300778Y-101166411D01*
X91286332Y-101197178D01*
X91265946Y-101224380D01*
X91235780Y-101304850D01*
X91229000Y-101319290D01*
X91229000Y-86839541D01*
X91771000Y-86839541D01*
X91771000Y-87090459D01*
X91814571Y-87337564D01*
X91900391Y-87573349D01*
X92088982Y-87899999D01*
X93023981Y-86965000D01*
X93386019Y-86965000D01*
X94321018Y-87899999D01*
X94475000Y-87633294D01*
X94628982Y-87899999D01*
X95563981Y-86965000D01*
X94628982Y-86030001D01*
X94475000Y-86296706D01*
X94321018Y-86030001D01*
X93386019Y-86965000D01*
X93023981Y-86965000D01*
X92088982Y-86030001D01*
X91900391Y-86356651D01*
X91814571Y-86592436D01*
X91771000Y-86839541D01*
X91229000Y-86839541D01*
X91229000Y-85848982D01*
X92270001Y-85848982D01*
X93205000Y-86783981D01*
X94139999Y-85848982D01*
X93873294Y-85695000D01*
X94139999Y-85541018D01*
X93205000Y-84606019D01*
X92270001Y-85541018D01*
X92536706Y-85695000D01*
X92270001Y-85848982D01*
X91229000Y-85848982D01*
X91229000Y-85541018D01*
X91229000Y-84299541D01*
X91771000Y-84299541D01*
X91771000Y-84550459D01*
X91814571Y-84797564D01*
X91900391Y-85033349D01*
X92088982Y-85359999D01*
X93023981Y-84425000D01*
X92088982Y-83490001D01*
X91900391Y-83816651D01*
X91814571Y-84052436D01*
X91771000Y-84299541D01*
X91229000Y-84299541D01*
X91229000Y-71876010D01*
X91233445Y-71856368D01*
X91229000Y-71784728D01*
X91229000Y-71759553D01*
X91226245Y-71740316D01*
X91222200Y-71675111D01*
X91213427Y-71650810D01*
X91209764Y-71625232D01*
X91182720Y-71565751D01*
X91160402Y-71503930D01*
X91145383Y-71483631D01*
X91134597Y-71459911D01*
X91086681Y-71404302D01*
X91074638Y-71388027D01*
X91060326Y-71373716D01*
X91016054Y-71322336D01*
X90995852Y-71309242D01*
X88729000Y-69042390D01*
X88729000Y-54008210D01*
X88732802Y-53989268D01*
X88733599Y-53973269D01*
X88743548Y-53745379D01*
X89416000Y-53745379D01*
X89416000Y-54144621D01*
X89457732Y-54541677D01*
X89540739Y-54932195D01*
X89664112Y-55311896D01*
X89826499Y-55676622D01*
X90026120Y-56022377D01*
X90260789Y-56345371D01*
X90442167Y-56546813D01*
X93043981Y-53945000D01*
X93406019Y-53945000D01*
X96007833Y-56546813D01*
X96189211Y-56345371D01*
X96423880Y-56022377D01*
X96623501Y-55676622D01*
X96785888Y-55311896D01*
X96909261Y-54932195D01*
X96992268Y-54541677D01*
X97034000Y-54144621D01*
X97034000Y-53745379D01*
X96992268Y-53348323D01*
X96909261Y-52957805D01*
X96785888Y-52578104D01*
X96623501Y-52213378D01*
X96423880Y-51867623D01*
X96189211Y-51544629D01*
X96007833Y-51343187D01*
X93406019Y-53945000D01*
X93043981Y-53945000D01*
X90442167Y-51343187D01*
X90260789Y-51544629D01*
X90026120Y-51867623D01*
X89826499Y-52213378D01*
X89664112Y-52578104D01*
X89540739Y-52957805D01*
X89457732Y-53348323D01*
X89416000Y-53745379D01*
X88743548Y-53745379D01*
X88751920Y-53553647D01*
X88803048Y-53165291D01*
X88887832Y-52782858D01*
X89005620Y-52409280D01*
X89155528Y-52047369D01*
X89336398Y-51699921D01*
X89546873Y-51369542D01*
X89705997Y-51162167D01*
X90623187Y-51162167D01*
X93225000Y-53763981D01*
X95826813Y-51162167D01*
X95625371Y-50980789D01*
X95302377Y-50746120D01*
X94956622Y-50546499D01*
X94591896Y-50384112D01*
X94212195Y-50260739D01*
X93821677Y-50177732D01*
X93424621Y-50136000D01*
X93025379Y-50136000D01*
X92628323Y-50177732D01*
X92237805Y-50260739D01*
X91858104Y-50384112D01*
X91493378Y-50546499D01*
X91147623Y-50746120D01*
X90824629Y-50980789D01*
X90623187Y-51162167D01*
X89705997Y-51162167D01*
X89785329Y-51058781D01*
X90049972Y-50769972D01*
X90338768Y-50505339D01*
X90649550Y-50266868D01*
X90979921Y-50056398D01*
X91327369Y-49875528D01*
X91689288Y-49725617D01*
X92062861Y-49607832D01*
X92445291Y-49523048D01*
X92833647Y-49471920D01*
X93261850Y-49453225D01*
X93284314Y-49449000D01*
X98333991Y-49449000D01*
X98353633Y-49453445D01*
X98425272Y-49449000D01*
X98450447Y-49449000D01*
X98469683Y-49446245D01*
X98534885Y-49442200D01*
X98559188Y-49433427D01*
X98584772Y-49429763D01*
X98644250Y-49402719D01*
X98706068Y-49380403D01*
X98726365Y-49365384D01*
X98750089Y-49354597D01*
X98805701Y-49306678D01*
X98821970Y-49294640D01*
X98836276Y-49280333D01*
X98887664Y-49236054D01*
X98900761Y-49215848D01*
X101657610Y-46459000D01*
X134599903Y-46459000D01*
X134497543Y-46537543D01*
X134455927Y-46591778D01*
X133397354Y-47650351D01*
X133296612Y-47653517D01*
X133052863Y-47705328D01*
X132822141Y-47799484D01*
X132611739Y-47933009D01*
X132428308Y-48101683D01*
X132277645Y-48300173D01*
X132164513Y-48522208D01*
X132092489Y-48760766D01*
X132063847Y-49008310D01*
X132079494Y-49257013D01*
X132138934Y-49499014D01*
X132240291Y-49726664D01*
X132380360Y-49932768D01*
X132554711Y-50110811D01*
X132757837Y-50255164D01*
X132983315Y-50361266D01*
X133224019Y-50425762D01*
X133472339Y-50446615D01*
X133720428Y-50423164D01*
X133960442Y-50356150D01*
X134184796Y-50247693D01*
X134358620Y-50121403D01*
X135109616Y-50121403D01*
X135297837Y-50255164D01*
X135523315Y-50361266D01*
X135764019Y-50425762D01*
X136012339Y-50446615D01*
X136260428Y-50423164D01*
X136500442Y-50356150D01*
X136724796Y-50247693D01*
X136899643Y-50120662D01*
X136005000Y-49226019D01*
X135109616Y-50121403D01*
X134358620Y-50121403D01*
X134386399Y-50101221D01*
X134558878Y-49921362D01*
X134696780Y-49713802D01*
X134735119Y-49625206D01*
X134780291Y-49726664D01*
X134926773Y-49942208D01*
X136005000Y-48863980D01*
X137084309Y-49943290D01*
X137236780Y-49713802D01*
X137275119Y-49625206D01*
X137320291Y-49726664D01*
X137460360Y-49932768D01*
X137634711Y-50110811D01*
X137837837Y-50255164D01*
X138063315Y-50361266D01*
X138304019Y-50425762D01*
X138552339Y-50446615D01*
X138800428Y-50423164D01*
X139040442Y-50356150D01*
X139264796Y-50247693D01*
X139466399Y-50101221D01*
X139638878Y-49921362D01*
X139776780Y-49713802D01*
X139815119Y-49625206D01*
X139860291Y-49726664D01*
X140000360Y-49932768D01*
X140174711Y-50110811D01*
X140377837Y-50255164D01*
X140603315Y-50361266D01*
X140844019Y-50425762D01*
X141092339Y-50446615D01*
X141340428Y-50423164D01*
X141580442Y-50356150D01*
X141804796Y-50247693D01*
X142006399Y-50101221D01*
X142073352Y-50031403D01*
X151384616Y-50031403D01*
X151572837Y-50165164D01*
X151798315Y-50271266D01*
X152039019Y-50335762D01*
X152287339Y-50356615D01*
X152535428Y-50333164D01*
X152775442Y-50266150D01*
X152999796Y-50157693D01*
X153174643Y-50030662D01*
X152280000Y-49136019D01*
X151384616Y-50031403D01*
X142073352Y-50031403D01*
X142178878Y-49921362D01*
X142316780Y-49713802D01*
X142415747Y-49485102D01*
X142473031Y-49240872D01*
X142481380Y-48922041D01*
X142436956Y-48675147D01*
X142350094Y-48441581D01*
X142271686Y-48309000D01*
X151042291Y-48309000D01*
X150979513Y-48432208D01*
X150907489Y-48670766D01*
X150878847Y-48918310D01*
X150894494Y-49167013D01*
X150953934Y-49409014D01*
X151055291Y-49636664D01*
X151201773Y-49852208D01*
X152280000Y-48773980D01*
X153359309Y-49853290D01*
X153511780Y-49623802D01*
X153559976Y-49512426D01*
X153615291Y-49636664D01*
X153755360Y-49842768D01*
X153929711Y-50020811D01*
X154132837Y-50165164D01*
X154358315Y-50271266D01*
X154599019Y-50335762D01*
X154847339Y-50356615D01*
X155095428Y-50333164D01*
X155335442Y-50266150D01*
X155559796Y-50157693D01*
X155761399Y-50011221D01*
X155933878Y-49831362D01*
X156071780Y-49623802D01*
X156119976Y-49512426D01*
X156175291Y-49636664D01*
X156315360Y-49842768D01*
X156489711Y-50020811D01*
X156692837Y-50165164D01*
X156918315Y-50271266D01*
X157159019Y-50335762D01*
X157407339Y-50356615D01*
X157655428Y-50333164D01*
X157895442Y-50266150D01*
X158119796Y-50157693D01*
X158321399Y-50011221D01*
X158493878Y-49831362D01*
X158556932Y-49736458D01*
X158636795Y-50034512D01*
X158784185Y-50210165D01*
X158977814Y-50321956D01*
X159186976Y-50358837D01*
X160738588Y-50358837D01*
X161039512Y-50278205D01*
X161215165Y-50130815D01*
X161326956Y-49937186D01*
X161363837Y-49728024D01*
X161363837Y-48622167D01*
X176353187Y-48622167D01*
X178955000Y-51223981D01*
X181556813Y-48622167D01*
X181355371Y-48440789D01*
X181032377Y-48206120D01*
X180686622Y-48006499D01*
X180321896Y-47844112D01*
X179942195Y-47720739D01*
X179551677Y-47637732D01*
X179154621Y-47596000D01*
X178755379Y-47596000D01*
X178358323Y-47637732D01*
X177967805Y-47720739D01*
X177588104Y-47844112D01*
X177223378Y-48006499D01*
X176877623Y-48206120D01*
X176554629Y-48440789D01*
X176353187Y-48622167D01*
X161363837Y-48622167D01*
X161363837Y-48176412D01*
X161283205Y-47875489D01*
X161135815Y-47699835D01*
X160942186Y-47588044D01*
X160733024Y-47551163D01*
X159181412Y-47551163D01*
X158880489Y-47631795D01*
X158704835Y-47779185D01*
X158593044Y-47972814D01*
X158558144Y-48170739D01*
X158538244Y-48137089D01*
X158375414Y-47948449D01*
X158181754Y-47791627D01*
X157963384Y-47671576D01*
X157727205Y-47592093D01*
X157480684Y-47555690D01*
X157231612Y-47563517D01*
X156987863Y-47615328D01*
X156757141Y-47709484D01*
X156546739Y-47843009D01*
X156363308Y-48011683D01*
X156212645Y-48210173D01*
X156120073Y-48391857D01*
X156105094Y-48351581D01*
X155978244Y-48137089D01*
X155815414Y-47948449D01*
X155621754Y-47791627D01*
X155403384Y-47671576D01*
X155167205Y-47592093D01*
X154955617Y-47560848D01*
X154982943Y-47440574D01*
X154984064Y-47119433D01*
X154917111Y-46814916D01*
X154786423Y-46532081D01*
X154730951Y-46459000D01*
X183501000Y-46459000D01*
X183501001Y-57612755D01*
X178686640Y-62436650D01*
X178669875Y-62447227D01*
X178622126Y-62501291D01*
X178604147Y-62519306D01*
X178592706Y-62534603D01*
X178549657Y-62583347D01*
X178538540Y-62607027D01*
X178522876Y-62627970D01*
X178500119Y-62688862D01*
X178472311Y-62748091D01*
X178468533Y-62773370D01*
X178459298Y-62798079D01*
X178453959Y-62870883D01*
X178451000Y-62890690D01*
X178451000Y-62911253D01*
X178446019Y-62979196D01*
X178451000Y-63002418D01*
X178451001Y-75613986D01*
X178446555Y-75633633D01*
X178451001Y-75705289D01*
X178451001Y-75730446D01*
X178453755Y-75749677D01*
X178457800Y-75814887D01*
X178466575Y-75839195D01*
X178470238Y-75864770D01*
X178497277Y-75924241D01*
X178519598Y-75986070D01*
X178534619Y-76006369D01*
X178545403Y-76030088D01*
X178593317Y-76085693D01*
X178605361Y-76101971D01*
X178619675Y-76116284D01*
X178663947Y-76167664D01*
X178684149Y-76180758D01*
X183501000Y-80997611D01*
X183501001Y-90640085D01*
X178937081Y-94287442D01*
X178889874Y-94317228D01*
X178836218Y-94377981D01*
X178780772Y-94436986D01*
X178776260Y-94445871D01*
X178769657Y-94453348D01*
X178735217Y-94526703D01*
X178698554Y-94598910D01*
X178696716Y-94608708D01*
X178692311Y-94618093D01*
X178681915Y-94687647D01*
X178665087Y-94777407D01*
X178671000Y-94836847D01*
X178671001Y-113016643D01*
X178667900Y-113029024D01*
X178671001Y-113108403D01*
X178671001Y-113140449D01*
X178672723Y-113152471D01*
X178674989Y-113210485D01*
X178685536Y-113241938D01*
X178690238Y-113274770D01*
X178714268Y-113327622D01*
X178732726Y-113382667D01*
X178751674Y-113409892D01*
X178765403Y-113440088D01*
X178803301Y-113484070D01*
X178836692Y-113532048D01*
X178861981Y-113552171D01*
X178883946Y-113577663D01*
X178938217Y-113612840D01*
X178949511Y-113621827D01*
X178973146Y-113635479D01*
X179036338Y-113676439D01*
X179052337Y-113681224D01*
X183501000Y-116250949D01*
X183501001Y-135061000D01*
X180059950Y-135061000D01*
X180321896Y-134975888D01*
X180686622Y-134813501D01*
X181032377Y-134613880D01*
X181355371Y-134379211D01*
X181556813Y-134197833D01*
X178955000Y-131596019D01*
X176353187Y-134197833D01*
X176554629Y-134379211D01*
X176877623Y-134613880D01*
X177223378Y-134813501D01*
X177588104Y-134975888D01*
X177850050Y-135061000D01*
X171859000Y-135061000D01*
X171859000Y-131215379D01*
X175146000Y-131215379D01*
X175146000Y-131614621D01*
X175187732Y-132011677D01*
X175270739Y-132402195D01*
X175394112Y-132781896D01*
X175556499Y-133146622D01*
X175756120Y-133492377D01*
X175990789Y-133815371D01*
X176172167Y-134016813D01*
X178773981Y-131415000D01*
X179136019Y-131415000D01*
X181737833Y-134016813D01*
X181919211Y-133815371D01*
X182153880Y-133492377D01*
X182353501Y-133146622D01*
X182515888Y-132781896D01*
X182639261Y-132402195D01*
X182722268Y-132011677D01*
X182764000Y-131614621D01*
X182764000Y-131215379D01*
X182722268Y-130818323D01*
X182639261Y-130427805D01*
X182515888Y-130048104D01*
X182353501Y-129683378D01*
X182153880Y-129337623D01*
X181919211Y-129014629D01*
X181737833Y-128813187D01*
X179136019Y-131415000D01*
X178773981Y-131415000D01*
X176172167Y-128813187D01*
X175990789Y-129014629D01*
X175756120Y-129337623D01*
X175556499Y-129683378D01*
X175394112Y-130048104D01*
X175270739Y-130427805D01*
X175187732Y-130818323D01*
X175146000Y-131215379D01*
X171859000Y-131215379D01*
X171859000Y-128632167D01*
X176353187Y-128632167D01*
X178955000Y-131233981D01*
X181556813Y-128632167D01*
X181355371Y-128450789D01*
X181032377Y-128216120D01*
X180686622Y-128016499D01*
X180321896Y-127854112D01*
X179942195Y-127730739D01*
X179551677Y-127647732D01*
X179154621Y-127606000D01*
X178755379Y-127606000D01*
X178358323Y-127647732D01*
X177967805Y-127730739D01*
X177588104Y-127854112D01*
X177223378Y-128016499D01*
X176877623Y-128216120D01*
X176554629Y-128450789D01*
X176353187Y-128632167D01*
X171859000Y-128632167D01*
X171859000Y-122613539D01*
M02*
