G04 #@! TF.GenerationSoftware,KiCad,Pcbnew,6.0.0-unknown-920f128~86~ubuntu18.04.1*
G04 #@! TF.CreationDate,2019-07-17T14:29:15-04:00*
G04 #@! TF.ProjectId,OBC,4f42432e-6b69-4636-9164-5f7063625858,rev?*
G04 #@! TF.SameCoordinates,Original*
G04 #@! TF.FileFunction,Profile,NP*
%FSLAX46Y46*%
G04 Gerber Fmt 4.6, Leading zero omitted, Abs format (unit mm)*
G04 Created by KiCad (PCBNEW 6.0.0-unknown-920f128~86~ubuntu18.04.1) date 2019-07-17 14:29:15*
%MOMM*%
%LPD*%
G04 APERTURE LIST*
%ADD10C,0.120000*%
%ADD11C,0.200000*%
G04 APERTURE END LIST*
D10*
X150975000Y-101450000D02*
X150975000Y-99400000D01*
X170525000Y-101450000D02*
X150975000Y-101450000D01*
X170525000Y-99400000D02*
X170525000Y-101450000D01*
X150975000Y-99400000D02*
X170525000Y-99400000D01*
D11*
X101395000Y-45825000D02*
X98405000Y-48815000D01*
X88095000Y-114305000D02*
X88095000Y-127605000D01*
X88095000Y-53945000D02*
G75*
G02X93225000Y-48815000I5130000J0D01*
G01*
X98405000Y-48815000D02*
X93225000Y-48815000D01*
X101395000Y-45825000D02*
X184135000Y-45825000D01*
X184135000Y-45825000D02*
X184135000Y-57875000D01*
X179085000Y-62935000D02*
X179085000Y-75685000D01*
X184135000Y-57875000D02*
X179085000Y-62935000D01*
X184135000Y-80735000D02*
X184135000Y-90945000D01*
X179085000Y-75685000D02*
X184135000Y-80735000D01*
X179305000Y-94805000D02*
X179305000Y-113095000D01*
X184135000Y-90945000D02*
X179305000Y-94805000D01*
X184135000Y-115885000D02*
X184135000Y-135695000D01*
X179305000Y-113095000D02*
X184135000Y-115885000D01*
X184135000Y-135695000D02*
X171225000Y-135695000D01*
X171225000Y-122605000D02*
X119225000Y-122605000D01*
X171225000Y-135695000D02*
X171225000Y-122605000D01*
X119225000Y-135695000D02*
X101365000Y-135695000D01*
X119225000Y-122605000D02*
X119225000Y-135695000D01*
X90595000Y-111805000D02*
X90595000Y-71805000D01*
X88095000Y-69305000D02*
X88095000Y-53945000D01*
X88095000Y-114305000D02*
X90595000Y-111805000D01*
X90595000Y-71805000D02*
X88095000Y-69305000D01*
X93225000Y-132735000D02*
G75*
G02X88095000Y-127605000I0J5130000D01*
G01*
X98405000Y-132735000D02*
X93225000Y-132735000D01*
X101365000Y-135695000D02*
X98405000Y-132735000D01*
M02*
