G04 #@! TF.FileFunction,Soldermask,Bot*
%FSLAX46Y46*%
G04 Gerber Fmt 4.6, Leading zero omitted, Abs format (unit mm)*
G04 Created by KiCad (PCBNEW 4.0.7-e2-6376~58~ubuntu17.04.1) date Fri Apr 27 10:12:12 2018*
%MOMM*%
%LPD*%
G01*
G04 APERTURE LIST*
%ADD10C,0.100000*%
%ADD11C,2.900000*%
%ADD12R,3.400000X1.700000*%
%ADD13R,2.100000X2.100000*%
%ADD14O,2.100000X2.100000*%
%ADD15O,1.924000X2.940000*%
%ADD16C,3.575000*%
%ADD17C,1.924000*%
G04 APERTURE END LIST*
D10*
D11*
X131760000Y-90640000D03*
X131760000Y-85560000D03*
X136840000Y-90640000D03*
X136840000Y-85560000D03*
X134300000Y-88100000D03*
D12*
X142700000Y-88100000D03*
X142700000Y-86100000D03*
X142700000Y-84100000D03*
X142700000Y-82100000D03*
X142700000Y-80100000D03*
X142700000Y-78100000D03*
X142700000Y-76100000D03*
X142700000Y-74100000D03*
X159700000Y-74100000D03*
X159700000Y-76100000D03*
X159700000Y-78100000D03*
X159700000Y-80100000D03*
X159700000Y-82100000D03*
X159700000Y-84100000D03*
X159700000Y-86100000D03*
X159700000Y-88100000D03*
D13*
X160900000Y-105600000D03*
D14*
X163440000Y-105600000D03*
X165980000Y-105600000D03*
X168520000Y-105600000D03*
D13*
X171500000Y-110600000D03*
D14*
X168960000Y-110600000D03*
X166420000Y-110600000D03*
X163880000Y-110600000D03*
X161340000Y-110600000D03*
D13*
X143600000Y-97800000D03*
D14*
X146140000Y-97800000D03*
X148680000Y-97800000D03*
X151220000Y-97800000D03*
X153760000Y-97800000D03*
X156300000Y-97800000D03*
X158840000Y-97800000D03*
D13*
X189200000Y-73500000D03*
D14*
X186660000Y-73500000D03*
X184120000Y-73500000D03*
X181580000Y-73500000D03*
X179040000Y-73500000D03*
X176500000Y-73500000D03*
X173960000Y-73500000D03*
X171420000Y-73500000D03*
D15*
X170480000Y-66300000D03*
X173020000Y-66300000D03*
X175560000Y-66300000D03*
X178100000Y-66300000D03*
X180640000Y-66300000D03*
X183180000Y-66300000D03*
X185720000Y-66300000D03*
X188260000Y-66300000D03*
X193340000Y-114560000D03*
X190800000Y-114560000D03*
X188260000Y-114560000D03*
X185720000Y-114560000D03*
X175560000Y-114560000D03*
X170480000Y-114560000D03*
X167940000Y-114560000D03*
X178100000Y-114560000D03*
X180640000Y-114560000D03*
X183180000Y-114560000D03*
X165400000Y-114560000D03*
X162860000Y-114560000D03*
X160320000Y-114560000D03*
X152700000Y-114560000D03*
X155240000Y-114560000D03*
X157780000Y-114560000D03*
X147620000Y-114560000D03*
X145080000Y-114560000D03*
X142540000Y-114560000D03*
X137460000Y-114560000D03*
X134920000Y-114560000D03*
X165400000Y-66300000D03*
X162860000Y-66300000D03*
X160320000Y-66300000D03*
X157780000Y-66300000D03*
X155240000Y-66300000D03*
X152700000Y-66300000D03*
X150160000Y-66300000D03*
X147620000Y-66300000D03*
X141016000Y-66300000D03*
X138476000Y-66300000D03*
X135936000Y-66300000D03*
X133396000Y-66300000D03*
X130856000Y-66300000D03*
X128316000Y-66300000D03*
X125776000Y-66300000D03*
X140000000Y-114560000D03*
D16*
X198420000Y-114560000D03*
X117140000Y-66300000D03*
X115870000Y-114560000D03*
D17*
X195880000Y-68840000D03*
X198420000Y-68840000D03*
X195880000Y-71380000D03*
X198420000Y-71380000D03*
X195880000Y-73920000D03*
X198420000Y-73920000D03*
X195880000Y-76460000D03*
X198420000Y-76460000D03*
X195880000Y-66300000D03*
X198420000Y-66300000D03*
X198420000Y-79000000D03*
X195880000Y-79000000D03*
X195880000Y-81540000D03*
X198420000Y-81540000D03*
X195880000Y-84080000D03*
X198420000Y-84080000D03*
X195880000Y-86620000D03*
X198420000Y-86620000D03*
X195880000Y-89160000D03*
X198420000Y-89160000D03*
X195880000Y-91700000D03*
X198420000Y-91700000D03*
X195880000Y-94240000D03*
X198420000Y-94240000D03*
X195880000Y-96780000D03*
X198420000Y-96780000D03*
X195880000Y-99320000D03*
X198420000Y-99320000D03*
X195880000Y-101860000D03*
X198420000Y-101860000D03*
X195880000Y-104400000D03*
X198420000Y-104400000D03*
X195880000Y-106940000D03*
X198420000Y-106940000D03*
X195880000Y-109480000D03*
X198420000Y-109480000D03*
X165400000Y-86620000D03*
X167940000Y-86620000D03*
X165400000Y-89160000D03*
X167940000Y-89160000D03*
X165400000Y-91700000D03*
X167940000Y-91700000D03*
D15*
X132380000Y-114560000D03*
X129840000Y-114560000D03*
X123236000Y-66300000D03*
X120696000Y-66300000D03*
D13*
X174000000Y-106300000D03*
D14*
X176540000Y-106300000D03*
X179080000Y-106300000D03*
X181620000Y-106300000D03*
X184160000Y-106300000D03*
X186700000Y-106300000D03*
X189240000Y-106300000D03*
X191780000Y-106300000D03*
D13*
X164300000Y-97600000D03*
X163600000Y-73700000D03*
X136700000Y-82000000D03*
X179100000Y-102400000D03*
X188900000Y-80600000D03*
X148800000Y-101600000D03*
X142300000Y-111400000D03*
X146000000Y-111400000D03*
X151800000Y-91100000D03*
M02*
