G04 #@! TF.FileFunction,Legend,Top*
%FSLAX46Y46*%
G04 Gerber Fmt 4.6, Leading zero omitted, Abs format (unit mm)*
G04 Created by KiCad (PCBNEW 4.0.7-e2-6376~58~ubuntu17.04.1) date Fri Apr 27 10:12:12 2018*
%MOMM*%
%LPD*%
G01*
G04 APERTURE LIST*
%ADD10C,0.100000*%
%ADD11C,0.381000*%
%ADD12C,0.318000*%
%ADD13C,0.120000*%
%ADD14C,0.150000*%
%ADD15C,0.304800*%
G04 APERTURE END LIST*
D10*
D11*
X122958900Y-91292780D02*
X122643940Y-87833300D01*
X123588820Y-91292780D02*
X122958900Y-84907220D01*
X124218740Y-91292780D02*
X123588820Y-84907220D01*
X124851200Y-91292780D02*
X124218740Y-84907220D01*
X125481120Y-91292780D02*
X124851200Y-84907220D01*
X126111040Y-91292780D02*
X125481120Y-84907220D01*
X126740960Y-91292780D02*
X126111040Y-84907220D01*
X126740960Y-84907220D02*
X127370880Y-90759380D01*
X122643940Y-90759380D02*
X121699060Y-90759380D01*
X121699060Y-85440620D02*
X121699060Y-90759380D01*
X122643940Y-85440620D02*
X121699060Y-85440620D01*
X122643940Y-85440620D02*
X122958900Y-84907220D01*
X122958900Y-91292780D02*
X122643940Y-90759380D01*
X122643940Y-90759380D02*
X122643940Y-85440620D01*
X127055920Y-91292780D02*
X122958900Y-91292780D01*
X127370880Y-90759380D02*
X127055920Y-91292780D01*
X122958900Y-84907220D02*
X127055920Y-84907220D01*
X127055920Y-84907220D02*
X127370880Y-85440620D01*
X127370880Y-85440620D02*
X127370880Y-90759380D01*
D12*
X131150400Y-85440620D02*
X127370880Y-85440620D01*
D11*
X131150400Y-90759380D02*
X127370880Y-90759380D01*
X137449600Y-91249600D02*
X137449600Y-84950400D01*
X131150400Y-91249600D02*
X131150400Y-84950400D01*
X131150400Y-84950400D02*
X137449600Y-84950400D01*
X137449600Y-91249600D02*
X131150400Y-91249600D01*
D13*
X162170000Y-106930000D02*
X169850000Y-106930000D01*
X169850000Y-106930000D02*
X169850000Y-104270000D01*
X169850000Y-104270000D02*
X162170000Y-104270000D01*
X162170000Y-104270000D02*
X162170000Y-106930000D01*
X160900000Y-106930000D02*
X159570000Y-106930000D01*
X159570000Y-106930000D02*
X159570000Y-105600000D01*
X170230000Y-109270000D02*
X160010000Y-109270000D01*
X160010000Y-109270000D02*
X160010000Y-111930000D01*
X160010000Y-111930000D02*
X170230000Y-111930000D01*
X170230000Y-111930000D02*
X170230000Y-109270000D01*
X171500000Y-109270000D02*
X172830000Y-109270000D01*
X172830000Y-109270000D02*
X172830000Y-110600000D01*
X144870000Y-99130000D02*
X160170000Y-99130000D01*
X160170000Y-99130000D02*
X160170000Y-96470000D01*
X160170000Y-96470000D02*
X144870000Y-96470000D01*
X144870000Y-96470000D02*
X144870000Y-99130000D01*
X143600000Y-99130000D02*
X142270000Y-99130000D01*
X142270000Y-99130000D02*
X142270000Y-97800000D01*
X187930000Y-72170000D02*
X170090000Y-72170000D01*
X170090000Y-72170000D02*
X170090000Y-74830000D01*
X170090000Y-74830000D02*
X187930000Y-74830000D01*
X187930000Y-74830000D02*
X187930000Y-72170000D01*
X189200000Y-72170000D02*
X190530000Y-72170000D01*
X190530000Y-72170000D02*
X190530000Y-73500000D01*
X175270000Y-107630000D02*
X193110000Y-107630000D01*
X193110000Y-107630000D02*
X193110000Y-104970000D01*
X193110000Y-104970000D02*
X175270000Y-104970000D01*
X175270000Y-104970000D02*
X175270000Y-107630000D01*
X174000000Y-107630000D02*
X172670000Y-107630000D01*
X172670000Y-107630000D02*
X172670000Y-106300000D01*
X162970000Y-98930000D02*
X165630000Y-98930000D01*
X162970000Y-98870000D02*
X162970000Y-98930000D01*
X165630000Y-98870000D02*
X165630000Y-98930000D01*
X162970000Y-98870000D02*
X165630000Y-98870000D01*
X162970000Y-97600000D02*
X162970000Y-96270000D01*
X162970000Y-96270000D02*
X164300000Y-96270000D01*
X162270000Y-75030000D02*
X164930000Y-75030000D01*
X162270000Y-74970000D02*
X162270000Y-75030000D01*
X164930000Y-74970000D02*
X164930000Y-75030000D01*
X162270000Y-74970000D02*
X164930000Y-74970000D01*
X162270000Y-73700000D02*
X162270000Y-72370000D01*
X162270000Y-72370000D02*
X163600000Y-72370000D01*
X135370000Y-83330000D02*
X138030000Y-83330000D01*
X135370000Y-83270000D02*
X135370000Y-83330000D01*
X138030000Y-83270000D02*
X138030000Y-83330000D01*
X135370000Y-83270000D02*
X138030000Y-83270000D01*
X135370000Y-82000000D02*
X135370000Y-80670000D01*
X135370000Y-80670000D02*
X136700000Y-80670000D01*
X177770000Y-103730000D02*
X180430000Y-103730000D01*
X177770000Y-103670000D02*
X177770000Y-103730000D01*
X180430000Y-103670000D02*
X180430000Y-103730000D01*
X177770000Y-103670000D02*
X180430000Y-103670000D01*
X177770000Y-102400000D02*
X177770000Y-101070000D01*
X177770000Y-101070000D02*
X179100000Y-101070000D01*
X187570000Y-81930000D02*
X190230000Y-81930000D01*
X187570000Y-81870000D02*
X187570000Y-81930000D01*
X190230000Y-81870000D02*
X190230000Y-81930000D01*
X187570000Y-81870000D02*
X190230000Y-81870000D01*
X187570000Y-80600000D02*
X187570000Y-79270000D01*
X187570000Y-79270000D02*
X188900000Y-79270000D01*
X147470000Y-102930000D02*
X150130000Y-102930000D01*
X147470000Y-102870000D02*
X147470000Y-102930000D01*
X150130000Y-102870000D02*
X150130000Y-102930000D01*
X147470000Y-102870000D02*
X150130000Y-102870000D01*
X147470000Y-101600000D02*
X147470000Y-100270000D01*
X147470000Y-100270000D02*
X148800000Y-100270000D01*
X140970000Y-112730000D02*
X143630000Y-112730000D01*
X140970000Y-112670000D02*
X140970000Y-112730000D01*
X143630000Y-112670000D02*
X143630000Y-112730000D01*
X140970000Y-112670000D02*
X143630000Y-112670000D01*
X140970000Y-111400000D02*
X140970000Y-110070000D01*
X140970000Y-110070000D02*
X142300000Y-110070000D01*
X144670000Y-112730000D02*
X147330000Y-112730000D01*
X144670000Y-112670000D02*
X144670000Y-112730000D01*
X147330000Y-112670000D02*
X147330000Y-112730000D01*
X144670000Y-112670000D02*
X147330000Y-112670000D01*
X144670000Y-111400000D02*
X144670000Y-110070000D01*
X144670000Y-110070000D02*
X146000000Y-110070000D01*
X150470000Y-92430000D02*
X153130000Y-92430000D01*
X150470000Y-92370000D02*
X150470000Y-92430000D01*
X153130000Y-92370000D02*
X153130000Y-92430000D01*
X150470000Y-92370000D02*
X153130000Y-92370000D01*
X150470000Y-91100000D02*
X150470000Y-89770000D01*
X150470000Y-89770000D02*
X151800000Y-89770000D01*
D14*
X138832381Y-88433333D02*
X139546667Y-88433333D01*
X139689524Y-88480953D01*
X139784762Y-88576191D01*
X139832381Y-88719048D01*
X139832381Y-88814286D01*
X139832381Y-87433333D02*
X139832381Y-88004762D01*
X139832381Y-87719048D02*
X138832381Y-87719048D01*
X138975238Y-87814286D01*
X139070476Y-87909524D01*
X139118095Y-88004762D01*
X158022381Y-106361905D02*
X158831905Y-106361905D01*
X158927143Y-106314286D01*
X158974762Y-106266667D01*
X159022381Y-106171429D01*
X159022381Y-105980952D01*
X158974762Y-105885714D01*
X158927143Y-105838095D01*
X158831905Y-105790476D01*
X158022381Y-105790476D01*
X159022381Y-104790476D02*
X159022381Y-105361905D01*
X159022381Y-105076191D02*
X158022381Y-105076191D01*
X158165238Y-105171429D01*
X158260476Y-105266667D01*
X158308095Y-105361905D01*
X173282381Y-111361905D02*
X174091905Y-111361905D01*
X174187143Y-111314286D01*
X174234762Y-111266667D01*
X174282381Y-111171429D01*
X174282381Y-110980952D01*
X174234762Y-110885714D01*
X174187143Y-110838095D01*
X174091905Y-110790476D01*
X173282381Y-110790476D01*
X173282381Y-110409524D02*
X173282381Y-109790476D01*
X173663333Y-110123810D01*
X173663333Y-109980952D01*
X173710952Y-109885714D01*
X173758571Y-109838095D01*
X173853810Y-109790476D01*
X174091905Y-109790476D01*
X174187143Y-109838095D01*
X174234762Y-109885714D01*
X174282381Y-109980952D01*
X174282381Y-110266667D01*
X174234762Y-110361905D01*
X174187143Y-110409524D01*
X140722381Y-98561905D02*
X141531905Y-98561905D01*
X141627143Y-98514286D01*
X141674762Y-98466667D01*
X141722381Y-98371429D01*
X141722381Y-98180952D01*
X141674762Y-98085714D01*
X141627143Y-98038095D01*
X141531905Y-97990476D01*
X140722381Y-97990476D01*
X141055714Y-97085714D02*
X141722381Y-97085714D01*
X140674762Y-97323810D02*
X141389048Y-97561905D01*
X141389048Y-96942857D01*
X190982381Y-74261905D02*
X191791905Y-74261905D01*
X191887143Y-74214286D01*
X191934762Y-74166667D01*
X191982381Y-74071429D01*
X191982381Y-73880952D01*
X191934762Y-73785714D01*
X191887143Y-73738095D01*
X191791905Y-73690476D01*
X190982381Y-73690476D01*
X190982381Y-72738095D02*
X190982381Y-73214286D01*
X191458571Y-73261905D01*
X191410952Y-73214286D01*
X191363333Y-73119048D01*
X191363333Y-72880952D01*
X191410952Y-72785714D01*
X191458571Y-72738095D01*
X191553810Y-72690476D01*
X191791905Y-72690476D01*
X191887143Y-72738095D01*
X191934762Y-72785714D01*
X191982381Y-72880952D01*
X191982381Y-73119048D01*
X191934762Y-73214286D01*
X191887143Y-73261905D01*
D15*
X103859429Y-60566857D02*
X104077143Y-60639429D01*
X104440000Y-60639429D01*
X104585143Y-60566857D01*
X104657714Y-60494286D01*
X104730286Y-60349143D01*
X104730286Y-60204000D01*
X104657714Y-60058857D01*
X104585143Y-59986286D01*
X104440000Y-59913714D01*
X104149714Y-59841143D01*
X104004572Y-59768571D01*
X103932000Y-59696000D01*
X103859429Y-59550857D01*
X103859429Y-59405714D01*
X103932000Y-59260571D01*
X104004572Y-59188000D01*
X104149714Y-59115429D01*
X104512572Y-59115429D01*
X104730286Y-59188000D01*
X105383429Y-60639429D02*
X105383429Y-59115429D01*
X105383429Y-59841143D02*
X106254286Y-59841143D01*
X106254286Y-60639429D02*
X106254286Y-59115429D01*
X106980000Y-60639429D02*
X106980000Y-59115429D01*
X107705714Y-59841143D02*
X108213714Y-59841143D01*
X108431428Y-60639429D02*
X107705714Y-60639429D01*
X107705714Y-59115429D01*
X108431428Y-59115429D01*
X109810285Y-60639429D02*
X109084571Y-60639429D01*
X109084571Y-59115429D01*
X110318285Y-60639429D02*
X110318285Y-59115429D01*
X110681142Y-59115429D01*
X110898857Y-59188000D01*
X111043999Y-59333143D01*
X111116571Y-59478286D01*
X111189142Y-59768571D01*
X111189142Y-59986286D01*
X111116571Y-60276571D01*
X111043999Y-60421714D01*
X110898857Y-60566857D01*
X110681142Y-60639429D01*
X110318285Y-60639429D01*
X112640571Y-60639429D02*
X111769714Y-60639429D01*
X112205142Y-60639429D02*
X112205142Y-59115429D01*
X112059999Y-59333143D01*
X111914857Y-59478286D01*
X111769714Y-59550857D01*
D14*
X171052381Y-106633333D02*
X171766667Y-106633333D01*
X171909524Y-106680953D01*
X172004762Y-106776191D01*
X172052381Y-106919048D01*
X172052381Y-107014286D01*
X171147619Y-106204762D02*
X171100000Y-106157143D01*
X171052381Y-106061905D01*
X171052381Y-105823809D01*
X171100000Y-105728571D01*
X171147619Y-105680952D01*
X171242857Y-105633333D01*
X171338095Y-105633333D01*
X171480952Y-105680952D01*
X172052381Y-106252381D01*
X172052381Y-105633333D01*
M02*
