M48
;DRILL file {KiCad 4.0.7-e2-6376~58~ubuntu17.04.1} date Fri Apr 27 10:19:01 2018
;FORMAT={-:-/ absolute / metric / decimal}
FMAT,2
METRIC,TZ
T1C0.700
T2C0.813
T3C1.000
T4C1.016
T5C1.500
T6C1.600
T7C3.175
%
G90
G05
M71
T1
X140.Y-80.1
X150.1Y-109.7
X155.2Y-68.5
X157.8Y-68.5
X160.3Y-68.5
X160.9Y-102.8
X162.4Y-80.2
X163.5Y-90.6
X165.4Y-84.6
X165.5Y-78.3
X169.Y-108.1
X169.1Y-80.7
X169.3Y-102.3
X170.Y-93.6
X170.3Y-87.4
X170.5Y-68.2
X171.8Y-102.4
X171.9Y-85.8
X173.Y-68.4
X179.7Y-68.4
X181.6Y-83.6
X182.3Y-68.3
X184.2Y-83.5
X184.8Y-68.4
X186.8Y-103.8
X187.4Y-68.2
X189.Y-76.1
T2
X165.4Y-86.62
X165.4Y-89.16
X165.4Y-91.7
X167.94Y-86.62
X167.94Y-89.16
X167.94Y-91.7
T3
X136.7Y-82.
X142.3Y-111.4
X143.6Y-97.8
X146.Y-111.4
X146.14Y-97.8
X148.68Y-97.8
X148.8Y-101.6
X151.22Y-97.8
X151.8Y-91.1
X153.76Y-97.8
X156.3Y-97.8
X158.84Y-97.8
X160.9Y-105.6
X161.34Y-110.6
X163.44Y-105.6
X163.6Y-73.7
X163.88Y-110.6
X164.3Y-97.6
X165.98Y-105.6
X166.42Y-110.6
X168.52Y-105.6
X168.96Y-110.6
X171.42Y-73.5
X171.5Y-110.6
X173.96Y-73.5
X174.Y-106.3
X176.5Y-73.5
X176.54Y-106.3
X179.04Y-73.5
X179.08Y-106.3
X179.1Y-102.4
X181.58Y-73.5
X181.62Y-106.3
X184.12Y-73.5
X184.16Y-106.3
X186.66Y-73.5
X186.7Y-106.3
X188.9Y-80.6
X189.2Y-73.5
X189.24Y-106.3
X191.78Y-106.3
T4
X120.696Y-66.3
X123.236Y-66.3
X125.776Y-66.3
X128.316Y-66.3
X129.84Y-114.56
X130.856Y-66.3
X132.38Y-114.56
X133.396Y-66.3
X134.92Y-114.56
X135.936Y-66.3
X137.46Y-114.56
X138.476Y-66.3
X140.Y-114.56
X141.016Y-66.3
X142.54Y-114.56
X145.08Y-114.56
X147.62Y-66.3
X147.62Y-114.56
X150.16Y-66.3
X152.7Y-66.3
X152.7Y-114.56
X155.24Y-66.3
X155.24Y-114.56
X157.78Y-66.3
X157.78Y-114.56
X160.32Y-66.3
X160.32Y-114.56
X162.86Y-66.3
X162.86Y-114.56
X165.4Y-66.3
X165.4Y-114.56
X167.94Y-114.56
X170.48Y-66.3
X170.48Y-114.56
X173.02Y-66.3
X175.56Y-66.3
X175.56Y-114.56
X178.1Y-66.3
X178.1Y-114.56
X180.64Y-66.3
X180.64Y-114.56
X183.18Y-66.3
X183.18Y-114.56
X185.72Y-66.3
X185.72Y-114.56
X188.26Y-66.3
X188.26Y-114.56
X190.8Y-114.56
X193.34Y-114.56
X195.88Y-66.3
X195.88Y-68.84
X195.88Y-71.38
X195.88Y-73.92
X195.88Y-76.46
X195.88Y-79.
X195.88Y-81.54
X195.88Y-84.08
X195.88Y-86.62
X195.88Y-89.16
X195.88Y-91.7
X195.88Y-94.24
X195.88Y-96.78
X195.88Y-99.32
X195.88Y-101.86
X195.88Y-104.4
X195.88Y-106.94
X195.88Y-109.48
X198.42Y-66.3
X198.42Y-68.84
X198.42Y-71.38
X198.42Y-73.92
X198.42Y-76.46
X198.42Y-79.
X198.42Y-81.54
X198.42Y-84.08
X198.42Y-86.62
X198.42Y-89.16
X198.42Y-91.7
X198.42Y-94.24
X198.42Y-96.78
X198.42Y-99.32
X198.42Y-101.86
X198.42Y-104.4
X198.42Y-106.94
X198.42Y-109.48
T5
X134.3Y-88.1
T6
X131.76Y-85.56
X131.76Y-90.64
X136.84Y-85.56
X136.84Y-90.64
T7
X115.87Y-114.56
X117.14Y-66.3
X198.42Y-114.56
T0
M30
