G04 #@! TF.FileFunction,Legend,Bot*
%FSLAX46Y46*%
G04 Gerber Fmt 4.6, Leading zero omitted, Abs format (unit mm)*
G04 Created by KiCad (PCBNEW 4.0.7-e2-6376~58~ubuntu17.04.1) date Fri Apr 27 10:12:12 2018*
%MOMM*%
%LPD*%
G01*
G04 APERTURE LIST*
%ADD10C,0.100000*%
%ADD11C,0.150000*%
G04 APERTURE END LIST*
D10*
D11*
X152039700Y-79544140D02*
X152039700Y-76044140D01*
X148539700Y-79544140D02*
X148539700Y-76044140D01*
X148539700Y-79544140D02*
X152039700Y-79544140D01*
X148539700Y-76044140D02*
X152039700Y-76044140D01*
X156539700Y-82744140D02*
X156539700Y-77744140D01*
X153339700Y-82744140D02*
X153339700Y-77744140D01*
X153339700Y-82744140D02*
X156539700Y-82744140D01*
X153339700Y-77744140D02*
X156539700Y-77744140D01*
X149638095Y-89852381D02*
X149066666Y-89852381D01*
X149352381Y-90852381D02*
X149352381Y-89852381D01*
X148161904Y-90852381D02*
X148495238Y-90376190D01*
X148733333Y-90852381D02*
X148733333Y-89852381D01*
X148352380Y-89852381D01*
X148257142Y-89900000D01*
X148209523Y-89947619D01*
X148161904Y-90042857D01*
X148161904Y-90185714D01*
X148209523Y-90280952D01*
X148257142Y-90328571D01*
X148352380Y-90376190D01*
X148733333Y-90376190D01*
X147828571Y-89852381D02*
X147161904Y-90852381D01*
X147161904Y-89852381D02*
X147828571Y-90852381D01*
X146257142Y-90852381D02*
X146828571Y-90852381D01*
X146542857Y-90852381D02*
X146542857Y-89852381D01*
X146638095Y-89995238D01*
X146733333Y-90090476D01*
X146828571Y-90138095D01*
M02*
