G04 #@! TF.FileFunction,Copper,L1,Top,Signal*
%FSLAX46Y46*%
G04 Gerber Fmt 4.6, Leading zero omitted, Abs format (unit mm)*
G04 Created by KiCad (PCBNEW 4.0.7-e2-6376~58~ubuntu17.04.1) date Fri Apr 27 10:12:12 2018*
%MOMM*%
%LPD*%
G01*
G04 APERTURE LIST*
%ADD10C,0.100000*%
%ADD11C,2.500000*%
%ADD12R,1.700000X1.700000*%
%ADD13O,1.700000X1.700000*%
%ADD14O,1.524000X2.540000*%
%ADD15C,1.524000*%
%ADD16C,0.900000*%
%ADD17C,0.600000*%
%ADD18C,0.026000*%
G04 APERTURE END LIST*
D10*
D11*
X131760000Y-90640000D03*
X131760000Y-85560000D03*
X136840000Y-90640000D03*
X136840000Y-85560000D03*
X134300000Y-88100000D03*
D12*
X160900000Y-105600000D03*
D13*
X163440000Y-105600000D03*
X165980000Y-105600000D03*
X168520000Y-105600000D03*
D12*
X171500000Y-110600000D03*
D13*
X168960000Y-110600000D03*
X166420000Y-110600000D03*
X163880000Y-110600000D03*
X161340000Y-110600000D03*
D12*
X143600000Y-97800000D03*
D13*
X146140000Y-97800000D03*
X148680000Y-97800000D03*
X151220000Y-97800000D03*
X153760000Y-97800000D03*
X156300000Y-97800000D03*
X158840000Y-97800000D03*
D12*
X189200000Y-73500000D03*
D13*
X186660000Y-73500000D03*
X184120000Y-73500000D03*
X181580000Y-73500000D03*
X179040000Y-73500000D03*
X176500000Y-73500000D03*
X173960000Y-73500000D03*
X171420000Y-73500000D03*
D14*
X170480000Y-66300000D03*
X173020000Y-66300000D03*
X175560000Y-66300000D03*
X178100000Y-66300000D03*
X180640000Y-66300000D03*
X183180000Y-66300000D03*
X185720000Y-66300000D03*
X188260000Y-66300000D03*
X193340000Y-114560000D03*
X190800000Y-114560000D03*
X188260000Y-114560000D03*
X185720000Y-114560000D03*
X175560000Y-114560000D03*
X170480000Y-114560000D03*
X167940000Y-114560000D03*
X178100000Y-114560000D03*
X180640000Y-114560000D03*
X183180000Y-114560000D03*
X165400000Y-114560000D03*
X162860000Y-114560000D03*
X160320000Y-114560000D03*
X152700000Y-114560000D03*
X155240000Y-114560000D03*
X157780000Y-114560000D03*
X147620000Y-114560000D03*
X145080000Y-114560000D03*
X142540000Y-114560000D03*
X137460000Y-114560000D03*
X134920000Y-114560000D03*
X165400000Y-66300000D03*
X162860000Y-66300000D03*
X160320000Y-66300000D03*
X157780000Y-66300000D03*
X155240000Y-66300000D03*
X152700000Y-66300000D03*
X150160000Y-66300000D03*
X147620000Y-66300000D03*
X141016000Y-66300000D03*
X138476000Y-66300000D03*
X135936000Y-66300000D03*
X133396000Y-66300000D03*
X130856000Y-66300000D03*
X128316000Y-66300000D03*
X125776000Y-66300000D03*
X140000000Y-114560000D03*
D15*
X195880000Y-68840000D03*
X198420000Y-68840000D03*
X195880000Y-71380000D03*
X198420000Y-71380000D03*
X195880000Y-73920000D03*
X198420000Y-73920000D03*
X195880000Y-76460000D03*
X198420000Y-76460000D03*
X195880000Y-66300000D03*
X198420000Y-66300000D03*
X198420000Y-79000000D03*
X195880000Y-79000000D03*
X195880000Y-81540000D03*
X198420000Y-81540000D03*
X195880000Y-84080000D03*
X198420000Y-84080000D03*
X195880000Y-86620000D03*
X198420000Y-86620000D03*
X195880000Y-89160000D03*
X198420000Y-89160000D03*
X195880000Y-91700000D03*
X198420000Y-91700000D03*
X195880000Y-94240000D03*
X198420000Y-94240000D03*
X195880000Y-96780000D03*
X198420000Y-96780000D03*
X195880000Y-99320000D03*
X198420000Y-99320000D03*
X195880000Y-101860000D03*
X198420000Y-101860000D03*
X195880000Y-104400000D03*
X198420000Y-104400000D03*
X195880000Y-106940000D03*
X198420000Y-106940000D03*
X195880000Y-109480000D03*
X198420000Y-109480000D03*
X165400000Y-86620000D03*
X167940000Y-86620000D03*
X165400000Y-89160000D03*
X167940000Y-89160000D03*
X165400000Y-91700000D03*
X167940000Y-91700000D03*
D14*
X132380000Y-114560000D03*
X129840000Y-114560000D03*
X123236000Y-66300000D03*
X120696000Y-66300000D03*
D12*
X174000000Y-106300000D03*
D13*
X176540000Y-106300000D03*
X179080000Y-106300000D03*
X181620000Y-106300000D03*
X184160000Y-106300000D03*
X186700000Y-106300000D03*
X189240000Y-106300000D03*
X191780000Y-106300000D03*
D12*
X164300000Y-97600000D03*
X163600000Y-73700000D03*
X136700000Y-82000000D03*
X179100000Y-102400000D03*
X188900000Y-80600000D03*
X148800000Y-101600000D03*
X142300000Y-111400000D03*
X146000000Y-111400000D03*
X151800000Y-91100000D03*
D16*
X160900000Y-102800000D03*
X169000000Y-108100000D03*
X171900000Y-85800000D03*
X140000000Y-80100000D03*
X150100000Y-109700000D03*
X189000000Y-76100000D03*
X165400000Y-84600000D03*
X165500000Y-78300000D03*
X170000000Y-93600000D03*
X170300000Y-87400000D03*
X163500000Y-90600000D03*
X162400000Y-80200000D03*
X160300000Y-68500000D03*
X157800000Y-68500000D03*
X155200000Y-68500000D03*
X181600000Y-83600000D03*
X169300000Y-102300000D03*
X184800000Y-68400000D03*
X184200000Y-83500000D03*
X171800000Y-102400000D03*
X187400000Y-68200000D03*
X182300000Y-68300000D03*
X179700000Y-68400000D03*
X173000000Y-68400000D03*
X170500000Y-68200000D03*
X169100000Y-80700000D03*
X186800000Y-103800000D03*
D17*
X167940000Y-91700000D02*
X167940000Y-93960000D01*
X167940000Y-93960000D02*
X164300000Y-97600000D01*
X142540000Y-114560000D02*
X142540000Y-111640000D01*
X142540000Y-111640000D02*
X142300000Y-111400000D01*
X145080000Y-114560000D02*
X145080000Y-112320000D01*
X145080000Y-112320000D02*
X146000000Y-111400000D01*
X170330000Y-84230000D02*
X171900000Y-85800000D01*
X150100000Y-109700000D02*
X160440000Y-109700000D01*
X160440000Y-109700000D02*
X161340000Y-110600000D01*
X137460000Y-98540000D02*
X137460000Y-114560000D01*
X142100000Y-93900000D02*
X137460000Y-98540000D01*
X142100000Y-82200000D02*
X142100000Y-93900000D01*
X140000000Y-80100000D02*
X142100000Y-82200000D01*
X137460000Y-114560000D02*
X137460000Y-113140000D01*
X140900000Y-109700000D02*
X150100000Y-109700000D01*
X137460000Y-113140000D02*
X140900000Y-109700000D01*
X172660000Y-81900000D02*
X170330000Y-84230000D01*
X170330000Y-84230000D02*
X167940000Y-86620000D01*
X183200000Y-81900000D02*
X172660000Y-81900000D01*
X189000000Y-76100000D02*
X183200000Y-81900000D01*
X165400000Y-84600000D02*
X165400000Y-86620000D01*
X165400000Y-78400000D02*
X165400000Y-84600000D01*
X165500000Y-78300000D02*
X165400000Y-78400000D01*
X167940000Y-89160000D02*
X168860000Y-89160000D01*
X170000000Y-90300000D02*
X170000000Y-93600000D01*
X168860000Y-89160000D02*
X170000000Y-90300000D01*
X170300000Y-87400000D02*
X168540000Y-89160000D01*
X168540000Y-89160000D02*
X167940000Y-89160000D01*
X163500000Y-90600000D02*
X164940000Y-89160000D01*
X164940000Y-89160000D02*
X165400000Y-89160000D01*
X163300000Y-87060000D02*
X165400000Y-89160000D01*
X163300000Y-81100000D02*
X163300000Y-87060000D01*
X162400000Y-80200000D02*
X163300000Y-81100000D01*
X160320000Y-66300000D02*
X160320000Y-68480000D01*
X160320000Y-68480000D02*
X160300000Y-68500000D01*
X157780000Y-66300000D02*
X157780000Y-68480000D01*
X157780000Y-68480000D02*
X157800000Y-68500000D01*
X155240000Y-66300000D02*
X155240000Y-68460000D01*
X155240000Y-68460000D02*
X155200000Y-68500000D01*
X181600000Y-90000000D02*
X181600000Y-83600000D01*
X169300000Y-102300000D02*
X181600000Y-90000000D01*
X185720000Y-66300000D02*
X185720000Y-67480000D01*
X185720000Y-67480000D02*
X184800000Y-68400000D01*
X184200000Y-90000000D02*
X184200000Y-83500000D01*
X171800000Y-102400000D02*
X184200000Y-90000000D01*
X188260000Y-66300000D02*
X188260000Y-67340000D01*
X188260000Y-67340000D02*
X187400000Y-68200000D01*
X183180000Y-66300000D02*
X183180000Y-67420000D01*
X183180000Y-67420000D02*
X182300000Y-68300000D01*
X180640000Y-66300000D02*
X180640000Y-67460000D01*
X180640000Y-67460000D02*
X179700000Y-68400000D01*
X173020000Y-66300000D02*
X173020000Y-68380000D01*
X173020000Y-68380000D02*
X173000000Y-68400000D01*
X170480000Y-66300000D02*
X170480000Y-68180000D01*
X170480000Y-68180000D02*
X170500000Y-68200000D01*
X175560000Y-66300000D02*
X175560000Y-67640000D01*
X169100000Y-71600000D02*
X169100000Y-80700000D01*
X169900000Y-70800000D02*
X169100000Y-71600000D01*
X172400000Y-70800000D02*
X169900000Y-70800000D01*
X175560000Y-67640000D02*
X172400000Y-70800000D01*
X178100000Y-66300000D02*
X178100000Y-68700000D01*
X191800000Y-98800000D02*
X186800000Y-103800000D01*
X191800000Y-71800000D02*
X191800000Y-98800000D01*
X190400000Y-70400000D02*
X191800000Y-71800000D01*
X179800000Y-70400000D02*
X190400000Y-70400000D01*
X178100000Y-68700000D02*
X179800000Y-70400000D01*
D18*
G36*
X194712000Y-68736451D02*
X194712000Y-108312000D01*
X179400000Y-108312000D01*
X179366324Y-108318699D01*
X179337775Y-108337775D01*
X170663550Y-117012000D01*
X128588000Y-117012000D01*
X128588000Y-114022946D01*
X128865000Y-114022946D01*
X128865000Y-115097054D01*
X128939217Y-115470170D01*
X129150571Y-115786483D01*
X129466884Y-115997837D01*
X129840000Y-116072054D01*
X130213116Y-115997837D01*
X130529429Y-115786483D01*
X130740783Y-115470170D01*
X130815000Y-115097054D01*
X130815000Y-114022946D01*
X131405000Y-114022946D01*
X131405000Y-115097054D01*
X131479217Y-115470170D01*
X131690571Y-115786483D01*
X132006884Y-115997837D01*
X132380000Y-116072054D01*
X132753116Y-115997837D01*
X133069429Y-115786483D01*
X133280783Y-115470170D01*
X133355000Y-115097054D01*
X133355000Y-114022946D01*
X133945000Y-114022946D01*
X133945000Y-115097054D01*
X134019217Y-115470170D01*
X134230571Y-115786483D01*
X134546884Y-115997837D01*
X134920000Y-116072054D01*
X135293116Y-115997837D01*
X135609429Y-115786483D01*
X135820783Y-115470170D01*
X135895000Y-115097054D01*
X135895000Y-114022946D01*
X136485000Y-114022946D01*
X136485000Y-115097054D01*
X136559217Y-115470170D01*
X136770571Y-115786483D01*
X137086884Y-115997837D01*
X137460000Y-116072054D01*
X137833116Y-115997837D01*
X138149429Y-115786483D01*
X138360783Y-115470170D01*
X138435000Y-115097054D01*
X138435000Y-114022946D01*
X139025000Y-114022946D01*
X139025000Y-115097054D01*
X139099217Y-115470170D01*
X139310571Y-115786483D01*
X139626884Y-115997837D01*
X140000000Y-116072054D01*
X140373116Y-115997837D01*
X140689429Y-115786483D01*
X140900783Y-115470170D01*
X140975000Y-115097054D01*
X140975000Y-114560050D01*
X141765000Y-114560050D01*
X141765000Y-115068050D01*
X141824012Y-115364626D01*
X141992027Y-115616043D01*
X142243466Y-115784026D01*
X142418714Y-115833451D01*
X142539950Y-115839750D01*
X142539950Y-114560050D01*
X142540050Y-114560050D01*
X142540050Y-115839750D01*
X142661286Y-115833451D01*
X142836534Y-115784026D01*
X143087973Y-115616043D01*
X143255988Y-115364626D01*
X143315000Y-115068050D01*
X143315000Y-114560050D01*
X144305000Y-114560050D01*
X144305000Y-115068050D01*
X144364012Y-115364626D01*
X144532027Y-115616043D01*
X144783466Y-115784026D01*
X144958714Y-115833451D01*
X145079950Y-115839750D01*
X145079950Y-114560050D01*
X145080050Y-114560050D01*
X145080050Y-115839750D01*
X145201286Y-115833451D01*
X145376534Y-115784026D01*
X145627973Y-115616043D01*
X145795988Y-115364626D01*
X145855000Y-115068050D01*
X145855000Y-114560050D01*
X145080050Y-114560050D01*
X145079950Y-114560050D01*
X144305000Y-114560050D01*
X143315000Y-114560050D01*
X142540050Y-114560050D01*
X142539950Y-114560050D01*
X141765000Y-114560050D01*
X140975000Y-114560050D01*
X140975000Y-114051950D01*
X141765000Y-114051950D01*
X141765000Y-114559950D01*
X142539950Y-114559950D01*
X142540050Y-114559950D01*
X143315000Y-114559950D01*
X143315000Y-114051950D01*
X144305000Y-114051950D01*
X144305000Y-114559950D01*
X145079950Y-114559950D01*
X145080050Y-114559950D01*
X145855000Y-114559950D01*
X145855000Y-114051950D01*
X145849229Y-114022946D01*
X146645000Y-114022946D01*
X146645000Y-115097054D01*
X146719217Y-115470170D01*
X146930571Y-115786483D01*
X147246884Y-115997837D01*
X147620000Y-116072054D01*
X147993116Y-115997837D01*
X148309429Y-115786483D01*
X148520783Y-115470170D01*
X148595000Y-115097054D01*
X148595000Y-114022946D01*
X151725000Y-114022946D01*
X151725000Y-115097054D01*
X151799217Y-115470170D01*
X152010571Y-115786483D01*
X152326884Y-115997837D01*
X152700000Y-116072054D01*
X153073116Y-115997837D01*
X153389429Y-115786483D01*
X153600783Y-115470170D01*
X153675000Y-115097054D01*
X153675000Y-114022946D01*
X154265000Y-114022946D01*
X154265000Y-115097054D01*
X154339217Y-115470170D01*
X154550571Y-115786483D01*
X154866884Y-115997837D01*
X155240000Y-116072054D01*
X155613116Y-115997837D01*
X155929429Y-115786483D01*
X156140783Y-115470170D01*
X156215000Y-115097054D01*
X156215000Y-114022946D01*
X156805000Y-114022946D01*
X156805000Y-115097054D01*
X156879217Y-115470170D01*
X157090571Y-115786483D01*
X157406884Y-115997837D01*
X157780000Y-116072054D01*
X158153116Y-115997837D01*
X158469429Y-115786483D01*
X158680783Y-115470170D01*
X158755000Y-115097054D01*
X158755000Y-114022946D01*
X159345000Y-114022946D01*
X159345000Y-115097054D01*
X159419217Y-115470170D01*
X159630571Y-115786483D01*
X159946884Y-115997837D01*
X160320000Y-116072054D01*
X160693116Y-115997837D01*
X161009429Y-115786483D01*
X161220783Y-115470170D01*
X161295000Y-115097054D01*
X161295000Y-114022946D01*
X161885000Y-114022946D01*
X161885000Y-115097054D01*
X161959217Y-115470170D01*
X162170571Y-115786483D01*
X162486884Y-115997837D01*
X162860000Y-116072054D01*
X163233116Y-115997837D01*
X163549429Y-115786483D01*
X163760783Y-115470170D01*
X163835000Y-115097054D01*
X163835000Y-114022946D01*
X164425000Y-114022946D01*
X164425000Y-115097054D01*
X164499217Y-115470170D01*
X164710571Y-115786483D01*
X165026884Y-115997837D01*
X165400000Y-116072054D01*
X165773116Y-115997837D01*
X166089429Y-115786483D01*
X166300783Y-115470170D01*
X166375000Y-115097054D01*
X166375000Y-114022946D01*
X166965000Y-114022946D01*
X166965000Y-115097054D01*
X167039217Y-115470170D01*
X167250571Y-115786483D01*
X167566884Y-115997837D01*
X167940000Y-116072054D01*
X168313116Y-115997837D01*
X168629429Y-115786483D01*
X168840783Y-115470170D01*
X168915000Y-115097054D01*
X168915000Y-114022946D01*
X169505000Y-114022946D01*
X169505000Y-115097054D01*
X169579217Y-115470170D01*
X169790571Y-115786483D01*
X170106884Y-115997837D01*
X170480000Y-116072054D01*
X170853116Y-115997837D01*
X171169429Y-115786483D01*
X171380783Y-115470170D01*
X171455000Y-115097054D01*
X171455000Y-114022946D01*
X171380783Y-113649830D01*
X171169429Y-113333517D01*
X170853116Y-113122163D01*
X170480000Y-113047946D01*
X170106884Y-113122163D01*
X169790571Y-113333517D01*
X169579217Y-113649830D01*
X169505000Y-114022946D01*
X168915000Y-114022946D01*
X168840783Y-113649830D01*
X168629429Y-113333517D01*
X168313116Y-113122163D01*
X167940000Y-113047946D01*
X167566884Y-113122163D01*
X167250571Y-113333517D01*
X167039217Y-113649830D01*
X166965000Y-114022946D01*
X166375000Y-114022946D01*
X166300783Y-113649830D01*
X166089429Y-113333517D01*
X165773116Y-113122163D01*
X165400000Y-113047946D01*
X165026884Y-113122163D01*
X164710571Y-113333517D01*
X164499217Y-113649830D01*
X164425000Y-114022946D01*
X163835000Y-114022946D01*
X163760783Y-113649830D01*
X163549429Y-113333517D01*
X163233116Y-113122163D01*
X162860000Y-113047946D01*
X162486884Y-113122163D01*
X162170571Y-113333517D01*
X161959217Y-113649830D01*
X161885000Y-114022946D01*
X161295000Y-114022946D01*
X161220783Y-113649830D01*
X161009429Y-113333517D01*
X160693116Y-113122163D01*
X160320000Y-113047946D01*
X159946884Y-113122163D01*
X159630571Y-113333517D01*
X159419217Y-113649830D01*
X159345000Y-114022946D01*
X158755000Y-114022946D01*
X158680783Y-113649830D01*
X158469429Y-113333517D01*
X158153116Y-113122163D01*
X157780000Y-113047946D01*
X157406884Y-113122163D01*
X157090571Y-113333517D01*
X156879217Y-113649830D01*
X156805000Y-114022946D01*
X156215000Y-114022946D01*
X156140783Y-113649830D01*
X155929429Y-113333517D01*
X155613116Y-113122163D01*
X155240000Y-113047946D01*
X154866884Y-113122163D01*
X154550571Y-113333517D01*
X154339217Y-113649830D01*
X154265000Y-114022946D01*
X153675000Y-114022946D01*
X153600783Y-113649830D01*
X153389429Y-113333517D01*
X153073116Y-113122163D01*
X152700000Y-113047946D01*
X152326884Y-113122163D01*
X152010571Y-113333517D01*
X151799217Y-113649830D01*
X151725000Y-114022946D01*
X148595000Y-114022946D01*
X148520783Y-113649830D01*
X148309429Y-113333517D01*
X147993116Y-113122163D01*
X147620000Y-113047946D01*
X147246884Y-113122163D01*
X146930571Y-113333517D01*
X146719217Y-113649830D01*
X146645000Y-114022946D01*
X145849229Y-114022946D01*
X145795988Y-113755374D01*
X145627973Y-113503957D01*
X145376534Y-113335974D01*
X145201286Y-113286549D01*
X145080050Y-113280250D01*
X145080050Y-114559950D01*
X145079950Y-114559950D01*
X145079950Y-113280250D01*
X144958714Y-113286549D01*
X144783466Y-113335974D01*
X144532027Y-113503957D01*
X144364012Y-113755374D01*
X144305000Y-114051950D01*
X143315000Y-114051950D01*
X143255988Y-113755374D01*
X143087973Y-113503957D01*
X142836534Y-113335974D01*
X142661286Y-113286549D01*
X142540050Y-113280250D01*
X142540050Y-114559950D01*
X142539950Y-114559950D01*
X142539950Y-113280250D01*
X142418714Y-113286549D01*
X142243466Y-113335974D01*
X141992027Y-113503957D01*
X141824012Y-113755374D01*
X141765000Y-114051950D01*
X140975000Y-114051950D01*
X140975000Y-114022946D01*
X140900783Y-113649830D01*
X140689429Y-113333517D01*
X140373116Y-113122163D01*
X140000000Y-113047946D01*
X139626884Y-113122163D01*
X139310571Y-113333517D01*
X139099217Y-113649830D01*
X139025000Y-114022946D01*
X138435000Y-114022946D01*
X138360783Y-113649830D01*
X138149429Y-113333517D01*
X138055042Y-113270450D01*
X139635242Y-111690250D01*
X141237000Y-111690250D01*
X141237000Y-112292369D01*
X141269428Y-112370655D01*
X141329346Y-112430573D01*
X141407632Y-112463000D01*
X142009750Y-112463000D01*
X142063000Y-112409750D01*
X142063000Y-111637000D01*
X142537000Y-111637000D01*
X142537000Y-112409750D01*
X142590250Y-112463000D01*
X143192368Y-112463000D01*
X143270654Y-112430573D01*
X143330572Y-112370655D01*
X143363000Y-112292369D01*
X143363000Y-111690250D01*
X144937000Y-111690250D01*
X144937000Y-112292369D01*
X144969428Y-112370655D01*
X145029346Y-112430573D01*
X145107632Y-112463000D01*
X145709750Y-112463000D01*
X145763000Y-112409750D01*
X145763000Y-111637000D01*
X146237000Y-111637000D01*
X146237000Y-112409750D01*
X146290250Y-112463000D01*
X146892368Y-112463000D01*
X146970654Y-112430573D01*
X147030572Y-112370655D01*
X147063000Y-112292369D01*
X147063000Y-111690250D01*
X147009750Y-111637000D01*
X146237000Y-111637000D01*
X145763000Y-111637000D01*
X144990250Y-111637000D01*
X144937000Y-111690250D01*
X143363000Y-111690250D01*
X143309750Y-111637000D01*
X142537000Y-111637000D01*
X142063000Y-111637000D01*
X141290250Y-111637000D01*
X141237000Y-111690250D01*
X139635242Y-111690250D01*
X140817861Y-110507631D01*
X141237000Y-110507631D01*
X141237000Y-111109750D01*
X141290250Y-111163000D01*
X142063000Y-111163000D01*
X142063000Y-110390250D01*
X142537000Y-110390250D01*
X142537000Y-111163000D01*
X143309750Y-111163000D01*
X143363000Y-111109750D01*
X143363000Y-110507631D01*
X144937000Y-110507631D01*
X144937000Y-111109750D01*
X144990250Y-111163000D01*
X145763000Y-111163000D01*
X145763000Y-110390250D01*
X146237000Y-110390250D01*
X146237000Y-111163000D01*
X147009750Y-111163000D01*
X147063000Y-111109750D01*
X147063000Y-110507631D01*
X147030572Y-110429345D01*
X146970654Y-110369427D01*
X146892368Y-110337000D01*
X146290250Y-110337000D01*
X146237000Y-110390250D01*
X145763000Y-110390250D01*
X145709750Y-110337000D01*
X145107632Y-110337000D01*
X145029346Y-110369427D01*
X144969428Y-110429345D01*
X144937000Y-110507631D01*
X143363000Y-110507631D01*
X143330572Y-110429345D01*
X143270654Y-110369427D01*
X143192368Y-110337000D01*
X142590250Y-110337000D01*
X142537000Y-110390250D01*
X142063000Y-110390250D01*
X142009750Y-110337000D01*
X141407632Y-110337000D01*
X141329346Y-110369427D01*
X141269428Y-110429345D01*
X141237000Y-110507631D01*
X140817861Y-110507631D01*
X141112492Y-110213000D01*
X149675299Y-110213000D01*
X149723950Y-110261736D01*
X149967543Y-110362885D01*
X150231300Y-110363115D01*
X150475069Y-110262392D01*
X150524547Y-110213000D01*
X160227508Y-110213000D01*
X160329541Y-110315033D01*
X160277000Y-110579175D01*
X160277000Y-110620825D01*
X160357916Y-111027617D01*
X160588345Y-111372480D01*
X160933208Y-111602909D01*
X161340000Y-111683825D01*
X161746792Y-111602909D01*
X162091655Y-111372480D01*
X162322084Y-111027617D01*
X162403000Y-110620825D01*
X162403000Y-110579175D01*
X162817000Y-110579175D01*
X162817000Y-110620825D01*
X162897916Y-111027617D01*
X163128345Y-111372480D01*
X163473208Y-111602909D01*
X163880000Y-111683825D01*
X164286792Y-111602909D01*
X164631655Y-111372480D01*
X164862084Y-111027617D01*
X164943000Y-110620825D01*
X164943000Y-110579175D01*
X165357000Y-110579175D01*
X165357000Y-110620825D01*
X165437916Y-111027617D01*
X165668345Y-111372480D01*
X166013208Y-111602909D01*
X166420000Y-111683825D01*
X166826792Y-111602909D01*
X167171655Y-111372480D01*
X167402084Y-111027617D01*
X167483000Y-110620825D01*
X167483000Y-110600050D01*
X168100250Y-110600050D01*
X168107633Y-110735052D01*
X168224198Y-111050959D01*
X168452782Y-111298211D01*
X168758585Y-111439167D01*
X168824948Y-111452367D01*
X168959950Y-111459750D01*
X168959950Y-110600050D01*
X168960050Y-110600050D01*
X168960050Y-111459750D01*
X169095052Y-111452367D01*
X169161415Y-111439167D01*
X169467218Y-111298211D01*
X169695802Y-111050959D01*
X169812367Y-110735052D01*
X169819750Y-110600050D01*
X168960050Y-110600050D01*
X168959950Y-110600050D01*
X168100250Y-110600050D01*
X167483000Y-110600050D01*
X167483000Y-110599950D01*
X168100250Y-110599950D01*
X168959950Y-110599950D01*
X168960050Y-110599950D01*
X169819750Y-110599950D01*
X169812367Y-110464948D01*
X169695802Y-110149041D01*
X169467218Y-109901789D01*
X169161415Y-109760833D01*
X169106953Y-109750000D01*
X170432828Y-109750000D01*
X170432828Y-111450000D01*
X170447680Y-111528933D01*
X170494329Y-111601428D01*
X170565508Y-111650062D01*
X170650000Y-111667172D01*
X172350000Y-111667172D01*
X172428933Y-111652320D01*
X172501428Y-111605671D01*
X172550062Y-111534492D01*
X172567172Y-111450000D01*
X172567172Y-109750000D01*
X172552320Y-109671067D01*
X172505671Y-109598572D01*
X172434492Y-109549938D01*
X172350000Y-109532828D01*
X170650000Y-109532828D01*
X170571067Y-109547680D01*
X170498572Y-109594329D01*
X170449938Y-109665508D01*
X170432828Y-109750000D01*
X169106953Y-109750000D01*
X169095052Y-109747633D01*
X168960050Y-109740250D01*
X168960050Y-110599950D01*
X168959950Y-110599950D01*
X168959950Y-109740250D01*
X168824948Y-109747633D01*
X168758585Y-109760833D01*
X168452782Y-109901789D01*
X168224198Y-110149041D01*
X168107633Y-110464948D01*
X168100250Y-110599950D01*
X167483000Y-110599950D01*
X167483000Y-110579175D01*
X167402084Y-110172383D01*
X167171655Y-109827520D01*
X166826792Y-109597091D01*
X166420000Y-109516175D01*
X166013208Y-109597091D01*
X165668345Y-109827520D01*
X165437916Y-110172383D01*
X165357000Y-110579175D01*
X164943000Y-110579175D01*
X164862084Y-110172383D01*
X164631655Y-109827520D01*
X164286792Y-109597091D01*
X163880000Y-109516175D01*
X163473208Y-109597091D01*
X163128345Y-109827520D01*
X162897916Y-110172383D01*
X162817000Y-110579175D01*
X162403000Y-110579175D01*
X162322084Y-110172383D01*
X162091655Y-109827520D01*
X161746792Y-109597091D01*
X161340000Y-109516175D01*
X161041118Y-109575626D01*
X160802746Y-109337254D01*
X160724856Y-109285210D01*
X160636317Y-109226050D01*
X160440000Y-109187000D01*
X150524701Y-109187000D01*
X150476050Y-109138264D01*
X150232457Y-109037115D01*
X149968700Y-109036885D01*
X149724931Y-109137608D01*
X149675453Y-109187000D01*
X140900005Y-109187000D01*
X140900000Y-109186999D01*
X140703684Y-109226049D01*
X140537254Y-109337254D01*
X137973000Y-111901508D01*
X137973000Y-105603300D01*
X160037000Y-105603300D01*
X160037000Y-106452586D01*
X160038979Y-106457364D01*
X160042636Y-106461021D01*
X160047414Y-106463000D01*
X160896700Y-106463000D01*
X160899950Y-106459750D01*
X160899950Y-105600050D01*
X160900050Y-105600050D01*
X160900050Y-106459750D01*
X160903300Y-106463000D01*
X161752586Y-106463000D01*
X161757364Y-106461021D01*
X161761021Y-106457364D01*
X161763000Y-106452586D01*
X161763000Y-105603300D01*
X161759750Y-105600050D01*
X160900050Y-105600050D01*
X160899950Y-105600050D01*
X160040250Y-105600050D01*
X160037000Y-105603300D01*
X137973000Y-105603300D01*
X137973000Y-104747414D01*
X160037000Y-104747414D01*
X160037000Y-105596700D01*
X160040250Y-105599950D01*
X160899950Y-105599950D01*
X160899950Y-104740250D01*
X160900050Y-104740250D01*
X160900050Y-105599950D01*
X161759750Y-105599950D01*
X161763000Y-105596700D01*
X161763000Y-105579175D01*
X162377000Y-105579175D01*
X162377000Y-105620825D01*
X162457916Y-106027617D01*
X162688345Y-106372480D01*
X163033208Y-106602909D01*
X163440000Y-106683825D01*
X163846792Y-106602909D01*
X164191655Y-106372480D01*
X164422084Y-106027617D01*
X164503000Y-105620825D01*
X164503000Y-105579175D01*
X164917000Y-105579175D01*
X164917000Y-105620825D01*
X164997916Y-106027617D01*
X165228345Y-106372480D01*
X165573208Y-106602909D01*
X165980000Y-106683825D01*
X166386792Y-106602909D01*
X166731655Y-106372480D01*
X166962084Y-106027617D01*
X167043000Y-105620825D01*
X167043000Y-105579175D01*
X167457000Y-105579175D01*
X167457000Y-105620825D01*
X167537916Y-106027617D01*
X167768345Y-106372480D01*
X168113208Y-106602909D01*
X168520000Y-106683825D01*
X168926792Y-106602909D01*
X169271655Y-106372480D01*
X169502084Y-106027617D01*
X169583000Y-105620825D01*
X169583000Y-105579175D01*
X169557306Y-105450000D01*
X172932828Y-105450000D01*
X172932828Y-107150000D01*
X172947680Y-107228933D01*
X172994329Y-107301428D01*
X173065508Y-107350062D01*
X173150000Y-107367172D01*
X174850000Y-107367172D01*
X174928933Y-107352320D01*
X175001428Y-107305671D01*
X175050062Y-107234492D01*
X175067172Y-107150000D01*
X175067172Y-106279175D01*
X175477000Y-106279175D01*
X175477000Y-106320825D01*
X175557916Y-106727617D01*
X175788345Y-107072480D01*
X176133208Y-107302909D01*
X176540000Y-107383825D01*
X176946792Y-107302909D01*
X177291655Y-107072480D01*
X177522084Y-106727617D01*
X177603000Y-106320825D01*
X177603000Y-106300050D01*
X178220250Y-106300050D01*
X178227633Y-106435052D01*
X178344198Y-106750959D01*
X178572782Y-106998211D01*
X178878585Y-107139167D01*
X178944948Y-107152367D01*
X179079950Y-107159750D01*
X179079950Y-106300050D01*
X179080050Y-106300050D01*
X179080050Y-107159750D01*
X179215052Y-107152367D01*
X179281415Y-107139167D01*
X179587218Y-106998211D01*
X179815802Y-106750959D01*
X179932367Y-106435052D01*
X179939750Y-106300050D01*
X179080050Y-106300050D01*
X179079950Y-106300050D01*
X178220250Y-106300050D01*
X177603000Y-106300050D01*
X177603000Y-106299950D01*
X178220250Y-106299950D01*
X179079950Y-106299950D01*
X179080050Y-106299950D01*
X179939750Y-106299950D01*
X179938614Y-106279175D01*
X180557000Y-106279175D01*
X180557000Y-106320825D01*
X180637916Y-106727617D01*
X180868345Y-107072480D01*
X181213208Y-107302909D01*
X181620000Y-107383825D01*
X182026792Y-107302909D01*
X182371655Y-107072480D01*
X182602084Y-106727617D01*
X182683000Y-106320825D01*
X182683000Y-106279175D01*
X183097000Y-106279175D01*
X183097000Y-106320825D01*
X183177916Y-106727617D01*
X183408345Y-107072480D01*
X183753208Y-107302909D01*
X184160000Y-107383825D01*
X184566792Y-107302909D01*
X184911655Y-107072480D01*
X185142084Y-106727617D01*
X185223000Y-106320825D01*
X185223000Y-106279175D01*
X185637000Y-106279175D01*
X185637000Y-106320825D01*
X185717916Y-106727617D01*
X185948345Y-107072480D01*
X186293208Y-107302909D01*
X186700000Y-107383825D01*
X187106792Y-107302909D01*
X187451655Y-107072480D01*
X187682084Y-106727617D01*
X187763000Y-106320825D01*
X187763000Y-106279175D01*
X188177000Y-106279175D01*
X188177000Y-106320825D01*
X188257916Y-106727617D01*
X188488345Y-107072480D01*
X188833208Y-107302909D01*
X189240000Y-107383825D01*
X189646792Y-107302909D01*
X189991655Y-107072480D01*
X190222084Y-106727617D01*
X190303000Y-106320825D01*
X190303000Y-106279175D01*
X190717000Y-106279175D01*
X190717000Y-106320825D01*
X190797916Y-106727617D01*
X191028345Y-107072480D01*
X191373208Y-107302909D01*
X191780000Y-107383825D01*
X192186792Y-107302909D01*
X192531655Y-107072480D01*
X192762084Y-106727617D01*
X192843000Y-106320825D01*
X192843000Y-106279175D01*
X192762084Y-105872383D01*
X192531655Y-105527520D01*
X192186792Y-105297091D01*
X191780000Y-105216175D01*
X191373208Y-105297091D01*
X191028345Y-105527520D01*
X190797916Y-105872383D01*
X190717000Y-106279175D01*
X190303000Y-106279175D01*
X190222084Y-105872383D01*
X189991655Y-105527520D01*
X189646792Y-105297091D01*
X189240000Y-105216175D01*
X188833208Y-105297091D01*
X188488345Y-105527520D01*
X188257916Y-105872383D01*
X188177000Y-106279175D01*
X187763000Y-106279175D01*
X187682084Y-105872383D01*
X187451655Y-105527520D01*
X187106792Y-105297091D01*
X186700000Y-105216175D01*
X186293208Y-105297091D01*
X185948345Y-105527520D01*
X185717916Y-105872383D01*
X185637000Y-106279175D01*
X185223000Y-106279175D01*
X185142084Y-105872383D01*
X184911655Y-105527520D01*
X184566792Y-105297091D01*
X184160000Y-105216175D01*
X183753208Y-105297091D01*
X183408345Y-105527520D01*
X183177916Y-105872383D01*
X183097000Y-106279175D01*
X182683000Y-106279175D01*
X182602084Y-105872383D01*
X182371655Y-105527520D01*
X182026792Y-105297091D01*
X181620000Y-105216175D01*
X181213208Y-105297091D01*
X180868345Y-105527520D01*
X180637916Y-105872383D01*
X180557000Y-106279175D01*
X179938614Y-106279175D01*
X179932367Y-106164948D01*
X179815802Y-105849041D01*
X179587218Y-105601789D01*
X179281415Y-105460833D01*
X179215052Y-105447633D01*
X179080050Y-105440250D01*
X179080050Y-106299950D01*
X179079950Y-106299950D01*
X179079950Y-105440250D01*
X178944948Y-105447633D01*
X178878585Y-105460833D01*
X178572782Y-105601789D01*
X178344198Y-105849041D01*
X178227633Y-106164948D01*
X178220250Y-106299950D01*
X177603000Y-106299950D01*
X177603000Y-106279175D01*
X177522084Y-105872383D01*
X177291655Y-105527520D01*
X176946792Y-105297091D01*
X176540000Y-105216175D01*
X176133208Y-105297091D01*
X175788345Y-105527520D01*
X175557916Y-105872383D01*
X175477000Y-106279175D01*
X175067172Y-106279175D01*
X175067172Y-105450000D01*
X175052320Y-105371067D01*
X175005671Y-105298572D01*
X174934492Y-105249938D01*
X174850000Y-105232828D01*
X173150000Y-105232828D01*
X173071067Y-105247680D01*
X172998572Y-105294329D01*
X172949938Y-105365508D01*
X172932828Y-105450000D01*
X169557306Y-105450000D01*
X169502084Y-105172383D01*
X169271655Y-104827520D01*
X168926792Y-104597091D01*
X168520000Y-104516175D01*
X168113208Y-104597091D01*
X167768345Y-104827520D01*
X167537916Y-105172383D01*
X167457000Y-105579175D01*
X167043000Y-105579175D01*
X166962084Y-105172383D01*
X166731655Y-104827520D01*
X166386792Y-104597091D01*
X165980000Y-104516175D01*
X165573208Y-104597091D01*
X165228345Y-104827520D01*
X164997916Y-105172383D01*
X164917000Y-105579175D01*
X164503000Y-105579175D01*
X164422084Y-105172383D01*
X164191655Y-104827520D01*
X163846792Y-104597091D01*
X163440000Y-104516175D01*
X163033208Y-104597091D01*
X162688345Y-104827520D01*
X162457916Y-105172383D01*
X162377000Y-105579175D01*
X161763000Y-105579175D01*
X161763000Y-104747414D01*
X161761021Y-104742636D01*
X161757364Y-104738979D01*
X161752586Y-104737000D01*
X160903300Y-104737000D01*
X160900050Y-104740250D01*
X160899950Y-104740250D01*
X160896700Y-104737000D01*
X160047414Y-104737000D01*
X160042636Y-104738979D01*
X160038979Y-104742636D01*
X160037000Y-104747414D01*
X137973000Y-104747414D01*
X137973000Y-101890250D01*
X147737000Y-101890250D01*
X147737000Y-102492369D01*
X147769428Y-102570655D01*
X147829346Y-102630573D01*
X147907632Y-102663000D01*
X148509750Y-102663000D01*
X148563000Y-102609750D01*
X148563000Y-101837000D01*
X149037000Y-101837000D01*
X149037000Y-102609750D01*
X149090250Y-102663000D01*
X149692368Y-102663000D01*
X149770654Y-102630573D01*
X149830572Y-102570655D01*
X149863000Y-102492369D01*
X149863000Y-102431300D01*
X168636885Y-102431300D01*
X168737608Y-102675069D01*
X168923950Y-102861736D01*
X169167543Y-102962885D01*
X169431300Y-102963115D01*
X169675069Y-102862392D01*
X169861736Y-102676050D01*
X169921841Y-102531300D01*
X171136885Y-102531300D01*
X171237608Y-102775069D01*
X171423950Y-102961736D01*
X171667543Y-103062885D01*
X171931300Y-103063115D01*
X172175069Y-102962392D01*
X172361736Y-102776050D01*
X172397363Y-102690250D01*
X178037000Y-102690250D01*
X178037000Y-103292369D01*
X178069428Y-103370655D01*
X178129346Y-103430573D01*
X178207632Y-103463000D01*
X178809750Y-103463000D01*
X178863000Y-103409750D01*
X178863000Y-102637000D01*
X179337000Y-102637000D01*
X179337000Y-103409750D01*
X179390250Y-103463000D01*
X179992368Y-103463000D01*
X180070654Y-103430573D01*
X180130572Y-103370655D01*
X180163000Y-103292369D01*
X180163000Y-102690250D01*
X180109750Y-102637000D01*
X179337000Y-102637000D01*
X178863000Y-102637000D01*
X178090250Y-102637000D01*
X178037000Y-102690250D01*
X172397363Y-102690250D01*
X172462885Y-102532457D01*
X172462946Y-102462546D01*
X173417861Y-101507631D01*
X178037000Y-101507631D01*
X178037000Y-102109750D01*
X178090250Y-102163000D01*
X178863000Y-102163000D01*
X178863000Y-101390250D01*
X179337000Y-101390250D01*
X179337000Y-102163000D01*
X180109750Y-102163000D01*
X180163000Y-102109750D01*
X180163000Y-101507631D01*
X180130572Y-101429345D01*
X180070654Y-101369427D01*
X179992368Y-101337000D01*
X179390250Y-101337000D01*
X179337000Y-101390250D01*
X178863000Y-101390250D01*
X178809750Y-101337000D01*
X178207632Y-101337000D01*
X178129346Y-101369427D01*
X178069428Y-101429345D01*
X178037000Y-101507631D01*
X173417861Y-101507631D01*
X184562746Y-90362746D01*
X184673950Y-90196317D01*
X184713000Y-90000000D01*
X184713000Y-83924701D01*
X184761736Y-83876050D01*
X184862885Y-83632457D01*
X184863115Y-83368700D01*
X184762392Y-83124931D01*
X184576050Y-82938264D01*
X184332457Y-82837115D01*
X184068700Y-82836885D01*
X183824931Y-82937608D01*
X183638264Y-83123950D01*
X183537115Y-83367543D01*
X183536885Y-83631300D01*
X183637608Y-83875069D01*
X183687000Y-83924547D01*
X183687000Y-89787508D01*
X171737563Y-101736945D01*
X171668700Y-101736885D01*
X171424931Y-101837608D01*
X171238264Y-102023950D01*
X171137115Y-102267543D01*
X171136885Y-102531300D01*
X169921841Y-102531300D01*
X169962885Y-102432457D01*
X169962946Y-102362546D01*
X181962746Y-90362746D01*
X182073950Y-90196317D01*
X182113000Y-90000000D01*
X182113000Y-84024701D01*
X182161736Y-83976050D01*
X182262885Y-83732457D01*
X182263115Y-83468700D01*
X182162392Y-83224931D01*
X181976050Y-83038264D01*
X181732457Y-82937115D01*
X181468700Y-82936885D01*
X181224931Y-83037608D01*
X181038264Y-83223950D01*
X180937115Y-83467543D01*
X180936885Y-83731300D01*
X181037608Y-83975069D01*
X181087000Y-84024547D01*
X181087000Y-89787508D01*
X169237563Y-101636945D01*
X169168700Y-101636885D01*
X168924931Y-101737608D01*
X168738264Y-101923950D01*
X168637115Y-102167543D01*
X168636885Y-102431300D01*
X149863000Y-102431300D01*
X149863000Y-101890250D01*
X149809750Y-101837000D01*
X149037000Y-101837000D01*
X148563000Y-101837000D01*
X147790250Y-101837000D01*
X147737000Y-101890250D01*
X137973000Y-101890250D01*
X137973000Y-100707631D01*
X147737000Y-100707631D01*
X147737000Y-101309750D01*
X147790250Y-101363000D01*
X148563000Y-101363000D01*
X148563000Y-100590250D01*
X149037000Y-100590250D01*
X149037000Y-101363000D01*
X149809750Y-101363000D01*
X149863000Y-101309750D01*
X149863000Y-100707631D01*
X149830572Y-100629345D01*
X149770654Y-100569427D01*
X149692368Y-100537000D01*
X149090250Y-100537000D01*
X149037000Y-100590250D01*
X148563000Y-100590250D01*
X148509750Y-100537000D01*
X147907632Y-100537000D01*
X147829346Y-100569427D01*
X147769428Y-100629345D01*
X147737000Y-100707631D01*
X137973000Y-100707631D01*
X137973000Y-98752492D01*
X139775492Y-96950000D01*
X142532828Y-96950000D01*
X142532828Y-98650000D01*
X142547680Y-98728933D01*
X142594329Y-98801428D01*
X142665508Y-98850062D01*
X142750000Y-98867172D01*
X144450000Y-98867172D01*
X144528933Y-98852320D01*
X144601428Y-98805671D01*
X144650062Y-98734492D01*
X144667172Y-98650000D01*
X144667172Y-97779175D01*
X145077000Y-97779175D01*
X145077000Y-97820825D01*
X145157916Y-98227617D01*
X145388345Y-98572480D01*
X145733208Y-98802909D01*
X146140000Y-98883825D01*
X146546792Y-98802909D01*
X146891655Y-98572480D01*
X147122084Y-98227617D01*
X147203000Y-97820825D01*
X147203000Y-97800050D01*
X147820250Y-97800050D01*
X147827633Y-97935052D01*
X147944198Y-98250959D01*
X148172782Y-98498211D01*
X148478585Y-98639167D01*
X148544948Y-98652367D01*
X148679950Y-98659750D01*
X148679950Y-97800050D01*
X148680050Y-97800050D01*
X148680050Y-98659750D01*
X148815052Y-98652367D01*
X148881415Y-98639167D01*
X149187218Y-98498211D01*
X149415802Y-98250959D01*
X149532367Y-97935052D01*
X149539750Y-97800050D01*
X148680050Y-97800050D01*
X148679950Y-97800050D01*
X147820250Y-97800050D01*
X147203000Y-97800050D01*
X147203000Y-97799950D01*
X147820250Y-97799950D01*
X148679950Y-97799950D01*
X148680050Y-97799950D01*
X149539750Y-97799950D01*
X149538614Y-97779175D01*
X150157000Y-97779175D01*
X150157000Y-97820825D01*
X150237916Y-98227617D01*
X150468345Y-98572480D01*
X150813208Y-98802909D01*
X151220000Y-98883825D01*
X151626792Y-98802909D01*
X151971655Y-98572480D01*
X152202084Y-98227617D01*
X152283000Y-97820825D01*
X152283000Y-97779175D01*
X152697000Y-97779175D01*
X152697000Y-97820825D01*
X152777916Y-98227617D01*
X153008345Y-98572480D01*
X153353208Y-98802909D01*
X153760000Y-98883825D01*
X154166792Y-98802909D01*
X154511655Y-98572480D01*
X154742084Y-98227617D01*
X154823000Y-97820825D01*
X154823000Y-97779175D01*
X155237000Y-97779175D01*
X155237000Y-97820825D01*
X155317916Y-98227617D01*
X155548345Y-98572480D01*
X155893208Y-98802909D01*
X156300000Y-98883825D01*
X156706792Y-98802909D01*
X157051655Y-98572480D01*
X157282084Y-98227617D01*
X157363000Y-97820825D01*
X157363000Y-97779175D01*
X157777000Y-97779175D01*
X157777000Y-97820825D01*
X157857916Y-98227617D01*
X158088345Y-98572480D01*
X158433208Y-98802909D01*
X158840000Y-98883825D01*
X159246792Y-98802909D01*
X159591655Y-98572480D01*
X159822084Y-98227617D01*
X159889190Y-97890250D01*
X163237000Y-97890250D01*
X163237000Y-98492369D01*
X163269428Y-98570655D01*
X163329346Y-98630573D01*
X163407632Y-98663000D01*
X164009750Y-98663000D01*
X164063000Y-98609750D01*
X164063000Y-97837000D01*
X164537000Y-97837000D01*
X164537000Y-98609750D01*
X164590250Y-98663000D01*
X165192368Y-98663000D01*
X165270654Y-98630573D01*
X165330572Y-98570655D01*
X165363000Y-98492369D01*
X165363000Y-97890250D01*
X165309750Y-97837000D01*
X164537000Y-97837000D01*
X164063000Y-97837000D01*
X163290250Y-97837000D01*
X163237000Y-97890250D01*
X159889190Y-97890250D01*
X159903000Y-97820825D01*
X159903000Y-97779175D01*
X159822084Y-97372383D01*
X159591655Y-97027520D01*
X159246792Y-96797091D01*
X158840000Y-96716175D01*
X158433208Y-96797091D01*
X158088345Y-97027520D01*
X157857916Y-97372383D01*
X157777000Y-97779175D01*
X157363000Y-97779175D01*
X157282084Y-97372383D01*
X157051655Y-97027520D01*
X156706792Y-96797091D01*
X156300000Y-96716175D01*
X155893208Y-96797091D01*
X155548345Y-97027520D01*
X155317916Y-97372383D01*
X155237000Y-97779175D01*
X154823000Y-97779175D01*
X154742084Y-97372383D01*
X154511655Y-97027520D01*
X154166792Y-96797091D01*
X153760000Y-96716175D01*
X153353208Y-96797091D01*
X153008345Y-97027520D01*
X152777916Y-97372383D01*
X152697000Y-97779175D01*
X152283000Y-97779175D01*
X152202084Y-97372383D01*
X151971655Y-97027520D01*
X151626792Y-96797091D01*
X151220000Y-96716175D01*
X150813208Y-96797091D01*
X150468345Y-97027520D01*
X150237916Y-97372383D01*
X150157000Y-97779175D01*
X149538614Y-97779175D01*
X149532367Y-97664948D01*
X149415802Y-97349041D01*
X149187218Y-97101789D01*
X148881415Y-96960833D01*
X148815052Y-96947633D01*
X148680050Y-96940250D01*
X148680050Y-97799950D01*
X148679950Y-97799950D01*
X148679950Y-96940250D01*
X148544948Y-96947633D01*
X148478585Y-96960833D01*
X148172782Y-97101789D01*
X147944198Y-97349041D01*
X147827633Y-97664948D01*
X147820250Y-97799950D01*
X147203000Y-97799950D01*
X147203000Y-97779175D01*
X147122084Y-97372383D01*
X146891655Y-97027520D01*
X146546792Y-96797091D01*
X146140000Y-96716175D01*
X145733208Y-96797091D01*
X145388345Y-97027520D01*
X145157916Y-97372383D01*
X145077000Y-97779175D01*
X144667172Y-97779175D01*
X144667172Y-96950000D01*
X144652320Y-96871067D01*
X144605671Y-96798572D01*
X144534492Y-96749938D01*
X144450000Y-96732828D01*
X142750000Y-96732828D01*
X142671067Y-96747680D01*
X142598572Y-96794329D01*
X142549938Y-96865508D01*
X142532828Y-96950000D01*
X139775492Y-96950000D01*
X140017861Y-96707631D01*
X163237000Y-96707631D01*
X163237000Y-97309750D01*
X163290250Y-97363000D01*
X164063000Y-97363000D01*
X164063000Y-96590250D01*
X164537000Y-96590250D01*
X164537000Y-97363000D01*
X165309750Y-97363000D01*
X165363000Y-97309750D01*
X165363000Y-96707631D01*
X165330572Y-96629345D01*
X165270654Y-96569427D01*
X165192368Y-96537000D01*
X164590250Y-96537000D01*
X164537000Y-96590250D01*
X164063000Y-96590250D01*
X164009750Y-96537000D01*
X163407632Y-96537000D01*
X163329346Y-96569427D01*
X163269428Y-96629345D01*
X163237000Y-96707631D01*
X140017861Y-96707631D01*
X142462746Y-94262746D01*
X142529800Y-94162392D01*
X142573950Y-94096317D01*
X142613000Y-93900000D01*
X142613000Y-91390250D01*
X150737000Y-91390250D01*
X150737000Y-91992369D01*
X150769428Y-92070655D01*
X150829346Y-92130573D01*
X150907632Y-92163000D01*
X151509750Y-92163000D01*
X151563000Y-92109750D01*
X151563000Y-91337000D01*
X152037000Y-91337000D01*
X152037000Y-92109750D01*
X152090250Y-92163000D01*
X152692368Y-92163000D01*
X152770654Y-92130573D01*
X152830572Y-92070655D01*
X152863000Y-91992369D01*
X152863000Y-91893089D01*
X164424831Y-91893089D01*
X164572954Y-92251571D01*
X164846986Y-92526082D01*
X165205210Y-92674830D01*
X165593089Y-92675169D01*
X165951571Y-92527046D01*
X166222608Y-92256481D01*
X167383590Y-92256481D01*
X167475582Y-92339301D01*
X167755584Y-92468362D01*
X168063661Y-92480447D01*
X168352912Y-92373716D01*
X168404418Y-92339301D01*
X168496410Y-92256481D01*
X167940000Y-91700071D01*
X167383590Y-92256481D01*
X166222608Y-92256481D01*
X166226082Y-92253014D01*
X166374830Y-91894790D01*
X166374892Y-91823661D01*
X167159553Y-91823661D01*
X167266284Y-92112912D01*
X167300699Y-92164418D01*
X167383519Y-92256410D01*
X167939929Y-91700000D01*
X167940071Y-91700000D01*
X168496481Y-92256410D01*
X168579301Y-92164418D01*
X168708362Y-91884416D01*
X168720447Y-91576339D01*
X168613716Y-91287088D01*
X168579301Y-91235582D01*
X168496481Y-91143590D01*
X167940071Y-91700000D01*
X167939929Y-91700000D01*
X167383519Y-91143590D01*
X167300699Y-91235582D01*
X167171638Y-91515584D01*
X167159553Y-91823661D01*
X166374892Y-91823661D01*
X166375169Y-91506911D01*
X166227046Y-91148429D01*
X166222145Y-91143519D01*
X167383590Y-91143519D01*
X167940000Y-91699929D01*
X168496410Y-91143519D01*
X168404418Y-91060699D01*
X168124416Y-90931638D01*
X167816339Y-90919553D01*
X167527088Y-91026284D01*
X167475582Y-91060699D01*
X167383590Y-91143519D01*
X166222145Y-91143519D01*
X165953014Y-90873918D01*
X165594790Y-90725170D01*
X165206911Y-90724831D01*
X164848429Y-90872954D01*
X164573918Y-91146986D01*
X164425170Y-91505210D01*
X164424831Y-91893089D01*
X152863000Y-91893089D01*
X152863000Y-91390250D01*
X152809750Y-91337000D01*
X152037000Y-91337000D01*
X151563000Y-91337000D01*
X150790250Y-91337000D01*
X150737000Y-91390250D01*
X142613000Y-91390250D01*
X142613000Y-90207631D01*
X150737000Y-90207631D01*
X150737000Y-90809750D01*
X150790250Y-90863000D01*
X151563000Y-90863000D01*
X151563000Y-90090250D01*
X152037000Y-90090250D01*
X152037000Y-90863000D01*
X152809750Y-90863000D01*
X152863000Y-90809750D01*
X152863000Y-90207631D01*
X152830572Y-90129345D01*
X152770654Y-90069427D01*
X152692368Y-90037000D01*
X152090250Y-90037000D01*
X152037000Y-90090250D01*
X151563000Y-90090250D01*
X151509750Y-90037000D01*
X150907632Y-90037000D01*
X150829346Y-90069427D01*
X150769428Y-90129345D01*
X150737000Y-90207631D01*
X142613000Y-90207631D01*
X142613000Y-82200000D01*
X142573950Y-82003683D01*
X142462746Y-81837254D01*
X142462743Y-81837252D01*
X140956792Y-80331300D01*
X161736885Y-80331300D01*
X161837608Y-80575069D01*
X162023950Y-80761736D01*
X162267543Y-80862885D01*
X162337454Y-80862946D01*
X162787000Y-81312492D01*
X162787000Y-87060000D01*
X162826050Y-87256317D01*
X162836770Y-87272360D01*
X162937254Y-87422746D01*
X164441175Y-88926666D01*
X164436440Y-88938069D01*
X163437563Y-89936945D01*
X163368700Y-89936885D01*
X163124931Y-90037608D01*
X162938264Y-90223950D01*
X162837115Y-90467543D01*
X162836885Y-90731300D01*
X162937608Y-90975069D01*
X163123950Y-91161736D01*
X163367543Y-91262885D01*
X163631300Y-91263115D01*
X163875069Y-91162392D01*
X164061736Y-90976050D01*
X164162885Y-90732457D01*
X164162946Y-90662546D01*
X164843201Y-89982290D01*
X164846986Y-89986082D01*
X165205210Y-90134830D01*
X165593089Y-90135169D01*
X165951571Y-89987046D01*
X166226082Y-89713014D01*
X166374830Y-89354790D01*
X166374831Y-89353089D01*
X166964831Y-89353089D01*
X167112954Y-89711571D01*
X167386986Y-89986082D01*
X167745210Y-90134830D01*
X168133089Y-90135169D01*
X168491571Y-89987046D01*
X168726768Y-89752260D01*
X169487000Y-90512491D01*
X169487000Y-93175299D01*
X169438264Y-93223950D01*
X169337115Y-93467543D01*
X169336885Y-93731300D01*
X169437608Y-93975069D01*
X169623950Y-94161736D01*
X169867543Y-94262885D01*
X170131300Y-94263115D01*
X170375069Y-94162392D01*
X170561736Y-93976050D01*
X170662885Y-93732457D01*
X170663115Y-93468700D01*
X170562392Y-93224931D01*
X170513000Y-93175453D01*
X170513000Y-90300000D01*
X170473950Y-90103683D01*
X170362746Y-89937254D01*
X170362743Y-89937252D01*
X169425492Y-89000000D01*
X170362437Y-88063055D01*
X170431300Y-88063115D01*
X170675069Y-87962392D01*
X170861736Y-87776050D01*
X170962885Y-87532457D01*
X170963115Y-87268700D01*
X170862392Y-87024931D01*
X170676050Y-86838264D01*
X170432457Y-86737115D01*
X170168700Y-86736885D01*
X169924931Y-86837608D01*
X169738264Y-87023950D01*
X169637115Y-87267543D01*
X169637054Y-87337454D01*
X168566738Y-88407770D01*
X168493014Y-88333918D01*
X168134790Y-88185170D01*
X167746911Y-88184831D01*
X167388429Y-88332954D01*
X167113918Y-88606986D01*
X166965170Y-88965210D01*
X166964831Y-89353089D01*
X166374831Y-89353089D01*
X166375169Y-88966911D01*
X166227046Y-88608429D01*
X165953014Y-88333918D01*
X165594790Y-88185170D01*
X165206911Y-88184831D01*
X165166868Y-88201377D01*
X163813000Y-86847508D01*
X163813000Y-86813089D01*
X164424831Y-86813089D01*
X164572954Y-87171571D01*
X164846986Y-87446082D01*
X165205210Y-87594830D01*
X165593089Y-87595169D01*
X165951571Y-87447046D01*
X166226082Y-87173014D01*
X166374830Y-86814790D01*
X166374831Y-86813089D01*
X166964831Y-86813089D01*
X167112954Y-87171571D01*
X167386986Y-87446082D01*
X167745210Y-87594830D01*
X168133089Y-87595169D01*
X168491571Y-87447046D01*
X168766082Y-87173014D01*
X168914830Y-86814790D01*
X168915169Y-86426911D01*
X168898624Y-86386868D01*
X170330000Y-84955492D01*
X171236945Y-85862437D01*
X171236885Y-85931300D01*
X171337608Y-86175069D01*
X171523950Y-86361736D01*
X171767543Y-86462885D01*
X172031300Y-86463115D01*
X172275069Y-86362392D01*
X172461736Y-86176050D01*
X172562885Y-85932457D01*
X172563115Y-85668700D01*
X172462392Y-85424931D01*
X172276050Y-85238264D01*
X172032457Y-85137115D01*
X171962546Y-85137054D01*
X171055492Y-84230000D01*
X172872491Y-82413000D01*
X183200000Y-82413000D01*
X183396317Y-82373950D01*
X183562746Y-82262746D01*
X184935242Y-80890250D01*
X187837000Y-80890250D01*
X187837000Y-81492369D01*
X187869428Y-81570655D01*
X187929346Y-81630573D01*
X188007632Y-81663000D01*
X188609750Y-81663000D01*
X188663000Y-81609750D01*
X188663000Y-80837000D01*
X189137000Y-80837000D01*
X189137000Y-81609750D01*
X189190250Y-81663000D01*
X189792368Y-81663000D01*
X189870654Y-81630573D01*
X189930572Y-81570655D01*
X189963000Y-81492369D01*
X189963000Y-80890250D01*
X189909750Y-80837000D01*
X189137000Y-80837000D01*
X188663000Y-80837000D01*
X187890250Y-80837000D01*
X187837000Y-80890250D01*
X184935242Y-80890250D01*
X186117861Y-79707631D01*
X187837000Y-79707631D01*
X187837000Y-80309750D01*
X187890250Y-80363000D01*
X188663000Y-80363000D01*
X188663000Y-79590250D01*
X189137000Y-79590250D01*
X189137000Y-80363000D01*
X189909750Y-80363000D01*
X189963000Y-80309750D01*
X189963000Y-79707631D01*
X189930572Y-79629345D01*
X189870654Y-79569427D01*
X189792368Y-79537000D01*
X189190250Y-79537000D01*
X189137000Y-79590250D01*
X188663000Y-79590250D01*
X188609750Y-79537000D01*
X188007632Y-79537000D01*
X187929346Y-79569427D01*
X187869428Y-79629345D01*
X187837000Y-79707631D01*
X186117861Y-79707631D01*
X189062437Y-76763055D01*
X189131300Y-76763115D01*
X189375069Y-76662392D01*
X189561736Y-76476050D01*
X189662885Y-76232457D01*
X189663115Y-75968700D01*
X189562392Y-75724931D01*
X189376050Y-75538264D01*
X189132457Y-75437115D01*
X188868700Y-75436885D01*
X188624931Y-75537608D01*
X188438264Y-75723950D01*
X188337115Y-75967543D01*
X188337054Y-76037454D01*
X182987508Y-81387000D01*
X172660005Y-81387000D01*
X172660000Y-81386999D01*
X172463684Y-81426049D01*
X172463682Y-81426050D01*
X172463683Y-81426050D01*
X172297254Y-81537254D01*
X172297252Y-81537257D01*
X169967254Y-83867254D01*
X169967252Y-83867257D01*
X168173334Y-85661175D01*
X168134790Y-85645170D01*
X167746911Y-85644831D01*
X167388429Y-85792954D01*
X167113918Y-86066986D01*
X166965170Y-86425210D01*
X166964831Y-86813089D01*
X166374831Y-86813089D01*
X166375169Y-86426911D01*
X166227046Y-86068429D01*
X165953014Y-85793918D01*
X165913000Y-85777303D01*
X165913000Y-85024701D01*
X165961736Y-84976050D01*
X166062885Y-84732457D01*
X166063115Y-84468700D01*
X165962392Y-84224931D01*
X165913000Y-84175453D01*
X165913000Y-80831300D01*
X168436885Y-80831300D01*
X168537608Y-81075069D01*
X168723950Y-81261736D01*
X168967543Y-81362885D01*
X169231300Y-81363115D01*
X169475069Y-81262392D01*
X169661736Y-81076050D01*
X169762885Y-80832457D01*
X169763115Y-80568700D01*
X169662392Y-80324931D01*
X169613000Y-80275453D01*
X169613000Y-73479175D01*
X170357000Y-73479175D01*
X170357000Y-73520825D01*
X170437916Y-73927617D01*
X170668345Y-74272480D01*
X171013208Y-74502909D01*
X171420000Y-74583825D01*
X171826792Y-74502909D01*
X172171655Y-74272480D01*
X172402084Y-73927617D01*
X172483000Y-73520825D01*
X172483000Y-73479175D01*
X172897000Y-73479175D01*
X172897000Y-73520825D01*
X172977916Y-73927617D01*
X173208345Y-74272480D01*
X173553208Y-74502909D01*
X173960000Y-74583825D01*
X174366792Y-74502909D01*
X174711655Y-74272480D01*
X174942084Y-73927617D01*
X175023000Y-73520825D01*
X175023000Y-73479175D01*
X175437000Y-73479175D01*
X175437000Y-73520825D01*
X175517916Y-73927617D01*
X175748345Y-74272480D01*
X176093208Y-74502909D01*
X176500000Y-74583825D01*
X176906792Y-74502909D01*
X177251655Y-74272480D01*
X177482084Y-73927617D01*
X177563000Y-73520825D01*
X177563000Y-73479175D01*
X177977000Y-73479175D01*
X177977000Y-73520825D01*
X178057916Y-73927617D01*
X178288345Y-74272480D01*
X178633208Y-74502909D01*
X179040000Y-74583825D01*
X179446792Y-74502909D01*
X179791655Y-74272480D01*
X180022084Y-73927617D01*
X180103000Y-73520825D01*
X180103000Y-73479175D01*
X180517000Y-73479175D01*
X180517000Y-73520825D01*
X180597916Y-73927617D01*
X180828345Y-74272480D01*
X181173208Y-74502909D01*
X181580000Y-74583825D01*
X181986792Y-74502909D01*
X182331655Y-74272480D01*
X182562084Y-73927617D01*
X182643000Y-73520825D01*
X182643000Y-73479175D01*
X183057000Y-73479175D01*
X183057000Y-73520825D01*
X183137916Y-73927617D01*
X183368345Y-74272480D01*
X183713208Y-74502909D01*
X184120000Y-74583825D01*
X184526792Y-74502909D01*
X184871655Y-74272480D01*
X185102084Y-73927617D01*
X185183000Y-73520825D01*
X185183000Y-73500050D01*
X185800250Y-73500050D01*
X185807633Y-73635052D01*
X185924198Y-73950959D01*
X186152782Y-74198211D01*
X186458585Y-74339167D01*
X186524948Y-74352367D01*
X186659950Y-74359750D01*
X186659950Y-73500050D01*
X186660050Y-73500050D01*
X186660050Y-74359750D01*
X186795052Y-74352367D01*
X186861415Y-74339167D01*
X187167218Y-74198211D01*
X187395802Y-73950959D01*
X187512367Y-73635052D01*
X187519750Y-73500050D01*
X186660050Y-73500050D01*
X186659950Y-73500050D01*
X185800250Y-73500050D01*
X185183000Y-73500050D01*
X185183000Y-73499950D01*
X185800250Y-73499950D01*
X186659950Y-73499950D01*
X186660050Y-73499950D01*
X187519750Y-73499950D01*
X187512367Y-73364948D01*
X187395802Y-73049041D01*
X187167218Y-72801789D01*
X186861415Y-72660833D01*
X186806953Y-72650000D01*
X188132828Y-72650000D01*
X188132828Y-74350000D01*
X188147680Y-74428933D01*
X188194329Y-74501428D01*
X188265508Y-74550062D01*
X188350000Y-74567172D01*
X190050000Y-74567172D01*
X190128933Y-74552320D01*
X190201428Y-74505671D01*
X190250062Y-74434492D01*
X190267172Y-74350000D01*
X190267172Y-72650000D01*
X190252320Y-72571067D01*
X190205671Y-72498572D01*
X190134492Y-72449938D01*
X190050000Y-72432828D01*
X188350000Y-72432828D01*
X188271067Y-72447680D01*
X188198572Y-72494329D01*
X188149938Y-72565508D01*
X188132828Y-72650000D01*
X186806953Y-72650000D01*
X186795052Y-72647633D01*
X186660050Y-72640250D01*
X186660050Y-73499950D01*
X186659950Y-73499950D01*
X186659950Y-72640250D01*
X186524948Y-72647633D01*
X186458585Y-72660833D01*
X186152782Y-72801789D01*
X185924198Y-73049041D01*
X185807633Y-73364948D01*
X185800250Y-73499950D01*
X185183000Y-73499950D01*
X185183000Y-73479175D01*
X185102084Y-73072383D01*
X184871655Y-72727520D01*
X184526792Y-72497091D01*
X184120000Y-72416175D01*
X183713208Y-72497091D01*
X183368345Y-72727520D01*
X183137916Y-73072383D01*
X183057000Y-73479175D01*
X182643000Y-73479175D01*
X182562084Y-73072383D01*
X182331655Y-72727520D01*
X181986792Y-72497091D01*
X181580000Y-72416175D01*
X181173208Y-72497091D01*
X180828345Y-72727520D01*
X180597916Y-73072383D01*
X180517000Y-73479175D01*
X180103000Y-73479175D01*
X180022084Y-73072383D01*
X179791655Y-72727520D01*
X179446792Y-72497091D01*
X179040000Y-72416175D01*
X178633208Y-72497091D01*
X178288345Y-72727520D01*
X178057916Y-73072383D01*
X177977000Y-73479175D01*
X177563000Y-73479175D01*
X177482084Y-73072383D01*
X177251655Y-72727520D01*
X176906792Y-72497091D01*
X176500000Y-72416175D01*
X176093208Y-72497091D01*
X175748345Y-72727520D01*
X175517916Y-73072383D01*
X175437000Y-73479175D01*
X175023000Y-73479175D01*
X174942084Y-73072383D01*
X174711655Y-72727520D01*
X174366792Y-72497091D01*
X173960000Y-72416175D01*
X173553208Y-72497091D01*
X173208345Y-72727520D01*
X172977916Y-73072383D01*
X172897000Y-73479175D01*
X172483000Y-73479175D01*
X172402084Y-73072383D01*
X172171655Y-72727520D01*
X171826792Y-72497091D01*
X171420000Y-72416175D01*
X171013208Y-72497091D01*
X170668345Y-72727520D01*
X170437916Y-73072383D01*
X170357000Y-73479175D01*
X169613000Y-73479175D01*
X169613000Y-71812492D01*
X170112492Y-71313000D01*
X172400000Y-71313000D01*
X172596317Y-71273950D01*
X172762746Y-71162746D01*
X175922746Y-68002746D01*
X175929258Y-67993000D01*
X176033950Y-67836317D01*
X176071998Y-67645039D01*
X176249429Y-67526483D01*
X176460783Y-67210170D01*
X176535000Y-66837054D01*
X176535000Y-65762946D01*
X177125000Y-65762946D01*
X177125000Y-66837054D01*
X177199217Y-67210170D01*
X177410571Y-67526483D01*
X177587000Y-67644369D01*
X177587000Y-68700000D01*
X177626050Y-68896317D01*
X177736579Y-69061736D01*
X177737254Y-69062746D01*
X179437254Y-70762746D01*
X179603683Y-70873950D01*
X179800000Y-70913000D01*
X190187508Y-70913000D01*
X191287000Y-72012492D01*
X191287000Y-98587508D01*
X186737563Y-103136945D01*
X186668700Y-103136885D01*
X186424931Y-103237608D01*
X186238264Y-103423950D01*
X186137115Y-103667543D01*
X186136885Y-103931300D01*
X186237608Y-104175069D01*
X186423950Y-104361736D01*
X186667543Y-104462885D01*
X186931300Y-104463115D01*
X187175069Y-104362392D01*
X187361736Y-104176050D01*
X187462885Y-103932457D01*
X187462946Y-103862546D01*
X192162746Y-99162746D01*
X192187827Y-99125210D01*
X192273950Y-98996317D01*
X192313000Y-98800000D01*
X192313000Y-71800000D01*
X192273950Y-71603683D01*
X192162746Y-71437254D01*
X190762746Y-70037254D01*
X190596317Y-69926050D01*
X190400000Y-69887000D01*
X180012492Y-69887000D01*
X178656792Y-68531300D01*
X179036885Y-68531300D01*
X179137608Y-68775069D01*
X179323950Y-68961736D01*
X179567543Y-69062885D01*
X179831300Y-69063115D01*
X180075069Y-68962392D01*
X180261736Y-68776050D01*
X180362885Y-68532457D01*
X180362946Y-68462546D01*
X180394192Y-68431300D01*
X181636885Y-68431300D01*
X181737608Y-68675069D01*
X181923950Y-68861736D01*
X182167543Y-68962885D01*
X182431300Y-68963115D01*
X182675069Y-68862392D01*
X182861736Y-68676050D01*
X182921841Y-68531300D01*
X184136885Y-68531300D01*
X184237608Y-68775069D01*
X184423950Y-68961736D01*
X184667543Y-69062885D01*
X184931300Y-69063115D01*
X185175069Y-68962392D01*
X185361736Y-68776050D01*
X185462885Y-68532457D01*
X185462946Y-68462546D01*
X185594191Y-68331300D01*
X186736885Y-68331300D01*
X186837608Y-68575069D01*
X187023950Y-68761736D01*
X187267543Y-68862885D01*
X187531300Y-68863115D01*
X187775069Y-68762392D01*
X187961736Y-68576050D01*
X188062885Y-68332457D01*
X188062946Y-68262546D01*
X188576367Y-67749125D01*
X188633116Y-67737837D01*
X188949429Y-67526483D01*
X189160783Y-67210170D01*
X189235000Y-66837054D01*
X189235000Y-65762946D01*
X189160783Y-65389830D01*
X188949429Y-65073517D01*
X188633116Y-64862163D01*
X188260000Y-64787946D01*
X187886884Y-64862163D01*
X187570571Y-65073517D01*
X187359217Y-65389830D01*
X187285000Y-65762946D01*
X187285000Y-66837054D01*
X187359217Y-67210170D01*
X187481431Y-67393077D01*
X187337563Y-67536945D01*
X187268700Y-67536885D01*
X187024931Y-67637608D01*
X186838264Y-67823950D01*
X186737115Y-68067543D01*
X186736885Y-68331300D01*
X185594191Y-68331300D01*
X186082743Y-67842748D01*
X186082746Y-67842746D01*
X186193950Y-67676317D01*
X186195293Y-67669564D01*
X186409429Y-67526483D01*
X186620783Y-67210170D01*
X186695000Y-66837054D01*
X186695000Y-65762946D01*
X186620783Y-65389830D01*
X186409429Y-65073517D01*
X186093116Y-64862163D01*
X185720000Y-64787946D01*
X185346884Y-64862163D01*
X185030571Y-65073517D01*
X184819217Y-65389830D01*
X184745000Y-65762946D01*
X184745000Y-66837054D01*
X184819217Y-67210170D01*
X184997508Y-67477001D01*
X184737563Y-67736945D01*
X184668700Y-67736885D01*
X184424931Y-67837608D01*
X184238264Y-68023950D01*
X184137115Y-68267543D01*
X184136885Y-68531300D01*
X182921841Y-68531300D01*
X182962885Y-68432457D01*
X182962946Y-68362546D01*
X183542746Y-67782746D01*
X183572906Y-67737608D01*
X183588592Y-67714133D01*
X183869429Y-67526483D01*
X184080783Y-67210170D01*
X184155000Y-66837054D01*
X184155000Y-65762946D01*
X184080783Y-65389830D01*
X183869429Y-65073517D01*
X183553116Y-64862163D01*
X183180000Y-64787946D01*
X182806884Y-64862163D01*
X182490571Y-65073517D01*
X182279217Y-65389830D01*
X182205000Y-65762946D01*
X182205000Y-66837054D01*
X182279217Y-67210170D01*
X182433475Y-67441033D01*
X182237563Y-67636945D01*
X182168700Y-67636885D01*
X181924931Y-67737608D01*
X181738264Y-67923950D01*
X181637115Y-68167543D01*
X181636885Y-68431300D01*
X180394192Y-68431300D01*
X181002746Y-67822746D01*
X181096876Y-67681870D01*
X181329429Y-67526483D01*
X181540783Y-67210170D01*
X181615000Y-66837054D01*
X181615000Y-65762946D01*
X181540783Y-65389830D01*
X181329429Y-65073517D01*
X181013116Y-64862163D01*
X180640000Y-64787946D01*
X180266884Y-64862163D01*
X179950571Y-65073517D01*
X179739217Y-65389830D01*
X179665000Y-65762946D01*
X179665000Y-66837054D01*
X179739217Y-67210170D01*
X179909497Y-67465011D01*
X179637563Y-67736945D01*
X179568700Y-67736885D01*
X179324931Y-67837608D01*
X179138264Y-68023950D01*
X179037115Y-68267543D01*
X179036885Y-68531300D01*
X178656792Y-68531300D01*
X178613000Y-68487508D01*
X178613000Y-67644369D01*
X178789429Y-67526483D01*
X179000783Y-67210170D01*
X179075000Y-66837054D01*
X179075000Y-65762946D01*
X179000783Y-65389830D01*
X178789429Y-65073517D01*
X178473116Y-64862163D01*
X178100000Y-64787946D01*
X177726884Y-64862163D01*
X177410571Y-65073517D01*
X177199217Y-65389830D01*
X177125000Y-65762946D01*
X176535000Y-65762946D01*
X176460783Y-65389830D01*
X176249429Y-65073517D01*
X175933116Y-64862163D01*
X175560000Y-64787946D01*
X175186884Y-64862163D01*
X174870571Y-65073517D01*
X174659217Y-65389830D01*
X174585000Y-65762946D01*
X174585000Y-66837054D01*
X174659217Y-67210170D01*
X174870571Y-67526483D01*
X174917001Y-67557507D01*
X172187508Y-70287000D01*
X169900000Y-70287000D01*
X169703683Y-70326050D01*
X169537254Y-70437254D01*
X168737254Y-71237254D01*
X168626050Y-71403683D01*
X168587000Y-71600000D01*
X168587000Y-80275299D01*
X168538264Y-80323950D01*
X168437115Y-80567543D01*
X168436885Y-80831300D01*
X165913000Y-80831300D01*
X165913000Y-78824527D01*
X166061736Y-78676050D01*
X166162885Y-78432457D01*
X166163115Y-78168700D01*
X166062392Y-77924931D01*
X165876050Y-77738264D01*
X165632457Y-77637115D01*
X165368700Y-77636885D01*
X165124931Y-77737608D01*
X164938264Y-77923950D01*
X164837115Y-78167543D01*
X164836885Y-78431300D01*
X164887000Y-78552588D01*
X164887000Y-84175299D01*
X164838264Y-84223950D01*
X164737115Y-84467543D01*
X164736885Y-84731300D01*
X164837608Y-84975069D01*
X164887000Y-85024547D01*
X164887000Y-85777017D01*
X164848429Y-85792954D01*
X164573918Y-86066986D01*
X164425170Y-86425210D01*
X164424831Y-86813089D01*
X163813000Y-86813089D01*
X163813000Y-81100000D01*
X163773950Y-80903683D01*
X163662746Y-80737254D01*
X163063055Y-80137563D01*
X163063115Y-80068700D01*
X162962392Y-79824931D01*
X162776050Y-79638264D01*
X162532457Y-79537115D01*
X162268700Y-79536885D01*
X162024931Y-79637608D01*
X161838264Y-79823950D01*
X161737115Y-80067543D01*
X161736885Y-80331300D01*
X140956792Y-80331300D01*
X140663055Y-80037563D01*
X140663115Y-79968700D01*
X140562392Y-79724931D01*
X140376050Y-79538264D01*
X140132457Y-79437115D01*
X139868700Y-79436885D01*
X139624931Y-79537608D01*
X139438264Y-79723950D01*
X139337115Y-79967543D01*
X139336885Y-80231300D01*
X139437608Y-80475069D01*
X139623950Y-80661736D01*
X139867543Y-80762885D01*
X139937454Y-80762946D01*
X141587000Y-82412491D01*
X141587000Y-93687508D01*
X137097254Y-98177254D01*
X136986050Y-98343683D01*
X136947000Y-98540000D01*
X136947000Y-113215631D01*
X136770571Y-113333517D01*
X136559217Y-113649830D01*
X136485000Y-114022946D01*
X135895000Y-114022946D01*
X135820783Y-113649830D01*
X135609429Y-113333517D01*
X135293116Y-113122163D01*
X134920000Y-113047946D01*
X134546884Y-113122163D01*
X134230571Y-113333517D01*
X134019217Y-113649830D01*
X133945000Y-114022946D01*
X133355000Y-114022946D01*
X133280783Y-113649830D01*
X133069429Y-113333517D01*
X132753116Y-113122163D01*
X132380000Y-113047946D01*
X132006884Y-113122163D01*
X131690571Y-113333517D01*
X131479217Y-113649830D01*
X131405000Y-114022946D01*
X130815000Y-114022946D01*
X130740783Y-113649830D01*
X130529429Y-113333517D01*
X130213116Y-113122163D01*
X129840000Y-113047946D01*
X129466884Y-113122163D01*
X129150571Y-113333517D01*
X128939217Y-113649830D01*
X128865000Y-114022946D01*
X128588000Y-114022946D01*
X128588000Y-91548310D01*
X130851761Y-91548310D01*
X131003124Y-91681836D01*
X131459431Y-91892175D01*
X131961497Y-91911881D01*
X132432887Y-91737956D01*
X132516876Y-91681836D01*
X132668239Y-91548310D01*
X135931761Y-91548310D01*
X136083124Y-91681836D01*
X136539431Y-91892175D01*
X137041497Y-91911881D01*
X137512887Y-91737956D01*
X137596876Y-91681836D01*
X137748239Y-91548310D01*
X136840000Y-90640071D01*
X135931761Y-91548310D01*
X132668239Y-91548310D01*
X131760000Y-90640071D01*
X130851761Y-91548310D01*
X128588000Y-91548310D01*
X128588000Y-90841497D01*
X130488119Y-90841497D01*
X130662044Y-91312887D01*
X130718164Y-91396876D01*
X130851690Y-91548239D01*
X131759929Y-90640000D01*
X131760071Y-90640000D01*
X132668310Y-91548239D01*
X132801836Y-91396876D01*
X133012175Y-90940569D01*
X133016063Y-90841497D01*
X135568119Y-90841497D01*
X135742044Y-91312887D01*
X135798164Y-91396876D01*
X135931690Y-91548239D01*
X136839929Y-90640000D01*
X136840071Y-90640000D01*
X137748310Y-91548239D01*
X137881836Y-91396876D01*
X138092175Y-90940569D01*
X138111881Y-90438503D01*
X137937956Y-89967113D01*
X137881836Y-89883124D01*
X137748310Y-89731761D01*
X136840071Y-90640000D01*
X136839929Y-90640000D01*
X135931690Y-89731761D01*
X135798164Y-89883124D01*
X135587825Y-90339431D01*
X135568119Y-90841497D01*
X133016063Y-90841497D01*
X133031881Y-90438503D01*
X132857956Y-89967113D01*
X132801836Y-89883124D01*
X132668310Y-89731761D01*
X131760071Y-90640000D01*
X131759929Y-90640000D01*
X130851690Y-89731761D01*
X130718164Y-89883124D01*
X130507825Y-90339431D01*
X130488119Y-90841497D01*
X128588000Y-90841497D01*
X128588000Y-89731690D01*
X130851761Y-89731690D01*
X131760000Y-90639929D01*
X132668239Y-89731690D01*
X135931761Y-89731690D01*
X136840000Y-90639929D01*
X137748239Y-89731690D01*
X137596876Y-89598164D01*
X137140569Y-89387825D01*
X136638503Y-89368119D01*
X136167113Y-89542044D01*
X136083124Y-89598164D01*
X135931761Y-89731690D01*
X132668239Y-89731690D01*
X132516876Y-89598164D01*
X132060569Y-89387825D01*
X131558503Y-89368119D01*
X131087113Y-89542044D01*
X131003124Y-89598164D01*
X130851761Y-89731690D01*
X128588000Y-89731690D01*
X128588000Y-88389732D01*
X132836746Y-88389732D01*
X133059006Y-88927640D01*
X133470195Y-89339548D01*
X134007715Y-89562746D01*
X134589732Y-89563254D01*
X135127640Y-89340994D01*
X135539548Y-88929805D01*
X135762746Y-88392285D01*
X135763254Y-87810268D01*
X135540994Y-87272360D01*
X135129805Y-86860452D01*
X134592285Y-86637254D01*
X134010268Y-86636746D01*
X133472360Y-86859006D01*
X133060452Y-87270195D01*
X132837254Y-87807715D01*
X132836746Y-88389732D01*
X128588000Y-88389732D01*
X128588000Y-86468310D01*
X130851761Y-86468310D01*
X131003124Y-86601836D01*
X131459431Y-86812175D01*
X131961497Y-86831881D01*
X132432887Y-86657956D01*
X132516876Y-86601836D01*
X132668239Y-86468310D01*
X135931761Y-86468310D01*
X136083124Y-86601836D01*
X136539431Y-86812175D01*
X137041497Y-86831881D01*
X137512887Y-86657956D01*
X137596876Y-86601836D01*
X137748239Y-86468310D01*
X136840000Y-85560071D01*
X135931761Y-86468310D01*
X132668239Y-86468310D01*
X131760000Y-85560071D01*
X130851761Y-86468310D01*
X128588000Y-86468310D01*
X128588000Y-85761497D01*
X130488119Y-85761497D01*
X130662044Y-86232887D01*
X130718164Y-86316876D01*
X130851690Y-86468239D01*
X131759929Y-85560000D01*
X131760071Y-85560000D01*
X132668310Y-86468239D01*
X132801836Y-86316876D01*
X133012175Y-85860569D01*
X133016063Y-85761497D01*
X135568119Y-85761497D01*
X135742044Y-86232887D01*
X135798164Y-86316876D01*
X135931690Y-86468239D01*
X136839929Y-85560000D01*
X136840071Y-85560000D01*
X137748310Y-86468239D01*
X137881836Y-86316876D01*
X138092175Y-85860569D01*
X138111881Y-85358503D01*
X137937956Y-84887113D01*
X137881836Y-84803124D01*
X137748310Y-84651761D01*
X136840071Y-85560000D01*
X136839929Y-85560000D01*
X135931690Y-84651761D01*
X135798164Y-84803124D01*
X135587825Y-85259431D01*
X135568119Y-85761497D01*
X133016063Y-85761497D01*
X133031881Y-85358503D01*
X132857956Y-84887113D01*
X132801836Y-84803124D01*
X132668310Y-84651761D01*
X131760071Y-85560000D01*
X131759929Y-85560000D01*
X130851690Y-84651761D01*
X130718164Y-84803124D01*
X130507825Y-85259431D01*
X130488119Y-85761497D01*
X128588000Y-85761497D01*
X128588000Y-84651690D01*
X130851761Y-84651690D01*
X131760000Y-85559929D01*
X132668239Y-84651690D01*
X135931761Y-84651690D01*
X136840000Y-85559929D01*
X137748239Y-84651690D01*
X137596876Y-84518164D01*
X137140569Y-84307825D01*
X136638503Y-84288119D01*
X136167113Y-84462044D01*
X136083124Y-84518164D01*
X135931761Y-84651690D01*
X132668239Y-84651690D01*
X132516876Y-84518164D01*
X132060569Y-84307825D01*
X131558503Y-84288119D01*
X131087113Y-84462044D01*
X131003124Y-84518164D01*
X130851761Y-84651690D01*
X128588000Y-84651690D01*
X128588000Y-82290250D01*
X135637000Y-82290250D01*
X135637000Y-82892369D01*
X135669428Y-82970655D01*
X135729346Y-83030573D01*
X135807632Y-83063000D01*
X136409750Y-83063000D01*
X136463000Y-83009750D01*
X136463000Y-82237000D01*
X136937000Y-82237000D01*
X136937000Y-83009750D01*
X136990250Y-83063000D01*
X137592368Y-83063000D01*
X137670654Y-83030573D01*
X137730572Y-82970655D01*
X137763000Y-82892369D01*
X137763000Y-82290250D01*
X137709750Y-82237000D01*
X136937000Y-82237000D01*
X136463000Y-82237000D01*
X135690250Y-82237000D01*
X135637000Y-82290250D01*
X128588000Y-82290250D01*
X128588000Y-81536450D01*
X129016819Y-81107631D01*
X135637000Y-81107631D01*
X135637000Y-81709750D01*
X135690250Y-81763000D01*
X136463000Y-81763000D01*
X136463000Y-80990250D01*
X136937000Y-80990250D01*
X136937000Y-81763000D01*
X137709750Y-81763000D01*
X137763000Y-81709750D01*
X137763000Y-81107631D01*
X137730572Y-81029345D01*
X137670654Y-80969427D01*
X137592368Y-80937000D01*
X136990250Y-80937000D01*
X136937000Y-80990250D01*
X136463000Y-80990250D01*
X136409750Y-80937000D01*
X135807632Y-80937000D01*
X135729346Y-80969427D01*
X135669428Y-81029345D01*
X135637000Y-81107631D01*
X129016819Y-81107631D01*
X136134200Y-73990250D01*
X162537000Y-73990250D01*
X162537000Y-74592369D01*
X162569428Y-74670655D01*
X162629346Y-74730573D01*
X162707632Y-74763000D01*
X163309750Y-74763000D01*
X163363000Y-74709750D01*
X163363000Y-73937000D01*
X163837000Y-73937000D01*
X163837000Y-74709750D01*
X163890250Y-74763000D01*
X164492368Y-74763000D01*
X164570654Y-74730573D01*
X164630572Y-74670655D01*
X164663000Y-74592369D01*
X164663000Y-73990250D01*
X164609750Y-73937000D01*
X163837000Y-73937000D01*
X163363000Y-73937000D01*
X162590250Y-73937000D01*
X162537000Y-73990250D01*
X136134200Y-73990250D01*
X137316819Y-72807631D01*
X162537000Y-72807631D01*
X162537000Y-73409750D01*
X162590250Y-73463000D01*
X163363000Y-73463000D01*
X163363000Y-72690250D01*
X163837000Y-72690250D01*
X163837000Y-73463000D01*
X164609750Y-73463000D01*
X164663000Y-73409750D01*
X164663000Y-72807631D01*
X164630572Y-72729345D01*
X164570654Y-72669427D01*
X164492368Y-72637000D01*
X163890250Y-72637000D01*
X163837000Y-72690250D01*
X163363000Y-72690250D01*
X163309750Y-72637000D01*
X162707632Y-72637000D01*
X162629346Y-72669427D01*
X162569428Y-72729345D01*
X162537000Y-72807631D01*
X137316819Y-72807631D01*
X144361504Y-65762946D01*
X146645000Y-65762946D01*
X146645000Y-66837054D01*
X146719217Y-67210170D01*
X146930571Y-67526483D01*
X147246884Y-67737837D01*
X147620000Y-67812054D01*
X147993116Y-67737837D01*
X148309429Y-67526483D01*
X148520783Y-67210170D01*
X148595000Y-66837054D01*
X148595000Y-65762946D01*
X149185000Y-65762946D01*
X149185000Y-66837054D01*
X149259217Y-67210170D01*
X149470571Y-67526483D01*
X149786884Y-67737837D01*
X150160000Y-67812054D01*
X150533116Y-67737837D01*
X150849429Y-67526483D01*
X151060783Y-67210170D01*
X151135000Y-66837054D01*
X151135000Y-65762946D01*
X151725000Y-65762946D01*
X151725000Y-66837054D01*
X151799217Y-67210170D01*
X152010571Y-67526483D01*
X152326884Y-67737837D01*
X152700000Y-67812054D01*
X153073116Y-67737837D01*
X153389429Y-67526483D01*
X153600783Y-67210170D01*
X153675000Y-66837054D01*
X153675000Y-65762946D01*
X154265000Y-65762946D01*
X154265000Y-66837054D01*
X154339217Y-67210170D01*
X154550571Y-67526483D01*
X154727000Y-67644369D01*
X154727000Y-68035368D01*
X154638264Y-68123950D01*
X154537115Y-68367543D01*
X154536885Y-68631300D01*
X154637608Y-68875069D01*
X154823950Y-69061736D01*
X155067543Y-69162885D01*
X155331300Y-69163115D01*
X155575069Y-69062392D01*
X155761736Y-68876050D01*
X155862885Y-68632457D01*
X155863115Y-68368700D01*
X155762392Y-68124931D01*
X155753000Y-68115523D01*
X155753000Y-67644369D01*
X155929429Y-67526483D01*
X156140783Y-67210170D01*
X156215000Y-66837054D01*
X156215000Y-65762946D01*
X156805000Y-65762946D01*
X156805000Y-66837054D01*
X156879217Y-67210170D01*
X157090571Y-67526483D01*
X157267000Y-67644369D01*
X157267000Y-68095264D01*
X157238264Y-68123950D01*
X157137115Y-68367543D01*
X157136885Y-68631300D01*
X157237608Y-68875069D01*
X157423950Y-69061736D01*
X157667543Y-69162885D01*
X157931300Y-69163115D01*
X158175069Y-69062392D01*
X158361736Y-68876050D01*
X158462885Y-68632457D01*
X158463115Y-68368700D01*
X158362392Y-68124931D01*
X158293000Y-68055418D01*
X158293000Y-67644369D01*
X158469429Y-67526483D01*
X158680783Y-67210170D01*
X158755000Y-66837054D01*
X158755000Y-65762946D01*
X159345000Y-65762946D01*
X159345000Y-66837054D01*
X159419217Y-67210170D01*
X159630571Y-67526483D01*
X159807000Y-67644369D01*
X159807000Y-68055334D01*
X159738264Y-68123950D01*
X159637115Y-68367543D01*
X159636885Y-68631300D01*
X159737608Y-68875069D01*
X159923950Y-69061736D01*
X160167543Y-69162885D01*
X160431300Y-69163115D01*
X160675069Y-69062392D01*
X160861736Y-68876050D01*
X160962885Y-68632457D01*
X160963115Y-68368700D01*
X160862392Y-68124931D01*
X160833000Y-68095488D01*
X160833000Y-67644369D01*
X161009429Y-67526483D01*
X161220783Y-67210170D01*
X161295000Y-66837054D01*
X161295000Y-65762946D01*
X161885000Y-65762946D01*
X161885000Y-66837054D01*
X161959217Y-67210170D01*
X162170571Y-67526483D01*
X162486884Y-67737837D01*
X162860000Y-67812054D01*
X163233116Y-67737837D01*
X163549429Y-67526483D01*
X163760783Y-67210170D01*
X163835000Y-66837054D01*
X163835000Y-65762946D01*
X164425000Y-65762946D01*
X164425000Y-66837054D01*
X164499217Y-67210170D01*
X164710571Y-67526483D01*
X165026884Y-67737837D01*
X165400000Y-67812054D01*
X165773116Y-67737837D01*
X166089429Y-67526483D01*
X166300783Y-67210170D01*
X166375000Y-66837054D01*
X166375000Y-65762946D01*
X169505000Y-65762946D01*
X169505000Y-66837054D01*
X169579217Y-67210170D01*
X169790571Y-67526483D01*
X169967000Y-67644369D01*
X169967000Y-67795264D01*
X169938264Y-67823950D01*
X169837115Y-68067543D01*
X169836885Y-68331300D01*
X169937608Y-68575069D01*
X170123950Y-68761736D01*
X170367543Y-68862885D01*
X170631300Y-68863115D01*
X170875069Y-68762392D01*
X171061736Y-68576050D01*
X171162885Y-68332457D01*
X171163115Y-68068700D01*
X171062392Y-67824931D01*
X170993000Y-67755418D01*
X170993000Y-67644369D01*
X171169429Y-67526483D01*
X171380783Y-67210170D01*
X171455000Y-66837054D01*
X171455000Y-65762946D01*
X172045000Y-65762946D01*
X172045000Y-66837054D01*
X172119217Y-67210170D01*
X172330571Y-67526483D01*
X172507000Y-67644369D01*
X172507000Y-67955334D01*
X172438264Y-68023950D01*
X172337115Y-68267543D01*
X172336885Y-68531300D01*
X172437608Y-68775069D01*
X172623950Y-68961736D01*
X172867543Y-69062885D01*
X173131300Y-69063115D01*
X173375069Y-68962392D01*
X173561736Y-68776050D01*
X173662885Y-68532457D01*
X173663115Y-68268700D01*
X173562392Y-68024931D01*
X173533000Y-67995488D01*
X173533000Y-67644369D01*
X173709429Y-67526483D01*
X173920783Y-67210170D01*
X173995000Y-66837054D01*
X173995000Y-65762946D01*
X173920783Y-65389830D01*
X173709429Y-65073517D01*
X173393116Y-64862163D01*
X173020000Y-64787946D01*
X172646884Y-64862163D01*
X172330571Y-65073517D01*
X172119217Y-65389830D01*
X172045000Y-65762946D01*
X171455000Y-65762946D01*
X171380783Y-65389830D01*
X171169429Y-65073517D01*
X170853116Y-64862163D01*
X170480000Y-64787946D01*
X170106884Y-64862163D01*
X169790571Y-65073517D01*
X169579217Y-65389830D01*
X169505000Y-65762946D01*
X166375000Y-65762946D01*
X166300783Y-65389830D01*
X166089429Y-65073517D01*
X165773116Y-64862163D01*
X165400000Y-64787946D01*
X165026884Y-64862163D01*
X164710571Y-65073517D01*
X164499217Y-65389830D01*
X164425000Y-65762946D01*
X163835000Y-65762946D01*
X163760783Y-65389830D01*
X163549429Y-65073517D01*
X163233116Y-64862163D01*
X162860000Y-64787946D01*
X162486884Y-64862163D01*
X162170571Y-65073517D01*
X161959217Y-65389830D01*
X161885000Y-65762946D01*
X161295000Y-65762946D01*
X161220783Y-65389830D01*
X161009429Y-65073517D01*
X160693116Y-64862163D01*
X160320000Y-64787946D01*
X159946884Y-64862163D01*
X159630571Y-65073517D01*
X159419217Y-65389830D01*
X159345000Y-65762946D01*
X158755000Y-65762946D01*
X158680783Y-65389830D01*
X158469429Y-65073517D01*
X158153116Y-64862163D01*
X157780000Y-64787946D01*
X157406884Y-64862163D01*
X157090571Y-65073517D01*
X156879217Y-65389830D01*
X156805000Y-65762946D01*
X156215000Y-65762946D01*
X156140783Y-65389830D01*
X155929429Y-65073517D01*
X155613116Y-64862163D01*
X155240000Y-64787946D01*
X154866884Y-64862163D01*
X154550571Y-65073517D01*
X154339217Y-65389830D01*
X154265000Y-65762946D01*
X153675000Y-65762946D01*
X153600783Y-65389830D01*
X153389429Y-65073517D01*
X153073116Y-64862163D01*
X152700000Y-64787946D01*
X152326884Y-64862163D01*
X152010571Y-65073517D01*
X151799217Y-65389830D01*
X151725000Y-65762946D01*
X151135000Y-65762946D01*
X151060783Y-65389830D01*
X150849429Y-65073517D01*
X150533116Y-64862163D01*
X150160000Y-64787946D01*
X149786884Y-64862163D01*
X149470571Y-65073517D01*
X149259217Y-65389830D01*
X149185000Y-65762946D01*
X148595000Y-65762946D01*
X148520783Y-65389830D01*
X148309429Y-65073517D01*
X147993116Y-64862163D01*
X147620000Y-64787946D01*
X147246884Y-64862163D01*
X146930571Y-65073517D01*
X146719217Y-65389830D01*
X146645000Y-65762946D01*
X144361504Y-65762946D01*
X146236450Y-63888000D01*
X189863550Y-63888000D01*
X194712000Y-68736451D01*
X194712000Y-68736451D01*
G37*
X194712000Y-68736451D02*
X194712000Y-108312000D01*
X179400000Y-108312000D01*
X179366324Y-108318699D01*
X179337775Y-108337775D01*
X170663550Y-117012000D01*
X128588000Y-117012000D01*
X128588000Y-114022946D01*
X128865000Y-114022946D01*
X128865000Y-115097054D01*
X128939217Y-115470170D01*
X129150571Y-115786483D01*
X129466884Y-115997837D01*
X129840000Y-116072054D01*
X130213116Y-115997837D01*
X130529429Y-115786483D01*
X130740783Y-115470170D01*
X130815000Y-115097054D01*
X130815000Y-114022946D01*
X131405000Y-114022946D01*
X131405000Y-115097054D01*
X131479217Y-115470170D01*
X131690571Y-115786483D01*
X132006884Y-115997837D01*
X132380000Y-116072054D01*
X132753116Y-115997837D01*
X133069429Y-115786483D01*
X133280783Y-115470170D01*
X133355000Y-115097054D01*
X133355000Y-114022946D01*
X133945000Y-114022946D01*
X133945000Y-115097054D01*
X134019217Y-115470170D01*
X134230571Y-115786483D01*
X134546884Y-115997837D01*
X134920000Y-116072054D01*
X135293116Y-115997837D01*
X135609429Y-115786483D01*
X135820783Y-115470170D01*
X135895000Y-115097054D01*
X135895000Y-114022946D01*
X136485000Y-114022946D01*
X136485000Y-115097054D01*
X136559217Y-115470170D01*
X136770571Y-115786483D01*
X137086884Y-115997837D01*
X137460000Y-116072054D01*
X137833116Y-115997837D01*
X138149429Y-115786483D01*
X138360783Y-115470170D01*
X138435000Y-115097054D01*
X138435000Y-114022946D01*
X139025000Y-114022946D01*
X139025000Y-115097054D01*
X139099217Y-115470170D01*
X139310571Y-115786483D01*
X139626884Y-115997837D01*
X140000000Y-116072054D01*
X140373116Y-115997837D01*
X140689429Y-115786483D01*
X140900783Y-115470170D01*
X140975000Y-115097054D01*
X140975000Y-114560050D01*
X141765000Y-114560050D01*
X141765000Y-115068050D01*
X141824012Y-115364626D01*
X141992027Y-115616043D01*
X142243466Y-115784026D01*
X142418714Y-115833451D01*
X142539950Y-115839750D01*
X142539950Y-114560050D01*
X142540050Y-114560050D01*
X142540050Y-115839750D01*
X142661286Y-115833451D01*
X142836534Y-115784026D01*
X143087973Y-115616043D01*
X143255988Y-115364626D01*
X143315000Y-115068050D01*
X143315000Y-114560050D01*
X144305000Y-114560050D01*
X144305000Y-115068050D01*
X144364012Y-115364626D01*
X144532027Y-115616043D01*
X144783466Y-115784026D01*
X144958714Y-115833451D01*
X145079950Y-115839750D01*
X145079950Y-114560050D01*
X145080050Y-114560050D01*
X145080050Y-115839750D01*
X145201286Y-115833451D01*
X145376534Y-115784026D01*
X145627973Y-115616043D01*
X145795988Y-115364626D01*
X145855000Y-115068050D01*
X145855000Y-114560050D01*
X145080050Y-114560050D01*
X145079950Y-114560050D01*
X144305000Y-114560050D01*
X143315000Y-114560050D01*
X142540050Y-114560050D01*
X142539950Y-114560050D01*
X141765000Y-114560050D01*
X140975000Y-114560050D01*
X140975000Y-114051950D01*
X141765000Y-114051950D01*
X141765000Y-114559950D01*
X142539950Y-114559950D01*
X142540050Y-114559950D01*
X143315000Y-114559950D01*
X143315000Y-114051950D01*
X144305000Y-114051950D01*
X144305000Y-114559950D01*
X145079950Y-114559950D01*
X145080050Y-114559950D01*
X145855000Y-114559950D01*
X145855000Y-114051950D01*
X145849229Y-114022946D01*
X146645000Y-114022946D01*
X146645000Y-115097054D01*
X146719217Y-115470170D01*
X146930571Y-115786483D01*
X147246884Y-115997837D01*
X147620000Y-116072054D01*
X147993116Y-115997837D01*
X148309429Y-115786483D01*
X148520783Y-115470170D01*
X148595000Y-115097054D01*
X148595000Y-114022946D01*
X151725000Y-114022946D01*
X151725000Y-115097054D01*
X151799217Y-115470170D01*
X152010571Y-115786483D01*
X152326884Y-115997837D01*
X152700000Y-116072054D01*
X153073116Y-115997837D01*
X153389429Y-115786483D01*
X153600783Y-115470170D01*
X153675000Y-115097054D01*
X153675000Y-114022946D01*
X154265000Y-114022946D01*
X154265000Y-115097054D01*
X154339217Y-115470170D01*
X154550571Y-115786483D01*
X154866884Y-115997837D01*
X155240000Y-116072054D01*
X155613116Y-115997837D01*
X155929429Y-115786483D01*
X156140783Y-115470170D01*
X156215000Y-115097054D01*
X156215000Y-114022946D01*
X156805000Y-114022946D01*
X156805000Y-115097054D01*
X156879217Y-115470170D01*
X157090571Y-115786483D01*
X157406884Y-115997837D01*
X157780000Y-116072054D01*
X158153116Y-115997837D01*
X158469429Y-115786483D01*
X158680783Y-115470170D01*
X158755000Y-115097054D01*
X158755000Y-114022946D01*
X159345000Y-114022946D01*
X159345000Y-115097054D01*
X159419217Y-115470170D01*
X159630571Y-115786483D01*
X159946884Y-115997837D01*
X160320000Y-116072054D01*
X160693116Y-115997837D01*
X161009429Y-115786483D01*
X161220783Y-115470170D01*
X161295000Y-115097054D01*
X161295000Y-114022946D01*
X161885000Y-114022946D01*
X161885000Y-115097054D01*
X161959217Y-115470170D01*
X162170571Y-115786483D01*
X162486884Y-115997837D01*
X162860000Y-116072054D01*
X163233116Y-115997837D01*
X163549429Y-115786483D01*
X163760783Y-115470170D01*
X163835000Y-115097054D01*
X163835000Y-114022946D01*
X164425000Y-114022946D01*
X164425000Y-115097054D01*
X164499217Y-115470170D01*
X164710571Y-115786483D01*
X165026884Y-115997837D01*
X165400000Y-116072054D01*
X165773116Y-115997837D01*
X166089429Y-115786483D01*
X166300783Y-115470170D01*
X166375000Y-115097054D01*
X166375000Y-114022946D01*
X166965000Y-114022946D01*
X166965000Y-115097054D01*
X167039217Y-115470170D01*
X167250571Y-115786483D01*
X167566884Y-115997837D01*
X167940000Y-116072054D01*
X168313116Y-115997837D01*
X168629429Y-115786483D01*
X168840783Y-115470170D01*
X168915000Y-115097054D01*
X168915000Y-114022946D01*
X169505000Y-114022946D01*
X169505000Y-115097054D01*
X169579217Y-115470170D01*
X169790571Y-115786483D01*
X170106884Y-115997837D01*
X170480000Y-116072054D01*
X170853116Y-115997837D01*
X171169429Y-115786483D01*
X171380783Y-115470170D01*
X171455000Y-115097054D01*
X171455000Y-114022946D01*
X171380783Y-113649830D01*
X171169429Y-113333517D01*
X170853116Y-113122163D01*
X170480000Y-113047946D01*
X170106884Y-113122163D01*
X169790571Y-113333517D01*
X169579217Y-113649830D01*
X169505000Y-114022946D01*
X168915000Y-114022946D01*
X168840783Y-113649830D01*
X168629429Y-113333517D01*
X168313116Y-113122163D01*
X167940000Y-113047946D01*
X167566884Y-113122163D01*
X167250571Y-113333517D01*
X167039217Y-113649830D01*
X166965000Y-114022946D01*
X166375000Y-114022946D01*
X166300783Y-113649830D01*
X166089429Y-113333517D01*
X165773116Y-113122163D01*
X165400000Y-113047946D01*
X165026884Y-113122163D01*
X164710571Y-113333517D01*
X164499217Y-113649830D01*
X164425000Y-114022946D01*
X163835000Y-114022946D01*
X163760783Y-113649830D01*
X163549429Y-113333517D01*
X163233116Y-113122163D01*
X162860000Y-113047946D01*
X162486884Y-113122163D01*
X162170571Y-113333517D01*
X161959217Y-113649830D01*
X161885000Y-114022946D01*
X161295000Y-114022946D01*
X161220783Y-113649830D01*
X161009429Y-113333517D01*
X160693116Y-113122163D01*
X160320000Y-113047946D01*
X159946884Y-113122163D01*
X159630571Y-113333517D01*
X159419217Y-113649830D01*
X159345000Y-114022946D01*
X158755000Y-114022946D01*
X158680783Y-113649830D01*
X158469429Y-113333517D01*
X158153116Y-113122163D01*
X157780000Y-113047946D01*
X157406884Y-113122163D01*
X157090571Y-113333517D01*
X156879217Y-113649830D01*
X156805000Y-114022946D01*
X156215000Y-114022946D01*
X156140783Y-113649830D01*
X155929429Y-113333517D01*
X155613116Y-113122163D01*
X155240000Y-113047946D01*
X154866884Y-113122163D01*
X154550571Y-113333517D01*
X154339217Y-113649830D01*
X154265000Y-114022946D01*
X153675000Y-114022946D01*
X153600783Y-113649830D01*
X153389429Y-113333517D01*
X153073116Y-113122163D01*
X152700000Y-113047946D01*
X152326884Y-113122163D01*
X152010571Y-113333517D01*
X151799217Y-113649830D01*
X151725000Y-114022946D01*
X148595000Y-114022946D01*
X148520783Y-113649830D01*
X148309429Y-113333517D01*
X147993116Y-113122163D01*
X147620000Y-113047946D01*
X147246884Y-113122163D01*
X146930571Y-113333517D01*
X146719217Y-113649830D01*
X146645000Y-114022946D01*
X145849229Y-114022946D01*
X145795988Y-113755374D01*
X145627973Y-113503957D01*
X145376534Y-113335974D01*
X145201286Y-113286549D01*
X145080050Y-113280250D01*
X145080050Y-114559950D01*
X145079950Y-114559950D01*
X145079950Y-113280250D01*
X144958714Y-113286549D01*
X144783466Y-113335974D01*
X144532027Y-113503957D01*
X144364012Y-113755374D01*
X144305000Y-114051950D01*
X143315000Y-114051950D01*
X143255988Y-113755374D01*
X143087973Y-113503957D01*
X142836534Y-113335974D01*
X142661286Y-113286549D01*
X142540050Y-113280250D01*
X142540050Y-114559950D01*
X142539950Y-114559950D01*
X142539950Y-113280250D01*
X142418714Y-113286549D01*
X142243466Y-113335974D01*
X141992027Y-113503957D01*
X141824012Y-113755374D01*
X141765000Y-114051950D01*
X140975000Y-114051950D01*
X140975000Y-114022946D01*
X140900783Y-113649830D01*
X140689429Y-113333517D01*
X140373116Y-113122163D01*
X140000000Y-113047946D01*
X139626884Y-113122163D01*
X139310571Y-113333517D01*
X139099217Y-113649830D01*
X139025000Y-114022946D01*
X138435000Y-114022946D01*
X138360783Y-113649830D01*
X138149429Y-113333517D01*
X138055042Y-113270450D01*
X139635242Y-111690250D01*
X141237000Y-111690250D01*
X141237000Y-112292369D01*
X141269428Y-112370655D01*
X141329346Y-112430573D01*
X141407632Y-112463000D01*
X142009750Y-112463000D01*
X142063000Y-112409750D01*
X142063000Y-111637000D01*
X142537000Y-111637000D01*
X142537000Y-112409750D01*
X142590250Y-112463000D01*
X143192368Y-112463000D01*
X143270654Y-112430573D01*
X143330572Y-112370655D01*
X143363000Y-112292369D01*
X143363000Y-111690250D01*
X144937000Y-111690250D01*
X144937000Y-112292369D01*
X144969428Y-112370655D01*
X145029346Y-112430573D01*
X145107632Y-112463000D01*
X145709750Y-112463000D01*
X145763000Y-112409750D01*
X145763000Y-111637000D01*
X146237000Y-111637000D01*
X146237000Y-112409750D01*
X146290250Y-112463000D01*
X146892368Y-112463000D01*
X146970654Y-112430573D01*
X147030572Y-112370655D01*
X147063000Y-112292369D01*
X147063000Y-111690250D01*
X147009750Y-111637000D01*
X146237000Y-111637000D01*
X145763000Y-111637000D01*
X144990250Y-111637000D01*
X144937000Y-111690250D01*
X143363000Y-111690250D01*
X143309750Y-111637000D01*
X142537000Y-111637000D01*
X142063000Y-111637000D01*
X141290250Y-111637000D01*
X141237000Y-111690250D01*
X139635242Y-111690250D01*
X140817861Y-110507631D01*
X141237000Y-110507631D01*
X141237000Y-111109750D01*
X141290250Y-111163000D01*
X142063000Y-111163000D01*
X142063000Y-110390250D01*
X142537000Y-110390250D01*
X142537000Y-111163000D01*
X143309750Y-111163000D01*
X143363000Y-111109750D01*
X143363000Y-110507631D01*
X144937000Y-110507631D01*
X144937000Y-111109750D01*
X144990250Y-111163000D01*
X145763000Y-111163000D01*
X145763000Y-110390250D01*
X146237000Y-110390250D01*
X146237000Y-111163000D01*
X147009750Y-111163000D01*
X147063000Y-111109750D01*
X147063000Y-110507631D01*
X147030572Y-110429345D01*
X146970654Y-110369427D01*
X146892368Y-110337000D01*
X146290250Y-110337000D01*
X146237000Y-110390250D01*
X145763000Y-110390250D01*
X145709750Y-110337000D01*
X145107632Y-110337000D01*
X145029346Y-110369427D01*
X144969428Y-110429345D01*
X144937000Y-110507631D01*
X143363000Y-110507631D01*
X143330572Y-110429345D01*
X143270654Y-110369427D01*
X143192368Y-110337000D01*
X142590250Y-110337000D01*
X142537000Y-110390250D01*
X142063000Y-110390250D01*
X142009750Y-110337000D01*
X141407632Y-110337000D01*
X141329346Y-110369427D01*
X141269428Y-110429345D01*
X141237000Y-110507631D01*
X140817861Y-110507631D01*
X141112492Y-110213000D01*
X149675299Y-110213000D01*
X149723950Y-110261736D01*
X149967543Y-110362885D01*
X150231300Y-110363115D01*
X150475069Y-110262392D01*
X150524547Y-110213000D01*
X160227508Y-110213000D01*
X160329541Y-110315033D01*
X160277000Y-110579175D01*
X160277000Y-110620825D01*
X160357916Y-111027617D01*
X160588345Y-111372480D01*
X160933208Y-111602909D01*
X161340000Y-111683825D01*
X161746792Y-111602909D01*
X162091655Y-111372480D01*
X162322084Y-111027617D01*
X162403000Y-110620825D01*
X162403000Y-110579175D01*
X162817000Y-110579175D01*
X162817000Y-110620825D01*
X162897916Y-111027617D01*
X163128345Y-111372480D01*
X163473208Y-111602909D01*
X163880000Y-111683825D01*
X164286792Y-111602909D01*
X164631655Y-111372480D01*
X164862084Y-111027617D01*
X164943000Y-110620825D01*
X164943000Y-110579175D01*
X165357000Y-110579175D01*
X165357000Y-110620825D01*
X165437916Y-111027617D01*
X165668345Y-111372480D01*
X166013208Y-111602909D01*
X166420000Y-111683825D01*
X166826792Y-111602909D01*
X167171655Y-111372480D01*
X167402084Y-111027617D01*
X167483000Y-110620825D01*
X167483000Y-110600050D01*
X168100250Y-110600050D01*
X168107633Y-110735052D01*
X168224198Y-111050959D01*
X168452782Y-111298211D01*
X168758585Y-111439167D01*
X168824948Y-111452367D01*
X168959950Y-111459750D01*
X168959950Y-110600050D01*
X168960050Y-110600050D01*
X168960050Y-111459750D01*
X169095052Y-111452367D01*
X169161415Y-111439167D01*
X169467218Y-111298211D01*
X169695802Y-111050959D01*
X169812367Y-110735052D01*
X169819750Y-110600050D01*
X168960050Y-110600050D01*
X168959950Y-110600050D01*
X168100250Y-110600050D01*
X167483000Y-110600050D01*
X167483000Y-110599950D01*
X168100250Y-110599950D01*
X168959950Y-110599950D01*
X168960050Y-110599950D01*
X169819750Y-110599950D01*
X169812367Y-110464948D01*
X169695802Y-110149041D01*
X169467218Y-109901789D01*
X169161415Y-109760833D01*
X169106953Y-109750000D01*
X170432828Y-109750000D01*
X170432828Y-111450000D01*
X170447680Y-111528933D01*
X170494329Y-111601428D01*
X170565508Y-111650062D01*
X170650000Y-111667172D01*
X172350000Y-111667172D01*
X172428933Y-111652320D01*
X172501428Y-111605671D01*
X172550062Y-111534492D01*
X172567172Y-111450000D01*
X172567172Y-109750000D01*
X172552320Y-109671067D01*
X172505671Y-109598572D01*
X172434492Y-109549938D01*
X172350000Y-109532828D01*
X170650000Y-109532828D01*
X170571067Y-109547680D01*
X170498572Y-109594329D01*
X170449938Y-109665508D01*
X170432828Y-109750000D01*
X169106953Y-109750000D01*
X169095052Y-109747633D01*
X168960050Y-109740250D01*
X168960050Y-110599950D01*
X168959950Y-110599950D01*
X168959950Y-109740250D01*
X168824948Y-109747633D01*
X168758585Y-109760833D01*
X168452782Y-109901789D01*
X168224198Y-110149041D01*
X168107633Y-110464948D01*
X168100250Y-110599950D01*
X167483000Y-110599950D01*
X167483000Y-110579175D01*
X167402084Y-110172383D01*
X167171655Y-109827520D01*
X166826792Y-109597091D01*
X166420000Y-109516175D01*
X166013208Y-109597091D01*
X165668345Y-109827520D01*
X165437916Y-110172383D01*
X165357000Y-110579175D01*
X164943000Y-110579175D01*
X164862084Y-110172383D01*
X164631655Y-109827520D01*
X164286792Y-109597091D01*
X163880000Y-109516175D01*
X163473208Y-109597091D01*
X163128345Y-109827520D01*
X162897916Y-110172383D01*
X162817000Y-110579175D01*
X162403000Y-110579175D01*
X162322084Y-110172383D01*
X162091655Y-109827520D01*
X161746792Y-109597091D01*
X161340000Y-109516175D01*
X161041118Y-109575626D01*
X160802746Y-109337254D01*
X160724856Y-109285210D01*
X160636317Y-109226050D01*
X160440000Y-109187000D01*
X150524701Y-109187000D01*
X150476050Y-109138264D01*
X150232457Y-109037115D01*
X149968700Y-109036885D01*
X149724931Y-109137608D01*
X149675453Y-109187000D01*
X140900005Y-109187000D01*
X140900000Y-109186999D01*
X140703684Y-109226049D01*
X140537254Y-109337254D01*
X137973000Y-111901508D01*
X137973000Y-105603300D01*
X160037000Y-105603300D01*
X160037000Y-106452586D01*
X160038979Y-106457364D01*
X160042636Y-106461021D01*
X160047414Y-106463000D01*
X160896700Y-106463000D01*
X160899950Y-106459750D01*
X160899950Y-105600050D01*
X160900050Y-105600050D01*
X160900050Y-106459750D01*
X160903300Y-106463000D01*
X161752586Y-106463000D01*
X161757364Y-106461021D01*
X161761021Y-106457364D01*
X161763000Y-106452586D01*
X161763000Y-105603300D01*
X161759750Y-105600050D01*
X160900050Y-105600050D01*
X160899950Y-105600050D01*
X160040250Y-105600050D01*
X160037000Y-105603300D01*
X137973000Y-105603300D01*
X137973000Y-104747414D01*
X160037000Y-104747414D01*
X160037000Y-105596700D01*
X160040250Y-105599950D01*
X160899950Y-105599950D01*
X160899950Y-104740250D01*
X160900050Y-104740250D01*
X160900050Y-105599950D01*
X161759750Y-105599950D01*
X161763000Y-105596700D01*
X161763000Y-105579175D01*
X162377000Y-105579175D01*
X162377000Y-105620825D01*
X162457916Y-106027617D01*
X162688345Y-106372480D01*
X163033208Y-106602909D01*
X163440000Y-106683825D01*
X163846792Y-106602909D01*
X164191655Y-106372480D01*
X164422084Y-106027617D01*
X164503000Y-105620825D01*
X164503000Y-105579175D01*
X164917000Y-105579175D01*
X164917000Y-105620825D01*
X164997916Y-106027617D01*
X165228345Y-106372480D01*
X165573208Y-106602909D01*
X165980000Y-106683825D01*
X166386792Y-106602909D01*
X166731655Y-106372480D01*
X166962084Y-106027617D01*
X167043000Y-105620825D01*
X167043000Y-105579175D01*
X167457000Y-105579175D01*
X167457000Y-105620825D01*
X167537916Y-106027617D01*
X167768345Y-106372480D01*
X168113208Y-106602909D01*
X168520000Y-106683825D01*
X168926792Y-106602909D01*
X169271655Y-106372480D01*
X169502084Y-106027617D01*
X169583000Y-105620825D01*
X169583000Y-105579175D01*
X169557306Y-105450000D01*
X172932828Y-105450000D01*
X172932828Y-107150000D01*
X172947680Y-107228933D01*
X172994329Y-107301428D01*
X173065508Y-107350062D01*
X173150000Y-107367172D01*
X174850000Y-107367172D01*
X174928933Y-107352320D01*
X175001428Y-107305671D01*
X175050062Y-107234492D01*
X175067172Y-107150000D01*
X175067172Y-106279175D01*
X175477000Y-106279175D01*
X175477000Y-106320825D01*
X175557916Y-106727617D01*
X175788345Y-107072480D01*
X176133208Y-107302909D01*
X176540000Y-107383825D01*
X176946792Y-107302909D01*
X177291655Y-107072480D01*
X177522084Y-106727617D01*
X177603000Y-106320825D01*
X177603000Y-106300050D01*
X178220250Y-106300050D01*
X178227633Y-106435052D01*
X178344198Y-106750959D01*
X178572782Y-106998211D01*
X178878585Y-107139167D01*
X178944948Y-107152367D01*
X179079950Y-107159750D01*
X179079950Y-106300050D01*
X179080050Y-106300050D01*
X179080050Y-107159750D01*
X179215052Y-107152367D01*
X179281415Y-107139167D01*
X179587218Y-106998211D01*
X179815802Y-106750959D01*
X179932367Y-106435052D01*
X179939750Y-106300050D01*
X179080050Y-106300050D01*
X179079950Y-106300050D01*
X178220250Y-106300050D01*
X177603000Y-106300050D01*
X177603000Y-106299950D01*
X178220250Y-106299950D01*
X179079950Y-106299950D01*
X179080050Y-106299950D01*
X179939750Y-106299950D01*
X179938614Y-106279175D01*
X180557000Y-106279175D01*
X180557000Y-106320825D01*
X180637916Y-106727617D01*
X180868345Y-107072480D01*
X181213208Y-107302909D01*
X181620000Y-107383825D01*
X182026792Y-107302909D01*
X182371655Y-107072480D01*
X182602084Y-106727617D01*
X182683000Y-106320825D01*
X182683000Y-106279175D01*
X183097000Y-106279175D01*
X183097000Y-106320825D01*
X183177916Y-106727617D01*
X183408345Y-107072480D01*
X183753208Y-107302909D01*
X184160000Y-107383825D01*
X184566792Y-107302909D01*
X184911655Y-107072480D01*
X185142084Y-106727617D01*
X185223000Y-106320825D01*
X185223000Y-106279175D01*
X185637000Y-106279175D01*
X185637000Y-106320825D01*
X185717916Y-106727617D01*
X185948345Y-107072480D01*
X186293208Y-107302909D01*
X186700000Y-107383825D01*
X187106792Y-107302909D01*
X187451655Y-107072480D01*
X187682084Y-106727617D01*
X187763000Y-106320825D01*
X187763000Y-106279175D01*
X188177000Y-106279175D01*
X188177000Y-106320825D01*
X188257916Y-106727617D01*
X188488345Y-107072480D01*
X188833208Y-107302909D01*
X189240000Y-107383825D01*
X189646792Y-107302909D01*
X189991655Y-107072480D01*
X190222084Y-106727617D01*
X190303000Y-106320825D01*
X190303000Y-106279175D01*
X190717000Y-106279175D01*
X190717000Y-106320825D01*
X190797916Y-106727617D01*
X191028345Y-107072480D01*
X191373208Y-107302909D01*
X191780000Y-107383825D01*
X192186792Y-107302909D01*
X192531655Y-107072480D01*
X192762084Y-106727617D01*
X192843000Y-106320825D01*
X192843000Y-106279175D01*
X192762084Y-105872383D01*
X192531655Y-105527520D01*
X192186792Y-105297091D01*
X191780000Y-105216175D01*
X191373208Y-105297091D01*
X191028345Y-105527520D01*
X190797916Y-105872383D01*
X190717000Y-106279175D01*
X190303000Y-106279175D01*
X190222084Y-105872383D01*
X189991655Y-105527520D01*
X189646792Y-105297091D01*
X189240000Y-105216175D01*
X188833208Y-105297091D01*
X188488345Y-105527520D01*
X188257916Y-105872383D01*
X188177000Y-106279175D01*
X187763000Y-106279175D01*
X187682084Y-105872383D01*
X187451655Y-105527520D01*
X187106792Y-105297091D01*
X186700000Y-105216175D01*
X186293208Y-105297091D01*
X185948345Y-105527520D01*
X185717916Y-105872383D01*
X185637000Y-106279175D01*
X185223000Y-106279175D01*
X185142084Y-105872383D01*
X184911655Y-105527520D01*
X184566792Y-105297091D01*
X184160000Y-105216175D01*
X183753208Y-105297091D01*
X183408345Y-105527520D01*
X183177916Y-105872383D01*
X183097000Y-106279175D01*
X182683000Y-106279175D01*
X182602084Y-105872383D01*
X182371655Y-105527520D01*
X182026792Y-105297091D01*
X181620000Y-105216175D01*
X181213208Y-105297091D01*
X180868345Y-105527520D01*
X180637916Y-105872383D01*
X180557000Y-106279175D01*
X179938614Y-106279175D01*
X179932367Y-106164948D01*
X179815802Y-105849041D01*
X179587218Y-105601789D01*
X179281415Y-105460833D01*
X179215052Y-105447633D01*
X179080050Y-105440250D01*
X179080050Y-106299950D01*
X179079950Y-106299950D01*
X179079950Y-105440250D01*
X178944948Y-105447633D01*
X178878585Y-105460833D01*
X178572782Y-105601789D01*
X178344198Y-105849041D01*
X178227633Y-106164948D01*
X178220250Y-106299950D01*
X177603000Y-106299950D01*
X177603000Y-106279175D01*
X177522084Y-105872383D01*
X177291655Y-105527520D01*
X176946792Y-105297091D01*
X176540000Y-105216175D01*
X176133208Y-105297091D01*
X175788345Y-105527520D01*
X175557916Y-105872383D01*
X175477000Y-106279175D01*
X175067172Y-106279175D01*
X175067172Y-105450000D01*
X175052320Y-105371067D01*
X175005671Y-105298572D01*
X174934492Y-105249938D01*
X174850000Y-105232828D01*
X173150000Y-105232828D01*
X173071067Y-105247680D01*
X172998572Y-105294329D01*
X172949938Y-105365508D01*
X172932828Y-105450000D01*
X169557306Y-105450000D01*
X169502084Y-105172383D01*
X169271655Y-104827520D01*
X168926792Y-104597091D01*
X168520000Y-104516175D01*
X168113208Y-104597091D01*
X167768345Y-104827520D01*
X167537916Y-105172383D01*
X167457000Y-105579175D01*
X167043000Y-105579175D01*
X166962084Y-105172383D01*
X166731655Y-104827520D01*
X166386792Y-104597091D01*
X165980000Y-104516175D01*
X165573208Y-104597091D01*
X165228345Y-104827520D01*
X164997916Y-105172383D01*
X164917000Y-105579175D01*
X164503000Y-105579175D01*
X164422084Y-105172383D01*
X164191655Y-104827520D01*
X163846792Y-104597091D01*
X163440000Y-104516175D01*
X163033208Y-104597091D01*
X162688345Y-104827520D01*
X162457916Y-105172383D01*
X162377000Y-105579175D01*
X161763000Y-105579175D01*
X161763000Y-104747414D01*
X161761021Y-104742636D01*
X161757364Y-104738979D01*
X161752586Y-104737000D01*
X160903300Y-104737000D01*
X160900050Y-104740250D01*
X160899950Y-104740250D01*
X160896700Y-104737000D01*
X160047414Y-104737000D01*
X160042636Y-104738979D01*
X160038979Y-104742636D01*
X160037000Y-104747414D01*
X137973000Y-104747414D01*
X137973000Y-101890250D01*
X147737000Y-101890250D01*
X147737000Y-102492369D01*
X147769428Y-102570655D01*
X147829346Y-102630573D01*
X147907632Y-102663000D01*
X148509750Y-102663000D01*
X148563000Y-102609750D01*
X148563000Y-101837000D01*
X149037000Y-101837000D01*
X149037000Y-102609750D01*
X149090250Y-102663000D01*
X149692368Y-102663000D01*
X149770654Y-102630573D01*
X149830572Y-102570655D01*
X149863000Y-102492369D01*
X149863000Y-102431300D01*
X168636885Y-102431300D01*
X168737608Y-102675069D01*
X168923950Y-102861736D01*
X169167543Y-102962885D01*
X169431300Y-102963115D01*
X169675069Y-102862392D01*
X169861736Y-102676050D01*
X169921841Y-102531300D01*
X171136885Y-102531300D01*
X171237608Y-102775069D01*
X171423950Y-102961736D01*
X171667543Y-103062885D01*
X171931300Y-103063115D01*
X172175069Y-102962392D01*
X172361736Y-102776050D01*
X172397363Y-102690250D01*
X178037000Y-102690250D01*
X178037000Y-103292369D01*
X178069428Y-103370655D01*
X178129346Y-103430573D01*
X178207632Y-103463000D01*
X178809750Y-103463000D01*
X178863000Y-103409750D01*
X178863000Y-102637000D01*
X179337000Y-102637000D01*
X179337000Y-103409750D01*
X179390250Y-103463000D01*
X179992368Y-103463000D01*
X180070654Y-103430573D01*
X180130572Y-103370655D01*
X180163000Y-103292369D01*
X180163000Y-102690250D01*
X180109750Y-102637000D01*
X179337000Y-102637000D01*
X178863000Y-102637000D01*
X178090250Y-102637000D01*
X178037000Y-102690250D01*
X172397363Y-102690250D01*
X172462885Y-102532457D01*
X172462946Y-102462546D01*
X173417861Y-101507631D01*
X178037000Y-101507631D01*
X178037000Y-102109750D01*
X178090250Y-102163000D01*
X178863000Y-102163000D01*
X178863000Y-101390250D01*
X179337000Y-101390250D01*
X179337000Y-102163000D01*
X180109750Y-102163000D01*
X180163000Y-102109750D01*
X180163000Y-101507631D01*
X180130572Y-101429345D01*
X180070654Y-101369427D01*
X179992368Y-101337000D01*
X179390250Y-101337000D01*
X179337000Y-101390250D01*
X178863000Y-101390250D01*
X178809750Y-101337000D01*
X178207632Y-101337000D01*
X178129346Y-101369427D01*
X178069428Y-101429345D01*
X178037000Y-101507631D01*
X173417861Y-101507631D01*
X184562746Y-90362746D01*
X184673950Y-90196317D01*
X184713000Y-90000000D01*
X184713000Y-83924701D01*
X184761736Y-83876050D01*
X184862885Y-83632457D01*
X184863115Y-83368700D01*
X184762392Y-83124931D01*
X184576050Y-82938264D01*
X184332457Y-82837115D01*
X184068700Y-82836885D01*
X183824931Y-82937608D01*
X183638264Y-83123950D01*
X183537115Y-83367543D01*
X183536885Y-83631300D01*
X183637608Y-83875069D01*
X183687000Y-83924547D01*
X183687000Y-89787508D01*
X171737563Y-101736945D01*
X171668700Y-101736885D01*
X171424931Y-101837608D01*
X171238264Y-102023950D01*
X171137115Y-102267543D01*
X171136885Y-102531300D01*
X169921841Y-102531300D01*
X169962885Y-102432457D01*
X169962946Y-102362546D01*
X181962746Y-90362746D01*
X182073950Y-90196317D01*
X182113000Y-90000000D01*
X182113000Y-84024701D01*
X182161736Y-83976050D01*
X182262885Y-83732457D01*
X182263115Y-83468700D01*
X182162392Y-83224931D01*
X181976050Y-83038264D01*
X181732457Y-82937115D01*
X181468700Y-82936885D01*
X181224931Y-83037608D01*
X181038264Y-83223950D01*
X180937115Y-83467543D01*
X180936885Y-83731300D01*
X181037608Y-83975069D01*
X181087000Y-84024547D01*
X181087000Y-89787508D01*
X169237563Y-101636945D01*
X169168700Y-101636885D01*
X168924931Y-101737608D01*
X168738264Y-101923950D01*
X168637115Y-102167543D01*
X168636885Y-102431300D01*
X149863000Y-102431300D01*
X149863000Y-101890250D01*
X149809750Y-101837000D01*
X149037000Y-101837000D01*
X148563000Y-101837000D01*
X147790250Y-101837000D01*
X147737000Y-101890250D01*
X137973000Y-101890250D01*
X137973000Y-100707631D01*
X147737000Y-100707631D01*
X147737000Y-101309750D01*
X147790250Y-101363000D01*
X148563000Y-101363000D01*
X148563000Y-100590250D01*
X149037000Y-100590250D01*
X149037000Y-101363000D01*
X149809750Y-101363000D01*
X149863000Y-101309750D01*
X149863000Y-100707631D01*
X149830572Y-100629345D01*
X149770654Y-100569427D01*
X149692368Y-100537000D01*
X149090250Y-100537000D01*
X149037000Y-100590250D01*
X148563000Y-100590250D01*
X148509750Y-100537000D01*
X147907632Y-100537000D01*
X147829346Y-100569427D01*
X147769428Y-100629345D01*
X147737000Y-100707631D01*
X137973000Y-100707631D01*
X137973000Y-98752492D01*
X139775492Y-96950000D01*
X142532828Y-96950000D01*
X142532828Y-98650000D01*
X142547680Y-98728933D01*
X142594329Y-98801428D01*
X142665508Y-98850062D01*
X142750000Y-98867172D01*
X144450000Y-98867172D01*
X144528933Y-98852320D01*
X144601428Y-98805671D01*
X144650062Y-98734492D01*
X144667172Y-98650000D01*
X144667172Y-97779175D01*
X145077000Y-97779175D01*
X145077000Y-97820825D01*
X145157916Y-98227617D01*
X145388345Y-98572480D01*
X145733208Y-98802909D01*
X146140000Y-98883825D01*
X146546792Y-98802909D01*
X146891655Y-98572480D01*
X147122084Y-98227617D01*
X147203000Y-97820825D01*
X147203000Y-97800050D01*
X147820250Y-97800050D01*
X147827633Y-97935052D01*
X147944198Y-98250959D01*
X148172782Y-98498211D01*
X148478585Y-98639167D01*
X148544948Y-98652367D01*
X148679950Y-98659750D01*
X148679950Y-97800050D01*
X148680050Y-97800050D01*
X148680050Y-98659750D01*
X148815052Y-98652367D01*
X148881415Y-98639167D01*
X149187218Y-98498211D01*
X149415802Y-98250959D01*
X149532367Y-97935052D01*
X149539750Y-97800050D01*
X148680050Y-97800050D01*
X148679950Y-97800050D01*
X147820250Y-97800050D01*
X147203000Y-97800050D01*
X147203000Y-97799950D01*
X147820250Y-97799950D01*
X148679950Y-97799950D01*
X148680050Y-97799950D01*
X149539750Y-97799950D01*
X149538614Y-97779175D01*
X150157000Y-97779175D01*
X150157000Y-97820825D01*
X150237916Y-98227617D01*
X150468345Y-98572480D01*
X150813208Y-98802909D01*
X151220000Y-98883825D01*
X151626792Y-98802909D01*
X151971655Y-98572480D01*
X152202084Y-98227617D01*
X152283000Y-97820825D01*
X152283000Y-97779175D01*
X152697000Y-97779175D01*
X152697000Y-97820825D01*
X152777916Y-98227617D01*
X153008345Y-98572480D01*
X153353208Y-98802909D01*
X153760000Y-98883825D01*
X154166792Y-98802909D01*
X154511655Y-98572480D01*
X154742084Y-98227617D01*
X154823000Y-97820825D01*
X154823000Y-97779175D01*
X155237000Y-97779175D01*
X155237000Y-97820825D01*
X155317916Y-98227617D01*
X155548345Y-98572480D01*
X155893208Y-98802909D01*
X156300000Y-98883825D01*
X156706792Y-98802909D01*
X157051655Y-98572480D01*
X157282084Y-98227617D01*
X157363000Y-97820825D01*
X157363000Y-97779175D01*
X157777000Y-97779175D01*
X157777000Y-97820825D01*
X157857916Y-98227617D01*
X158088345Y-98572480D01*
X158433208Y-98802909D01*
X158840000Y-98883825D01*
X159246792Y-98802909D01*
X159591655Y-98572480D01*
X159822084Y-98227617D01*
X159889190Y-97890250D01*
X163237000Y-97890250D01*
X163237000Y-98492369D01*
X163269428Y-98570655D01*
X163329346Y-98630573D01*
X163407632Y-98663000D01*
X164009750Y-98663000D01*
X164063000Y-98609750D01*
X164063000Y-97837000D01*
X164537000Y-97837000D01*
X164537000Y-98609750D01*
X164590250Y-98663000D01*
X165192368Y-98663000D01*
X165270654Y-98630573D01*
X165330572Y-98570655D01*
X165363000Y-98492369D01*
X165363000Y-97890250D01*
X165309750Y-97837000D01*
X164537000Y-97837000D01*
X164063000Y-97837000D01*
X163290250Y-97837000D01*
X163237000Y-97890250D01*
X159889190Y-97890250D01*
X159903000Y-97820825D01*
X159903000Y-97779175D01*
X159822084Y-97372383D01*
X159591655Y-97027520D01*
X159246792Y-96797091D01*
X158840000Y-96716175D01*
X158433208Y-96797091D01*
X158088345Y-97027520D01*
X157857916Y-97372383D01*
X157777000Y-97779175D01*
X157363000Y-97779175D01*
X157282084Y-97372383D01*
X157051655Y-97027520D01*
X156706792Y-96797091D01*
X156300000Y-96716175D01*
X155893208Y-96797091D01*
X155548345Y-97027520D01*
X155317916Y-97372383D01*
X155237000Y-97779175D01*
X154823000Y-97779175D01*
X154742084Y-97372383D01*
X154511655Y-97027520D01*
X154166792Y-96797091D01*
X153760000Y-96716175D01*
X153353208Y-96797091D01*
X153008345Y-97027520D01*
X152777916Y-97372383D01*
X152697000Y-97779175D01*
X152283000Y-97779175D01*
X152202084Y-97372383D01*
X151971655Y-97027520D01*
X151626792Y-96797091D01*
X151220000Y-96716175D01*
X150813208Y-96797091D01*
X150468345Y-97027520D01*
X150237916Y-97372383D01*
X150157000Y-97779175D01*
X149538614Y-97779175D01*
X149532367Y-97664948D01*
X149415802Y-97349041D01*
X149187218Y-97101789D01*
X148881415Y-96960833D01*
X148815052Y-96947633D01*
X148680050Y-96940250D01*
X148680050Y-97799950D01*
X148679950Y-97799950D01*
X148679950Y-96940250D01*
X148544948Y-96947633D01*
X148478585Y-96960833D01*
X148172782Y-97101789D01*
X147944198Y-97349041D01*
X147827633Y-97664948D01*
X147820250Y-97799950D01*
X147203000Y-97799950D01*
X147203000Y-97779175D01*
X147122084Y-97372383D01*
X146891655Y-97027520D01*
X146546792Y-96797091D01*
X146140000Y-96716175D01*
X145733208Y-96797091D01*
X145388345Y-97027520D01*
X145157916Y-97372383D01*
X145077000Y-97779175D01*
X144667172Y-97779175D01*
X144667172Y-96950000D01*
X144652320Y-96871067D01*
X144605671Y-96798572D01*
X144534492Y-96749938D01*
X144450000Y-96732828D01*
X142750000Y-96732828D01*
X142671067Y-96747680D01*
X142598572Y-96794329D01*
X142549938Y-96865508D01*
X142532828Y-96950000D01*
X139775492Y-96950000D01*
X140017861Y-96707631D01*
X163237000Y-96707631D01*
X163237000Y-97309750D01*
X163290250Y-97363000D01*
X164063000Y-97363000D01*
X164063000Y-96590250D01*
X164537000Y-96590250D01*
X164537000Y-97363000D01*
X165309750Y-97363000D01*
X165363000Y-97309750D01*
X165363000Y-96707631D01*
X165330572Y-96629345D01*
X165270654Y-96569427D01*
X165192368Y-96537000D01*
X164590250Y-96537000D01*
X164537000Y-96590250D01*
X164063000Y-96590250D01*
X164009750Y-96537000D01*
X163407632Y-96537000D01*
X163329346Y-96569427D01*
X163269428Y-96629345D01*
X163237000Y-96707631D01*
X140017861Y-96707631D01*
X142462746Y-94262746D01*
X142529800Y-94162392D01*
X142573950Y-94096317D01*
X142613000Y-93900000D01*
X142613000Y-91390250D01*
X150737000Y-91390250D01*
X150737000Y-91992369D01*
X150769428Y-92070655D01*
X150829346Y-92130573D01*
X150907632Y-92163000D01*
X151509750Y-92163000D01*
X151563000Y-92109750D01*
X151563000Y-91337000D01*
X152037000Y-91337000D01*
X152037000Y-92109750D01*
X152090250Y-92163000D01*
X152692368Y-92163000D01*
X152770654Y-92130573D01*
X152830572Y-92070655D01*
X152863000Y-91992369D01*
X152863000Y-91893089D01*
X164424831Y-91893089D01*
X164572954Y-92251571D01*
X164846986Y-92526082D01*
X165205210Y-92674830D01*
X165593089Y-92675169D01*
X165951571Y-92527046D01*
X166222608Y-92256481D01*
X167383590Y-92256481D01*
X167475582Y-92339301D01*
X167755584Y-92468362D01*
X168063661Y-92480447D01*
X168352912Y-92373716D01*
X168404418Y-92339301D01*
X168496410Y-92256481D01*
X167940000Y-91700071D01*
X167383590Y-92256481D01*
X166222608Y-92256481D01*
X166226082Y-92253014D01*
X166374830Y-91894790D01*
X166374892Y-91823661D01*
X167159553Y-91823661D01*
X167266284Y-92112912D01*
X167300699Y-92164418D01*
X167383519Y-92256410D01*
X167939929Y-91700000D01*
X167940071Y-91700000D01*
X168496481Y-92256410D01*
X168579301Y-92164418D01*
X168708362Y-91884416D01*
X168720447Y-91576339D01*
X168613716Y-91287088D01*
X168579301Y-91235582D01*
X168496481Y-91143590D01*
X167940071Y-91700000D01*
X167939929Y-91700000D01*
X167383519Y-91143590D01*
X167300699Y-91235582D01*
X167171638Y-91515584D01*
X167159553Y-91823661D01*
X166374892Y-91823661D01*
X166375169Y-91506911D01*
X166227046Y-91148429D01*
X166222145Y-91143519D01*
X167383590Y-91143519D01*
X167940000Y-91699929D01*
X168496410Y-91143519D01*
X168404418Y-91060699D01*
X168124416Y-90931638D01*
X167816339Y-90919553D01*
X167527088Y-91026284D01*
X167475582Y-91060699D01*
X167383590Y-91143519D01*
X166222145Y-91143519D01*
X165953014Y-90873918D01*
X165594790Y-90725170D01*
X165206911Y-90724831D01*
X164848429Y-90872954D01*
X164573918Y-91146986D01*
X164425170Y-91505210D01*
X164424831Y-91893089D01*
X152863000Y-91893089D01*
X152863000Y-91390250D01*
X152809750Y-91337000D01*
X152037000Y-91337000D01*
X151563000Y-91337000D01*
X150790250Y-91337000D01*
X150737000Y-91390250D01*
X142613000Y-91390250D01*
X142613000Y-90207631D01*
X150737000Y-90207631D01*
X150737000Y-90809750D01*
X150790250Y-90863000D01*
X151563000Y-90863000D01*
X151563000Y-90090250D01*
X152037000Y-90090250D01*
X152037000Y-90863000D01*
X152809750Y-90863000D01*
X152863000Y-90809750D01*
X152863000Y-90207631D01*
X152830572Y-90129345D01*
X152770654Y-90069427D01*
X152692368Y-90037000D01*
X152090250Y-90037000D01*
X152037000Y-90090250D01*
X151563000Y-90090250D01*
X151509750Y-90037000D01*
X150907632Y-90037000D01*
X150829346Y-90069427D01*
X150769428Y-90129345D01*
X150737000Y-90207631D01*
X142613000Y-90207631D01*
X142613000Y-82200000D01*
X142573950Y-82003683D01*
X142462746Y-81837254D01*
X142462743Y-81837252D01*
X140956792Y-80331300D01*
X161736885Y-80331300D01*
X161837608Y-80575069D01*
X162023950Y-80761736D01*
X162267543Y-80862885D01*
X162337454Y-80862946D01*
X162787000Y-81312492D01*
X162787000Y-87060000D01*
X162826050Y-87256317D01*
X162836770Y-87272360D01*
X162937254Y-87422746D01*
X164441175Y-88926666D01*
X164436440Y-88938069D01*
X163437563Y-89936945D01*
X163368700Y-89936885D01*
X163124931Y-90037608D01*
X162938264Y-90223950D01*
X162837115Y-90467543D01*
X162836885Y-90731300D01*
X162937608Y-90975069D01*
X163123950Y-91161736D01*
X163367543Y-91262885D01*
X163631300Y-91263115D01*
X163875069Y-91162392D01*
X164061736Y-90976050D01*
X164162885Y-90732457D01*
X164162946Y-90662546D01*
X164843201Y-89982290D01*
X164846986Y-89986082D01*
X165205210Y-90134830D01*
X165593089Y-90135169D01*
X165951571Y-89987046D01*
X166226082Y-89713014D01*
X166374830Y-89354790D01*
X166374831Y-89353089D01*
X166964831Y-89353089D01*
X167112954Y-89711571D01*
X167386986Y-89986082D01*
X167745210Y-90134830D01*
X168133089Y-90135169D01*
X168491571Y-89987046D01*
X168726768Y-89752260D01*
X169487000Y-90512491D01*
X169487000Y-93175299D01*
X169438264Y-93223950D01*
X169337115Y-93467543D01*
X169336885Y-93731300D01*
X169437608Y-93975069D01*
X169623950Y-94161736D01*
X169867543Y-94262885D01*
X170131300Y-94263115D01*
X170375069Y-94162392D01*
X170561736Y-93976050D01*
X170662885Y-93732457D01*
X170663115Y-93468700D01*
X170562392Y-93224931D01*
X170513000Y-93175453D01*
X170513000Y-90300000D01*
X170473950Y-90103683D01*
X170362746Y-89937254D01*
X170362743Y-89937252D01*
X169425492Y-89000000D01*
X170362437Y-88063055D01*
X170431300Y-88063115D01*
X170675069Y-87962392D01*
X170861736Y-87776050D01*
X170962885Y-87532457D01*
X170963115Y-87268700D01*
X170862392Y-87024931D01*
X170676050Y-86838264D01*
X170432457Y-86737115D01*
X170168700Y-86736885D01*
X169924931Y-86837608D01*
X169738264Y-87023950D01*
X169637115Y-87267543D01*
X169637054Y-87337454D01*
X168566738Y-88407770D01*
X168493014Y-88333918D01*
X168134790Y-88185170D01*
X167746911Y-88184831D01*
X167388429Y-88332954D01*
X167113918Y-88606986D01*
X166965170Y-88965210D01*
X166964831Y-89353089D01*
X166374831Y-89353089D01*
X166375169Y-88966911D01*
X166227046Y-88608429D01*
X165953014Y-88333918D01*
X165594790Y-88185170D01*
X165206911Y-88184831D01*
X165166868Y-88201377D01*
X163813000Y-86847508D01*
X163813000Y-86813089D01*
X164424831Y-86813089D01*
X164572954Y-87171571D01*
X164846986Y-87446082D01*
X165205210Y-87594830D01*
X165593089Y-87595169D01*
X165951571Y-87447046D01*
X166226082Y-87173014D01*
X166374830Y-86814790D01*
X166374831Y-86813089D01*
X166964831Y-86813089D01*
X167112954Y-87171571D01*
X167386986Y-87446082D01*
X167745210Y-87594830D01*
X168133089Y-87595169D01*
X168491571Y-87447046D01*
X168766082Y-87173014D01*
X168914830Y-86814790D01*
X168915169Y-86426911D01*
X168898624Y-86386868D01*
X170330000Y-84955492D01*
X171236945Y-85862437D01*
X171236885Y-85931300D01*
X171337608Y-86175069D01*
X171523950Y-86361736D01*
X171767543Y-86462885D01*
X172031300Y-86463115D01*
X172275069Y-86362392D01*
X172461736Y-86176050D01*
X172562885Y-85932457D01*
X172563115Y-85668700D01*
X172462392Y-85424931D01*
X172276050Y-85238264D01*
X172032457Y-85137115D01*
X171962546Y-85137054D01*
X171055492Y-84230000D01*
X172872491Y-82413000D01*
X183200000Y-82413000D01*
X183396317Y-82373950D01*
X183562746Y-82262746D01*
X184935242Y-80890250D01*
X187837000Y-80890250D01*
X187837000Y-81492369D01*
X187869428Y-81570655D01*
X187929346Y-81630573D01*
X188007632Y-81663000D01*
X188609750Y-81663000D01*
X188663000Y-81609750D01*
X188663000Y-80837000D01*
X189137000Y-80837000D01*
X189137000Y-81609750D01*
X189190250Y-81663000D01*
X189792368Y-81663000D01*
X189870654Y-81630573D01*
X189930572Y-81570655D01*
X189963000Y-81492369D01*
X189963000Y-80890250D01*
X189909750Y-80837000D01*
X189137000Y-80837000D01*
X188663000Y-80837000D01*
X187890250Y-80837000D01*
X187837000Y-80890250D01*
X184935242Y-80890250D01*
X186117861Y-79707631D01*
X187837000Y-79707631D01*
X187837000Y-80309750D01*
X187890250Y-80363000D01*
X188663000Y-80363000D01*
X188663000Y-79590250D01*
X189137000Y-79590250D01*
X189137000Y-80363000D01*
X189909750Y-80363000D01*
X189963000Y-80309750D01*
X189963000Y-79707631D01*
X189930572Y-79629345D01*
X189870654Y-79569427D01*
X189792368Y-79537000D01*
X189190250Y-79537000D01*
X189137000Y-79590250D01*
X188663000Y-79590250D01*
X188609750Y-79537000D01*
X188007632Y-79537000D01*
X187929346Y-79569427D01*
X187869428Y-79629345D01*
X187837000Y-79707631D01*
X186117861Y-79707631D01*
X189062437Y-76763055D01*
X189131300Y-76763115D01*
X189375069Y-76662392D01*
X189561736Y-76476050D01*
X189662885Y-76232457D01*
X189663115Y-75968700D01*
X189562392Y-75724931D01*
X189376050Y-75538264D01*
X189132457Y-75437115D01*
X188868700Y-75436885D01*
X188624931Y-75537608D01*
X188438264Y-75723950D01*
X188337115Y-75967543D01*
X188337054Y-76037454D01*
X182987508Y-81387000D01*
X172660005Y-81387000D01*
X172660000Y-81386999D01*
X172463684Y-81426049D01*
X172463682Y-81426050D01*
X172463683Y-81426050D01*
X172297254Y-81537254D01*
X172297252Y-81537257D01*
X169967254Y-83867254D01*
X169967252Y-83867257D01*
X168173334Y-85661175D01*
X168134790Y-85645170D01*
X167746911Y-85644831D01*
X167388429Y-85792954D01*
X167113918Y-86066986D01*
X166965170Y-86425210D01*
X166964831Y-86813089D01*
X166374831Y-86813089D01*
X166375169Y-86426911D01*
X166227046Y-86068429D01*
X165953014Y-85793918D01*
X165913000Y-85777303D01*
X165913000Y-85024701D01*
X165961736Y-84976050D01*
X166062885Y-84732457D01*
X166063115Y-84468700D01*
X165962392Y-84224931D01*
X165913000Y-84175453D01*
X165913000Y-80831300D01*
X168436885Y-80831300D01*
X168537608Y-81075069D01*
X168723950Y-81261736D01*
X168967543Y-81362885D01*
X169231300Y-81363115D01*
X169475069Y-81262392D01*
X169661736Y-81076050D01*
X169762885Y-80832457D01*
X169763115Y-80568700D01*
X169662392Y-80324931D01*
X169613000Y-80275453D01*
X169613000Y-73479175D01*
X170357000Y-73479175D01*
X170357000Y-73520825D01*
X170437916Y-73927617D01*
X170668345Y-74272480D01*
X171013208Y-74502909D01*
X171420000Y-74583825D01*
X171826792Y-74502909D01*
X172171655Y-74272480D01*
X172402084Y-73927617D01*
X172483000Y-73520825D01*
X172483000Y-73479175D01*
X172897000Y-73479175D01*
X172897000Y-73520825D01*
X172977916Y-73927617D01*
X173208345Y-74272480D01*
X173553208Y-74502909D01*
X173960000Y-74583825D01*
X174366792Y-74502909D01*
X174711655Y-74272480D01*
X174942084Y-73927617D01*
X175023000Y-73520825D01*
X175023000Y-73479175D01*
X175437000Y-73479175D01*
X175437000Y-73520825D01*
X175517916Y-73927617D01*
X175748345Y-74272480D01*
X176093208Y-74502909D01*
X176500000Y-74583825D01*
X176906792Y-74502909D01*
X177251655Y-74272480D01*
X177482084Y-73927617D01*
X177563000Y-73520825D01*
X177563000Y-73479175D01*
X177977000Y-73479175D01*
X177977000Y-73520825D01*
X178057916Y-73927617D01*
X178288345Y-74272480D01*
X178633208Y-74502909D01*
X179040000Y-74583825D01*
X179446792Y-74502909D01*
X179791655Y-74272480D01*
X180022084Y-73927617D01*
X180103000Y-73520825D01*
X180103000Y-73479175D01*
X180517000Y-73479175D01*
X180517000Y-73520825D01*
X180597916Y-73927617D01*
X180828345Y-74272480D01*
X181173208Y-74502909D01*
X181580000Y-74583825D01*
X181986792Y-74502909D01*
X182331655Y-74272480D01*
X182562084Y-73927617D01*
X182643000Y-73520825D01*
X182643000Y-73479175D01*
X183057000Y-73479175D01*
X183057000Y-73520825D01*
X183137916Y-73927617D01*
X183368345Y-74272480D01*
X183713208Y-74502909D01*
X184120000Y-74583825D01*
X184526792Y-74502909D01*
X184871655Y-74272480D01*
X185102084Y-73927617D01*
X185183000Y-73520825D01*
X185183000Y-73500050D01*
X185800250Y-73500050D01*
X185807633Y-73635052D01*
X185924198Y-73950959D01*
X186152782Y-74198211D01*
X186458585Y-74339167D01*
X186524948Y-74352367D01*
X186659950Y-74359750D01*
X186659950Y-73500050D01*
X186660050Y-73500050D01*
X186660050Y-74359750D01*
X186795052Y-74352367D01*
X186861415Y-74339167D01*
X187167218Y-74198211D01*
X187395802Y-73950959D01*
X187512367Y-73635052D01*
X187519750Y-73500050D01*
X186660050Y-73500050D01*
X186659950Y-73500050D01*
X185800250Y-73500050D01*
X185183000Y-73500050D01*
X185183000Y-73499950D01*
X185800250Y-73499950D01*
X186659950Y-73499950D01*
X186660050Y-73499950D01*
X187519750Y-73499950D01*
X187512367Y-73364948D01*
X187395802Y-73049041D01*
X187167218Y-72801789D01*
X186861415Y-72660833D01*
X186806953Y-72650000D01*
X188132828Y-72650000D01*
X188132828Y-74350000D01*
X188147680Y-74428933D01*
X188194329Y-74501428D01*
X188265508Y-74550062D01*
X188350000Y-74567172D01*
X190050000Y-74567172D01*
X190128933Y-74552320D01*
X190201428Y-74505671D01*
X190250062Y-74434492D01*
X190267172Y-74350000D01*
X190267172Y-72650000D01*
X190252320Y-72571067D01*
X190205671Y-72498572D01*
X190134492Y-72449938D01*
X190050000Y-72432828D01*
X188350000Y-72432828D01*
X188271067Y-72447680D01*
X188198572Y-72494329D01*
X188149938Y-72565508D01*
X188132828Y-72650000D01*
X186806953Y-72650000D01*
X186795052Y-72647633D01*
X186660050Y-72640250D01*
X186660050Y-73499950D01*
X186659950Y-73499950D01*
X186659950Y-72640250D01*
X186524948Y-72647633D01*
X186458585Y-72660833D01*
X186152782Y-72801789D01*
X185924198Y-73049041D01*
X185807633Y-73364948D01*
X185800250Y-73499950D01*
X185183000Y-73499950D01*
X185183000Y-73479175D01*
X185102084Y-73072383D01*
X184871655Y-72727520D01*
X184526792Y-72497091D01*
X184120000Y-72416175D01*
X183713208Y-72497091D01*
X183368345Y-72727520D01*
X183137916Y-73072383D01*
X183057000Y-73479175D01*
X182643000Y-73479175D01*
X182562084Y-73072383D01*
X182331655Y-72727520D01*
X181986792Y-72497091D01*
X181580000Y-72416175D01*
X181173208Y-72497091D01*
X180828345Y-72727520D01*
X180597916Y-73072383D01*
X180517000Y-73479175D01*
X180103000Y-73479175D01*
X180022084Y-73072383D01*
X179791655Y-72727520D01*
X179446792Y-72497091D01*
X179040000Y-72416175D01*
X178633208Y-72497091D01*
X178288345Y-72727520D01*
X178057916Y-73072383D01*
X177977000Y-73479175D01*
X177563000Y-73479175D01*
X177482084Y-73072383D01*
X177251655Y-72727520D01*
X176906792Y-72497091D01*
X176500000Y-72416175D01*
X176093208Y-72497091D01*
X175748345Y-72727520D01*
X175517916Y-73072383D01*
X175437000Y-73479175D01*
X175023000Y-73479175D01*
X174942084Y-73072383D01*
X174711655Y-72727520D01*
X174366792Y-72497091D01*
X173960000Y-72416175D01*
X173553208Y-72497091D01*
X173208345Y-72727520D01*
X172977916Y-73072383D01*
X172897000Y-73479175D01*
X172483000Y-73479175D01*
X172402084Y-73072383D01*
X172171655Y-72727520D01*
X171826792Y-72497091D01*
X171420000Y-72416175D01*
X171013208Y-72497091D01*
X170668345Y-72727520D01*
X170437916Y-73072383D01*
X170357000Y-73479175D01*
X169613000Y-73479175D01*
X169613000Y-71812492D01*
X170112492Y-71313000D01*
X172400000Y-71313000D01*
X172596317Y-71273950D01*
X172762746Y-71162746D01*
X175922746Y-68002746D01*
X175929258Y-67993000D01*
X176033950Y-67836317D01*
X176071998Y-67645039D01*
X176249429Y-67526483D01*
X176460783Y-67210170D01*
X176535000Y-66837054D01*
X176535000Y-65762946D01*
X177125000Y-65762946D01*
X177125000Y-66837054D01*
X177199217Y-67210170D01*
X177410571Y-67526483D01*
X177587000Y-67644369D01*
X177587000Y-68700000D01*
X177626050Y-68896317D01*
X177736579Y-69061736D01*
X177737254Y-69062746D01*
X179437254Y-70762746D01*
X179603683Y-70873950D01*
X179800000Y-70913000D01*
X190187508Y-70913000D01*
X191287000Y-72012492D01*
X191287000Y-98587508D01*
X186737563Y-103136945D01*
X186668700Y-103136885D01*
X186424931Y-103237608D01*
X186238264Y-103423950D01*
X186137115Y-103667543D01*
X186136885Y-103931300D01*
X186237608Y-104175069D01*
X186423950Y-104361736D01*
X186667543Y-104462885D01*
X186931300Y-104463115D01*
X187175069Y-104362392D01*
X187361736Y-104176050D01*
X187462885Y-103932457D01*
X187462946Y-103862546D01*
X192162746Y-99162746D01*
X192187827Y-99125210D01*
X192273950Y-98996317D01*
X192313000Y-98800000D01*
X192313000Y-71800000D01*
X192273950Y-71603683D01*
X192162746Y-71437254D01*
X190762746Y-70037254D01*
X190596317Y-69926050D01*
X190400000Y-69887000D01*
X180012492Y-69887000D01*
X178656792Y-68531300D01*
X179036885Y-68531300D01*
X179137608Y-68775069D01*
X179323950Y-68961736D01*
X179567543Y-69062885D01*
X179831300Y-69063115D01*
X180075069Y-68962392D01*
X180261736Y-68776050D01*
X180362885Y-68532457D01*
X180362946Y-68462546D01*
X180394192Y-68431300D01*
X181636885Y-68431300D01*
X181737608Y-68675069D01*
X181923950Y-68861736D01*
X182167543Y-68962885D01*
X182431300Y-68963115D01*
X182675069Y-68862392D01*
X182861736Y-68676050D01*
X182921841Y-68531300D01*
X184136885Y-68531300D01*
X184237608Y-68775069D01*
X184423950Y-68961736D01*
X184667543Y-69062885D01*
X184931300Y-69063115D01*
X185175069Y-68962392D01*
X185361736Y-68776050D01*
X185462885Y-68532457D01*
X185462946Y-68462546D01*
X185594191Y-68331300D01*
X186736885Y-68331300D01*
X186837608Y-68575069D01*
X187023950Y-68761736D01*
X187267543Y-68862885D01*
X187531300Y-68863115D01*
X187775069Y-68762392D01*
X187961736Y-68576050D01*
X188062885Y-68332457D01*
X188062946Y-68262546D01*
X188576367Y-67749125D01*
X188633116Y-67737837D01*
X188949429Y-67526483D01*
X189160783Y-67210170D01*
X189235000Y-66837054D01*
X189235000Y-65762946D01*
X189160783Y-65389830D01*
X188949429Y-65073517D01*
X188633116Y-64862163D01*
X188260000Y-64787946D01*
X187886884Y-64862163D01*
X187570571Y-65073517D01*
X187359217Y-65389830D01*
X187285000Y-65762946D01*
X187285000Y-66837054D01*
X187359217Y-67210170D01*
X187481431Y-67393077D01*
X187337563Y-67536945D01*
X187268700Y-67536885D01*
X187024931Y-67637608D01*
X186838264Y-67823950D01*
X186737115Y-68067543D01*
X186736885Y-68331300D01*
X185594191Y-68331300D01*
X186082743Y-67842748D01*
X186082746Y-67842746D01*
X186193950Y-67676317D01*
X186195293Y-67669564D01*
X186409429Y-67526483D01*
X186620783Y-67210170D01*
X186695000Y-66837054D01*
X186695000Y-65762946D01*
X186620783Y-65389830D01*
X186409429Y-65073517D01*
X186093116Y-64862163D01*
X185720000Y-64787946D01*
X185346884Y-64862163D01*
X185030571Y-65073517D01*
X184819217Y-65389830D01*
X184745000Y-65762946D01*
X184745000Y-66837054D01*
X184819217Y-67210170D01*
X184997508Y-67477001D01*
X184737563Y-67736945D01*
X184668700Y-67736885D01*
X184424931Y-67837608D01*
X184238264Y-68023950D01*
X184137115Y-68267543D01*
X184136885Y-68531300D01*
X182921841Y-68531300D01*
X182962885Y-68432457D01*
X182962946Y-68362546D01*
X183542746Y-67782746D01*
X183572906Y-67737608D01*
X183588592Y-67714133D01*
X183869429Y-67526483D01*
X184080783Y-67210170D01*
X184155000Y-66837054D01*
X184155000Y-65762946D01*
X184080783Y-65389830D01*
X183869429Y-65073517D01*
X183553116Y-64862163D01*
X183180000Y-64787946D01*
X182806884Y-64862163D01*
X182490571Y-65073517D01*
X182279217Y-65389830D01*
X182205000Y-65762946D01*
X182205000Y-66837054D01*
X182279217Y-67210170D01*
X182433475Y-67441033D01*
X182237563Y-67636945D01*
X182168700Y-67636885D01*
X181924931Y-67737608D01*
X181738264Y-67923950D01*
X181637115Y-68167543D01*
X181636885Y-68431300D01*
X180394192Y-68431300D01*
X181002746Y-67822746D01*
X181096876Y-67681870D01*
X181329429Y-67526483D01*
X181540783Y-67210170D01*
X181615000Y-66837054D01*
X181615000Y-65762946D01*
X181540783Y-65389830D01*
X181329429Y-65073517D01*
X181013116Y-64862163D01*
X180640000Y-64787946D01*
X180266884Y-64862163D01*
X179950571Y-65073517D01*
X179739217Y-65389830D01*
X179665000Y-65762946D01*
X179665000Y-66837054D01*
X179739217Y-67210170D01*
X179909497Y-67465011D01*
X179637563Y-67736945D01*
X179568700Y-67736885D01*
X179324931Y-67837608D01*
X179138264Y-68023950D01*
X179037115Y-68267543D01*
X179036885Y-68531300D01*
X178656792Y-68531300D01*
X178613000Y-68487508D01*
X178613000Y-67644369D01*
X178789429Y-67526483D01*
X179000783Y-67210170D01*
X179075000Y-66837054D01*
X179075000Y-65762946D01*
X179000783Y-65389830D01*
X178789429Y-65073517D01*
X178473116Y-64862163D01*
X178100000Y-64787946D01*
X177726884Y-64862163D01*
X177410571Y-65073517D01*
X177199217Y-65389830D01*
X177125000Y-65762946D01*
X176535000Y-65762946D01*
X176460783Y-65389830D01*
X176249429Y-65073517D01*
X175933116Y-64862163D01*
X175560000Y-64787946D01*
X175186884Y-64862163D01*
X174870571Y-65073517D01*
X174659217Y-65389830D01*
X174585000Y-65762946D01*
X174585000Y-66837054D01*
X174659217Y-67210170D01*
X174870571Y-67526483D01*
X174917001Y-67557507D01*
X172187508Y-70287000D01*
X169900000Y-70287000D01*
X169703683Y-70326050D01*
X169537254Y-70437254D01*
X168737254Y-71237254D01*
X168626050Y-71403683D01*
X168587000Y-71600000D01*
X168587000Y-80275299D01*
X168538264Y-80323950D01*
X168437115Y-80567543D01*
X168436885Y-80831300D01*
X165913000Y-80831300D01*
X165913000Y-78824527D01*
X166061736Y-78676050D01*
X166162885Y-78432457D01*
X166163115Y-78168700D01*
X166062392Y-77924931D01*
X165876050Y-77738264D01*
X165632457Y-77637115D01*
X165368700Y-77636885D01*
X165124931Y-77737608D01*
X164938264Y-77923950D01*
X164837115Y-78167543D01*
X164836885Y-78431300D01*
X164887000Y-78552588D01*
X164887000Y-84175299D01*
X164838264Y-84223950D01*
X164737115Y-84467543D01*
X164736885Y-84731300D01*
X164837608Y-84975069D01*
X164887000Y-85024547D01*
X164887000Y-85777017D01*
X164848429Y-85792954D01*
X164573918Y-86066986D01*
X164425170Y-86425210D01*
X164424831Y-86813089D01*
X163813000Y-86813089D01*
X163813000Y-81100000D01*
X163773950Y-80903683D01*
X163662746Y-80737254D01*
X163063055Y-80137563D01*
X163063115Y-80068700D01*
X162962392Y-79824931D01*
X162776050Y-79638264D01*
X162532457Y-79537115D01*
X162268700Y-79536885D01*
X162024931Y-79637608D01*
X161838264Y-79823950D01*
X161737115Y-80067543D01*
X161736885Y-80331300D01*
X140956792Y-80331300D01*
X140663055Y-80037563D01*
X140663115Y-79968700D01*
X140562392Y-79724931D01*
X140376050Y-79538264D01*
X140132457Y-79437115D01*
X139868700Y-79436885D01*
X139624931Y-79537608D01*
X139438264Y-79723950D01*
X139337115Y-79967543D01*
X139336885Y-80231300D01*
X139437608Y-80475069D01*
X139623950Y-80661736D01*
X139867543Y-80762885D01*
X139937454Y-80762946D01*
X141587000Y-82412491D01*
X141587000Y-93687508D01*
X137097254Y-98177254D01*
X136986050Y-98343683D01*
X136947000Y-98540000D01*
X136947000Y-113215631D01*
X136770571Y-113333517D01*
X136559217Y-113649830D01*
X136485000Y-114022946D01*
X135895000Y-114022946D01*
X135820783Y-113649830D01*
X135609429Y-113333517D01*
X135293116Y-113122163D01*
X134920000Y-113047946D01*
X134546884Y-113122163D01*
X134230571Y-113333517D01*
X134019217Y-113649830D01*
X133945000Y-114022946D01*
X133355000Y-114022946D01*
X133280783Y-113649830D01*
X133069429Y-113333517D01*
X132753116Y-113122163D01*
X132380000Y-113047946D01*
X132006884Y-113122163D01*
X131690571Y-113333517D01*
X131479217Y-113649830D01*
X131405000Y-114022946D01*
X130815000Y-114022946D01*
X130740783Y-113649830D01*
X130529429Y-113333517D01*
X130213116Y-113122163D01*
X129840000Y-113047946D01*
X129466884Y-113122163D01*
X129150571Y-113333517D01*
X128939217Y-113649830D01*
X128865000Y-114022946D01*
X128588000Y-114022946D01*
X128588000Y-91548310D01*
X130851761Y-91548310D01*
X131003124Y-91681836D01*
X131459431Y-91892175D01*
X131961497Y-91911881D01*
X132432887Y-91737956D01*
X132516876Y-91681836D01*
X132668239Y-91548310D01*
X135931761Y-91548310D01*
X136083124Y-91681836D01*
X136539431Y-91892175D01*
X137041497Y-91911881D01*
X137512887Y-91737956D01*
X137596876Y-91681836D01*
X137748239Y-91548310D01*
X136840000Y-90640071D01*
X135931761Y-91548310D01*
X132668239Y-91548310D01*
X131760000Y-90640071D01*
X130851761Y-91548310D01*
X128588000Y-91548310D01*
X128588000Y-90841497D01*
X130488119Y-90841497D01*
X130662044Y-91312887D01*
X130718164Y-91396876D01*
X130851690Y-91548239D01*
X131759929Y-90640000D01*
X131760071Y-90640000D01*
X132668310Y-91548239D01*
X132801836Y-91396876D01*
X133012175Y-90940569D01*
X133016063Y-90841497D01*
X135568119Y-90841497D01*
X135742044Y-91312887D01*
X135798164Y-91396876D01*
X135931690Y-91548239D01*
X136839929Y-90640000D01*
X136840071Y-90640000D01*
X137748310Y-91548239D01*
X137881836Y-91396876D01*
X138092175Y-90940569D01*
X138111881Y-90438503D01*
X137937956Y-89967113D01*
X137881836Y-89883124D01*
X137748310Y-89731761D01*
X136840071Y-90640000D01*
X136839929Y-90640000D01*
X135931690Y-89731761D01*
X135798164Y-89883124D01*
X135587825Y-90339431D01*
X135568119Y-90841497D01*
X133016063Y-90841497D01*
X133031881Y-90438503D01*
X132857956Y-89967113D01*
X132801836Y-89883124D01*
X132668310Y-89731761D01*
X131760071Y-90640000D01*
X131759929Y-90640000D01*
X130851690Y-89731761D01*
X130718164Y-89883124D01*
X130507825Y-90339431D01*
X130488119Y-90841497D01*
X128588000Y-90841497D01*
X128588000Y-89731690D01*
X130851761Y-89731690D01*
X131760000Y-90639929D01*
X132668239Y-89731690D01*
X135931761Y-89731690D01*
X136840000Y-90639929D01*
X137748239Y-89731690D01*
X137596876Y-89598164D01*
X137140569Y-89387825D01*
X136638503Y-89368119D01*
X136167113Y-89542044D01*
X136083124Y-89598164D01*
X135931761Y-89731690D01*
X132668239Y-89731690D01*
X132516876Y-89598164D01*
X132060569Y-89387825D01*
X131558503Y-89368119D01*
X131087113Y-89542044D01*
X131003124Y-89598164D01*
X130851761Y-89731690D01*
X128588000Y-89731690D01*
X128588000Y-88389732D01*
X132836746Y-88389732D01*
X133059006Y-88927640D01*
X133470195Y-89339548D01*
X134007715Y-89562746D01*
X134589732Y-89563254D01*
X135127640Y-89340994D01*
X135539548Y-88929805D01*
X135762746Y-88392285D01*
X135763254Y-87810268D01*
X135540994Y-87272360D01*
X135129805Y-86860452D01*
X134592285Y-86637254D01*
X134010268Y-86636746D01*
X133472360Y-86859006D01*
X133060452Y-87270195D01*
X132837254Y-87807715D01*
X132836746Y-88389732D01*
X128588000Y-88389732D01*
X128588000Y-86468310D01*
X130851761Y-86468310D01*
X131003124Y-86601836D01*
X131459431Y-86812175D01*
X131961497Y-86831881D01*
X132432887Y-86657956D01*
X132516876Y-86601836D01*
X132668239Y-86468310D01*
X135931761Y-86468310D01*
X136083124Y-86601836D01*
X136539431Y-86812175D01*
X137041497Y-86831881D01*
X137512887Y-86657956D01*
X137596876Y-86601836D01*
X137748239Y-86468310D01*
X136840000Y-85560071D01*
X135931761Y-86468310D01*
X132668239Y-86468310D01*
X131760000Y-85560071D01*
X130851761Y-86468310D01*
X128588000Y-86468310D01*
X128588000Y-85761497D01*
X130488119Y-85761497D01*
X130662044Y-86232887D01*
X130718164Y-86316876D01*
X130851690Y-86468239D01*
X131759929Y-85560000D01*
X131760071Y-85560000D01*
X132668310Y-86468239D01*
X132801836Y-86316876D01*
X133012175Y-85860569D01*
X133016063Y-85761497D01*
X135568119Y-85761497D01*
X135742044Y-86232887D01*
X135798164Y-86316876D01*
X135931690Y-86468239D01*
X136839929Y-85560000D01*
X136840071Y-85560000D01*
X137748310Y-86468239D01*
X137881836Y-86316876D01*
X138092175Y-85860569D01*
X138111881Y-85358503D01*
X137937956Y-84887113D01*
X137881836Y-84803124D01*
X137748310Y-84651761D01*
X136840071Y-85560000D01*
X136839929Y-85560000D01*
X135931690Y-84651761D01*
X135798164Y-84803124D01*
X135587825Y-85259431D01*
X135568119Y-85761497D01*
X133016063Y-85761497D01*
X133031881Y-85358503D01*
X132857956Y-84887113D01*
X132801836Y-84803124D01*
X132668310Y-84651761D01*
X131760071Y-85560000D01*
X131759929Y-85560000D01*
X130851690Y-84651761D01*
X130718164Y-84803124D01*
X130507825Y-85259431D01*
X130488119Y-85761497D01*
X128588000Y-85761497D01*
X128588000Y-84651690D01*
X130851761Y-84651690D01*
X131760000Y-85559929D01*
X132668239Y-84651690D01*
X135931761Y-84651690D01*
X136840000Y-85559929D01*
X137748239Y-84651690D01*
X137596876Y-84518164D01*
X137140569Y-84307825D01*
X136638503Y-84288119D01*
X136167113Y-84462044D01*
X136083124Y-84518164D01*
X135931761Y-84651690D01*
X132668239Y-84651690D01*
X132516876Y-84518164D01*
X132060569Y-84307825D01*
X131558503Y-84288119D01*
X131087113Y-84462044D01*
X131003124Y-84518164D01*
X130851761Y-84651690D01*
X128588000Y-84651690D01*
X128588000Y-82290250D01*
X135637000Y-82290250D01*
X135637000Y-82892369D01*
X135669428Y-82970655D01*
X135729346Y-83030573D01*
X135807632Y-83063000D01*
X136409750Y-83063000D01*
X136463000Y-83009750D01*
X136463000Y-82237000D01*
X136937000Y-82237000D01*
X136937000Y-83009750D01*
X136990250Y-83063000D01*
X137592368Y-83063000D01*
X137670654Y-83030573D01*
X137730572Y-82970655D01*
X137763000Y-82892369D01*
X137763000Y-82290250D01*
X137709750Y-82237000D01*
X136937000Y-82237000D01*
X136463000Y-82237000D01*
X135690250Y-82237000D01*
X135637000Y-82290250D01*
X128588000Y-82290250D01*
X128588000Y-81536450D01*
X129016819Y-81107631D01*
X135637000Y-81107631D01*
X135637000Y-81709750D01*
X135690250Y-81763000D01*
X136463000Y-81763000D01*
X136463000Y-80990250D01*
X136937000Y-80990250D01*
X136937000Y-81763000D01*
X137709750Y-81763000D01*
X137763000Y-81709750D01*
X137763000Y-81107631D01*
X137730572Y-81029345D01*
X137670654Y-80969427D01*
X137592368Y-80937000D01*
X136990250Y-80937000D01*
X136937000Y-80990250D01*
X136463000Y-80990250D01*
X136409750Y-80937000D01*
X135807632Y-80937000D01*
X135729346Y-80969427D01*
X135669428Y-81029345D01*
X135637000Y-81107631D01*
X129016819Y-81107631D01*
X136134200Y-73990250D01*
X162537000Y-73990250D01*
X162537000Y-74592369D01*
X162569428Y-74670655D01*
X162629346Y-74730573D01*
X162707632Y-74763000D01*
X163309750Y-74763000D01*
X163363000Y-74709750D01*
X163363000Y-73937000D01*
X163837000Y-73937000D01*
X163837000Y-74709750D01*
X163890250Y-74763000D01*
X164492368Y-74763000D01*
X164570654Y-74730573D01*
X164630572Y-74670655D01*
X164663000Y-74592369D01*
X164663000Y-73990250D01*
X164609750Y-73937000D01*
X163837000Y-73937000D01*
X163363000Y-73937000D01*
X162590250Y-73937000D01*
X162537000Y-73990250D01*
X136134200Y-73990250D01*
X137316819Y-72807631D01*
X162537000Y-72807631D01*
X162537000Y-73409750D01*
X162590250Y-73463000D01*
X163363000Y-73463000D01*
X163363000Y-72690250D01*
X163837000Y-72690250D01*
X163837000Y-73463000D01*
X164609750Y-73463000D01*
X164663000Y-73409750D01*
X164663000Y-72807631D01*
X164630572Y-72729345D01*
X164570654Y-72669427D01*
X164492368Y-72637000D01*
X163890250Y-72637000D01*
X163837000Y-72690250D01*
X163363000Y-72690250D01*
X163309750Y-72637000D01*
X162707632Y-72637000D01*
X162629346Y-72669427D01*
X162569428Y-72729345D01*
X162537000Y-72807631D01*
X137316819Y-72807631D01*
X144361504Y-65762946D01*
X146645000Y-65762946D01*
X146645000Y-66837054D01*
X146719217Y-67210170D01*
X146930571Y-67526483D01*
X147246884Y-67737837D01*
X147620000Y-67812054D01*
X147993116Y-67737837D01*
X148309429Y-67526483D01*
X148520783Y-67210170D01*
X148595000Y-66837054D01*
X148595000Y-65762946D01*
X149185000Y-65762946D01*
X149185000Y-66837054D01*
X149259217Y-67210170D01*
X149470571Y-67526483D01*
X149786884Y-67737837D01*
X150160000Y-67812054D01*
X150533116Y-67737837D01*
X150849429Y-67526483D01*
X151060783Y-67210170D01*
X151135000Y-66837054D01*
X151135000Y-65762946D01*
X151725000Y-65762946D01*
X151725000Y-66837054D01*
X151799217Y-67210170D01*
X152010571Y-67526483D01*
X152326884Y-67737837D01*
X152700000Y-67812054D01*
X153073116Y-67737837D01*
X153389429Y-67526483D01*
X153600783Y-67210170D01*
X153675000Y-66837054D01*
X153675000Y-65762946D01*
X154265000Y-65762946D01*
X154265000Y-66837054D01*
X154339217Y-67210170D01*
X154550571Y-67526483D01*
X154727000Y-67644369D01*
X154727000Y-68035368D01*
X154638264Y-68123950D01*
X154537115Y-68367543D01*
X154536885Y-68631300D01*
X154637608Y-68875069D01*
X154823950Y-69061736D01*
X155067543Y-69162885D01*
X155331300Y-69163115D01*
X155575069Y-69062392D01*
X155761736Y-68876050D01*
X155862885Y-68632457D01*
X155863115Y-68368700D01*
X155762392Y-68124931D01*
X155753000Y-68115523D01*
X155753000Y-67644369D01*
X155929429Y-67526483D01*
X156140783Y-67210170D01*
X156215000Y-66837054D01*
X156215000Y-65762946D01*
X156805000Y-65762946D01*
X156805000Y-66837054D01*
X156879217Y-67210170D01*
X157090571Y-67526483D01*
X157267000Y-67644369D01*
X157267000Y-68095264D01*
X157238264Y-68123950D01*
X157137115Y-68367543D01*
X157136885Y-68631300D01*
X157237608Y-68875069D01*
X157423950Y-69061736D01*
X157667543Y-69162885D01*
X157931300Y-69163115D01*
X158175069Y-69062392D01*
X158361736Y-68876050D01*
X158462885Y-68632457D01*
X158463115Y-68368700D01*
X158362392Y-68124931D01*
X158293000Y-68055418D01*
X158293000Y-67644369D01*
X158469429Y-67526483D01*
X158680783Y-67210170D01*
X158755000Y-66837054D01*
X158755000Y-65762946D01*
X159345000Y-65762946D01*
X159345000Y-66837054D01*
X159419217Y-67210170D01*
X159630571Y-67526483D01*
X159807000Y-67644369D01*
X159807000Y-68055334D01*
X159738264Y-68123950D01*
X159637115Y-68367543D01*
X159636885Y-68631300D01*
X159737608Y-68875069D01*
X159923950Y-69061736D01*
X160167543Y-69162885D01*
X160431300Y-69163115D01*
X160675069Y-69062392D01*
X160861736Y-68876050D01*
X160962885Y-68632457D01*
X160963115Y-68368700D01*
X160862392Y-68124931D01*
X160833000Y-68095488D01*
X160833000Y-67644369D01*
X161009429Y-67526483D01*
X161220783Y-67210170D01*
X161295000Y-66837054D01*
X161295000Y-65762946D01*
X161885000Y-65762946D01*
X161885000Y-66837054D01*
X161959217Y-67210170D01*
X162170571Y-67526483D01*
X162486884Y-67737837D01*
X162860000Y-67812054D01*
X163233116Y-67737837D01*
X163549429Y-67526483D01*
X163760783Y-67210170D01*
X163835000Y-66837054D01*
X163835000Y-65762946D01*
X164425000Y-65762946D01*
X164425000Y-66837054D01*
X164499217Y-67210170D01*
X164710571Y-67526483D01*
X165026884Y-67737837D01*
X165400000Y-67812054D01*
X165773116Y-67737837D01*
X166089429Y-67526483D01*
X166300783Y-67210170D01*
X166375000Y-66837054D01*
X166375000Y-65762946D01*
X169505000Y-65762946D01*
X169505000Y-66837054D01*
X169579217Y-67210170D01*
X169790571Y-67526483D01*
X169967000Y-67644369D01*
X169967000Y-67795264D01*
X169938264Y-67823950D01*
X169837115Y-68067543D01*
X169836885Y-68331300D01*
X169937608Y-68575069D01*
X170123950Y-68761736D01*
X170367543Y-68862885D01*
X170631300Y-68863115D01*
X170875069Y-68762392D01*
X171061736Y-68576050D01*
X171162885Y-68332457D01*
X171163115Y-68068700D01*
X171062392Y-67824931D01*
X170993000Y-67755418D01*
X170993000Y-67644369D01*
X171169429Y-67526483D01*
X171380783Y-67210170D01*
X171455000Y-66837054D01*
X171455000Y-65762946D01*
X172045000Y-65762946D01*
X172045000Y-66837054D01*
X172119217Y-67210170D01*
X172330571Y-67526483D01*
X172507000Y-67644369D01*
X172507000Y-67955334D01*
X172438264Y-68023950D01*
X172337115Y-68267543D01*
X172336885Y-68531300D01*
X172437608Y-68775069D01*
X172623950Y-68961736D01*
X172867543Y-69062885D01*
X173131300Y-69063115D01*
X173375069Y-68962392D01*
X173561736Y-68776050D01*
X173662885Y-68532457D01*
X173663115Y-68268700D01*
X173562392Y-68024931D01*
X173533000Y-67995488D01*
X173533000Y-67644369D01*
X173709429Y-67526483D01*
X173920783Y-67210170D01*
X173995000Y-66837054D01*
X173995000Y-65762946D01*
X173920783Y-65389830D01*
X173709429Y-65073517D01*
X173393116Y-64862163D01*
X173020000Y-64787946D01*
X172646884Y-64862163D01*
X172330571Y-65073517D01*
X172119217Y-65389830D01*
X172045000Y-65762946D01*
X171455000Y-65762946D01*
X171380783Y-65389830D01*
X171169429Y-65073517D01*
X170853116Y-64862163D01*
X170480000Y-64787946D01*
X170106884Y-64862163D01*
X169790571Y-65073517D01*
X169579217Y-65389830D01*
X169505000Y-65762946D01*
X166375000Y-65762946D01*
X166300783Y-65389830D01*
X166089429Y-65073517D01*
X165773116Y-64862163D01*
X165400000Y-64787946D01*
X165026884Y-64862163D01*
X164710571Y-65073517D01*
X164499217Y-65389830D01*
X164425000Y-65762946D01*
X163835000Y-65762946D01*
X163760783Y-65389830D01*
X163549429Y-65073517D01*
X163233116Y-64862163D01*
X162860000Y-64787946D01*
X162486884Y-64862163D01*
X162170571Y-65073517D01*
X161959217Y-65389830D01*
X161885000Y-65762946D01*
X161295000Y-65762946D01*
X161220783Y-65389830D01*
X161009429Y-65073517D01*
X160693116Y-64862163D01*
X160320000Y-64787946D01*
X159946884Y-64862163D01*
X159630571Y-65073517D01*
X159419217Y-65389830D01*
X159345000Y-65762946D01*
X158755000Y-65762946D01*
X158680783Y-65389830D01*
X158469429Y-65073517D01*
X158153116Y-64862163D01*
X157780000Y-64787946D01*
X157406884Y-64862163D01*
X157090571Y-65073517D01*
X156879217Y-65389830D01*
X156805000Y-65762946D01*
X156215000Y-65762946D01*
X156140783Y-65389830D01*
X155929429Y-65073517D01*
X155613116Y-64862163D01*
X155240000Y-64787946D01*
X154866884Y-64862163D01*
X154550571Y-65073517D01*
X154339217Y-65389830D01*
X154265000Y-65762946D01*
X153675000Y-65762946D01*
X153600783Y-65389830D01*
X153389429Y-65073517D01*
X153073116Y-64862163D01*
X152700000Y-64787946D01*
X152326884Y-64862163D01*
X152010571Y-65073517D01*
X151799217Y-65389830D01*
X151725000Y-65762946D01*
X151135000Y-65762946D01*
X151060783Y-65389830D01*
X150849429Y-65073517D01*
X150533116Y-64862163D01*
X150160000Y-64787946D01*
X149786884Y-64862163D01*
X149470571Y-65073517D01*
X149259217Y-65389830D01*
X149185000Y-65762946D01*
X148595000Y-65762946D01*
X148520783Y-65389830D01*
X148309429Y-65073517D01*
X147993116Y-64862163D01*
X147620000Y-64787946D01*
X147246884Y-64862163D01*
X146930571Y-65073517D01*
X146719217Y-65389830D01*
X146645000Y-65762946D01*
X144361504Y-65762946D01*
X146236450Y-63888000D01*
X189863550Y-63888000D01*
X194712000Y-68736451D01*
M02*
