G04 #@! TF.GenerationSoftware,KiCad,Pcbnew,6.0.0-rc1-unknown-2c0fe8f~66~ubuntu18.04.1*
G04 #@! TF.CreationDate,2018-10-05T17:22:50-03:00*
G04 #@! TF.ProjectId,Balloon_bus,42616C6C6F6F6E5F6275732E6B696361,rev?*
G04 #@! TF.SameCoordinates,Original*
G04 #@! TF.FileFunction,Legend,Bot*
G04 #@! TF.FilePolarity,Positive*
%FSLAX46Y46*%
G04 Gerber Fmt 4.6, Leading zero omitted, Abs format (unit mm)*
G04 Created by KiCad (PCBNEW 6.0.0-rc1-unknown-2c0fe8f~66~ubuntu18.04.1) date Fri Oct  5 17:22:50 2018*
%MOMM*%
%LPD*%
G01*
G04 APERTURE LIST*
%ADD10C,0.150000*%
%ADD11C,0.101600*%
%ADD12C,0.127000*%
%ADD13C,0.120000*%
%ADD14C,0.081280*%
G04 APERTURE END LIST*
D10*
X126490476Y-148261904D02*
X125995238Y-148261904D01*
X126261904Y-148566666D01*
X126147619Y-148566666D01*
X126071428Y-148604761D01*
X126033333Y-148642857D01*
X125995238Y-148719047D01*
X125995238Y-148909523D01*
X126033333Y-148985714D01*
X126071428Y-149023809D01*
X126147619Y-149061904D01*
X126376190Y-149061904D01*
X126452380Y-149023809D01*
X126490476Y-148985714D01*
X125766666Y-148261904D02*
X125500000Y-149061904D01*
X125233333Y-148261904D01*
X125042857Y-148261904D02*
X124547619Y-148261904D01*
X124814285Y-148566666D01*
X124700000Y-148566666D01*
X124623809Y-148604761D01*
X124585714Y-148642857D01*
X124547619Y-148719047D01*
X124547619Y-148909523D01*
X124585714Y-148985714D01*
X124623809Y-149023809D01*
X124700000Y-149061904D01*
X124928571Y-149061904D01*
X125004761Y-149023809D01*
X125042857Y-148985714D01*
X116330476Y-148261904D02*
X115835238Y-148261904D01*
X116101904Y-148566666D01*
X115987619Y-148566666D01*
X115911428Y-148604761D01*
X115873333Y-148642857D01*
X115835238Y-148719047D01*
X115835238Y-148909523D01*
X115873333Y-148985714D01*
X115911428Y-149023809D01*
X115987619Y-149061904D01*
X116216190Y-149061904D01*
X116292380Y-149023809D01*
X116330476Y-148985714D01*
X115606666Y-148261904D02*
X115340000Y-149061904D01*
X115073333Y-148261904D01*
X114882857Y-148261904D02*
X114387619Y-148261904D01*
X114654285Y-148566666D01*
X114540000Y-148566666D01*
X114463809Y-148604761D01*
X114425714Y-148642857D01*
X114387619Y-148719047D01*
X114387619Y-148909523D01*
X114425714Y-148985714D01*
X114463809Y-149023809D01*
X114540000Y-149061904D01*
X114768571Y-149061904D01*
X114844761Y-149023809D01*
X114882857Y-148985714D01*
X121410476Y-148261904D02*
X120915238Y-148261904D01*
X121181904Y-148566666D01*
X121067619Y-148566666D01*
X120991428Y-148604761D01*
X120953333Y-148642857D01*
X120915238Y-148719047D01*
X120915238Y-148909523D01*
X120953333Y-148985714D01*
X120991428Y-149023809D01*
X121067619Y-149061904D01*
X121296190Y-149061904D01*
X121372380Y-149023809D01*
X121410476Y-148985714D01*
X120686666Y-148261904D02*
X120420000Y-149061904D01*
X120153333Y-148261904D01*
X119962857Y-148261904D02*
X119467619Y-148261904D01*
X119734285Y-148566666D01*
X119620000Y-148566666D01*
X119543809Y-148604761D01*
X119505714Y-148642857D01*
X119467619Y-148719047D01*
X119467619Y-148909523D01*
X119505714Y-148985714D01*
X119543809Y-149023809D01*
X119620000Y-149061904D01*
X119848571Y-149061904D01*
X119924761Y-149023809D01*
X119962857Y-148985714D01*
X185290476Y-149023809D02*
X185176190Y-149061904D01*
X184985714Y-149061904D01*
X184909523Y-149023809D01*
X184871428Y-148985714D01*
X184833333Y-148909523D01*
X184833333Y-148833333D01*
X184871428Y-148757142D01*
X184909523Y-148719047D01*
X184985714Y-148680952D01*
X185138095Y-148642857D01*
X185214285Y-148604761D01*
X185252380Y-148566666D01*
X185290476Y-148490476D01*
X185290476Y-148414285D01*
X185252380Y-148338095D01*
X185214285Y-148300000D01*
X185138095Y-148261904D01*
X184947619Y-148261904D01*
X184833333Y-148300000D01*
X184680952Y-149138095D02*
X184071428Y-149138095D01*
X183880952Y-149061904D02*
X183880952Y-148261904D01*
X183576190Y-148261904D01*
X183500000Y-148300000D01*
X183461904Y-148338095D01*
X183423809Y-148414285D01*
X183423809Y-148528571D01*
X183461904Y-148604761D01*
X183500000Y-148642857D01*
X183576190Y-148680952D01*
X183880952Y-148680952D01*
X183157142Y-148261904D02*
X182966666Y-149061904D01*
X182814285Y-148490476D01*
X182661904Y-149061904D01*
X182471428Y-148261904D01*
X181709523Y-149061904D02*
X181976190Y-148680952D01*
X182166666Y-149061904D02*
X182166666Y-148261904D01*
X181861904Y-148261904D01*
X181785714Y-148300000D01*
X181747619Y-148338095D01*
X181709523Y-148414285D01*
X181709523Y-148528571D01*
X181747619Y-148604761D01*
X181785714Y-148642857D01*
X181861904Y-148680952D01*
X182166666Y-148680952D01*
X179029523Y-148300000D02*
X179105714Y-148261904D01*
X179220000Y-148261904D01*
X179334285Y-148300000D01*
X179410476Y-148376190D01*
X179448571Y-148452380D01*
X179486666Y-148604761D01*
X179486666Y-148719047D01*
X179448571Y-148871428D01*
X179410476Y-148947619D01*
X179334285Y-149023809D01*
X179220000Y-149061904D01*
X179143809Y-149061904D01*
X179029523Y-149023809D01*
X178991428Y-148985714D01*
X178991428Y-148719047D01*
X179143809Y-148719047D01*
X178648571Y-149061904D02*
X178648571Y-148261904D01*
X178191428Y-149061904D01*
X178191428Y-148261904D01*
X177810476Y-149061904D02*
X177810476Y-148261904D01*
X177620000Y-148261904D01*
X177505714Y-148300000D01*
X177429523Y-148376190D01*
X177391428Y-148452380D01*
X177353333Y-148604761D01*
X177353333Y-148719047D01*
X177391428Y-148871428D01*
X177429523Y-148947619D01*
X177505714Y-149023809D01*
X177620000Y-149061904D01*
X177810476Y-149061904D01*
X168247619Y-149061904D02*
X168628571Y-149061904D01*
X168628571Y-148261904D01*
X167980952Y-149061904D02*
X167980952Y-148261904D01*
X167600000Y-149061904D02*
X167600000Y-148261904D01*
X167142857Y-149061904D01*
X167142857Y-148261904D01*
X166761904Y-148642857D02*
X166495238Y-148642857D01*
X166380952Y-149061904D02*
X166761904Y-149061904D01*
X166761904Y-148261904D01*
X166380952Y-148261904D01*
X166076190Y-148833333D02*
X165695238Y-148833333D01*
X166152380Y-149061904D02*
X165885714Y-148261904D01*
X165619047Y-149061904D01*
X164895238Y-149061904D02*
X165161904Y-148680952D01*
X165352380Y-149061904D02*
X165352380Y-148261904D01*
X165047619Y-148261904D01*
X164971428Y-148300000D01*
X164933333Y-148338095D01*
X164895238Y-148414285D01*
X164895238Y-148528571D01*
X164933333Y-148604761D01*
X164971428Y-148642857D01*
X165047619Y-148680952D01*
X165352380Y-148680952D01*
X164590476Y-148338095D02*
X164552380Y-148300000D01*
X164476190Y-148261904D01*
X164285714Y-148261904D01*
X164209523Y-148300000D01*
X164171428Y-148338095D01*
X164133333Y-148414285D01*
X164133333Y-148490476D01*
X164171428Y-148604761D01*
X164628571Y-149061904D01*
X164133333Y-149061904D01*
X173347619Y-149061904D02*
X173728571Y-149061904D01*
X173728571Y-148261904D01*
X173080952Y-149061904D02*
X173080952Y-148261904D01*
X172700000Y-149061904D02*
X172700000Y-148261904D01*
X172242857Y-149061904D01*
X172242857Y-148261904D01*
X171861904Y-148642857D02*
X171595238Y-148642857D01*
X171480952Y-149061904D02*
X171861904Y-149061904D01*
X171861904Y-148261904D01*
X171480952Y-148261904D01*
X171176190Y-148833333D02*
X170795238Y-148833333D01*
X171252380Y-149061904D02*
X170985714Y-148261904D01*
X170719047Y-149061904D01*
X169995238Y-149061904D02*
X170261904Y-148680952D01*
X170452380Y-149061904D02*
X170452380Y-148261904D01*
X170147619Y-148261904D01*
X170071428Y-148300000D01*
X170033333Y-148338095D01*
X169995238Y-148414285D01*
X169995238Y-148528571D01*
X170033333Y-148604761D01*
X170071428Y-148642857D01*
X170147619Y-148680952D01*
X170452380Y-148680952D01*
X169233333Y-149061904D02*
X169690476Y-149061904D01*
X169461904Y-149061904D02*
X169461904Y-148261904D01*
X169538095Y-148376190D01*
X169614285Y-148452380D01*
X169690476Y-148490476D01*
X161347619Y-149023809D02*
X161233333Y-149061904D01*
X161042857Y-149061904D01*
X160966666Y-149023809D01*
X160928571Y-148985714D01*
X160890476Y-148909523D01*
X160890476Y-148833333D01*
X160928571Y-148757142D01*
X160966666Y-148719047D01*
X161042857Y-148680952D01*
X161195238Y-148642857D01*
X161271428Y-148604761D01*
X161309523Y-148566666D01*
X161347619Y-148490476D01*
X161347619Y-148414285D01*
X161309523Y-148338095D01*
X161271428Y-148300000D01*
X161195238Y-148261904D01*
X161004761Y-148261904D01*
X160890476Y-148300000D01*
X160738095Y-149138095D02*
X160128571Y-149138095D01*
X159938095Y-149061904D02*
X159938095Y-148261904D01*
X159633333Y-148261904D01*
X159557142Y-148300000D01*
X159519047Y-148338095D01*
X159480952Y-148414285D01*
X159480952Y-148528571D01*
X159519047Y-148604761D01*
X159557142Y-148642857D01*
X159633333Y-148680952D01*
X159938095Y-148680952D01*
X159214285Y-148261904D02*
X159023809Y-149061904D01*
X158871428Y-148490476D01*
X158719047Y-149061904D01*
X158528571Y-148261904D01*
X158223809Y-149061904D02*
X158223809Y-148261904D01*
X157957142Y-148833333D01*
X157690476Y-148261904D01*
X157690476Y-149061904D01*
X156210476Y-149023809D02*
X156096190Y-149061904D01*
X155905714Y-149061904D01*
X155829523Y-149023809D01*
X155791428Y-148985714D01*
X155753333Y-148909523D01*
X155753333Y-148833333D01*
X155791428Y-148757142D01*
X155829523Y-148719047D01*
X155905714Y-148680952D01*
X156058095Y-148642857D01*
X156134285Y-148604761D01*
X156172380Y-148566666D01*
X156210476Y-148490476D01*
X156210476Y-148414285D01*
X156172380Y-148338095D01*
X156134285Y-148300000D01*
X156058095Y-148261904D01*
X155867619Y-148261904D01*
X155753333Y-148300000D01*
X155600952Y-149138095D02*
X154991428Y-149138095D01*
X154800952Y-149061904D02*
X154800952Y-148261904D01*
X154496190Y-148261904D01*
X154420000Y-148300000D01*
X154381904Y-148338095D01*
X154343809Y-148414285D01*
X154343809Y-148528571D01*
X154381904Y-148604761D01*
X154420000Y-148642857D01*
X154496190Y-148680952D01*
X154800952Y-148680952D01*
X154077142Y-148261904D02*
X153886666Y-149061904D01*
X153734285Y-148490476D01*
X153581904Y-149061904D01*
X153391428Y-148261904D01*
X152629523Y-149061904D02*
X152896190Y-148680952D01*
X153086666Y-149061904D02*
X153086666Y-148261904D01*
X152781904Y-148261904D01*
X152705714Y-148300000D01*
X152667619Y-148338095D01*
X152629523Y-148414285D01*
X152629523Y-148528571D01*
X152667619Y-148604761D01*
X152705714Y-148642857D01*
X152781904Y-148680952D01*
X153086666Y-148680952D01*
X149949523Y-148300000D02*
X150025714Y-148261904D01*
X150140000Y-148261904D01*
X150254285Y-148300000D01*
X150330476Y-148376190D01*
X150368571Y-148452380D01*
X150406666Y-148604761D01*
X150406666Y-148719047D01*
X150368571Y-148871428D01*
X150330476Y-148947619D01*
X150254285Y-149023809D01*
X150140000Y-149061904D01*
X150063809Y-149061904D01*
X149949523Y-149023809D01*
X149911428Y-148985714D01*
X149911428Y-148719047D01*
X150063809Y-148719047D01*
X149568571Y-149061904D02*
X149568571Y-148261904D01*
X149111428Y-149061904D01*
X149111428Y-148261904D01*
X148730476Y-149061904D02*
X148730476Y-148261904D01*
X148540000Y-148261904D01*
X148425714Y-148300000D01*
X148349523Y-148376190D01*
X148311428Y-148452380D01*
X148273333Y-148604761D01*
X148273333Y-148719047D01*
X148311428Y-148871428D01*
X148349523Y-148947619D01*
X148425714Y-149023809D01*
X148540000Y-149061904D01*
X148730476Y-149061904D01*
X134206666Y-149061904D02*
X134206666Y-148261904D01*
X133940000Y-148833333D01*
X133673333Y-148261904D01*
X133673333Y-149061904D01*
X133482857Y-149138095D02*
X132873333Y-149138095D01*
X132682857Y-149061904D02*
X132682857Y-148261904D01*
X132301904Y-149061904D02*
X132301904Y-148261904D01*
X131844761Y-149061904D01*
X131844761Y-148261904D01*
X131578095Y-148261904D02*
X131120952Y-148261904D01*
X131349523Y-149061904D02*
X131349523Y-148261904D01*
X130930476Y-148261904D02*
X130435238Y-148261904D01*
X130701904Y-148566666D01*
X130587619Y-148566666D01*
X130511428Y-148604761D01*
X130473333Y-148642857D01*
X130435238Y-148719047D01*
X130435238Y-148909523D01*
X130473333Y-148985714D01*
X130511428Y-149023809D01*
X130587619Y-149061904D01*
X130816190Y-149061904D01*
X130892380Y-149023809D01*
X130930476Y-148985714D01*
X139286666Y-149061904D02*
X139286666Y-148261904D01*
X139020000Y-148833333D01*
X138753333Y-148261904D01*
X138753333Y-149061904D01*
X138562857Y-149138095D02*
X137953333Y-149138095D01*
X137762857Y-149061904D02*
X137762857Y-148261904D01*
X137381904Y-149061904D02*
X137381904Y-148261904D01*
X136924761Y-149061904D01*
X136924761Y-148261904D01*
X136658095Y-148261904D02*
X136200952Y-148261904D01*
X136429523Y-149061904D02*
X136429523Y-148261904D01*
X135972380Y-148338095D02*
X135934285Y-148300000D01*
X135858095Y-148261904D01*
X135667619Y-148261904D01*
X135591428Y-148300000D01*
X135553333Y-148338095D01*
X135515238Y-148414285D01*
X135515238Y-148490476D01*
X135553333Y-148604761D01*
X136010476Y-149061904D01*
X135515238Y-149061904D01*
X144366666Y-149061904D02*
X144366666Y-148261904D01*
X144100000Y-148833333D01*
X143833333Y-148261904D01*
X143833333Y-149061904D01*
X143642857Y-149138095D02*
X143033333Y-149138095D01*
X142842857Y-149061904D02*
X142842857Y-148261904D01*
X142461904Y-149061904D02*
X142461904Y-148261904D01*
X142004761Y-149061904D01*
X142004761Y-148261904D01*
X141738095Y-148261904D02*
X141280952Y-148261904D01*
X141509523Y-149061904D02*
X141509523Y-148261904D01*
X140595238Y-149061904D02*
X141052380Y-149061904D01*
X140823809Y-149061904D02*
X140823809Y-148261904D01*
X140900000Y-148376190D01*
X140976190Y-148452380D01*
X141052380Y-148490476D01*
D11*
X161990798Y-57143347D02*
X161990798Y-55936847D01*
X161531179Y-55936847D01*
X161416274Y-55994300D01*
X161358821Y-56051752D01*
X161301369Y-56166657D01*
X161301369Y-56339014D01*
X161358821Y-56453919D01*
X161416274Y-56511371D01*
X161531179Y-56568823D01*
X161990798Y-56568823D01*
X160784298Y-57143347D02*
X160784298Y-56339014D01*
X160784298Y-56568823D02*
X160726845Y-56453919D01*
X160669393Y-56396466D01*
X160554488Y-56339014D01*
X160439583Y-56339014D01*
X159865060Y-57143347D02*
X159979964Y-57085895D01*
X160037417Y-57028442D01*
X160094869Y-56913538D01*
X160094869Y-56568823D01*
X160037417Y-56453919D01*
X159979964Y-56396466D01*
X159865060Y-56339014D01*
X159692702Y-56339014D01*
X159577798Y-56396466D01*
X159520345Y-56453919D01*
X159462893Y-56568823D01*
X159462893Y-56913538D01*
X159520345Y-57028442D01*
X159577798Y-57085895D01*
X159692702Y-57143347D01*
X159865060Y-57143347D01*
X159060726Y-56339014D02*
X158773464Y-57143347D01*
X158486202Y-56339014D02*
X158773464Y-57143347D01*
X158888369Y-57430609D01*
X158945821Y-57488061D01*
X159060726Y-57545514D01*
X157566964Y-57085895D02*
X157681869Y-57143347D01*
X157911679Y-57143347D01*
X158026583Y-57085895D01*
X158084036Y-56970990D01*
X158084036Y-56511371D01*
X158026583Y-56396466D01*
X157911679Y-56339014D01*
X157681869Y-56339014D01*
X157566964Y-56396466D01*
X157509512Y-56511371D01*
X157509512Y-56626276D01*
X158084036Y-56741180D01*
X156475369Y-57085895D02*
X156590274Y-57143347D01*
X156820083Y-57143347D01*
X156934988Y-57085895D01*
X156992440Y-57028442D01*
X157049893Y-56913538D01*
X157049893Y-56568823D01*
X156992440Y-56453919D01*
X156934988Y-56396466D01*
X156820083Y-56339014D01*
X156590274Y-56339014D01*
X156475369Y-56396466D01*
X156130655Y-56339014D02*
X155671036Y-56339014D01*
X155958298Y-55936847D02*
X155958298Y-56970990D01*
X155900845Y-57085895D01*
X155785940Y-57143347D01*
X155671036Y-57143347D01*
X155096512Y-57143347D02*
X155211417Y-57085895D01*
X155268869Y-57028442D01*
X155326321Y-56913538D01*
X155326321Y-56568823D01*
X155268869Y-56453919D01*
X155211417Y-56396466D01*
X155096512Y-56339014D01*
X154924155Y-56339014D01*
X154809250Y-56396466D01*
X154751798Y-56453919D01*
X154694345Y-56568823D01*
X154694345Y-56913538D01*
X154751798Y-57028442D01*
X154809250Y-57085895D01*
X154924155Y-57143347D01*
X155096512Y-57143347D01*
X153315488Y-57085895D02*
X153143131Y-57143347D01*
X152855869Y-57143347D01*
X152740964Y-57085895D01*
X152683512Y-57028442D01*
X152626060Y-56913538D01*
X152626060Y-56798633D01*
X152683512Y-56683728D01*
X152740964Y-56626276D01*
X152855869Y-56568823D01*
X153085679Y-56511371D01*
X153200583Y-56453919D01*
X153258036Y-56396466D01*
X153315488Y-56281561D01*
X153315488Y-56166657D01*
X153258036Y-56051752D01*
X153200583Y-55994300D01*
X153085679Y-55936847D01*
X152798417Y-55936847D01*
X152626060Y-55994300D01*
X152108988Y-55936847D02*
X152108988Y-56913538D01*
X152051536Y-57028442D01*
X151994083Y-57085895D01*
X151879179Y-57143347D01*
X151649369Y-57143347D01*
X151534464Y-57085895D01*
X151477012Y-57028442D01*
X151419560Y-56913538D01*
X151419560Y-55936847D01*
X150155607Y-57028442D02*
X150213060Y-57085895D01*
X150385417Y-57143347D01*
X150500321Y-57143347D01*
X150672679Y-57085895D01*
X150787583Y-56970990D01*
X150845036Y-56856085D01*
X150902488Y-56626276D01*
X150902488Y-56453919D01*
X150845036Y-56224109D01*
X150787583Y-56109204D01*
X150672679Y-55994300D01*
X150500321Y-55936847D01*
X150385417Y-55936847D01*
X150213060Y-55994300D01*
X150155607Y-56051752D01*
X149638536Y-57143347D02*
X149638536Y-55936847D01*
X149121464Y-57143347D02*
X149121464Y-56511371D01*
X149178917Y-56396466D01*
X149293821Y-56339014D01*
X149466179Y-56339014D01*
X149581083Y-56396466D01*
X149638536Y-56453919D01*
X148604393Y-56798633D02*
X148029869Y-56798633D01*
X148719298Y-57143347D02*
X148317131Y-55936847D01*
X147914964Y-57143347D01*
X147512798Y-57143347D02*
X147512798Y-55936847D01*
X146019036Y-56683728D02*
X145099798Y-56683728D01*
X143606036Y-57143347D02*
X143606036Y-55936847D01*
X143146417Y-55936847D01*
X143031512Y-55994300D01*
X142974060Y-56051752D01*
X142916607Y-56166657D01*
X142916607Y-56339014D01*
X142974060Y-56453919D01*
X143031512Y-56511371D01*
X143146417Y-56568823D01*
X143606036Y-56568823D01*
X141882464Y-57143347D02*
X141882464Y-56511371D01*
X141939917Y-56396466D01*
X142054821Y-56339014D01*
X142284631Y-56339014D01*
X142399536Y-56396466D01*
X141882464Y-57085895D02*
X141997369Y-57143347D01*
X142284631Y-57143347D01*
X142399536Y-57085895D01*
X142456988Y-56970990D01*
X142456988Y-56856085D01*
X142399536Y-56741180D01*
X142284631Y-56683728D01*
X141997369Y-56683728D01*
X141882464Y-56626276D01*
X141422845Y-56339014D02*
X141135583Y-57143347D01*
X140848321Y-56339014D02*
X141135583Y-57143347D01*
X141250488Y-57430609D01*
X141307940Y-57488061D01*
X141422845Y-57545514D01*
X140216345Y-57143347D02*
X140331250Y-57085895D01*
X140388702Y-56970990D01*
X140388702Y-55936847D01*
X139584369Y-57143347D02*
X139699274Y-57085895D01*
X139756726Y-57028442D01*
X139814179Y-56913538D01*
X139814179Y-56568823D01*
X139756726Y-56453919D01*
X139699274Y-56396466D01*
X139584369Y-56339014D01*
X139412012Y-56339014D01*
X139297107Y-56396466D01*
X139239655Y-56453919D01*
X139182202Y-56568823D01*
X139182202Y-56913538D01*
X139239655Y-57028442D01*
X139297107Y-57085895D01*
X139412012Y-57143347D01*
X139584369Y-57143347D01*
X138148060Y-57143347D02*
X138148060Y-56511371D01*
X138205512Y-56396466D01*
X138320417Y-56339014D01*
X138550226Y-56339014D01*
X138665131Y-56396466D01*
X138148060Y-57085895D02*
X138262964Y-57143347D01*
X138550226Y-57143347D01*
X138665131Y-57085895D01*
X138722583Y-56970990D01*
X138722583Y-56856085D01*
X138665131Y-56741180D01*
X138550226Y-56683728D01*
X138262964Y-56683728D01*
X138148060Y-56626276D01*
X137056464Y-57143347D02*
X137056464Y-55936847D01*
X137056464Y-57085895D02*
X137171369Y-57143347D01*
X137401179Y-57143347D01*
X137516083Y-57085895D01*
X137573536Y-57028442D01*
X137630988Y-56913538D01*
X137630988Y-56568823D01*
X137573536Y-56453919D01*
X137516083Y-56396466D01*
X137401179Y-56339014D01*
X137171369Y-56339014D01*
X137056464Y-56396466D01*
X136539393Y-57085895D02*
X136424488Y-57143347D01*
X136194679Y-57143347D01*
X136079774Y-57085895D01*
X136022321Y-56970990D01*
X136022321Y-56913538D01*
X136079774Y-56798633D01*
X136194679Y-56741180D01*
X136367036Y-56741180D01*
X136481940Y-56683728D01*
X136539393Y-56568823D01*
X136539393Y-56511371D01*
X136481940Y-56396466D01*
X136367036Y-56339014D01*
X136194679Y-56339014D01*
X136079774Y-56396466D01*
X134586012Y-56683728D02*
X133666774Y-56683728D01*
X132345369Y-55936847D02*
X131943202Y-57143347D01*
X131541036Y-55936847D01*
X130506893Y-57143347D02*
X131196321Y-57143347D01*
X130851607Y-57143347D02*
X130851607Y-55936847D01*
X130966512Y-56109204D01*
X131081417Y-56224109D01*
X131196321Y-56281561D01*
X130047274Y-56051752D02*
X129989821Y-55994300D01*
X129874917Y-55936847D01*
X129587655Y-55936847D01*
X129472750Y-55994300D01*
X129415298Y-56051752D01*
X129357845Y-56166657D01*
X129357845Y-56281561D01*
X129415298Y-56453919D01*
X130104726Y-57143347D01*
X129357845Y-57143347D01*
D12*
G04 #@! TO.C,PCB2*
X175256800Y-113501800D02*
X123756800Y-113501800D01*
X123756800Y-113501800D02*
X123756800Y-109501800D01*
X123756800Y-109501800D02*
X124756800Y-108501800D01*
X124756800Y-108501800D02*
X175256800Y-108501800D01*
X175256800Y-108501800D02*
X175256800Y-113501800D01*
X119617800Y-92500000D02*
X119617800Y-97500000D01*
X119617800Y-97500000D02*
X122617800Y-97500000D01*
X122617800Y-97500000D02*
X122617800Y-92500000D01*
X119617800Y-81500000D02*
X119617800Y-75500000D01*
X119617800Y-75500000D02*
X122617800Y-75500000D01*
X122617800Y-75500000D02*
X122617800Y-81500000D01*
X123617800Y-58600000D02*
X123617800Y-63500000D01*
X123617800Y-63500000D02*
X131617800Y-63500000D01*
X131617800Y-63500000D02*
X131617800Y-58600000D01*
X141017800Y-58600000D02*
X141017800Y-69500000D01*
X141017800Y-69500000D02*
X156017800Y-69500000D01*
X156017800Y-69500000D02*
X156017800Y-58600000D01*
X164017800Y-64000000D02*
X164017800Y-59000000D01*
X164017800Y-59000000D02*
X161017800Y-59000000D01*
X161017800Y-59000000D02*
X161017800Y-64000000D01*
X164017800Y-75000000D02*
X164017800Y-81000000D01*
X164017800Y-81000000D02*
X161017800Y-81000000D01*
X161017800Y-81000000D02*
X161017800Y-75000000D01*
X167017800Y-58600000D02*
X167017800Y-71000000D01*
X167017800Y-71000000D02*
X174017800Y-71000000D01*
X174017800Y-71000000D02*
X174017800Y-58600000D01*
X201717800Y-60800000D02*
X183017800Y-60800000D01*
X183017800Y-60800000D02*
X183017800Y-76800000D01*
X183017800Y-76800000D02*
X201817800Y-76800000D01*
X201817800Y-80500000D02*
X187017800Y-80500000D01*
X187017800Y-80500000D02*
X187017800Y-93500000D01*
X187017800Y-93500000D02*
X201817800Y-93500000D01*
X201617800Y-112500000D02*
X187017800Y-112500000D01*
X187017800Y-112500000D02*
X187017800Y-99500000D01*
X187017800Y-99500000D02*
X201817800Y-99500000D01*
X117617800Y-101000000D02*
X119617800Y-101000000D01*
X119617800Y-101000000D02*
X119617800Y-106250000D01*
X119617800Y-106250000D02*
X117617800Y-106250000D01*
X117617800Y-106250000D02*
X117617800Y-101000000D01*
D13*
G04 #@! TO.C,J4*
X186040000Y-149310000D02*
X175880000Y-149310000D01*
X186040000Y-141690000D02*
X186040000Y-149310000D01*
X175880000Y-141690000D02*
X186040000Y-141690000D01*
X175880000Y-149310000D02*
X175880000Y-141690000D01*
X175880000Y-148040000D02*
X186040000Y-148040000D01*
G04 #@! TO.C,J1*
X128040000Y-149310000D02*
X128040000Y-141690000D01*
X112800000Y-149310000D02*
X112800000Y-141690000D01*
X128040000Y-148040000D02*
X112800000Y-148040000D01*
X128040000Y-141690000D02*
X112800000Y-141690000D01*
X128040000Y-149310000D02*
X112800000Y-149310000D01*
G04 #@! TO.C,J2*
X145040000Y-149310000D02*
X129800000Y-149310000D01*
X145040000Y-141690000D02*
X129800000Y-141690000D01*
X145040000Y-148040000D02*
X129800000Y-148040000D01*
X129800000Y-149310000D02*
X129800000Y-141690000D01*
X145040000Y-149310000D02*
X145040000Y-141690000D01*
G04 #@! TO.C,J3*
X162040000Y-149310000D02*
X162040000Y-141690000D01*
X146800000Y-149310000D02*
X146800000Y-141690000D01*
X162040000Y-148040000D02*
X146800000Y-148040000D01*
X162040000Y-141690000D02*
X146800000Y-141690000D01*
X162040000Y-149310000D02*
X146800000Y-149310000D01*
G04 #@! TO.C,J5*
X174040000Y-149310000D02*
X163880000Y-149310000D01*
X174040000Y-141690000D02*
X174040000Y-149310000D01*
X163880000Y-141690000D02*
X174040000Y-141690000D01*
X163880000Y-149310000D02*
X163880000Y-141690000D01*
X163880000Y-148040000D02*
X174040000Y-148040000D01*
G04 #@! TO.C,PCB2*
D14*
X129817358Y-61354038D02*
X129817358Y-60388838D01*
X129449663Y-60388838D01*
X129357739Y-60434800D01*
X129311777Y-60480761D01*
X129265815Y-60572685D01*
X129265815Y-60710571D01*
X129311777Y-60802495D01*
X129357739Y-60848457D01*
X129449663Y-60894419D01*
X129817358Y-60894419D01*
X128944082Y-60388838D02*
X128714272Y-61354038D01*
X128530425Y-60664609D01*
X128346577Y-61354038D01*
X128116768Y-60388838D01*
X127197529Y-61354038D02*
X127519263Y-60894419D01*
X127749072Y-61354038D02*
X127749072Y-60388838D01*
X127381377Y-60388838D01*
X127289453Y-60434800D01*
X127243491Y-60480761D01*
X127197529Y-60572685D01*
X127197529Y-60710571D01*
X127243491Y-60802495D01*
X127289453Y-60848457D01*
X127381377Y-60894419D01*
X127749072Y-60894419D01*
X126048482Y-61354038D02*
X126048482Y-60388838D01*
X125588863Y-61354038D02*
X125588863Y-60388838D01*
X125037320Y-61354038D01*
X125037320Y-60388838D01*
G04 #@! TO.C,J4*
D10*
X181293333Y-140552380D02*
X181293333Y-141266666D01*
X181340952Y-141409523D01*
X181436190Y-141504761D01*
X181579047Y-141552380D01*
X181674285Y-141552380D01*
X180388571Y-140885714D02*
X180388571Y-141552380D01*
X180626666Y-140504761D02*
X180864761Y-141219047D01*
X180245714Y-141219047D01*
G04 #@! TO.C,J1*
X120783333Y-140302380D02*
X120783333Y-141016666D01*
X120830952Y-141159523D01*
X120926190Y-141254761D01*
X121069047Y-141302380D01*
X121164285Y-141302380D01*
X119783333Y-141302380D02*
X120354761Y-141302380D01*
X120069047Y-141302380D02*
X120069047Y-140302380D01*
X120164285Y-140445238D01*
X120259523Y-140540476D01*
X120354761Y-140588095D01*
G04 #@! TO.C,J2*
X137783333Y-140302380D02*
X137783333Y-141016666D01*
X137830952Y-141159523D01*
X137926190Y-141254761D01*
X138069047Y-141302380D01*
X138164285Y-141302380D01*
X137354761Y-140397619D02*
X137307142Y-140350000D01*
X137211904Y-140302380D01*
X136973809Y-140302380D01*
X136878571Y-140350000D01*
X136830952Y-140397619D01*
X136783333Y-140492857D01*
X136783333Y-140588095D01*
X136830952Y-140730952D01*
X137402380Y-141302380D01*
X136783333Y-141302380D01*
G04 #@! TO.C,J3*
X154783333Y-140302380D02*
X154783333Y-141016666D01*
X154830952Y-141159523D01*
X154926190Y-141254761D01*
X155069047Y-141302380D01*
X155164285Y-141302380D01*
X154402380Y-140302380D02*
X153783333Y-140302380D01*
X154116666Y-140683333D01*
X153973809Y-140683333D01*
X153878571Y-140730952D01*
X153830952Y-140778571D01*
X153783333Y-140873809D01*
X153783333Y-141111904D01*
X153830952Y-141207142D01*
X153878571Y-141254761D01*
X153973809Y-141302380D01*
X154259523Y-141302380D01*
X154354761Y-141254761D01*
X154402380Y-141207142D01*
G04 #@! TO.C,J5*
X169293333Y-139872380D02*
X169293333Y-140586666D01*
X169340952Y-140729523D01*
X169436190Y-140824761D01*
X169579047Y-140872380D01*
X169674285Y-140872380D01*
X168340952Y-139872380D02*
X168817142Y-139872380D01*
X168864761Y-140348571D01*
X168817142Y-140300952D01*
X168721904Y-140253333D01*
X168483809Y-140253333D01*
X168388571Y-140300952D01*
X168340952Y-140348571D01*
X168293333Y-140443809D01*
X168293333Y-140681904D01*
X168340952Y-140777142D01*
X168388571Y-140824761D01*
X168483809Y-140872380D01*
X168721904Y-140872380D01*
X168817142Y-140824761D01*
X168864761Y-140777142D01*
G04 #@! TD*
M02*
