G04 #@! TF.GenerationSoftware,KiCad,Pcbnew,no-vcs-found-0ee38bc~61~ubuntu17.04.1*
G04 #@! TF.CreationDate,2018-06-06T16:24:28-04:00*
G04 #@! TF.ProjectId,Balloon_bus,42616C6C6F6F6E5F6275732E6B696361,rev?*
G04 #@! TF.SameCoordinates,Original*
G04 #@! TF.FileFunction,Legend,Bot*
G04 #@! TF.FilePolarity,Positive*
%FSLAX46Y46*%
G04 Gerber Fmt 4.6, Leading zero omitted, Abs format (unit mm)*
G04 Created by KiCad (PCBNEW no-vcs-found-0ee38bc~61~ubuntu17.04.1) date Wed Jun  6 16:24:28 2018*
%MOMM*%
%LPD*%
G01*
G04 APERTURE LIST*
%ADD10C,0.101600*%
%ADD11C,0.120000*%
%ADD12C,0.127000*%
%ADD13C,0.150000*%
%ADD14C,0.081280*%
%ADD15C,0.142240*%
%ADD16C,0.065024*%
G04 APERTURE END LIST*
D10*
X161990798Y-57143347D02*
X161990798Y-55936847D01*
X161531179Y-55936847D01*
X161416274Y-55994300D01*
X161358821Y-56051752D01*
X161301369Y-56166657D01*
X161301369Y-56339014D01*
X161358821Y-56453919D01*
X161416274Y-56511371D01*
X161531179Y-56568823D01*
X161990798Y-56568823D01*
X160784298Y-57143347D02*
X160784298Y-56339014D01*
X160784298Y-56568823D02*
X160726845Y-56453919D01*
X160669393Y-56396466D01*
X160554488Y-56339014D01*
X160439583Y-56339014D01*
X159865060Y-57143347D02*
X159979964Y-57085895D01*
X160037417Y-57028442D01*
X160094869Y-56913538D01*
X160094869Y-56568823D01*
X160037417Y-56453919D01*
X159979964Y-56396466D01*
X159865060Y-56339014D01*
X159692702Y-56339014D01*
X159577798Y-56396466D01*
X159520345Y-56453919D01*
X159462893Y-56568823D01*
X159462893Y-56913538D01*
X159520345Y-57028442D01*
X159577798Y-57085895D01*
X159692702Y-57143347D01*
X159865060Y-57143347D01*
X159060726Y-56339014D02*
X158773464Y-57143347D01*
X158486202Y-56339014D02*
X158773464Y-57143347D01*
X158888369Y-57430609D01*
X158945821Y-57488061D01*
X159060726Y-57545514D01*
X157566964Y-57085895D02*
X157681869Y-57143347D01*
X157911679Y-57143347D01*
X158026583Y-57085895D01*
X158084036Y-56970990D01*
X158084036Y-56511371D01*
X158026583Y-56396466D01*
X157911679Y-56339014D01*
X157681869Y-56339014D01*
X157566964Y-56396466D01*
X157509512Y-56511371D01*
X157509512Y-56626276D01*
X158084036Y-56741180D01*
X156475369Y-57085895D02*
X156590274Y-57143347D01*
X156820083Y-57143347D01*
X156934988Y-57085895D01*
X156992440Y-57028442D01*
X157049893Y-56913538D01*
X157049893Y-56568823D01*
X156992440Y-56453919D01*
X156934988Y-56396466D01*
X156820083Y-56339014D01*
X156590274Y-56339014D01*
X156475369Y-56396466D01*
X156130655Y-56339014D02*
X155671036Y-56339014D01*
X155958298Y-55936847D02*
X155958298Y-56970990D01*
X155900845Y-57085895D01*
X155785940Y-57143347D01*
X155671036Y-57143347D01*
X155096512Y-57143347D02*
X155211417Y-57085895D01*
X155268869Y-57028442D01*
X155326321Y-56913538D01*
X155326321Y-56568823D01*
X155268869Y-56453919D01*
X155211417Y-56396466D01*
X155096512Y-56339014D01*
X154924155Y-56339014D01*
X154809250Y-56396466D01*
X154751798Y-56453919D01*
X154694345Y-56568823D01*
X154694345Y-56913538D01*
X154751798Y-57028442D01*
X154809250Y-57085895D01*
X154924155Y-57143347D01*
X155096512Y-57143347D01*
X153315488Y-57085895D02*
X153143131Y-57143347D01*
X152855869Y-57143347D01*
X152740964Y-57085895D01*
X152683512Y-57028442D01*
X152626060Y-56913538D01*
X152626060Y-56798633D01*
X152683512Y-56683728D01*
X152740964Y-56626276D01*
X152855869Y-56568823D01*
X153085679Y-56511371D01*
X153200583Y-56453919D01*
X153258036Y-56396466D01*
X153315488Y-56281561D01*
X153315488Y-56166657D01*
X153258036Y-56051752D01*
X153200583Y-55994300D01*
X153085679Y-55936847D01*
X152798417Y-55936847D01*
X152626060Y-55994300D01*
X152108988Y-55936847D02*
X152108988Y-56913538D01*
X152051536Y-57028442D01*
X151994083Y-57085895D01*
X151879179Y-57143347D01*
X151649369Y-57143347D01*
X151534464Y-57085895D01*
X151477012Y-57028442D01*
X151419560Y-56913538D01*
X151419560Y-55936847D01*
X150155607Y-57028442D02*
X150213060Y-57085895D01*
X150385417Y-57143347D01*
X150500321Y-57143347D01*
X150672679Y-57085895D01*
X150787583Y-56970990D01*
X150845036Y-56856085D01*
X150902488Y-56626276D01*
X150902488Y-56453919D01*
X150845036Y-56224109D01*
X150787583Y-56109204D01*
X150672679Y-55994300D01*
X150500321Y-55936847D01*
X150385417Y-55936847D01*
X150213060Y-55994300D01*
X150155607Y-56051752D01*
X149638536Y-57143347D02*
X149638536Y-55936847D01*
X149121464Y-57143347D02*
X149121464Y-56511371D01*
X149178917Y-56396466D01*
X149293821Y-56339014D01*
X149466179Y-56339014D01*
X149581083Y-56396466D01*
X149638536Y-56453919D01*
X148604393Y-56798633D02*
X148029869Y-56798633D01*
X148719298Y-57143347D02*
X148317131Y-55936847D01*
X147914964Y-57143347D01*
X147512798Y-57143347D02*
X147512798Y-55936847D01*
X146019036Y-56683728D02*
X145099798Y-56683728D01*
X143606036Y-57143347D02*
X143606036Y-55936847D01*
X143146417Y-55936847D01*
X143031512Y-55994300D01*
X142974060Y-56051752D01*
X142916607Y-56166657D01*
X142916607Y-56339014D01*
X142974060Y-56453919D01*
X143031512Y-56511371D01*
X143146417Y-56568823D01*
X143606036Y-56568823D01*
X141882464Y-57143347D02*
X141882464Y-56511371D01*
X141939917Y-56396466D01*
X142054821Y-56339014D01*
X142284631Y-56339014D01*
X142399536Y-56396466D01*
X141882464Y-57085895D02*
X141997369Y-57143347D01*
X142284631Y-57143347D01*
X142399536Y-57085895D01*
X142456988Y-56970990D01*
X142456988Y-56856085D01*
X142399536Y-56741180D01*
X142284631Y-56683728D01*
X141997369Y-56683728D01*
X141882464Y-56626276D01*
X141422845Y-56339014D02*
X141135583Y-57143347D01*
X140848321Y-56339014D02*
X141135583Y-57143347D01*
X141250488Y-57430609D01*
X141307940Y-57488061D01*
X141422845Y-57545514D01*
X140216345Y-57143347D02*
X140331250Y-57085895D01*
X140388702Y-56970990D01*
X140388702Y-55936847D01*
X139584369Y-57143347D02*
X139699274Y-57085895D01*
X139756726Y-57028442D01*
X139814179Y-56913538D01*
X139814179Y-56568823D01*
X139756726Y-56453919D01*
X139699274Y-56396466D01*
X139584369Y-56339014D01*
X139412012Y-56339014D01*
X139297107Y-56396466D01*
X139239655Y-56453919D01*
X139182202Y-56568823D01*
X139182202Y-56913538D01*
X139239655Y-57028442D01*
X139297107Y-57085895D01*
X139412012Y-57143347D01*
X139584369Y-57143347D01*
X138148060Y-57143347D02*
X138148060Y-56511371D01*
X138205512Y-56396466D01*
X138320417Y-56339014D01*
X138550226Y-56339014D01*
X138665131Y-56396466D01*
X138148060Y-57085895D02*
X138262964Y-57143347D01*
X138550226Y-57143347D01*
X138665131Y-57085895D01*
X138722583Y-56970990D01*
X138722583Y-56856085D01*
X138665131Y-56741180D01*
X138550226Y-56683728D01*
X138262964Y-56683728D01*
X138148060Y-56626276D01*
X137056464Y-57143347D02*
X137056464Y-55936847D01*
X137056464Y-57085895D02*
X137171369Y-57143347D01*
X137401179Y-57143347D01*
X137516083Y-57085895D01*
X137573536Y-57028442D01*
X137630988Y-56913538D01*
X137630988Y-56568823D01*
X137573536Y-56453919D01*
X137516083Y-56396466D01*
X137401179Y-56339014D01*
X137171369Y-56339014D01*
X137056464Y-56396466D01*
X136539393Y-57085895D02*
X136424488Y-57143347D01*
X136194679Y-57143347D01*
X136079774Y-57085895D01*
X136022321Y-56970990D01*
X136022321Y-56913538D01*
X136079774Y-56798633D01*
X136194679Y-56741180D01*
X136367036Y-56741180D01*
X136481940Y-56683728D01*
X136539393Y-56568823D01*
X136539393Y-56511371D01*
X136481940Y-56396466D01*
X136367036Y-56339014D01*
X136194679Y-56339014D01*
X136079774Y-56396466D01*
X134586012Y-56683728D02*
X133666774Y-56683728D01*
X132345369Y-55936847D02*
X131943202Y-57143347D01*
X131541036Y-55936847D01*
X130506893Y-57143347D02*
X131196321Y-57143347D01*
X130851607Y-57143347D02*
X130851607Y-55936847D01*
X130966512Y-56109204D01*
X131081417Y-56224109D01*
X131196321Y-56281561D01*
X130047274Y-56051752D02*
X129989821Y-55994300D01*
X129874917Y-55936847D01*
X129587655Y-55936847D01*
X129472750Y-55994300D01*
X129415298Y-56051752D01*
X129357845Y-56166657D01*
X129357845Y-56281561D01*
X129415298Y-56453919D01*
X130104726Y-57143347D01*
X129357845Y-57143347D01*
D11*
X186040000Y-149310000D02*
X175880000Y-149310000D01*
X186040000Y-141690000D02*
X186040000Y-149310000D01*
X175880000Y-141690000D02*
X186040000Y-141690000D01*
X175880000Y-149310000D02*
X175880000Y-141690000D01*
X175880000Y-148040000D02*
X186040000Y-148040000D01*
D12*
X117617800Y-106250000D02*
X117617800Y-101000000D01*
X119617800Y-106250000D02*
X117617800Y-106250000D01*
X119617800Y-101000000D02*
X119617800Y-106250000D01*
X117617800Y-101000000D02*
X119617800Y-101000000D01*
X187017800Y-99500000D02*
X201817800Y-99500000D01*
X187017800Y-112500000D02*
X187017800Y-99500000D01*
X201617800Y-112500000D02*
X187017800Y-112500000D01*
X187017800Y-93500000D02*
X201817800Y-93500000D01*
X187017800Y-80500000D02*
X187017800Y-93500000D01*
X201817800Y-80500000D02*
X187017800Y-80500000D01*
X183017800Y-76800000D02*
X201817800Y-76800000D01*
X183017800Y-60800000D02*
X183017800Y-76800000D01*
X201717800Y-60800000D02*
X183017800Y-60800000D01*
X174017800Y-71000000D02*
X174017800Y-58600000D01*
X167017800Y-71000000D02*
X174017800Y-71000000D01*
X167017800Y-58600000D02*
X167017800Y-71000000D01*
X161017800Y-81000000D02*
X161017800Y-75000000D01*
X164017800Y-81000000D02*
X161017800Y-81000000D01*
X164017800Y-75000000D02*
X164017800Y-81000000D01*
X161017800Y-59000000D02*
X161017800Y-64000000D01*
X164017800Y-59000000D02*
X161017800Y-59000000D01*
X164017800Y-64000000D02*
X164017800Y-59000000D01*
X156017800Y-69500000D02*
X156017800Y-58600000D01*
X141017800Y-69500000D02*
X156017800Y-69500000D01*
X141017800Y-58600000D02*
X141017800Y-69500000D01*
X131617800Y-63500000D02*
X131617800Y-58600000D01*
X123617800Y-63500000D02*
X131617800Y-63500000D01*
X123617800Y-58600000D02*
X123617800Y-63500000D01*
X122617800Y-75500000D02*
X122617800Y-81500000D01*
X119617800Y-75500000D02*
X122617800Y-75500000D01*
X119617800Y-81500000D02*
X119617800Y-75500000D01*
X122617800Y-97500000D02*
X122617800Y-92500000D01*
X119617800Y-97500000D02*
X122617800Y-97500000D01*
X119617800Y-92500000D02*
X119617800Y-97500000D01*
X175256800Y-108501800D02*
X175256800Y-113501800D01*
X124756800Y-108501800D02*
X175256800Y-108501800D01*
X123756800Y-109501800D02*
X124756800Y-108501800D01*
X123756800Y-113501800D02*
X123756800Y-109501800D01*
X175256800Y-113501800D02*
X123756800Y-113501800D01*
D11*
X128040000Y-149310000D02*
X128040000Y-141690000D01*
X112800000Y-149310000D02*
X112800000Y-141690000D01*
X128040000Y-148040000D02*
X112800000Y-148040000D01*
X128040000Y-141690000D02*
X112800000Y-141690000D01*
X128040000Y-149310000D02*
X112800000Y-149310000D01*
X145040000Y-149310000D02*
X129800000Y-149310000D01*
X145040000Y-141690000D02*
X129800000Y-141690000D01*
X145040000Y-148040000D02*
X129800000Y-148040000D01*
X129800000Y-149310000D02*
X129800000Y-141690000D01*
X145040000Y-149310000D02*
X145040000Y-141690000D01*
X162040000Y-149310000D02*
X162040000Y-141690000D01*
X146800000Y-149310000D02*
X146800000Y-141690000D01*
X162040000Y-148040000D02*
X146800000Y-148040000D01*
X162040000Y-141690000D02*
X146800000Y-141690000D01*
X162040000Y-149310000D02*
X146800000Y-149310000D01*
X174040000Y-149310000D02*
X163880000Y-149310000D01*
X174040000Y-141690000D02*
X174040000Y-149310000D01*
X163880000Y-141690000D02*
X174040000Y-141690000D01*
X163880000Y-149310000D02*
X163880000Y-141690000D01*
X163880000Y-148040000D02*
X174040000Y-148040000D01*
D13*
X181293333Y-139872380D02*
X181293333Y-140586666D01*
X181340952Y-140729523D01*
X181436190Y-140824761D01*
X181579047Y-140872380D01*
X181674285Y-140872380D01*
X180388571Y-140205714D02*
X180388571Y-140872380D01*
X180626666Y-139824761D02*
X180864761Y-140539047D01*
X180245714Y-140539047D01*
D14*
X120451033Y-106307420D02*
X120451033Y-105847801D01*
X120175261Y-106399344D02*
X121140461Y-106077610D01*
X120175261Y-105755877D01*
X120175261Y-105434144D02*
X121140461Y-105434144D01*
X120175261Y-104882601D01*
X121140461Y-104882601D01*
X121140461Y-104560868D02*
X121140461Y-104009325D01*
X120175261Y-104285096D02*
X121140461Y-104285096D01*
X120680842Y-103687591D02*
X120680842Y-103365858D01*
X120175261Y-103227972D02*
X120175261Y-103687591D01*
X121140461Y-103687591D01*
X121140461Y-103227972D01*
X120175261Y-102814315D02*
X121140461Y-102814315D01*
X120175261Y-102262772D01*
X121140461Y-102262772D01*
X120175261Y-101803153D02*
X121140461Y-101803153D01*
X120175261Y-101251610D01*
X121140461Y-101251610D01*
X120451033Y-100837953D02*
X120451033Y-100378334D01*
X120175261Y-100929877D02*
X121140461Y-100608144D01*
X120175261Y-100286410D01*
D15*
X168923377Y-106997066D02*
X169486410Y-106192733D01*
X169888577Y-106997066D02*
X169888577Y-105307966D01*
X169245110Y-105307966D01*
X169084244Y-105388400D01*
X169003810Y-105468833D01*
X168923377Y-105629700D01*
X168923377Y-105871000D01*
X169003810Y-106031866D01*
X169084244Y-106112300D01*
X169245110Y-106192733D01*
X169888577Y-106192733D01*
X167475577Y-106997066D02*
X167475577Y-106112300D01*
X167556010Y-105951433D01*
X167716877Y-105871000D01*
X168038610Y-105871000D01*
X168199477Y-105951433D01*
X167475577Y-106916633D02*
X167636444Y-106997066D01*
X168038610Y-106997066D01*
X168199477Y-106916633D01*
X168279910Y-106755766D01*
X168279910Y-106594900D01*
X168199477Y-106434033D01*
X168038610Y-106353600D01*
X167636444Y-106353600D01*
X167475577Y-106273166D01*
X166751677Y-106916633D02*
X166590810Y-106997066D01*
X166269077Y-106997066D01*
X166108210Y-106916633D01*
X166027777Y-106755766D01*
X166027777Y-106675333D01*
X166108210Y-106514466D01*
X166269077Y-106434033D01*
X166510377Y-106434033D01*
X166671244Y-106353600D01*
X166751677Y-106192733D01*
X166751677Y-106112300D01*
X166671244Y-105951433D01*
X166510377Y-105871000D01*
X166269077Y-105871000D01*
X166108210Y-105951433D01*
X165303877Y-105871000D02*
X165303877Y-107560100D01*
X165303877Y-105951433D02*
X165143010Y-105871000D01*
X164821277Y-105871000D01*
X164660410Y-105951433D01*
X164579977Y-106031866D01*
X164499544Y-106192733D01*
X164499544Y-106675333D01*
X164579977Y-106836200D01*
X164660410Y-106916633D01*
X164821277Y-106997066D01*
X165143010Y-106997066D01*
X165303877Y-106916633D01*
X163775644Y-106997066D02*
X163775644Y-105307966D01*
X163775644Y-105951433D02*
X163614777Y-105871000D01*
X163293044Y-105871000D01*
X163132177Y-105951433D01*
X163051744Y-106031866D01*
X162971310Y-106192733D01*
X162971310Y-106675333D01*
X163051744Y-106836200D01*
X163132177Y-106916633D01*
X163293044Y-106997066D01*
X163614777Y-106997066D01*
X163775644Y-106916633D01*
X161603944Y-106916633D02*
X161764810Y-106997066D01*
X162086544Y-106997066D01*
X162247410Y-106916633D01*
X162327844Y-106755766D01*
X162327844Y-106112300D01*
X162247410Y-105951433D01*
X162086544Y-105871000D01*
X161764810Y-105871000D01*
X161603944Y-105951433D01*
X161523510Y-106112300D01*
X161523510Y-106273166D01*
X162327844Y-106434033D01*
X160799610Y-106997066D02*
X160799610Y-105871000D01*
X160799610Y-106192733D02*
X160719177Y-106031866D01*
X160638744Y-105951433D01*
X160477877Y-105871000D01*
X160317010Y-105871000D01*
X159753977Y-106997066D02*
X159753977Y-105871000D01*
X159753977Y-106192733D02*
X159673544Y-106031866D01*
X159593110Y-105951433D01*
X159432244Y-105871000D01*
X159271377Y-105871000D01*
X158869210Y-105871000D02*
X158467044Y-106997066D01*
X158064877Y-105871000D02*
X158467044Y-106997066D01*
X158627910Y-107399233D01*
X158708344Y-107479666D01*
X158869210Y-107560100D01*
X156134477Y-106997066D02*
X156134477Y-105307966D01*
X155491010Y-105307966D01*
X155330144Y-105388400D01*
X155249710Y-105468833D01*
X155169277Y-105629700D01*
X155169277Y-105871000D01*
X155249710Y-106031866D01*
X155330144Y-106112300D01*
X155491010Y-106192733D01*
X156134477Y-106192733D01*
X154445377Y-106997066D02*
X154445377Y-105871000D01*
X154445377Y-105307966D02*
X154525810Y-105388400D01*
X154445377Y-105468833D01*
X154364944Y-105388400D01*
X154445377Y-105307966D01*
X154445377Y-105468833D01*
X152514977Y-105307966D02*
X151469344Y-105307966D01*
X152032377Y-105951433D01*
X151791077Y-105951433D01*
X151630210Y-106031866D01*
X151549777Y-106112300D01*
X151469344Y-106273166D01*
X151469344Y-106675333D01*
X151549777Y-106836200D01*
X151630210Y-106916633D01*
X151791077Y-106997066D01*
X152273677Y-106997066D01*
X152434544Y-106916633D01*
X152514977Y-106836200D01*
X149458510Y-106997066D02*
X149458510Y-105307966D01*
X148895477Y-106514466D01*
X148332444Y-105307966D01*
X148332444Y-106997066D01*
X147286810Y-106997066D02*
X147447677Y-106916633D01*
X147528110Y-106836200D01*
X147608544Y-106675333D01*
X147608544Y-106192733D01*
X147528110Y-106031866D01*
X147447677Y-105951433D01*
X147286810Y-105871000D01*
X147045510Y-105871000D01*
X146884644Y-105951433D01*
X146804210Y-106031866D01*
X146723777Y-106192733D01*
X146723777Y-106675333D01*
X146804210Y-106836200D01*
X146884644Y-106916633D01*
X147045510Y-106997066D01*
X147286810Y-106997066D01*
X145275977Y-106997066D02*
X145275977Y-105307966D01*
X145275977Y-106916633D02*
X145436844Y-106997066D01*
X145758577Y-106997066D01*
X145919444Y-106916633D01*
X145999877Y-106836200D01*
X146080310Y-106675333D01*
X146080310Y-106192733D01*
X145999877Y-106031866D01*
X145919444Y-105951433D01*
X145758577Y-105871000D01*
X145436844Y-105871000D01*
X145275977Y-105951433D01*
X143828177Y-106916633D02*
X143989044Y-106997066D01*
X144310777Y-106997066D01*
X144471644Y-106916633D01*
X144552077Y-106755766D01*
X144552077Y-106112300D01*
X144471644Y-105951433D01*
X144310777Y-105871000D01*
X143989044Y-105871000D01*
X143828177Y-105951433D01*
X143747744Y-106112300D01*
X143747744Y-106273166D01*
X144552077Y-106434033D01*
X142782544Y-106997066D02*
X142943410Y-106916633D01*
X143023844Y-106755766D01*
X143023844Y-105307966D01*
X140289110Y-106112300D02*
X140047810Y-106192733D01*
X139967377Y-106273166D01*
X139886944Y-106434033D01*
X139886944Y-106675333D01*
X139967377Y-106836200D01*
X140047810Y-106916633D01*
X140208677Y-106997066D01*
X140852144Y-106997066D01*
X140852144Y-105307966D01*
X140289110Y-105307966D01*
X140128244Y-105388400D01*
X140047810Y-105468833D01*
X139967377Y-105629700D01*
X139967377Y-105790566D01*
X140047810Y-105951433D01*
X140128244Y-106031866D01*
X140289110Y-106112300D01*
X140852144Y-106112300D01*
X138117410Y-105307966D02*
X137554377Y-106997066D01*
X136991344Y-105307966D01*
X135543544Y-106997066D02*
X136508744Y-106997066D01*
X136026144Y-106997066D02*
X136026144Y-105307966D01*
X136187010Y-105549266D01*
X136347877Y-105710133D01*
X136508744Y-105790566D01*
X134819644Y-106836200D02*
X134739210Y-106916633D01*
X134819644Y-106997066D01*
X134900077Y-106916633D01*
X134819644Y-106836200D01*
X134819644Y-106997066D01*
X134095744Y-105468833D02*
X134015310Y-105388400D01*
X133854444Y-105307966D01*
X133452277Y-105307966D01*
X133291410Y-105388400D01*
X133210977Y-105468833D01*
X133130544Y-105629700D01*
X133130544Y-105790566D01*
X133210977Y-106031866D01*
X134176177Y-106997066D01*
X133130544Y-106997066D01*
D16*
X122571069Y-94691070D02*
X122571069Y-95242613D01*
X122607839Y-95352921D01*
X122681378Y-95426460D01*
X122791686Y-95463230D01*
X122865225Y-95463230D01*
X121872448Y-94948457D02*
X121872448Y-95463230D01*
X122056296Y-94654300D02*
X122240143Y-95205843D01*
X121762140Y-95205843D01*
D14*
X197392858Y-105367838D02*
X197392858Y-106149190D01*
X197346896Y-106241114D01*
X197300934Y-106287076D01*
X197209010Y-106333038D01*
X197025163Y-106333038D01*
X196933239Y-106287076D01*
X196887277Y-106241114D01*
X196841315Y-106149190D01*
X196841315Y-105367838D01*
X196427658Y-106287076D02*
X196289772Y-106333038D01*
X196059963Y-106333038D01*
X195968039Y-106287076D01*
X195922077Y-106241114D01*
X195876115Y-106149190D01*
X195876115Y-106057266D01*
X195922077Y-105965342D01*
X195968039Y-105919380D01*
X196059963Y-105873419D01*
X196243810Y-105827457D01*
X196335734Y-105781495D01*
X196381696Y-105735533D01*
X196427658Y-105643609D01*
X196427658Y-105551685D01*
X196381696Y-105459761D01*
X196335734Y-105413800D01*
X196243810Y-105367838D01*
X196014001Y-105367838D01*
X195876115Y-105413800D01*
X195140725Y-105827457D02*
X195002839Y-105873419D01*
X194956877Y-105919380D01*
X194910915Y-106011304D01*
X194910915Y-106149190D01*
X194956877Y-106241114D01*
X195002839Y-106287076D01*
X195094763Y-106333038D01*
X195462458Y-106333038D01*
X195462458Y-105367838D01*
X195140725Y-105367838D01*
X195048801Y-105413800D01*
X195002839Y-105459761D01*
X194956877Y-105551685D01*
X194956877Y-105643609D01*
X195002839Y-105735533D01*
X195048801Y-105781495D01*
X195140725Y-105827457D01*
X195462458Y-105827457D01*
X197409622Y-85479638D02*
X197409622Y-86260990D01*
X197363660Y-86352914D01*
X197317698Y-86398876D01*
X197225774Y-86444838D01*
X197041927Y-86444838D01*
X196950003Y-86398876D01*
X196904041Y-86352914D01*
X196858079Y-86260990D01*
X196858079Y-85479638D01*
X196444422Y-86398876D02*
X196306536Y-86444838D01*
X196076727Y-86444838D01*
X195984803Y-86398876D01*
X195938841Y-86352914D01*
X195892879Y-86260990D01*
X195892879Y-86169066D01*
X195938841Y-86077142D01*
X195984803Y-86031180D01*
X196076727Y-85985219D01*
X196260574Y-85939257D01*
X196352498Y-85893295D01*
X196398460Y-85847333D01*
X196444422Y-85755409D01*
X196444422Y-85663485D01*
X196398460Y-85571561D01*
X196352498Y-85525600D01*
X196260574Y-85479638D01*
X196030765Y-85479638D01*
X195892879Y-85525600D01*
X195157489Y-85939257D02*
X195019603Y-85985219D01*
X194973641Y-86031180D01*
X194927679Y-86123104D01*
X194927679Y-86260990D01*
X194973641Y-86352914D01*
X195019603Y-86398876D01*
X195111527Y-86444838D01*
X195479222Y-86444838D01*
X195479222Y-85479638D01*
X195157489Y-85479638D01*
X195065565Y-85525600D01*
X195019603Y-85571561D01*
X194973641Y-85663485D01*
X194973641Y-85755409D01*
X195019603Y-85847333D01*
X195065565Y-85893295D01*
X195157489Y-85939257D01*
X195479222Y-85939257D01*
X197185255Y-67676657D02*
X196863522Y-67676657D01*
X196725636Y-68182238D02*
X197185255Y-68182238D01*
X197185255Y-67217038D01*
X196725636Y-67217038D01*
X196449865Y-67217038D02*
X195898322Y-67217038D01*
X196174093Y-68182238D02*
X196174093Y-67217038D01*
X195576589Y-68182238D02*
X195576589Y-67217038D01*
X195576589Y-67676657D02*
X195025046Y-67676657D01*
X195025046Y-68182238D02*
X195025046Y-67217038D01*
X194565427Y-67676657D02*
X194243693Y-67676657D01*
X194105808Y-68182238D02*
X194565427Y-68182238D01*
X194565427Y-67217038D01*
X194105808Y-67217038D01*
X193140608Y-68182238D02*
X193462341Y-67722619D01*
X193692151Y-68182238D02*
X193692151Y-67217038D01*
X193324455Y-67217038D01*
X193232532Y-67263000D01*
X193186570Y-67308961D01*
X193140608Y-67400885D01*
X193140608Y-67538771D01*
X193186570Y-67630695D01*
X193232532Y-67676657D01*
X193324455Y-67722619D01*
X193692151Y-67722619D01*
X192726951Y-68182238D02*
X192726951Y-67217038D01*
X192175408Y-68182238D01*
X192175408Y-67217038D01*
X191715789Y-67676657D02*
X191394055Y-67676657D01*
X191256170Y-68182238D02*
X191715789Y-68182238D01*
X191715789Y-67217038D01*
X191256170Y-67217038D01*
X190980398Y-67217038D02*
X190428855Y-67217038D01*
X190704627Y-68182238D02*
X190704627Y-67217038D01*
X170336633Y-64930820D02*
X170336633Y-64471201D01*
X170060861Y-65022744D02*
X171026061Y-64701010D01*
X170060861Y-64379277D01*
X171072023Y-63368115D02*
X169831052Y-64195429D01*
X171026061Y-63184268D02*
X170060861Y-62862534D01*
X171026061Y-62540801D01*
X162786785Y-71026215D02*
X162740823Y-71072177D01*
X162694861Y-71210063D01*
X162694861Y-71301987D01*
X162740823Y-71439872D01*
X162832747Y-71531796D01*
X162924671Y-71577758D01*
X163108519Y-71623720D01*
X163246404Y-71623720D01*
X163430252Y-71577758D01*
X163522176Y-71531796D01*
X163614100Y-71439872D01*
X163660061Y-71301987D01*
X163660061Y-71210063D01*
X163614100Y-71072177D01*
X163568138Y-71026215D01*
X162970633Y-70658520D02*
X162970633Y-70198901D01*
X162694861Y-70750444D02*
X163660061Y-70428710D01*
X162694861Y-70106977D01*
X162694861Y-69785244D02*
X163660061Y-69785244D01*
X162970633Y-69463510D01*
X163660061Y-69141777D01*
X162694861Y-69141777D01*
X163200442Y-68682158D02*
X163200442Y-68360425D01*
X162694861Y-68222539D02*
X162694861Y-68682158D01*
X163660061Y-68682158D01*
X163660061Y-68222539D01*
X162694861Y-67257339D02*
X163154480Y-67579072D01*
X162694861Y-67808882D02*
X163660061Y-67808882D01*
X163660061Y-67441187D01*
X163614100Y-67349263D01*
X163568138Y-67303301D01*
X163476214Y-67257339D01*
X163338328Y-67257339D01*
X163246404Y-67303301D01*
X163200442Y-67349263D01*
X163154480Y-67441187D01*
X163154480Y-67808882D01*
X162970633Y-66889644D02*
X162970633Y-66430025D01*
X162694861Y-66981568D02*
X163660061Y-66659834D01*
X162694861Y-66338101D01*
X148102561Y-64084758D02*
X149067761Y-64084758D01*
X148608142Y-64084758D02*
X148608142Y-63533215D01*
X148102561Y-63533215D02*
X149067761Y-63533215D01*
X148102561Y-63073596D02*
X149067761Y-63073596D01*
X149067761Y-62843787D01*
X149021800Y-62705901D01*
X148929876Y-62613977D01*
X148837952Y-62568015D01*
X148654104Y-62522053D01*
X148516219Y-62522053D01*
X148332371Y-62568015D01*
X148240447Y-62613977D01*
X148148523Y-62705901D01*
X148102561Y-62843787D01*
X148102561Y-63073596D01*
X148102561Y-62108396D02*
X149067761Y-62108396D01*
X148378333Y-61786663D01*
X149067761Y-61464929D01*
X148102561Y-61464929D01*
X148102561Y-61005310D02*
X149067761Y-61005310D01*
X129828858Y-60930538D02*
X129828858Y-59965338D01*
X129461163Y-59965338D01*
X129369239Y-60011300D01*
X129323277Y-60057261D01*
X129277315Y-60149185D01*
X129277315Y-60287071D01*
X129323277Y-60378995D01*
X129369239Y-60424957D01*
X129461163Y-60470919D01*
X129828858Y-60470919D01*
X128955582Y-59965338D02*
X128725772Y-60930538D01*
X128541925Y-60241109D01*
X128358077Y-60930538D01*
X128128268Y-59965338D01*
X127209029Y-60930538D02*
X127530763Y-60470919D01*
X127760572Y-60930538D02*
X127760572Y-59965338D01*
X127392877Y-59965338D01*
X127300953Y-60011300D01*
X127254991Y-60057261D01*
X127209029Y-60149185D01*
X127209029Y-60287071D01*
X127254991Y-60378995D01*
X127300953Y-60424957D01*
X127392877Y-60470919D01*
X127760572Y-60470919D01*
X126059982Y-60930538D02*
X126059982Y-59965338D01*
X125600363Y-60930538D02*
X125600363Y-59965338D01*
X125048820Y-60930538D01*
X125048820Y-59965338D01*
X120492761Y-89218058D02*
X121457961Y-89218058D01*
X121457961Y-88988248D01*
X121412000Y-88850363D01*
X121320076Y-88758439D01*
X121228152Y-88712477D01*
X121044304Y-88666515D01*
X120906419Y-88666515D01*
X120722571Y-88712477D01*
X120630647Y-88758439D01*
X120538723Y-88850363D01*
X120492761Y-88988248D01*
X120492761Y-89218058D01*
X120492761Y-88252858D02*
X121457961Y-88252858D01*
X120538723Y-87839201D02*
X120492761Y-87701315D01*
X120492761Y-87471506D01*
X120538723Y-87379582D01*
X120584685Y-87333620D01*
X120676609Y-87287658D01*
X120768533Y-87287658D01*
X120860457Y-87333620D01*
X120906419Y-87379582D01*
X120952380Y-87471506D01*
X120998342Y-87655353D01*
X121044304Y-87747277D01*
X121090266Y-87793239D01*
X121182190Y-87839201D01*
X121274114Y-87839201D01*
X121366038Y-87793239D01*
X121412000Y-87747277D01*
X121457961Y-87655353D01*
X121457961Y-87425544D01*
X121412000Y-87287658D01*
X120492761Y-86874001D02*
X121457961Y-86874001D01*
X121457961Y-86506306D01*
X121412000Y-86414382D01*
X121366038Y-86368420D01*
X121274114Y-86322458D01*
X121136228Y-86322458D01*
X121044304Y-86368420D01*
X120998342Y-86414382D01*
X120952380Y-86506306D01*
X120952380Y-86874001D01*
X120492761Y-85449182D02*
X120492761Y-85908801D01*
X121457961Y-85908801D01*
X120768533Y-85173410D02*
X120768533Y-84713791D01*
X120492761Y-85265334D02*
X121457961Y-84943601D01*
X120492761Y-84621868D01*
X120952380Y-84116287D02*
X120492761Y-84116287D01*
X121457961Y-84438020D02*
X120952380Y-84116287D01*
X121457961Y-83794553D01*
X130229577Y-105534800D02*
X130321501Y-105488838D01*
X130459387Y-105488838D01*
X130597272Y-105534800D01*
X130689196Y-105626723D01*
X130735158Y-105718647D01*
X130781120Y-105902495D01*
X130781120Y-106040380D01*
X130735158Y-106224228D01*
X130689196Y-106316152D01*
X130597272Y-106408076D01*
X130459387Y-106454038D01*
X130367463Y-106454038D01*
X130229577Y-106408076D01*
X130183615Y-106362114D01*
X130183615Y-106040380D01*
X130367463Y-106040380D01*
X129769958Y-106454038D02*
X129769958Y-105488838D01*
X129402263Y-105488838D01*
X129310339Y-105534800D01*
X129264377Y-105580761D01*
X129218415Y-105672685D01*
X129218415Y-105810571D01*
X129264377Y-105902495D01*
X129310339Y-105948457D01*
X129402263Y-105994419D01*
X129769958Y-105994419D01*
X128804758Y-106454038D02*
X128804758Y-105488838D01*
X128161291Y-105488838D02*
X127977444Y-105488838D01*
X127885520Y-105534800D01*
X127793596Y-105626723D01*
X127747634Y-105810571D01*
X127747634Y-106132304D01*
X127793596Y-106316152D01*
X127885520Y-106408076D01*
X127977444Y-106454038D01*
X128161291Y-106454038D01*
X128253215Y-106408076D01*
X128345139Y-106316152D01*
X128391101Y-106132304D01*
X128391101Y-105810571D01*
X128345139Y-105626723D01*
X128253215Y-105534800D01*
X128161291Y-105488838D01*
D16*
X202514694Y-113463230D02*
X202514694Y-114014773D01*
X202551463Y-114125081D01*
X202625002Y-114198620D01*
X202735311Y-114235390D01*
X202808850Y-114235390D01*
X201742534Y-114235390D02*
X202183768Y-114235390D01*
X201963151Y-114235390D02*
X201963151Y-113463230D01*
X202036690Y-113573539D01*
X202110229Y-113647078D01*
X202183768Y-113683847D01*
X201448377Y-113536769D02*
X201411608Y-113500000D01*
X201338069Y-113463230D01*
X201154221Y-113463230D01*
X201080682Y-113500000D01*
X201043913Y-113536769D01*
X201007143Y-113610308D01*
X201007143Y-113683847D01*
X201043913Y-113794156D01*
X201485147Y-114235390D01*
X201007143Y-114235390D01*
X203314694Y-94563230D02*
X203314694Y-95114773D01*
X203351463Y-95225081D01*
X203425002Y-95298620D01*
X203535311Y-95335390D01*
X203608850Y-95335390D01*
X202542534Y-95335390D02*
X202983768Y-95335390D01*
X202763151Y-95335390D02*
X202763151Y-94563230D01*
X202836690Y-94673539D01*
X202910229Y-94747078D01*
X202983768Y-94783847D01*
X201807143Y-95335390D02*
X202248377Y-95335390D01*
X202027760Y-95335390D02*
X202027760Y-94563230D01*
X202101299Y-94673539D01*
X202174838Y-94747078D01*
X202248377Y-94783847D01*
X203214694Y-77863230D02*
X203214694Y-78414773D01*
X203251463Y-78525081D01*
X203325002Y-78598620D01*
X203435311Y-78635390D01*
X203508850Y-78635390D01*
X202442534Y-78635390D02*
X202883768Y-78635390D01*
X202663151Y-78635390D02*
X202663151Y-77863230D01*
X202736690Y-77973539D01*
X202810229Y-78047078D01*
X202883768Y-78083847D01*
X201964530Y-77863230D02*
X201890991Y-77863230D01*
X201817452Y-77900000D01*
X201780682Y-77936769D01*
X201743913Y-78010308D01*
X201707143Y-78157386D01*
X201707143Y-78341234D01*
X201743913Y-78488312D01*
X201780682Y-78561851D01*
X201817452Y-78598620D01*
X201890991Y-78635390D01*
X201964530Y-78635390D01*
X202038069Y-78598620D01*
X202074838Y-78561851D01*
X202111608Y-78488312D01*
X202148377Y-78341234D01*
X202148377Y-78157386D01*
X202111608Y-78010308D01*
X202074838Y-77936769D01*
X202038069Y-77900000D01*
X201964530Y-77863230D01*
X176479303Y-59663230D02*
X176479303Y-60214773D01*
X176516073Y-60325081D01*
X176589612Y-60398620D01*
X176699920Y-60435390D01*
X176773459Y-60435390D01*
X176185147Y-59663230D02*
X175670374Y-59663230D01*
X176001299Y-60435390D01*
X161526729Y-78753269D02*
X160975186Y-78753269D01*
X160864878Y-78790039D01*
X160791339Y-78863578D01*
X160754569Y-78973886D01*
X160754569Y-79047425D01*
X161526729Y-78459113D02*
X161526729Y-77981109D01*
X161232573Y-78238496D01*
X161232573Y-78128187D01*
X161195803Y-78054648D01*
X161159034Y-78017879D01*
X161085495Y-77981109D01*
X160901647Y-77981109D01*
X160828108Y-78017879D01*
X160791339Y-78054648D01*
X160754569Y-78128187D01*
X160754569Y-78348804D01*
X160791339Y-78422343D01*
X160828108Y-78459113D01*
X154371069Y-68991070D02*
X154371069Y-69542613D01*
X154407839Y-69652921D01*
X154481378Y-69726460D01*
X154591686Y-69763230D01*
X154665225Y-69763230D01*
X153672448Y-68991070D02*
X153819526Y-68991070D01*
X153893065Y-69027840D01*
X153929835Y-69064609D01*
X154003374Y-69174918D01*
X154040143Y-69321996D01*
X154040143Y-69616152D01*
X154003374Y-69689691D01*
X153966604Y-69726460D01*
X153893065Y-69763230D01*
X153745987Y-69763230D01*
X153672448Y-69726460D01*
X153635679Y-69689691D01*
X153598909Y-69616152D01*
X153598909Y-69432304D01*
X153635679Y-69358765D01*
X153672448Y-69321996D01*
X153745987Y-69285226D01*
X153893065Y-69285226D01*
X153966604Y-69321996D01*
X154003374Y-69358765D01*
X154040143Y-69432304D01*
X121871069Y-57891070D02*
X121871069Y-58442613D01*
X121907839Y-58552921D01*
X121981378Y-58626460D01*
X122091686Y-58663230D01*
X122165225Y-58663230D01*
X121098909Y-58663230D02*
X121540143Y-58663230D01*
X121319526Y-58663230D02*
X121319526Y-57891070D01*
X121393065Y-58001379D01*
X121466604Y-58074918D01*
X121540143Y-58111687D01*
X122571069Y-106691070D02*
X122571069Y-107242613D01*
X122607839Y-107352921D01*
X122681378Y-107426460D01*
X122791686Y-107463230D01*
X122865225Y-107463230D01*
X122093065Y-107021996D02*
X122166604Y-106985226D01*
X122203374Y-106948457D01*
X122240143Y-106874918D01*
X122240143Y-106838148D01*
X122203374Y-106764609D01*
X122166604Y-106727840D01*
X122093065Y-106691070D01*
X121945987Y-106691070D01*
X121872448Y-106727840D01*
X121835679Y-106764609D01*
X121798909Y-106838148D01*
X121798909Y-106874918D01*
X121835679Y-106948457D01*
X121872448Y-106985226D01*
X121945987Y-107021996D01*
X122093065Y-107021996D01*
X122166604Y-107058765D01*
X122203374Y-107095535D01*
X122240143Y-107169074D01*
X122240143Y-107316152D01*
X122203374Y-107389691D01*
X122166604Y-107426460D01*
X122093065Y-107463230D01*
X121945987Y-107463230D01*
X121872448Y-107426460D01*
X121835679Y-107389691D01*
X121798909Y-107316152D01*
X121798909Y-107169074D01*
X121835679Y-107095535D01*
X121872448Y-107058765D01*
X121945987Y-107021996D01*
D13*
X120783333Y-140302380D02*
X120783333Y-141016666D01*
X120830952Y-141159523D01*
X120926190Y-141254761D01*
X121069047Y-141302380D01*
X121164285Y-141302380D01*
X119783333Y-141302380D02*
X120354761Y-141302380D01*
X120069047Y-141302380D02*
X120069047Y-140302380D01*
X120164285Y-140445238D01*
X120259523Y-140540476D01*
X120354761Y-140588095D01*
X137783333Y-140302380D02*
X137783333Y-141016666D01*
X137830952Y-141159523D01*
X137926190Y-141254761D01*
X138069047Y-141302380D01*
X138164285Y-141302380D01*
X137354761Y-140397619D02*
X137307142Y-140350000D01*
X137211904Y-140302380D01*
X136973809Y-140302380D01*
X136878571Y-140350000D01*
X136830952Y-140397619D01*
X136783333Y-140492857D01*
X136783333Y-140588095D01*
X136830952Y-140730952D01*
X137402380Y-141302380D01*
X136783333Y-141302380D01*
X154783333Y-140302380D02*
X154783333Y-141016666D01*
X154830952Y-141159523D01*
X154926190Y-141254761D01*
X155069047Y-141302380D01*
X155164285Y-141302380D01*
X154402380Y-140302380D02*
X153783333Y-140302380D01*
X154116666Y-140683333D01*
X153973809Y-140683333D01*
X153878571Y-140730952D01*
X153830952Y-140778571D01*
X153783333Y-140873809D01*
X153783333Y-141111904D01*
X153830952Y-141207142D01*
X153878571Y-141254761D01*
X153973809Y-141302380D01*
X154259523Y-141302380D01*
X154354761Y-141254761D01*
X154402380Y-141207142D01*
X169293333Y-139872380D02*
X169293333Y-140586666D01*
X169340952Y-140729523D01*
X169436190Y-140824761D01*
X169579047Y-140872380D01*
X169674285Y-140872380D01*
X168340952Y-139872380D02*
X168817142Y-139872380D01*
X168864761Y-140348571D01*
X168817142Y-140300952D01*
X168721904Y-140253333D01*
X168483809Y-140253333D01*
X168388571Y-140300952D01*
X168340952Y-140348571D01*
X168293333Y-140443809D01*
X168293333Y-140681904D01*
X168340952Y-140777142D01*
X168388571Y-140824761D01*
X168483809Y-140872380D01*
X168721904Y-140872380D01*
X168817142Y-140824761D01*
X168864761Y-140777142D01*
M02*
