M48
;DRILL file {KiCad no-vcs-found-0ee38bc~61~ubuntu17.04.1} date Wed Jun  6 16:24:37 2018
;FORMAT={-:-/ absolute / metric / decimal}
FMAT,2
METRIC,TZ
T1C0.400
T2C0.700
T3C0.762
T4C0.800
T5C1.016
T6C1.520
T7C2.750
T8C3.600
%
G90
G05
M71
T1
X147.1Y-128.05
X149.65Y-128.1
T2
X132.3Y-90.07
X132.3Y-95.15
X135.05Y-90.07
X135.05Y-95.15
X129.6Y-90.07
X129.6Y-95.15
T3
X118.38Y-124.83
X118.38Y-127.39
X118.38Y-129.95
X118.38Y-132.51
X173.92Y-116.57
X173.92Y-139.43
X176.46Y-116.57
X176.46Y-139.43
X179.Y-116.57
X179.Y-139.43
X181.54Y-116.57
X181.54Y-139.43
X184.08Y-116.57
X184.08Y-139.43
X139.42Y-117.89
X139.42Y-120.43
X139.42Y-122.97
X139.42Y-125.51
T4
X102.15Y-98.5
X102.15Y-101.15
X110.35Y-147.35
X113.Y-64.55
X115.35Y-140.5
X115.9Y-86.5
X116.05Y-78.35
X116.05Y-80.25
X116.05Y-82.15
X116.05Y-127.4
X116.1Y-75.8
X116.1Y-84.15
X116.1Y-105.2
X116.15Y-73.4
X116.3Y-122.75
X118.392Y-118.55
X118.392Y-120.644
X118.392Y-122.617
X119.75Y-116.6
X120.4Y-135.45
X122.05Y-136.8
X122.9Y-107.678
X124.2Y-119.85
X124.446Y-122.896
X124.8Y-107.85
X125.55Y-121.35
X127.367Y-106.405
X128.917Y-105.305
X129.6Y-87.3
X130.45Y-115.6
X131.2Y-105.4
X132.35Y-87.3
X133.65Y-116.
X133.733Y-102.85
X134.Y-105.657
X135.05Y-87.3
X135.55Y-130.95
X135.7Y-115.
X136.45Y-118.45
X136.65Y-120.4
X136.67Y-122.97
X136.8Y-125.5
X136.95Y-129.45
X141.59Y-127.89
X141.688Y-115.65
X143.089Y-122.511
X143.15Y-104.3
X143.35Y-140.5
X144.4Y-127.65
X144.6Y-107.9
X145.889Y-124.65
X147.094Y-115.65
X149.2Y-121.25
X149.65Y-140.4
X150.3Y-115.65
X152.5Y-126.05
X153.Y-140.6
X155.49Y-140.45
X155.9Y-115.65
X159.765Y-133.185
X160.95Y-106.65
X160.95Y-116.9
X161.75Y-140.9
X162.9Y-123.45
X163.1Y-126.9
X163.1Y-133.15
X163.45Y-106.65
X164.45Y-116.85
X166.Y-106.65
X168.5Y-106.4
X174.95Y-142.3
X174.95Y-144.85
X179.Y-128.
X181.35Y-115.15
X181.55Y-112.85
X195.3Y-132.8
X139.5Y-130.38
X139.5Y-138.
X142.04Y-130.38
X142.04Y-138.
X144.58Y-130.38
X144.58Y-138.
X147.12Y-130.38
X147.12Y-138.
X149.66Y-130.38
X149.66Y-138.
X152.2Y-130.38
X152.2Y-138.
X154.74Y-130.38
X154.74Y-138.
X157.28Y-130.38
X157.28Y-138.
T5
X105.587Y-73.198
X105.587Y-75.738
X105.587Y-78.278
X105.587Y-80.818
X105.587Y-83.358
X105.587Y-85.898
X105.587Y-88.438
X105.587Y-90.978
X105.587Y-93.518
X105.587Y-96.058
X105.587Y-98.598
X105.587Y-101.138
X105.587Y-103.678
X105.587Y-106.218
X105.587Y-108.758
X105.587Y-111.298
X105.587Y-113.838
X105.587Y-116.378
X105.587Y-118.918
X105.587Y-121.458
X105.587Y-123.998
X105.587Y-126.538
X105.587Y-129.078
X105.587Y-131.618
X105.587Y-134.158
X105.587Y-136.698
X108.126Y-73.198
X108.126Y-75.738
X108.126Y-78.278
X108.126Y-80.818
X108.126Y-83.358
X108.126Y-85.898
X108.126Y-88.438
X108.126Y-90.978
X108.126Y-93.518
X108.126Y-96.058
X108.126Y-98.598
X108.126Y-101.138
X108.126Y-103.678
X108.126Y-106.218
X108.126Y-108.758
X108.126Y-111.298
X108.126Y-113.838
X108.126Y-116.378
X108.126Y-118.918
X108.126Y-121.458
X108.126Y-123.998
X108.126Y-126.538
X108.126Y-129.078
X108.126Y-131.618
X108.126Y-134.158
X108.126Y-136.698
X110.666Y-73.198
X110.666Y-75.738
X110.666Y-78.278
X110.666Y-80.818
X110.666Y-83.358
X110.666Y-85.898
X110.666Y-88.438
X110.666Y-90.978
X110.666Y-93.518
X110.666Y-96.058
X110.666Y-98.598
X110.666Y-101.138
X110.666Y-103.678
X110.666Y-106.218
X110.666Y-108.758
X110.666Y-111.298
X110.666Y-113.838
X110.666Y-116.378
X110.666Y-118.918
X110.666Y-121.458
X110.666Y-123.998
X110.666Y-126.538
X110.666Y-129.078
X110.666Y-131.618
X110.666Y-134.158
X110.666Y-136.698
X113.206Y-73.198
X113.206Y-75.738
X113.206Y-78.278
X113.206Y-80.818
X113.206Y-83.358
X113.206Y-85.898
X113.206Y-88.438
X113.206Y-90.978
X113.206Y-93.518
X113.206Y-96.058
X113.206Y-98.598
X113.206Y-101.138
X113.206Y-103.678
X113.206Y-106.218
X113.206Y-108.758
X113.206Y-111.298
X113.206Y-113.838
X113.206Y-116.378
X113.206Y-118.918
X113.206Y-121.458
X113.206Y-123.998
X113.206Y-126.538
X113.206Y-129.078
X113.206Y-131.618
X113.206Y-134.158
X113.206Y-136.698
X125.374Y-112.272
X125.388Y-109.73
X127.914Y-109.732
X127.914Y-112.272
X130.454Y-109.732
X130.454Y-112.272
X132.994Y-109.732
X132.994Y-112.272
X135.534Y-109.732
X135.534Y-112.272
X138.074Y-109.732
X138.074Y-112.272
X140.614Y-109.732
X140.614Y-112.272
X143.154Y-109.732
X143.154Y-112.272
X145.694Y-109.732
X145.694Y-112.272
X148.234Y-109.732
X148.234Y-112.272
X150.774Y-109.732
X150.774Y-112.272
X153.314Y-109.732
X153.314Y-112.272
X155.854Y-109.732
X155.854Y-112.272
X158.394Y-109.732
X158.394Y-112.272
X160.934Y-109.732
X160.934Y-112.272
X163.474Y-109.732
X163.474Y-112.272
X166.014Y-109.732
X166.014Y-112.272
X168.554Y-109.732
X168.554Y-112.272
X171.094Y-109.732
X171.094Y-112.272
X173.634Y-109.732
X173.634Y-112.272
T6
X149.34Y-145.5
X154.42Y-145.5
X159.5Y-145.5
X178.42Y-145.5
X183.5Y-145.5
X166.42Y-145.5
X171.5Y-145.5
X132.34Y-145.5
X137.42Y-145.5
X142.5Y-145.5
X115.34Y-145.5
X120.42Y-145.5
X125.5Y-145.5
T7
X120.518Y-62.
X120.518Y-111.
X178.518Y-62.
X178.518Y-111.
T8
X105.587Y-67.61
X105.587Y-142.286
X191.439Y-144.826
T0
M30
