G04 #@! TF.GenerationSoftware,KiCad,Pcbnew,no-vcs-found-0ee38bc~61~ubuntu17.04.1*
G04 #@! TF.CreationDate,2018-06-07T10:33:44-04:00*
G04 #@! TF.ProjectId,Balloon_bus,42616C6C6F6F6E5F6275732E6B696361,rev?*
G04 #@! TF.SameCoordinates,Original*
G04 #@! TF.FileFunction,Copper,L1,Top,Signal*
G04 #@! TF.FilePolarity,Positive*
%FSLAX46Y46*%
G04 Gerber Fmt 4.6, Leading zero omitted, Abs format (unit mm)*
G04 Created by KiCad (PCBNEW no-vcs-found-0ee38bc~61~ubuntu17.04.1) date Thu Jun  7 10:33:44 2018*
%MOMM*%
%LPD*%
G01*
G04 APERTURE LIST*
%ADD10C,3.000000*%
%ADD11R,3.000000X3.000000*%
%ADD12C,1.524000*%
%ADD13R,1.524000X1.524000*%
%ADD14R,1.600000X2.400000*%
%ADD15O,1.600000X2.400000*%
%ADD16C,1.400000*%
%ADD17O,1.400000X1.400000*%
%ADD18C,1.500000*%
%ADD19C,0.500000*%
%ADD20C,0.254000*%
G04 APERTURE END LIST*
D10*
X178420000Y-145500000D03*
D11*
X183500000Y-145500000D03*
D12*
X173634400Y-112271800D03*
X173634400Y-109731800D03*
X171094400Y-112271800D03*
X171094400Y-109731800D03*
X168554400Y-112271800D03*
X168554400Y-109731800D03*
X166014400Y-112271800D03*
X166014400Y-109731800D03*
X163474400Y-112271800D03*
X163474400Y-109731800D03*
X160934400Y-112271800D03*
X160934400Y-109731800D03*
X158394400Y-112271800D03*
X158394400Y-109731800D03*
X155854400Y-112271800D03*
X155854400Y-109731800D03*
X153314400Y-112271800D03*
X153314400Y-109731800D03*
X150774400Y-112271800D03*
X150774400Y-109731800D03*
X148234400Y-112271800D03*
X148234400Y-109731800D03*
X145694400Y-112271800D03*
X145694400Y-109731800D03*
X143154400Y-112271800D03*
X143154400Y-109731800D03*
X140614400Y-112271800D03*
X140614400Y-109731800D03*
X138074400Y-112271800D03*
X138074400Y-109731800D03*
X135534400Y-112271800D03*
X135534400Y-109731800D03*
X132994400Y-112271800D03*
X132994400Y-109731800D03*
X130454400Y-112271800D03*
X130454400Y-109731800D03*
X127914400Y-112271800D03*
X127914400Y-109731800D03*
X125374400Y-112271800D03*
D13*
X125387800Y-109730000D03*
D12*
X105586500Y-73197800D03*
X108126500Y-73197800D03*
X105586500Y-75737800D03*
X108126500Y-75737800D03*
X105586500Y-78277800D03*
X108126500Y-78277800D03*
X105586500Y-80817800D03*
X108126500Y-80817800D03*
X105586500Y-83357800D03*
X108126500Y-83357800D03*
X105586500Y-85897800D03*
X108126500Y-85897800D03*
X105586500Y-88437800D03*
X108126500Y-88437800D03*
X105586500Y-90977800D03*
X108126500Y-90977800D03*
X105586500Y-93517800D03*
X108126500Y-93517800D03*
X105586500Y-96057800D03*
X108126500Y-96057800D03*
X105586500Y-98597800D03*
X108126500Y-98597800D03*
X105586500Y-101137800D03*
X108126500Y-101137800D03*
X105586500Y-103677800D03*
X108126500Y-103677800D03*
X105586500Y-106217800D03*
X108126500Y-106217800D03*
X105586500Y-108757800D03*
X108126500Y-108757800D03*
X105586500Y-111297800D03*
X108126500Y-111297800D03*
X105586500Y-113837800D03*
X108126500Y-113837800D03*
X105586500Y-116377800D03*
X108126500Y-116377800D03*
X105586500Y-118917800D03*
X108126500Y-118917800D03*
X105586500Y-121457800D03*
X108126500Y-121457800D03*
X105586500Y-123997800D03*
X108126500Y-123997800D03*
X105586500Y-126537800D03*
X108126500Y-126537800D03*
X105586500Y-129077800D03*
X108126500Y-129077800D03*
X105586500Y-131617800D03*
X108126500Y-131617800D03*
X105586500Y-134157800D03*
X108126500Y-134157800D03*
X105586500Y-136697800D03*
X108126500Y-136697800D03*
X110666500Y-73197800D03*
X113206500Y-73197800D03*
X110666500Y-75737800D03*
X113206500Y-75737800D03*
X110666500Y-78277800D03*
X113206500Y-78277800D03*
X110666500Y-80817800D03*
X113206500Y-80817800D03*
X110666500Y-83357800D03*
X113206500Y-83357800D03*
X110666500Y-85897800D03*
X113206500Y-85897800D03*
X110666500Y-88437800D03*
X113206500Y-88437800D03*
X110666500Y-90977800D03*
X113206500Y-90977800D03*
X110666500Y-93517800D03*
X113206500Y-93517800D03*
X110666500Y-96057800D03*
X113206500Y-96057800D03*
X110666500Y-98597800D03*
X113206500Y-98597800D03*
X110666500Y-101137800D03*
X113206500Y-101137800D03*
X110666500Y-103677800D03*
X113206500Y-103677800D03*
X110666500Y-106217800D03*
X113206500Y-106217800D03*
X110666500Y-108757800D03*
X113206500Y-108757800D03*
X110666500Y-111297800D03*
X113206500Y-111297800D03*
X110666500Y-113837800D03*
X113206500Y-113837800D03*
X110666500Y-116377800D03*
X113206500Y-116377800D03*
X110666500Y-118917800D03*
X113206500Y-118917800D03*
X110666500Y-121457800D03*
X113206500Y-121457800D03*
X110666500Y-123997800D03*
X113206500Y-123997800D03*
X110666500Y-126537800D03*
X113206500Y-126537800D03*
X110666500Y-129077800D03*
X113206500Y-129077800D03*
X110666500Y-131617800D03*
X113206500Y-131617800D03*
X110666500Y-134157800D03*
X113206500Y-134157800D03*
X110666500Y-136697800D03*
X113206500Y-136697800D03*
D11*
X125500000Y-145500000D03*
D10*
X120420000Y-145500000D03*
X115340000Y-145500000D03*
X132340000Y-145500000D03*
X137420000Y-145500000D03*
D11*
X142500000Y-145500000D03*
X159500000Y-145500000D03*
D10*
X154420000Y-145500000D03*
X149340000Y-145500000D03*
X166420000Y-145500000D03*
D11*
X171500000Y-145500000D03*
D14*
X139500000Y-138000000D03*
D15*
X157280000Y-130380000D03*
X142040000Y-138000000D03*
X154740000Y-130380000D03*
X144580000Y-138000000D03*
X152200000Y-130380000D03*
X147120000Y-138000000D03*
X149660000Y-130380000D03*
X149660000Y-138000000D03*
X147120000Y-130380000D03*
X152200000Y-138000000D03*
X144580000Y-130380000D03*
X154740000Y-138000000D03*
X142040000Y-130380000D03*
X157280000Y-138000000D03*
X139500000Y-130380000D03*
D12*
X173920000Y-139430000D03*
X176460000Y-139430000D03*
X179000000Y-139430000D03*
X181540000Y-139430000D03*
X184080000Y-139430000D03*
X184080000Y-116570000D03*
X181540000Y-116570000D03*
X179000000Y-116570000D03*
X176460000Y-116570000D03*
X173920000Y-116570000D03*
X139420000Y-117890000D03*
X139420000Y-120430000D03*
X139420000Y-122970000D03*
X139420000Y-125510000D03*
D13*
X118380000Y-132510000D03*
D12*
X118380000Y-129950000D03*
X118380000Y-127390000D03*
X118380000Y-124830000D03*
D16*
X129600000Y-95150000D03*
D17*
X129600000Y-90070000D03*
X132300000Y-90070000D03*
D16*
X132300000Y-95150000D03*
X135050000Y-95150000D03*
D17*
X135050000Y-90070000D03*
D18*
X149733000Y-127889000D03*
X147066000Y-127889000D03*
X116300000Y-122750000D03*
X149650000Y-140400000D03*
X130450000Y-115600000D03*
X113000000Y-64550000D03*
X110350000Y-147350000D03*
X102150000Y-98500000D03*
X102150000Y-101150000D03*
X136650000Y-120400000D03*
X143350000Y-140500000D03*
X195300000Y-132800000D03*
X174950000Y-144850000D03*
X160950000Y-116900000D03*
X164450000Y-116850000D03*
X143089303Y-122510697D03*
X150300000Y-115650001D03*
X155900000Y-115650001D03*
X179000000Y-128000000D03*
X143150000Y-104300000D03*
X116050000Y-82150006D03*
X131200000Y-105400000D03*
X168500000Y-106400000D03*
X116150000Y-73400000D03*
X166000000Y-106650000D03*
X116100000Y-75800000D03*
X163450000Y-106650000D03*
X116050000Y-78350000D03*
X160950000Y-106650000D03*
X116050000Y-80250003D03*
X136670000Y-122970000D03*
X120400000Y-135450000D03*
X127367478Y-106405342D03*
X116100000Y-84150003D03*
X136800000Y-125500000D03*
X122050000Y-136800000D03*
X122900000Y-107677998D03*
X115900000Y-86500000D03*
X116050000Y-127400000D03*
X115350000Y-140500000D03*
X124800000Y-107850000D03*
X119750000Y-116600000D03*
X136450000Y-118450000D03*
X144600000Y-107900000D03*
X116100000Y-105200000D03*
X162900000Y-123450000D03*
X135700000Y-115000000D03*
X181550000Y-112850000D03*
X133650000Y-116000000D03*
X181350000Y-115150000D03*
X118392001Y-122616626D03*
X124445647Y-122896095D03*
X133732562Y-102849962D03*
X118392001Y-120643949D03*
X125550000Y-121350000D03*
X134000000Y-105657400D03*
X118392001Y-118550000D03*
X124199999Y-119850000D03*
X128916541Y-105305156D03*
X141687777Y-115650002D03*
X147094400Y-115650001D03*
X149200000Y-121250000D03*
X163100000Y-126900000D03*
X163100000Y-133150000D03*
X161750000Y-140900000D03*
X153000000Y-140600000D03*
X174950000Y-142300000D03*
X145889304Y-124650000D03*
X135550000Y-130950000D03*
X141589950Y-127889950D03*
X136950000Y-129450000D03*
X155490000Y-140450000D03*
X159764950Y-133185050D03*
X144400000Y-127650000D03*
X152500000Y-126050000D03*
X129600000Y-87300000D03*
X132350000Y-87300000D03*
X135050000Y-87300000D03*
D19*
X149650000Y-140400000D02*
X143450000Y-140400000D01*
X143450000Y-140400000D02*
X143350000Y-140500000D01*
X150300000Y-115650001D02*
X155900000Y-115650001D01*
X143150000Y-104300000D02*
X143150000Y-103239340D01*
X143150000Y-103239340D02*
X143150000Y-98700000D01*
X143150000Y-98700000D02*
X136650000Y-92200000D01*
X116172005Y-82150006D02*
X116050000Y-82150006D01*
X136650000Y-92200000D02*
X126221999Y-92200000D01*
X126221999Y-92200000D02*
X116172005Y-82150006D01*
X168500000Y-106400000D02*
X135500000Y-73400000D01*
X135500000Y-73400000D02*
X116150000Y-73400000D01*
X166000000Y-106650000D02*
X135150000Y-75800000D01*
X135150000Y-75800000D02*
X116100000Y-75800000D01*
X163450000Y-106650000D02*
X135150000Y-78350000D01*
X135150000Y-78350000D02*
X116050000Y-78350000D01*
X160950000Y-106650000D02*
X134550003Y-80250003D01*
X134550003Y-80250003D02*
X116050000Y-80250003D01*
X132880000Y-122970000D02*
X136670000Y-122970000D01*
X120400000Y-135450000D02*
X132880000Y-122970000D01*
X127367478Y-106405342D02*
X127367478Y-95417481D01*
X127367478Y-95417481D02*
X116100000Y-84150003D01*
X133350000Y-125500000D02*
X136800000Y-125500000D01*
X122050000Y-136800000D02*
X133350000Y-125500000D01*
X122900000Y-107677998D02*
X122900000Y-93500000D01*
X122900000Y-93500000D02*
X115900000Y-86500000D01*
X115350000Y-128100000D02*
X116050000Y-127400000D01*
X115350000Y-140500000D02*
X115350000Y-128100000D01*
X125387800Y-109730000D02*
X119750000Y-115367800D01*
X119750000Y-115367800D02*
X119750000Y-116600000D01*
X131227998Y-118450000D02*
X136450000Y-118450000D01*
X119750000Y-116600000D02*
X121600000Y-118450000D01*
X121600000Y-118450000D02*
X131227998Y-118450000D01*
X124800000Y-107850000D02*
X144550000Y-107850000D01*
X144550000Y-107850000D02*
X144600000Y-107900000D01*
X117714802Y-105200000D02*
X116100000Y-105200000D01*
X124800000Y-107850000D02*
X123572001Y-109077999D01*
X121592801Y-109077999D02*
X117714802Y-105200000D01*
X123572001Y-109077999D02*
X121592801Y-109077999D01*
X158101999Y-118651999D02*
X162900000Y-123450000D01*
X139420000Y-117890000D02*
X140181999Y-118651999D01*
X140181999Y-118651999D02*
X158101999Y-118651999D01*
X180149999Y-114250001D02*
X181550000Y-112850000D01*
X135700000Y-115000000D02*
X136449999Y-114250001D01*
X136449999Y-114250001D02*
X180149999Y-114250001D01*
X158471992Y-115150011D02*
X181349989Y-115150011D01*
X155227999Y-117050002D02*
X156572001Y-117050002D01*
X151471992Y-116550011D02*
X154728008Y-116550011D01*
X156572001Y-117050002D02*
X158471992Y-115150011D01*
X134710660Y-116000000D02*
X135110661Y-116400001D01*
X154728008Y-116550011D02*
X155227999Y-117050002D01*
X133650000Y-116000000D02*
X134710660Y-116000000D01*
X135110661Y-116400001D02*
X140377998Y-116400001D01*
X181349989Y-115150011D02*
X181350000Y-115150000D01*
X140377998Y-116400001D02*
X141027999Y-117050002D01*
X141027999Y-117050002D02*
X150972001Y-117050002D01*
X150972001Y-117050002D02*
X151471992Y-116550011D01*
X118392001Y-122616626D02*
X124166178Y-122616626D01*
X124166178Y-122616626D02*
X124445647Y-122896095D01*
X133732562Y-96467438D02*
X135050000Y-95150000D01*
X133732562Y-102849962D02*
X133732562Y-96467438D01*
X125506052Y-121393948D02*
X125550000Y-121350000D01*
X118392001Y-120643949D02*
X119142000Y-121393948D01*
X119142000Y-121393948D02*
X125506052Y-121393948D01*
X132300000Y-103957400D02*
X132300000Y-95150000D01*
X134000000Y-105657400D02*
X132300000Y-103957400D01*
X118392001Y-118550000D02*
X119692001Y-119850000D01*
X119692001Y-119850000D02*
X124199999Y-119850000D01*
X128916541Y-95833459D02*
X129600000Y-95150000D01*
X128916541Y-105305156D02*
X128916541Y-95833459D01*
X141687777Y-115650002D02*
X142748438Y-115650001D01*
X142748438Y-115650001D02*
X147094400Y-115650001D01*
X149949999Y-121999999D02*
X154499999Y-121999999D01*
X149200000Y-121250000D02*
X149949999Y-121999999D01*
X154499999Y-121999999D02*
X159400000Y-126900000D01*
X159400000Y-126900000D02*
X163100000Y-126900000D01*
X163100000Y-133150000D02*
X163100000Y-139550000D01*
X163100000Y-139550000D02*
X161750000Y-140900000D01*
X153000000Y-140600000D02*
X154700000Y-142300000D01*
X154700000Y-142300000D02*
X174950000Y-142300000D01*
X135550000Y-128777998D02*
X135550000Y-130950000D01*
X137338058Y-126989940D02*
X135550000Y-128777998D01*
X140417958Y-126989940D02*
X137338058Y-126989940D01*
X145889304Y-124650000D02*
X142757898Y-124650000D01*
X142757898Y-124650000D02*
X140417958Y-126989940D01*
X141589950Y-127889950D02*
X138510050Y-127889950D01*
X138510050Y-127889950D02*
X136950000Y-129450000D01*
X159764950Y-137965673D02*
X159764950Y-133185050D01*
X155490000Y-140450000D02*
X157280623Y-140450000D01*
X157280623Y-140450000D02*
X159764950Y-137965673D01*
X144400000Y-127650000D02*
X146000000Y-126050000D01*
X146000000Y-126050000D02*
X152500000Y-126050000D01*
X129600000Y-90070000D02*
X129600000Y-87300000D01*
X132300000Y-90070000D02*
X132300000Y-87350000D01*
X132300000Y-87350000D02*
X132350000Y-87300000D01*
X135050000Y-90070000D02*
X135050000Y-87300000D01*
D20*
G36*
X118814799Y-60859940D02*
X118508150Y-61598432D01*
X118507452Y-62398060D01*
X118812812Y-63137086D01*
X119377740Y-63703001D01*
X120116232Y-64009650D01*
X120915860Y-64010348D01*
X121654886Y-63704988D01*
X122220801Y-63140060D01*
X122527450Y-62401568D01*
X122528148Y-61601940D01*
X122222788Y-60862914D01*
X122070540Y-60710400D01*
X176964600Y-60710400D01*
X176814799Y-60859940D01*
X176508150Y-61598432D01*
X176507452Y-62398060D01*
X176812812Y-63137086D01*
X177377740Y-63703001D01*
X178116232Y-64009650D01*
X178915860Y-64010348D01*
X179654886Y-63704988D01*
X180220801Y-63140060D01*
X180527450Y-62401568D01*
X180528148Y-61601940D01*
X180222788Y-60862914D01*
X180070540Y-60710400D01*
X181290000Y-60710400D01*
X181290000Y-110500000D01*
X181344046Y-110771705D01*
X181497954Y-111002046D01*
X182056619Y-111560711D01*
X181826702Y-111465241D01*
X181275715Y-111464760D01*
X180766485Y-111675169D01*
X180376539Y-112064436D01*
X180165241Y-112573298D01*
X180164883Y-112983538D01*
X179783419Y-113365001D01*
X174516672Y-113365001D01*
X174818029Y-113064170D01*
X175031157Y-112550900D01*
X175031642Y-111995139D01*
X174819410Y-111481497D01*
X174736119Y-111398060D01*
X176507452Y-111398060D01*
X176812812Y-112137086D01*
X177377740Y-112703001D01*
X178116232Y-113009650D01*
X178915860Y-113010348D01*
X179654886Y-112704988D01*
X180220801Y-112140060D01*
X180527450Y-111401568D01*
X180528148Y-110601940D01*
X180222788Y-109862914D01*
X179657860Y-109296999D01*
X178919368Y-108990350D01*
X178119740Y-108989652D01*
X177380714Y-109295012D01*
X176814799Y-109859940D01*
X176508150Y-110598432D01*
X176507452Y-111398060D01*
X174736119Y-111398060D01*
X174426770Y-111088171D01*
X174234673Y-111008405D01*
X174365543Y-110954197D01*
X174435008Y-110712013D01*
X173634400Y-109911405D01*
X172833792Y-110712013D01*
X172903257Y-110954197D01*
X173043718Y-111004309D01*
X172844097Y-111086790D01*
X172450771Y-111479430D01*
X172364451Y-111687312D01*
X172279410Y-111481497D01*
X171886770Y-111088171D01*
X171678888Y-111001851D01*
X171884703Y-110916810D01*
X172278029Y-110524170D01*
X172357795Y-110332073D01*
X172412003Y-110462943D01*
X172654187Y-110532408D01*
X173454795Y-109731800D01*
X173814005Y-109731800D01*
X174614613Y-110532408D01*
X174856797Y-110462943D01*
X175043544Y-109939498D01*
X175015762Y-109384432D01*
X174856797Y-109000657D01*
X174614613Y-108931192D01*
X173814005Y-109731800D01*
X173454795Y-109731800D01*
X172654187Y-108931192D01*
X172412003Y-109000657D01*
X172361891Y-109141118D01*
X172279410Y-108941497D01*
X172089832Y-108751587D01*
X172833792Y-108751587D01*
X173634400Y-109552195D01*
X174435008Y-108751587D01*
X174365543Y-108509403D01*
X173842098Y-108322656D01*
X173287032Y-108350438D01*
X172903257Y-108509403D01*
X172833792Y-108751587D01*
X172089832Y-108751587D01*
X171886770Y-108548171D01*
X171373500Y-108335043D01*
X170817739Y-108334558D01*
X170304097Y-108546790D01*
X169910771Y-108939430D01*
X169824451Y-109147312D01*
X169739410Y-108941497D01*
X169346770Y-108548171D01*
X168833500Y-108335043D01*
X168277739Y-108334558D01*
X167764097Y-108546790D01*
X167370771Y-108939430D01*
X167284451Y-109147312D01*
X167199410Y-108941497D01*
X166806770Y-108548171D01*
X166293500Y-108335043D01*
X165737739Y-108334558D01*
X165224097Y-108546790D01*
X164830771Y-108939430D01*
X164744451Y-109147312D01*
X164659410Y-108941497D01*
X164266770Y-108548171D01*
X163753500Y-108335043D01*
X163197739Y-108334558D01*
X162684097Y-108546790D01*
X162290771Y-108939430D01*
X162204451Y-109147312D01*
X162119410Y-108941497D01*
X161726770Y-108548171D01*
X161213500Y-108335043D01*
X160657739Y-108334558D01*
X160144097Y-108546790D01*
X159750771Y-108939430D01*
X159664451Y-109147312D01*
X159579410Y-108941497D01*
X159186770Y-108548171D01*
X158673500Y-108335043D01*
X158117739Y-108334558D01*
X157604097Y-108546790D01*
X157210771Y-108939430D01*
X157131005Y-109131527D01*
X157076797Y-109000657D01*
X156834613Y-108931192D01*
X156034005Y-109731800D01*
X156834613Y-110532408D01*
X157076797Y-110462943D01*
X157126909Y-110322482D01*
X157209390Y-110522103D01*
X157602030Y-110915429D01*
X157809912Y-111001749D01*
X157604097Y-111086790D01*
X157210771Y-111479430D01*
X157124451Y-111687312D01*
X157039410Y-111481497D01*
X156646770Y-111088171D01*
X156454673Y-111008405D01*
X156585543Y-110954197D01*
X156655008Y-110712013D01*
X155854400Y-109911405D01*
X155053792Y-110712013D01*
X155123257Y-110954197D01*
X155263718Y-111004309D01*
X155064097Y-111086790D01*
X154670771Y-111479430D01*
X154584451Y-111687312D01*
X154499410Y-111481497D01*
X154106770Y-111088171D01*
X153898888Y-111001851D01*
X154104703Y-110916810D01*
X154498029Y-110524170D01*
X154577795Y-110332073D01*
X154632003Y-110462943D01*
X154874187Y-110532408D01*
X155674795Y-109731800D01*
X154874187Y-108931192D01*
X154632003Y-109000657D01*
X154581891Y-109141118D01*
X154499410Y-108941497D01*
X154309832Y-108751587D01*
X155053792Y-108751587D01*
X155854400Y-109552195D01*
X156655008Y-108751587D01*
X156585543Y-108509403D01*
X156062098Y-108322656D01*
X155507032Y-108350438D01*
X155123257Y-108509403D01*
X155053792Y-108751587D01*
X154309832Y-108751587D01*
X154106770Y-108548171D01*
X153593500Y-108335043D01*
X153037739Y-108334558D01*
X152524097Y-108546790D01*
X152130771Y-108939430D01*
X152044451Y-109147312D01*
X151959410Y-108941497D01*
X151566770Y-108548171D01*
X151053500Y-108335043D01*
X150497739Y-108334558D01*
X149984097Y-108546790D01*
X149590771Y-108939430D01*
X149504451Y-109147312D01*
X149419410Y-108941497D01*
X149026770Y-108548171D01*
X148513500Y-108335043D01*
X147957739Y-108334558D01*
X147444097Y-108546790D01*
X147050771Y-108939430D01*
X146964451Y-109147312D01*
X146879410Y-108941497D01*
X146486770Y-108548171D01*
X145973500Y-108335043D01*
X145919030Y-108334995D01*
X145984759Y-108176702D01*
X145985240Y-107625715D01*
X145774831Y-107116485D01*
X145385564Y-106726539D01*
X144876702Y-106515241D01*
X144325715Y-106514760D01*
X143816485Y-106725169D01*
X143576236Y-106965000D01*
X134462189Y-106965000D01*
X134783515Y-106832231D01*
X135173461Y-106442964D01*
X135384759Y-105934102D01*
X135385240Y-105383115D01*
X135174831Y-104873885D01*
X134785564Y-104483939D01*
X134276702Y-104272641D01*
X133866462Y-104272283D01*
X133829226Y-104235047D01*
X134006847Y-104235202D01*
X134516077Y-104024793D01*
X134906023Y-103635526D01*
X135117321Y-103126664D01*
X135117802Y-102575677D01*
X134907393Y-102066447D01*
X134617562Y-101776110D01*
X134617562Y-96834018D01*
X134966652Y-96484928D01*
X135314383Y-96485231D01*
X135805229Y-96282418D01*
X136181098Y-95907204D01*
X136384768Y-95416713D01*
X136385231Y-94885617D01*
X136182418Y-94394771D01*
X135807204Y-94018902D01*
X135316713Y-93815232D01*
X134785617Y-93814769D01*
X134294771Y-94017582D01*
X133918902Y-94392796D01*
X133715232Y-94883287D01*
X133714927Y-95233494D01*
X133634858Y-95313562D01*
X133635231Y-94885617D01*
X133432418Y-94394771D01*
X133057204Y-94018902D01*
X132566713Y-93815232D01*
X132035617Y-93814769D01*
X131544771Y-94017582D01*
X131168902Y-94392796D01*
X130965232Y-94883287D01*
X130964769Y-95414383D01*
X131167582Y-95905229D01*
X131415000Y-96153079D01*
X131415000Y-103957395D01*
X131414999Y-103957400D01*
X131470163Y-104234721D01*
X131482367Y-104296075D01*
X131633085Y-104521641D01*
X131674210Y-104583190D01*
X132615116Y-105524095D01*
X132614760Y-105931685D01*
X132825169Y-106440915D01*
X133214436Y-106830861D01*
X133537479Y-106965000D01*
X128634743Y-106965000D01*
X128748929Y-106690010D01*
X129190826Y-106690396D01*
X129700056Y-106479987D01*
X130090002Y-106090720D01*
X130301300Y-105581858D01*
X130301781Y-105030871D01*
X130091372Y-104521641D01*
X129801541Y-104231304D01*
X129801541Y-96485176D01*
X129864383Y-96485231D01*
X130355229Y-96282418D01*
X130731098Y-95907204D01*
X130934768Y-95416713D01*
X130935231Y-94885617D01*
X130732418Y-94394771D01*
X130357204Y-94018902D01*
X129866713Y-93815232D01*
X129335617Y-93814769D01*
X128844771Y-94017582D01*
X128468902Y-94392796D01*
X128265232Y-94883287D01*
X128264916Y-95246335D01*
X128229098Y-95299940D01*
X128185111Y-95078806D01*
X128098016Y-94948459D01*
X127993268Y-94791691D01*
X127993265Y-94791689D01*
X126286576Y-93085000D01*
X136283420Y-93085000D01*
X142265000Y-99066579D01*
X142265000Y-103226477D01*
X141976539Y-103514436D01*
X141765241Y-104023298D01*
X141764760Y-104574285D01*
X141975169Y-105083515D01*
X142364436Y-105473461D01*
X142873298Y-105684759D01*
X143424285Y-105685240D01*
X143933515Y-105474831D01*
X144323461Y-105085564D01*
X144534759Y-104576702D01*
X144535240Y-104025715D01*
X144324831Y-103516485D01*
X144035000Y-103226148D01*
X144035000Y-98700005D01*
X144035001Y-98700000D01*
X143967633Y-98361325D01*
X143893537Y-98250432D01*
X143775790Y-98074210D01*
X143775787Y-98074208D01*
X137275790Y-91574210D01*
X136988675Y-91382367D01*
X136932484Y-91371190D01*
X136650000Y-91314999D01*
X136649995Y-91315000D01*
X135498536Y-91315000D01*
X135728396Y-91219797D01*
X136116764Y-90872663D01*
X136342727Y-90403331D01*
X136220206Y-90197000D01*
X135177000Y-90197000D01*
X135177000Y-90217000D01*
X134923000Y-90217000D01*
X134923000Y-90197000D01*
X133879794Y-90197000D01*
X133757273Y-90403331D01*
X133983236Y-90872663D01*
X134371604Y-91219797D01*
X134601464Y-91315000D01*
X132748536Y-91315000D01*
X132978396Y-91219797D01*
X133366764Y-90872663D01*
X133592727Y-90403331D01*
X133470206Y-90197000D01*
X132427000Y-90197000D01*
X132427000Y-90217000D01*
X132173000Y-90217000D01*
X132173000Y-90197000D01*
X131129794Y-90197000D01*
X131007273Y-90403331D01*
X131233236Y-90872663D01*
X131621604Y-91219797D01*
X131851464Y-91315000D01*
X130048536Y-91315000D01*
X130278396Y-91219797D01*
X130666764Y-90872663D01*
X130892727Y-90403331D01*
X130770206Y-90197000D01*
X129727000Y-90197000D01*
X129727000Y-90217000D01*
X129473000Y-90217000D01*
X129473000Y-90197000D01*
X128429794Y-90197000D01*
X128307273Y-90403331D01*
X128533236Y-90872663D01*
X128921604Y-91219797D01*
X129151464Y-91315000D01*
X126588578Y-91315000D01*
X125010248Y-89736669D01*
X128307273Y-89736669D01*
X128429794Y-89943000D01*
X129473000Y-89943000D01*
X129473000Y-88900626D01*
X129727000Y-88900626D01*
X129727000Y-89943000D01*
X130770206Y-89943000D01*
X130892727Y-89736669D01*
X131007273Y-89736669D01*
X131129794Y-89943000D01*
X132173000Y-89943000D01*
X132173000Y-88900626D01*
X132427000Y-88900626D01*
X132427000Y-89943000D01*
X133470206Y-89943000D01*
X133592727Y-89736669D01*
X133757273Y-89736669D01*
X133879794Y-89943000D01*
X134923000Y-89943000D01*
X134923000Y-88900626D01*
X135177000Y-88900626D01*
X135177000Y-89943000D01*
X136220206Y-89943000D01*
X136342727Y-89736669D01*
X136116764Y-89267337D01*
X135728396Y-88920203D01*
X135383329Y-88777284D01*
X135177000Y-88900626D01*
X134923000Y-88900626D01*
X134716671Y-88777284D01*
X134371604Y-88920203D01*
X133983236Y-89267337D01*
X133757273Y-89736669D01*
X133592727Y-89736669D01*
X133366764Y-89267337D01*
X132978396Y-88920203D01*
X132633329Y-88777284D01*
X132427000Y-88900626D01*
X132173000Y-88900626D01*
X131966671Y-88777284D01*
X131621604Y-88920203D01*
X131233236Y-89267337D01*
X131007273Y-89736669D01*
X130892727Y-89736669D01*
X130666764Y-89267337D01*
X130278396Y-88920203D01*
X129933329Y-88777284D01*
X129727000Y-88900626D01*
X129473000Y-88900626D01*
X129266671Y-88777284D01*
X128921604Y-88920203D01*
X128533236Y-89267337D01*
X128307273Y-89736669D01*
X125010248Y-89736669D01*
X117434991Y-82161412D01*
X117435240Y-81875721D01*
X117224831Y-81366491D01*
X117058685Y-81200056D01*
X117123852Y-81135003D01*
X134183423Y-81135003D01*
X159565116Y-106516695D01*
X159564760Y-106924285D01*
X159775169Y-107433515D01*
X160164436Y-107823461D01*
X160673298Y-108034759D01*
X161224285Y-108035240D01*
X161733515Y-107824831D01*
X162123461Y-107435564D01*
X162199927Y-107251414D01*
X162275169Y-107433515D01*
X162664436Y-107823461D01*
X163173298Y-108034759D01*
X163724285Y-108035240D01*
X164233515Y-107824831D01*
X164623461Y-107435564D01*
X164724988Y-107191059D01*
X164825169Y-107433515D01*
X165214436Y-107823461D01*
X165723298Y-108034759D01*
X166274285Y-108035240D01*
X166783515Y-107824831D01*
X167173461Y-107435564D01*
X167301703Y-107126723D01*
X167325169Y-107183515D01*
X167714436Y-107573461D01*
X168223298Y-107784759D01*
X168774285Y-107785240D01*
X169283515Y-107574831D01*
X169673461Y-107185564D01*
X169884759Y-106676702D01*
X169885240Y-106125715D01*
X169674831Y-105616485D01*
X169285564Y-105226539D01*
X168776702Y-105015241D01*
X168366462Y-105014883D01*
X136125790Y-72774210D01*
X135889736Y-72616485D01*
X135838675Y-72582367D01*
X135782484Y-72571190D01*
X135500000Y-72514999D01*
X135499995Y-72515000D01*
X117223523Y-72515000D01*
X116935564Y-72226539D01*
X116426702Y-72015241D01*
X115875715Y-72014760D01*
X115366485Y-72225169D01*
X114976539Y-72614436D01*
X114765241Y-73123298D01*
X114764760Y-73674285D01*
X114975169Y-74183515D01*
X115364436Y-74573461D01*
X115402937Y-74589448D01*
X115316485Y-74625169D01*
X114926539Y-75014436D01*
X114715241Y-75523298D01*
X114714760Y-76074285D01*
X114925169Y-76583515D01*
X115314436Y-76973461D01*
X115534003Y-77064633D01*
X115266485Y-77175169D01*
X114876539Y-77564436D01*
X114665241Y-78073298D01*
X114664760Y-78624285D01*
X114875169Y-79133515D01*
X115041315Y-79299950D01*
X114876539Y-79464439D01*
X114665241Y-79973301D01*
X114664760Y-80524288D01*
X114875169Y-81033518D01*
X115041315Y-81199953D01*
X114876539Y-81364442D01*
X114665241Y-81873304D01*
X114664760Y-82424291D01*
X114875169Y-82933521D01*
X115116268Y-83175040D01*
X114926539Y-83364439D01*
X114715241Y-83873301D01*
X114714760Y-84424288D01*
X114925169Y-84933518D01*
X115257835Y-85266764D01*
X115116485Y-85325169D01*
X114726539Y-85714436D01*
X114603402Y-86010983D01*
X114603742Y-85621139D01*
X114391510Y-85107497D01*
X113998870Y-84714171D01*
X113790988Y-84627851D01*
X113996803Y-84542810D01*
X114390129Y-84150170D01*
X114603257Y-83636900D01*
X114603742Y-83081139D01*
X114391510Y-82567497D01*
X113998870Y-82174171D01*
X113790988Y-82087851D01*
X113996803Y-82002810D01*
X114390129Y-81610170D01*
X114603257Y-81096900D01*
X114603742Y-80541139D01*
X114391510Y-80027497D01*
X113998870Y-79634171D01*
X113790988Y-79547851D01*
X113996803Y-79462810D01*
X114390129Y-79070170D01*
X114603257Y-78556900D01*
X114603742Y-78001139D01*
X114391510Y-77487497D01*
X113998870Y-77094171D01*
X113790988Y-77007851D01*
X113996803Y-76922810D01*
X114390129Y-76530170D01*
X114603257Y-76016900D01*
X114603742Y-75461139D01*
X114391510Y-74947497D01*
X113998870Y-74554171D01*
X113790988Y-74467851D01*
X113996803Y-74382810D01*
X114390129Y-73990170D01*
X114603257Y-73476900D01*
X114603742Y-72921139D01*
X114391510Y-72407497D01*
X113998870Y-72014171D01*
X113485600Y-71801043D01*
X112929839Y-71800558D01*
X112416197Y-72012790D01*
X112022871Y-72405430D01*
X111936551Y-72613312D01*
X111851510Y-72407497D01*
X111458870Y-72014171D01*
X110945600Y-71801043D01*
X110389839Y-71800558D01*
X109876197Y-72012790D01*
X109482871Y-72405430D01*
X109396551Y-72613312D01*
X109311510Y-72407497D01*
X108918870Y-72014171D01*
X108405600Y-71801043D01*
X107849839Y-71800558D01*
X107336197Y-72012790D01*
X106942871Y-72405430D01*
X106856551Y-72613312D01*
X106771510Y-72407497D01*
X106378870Y-72014171D01*
X105865600Y-71801043D01*
X105309839Y-71800558D01*
X104796197Y-72012790D01*
X104402871Y-72405430D01*
X104189743Y-72918700D01*
X104189258Y-73474461D01*
X104401490Y-73988103D01*
X104794130Y-74381429D01*
X105002012Y-74467749D01*
X104796197Y-74552790D01*
X104402871Y-74945430D01*
X104189743Y-75458700D01*
X104189258Y-76014461D01*
X104401490Y-76528103D01*
X104794130Y-76921429D01*
X105002012Y-77007749D01*
X104796197Y-77092790D01*
X104402871Y-77485430D01*
X104189743Y-77998700D01*
X104189258Y-78554461D01*
X104401490Y-79068103D01*
X104794130Y-79461429D01*
X105002012Y-79547749D01*
X104796197Y-79632790D01*
X104402871Y-80025430D01*
X104189743Y-80538700D01*
X104189258Y-81094461D01*
X104401490Y-81608103D01*
X104794130Y-82001429D01*
X105002012Y-82087749D01*
X104796197Y-82172790D01*
X104402871Y-82565430D01*
X104189743Y-83078700D01*
X104189258Y-83634461D01*
X104401490Y-84148103D01*
X104794130Y-84541429D01*
X105002012Y-84627749D01*
X104796197Y-84712790D01*
X104402871Y-85105430D01*
X104189743Y-85618700D01*
X104189258Y-86174461D01*
X104401490Y-86688103D01*
X104794130Y-87081429D01*
X105002012Y-87167749D01*
X104796197Y-87252790D01*
X104402871Y-87645430D01*
X104189743Y-88158700D01*
X104189258Y-88714461D01*
X104401490Y-89228103D01*
X104794130Y-89621429D01*
X105002012Y-89707749D01*
X104796197Y-89792790D01*
X104402871Y-90185430D01*
X104189743Y-90698700D01*
X104189258Y-91254461D01*
X104401490Y-91768103D01*
X104794130Y-92161429D01*
X105002012Y-92247749D01*
X104796197Y-92332790D01*
X104402871Y-92725430D01*
X104189743Y-93238700D01*
X104189258Y-93794461D01*
X104401490Y-94308103D01*
X104794130Y-94701429D01*
X105002012Y-94787749D01*
X104796197Y-94872790D01*
X104402871Y-95265430D01*
X104189743Y-95778700D01*
X104189258Y-96334461D01*
X104401490Y-96848103D01*
X104794130Y-97241429D01*
X104986227Y-97321195D01*
X104855357Y-97375403D01*
X104785892Y-97617587D01*
X105586500Y-98418195D01*
X106387108Y-97617587D01*
X106317643Y-97375403D01*
X106177182Y-97325291D01*
X106376803Y-97242810D01*
X106770129Y-96850170D01*
X106856449Y-96642288D01*
X106941490Y-96848103D01*
X107334130Y-97241429D01*
X107542012Y-97327749D01*
X107336197Y-97412790D01*
X106942871Y-97805430D01*
X106863105Y-97997527D01*
X106808897Y-97866657D01*
X106566713Y-97797192D01*
X105766105Y-98597800D01*
X106566713Y-99398408D01*
X106808897Y-99328943D01*
X106859009Y-99188482D01*
X106941490Y-99388103D01*
X107334130Y-99781429D01*
X107526227Y-99861195D01*
X107395357Y-99915403D01*
X107325892Y-100157587D01*
X108126500Y-100958195D01*
X108927108Y-100157587D01*
X108857643Y-99915403D01*
X108717182Y-99865291D01*
X108916803Y-99782810D01*
X109310129Y-99390170D01*
X109396449Y-99182288D01*
X109481490Y-99388103D01*
X109874130Y-99781429D01*
X110082012Y-99867749D01*
X109876197Y-99952790D01*
X109482871Y-100345430D01*
X109403105Y-100537527D01*
X109348897Y-100406657D01*
X109106713Y-100337192D01*
X108306105Y-101137800D01*
X109106713Y-101938408D01*
X109348897Y-101868943D01*
X109399009Y-101728482D01*
X109481490Y-101928103D01*
X109874130Y-102321429D01*
X110082012Y-102407749D01*
X109876197Y-102492790D01*
X109482871Y-102885430D01*
X109396551Y-103093312D01*
X109311510Y-102887497D01*
X108918870Y-102494171D01*
X108726773Y-102414405D01*
X108857643Y-102360197D01*
X108927108Y-102118013D01*
X108126500Y-101317405D01*
X107325892Y-102118013D01*
X107395357Y-102360197D01*
X107535818Y-102410309D01*
X107336197Y-102492790D01*
X106942871Y-102885430D01*
X106856551Y-103093312D01*
X106771510Y-102887497D01*
X106378870Y-102494171D01*
X106186773Y-102414405D01*
X106317643Y-102360197D01*
X106387108Y-102118013D01*
X105586500Y-101317405D01*
X104785892Y-102118013D01*
X104855357Y-102360197D01*
X104995818Y-102410309D01*
X104796197Y-102492790D01*
X104402871Y-102885430D01*
X104189743Y-103398700D01*
X104189258Y-103954461D01*
X104401490Y-104468103D01*
X104794130Y-104861429D01*
X105002012Y-104947749D01*
X104796197Y-105032790D01*
X104402871Y-105425430D01*
X104189743Y-105938700D01*
X104189258Y-106494461D01*
X104401490Y-107008103D01*
X104794130Y-107401429D01*
X105002012Y-107487749D01*
X104796197Y-107572790D01*
X104402871Y-107965430D01*
X104189743Y-108478700D01*
X104189258Y-109034461D01*
X104401490Y-109548103D01*
X104794130Y-109941429D01*
X105002012Y-110027749D01*
X104796197Y-110112790D01*
X104402871Y-110505430D01*
X104189743Y-111018700D01*
X104189258Y-111574461D01*
X104401490Y-112088103D01*
X104794130Y-112481429D01*
X105002012Y-112567749D01*
X104796197Y-112652790D01*
X104402871Y-113045430D01*
X104189743Y-113558700D01*
X104189258Y-114114461D01*
X104401490Y-114628103D01*
X104794130Y-115021429D01*
X105002012Y-115107749D01*
X104796197Y-115192790D01*
X104402871Y-115585430D01*
X104189743Y-116098700D01*
X104189258Y-116654461D01*
X104401490Y-117168103D01*
X104794130Y-117561429D01*
X105002012Y-117647749D01*
X104796197Y-117732790D01*
X104402871Y-118125430D01*
X104189743Y-118638700D01*
X104189258Y-119194461D01*
X104401490Y-119708103D01*
X104794130Y-120101429D01*
X105002012Y-120187749D01*
X104796197Y-120272790D01*
X104402871Y-120665430D01*
X104189743Y-121178700D01*
X104189258Y-121734461D01*
X104401490Y-122248103D01*
X104794130Y-122641429D01*
X105002012Y-122727749D01*
X104796197Y-122812790D01*
X104402871Y-123205430D01*
X104189743Y-123718700D01*
X104189258Y-124274461D01*
X104401490Y-124788103D01*
X104794130Y-125181429D01*
X105002012Y-125267749D01*
X104796197Y-125352790D01*
X104402871Y-125745430D01*
X104189743Y-126258700D01*
X104189258Y-126814461D01*
X104401490Y-127328103D01*
X104794130Y-127721429D01*
X105002012Y-127807749D01*
X104796197Y-127892790D01*
X104402871Y-128285430D01*
X104189743Y-128798700D01*
X104189258Y-129354461D01*
X104401490Y-129868103D01*
X104794130Y-130261429D01*
X105002012Y-130347749D01*
X104796197Y-130432790D01*
X104402871Y-130825430D01*
X104189743Y-131338700D01*
X104189258Y-131894461D01*
X104401490Y-132408103D01*
X104794130Y-132801429D01*
X105002012Y-132887749D01*
X104796197Y-132972790D01*
X104402871Y-133365430D01*
X104189743Y-133878700D01*
X104189258Y-134434461D01*
X104401490Y-134948103D01*
X104794130Y-135341429D01*
X105002012Y-135427749D01*
X104796197Y-135512790D01*
X104402871Y-135905430D01*
X104189743Y-136418700D01*
X104189258Y-136974461D01*
X104401490Y-137488103D01*
X104794130Y-137881429D01*
X105307400Y-138094557D01*
X105863161Y-138095042D01*
X106376803Y-137882810D01*
X106770129Y-137490170D01*
X106856449Y-137282288D01*
X106941490Y-137488103D01*
X107334130Y-137881429D01*
X107847400Y-138094557D01*
X108403161Y-138095042D01*
X108916803Y-137882810D01*
X109310129Y-137490170D01*
X109396449Y-137282288D01*
X109481490Y-137488103D01*
X109874130Y-137881429D01*
X110387400Y-138094557D01*
X110943161Y-138095042D01*
X111456803Y-137882810D01*
X111850129Y-137490170D01*
X111936449Y-137282288D01*
X112021490Y-137488103D01*
X112414130Y-137881429D01*
X112927400Y-138094557D01*
X113483161Y-138095042D01*
X113996803Y-137882810D01*
X114390129Y-137490170D01*
X114465000Y-137309860D01*
X114465000Y-139426477D01*
X114176539Y-139714436D01*
X113965241Y-140223298D01*
X113964760Y-140774285D01*
X114175169Y-141283515D01*
X114564436Y-141673461D01*
X115073298Y-141884759D01*
X115624285Y-141885240D01*
X116133515Y-141674831D01*
X116523461Y-141285564D01*
X116734759Y-140776702D01*
X116735240Y-140225715D01*
X116524831Y-139716485D01*
X116235000Y-139426148D01*
X116235000Y-135724285D01*
X119014760Y-135724285D01*
X119225169Y-136233515D01*
X119614436Y-136623461D01*
X120123298Y-136834759D01*
X120664969Y-136835232D01*
X120664760Y-137074285D01*
X120875169Y-137583515D01*
X121264436Y-137973461D01*
X121773298Y-138184759D01*
X122324285Y-138185240D01*
X122833515Y-137974831D01*
X123223461Y-137585564D01*
X123434759Y-137076702D01*
X123435000Y-136800000D01*
X138052560Y-136800000D01*
X138052560Y-139200000D01*
X138101843Y-139447765D01*
X138242191Y-139657809D01*
X138452235Y-139798157D01*
X138700000Y-139847440D01*
X140300000Y-139847440D01*
X140547765Y-139798157D01*
X140757809Y-139657809D01*
X140898157Y-139447765D01*
X140926882Y-139303352D01*
X141025302Y-139450648D01*
X141490849Y-139761717D01*
X142040000Y-139870950D01*
X142589151Y-139761717D01*
X143054698Y-139450648D01*
X143310000Y-139068562D01*
X143565302Y-139450648D01*
X144030849Y-139761717D01*
X144580000Y-139870950D01*
X145129151Y-139761717D01*
X145594698Y-139450648D01*
X145847507Y-139072293D01*
X146195104Y-139504500D01*
X146688181Y-139774367D01*
X146770961Y-139791904D01*
X146993000Y-139669915D01*
X146993000Y-138127000D01*
X147247000Y-138127000D01*
X147247000Y-139669915D01*
X147469039Y-139791904D01*
X147551819Y-139774367D01*
X148044896Y-139504500D01*
X148390000Y-139075393D01*
X148735104Y-139504500D01*
X149228181Y-139774367D01*
X149310961Y-139791904D01*
X149533000Y-139669915D01*
X149533000Y-138127000D01*
X147247000Y-138127000D01*
X146993000Y-138127000D01*
X146973000Y-138127000D01*
X146973000Y-137873000D01*
X146993000Y-137873000D01*
X146993000Y-136330085D01*
X147247000Y-136330085D01*
X147247000Y-137873000D01*
X149533000Y-137873000D01*
X149533000Y-136330085D01*
X149787000Y-136330085D01*
X149787000Y-137873000D01*
X149807000Y-137873000D01*
X149807000Y-138127000D01*
X149787000Y-138127000D01*
X149787000Y-139669915D01*
X150009039Y-139791904D01*
X150091819Y-139774367D01*
X150584896Y-139504500D01*
X150932493Y-139072293D01*
X151185302Y-139450648D01*
X151650849Y-139761717D01*
X151841384Y-139799617D01*
X151826539Y-139814436D01*
X151615241Y-140323298D01*
X151614760Y-140874285D01*
X151825169Y-141383515D01*
X152214436Y-141773461D01*
X152723298Y-141984759D01*
X153133538Y-141985117D01*
X154074208Y-142925787D01*
X154074210Y-142925790D01*
X154361325Y-143117633D01*
X154417516Y-143128810D01*
X154700000Y-143185001D01*
X154700005Y-143185000D01*
X173876477Y-143185000D01*
X174164436Y-143473461D01*
X174673298Y-143684759D01*
X175224285Y-143685240D01*
X175733515Y-143474831D01*
X176123461Y-143085564D01*
X176334759Y-142576702D01*
X176335240Y-142025715D01*
X176124831Y-141516485D01*
X175735564Y-141126539D01*
X175226702Y-140915241D01*
X174675715Y-140914760D01*
X174166485Y-141125169D01*
X173876148Y-141415000D01*
X163035809Y-141415000D01*
X163134759Y-141176702D01*
X163135117Y-140766462D01*
X163725787Y-140175792D01*
X163725790Y-140175790D01*
X163917633Y-139888675D01*
X163953838Y-139706661D01*
X172522758Y-139706661D01*
X172734990Y-140220303D01*
X173127630Y-140613629D01*
X173640900Y-140826757D01*
X174196661Y-140827242D01*
X174710303Y-140615010D01*
X174915457Y-140410213D01*
X175659392Y-140410213D01*
X175728857Y-140652397D01*
X176252302Y-140839144D01*
X176807368Y-140811362D01*
X177191143Y-140652397D01*
X177260608Y-140410213D01*
X176460000Y-139609605D01*
X175659392Y-140410213D01*
X174915457Y-140410213D01*
X175103629Y-140222370D01*
X175183395Y-140030273D01*
X175237603Y-140161143D01*
X175479787Y-140230608D01*
X176280395Y-139430000D01*
X176639605Y-139430000D01*
X177440213Y-140230608D01*
X177682397Y-140161143D01*
X177732509Y-140020682D01*
X177814990Y-140220303D01*
X178207630Y-140613629D01*
X178720900Y-140826757D01*
X179276661Y-140827242D01*
X179790303Y-140615010D01*
X180183629Y-140222370D01*
X180269949Y-140014488D01*
X180354990Y-140220303D01*
X180747630Y-140613629D01*
X181260900Y-140826757D01*
X181816661Y-140827242D01*
X182330303Y-140615010D01*
X182723629Y-140222370D01*
X182809949Y-140014488D01*
X182894990Y-140220303D01*
X183287630Y-140613629D01*
X183800900Y-140826757D01*
X184356661Y-140827242D01*
X184870303Y-140615010D01*
X185263629Y-140222370D01*
X185476757Y-139709100D01*
X185477242Y-139153339D01*
X185265010Y-138639697D01*
X184872370Y-138246371D01*
X184359100Y-138033243D01*
X183803339Y-138032758D01*
X183289697Y-138244990D01*
X182896371Y-138637630D01*
X182810051Y-138845512D01*
X182725010Y-138639697D01*
X182332370Y-138246371D01*
X181819100Y-138033243D01*
X181263339Y-138032758D01*
X180749697Y-138244990D01*
X180356371Y-138637630D01*
X180270051Y-138845512D01*
X180185010Y-138639697D01*
X179792370Y-138246371D01*
X179279100Y-138033243D01*
X178723339Y-138032758D01*
X178209697Y-138244990D01*
X177816371Y-138637630D01*
X177736605Y-138829727D01*
X177682397Y-138698857D01*
X177440213Y-138629392D01*
X176639605Y-139430000D01*
X176280395Y-139430000D01*
X175479787Y-138629392D01*
X175237603Y-138698857D01*
X175187491Y-138839318D01*
X175105010Y-138639697D01*
X174915432Y-138449787D01*
X175659392Y-138449787D01*
X176460000Y-139250395D01*
X177260608Y-138449787D01*
X177191143Y-138207603D01*
X176667698Y-138020856D01*
X176112632Y-138048638D01*
X175728857Y-138207603D01*
X175659392Y-138449787D01*
X174915432Y-138449787D01*
X174712370Y-138246371D01*
X174199100Y-138033243D01*
X173643339Y-138032758D01*
X173129697Y-138244990D01*
X172736371Y-138637630D01*
X172523243Y-139150900D01*
X172522758Y-139706661D01*
X163953838Y-139706661D01*
X163985000Y-139550000D01*
X163985000Y-134223523D01*
X164273461Y-133935564D01*
X164484759Y-133426702D01*
X164485240Y-132875715D01*
X164274831Y-132366485D01*
X163885564Y-131976539D01*
X163376702Y-131765241D01*
X162825715Y-131764760D01*
X162316485Y-131975169D01*
X161926539Y-132364436D01*
X161715241Y-132873298D01*
X161714760Y-133424285D01*
X161925169Y-133933515D01*
X162215000Y-134223852D01*
X162215000Y-139183421D01*
X161883305Y-139515116D01*
X161475715Y-139514760D01*
X160966485Y-139725169D01*
X160576539Y-140114436D01*
X160365241Y-140623298D01*
X160364760Y-141174285D01*
X160464221Y-141415000D01*
X156483712Y-141415000D01*
X156563852Y-141335000D01*
X157280618Y-141335000D01*
X157280623Y-141335001D01*
X157563107Y-141278810D01*
X157619298Y-141267633D01*
X157906413Y-141075790D01*
X160390737Y-138591465D01*
X160390740Y-138591463D01*
X160582583Y-138304348D01*
X160624217Y-138095042D01*
X160649951Y-137965673D01*
X160649950Y-137965668D01*
X160649950Y-134258573D01*
X160938411Y-133970614D01*
X161149709Y-133461752D01*
X161150190Y-132910765D01*
X160939781Y-132401535D01*
X160550514Y-132011589D01*
X160041652Y-131800291D01*
X159490665Y-131799810D01*
X158981435Y-132010219D01*
X158591489Y-132399486D01*
X158380191Y-132908348D01*
X158379710Y-133459335D01*
X158590119Y-133968565D01*
X158879950Y-134258902D01*
X158879950Y-137599094D01*
X158715000Y-137764044D01*
X158715000Y-137564050D01*
X158605767Y-137014899D01*
X158294698Y-136549352D01*
X157829151Y-136238283D01*
X157280000Y-136129050D01*
X156730849Y-136238283D01*
X156265302Y-136549352D01*
X156010000Y-136931438D01*
X155754698Y-136549352D01*
X155289151Y-136238283D01*
X154740000Y-136129050D01*
X154190849Y-136238283D01*
X153725302Y-136549352D01*
X153470000Y-136931438D01*
X153214698Y-136549352D01*
X152749151Y-136238283D01*
X152200000Y-136129050D01*
X151650849Y-136238283D01*
X151185302Y-136549352D01*
X150932493Y-136927707D01*
X150584896Y-136495500D01*
X150091819Y-136225633D01*
X150009039Y-136208096D01*
X149787000Y-136330085D01*
X149533000Y-136330085D01*
X149310961Y-136208096D01*
X149228181Y-136225633D01*
X148735104Y-136495500D01*
X148390000Y-136924607D01*
X148044896Y-136495500D01*
X147551819Y-136225633D01*
X147469039Y-136208096D01*
X147247000Y-136330085D01*
X146993000Y-136330085D01*
X146770961Y-136208096D01*
X146688181Y-136225633D01*
X146195104Y-136495500D01*
X145847507Y-136927707D01*
X145594698Y-136549352D01*
X145129151Y-136238283D01*
X144580000Y-136129050D01*
X144030849Y-136238283D01*
X143565302Y-136549352D01*
X143310000Y-136931438D01*
X143054698Y-136549352D01*
X142589151Y-136238283D01*
X142040000Y-136129050D01*
X141490849Y-136238283D01*
X141025302Y-136549352D01*
X140926882Y-136696648D01*
X140898157Y-136552235D01*
X140757809Y-136342191D01*
X140547765Y-136201843D01*
X140300000Y-136152560D01*
X138700000Y-136152560D01*
X138452235Y-136201843D01*
X138242191Y-136342191D01*
X138101843Y-136552235D01*
X138052560Y-136800000D01*
X123435000Y-136800000D01*
X123435117Y-136666463D01*
X133716579Y-126385000D01*
X135726477Y-126385000D01*
X136014436Y-126673461D01*
X136288964Y-126787455D01*
X134924210Y-128152208D01*
X134732367Y-128439323D01*
X134732367Y-128439324D01*
X134664999Y-128777998D01*
X134665000Y-128778003D01*
X134665000Y-129876477D01*
X134376539Y-130164436D01*
X134165241Y-130673298D01*
X134164760Y-131224285D01*
X134375169Y-131733515D01*
X134764436Y-132123461D01*
X135273298Y-132334759D01*
X135824285Y-132335240D01*
X136333515Y-132124831D01*
X136723461Y-131735564D01*
X136934759Y-131226702D01*
X136935101Y-130834988D01*
X137224285Y-130835240D01*
X137733515Y-130624831D01*
X138065000Y-130293923D01*
X138065000Y-130815950D01*
X138174233Y-131365101D01*
X138485302Y-131830648D01*
X138950849Y-132141717D01*
X139500000Y-132250950D01*
X140049151Y-132141717D01*
X140514698Y-131830648D01*
X140770000Y-131448562D01*
X141025302Y-131830648D01*
X141490849Y-132141717D01*
X142040000Y-132250950D01*
X142589151Y-132141717D01*
X143054698Y-131830648D01*
X143310000Y-131448562D01*
X143565302Y-131830648D01*
X144030849Y-132141717D01*
X144580000Y-132250950D01*
X145129151Y-132141717D01*
X145594698Y-131830648D01*
X145847507Y-131452293D01*
X146195104Y-131884500D01*
X146688181Y-132154367D01*
X146770961Y-132171904D01*
X146993000Y-132049915D01*
X146993000Y-130507000D01*
X147247000Y-130507000D01*
X147247000Y-132049915D01*
X147469039Y-132171904D01*
X147551819Y-132154367D01*
X148044896Y-131884500D01*
X148390000Y-131455393D01*
X148735104Y-131884500D01*
X149228181Y-132154367D01*
X149310961Y-132171904D01*
X149533000Y-132049915D01*
X149533000Y-130507000D01*
X147247000Y-130507000D01*
X146993000Y-130507000D01*
X146973000Y-130507000D01*
X146973000Y-130253000D01*
X146993000Y-130253000D01*
X146993000Y-128710085D01*
X147247000Y-128710085D01*
X147247000Y-130253000D01*
X149533000Y-130253000D01*
X149533000Y-128710085D01*
X149787000Y-128710085D01*
X149787000Y-130253000D01*
X149807000Y-130253000D01*
X149807000Y-130507000D01*
X149787000Y-130507000D01*
X149787000Y-132049915D01*
X150009039Y-132171904D01*
X150091819Y-132154367D01*
X150584896Y-131884500D01*
X150932493Y-131452293D01*
X151185302Y-131830648D01*
X151650849Y-132141717D01*
X152200000Y-132250950D01*
X152749151Y-132141717D01*
X153214698Y-131830648D01*
X153470000Y-131448562D01*
X153725302Y-131830648D01*
X154190849Y-132141717D01*
X154740000Y-132250950D01*
X155289151Y-132141717D01*
X155754698Y-131830648D01*
X156010000Y-131448562D01*
X156265302Y-131830648D01*
X156730849Y-132141717D01*
X157280000Y-132250950D01*
X157829151Y-132141717D01*
X158294698Y-131830648D01*
X158605767Y-131365101D01*
X158715000Y-130815950D01*
X158715000Y-129944050D01*
X158605767Y-129394899D01*
X158294698Y-128929352D01*
X157829151Y-128618283D01*
X157280000Y-128509050D01*
X156730849Y-128618283D01*
X156265302Y-128929352D01*
X156010000Y-129311438D01*
X155754698Y-128929352D01*
X155289151Y-128618283D01*
X154740000Y-128509050D01*
X154190849Y-128618283D01*
X153725302Y-128929352D01*
X153470000Y-129311438D01*
X153214698Y-128929352D01*
X152749151Y-128618283D01*
X152200000Y-128509050D01*
X151650849Y-128618283D01*
X151185302Y-128929352D01*
X150932493Y-129307707D01*
X150584896Y-128875500D01*
X150091819Y-128605633D01*
X150009039Y-128588096D01*
X149787000Y-128710085D01*
X149533000Y-128710085D01*
X149310961Y-128588096D01*
X149228181Y-128605633D01*
X148735104Y-128875500D01*
X148390000Y-129304607D01*
X148044896Y-128875500D01*
X147551819Y-128605633D01*
X147469039Y-128588096D01*
X147247000Y-128710085D01*
X146993000Y-128710085D01*
X146770961Y-128588096D01*
X146688181Y-128605633D01*
X146195104Y-128875500D01*
X145847507Y-129307707D01*
X145594698Y-128929352D01*
X145285663Y-128722861D01*
X145573461Y-128435564D01*
X145784759Y-127926702D01*
X145785117Y-127516462D01*
X146366579Y-126935000D01*
X151426477Y-126935000D01*
X151714436Y-127223461D01*
X152223298Y-127434759D01*
X152774285Y-127435240D01*
X153283515Y-127224831D01*
X153673461Y-126835564D01*
X153884759Y-126326702D01*
X153885240Y-125775715D01*
X153674831Y-125266485D01*
X153285564Y-124876539D01*
X152776702Y-124665241D01*
X152225715Y-124664760D01*
X151716485Y-124875169D01*
X151426148Y-125165000D01*
X147175113Y-125165000D01*
X147274063Y-124926702D01*
X147274544Y-124375715D01*
X147064135Y-123866485D01*
X146674868Y-123476539D01*
X146166006Y-123265241D01*
X145615019Y-123264760D01*
X145105789Y-123475169D01*
X144815452Y-123765000D01*
X142757903Y-123765000D01*
X142757898Y-123764999D01*
X142475414Y-123821190D01*
X142419223Y-123832367D01*
X142132108Y-124024210D01*
X142132106Y-124024213D01*
X140817150Y-125339169D01*
X140817242Y-125233339D01*
X140605010Y-124719697D01*
X140212370Y-124326371D01*
X140004488Y-124240051D01*
X140210303Y-124155010D01*
X140603629Y-123762370D01*
X140816757Y-123249100D01*
X140817242Y-122693339D01*
X140605010Y-122179697D01*
X140212370Y-121786371D01*
X140020273Y-121706605D01*
X140151143Y-121652397D01*
X140187889Y-121524285D01*
X147814760Y-121524285D01*
X148025169Y-122033515D01*
X148414436Y-122423461D01*
X148923298Y-122634759D01*
X149338176Y-122635121D01*
X149611324Y-122817632D01*
X149644394Y-122824210D01*
X149949999Y-122885000D01*
X149950004Y-122884999D01*
X154133419Y-122884999D01*
X158774208Y-127525787D01*
X158774210Y-127525790D01*
X159061325Y-127717633D01*
X159117516Y-127728810D01*
X159400000Y-127785001D01*
X159400005Y-127785000D01*
X162026477Y-127785000D01*
X162314436Y-128073461D01*
X162823298Y-128284759D01*
X163374285Y-128285240D01*
X163883515Y-128074831D01*
X164273461Y-127685564D01*
X164484759Y-127176702D01*
X164485240Y-126625715D01*
X164274831Y-126116485D01*
X163885564Y-125726539D01*
X163376702Y-125515241D01*
X162825715Y-125514760D01*
X162316485Y-125725169D01*
X162026148Y-126015000D01*
X159766579Y-126015000D01*
X155125789Y-121374209D01*
X155089557Y-121350000D01*
X154838674Y-121182366D01*
X154782483Y-121171189D01*
X154499999Y-121114998D01*
X154499994Y-121114999D01*
X150585118Y-121114999D01*
X150585240Y-120975715D01*
X150374831Y-120466485D01*
X149985564Y-120076539D01*
X149476702Y-119865241D01*
X148925715Y-119864760D01*
X148416485Y-120075169D01*
X148026539Y-120464436D01*
X147815241Y-120973298D01*
X147814760Y-121524285D01*
X140187889Y-121524285D01*
X140220608Y-121410213D01*
X139420000Y-120609605D01*
X138619392Y-121410213D01*
X138688857Y-121652397D01*
X138829318Y-121702509D01*
X138629697Y-121784990D01*
X138236371Y-122177630D01*
X138038284Y-122654678D01*
X137844831Y-122186485D01*
X137455564Y-121796539D01*
X136946702Y-121585241D01*
X136395715Y-121584760D01*
X135886485Y-121795169D01*
X135596148Y-122085000D01*
X132880005Y-122085000D01*
X132880000Y-122084999D01*
X132541325Y-122152367D01*
X132254210Y-122344210D01*
X132254208Y-122344213D01*
X120533304Y-134065116D01*
X120125715Y-134064760D01*
X119616485Y-134275169D01*
X119226539Y-134664436D01*
X119015241Y-135173298D01*
X119014760Y-135724285D01*
X116235000Y-135724285D01*
X116235000Y-128785162D01*
X116324285Y-128785240D01*
X116833515Y-128574831D01*
X117211831Y-128197174D01*
X117587630Y-128573629D01*
X117819654Y-128669974D01*
X117589697Y-128764990D01*
X117196371Y-129157630D01*
X116983243Y-129670900D01*
X116982758Y-130226661D01*
X117194990Y-130740303D01*
X117565119Y-131111079D01*
X117370235Y-131149843D01*
X117160191Y-131290191D01*
X117019843Y-131500235D01*
X116970560Y-131748000D01*
X116970560Y-133272000D01*
X117019843Y-133519765D01*
X117160191Y-133729809D01*
X117370235Y-133870157D01*
X117618000Y-133919440D01*
X119142000Y-133919440D01*
X119389765Y-133870157D01*
X119599809Y-133729809D01*
X119740157Y-133519765D01*
X119789440Y-133272000D01*
X119789440Y-131748000D01*
X119740157Y-131500235D01*
X119599809Y-131290191D01*
X119389765Y-131149843D01*
X119194377Y-131110978D01*
X119563629Y-130742370D01*
X119776757Y-130229100D01*
X119777242Y-129673339D01*
X119565010Y-129159697D01*
X119172370Y-128766371D01*
X118940346Y-128670026D01*
X119170303Y-128575010D01*
X119563629Y-128182370D01*
X119776757Y-127669100D01*
X119777242Y-127113339D01*
X119565010Y-126599697D01*
X119172370Y-126206371D01*
X118956160Y-126116593D01*
X119111143Y-126052397D01*
X119180608Y-125810213D01*
X118380000Y-125009605D01*
X117579392Y-125810213D01*
X117648857Y-126052397D01*
X117815293Y-126111776D01*
X117589697Y-126204990D01*
X117201198Y-126592811D01*
X116835564Y-126226539D01*
X116326702Y-126015241D01*
X115775715Y-126014760D01*
X115266485Y-126225169D01*
X114876539Y-126614436D01*
X114665241Y-127123298D01*
X114664857Y-127563038D01*
X114532367Y-127761325D01*
X114532367Y-127761326D01*
X114464999Y-128100000D01*
X114465000Y-128100005D01*
X114465000Y-128465357D01*
X114391510Y-128287497D01*
X113998870Y-127894171D01*
X113790988Y-127807851D01*
X113996803Y-127722810D01*
X114390129Y-127330170D01*
X114603257Y-126816900D01*
X114603742Y-126261139D01*
X114391510Y-125747497D01*
X113998870Y-125354171D01*
X113790988Y-125267851D01*
X113996803Y-125182810D01*
X114390129Y-124790170D01*
X114459833Y-124622302D01*
X116970856Y-124622302D01*
X116998638Y-125177368D01*
X117157603Y-125561143D01*
X117399787Y-125630608D01*
X118200395Y-124830000D01*
X118559605Y-124830000D01*
X119360213Y-125630608D01*
X119602397Y-125561143D01*
X119789144Y-125037698D01*
X119761362Y-124482632D01*
X119602397Y-124098857D01*
X119360213Y-124029392D01*
X118559605Y-124830000D01*
X118200395Y-124830000D01*
X117399787Y-124029392D01*
X117157603Y-124098857D01*
X116970856Y-124622302D01*
X114459833Y-124622302D01*
X114603257Y-124276900D01*
X114603742Y-123721139D01*
X114391510Y-123207497D01*
X113998870Y-122814171D01*
X113790988Y-122727851D01*
X113996803Y-122642810D01*
X114390129Y-122250170D01*
X114603257Y-121736900D01*
X114603742Y-121181139D01*
X114391510Y-120667497D01*
X113998870Y-120274171D01*
X113790988Y-120187851D01*
X113996803Y-120102810D01*
X114390129Y-119710170D01*
X114603257Y-119196900D01*
X114603742Y-118641139D01*
X114391510Y-118127497D01*
X113998870Y-117734171D01*
X113790988Y-117647851D01*
X113996803Y-117562810D01*
X114390129Y-117170170D01*
X114603257Y-116656900D01*
X114603742Y-116101139D01*
X114391510Y-115587497D01*
X113998870Y-115194171D01*
X113790988Y-115107851D01*
X113996803Y-115022810D01*
X114390129Y-114630170D01*
X114603257Y-114116900D01*
X114603742Y-113561139D01*
X114391510Y-113047497D01*
X113998870Y-112654171D01*
X113790988Y-112567851D01*
X113996803Y-112482810D01*
X114390129Y-112090170D01*
X114603257Y-111576900D01*
X114603742Y-111021139D01*
X114391510Y-110507497D01*
X113998870Y-110114171D01*
X113790988Y-110027851D01*
X113996803Y-109942810D01*
X114390129Y-109550170D01*
X114603257Y-109036900D01*
X114603742Y-108481139D01*
X114391510Y-107967497D01*
X113998870Y-107574171D01*
X113790988Y-107487851D01*
X113996803Y-107402810D01*
X114390129Y-107010170D01*
X114603257Y-106496900D01*
X114603742Y-105941139D01*
X114391510Y-105427497D01*
X113998870Y-105034171D01*
X113790988Y-104947851D01*
X113996803Y-104862810D01*
X114390129Y-104470170D01*
X114603257Y-103956900D01*
X114603742Y-103401139D01*
X114391510Y-102887497D01*
X113998870Y-102494171D01*
X113790988Y-102407851D01*
X113996803Y-102322810D01*
X114390129Y-101930170D01*
X114603257Y-101416900D01*
X114603742Y-100861139D01*
X114391510Y-100347497D01*
X113998870Y-99954171D01*
X113790988Y-99867851D01*
X113996803Y-99782810D01*
X114390129Y-99390170D01*
X114603257Y-98876900D01*
X114603742Y-98321139D01*
X114391510Y-97807497D01*
X113998870Y-97414171D01*
X113790988Y-97327851D01*
X113996803Y-97242810D01*
X114390129Y-96850170D01*
X114603257Y-96336900D01*
X114603742Y-95781139D01*
X114391510Y-95267497D01*
X113998870Y-94874171D01*
X113790988Y-94787851D01*
X113996803Y-94702810D01*
X114390129Y-94310170D01*
X114603257Y-93796900D01*
X114603742Y-93241139D01*
X114391510Y-92727497D01*
X113998870Y-92334171D01*
X113790988Y-92247851D01*
X113996803Y-92162810D01*
X114390129Y-91770170D01*
X114603257Y-91256900D01*
X114603742Y-90701139D01*
X114391510Y-90187497D01*
X113998870Y-89794171D01*
X113790988Y-89707851D01*
X113996803Y-89622810D01*
X114390129Y-89230170D01*
X114603257Y-88716900D01*
X114603742Y-88161139D01*
X114391510Y-87647497D01*
X113998870Y-87254171D01*
X113790988Y-87167851D01*
X113996803Y-87082810D01*
X114390129Y-86690170D01*
X114515096Y-86389215D01*
X114514760Y-86774285D01*
X114725169Y-87283515D01*
X115114436Y-87673461D01*
X115623298Y-87884759D01*
X116033537Y-87885117D01*
X122015000Y-93866579D01*
X122015000Y-106604475D01*
X121726539Y-106892434D01*
X121515241Y-107401296D01*
X121514938Y-107748557D01*
X118340592Y-104574210D01*
X118205491Y-104483939D01*
X118053477Y-104382367D01*
X117997286Y-104371190D01*
X117714802Y-104314999D01*
X117714797Y-104315000D01*
X117173523Y-104315000D01*
X116885564Y-104026539D01*
X116376702Y-103815241D01*
X115825715Y-103814760D01*
X115316485Y-104025169D01*
X114926539Y-104414436D01*
X114715241Y-104923298D01*
X114714760Y-105474285D01*
X114925169Y-105983515D01*
X115314436Y-106373461D01*
X115823298Y-106584759D01*
X116374285Y-106585240D01*
X116883515Y-106374831D01*
X117173852Y-106085000D01*
X117348222Y-106085000D01*
X120252991Y-108989768D01*
X120119740Y-108989652D01*
X119380714Y-109295012D01*
X118814799Y-109859940D01*
X118508150Y-110598432D01*
X118507452Y-111398060D01*
X118812812Y-112137086D01*
X119377740Y-112703001D01*
X120116232Y-113009650D01*
X120855925Y-113010296D01*
X119124210Y-114742010D01*
X118932367Y-115029125D01*
X118932367Y-115029126D01*
X118864999Y-115367800D01*
X118865000Y-115367805D01*
X118865000Y-115526477D01*
X118576539Y-115814436D01*
X118365241Y-116323298D01*
X118364760Y-116874285D01*
X118484914Y-117165081D01*
X118117716Y-117164760D01*
X117608486Y-117375169D01*
X117218540Y-117764436D01*
X117007242Y-118273298D01*
X117006761Y-118824285D01*
X117217170Y-119333515D01*
X117480288Y-119597092D01*
X117218540Y-119858385D01*
X117007242Y-120367247D01*
X117006761Y-120918234D01*
X117217170Y-121427464D01*
X117419652Y-121630300D01*
X117218540Y-121831062D01*
X117007242Y-122339924D01*
X117006761Y-122890911D01*
X117217170Y-123400141D01*
X117598730Y-123782367D01*
X117579392Y-123849787D01*
X118380000Y-124650395D01*
X119180608Y-123849787D01*
X119165111Y-123795756D01*
X119175516Y-123791457D01*
X119465853Y-123501626D01*
X123197275Y-123501626D01*
X123270816Y-123679610D01*
X123660083Y-124069556D01*
X124168945Y-124280854D01*
X124719932Y-124281335D01*
X125229162Y-124070926D01*
X125619108Y-123681659D01*
X125830406Y-123172797D01*
X125830790Y-122732552D01*
X126333515Y-122524831D01*
X126723461Y-122135564D01*
X126934759Y-121626702D01*
X126935240Y-121075715D01*
X126724831Y-120566485D01*
X126381248Y-120222302D01*
X138010856Y-120222302D01*
X138038638Y-120777368D01*
X138197603Y-121161143D01*
X138439787Y-121230608D01*
X139240395Y-120430000D01*
X138439787Y-119629392D01*
X138197603Y-119698857D01*
X138010856Y-120222302D01*
X126381248Y-120222302D01*
X126335564Y-120176539D01*
X125826702Y-119965241D01*
X125584899Y-119965030D01*
X125585239Y-119575715D01*
X125485778Y-119335000D01*
X135376477Y-119335000D01*
X135664436Y-119623461D01*
X136173298Y-119834759D01*
X136724285Y-119835240D01*
X137233515Y-119624831D01*
X137623461Y-119235564D01*
X137834759Y-118726702D01*
X137835240Y-118175715D01*
X137624831Y-117666485D01*
X137244011Y-117285001D01*
X138158568Y-117285001D01*
X138023243Y-117610900D01*
X138022758Y-118166661D01*
X138234990Y-118680303D01*
X138627630Y-119073629D01*
X138819727Y-119153395D01*
X138688857Y-119207603D01*
X138619392Y-119449787D01*
X139420000Y-120250395D01*
X139434143Y-120236253D01*
X139613748Y-120415858D01*
X139599605Y-120430000D01*
X140400213Y-121230608D01*
X140642397Y-121161143D01*
X140829144Y-120637698D01*
X140801362Y-120082632D01*
X140642397Y-119698857D01*
X140400215Y-119629393D01*
X140492609Y-119536999D01*
X157735419Y-119536999D01*
X161515116Y-123316695D01*
X161514760Y-123724285D01*
X161725169Y-124233515D01*
X162114436Y-124623461D01*
X162623298Y-124834759D01*
X163174285Y-124835240D01*
X163683515Y-124624831D01*
X164073461Y-124235564D01*
X164284759Y-123726702D01*
X164285240Y-123175715D01*
X164074831Y-122666485D01*
X163685564Y-122276539D01*
X163176702Y-122065241D01*
X162766462Y-122064883D01*
X158727789Y-118026209D01*
X158638812Y-117966757D01*
X158440674Y-117834366D01*
X158384483Y-117823189D01*
X158101999Y-117766998D01*
X158101994Y-117766999D01*
X157061289Y-117766999D01*
X157197791Y-117675792D01*
X157197792Y-117675791D01*
X158838571Y-116035011D01*
X172629497Y-116035011D01*
X172523243Y-116290900D01*
X172522758Y-116846661D01*
X172734990Y-117360303D01*
X173127630Y-117753629D01*
X173640900Y-117966757D01*
X174196661Y-117967242D01*
X174710303Y-117755010D01*
X175103629Y-117362370D01*
X175189949Y-117154488D01*
X175274990Y-117360303D01*
X175667630Y-117753629D01*
X176180900Y-117966757D01*
X176736661Y-117967242D01*
X177250303Y-117755010D01*
X177643629Y-117362370D01*
X177729949Y-117154488D01*
X177814990Y-117360303D01*
X178207630Y-117753629D01*
X178720900Y-117966757D01*
X179276661Y-117967242D01*
X179790303Y-117755010D01*
X180183629Y-117362370D01*
X180269949Y-117154488D01*
X180354990Y-117360303D01*
X180747630Y-117753629D01*
X181260900Y-117966757D01*
X181816661Y-117967242D01*
X182330303Y-117755010D01*
X182723629Y-117362370D01*
X182809949Y-117154488D01*
X182894990Y-117360303D01*
X183287630Y-117753629D01*
X183800900Y-117966757D01*
X184356661Y-117967242D01*
X184870303Y-117755010D01*
X185263629Y-117362370D01*
X185476757Y-116849100D01*
X185477242Y-116293339D01*
X185265010Y-115779697D01*
X184872370Y-115386371D01*
X184359100Y-115173243D01*
X183803339Y-115172758D01*
X183289697Y-115384990D01*
X182896371Y-115777630D01*
X182810051Y-115985512D01*
X182725010Y-115779697D01*
X182628378Y-115682896D01*
X182734759Y-115426702D01*
X182735240Y-114875715D01*
X182524831Y-114366485D01*
X182227500Y-114068635D01*
X182333515Y-114024831D01*
X182723461Y-113635564D01*
X182934759Y-113126702D01*
X182935240Y-112575715D01*
X182839209Y-112343301D01*
X195783100Y-125287192D01*
X195783100Y-149180000D01*
X101191100Y-149180000D01*
X101191100Y-145922815D01*
X113204630Y-145922815D01*
X113528980Y-146707800D01*
X114129041Y-147308909D01*
X114913459Y-147634628D01*
X115762815Y-147635370D01*
X116547800Y-147311020D01*
X117148909Y-146710959D01*
X117474628Y-145926541D01*
X117474631Y-145922815D01*
X118284630Y-145922815D01*
X118608980Y-146707800D01*
X119209041Y-147308909D01*
X119993459Y-147634628D01*
X120842815Y-147635370D01*
X121627800Y-147311020D01*
X122228909Y-146710959D01*
X122554628Y-145926541D01*
X122555370Y-145077185D01*
X122231020Y-144292200D01*
X121939330Y-144000000D01*
X123352560Y-144000000D01*
X123352560Y-147000000D01*
X123401843Y-147247765D01*
X123542191Y-147457809D01*
X123752235Y-147598157D01*
X124000000Y-147647440D01*
X127000000Y-147647440D01*
X127247765Y-147598157D01*
X127457809Y-147457809D01*
X127598157Y-147247765D01*
X127647440Y-147000000D01*
X127647440Y-145922815D01*
X130204630Y-145922815D01*
X130528980Y-146707800D01*
X131129041Y-147308909D01*
X131913459Y-147634628D01*
X132762815Y-147635370D01*
X133547800Y-147311020D01*
X134148909Y-146710959D01*
X134474628Y-145926541D01*
X134474631Y-145922815D01*
X135284630Y-145922815D01*
X135608980Y-146707800D01*
X136209041Y-147308909D01*
X136993459Y-147634628D01*
X137842815Y-147635370D01*
X138627800Y-147311020D01*
X139228909Y-146710959D01*
X139554628Y-145926541D01*
X139555370Y-145077185D01*
X139231020Y-144292200D01*
X138939330Y-144000000D01*
X140352560Y-144000000D01*
X140352560Y-147000000D01*
X140401843Y-147247765D01*
X140542191Y-147457809D01*
X140752235Y-147598157D01*
X141000000Y-147647440D01*
X144000000Y-147647440D01*
X144247765Y-147598157D01*
X144457809Y-147457809D01*
X144598157Y-147247765D01*
X144644661Y-147013970D01*
X148005635Y-147013970D01*
X148165418Y-147332739D01*
X148956187Y-147642723D01*
X149805387Y-147626497D01*
X150514582Y-147332739D01*
X150674365Y-147013970D01*
X149340000Y-145679605D01*
X148005635Y-147013970D01*
X144644661Y-147013970D01*
X144647440Y-147000000D01*
X144647440Y-145116187D01*
X147197277Y-145116187D01*
X147213503Y-145965387D01*
X147507261Y-146674582D01*
X147826030Y-146834365D01*
X149160395Y-145500000D01*
X149519605Y-145500000D01*
X150853970Y-146834365D01*
X151172739Y-146674582D01*
X151467434Y-145922815D01*
X152284630Y-145922815D01*
X152608980Y-146707800D01*
X153209041Y-147308909D01*
X153993459Y-147634628D01*
X154842815Y-147635370D01*
X155627800Y-147311020D01*
X156228909Y-146710959D01*
X156554628Y-145926541D01*
X156555370Y-145077185D01*
X156231020Y-144292200D01*
X155939330Y-144000000D01*
X157352560Y-144000000D01*
X157352560Y-147000000D01*
X157401843Y-147247765D01*
X157542191Y-147457809D01*
X157752235Y-147598157D01*
X158000000Y-147647440D01*
X161000000Y-147647440D01*
X161247765Y-147598157D01*
X161457809Y-147457809D01*
X161598157Y-147247765D01*
X161647440Y-147000000D01*
X161647440Y-145922815D01*
X164284630Y-145922815D01*
X164608980Y-146707800D01*
X165209041Y-147308909D01*
X165993459Y-147634628D01*
X166842815Y-147635370D01*
X167627800Y-147311020D01*
X168228909Y-146710959D01*
X168554628Y-145926541D01*
X168555370Y-145077185D01*
X168231020Y-144292200D01*
X167939330Y-144000000D01*
X169352560Y-144000000D01*
X169352560Y-147000000D01*
X169401843Y-147247765D01*
X169542191Y-147457809D01*
X169752235Y-147598157D01*
X170000000Y-147647440D01*
X173000000Y-147647440D01*
X173247765Y-147598157D01*
X173457809Y-147457809D01*
X173598157Y-147247765D01*
X173644661Y-147013970D01*
X177085635Y-147013970D01*
X177245418Y-147332739D01*
X178036187Y-147642723D01*
X178885387Y-147626497D01*
X179594582Y-147332739D01*
X179754365Y-147013970D01*
X178420000Y-145679605D01*
X177085635Y-147013970D01*
X173644661Y-147013970D01*
X173647440Y-147000000D01*
X173647440Y-145116187D01*
X176277277Y-145116187D01*
X176293503Y-145965387D01*
X176587261Y-146674582D01*
X176906030Y-146834365D01*
X178240395Y-145500000D01*
X178599605Y-145500000D01*
X179933970Y-146834365D01*
X180252739Y-146674582D01*
X180562723Y-145883813D01*
X180546497Y-145034613D01*
X180252739Y-144325418D01*
X179933970Y-144165635D01*
X178599605Y-145500000D01*
X178240395Y-145500000D01*
X176906030Y-144165635D01*
X176587261Y-144325418D01*
X176277277Y-145116187D01*
X173647440Y-145116187D01*
X173647440Y-144000000D01*
X173644662Y-143986030D01*
X177085635Y-143986030D01*
X178420000Y-145320395D01*
X179740395Y-144000000D01*
X181352560Y-144000000D01*
X181352560Y-147000000D01*
X181401843Y-147247765D01*
X181542191Y-147457809D01*
X181752235Y-147598157D01*
X182000000Y-147647440D01*
X185000000Y-147647440D01*
X185247765Y-147598157D01*
X185457809Y-147457809D01*
X185598157Y-147247765D01*
X185647440Y-147000000D01*
X185647440Y-145308026D01*
X189003079Y-145308026D01*
X189373004Y-146203314D01*
X190057383Y-146888888D01*
X190952024Y-147260376D01*
X191920726Y-147261221D01*
X192816014Y-146891296D01*
X193501588Y-146206917D01*
X193873076Y-145312276D01*
X193873921Y-144343574D01*
X193503996Y-143448286D01*
X192819617Y-142762712D01*
X191924976Y-142391224D01*
X190956274Y-142390379D01*
X190060986Y-142760304D01*
X189375412Y-143444683D01*
X189003924Y-144339324D01*
X189003079Y-145308026D01*
X185647440Y-145308026D01*
X185647440Y-144000000D01*
X185598157Y-143752235D01*
X185457809Y-143542191D01*
X185247765Y-143401843D01*
X185000000Y-143352560D01*
X182000000Y-143352560D01*
X181752235Y-143401843D01*
X181542191Y-143542191D01*
X181401843Y-143752235D01*
X181352560Y-144000000D01*
X179740395Y-144000000D01*
X179754365Y-143986030D01*
X179594582Y-143667261D01*
X178803813Y-143357277D01*
X177954613Y-143373503D01*
X177245418Y-143667261D01*
X177085635Y-143986030D01*
X173644662Y-143986030D01*
X173598157Y-143752235D01*
X173457809Y-143542191D01*
X173247765Y-143401843D01*
X173000000Y-143352560D01*
X170000000Y-143352560D01*
X169752235Y-143401843D01*
X169542191Y-143542191D01*
X169401843Y-143752235D01*
X169352560Y-144000000D01*
X167939330Y-144000000D01*
X167630959Y-143691091D01*
X166846541Y-143365372D01*
X165997185Y-143364630D01*
X165212200Y-143688980D01*
X164611091Y-144289041D01*
X164285372Y-145073459D01*
X164284630Y-145922815D01*
X161647440Y-145922815D01*
X161647440Y-144000000D01*
X161598157Y-143752235D01*
X161457809Y-143542191D01*
X161247765Y-143401843D01*
X161000000Y-143352560D01*
X158000000Y-143352560D01*
X157752235Y-143401843D01*
X157542191Y-143542191D01*
X157401843Y-143752235D01*
X157352560Y-144000000D01*
X155939330Y-144000000D01*
X155630959Y-143691091D01*
X154846541Y-143365372D01*
X153997185Y-143364630D01*
X153212200Y-143688980D01*
X152611091Y-144289041D01*
X152285372Y-145073459D01*
X152284630Y-145922815D01*
X151467434Y-145922815D01*
X151482723Y-145883813D01*
X151466497Y-145034613D01*
X151172739Y-144325418D01*
X150853970Y-144165635D01*
X149519605Y-145500000D01*
X149160395Y-145500000D01*
X147826030Y-144165635D01*
X147507261Y-144325418D01*
X147197277Y-145116187D01*
X144647440Y-145116187D01*
X144647440Y-144000000D01*
X144644662Y-143986030D01*
X148005635Y-143986030D01*
X149340000Y-145320395D01*
X150674365Y-143986030D01*
X150514582Y-143667261D01*
X149723813Y-143357277D01*
X148874613Y-143373503D01*
X148165418Y-143667261D01*
X148005635Y-143986030D01*
X144644662Y-143986030D01*
X144598157Y-143752235D01*
X144457809Y-143542191D01*
X144247765Y-143401843D01*
X144000000Y-143352560D01*
X141000000Y-143352560D01*
X140752235Y-143401843D01*
X140542191Y-143542191D01*
X140401843Y-143752235D01*
X140352560Y-144000000D01*
X138939330Y-144000000D01*
X138630959Y-143691091D01*
X137846541Y-143365372D01*
X136997185Y-143364630D01*
X136212200Y-143688980D01*
X135611091Y-144289041D01*
X135285372Y-145073459D01*
X135284630Y-145922815D01*
X134474631Y-145922815D01*
X134475370Y-145077185D01*
X134151020Y-144292200D01*
X133550959Y-143691091D01*
X132766541Y-143365372D01*
X131917185Y-143364630D01*
X131132200Y-143688980D01*
X130531091Y-144289041D01*
X130205372Y-145073459D01*
X130204630Y-145922815D01*
X127647440Y-145922815D01*
X127647440Y-144000000D01*
X127598157Y-143752235D01*
X127457809Y-143542191D01*
X127247765Y-143401843D01*
X127000000Y-143352560D01*
X124000000Y-143352560D01*
X123752235Y-143401843D01*
X123542191Y-143542191D01*
X123401843Y-143752235D01*
X123352560Y-144000000D01*
X121939330Y-144000000D01*
X121630959Y-143691091D01*
X120846541Y-143365372D01*
X119997185Y-143364630D01*
X119212200Y-143688980D01*
X118611091Y-144289041D01*
X118285372Y-145073459D01*
X118284630Y-145922815D01*
X117474631Y-145922815D01*
X117475370Y-145077185D01*
X117151020Y-144292200D01*
X116550959Y-143691091D01*
X115766541Y-143365372D01*
X114917185Y-143364630D01*
X114132200Y-143688980D01*
X113531091Y-144289041D01*
X113205372Y-145073459D01*
X113204630Y-145922815D01*
X101191100Y-145922815D01*
X101191100Y-142768026D01*
X103151079Y-142768026D01*
X103521004Y-143663314D01*
X104205383Y-144348888D01*
X105100024Y-144720376D01*
X106068726Y-144721221D01*
X106964014Y-144351296D01*
X107649588Y-143666917D01*
X108021076Y-142772276D01*
X108021921Y-141803574D01*
X107651996Y-140908286D01*
X106967617Y-140222712D01*
X106072976Y-139851224D01*
X105104274Y-139850379D01*
X104208986Y-140220304D01*
X103523412Y-140904683D01*
X103151924Y-141799324D01*
X103151079Y-142768026D01*
X101191100Y-142768026D01*
X101191100Y-100930102D01*
X104177356Y-100930102D01*
X104205138Y-101485168D01*
X104364103Y-101868943D01*
X104606287Y-101938408D01*
X105406895Y-101137800D01*
X105766105Y-101137800D01*
X106566713Y-101938408D01*
X106808897Y-101868943D01*
X106852953Y-101745456D01*
X106904103Y-101868943D01*
X107146287Y-101938408D01*
X107946895Y-101137800D01*
X107146287Y-100337192D01*
X106904103Y-100406657D01*
X106860047Y-100530144D01*
X106808897Y-100406657D01*
X106566713Y-100337192D01*
X105766105Y-101137800D01*
X105406895Y-101137800D01*
X104606287Y-100337192D01*
X104364103Y-100406657D01*
X104177356Y-100930102D01*
X101191100Y-100930102D01*
X101191100Y-99578013D01*
X104785892Y-99578013D01*
X104855357Y-99820197D01*
X104978844Y-99864253D01*
X104855357Y-99915403D01*
X104785892Y-100157587D01*
X105586500Y-100958195D01*
X106387108Y-100157587D01*
X106317643Y-99915403D01*
X106194156Y-99871347D01*
X106317643Y-99820197D01*
X106387108Y-99578013D01*
X105586500Y-98777405D01*
X104785892Y-99578013D01*
X101191100Y-99578013D01*
X101191100Y-98390102D01*
X104177356Y-98390102D01*
X104205138Y-98945168D01*
X104364103Y-99328943D01*
X104606287Y-99398408D01*
X105406895Y-98597800D01*
X104606287Y-97797192D01*
X104364103Y-97866657D01*
X104177356Y-98390102D01*
X101191100Y-98390102D01*
X101191100Y-68092026D01*
X103151079Y-68092026D01*
X103521004Y-68987314D01*
X104205383Y-69672888D01*
X105100024Y-70044376D01*
X106068726Y-70045221D01*
X106964014Y-69675296D01*
X107649588Y-68990917D01*
X108021076Y-68096276D01*
X108021921Y-67127574D01*
X107651996Y-66232286D01*
X106967617Y-65546712D01*
X106072976Y-65175224D01*
X105104274Y-65174379D01*
X104208986Y-65544304D01*
X103523412Y-66228683D01*
X103151924Y-67123324D01*
X103151079Y-68092026D01*
X101191100Y-68092026D01*
X101191100Y-60710400D01*
X118964600Y-60710400D01*
X118814799Y-60859940D01*
X118814799Y-60859940D01*
G37*
X118814799Y-60859940D02*
X118508150Y-61598432D01*
X118507452Y-62398060D01*
X118812812Y-63137086D01*
X119377740Y-63703001D01*
X120116232Y-64009650D01*
X120915860Y-64010348D01*
X121654886Y-63704988D01*
X122220801Y-63140060D01*
X122527450Y-62401568D01*
X122528148Y-61601940D01*
X122222788Y-60862914D01*
X122070540Y-60710400D01*
X176964600Y-60710400D01*
X176814799Y-60859940D01*
X176508150Y-61598432D01*
X176507452Y-62398060D01*
X176812812Y-63137086D01*
X177377740Y-63703001D01*
X178116232Y-64009650D01*
X178915860Y-64010348D01*
X179654886Y-63704988D01*
X180220801Y-63140060D01*
X180527450Y-62401568D01*
X180528148Y-61601940D01*
X180222788Y-60862914D01*
X180070540Y-60710400D01*
X181290000Y-60710400D01*
X181290000Y-110500000D01*
X181344046Y-110771705D01*
X181497954Y-111002046D01*
X182056619Y-111560711D01*
X181826702Y-111465241D01*
X181275715Y-111464760D01*
X180766485Y-111675169D01*
X180376539Y-112064436D01*
X180165241Y-112573298D01*
X180164883Y-112983538D01*
X179783419Y-113365001D01*
X174516672Y-113365001D01*
X174818029Y-113064170D01*
X175031157Y-112550900D01*
X175031642Y-111995139D01*
X174819410Y-111481497D01*
X174736119Y-111398060D01*
X176507452Y-111398060D01*
X176812812Y-112137086D01*
X177377740Y-112703001D01*
X178116232Y-113009650D01*
X178915860Y-113010348D01*
X179654886Y-112704988D01*
X180220801Y-112140060D01*
X180527450Y-111401568D01*
X180528148Y-110601940D01*
X180222788Y-109862914D01*
X179657860Y-109296999D01*
X178919368Y-108990350D01*
X178119740Y-108989652D01*
X177380714Y-109295012D01*
X176814799Y-109859940D01*
X176508150Y-110598432D01*
X176507452Y-111398060D01*
X174736119Y-111398060D01*
X174426770Y-111088171D01*
X174234673Y-111008405D01*
X174365543Y-110954197D01*
X174435008Y-110712013D01*
X173634400Y-109911405D01*
X172833792Y-110712013D01*
X172903257Y-110954197D01*
X173043718Y-111004309D01*
X172844097Y-111086790D01*
X172450771Y-111479430D01*
X172364451Y-111687312D01*
X172279410Y-111481497D01*
X171886770Y-111088171D01*
X171678888Y-111001851D01*
X171884703Y-110916810D01*
X172278029Y-110524170D01*
X172357795Y-110332073D01*
X172412003Y-110462943D01*
X172654187Y-110532408D01*
X173454795Y-109731800D01*
X173814005Y-109731800D01*
X174614613Y-110532408D01*
X174856797Y-110462943D01*
X175043544Y-109939498D01*
X175015762Y-109384432D01*
X174856797Y-109000657D01*
X174614613Y-108931192D01*
X173814005Y-109731800D01*
X173454795Y-109731800D01*
X172654187Y-108931192D01*
X172412003Y-109000657D01*
X172361891Y-109141118D01*
X172279410Y-108941497D01*
X172089832Y-108751587D01*
X172833792Y-108751587D01*
X173634400Y-109552195D01*
X174435008Y-108751587D01*
X174365543Y-108509403D01*
X173842098Y-108322656D01*
X173287032Y-108350438D01*
X172903257Y-108509403D01*
X172833792Y-108751587D01*
X172089832Y-108751587D01*
X171886770Y-108548171D01*
X171373500Y-108335043D01*
X170817739Y-108334558D01*
X170304097Y-108546790D01*
X169910771Y-108939430D01*
X169824451Y-109147312D01*
X169739410Y-108941497D01*
X169346770Y-108548171D01*
X168833500Y-108335043D01*
X168277739Y-108334558D01*
X167764097Y-108546790D01*
X167370771Y-108939430D01*
X167284451Y-109147312D01*
X167199410Y-108941497D01*
X166806770Y-108548171D01*
X166293500Y-108335043D01*
X165737739Y-108334558D01*
X165224097Y-108546790D01*
X164830771Y-108939430D01*
X164744451Y-109147312D01*
X164659410Y-108941497D01*
X164266770Y-108548171D01*
X163753500Y-108335043D01*
X163197739Y-108334558D01*
X162684097Y-108546790D01*
X162290771Y-108939430D01*
X162204451Y-109147312D01*
X162119410Y-108941497D01*
X161726770Y-108548171D01*
X161213500Y-108335043D01*
X160657739Y-108334558D01*
X160144097Y-108546790D01*
X159750771Y-108939430D01*
X159664451Y-109147312D01*
X159579410Y-108941497D01*
X159186770Y-108548171D01*
X158673500Y-108335043D01*
X158117739Y-108334558D01*
X157604097Y-108546790D01*
X157210771Y-108939430D01*
X157131005Y-109131527D01*
X157076797Y-109000657D01*
X156834613Y-108931192D01*
X156034005Y-109731800D01*
X156834613Y-110532408D01*
X157076797Y-110462943D01*
X157126909Y-110322482D01*
X157209390Y-110522103D01*
X157602030Y-110915429D01*
X157809912Y-111001749D01*
X157604097Y-111086790D01*
X157210771Y-111479430D01*
X157124451Y-111687312D01*
X157039410Y-111481497D01*
X156646770Y-111088171D01*
X156454673Y-111008405D01*
X156585543Y-110954197D01*
X156655008Y-110712013D01*
X155854400Y-109911405D01*
X155053792Y-110712013D01*
X155123257Y-110954197D01*
X155263718Y-111004309D01*
X155064097Y-111086790D01*
X154670771Y-111479430D01*
X154584451Y-111687312D01*
X154499410Y-111481497D01*
X154106770Y-111088171D01*
X153898888Y-111001851D01*
X154104703Y-110916810D01*
X154498029Y-110524170D01*
X154577795Y-110332073D01*
X154632003Y-110462943D01*
X154874187Y-110532408D01*
X155674795Y-109731800D01*
X154874187Y-108931192D01*
X154632003Y-109000657D01*
X154581891Y-109141118D01*
X154499410Y-108941497D01*
X154309832Y-108751587D01*
X155053792Y-108751587D01*
X155854400Y-109552195D01*
X156655008Y-108751587D01*
X156585543Y-108509403D01*
X156062098Y-108322656D01*
X155507032Y-108350438D01*
X155123257Y-108509403D01*
X155053792Y-108751587D01*
X154309832Y-108751587D01*
X154106770Y-108548171D01*
X153593500Y-108335043D01*
X153037739Y-108334558D01*
X152524097Y-108546790D01*
X152130771Y-108939430D01*
X152044451Y-109147312D01*
X151959410Y-108941497D01*
X151566770Y-108548171D01*
X151053500Y-108335043D01*
X150497739Y-108334558D01*
X149984097Y-108546790D01*
X149590771Y-108939430D01*
X149504451Y-109147312D01*
X149419410Y-108941497D01*
X149026770Y-108548171D01*
X148513500Y-108335043D01*
X147957739Y-108334558D01*
X147444097Y-108546790D01*
X147050771Y-108939430D01*
X146964451Y-109147312D01*
X146879410Y-108941497D01*
X146486770Y-108548171D01*
X145973500Y-108335043D01*
X145919030Y-108334995D01*
X145984759Y-108176702D01*
X145985240Y-107625715D01*
X145774831Y-107116485D01*
X145385564Y-106726539D01*
X144876702Y-106515241D01*
X144325715Y-106514760D01*
X143816485Y-106725169D01*
X143576236Y-106965000D01*
X134462189Y-106965000D01*
X134783515Y-106832231D01*
X135173461Y-106442964D01*
X135384759Y-105934102D01*
X135385240Y-105383115D01*
X135174831Y-104873885D01*
X134785564Y-104483939D01*
X134276702Y-104272641D01*
X133866462Y-104272283D01*
X133829226Y-104235047D01*
X134006847Y-104235202D01*
X134516077Y-104024793D01*
X134906023Y-103635526D01*
X135117321Y-103126664D01*
X135117802Y-102575677D01*
X134907393Y-102066447D01*
X134617562Y-101776110D01*
X134617562Y-96834018D01*
X134966652Y-96484928D01*
X135314383Y-96485231D01*
X135805229Y-96282418D01*
X136181098Y-95907204D01*
X136384768Y-95416713D01*
X136385231Y-94885617D01*
X136182418Y-94394771D01*
X135807204Y-94018902D01*
X135316713Y-93815232D01*
X134785617Y-93814769D01*
X134294771Y-94017582D01*
X133918902Y-94392796D01*
X133715232Y-94883287D01*
X133714927Y-95233494D01*
X133634858Y-95313562D01*
X133635231Y-94885617D01*
X133432418Y-94394771D01*
X133057204Y-94018902D01*
X132566713Y-93815232D01*
X132035617Y-93814769D01*
X131544771Y-94017582D01*
X131168902Y-94392796D01*
X130965232Y-94883287D01*
X130964769Y-95414383D01*
X131167582Y-95905229D01*
X131415000Y-96153079D01*
X131415000Y-103957395D01*
X131414999Y-103957400D01*
X131470163Y-104234721D01*
X131482367Y-104296075D01*
X131633085Y-104521641D01*
X131674210Y-104583190D01*
X132615116Y-105524095D01*
X132614760Y-105931685D01*
X132825169Y-106440915D01*
X133214436Y-106830861D01*
X133537479Y-106965000D01*
X128634743Y-106965000D01*
X128748929Y-106690010D01*
X129190826Y-106690396D01*
X129700056Y-106479987D01*
X130090002Y-106090720D01*
X130301300Y-105581858D01*
X130301781Y-105030871D01*
X130091372Y-104521641D01*
X129801541Y-104231304D01*
X129801541Y-96485176D01*
X129864383Y-96485231D01*
X130355229Y-96282418D01*
X130731098Y-95907204D01*
X130934768Y-95416713D01*
X130935231Y-94885617D01*
X130732418Y-94394771D01*
X130357204Y-94018902D01*
X129866713Y-93815232D01*
X129335617Y-93814769D01*
X128844771Y-94017582D01*
X128468902Y-94392796D01*
X128265232Y-94883287D01*
X128264916Y-95246335D01*
X128229098Y-95299940D01*
X128185111Y-95078806D01*
X128098016Y-94948459D01*
X127993268Y-94791691D01*
X127993265Y-94791689D01*
X126286576Y-93085000D01*
X136283420Y-93085000D01*
X142265000Y-99066579D01*
X142265000Y-103226477D01*
X141976539Y-103514436D01*
X141765241Y-104023298D01*
X141764760Y-104574285D01*
X141975169Y-105083515D01*
X142364436Y-105473461D01*
X142873298Y-105684759D01*
X143424285Y-105685240D01*
X143933515Y-105474831D01*
X144323461Y-105085564D01*
X144534759Y-104576702D01*
X144535240Y-104025715D01*
X144324831Y-103516485D01*
X144035000Y-103226148D01*
X144035000Y-98700005D01*
X144035001Y-98700000D01*
X143967633Y-98361325D01*
X143893537Y-98250432D01*
X143775790Y-98074210D01*
X143775787Y-98074208D01*
X137275790Y-91574210D01*
X136988675Y-91382367D01*
X136932484Y-91371190D01*
X136650000Y-91314999D01*
X136649995Y-91315000D01*
X135498536Y-91315000D01*
X135728396Y-91219797D01*
X136116764Y-90872663D01*
X136342727Y-90403331D01*
X136220206Y-90197000D01*
X135177000Y-90197000D01*
X135177000Y-90217000D01*
X134923000Y-90217000D01*
X134923000Y-90197000D01*
X133879794Y-90197000D01*
X133757273Y-90403331D01*
X133983236Y-90872663D01*
X134371604Y-91219797D01*
X134601464Y-91315000D01*
X132748536Y-91315000D01*
X132978396Y-91219797D01*
X133366764Y-90872663D01*
X133592727Y-90403331D01*
X133470206Y-90197000D01*
X132427000Y-90197000D01*
X132427000Y-90217000D01*
X132173000Y-90217000D01*
X132173000Y-90197000D01*
X131129794Y-90197000D01*
X131007273Y-90403331D01*
X131233236Y-90872663D01*
X131621604Y-91219797D01*
X131851464Y-91315000D01*
X130048536Y-91315000D01*
X130278396Y-91219797D01*
X130666764Y-90872663D01*
X130892727Y-90403331D01*
X130770206Y-90197000D01*
X129727000Y-90197000D01*
X129727000Y-90217000D01*
X129473000Y-90217000D01*
X129473000Y-90197000D01*
X128429794Y-90197000D01*
X128307273Y-90403331D01*
X128533236Y-90872663D01*
X128921604Y-91219797D01*
X129151464Y-91315000D01*
X126588578Y-91315000D01*
X125010248Y-89736669D01*
X128307273Y-89736669D01*
X128429794Y-89943000D01*
X129473000Y-89943000D01*
X129473000Y-88900626D01*
X129727000Y-88900626D01*
X129727000Y-89943000D01*
X130770206Y-89943000D01*
X130892727Y-89736669D01*
X131007273Y-89736669D01*
X131129794Y-89943000D01*
X132173000Y-89943000D01*
X132173000Y-88900626D01*
X132427000Y-88900626D01*
X132427000Y-89943000D01*
X133470206Y-89943000D01*
X133592727Y-89736669D01*
X133757273Y-89736669D01*
X133879794Y-89943000D01*
X134923000Y-89943000D01*
X134923000Y-88900626D01*
X135177000Y-88900626D01*
X135177000Y-89943000D01*
X136220206Y-89943000D01*
X136342727Y-89736669D01*
X136116764Y-89267337D01*
X135728396Y-88920203D01*
X135383329Y-88777284D01*
X135177000Y-88900626D01*
X134923000Y-88900626D01*
X134716671Y-88777284D01*
X134371604Y-88920203D01*
X133983236Y-89267337D01*
X133757273Y-89736669D01*
X133592727Y-89736669D01*
X133366764Y-89267337D01*
X132978396Y-88920203D01*
X132633329Y-88777284D01*
X132427000Y-88900626D01*
X132173000Y-88900626D01*
X131966671Y-88777284D01*
X131621604Y-88920203D01*
X131233236Y-89267337D01*
X131007273Y-89736669D01*
X130892727Y-89736669D01*
X130666764Y-89267337D01*
X130278396Y-88920203D01*
X129933329Y-88777284D01*
X129727000Y-88900626D01*
X129473000Y-88900626D01*
X129266671Y-88777284D01*
X128921604Y-88920203D01*
X128533236Y-89267337D01*
X128307273Y-89736669D01*
X125010248Y-89736669D01*
X117434991Y-82161412D01*
X117435240Y-81875721D01*
X117224831Y-81366491D01*
X117058685Y-81200056D01*
X117123852Y-81135003D01*
X134183423Y-81135003D01*
X159565116Y-106516695D01*
X159564760Y-106924285D01*
X159775169Y-107433515D01*
X160164436Y-107823461D01*
X160673298Y-108034759D01*
X161224285Y-108035240D01*
X161733515Y-107824831D01*
X162123461Y-107435564D01*
X162199927Y-107251414D01*
X162275169Y-107433515D01*
X162664436Y-107823461D01*
X163173298Y-108034759D01*
X163724285Y-108035240D01*
X164233515Y-107824831D01*
X164623461Y-107435564D01*
X164724988Y-107191059D01*
X164825169Y-107433515D01*
X165214436Y-107823461D01*
X165723298Y-108034759D01*
X166274285Y-108035240D01*
X166783515Y-107824831D01*
X167173461Y-107435564D01*
X167301703Y-107126723D01*
X167325169Y-107183515D01*
X167714436Y-107573461D01*
X168223298Y-107784759D01*
X168774285Y-107785240D01*
X169283515Y-107574831D01*
X169673461Y-107185564D01*
X169884759Y-106676702D01*
X169885240Y-106125715D01*
X169674831Y-105616485D01*
X169285564Y-105226539D01*
X168776702Y-105015241D01*
X168366462Y-105014883D01*
X136125790Y-72774210D01*
X135889736Y-72616485D01*
X135838675Y-72582367D01*
X135782484Y-72571190D01*
X135500000Y-72514999D01*
X135499995Y-72515000D01*
X117223523Y-72515000D01*
X116935564Y-72226539D01*
X116426702Y-72015241D01*
X115875715Y-72014760D01*
X115366485Y-72225169D01*
X114976539Y-72614436D01*
X114765241Y-73123298D01*
X114764760Y-73674285D01*
X114975169Y-74183515D01*
X115364436Y-74573461D01*
X115402937Y-74589448D01*
X115316485Y-74625169D01*
X114926539Y-75014436D01*
X114715241Y-75523298D01*
X114714760Y-76074285D01*
X114925169Y-76583515D01*
X115314436Y-76973461D01*
X115534003Y-77064633D01*
X115266485Y-77175169D01*
X114876539Y-77564436D01*
X114665241Y-78073298D01*
X114664760Y-78624285D01*
X114875169Y-79133515D01*
X115041315Y-79299950D01*
X114876539Y-79464439D01*
X114665241Y-79973301D01*
X114664760Y-80524288D01*
X114875169Y-81033518D01*
X115041315Y-81199953D01*
X114876539Y-81364442D01*
X114665241Y-81873304D01*
X114664760Y-82424291D01*
X114875169Y-82933521D01*
X115116268Y-83175040D01*
X114926539Y-83364439D01*
X114715241Y-83873301D01*
X114714760Y-84424288D01*
X114925169Y-84933518D01*
X115257835Y-85266764D01*
X115116485Y-85325169D01*
X114726539Y-85714436D01*
X114603402Y-86010983D01*
X114603742Y-85621139D01*
X114391510Y-85107497D01*
X113998870Y-84714171D01*
X113790988Y-84627851D01*
X113996803Y-84542810D01*
X114390129Y-84150170D01*
X114603257Y-83636900D01*
X114603742Y-83081139D01*
X114391510Y-82567497D01*
X113998870Y-82174171D01*
X113790988Y-82087851D01*
X113996803Y-82002810D01*
X114390129Y-81610170D01*
X114603257Y-81096900D01*
X114603742Y-80541139D01*
X114391510Y-80027497D01*
X113998870Y-79634171D01*
X113790988Y-79547851D01*
X113996803Y-79462810D01*
X114390129Y-79070170D01*
X114603257Y-78556900D01*
X114603742Y-78001139D01*
X114391510Y-77487497D01*
X113998870Y-77094171D01*
X113790988Y-77007851D01*
X113996803Y-76922810D01*
X114390129Y-76530170D01*
X114603257Y-76016900D01*
X114603742Y-75461139D01*
X114391510Y-74947497D01*
X113998870Y-74554171D01*
X113790988Y-74467851D01*
X113996803Y-74382810D01*
X114390129Y-73990170D01*
X114603257Y-73476900D01*
X114603742Y-72921139D01*
X114391510Y-72407497D01*
X113998870Y-72014171D01*
X113485600Y-71801043D01*
X112929839Y-71800558D01*
X112416197Y-72012790D01*
X112022871Y-72405430D01*
X111936551Y-72613312D01*
X111851510Y-72407497D01*
X111458870Y-72014171D01*
X110945600Y-71801043D01*
X110389839Y-71800558D01*
X109876197Y-72012790D01*
X109482871Y-72405430D01*
X109396551Y-72613312D01*
X109311510Y-72407497D01*
X108918870Y-72014171D01*
X108405600Y-71801043D01*
X107849839Y-71800558D01*
X107336197Y-72012790D01*
X106942871Y-72405430D01*
X106856551Y-72613312D01*
X106771510Y-72407497D01*
X106378870Y-72014171D01*
X105865600Y-71801043D01*
X105309839Y-71800558D01*
X104796197Y-72012790D01*
X104402871Y-72405430D01*
X104189743Y-72918700D01*
X104189258Y-73474461D01*
X104401490Y-73988103D01*
X104794130Y-74381429D01*
X105002012Y-74467749D01*
X104796197Y-74552790D01*
X104402871Y-74945430D01*
X104189743Y-75458700D01*
X104189258Y-76014461D01*
X104401490Y-76528103D01*
X104794130Y-76921429D01*
X105002012Y-77007749D01*
X104796197Y-77092790D01*
X104402871Y-77485430D01*
X104189743Y-77998700D01*
X104189258Y-78554461D01*
X104401490Y-79068103D01*
X104794130Y-79461429D01*
X105002012Y-79547749D01*
X104796197Y-79632790D01*
X104402871Y-80025430D01*
X104189743Y-80538700D01*
X104189258Y-81094461D01*
X104401490Y-81608103D01*
X104794130Y-82001429D01*
X105002012Y-82087749D01*
X104796197Y-82172790D01*
X104402871Y-82565430D01*
X104189743Y-83078700D01*
X104189258Y-83634461D01*
X104401490Y-84148103D01*
X104794130Y-84541429D01*
X105002012Y-84627749D01*
X104796197Y-84712790D01*
X104402871Y-85105430D01*
X104189743Y-85618700D01*
X104189258Y-86174461D01*
X104401490Y-86688103D01*
X104794130Y-87081429D01*
X105002012Y-87167749D01*
X104796197Y-87252790D01*
X104402871Y-87645430D01*
X104189743Y-88158700D01*
X104189258Y-88714461D01*
X104401490Y-89228103D01*
X104794130Y-89621429D01*
X105002012Y-89707749D01*
X104796197Y-89792790D01*
X104402871Y-90185430D01*
X104189743Y-90698700D01*
X104189258Y-91254461D01*
X104401490Y-91768103D01*
X104794130Y-92161429D01*
X105002012Y-92247749D01*
X104796197Y-92332790D01*
X104402871Y-92725430D01*
X104189743Y-93238700D01*
X104189258Y-93794461D01*
X104401490Y-94308103D01*
X104794130Y-94701429D01*
X105002012Y-94787749D01*
X104796197Y-94872790D01*
X104402871Y-95265430D01*
X104189743Y-95778700D01*
X104189258Y-96334461D01*
X104401490Y-96848103D01*
X104794130Y-97241429D01*
X104986227Y-97321195D01*
X104855357Y-97375403D01*
X104785892Y-97617587D01*
X105586500Y-98418195D01*
X106387108Y-97617587D01*
X106317643Y-97375403D01*
X106177182Y-97325291D01*
X106376803Y-97242810D01*
X106770129Y-96850170D01*
X106856449Y-96642288D01*
X106941490Y-96848103D01*
X107334130Y-97241429D01*
X107542012Y-97327749D01*
X107336197Y-97412790D01*
X106942871Y-97805430D01*
X106863105Y-97997527D01*
X106808897Y-97866657D01*
X106566713Y-97797192D01*
X105766105Y-98597800D01*
X106566713Y-99398408D01*
X106808897Y-99328943D01*
X106859009Y-99188482D01*
X106941490Y-99388103D01*
X107334130Y-99781429D01*
X107526227Y-99861195D01*
X107395357Y-99915403D01*
X107325892Y-100157587D01*
X108126500Y-100958195D01*
X108927108Y-100157587D01*
X108857643Y-99915403D01*
X108717182Y-99865291D01*
X108916803Y-99782810D01*
X109310129Y-99390170D01*
X109396449Y-99182288D01*
X109481490Y-99388103D01*
X109874130Y-99781429D01*
X110082012Y-99867749D01*
X109876197Y-99952790D01*
X109482871Y-100345430D01*
X109403105Y-100537527D01*
X109348897Y-100406657D01*
X109106713Y-100337192D01*
X108306105Y-101137800D01*
X109106713Y-101938408D01*
X109348897Y-101868943D01*
X109399009Y-101728482D01*
X109481490Y-101928103D01*
X109874130Y-102321429D01*
X110082012Y-102407749D01*
X109876197Y-102492790D01*
X109482871Y-102885430D01*
X109396551Y-103093312D01*
X109311510Y-102887497D01*
X108918870Y-102494171D01*
X108726773Y-102414405D01*
X108857643Y-102360197D01*
X108927108Y-102118013D01*
X108126500Y-101317405D01*
X107325892Y-102118013D01*
X107395357Y-102360197D01*
X107535818Y-102410309D01*
X107336197Y-102492790D01*
X106942871Y-102885430D01*
X106856551Y-103093312D01*
X106771510Y-102887497D01*
X106378870Y-102494171D01*
X106186773Y-102414405D01*
X106317643Y-102360197D01*
X106387108Y-102118013D01*
X105586500Y-101317405D01*
X104785892Y-102118013D01*
X104855357Y-102360197D01*
X104995818Y-102410309D01*
X104796197Y-102492790D01*
X104402871Y-102885430D01*
X104189743Y-103398700D01*
X104189258Y-103954461D01*
X104401490Y-104468103D01*
X104794130Y-104861429D01*
X105002012Y-104947749D01*
X104796197Y-105032790D01*
X104402871Y-105425430D01*
X104189743Y-105938700D01*
X104189258Y-106494461D01*
X104401490Y-107008103D01*
X104794130Y-107401429D01*
X105002012Y-107487749D01*
X104796197Y-107572790D01*
X104402871Y-107965430D01*
X104189743Y-108478700D01*
X104189258Y-109034461D01*
X104401490Y-109548103D01*
X104794130Y-109941429D01*
X105002012Y-110027749D01*
X104796197Y-110112790D01*
X104402871Y-110505430D01*
X104189743Y-111018700D01*
X104189258Y-111574461D01*
X104401490Y-112088103D01*
X104794130Y-112481429D01*
X105002012Y-112567749D01*
X104796197Y-112652790D01*
X104402871Y-113045430D01*
X104189743Y-113558700D01*
X104189258Y-114114461D01*
X104401490Y-114628103D01*
X104794130Y-115021429D01*
X105002012Y-115107749D01*
X104796197Y-115192790D01*
X104402871Y-115585430D01*
X104189743Y-116098700D01*
X104189258Y-116654461D01*
X104401490Y-117168103D01*
X104794130Y-117561429D01*
X105002012Y-117647749D01*
X104796197Y-117732790D01*
X104402871Y-118125430D01*
X104189743Y-118638700D01*
X104189258Y-119194461D01*
X104401490Y-119708103D01*
X104794130Y-120101429D01*
X105002012Y-120187749D01*
X104796197Y-120272790D01*
X104402871Y-120665430D01*
X104189743Y-121178700D01*
X104189258Y-121734461D01*
X104401490Y-122248103D01*
X104794130Y-122641429D01*
X105002012Y-122727749D01*
X104796197Y-122812790D01*
X104402871Y-123205430D01*
X104189743Y-123718700D01*
X104189258Y-124274461D01*
X104401490Y-124788103D01*
X104794130Y-125181429D01*
X105002012Y-125267749D01*
X104796197Y-125352790D01*
X104402871Y-125745430D01*
X104189743Y-126258700D01*
X104189258Y-126814461D01*
X104401490Y-127328103D01*
X104794130Y-127721429D01*
X105002012Y-127807749D01*
X104796197Y-127892790D01*
X104402871Y-128285430D01*
X104189743Y-128798700D01*
X104189258Y-129354461D01*
X104401490Y-129868103D01*
X104794130Y-130261429D01*
X105002012Y-130347749D01*
X104796197Y-130432790D01*
X104402871Y-130825430D01*
X104189743Y-131338700D01*
X104189258Y-131894461D01*
X104401490Y-132408103D01*
X104794130Y-132801429D01*
X105002012Y-132887749D01*
X104796197Y-132972790D01*
X104402871Y-133365430D01*
X104189743Y-133878700D01*
X104189258Y-134434461D01*
X104401490Y-134948103D01*
X104794130Y-135341429D01*
X105002012Y-135427749D01*
X104796197Y-135512790D01*
X104402871Y-135905430D01*
X104189743Y-136418700D01*
X104189258Y-136974461D01*
X104401490Y-137488103D01*
X104794130Y-137881429D01*
X105307400Y-138094557D01*
X105863161Y-138095042D01*
X106376803Y-137882810D01*
X106770129Y-137490170D01*
X106856449Y-137282288D01*
X106941490Y-137488103D01*
X107334130Y-137881429D01*
X107847400Y-138094557D01*
X108403161Y-138095042D01*
X108916803Y-137882810D01*
X109310129Y-137490170D01*
X109396449Y-137282288D01*
X109481490Y-137488103D01*
X109874130Y-137881429D01*
X110387400Y-138094557D01*
X110943161Y-138095042D01*
X111456803Y-137882810D01*
X111850129Y-137490170D01*
X111936449Y-137282288D01*
X112021490Y-137488103D01*
X112414130Y-137881429D01*
X112927400Y-138094557D01*
X113483161Y-138095042D01*
X113996803Y-137882810D01*
X114390129Y-137490170D01*
X114465000Y-137309860D01*
X114465000Y-139426477D01*
X114176539Y-139714436D01*
X113965241Y-140223298D01*
X113964760Y-140774285D01*
X114175169Y-141283515D01*
X114564436Y-141673461D01*
X115073298Y-141884759D01*
X115624285Y-141885240D01*
X116133515Y-141674831D01*
X116523461Y-141285564D01*
X116734759Y-140776702D01*
X116735240Y-140225715D01*
X116524831Y-139716485D01*
X116235000Y-139426148D01*
X116235000Y-135724285D01*
X119014760Y-135724285D01*
X119225169Y-136233515D01*
X119614436Y-136623461D01*
X120123298Y-136834759D01*
X120664969Y-136835232D01*
X120664760Y-137074285D01*
X120875169Y-137583515D01*
X121264436Y-137973461D01*
X121773298Y-138184759D01*
X122324285Y-138185240D01*
X122833515Y-137974831D01*
X123223461Y-137585564D01*
X123434759Y-137076702D01*
X123435000Y-136800000D01*
X138052560Y-136800000D01*
X138052560Y-139200000D01*
X138101843Y-139447765D01*
X138242191Y-139657809D01*
X138452235Y-139798157D01*
X138700000Y-139847440D01*
X140300000Y-139847440D01*
X140547765Y-139798157D01*
X140757809Y-139657809D01*
X140898157Y-139447765D01*
X140926882Y-139303352D01*
X141025302Y-139450648D01*
X141490849Y-139761717D01*
X142040000Y-139870950D01*
X142589151Y-139761717D01*
X143054698Y-139450648D01*
X143310000Y-139068562D01*
X143565302Y-139450648D01*
X144030849Y-139761717D01*
X144580000Y-139870950D01*
X145129151Y-139761717D01*
X145594698Y-139450648D01*
X145847507Y-139072293D01*
X146195104Y-139504500D01*
X146688181Y-139774367D01*
X146770961Y-139791904D01*
X146993000Y-139669915D01*
X146993000Y-138127000D01*
X147247000Y-138127000D01*
X147247000Y-139669915D01*
X147469039Y-139791904D01*
X147551819Y-139774367D01*
X148044896Y-139504500D01*
X148390000Y-139075393D01*
X148735104Y-139504500D01*
X149228181Y-139774367D01*
X149310961Y-139791904D01*
X149533000Y-139669915D01*
X149533000Y-138127000D01*
X147247000Y-138127000D01*
X146993000Y-138127000D01*
X146973000Y-138127000D01*
X146973000Y-137873000D01*
X146993000Y-137873000D01*
X146993000Y-136330085D01*
X147247000Y-136330085D01*
X147247000Y-137873000D01*
X149533000Y-137873000D01*
X149533000Y-136330085D01*
X149787000Y-136330085D01*
X149787000Y-137873000D01*
X149807000Y-137873000D01*
X149807000Y-138127000D01*
X149787000Y-138127000D01*
X149787000Y-139669915D01*
X150009039Y-139791904D01*
X150091819Y-139774367D01*
X150584896Y-139504500D01*
X150932493Y-139072293D01*
X151185302Y-139450648D01*
X151650849Y-139761717D01*
X151841384Y-139799617D01*
X151826539Y-139814436D01*
X151615241Y-140323298D01*
X151614760Y-140874285D01*
X151825169Y-141383515D01*
X152214436Y-141773461D01*
X152723298Y-141984759D01*
X153133538Y-141985117D01*
X154074208Y-142925787D01*
X154074210Y-142925790D01*
X154361325Y-143117633D01*
X154417516Y-143128810D01*
X154700000Y-143185001D01*
X154700005Y-143185000D01*
X173876477Y-143185000D01*
X174164436Y-143473461D01*
X174673298Y-143684759D01*
X175224285Y-143685240D01*
X175733515Y-143474831D01*
X176123461Y-143085564D01*
X176334759Y-142576702D01*
X176335240Y-142025715D01*
X176124831Y-141516485D01*
X175735564Y-141126539D01*
X175226702Y-140915241D01*
X174675715Y-140914760D01*
X174166485Y-141125169D01*
X173876148Y-141415000D01*
X163035809Y-141415000D01*
X163134759Y-141176702D01*
X163135117Y-140766462D01*
X163725787Y-140175792D01*
X163725790Y-140175790D01*
X163917633Y-139888675D01*
X163953838Y-139706661D01*
X172522758Y-139706661D01*
X172734990Y-140220303D01*
X173127630Y-140613629D01*
X173640900Y-140826757D01*
X174196661Y-140827242D01*
X174710303Y-140615010D01*
X174915457Y-140410213D01*
X175659392Y-140410213D01*
X175728857Y-140652397D01*
X176252302Y-140839144D01*
X176807368Y-140811362D01*
X177191143Y-140652397D01*
X177260608Y-140410213D01*
X176460000Y-139609605D01*
X175659392Y-140410213D01*
X174915457Y-140410213D01*
X175103629Y-140222370D01*
X175183395Y-140030273D01*
X175237603Y-140161143D01*
X175479787Y-140230608D01*
X176280395Y-139430000D01*
X176639605Y-139430000D01*
X177440213Y-140230608D01*
X177682397Y-140161143D01*
X177732509Y-140020682D01*
X177814990Y-140220303D01*
X178207630Y-140613629D01*
X178720900Y-140826757D01*
X179276661Y-140827242D01*
X179790303Y-140615010D01*
X180183629Y-140222370D01*
X180269949Y-140014488D01*
X180354990Y-140220303D01*
X180747630Y-140613629D01*
X181260900Y-140826757D01*
X181816661Y-140827242D01*
X182330303Y-140615010D01*
X182723629Y-140222370D01*
X182809949Y-140014488D01*
X182894990Y-140220303D01*
X183287630Y-140613629D01*
X183800900Y-140826757D01*
X184356661Y-140827242D01*
X184870303Y-140615010D01*
X185263629Y-140222370D01*
X185476757Y-139709100D01*
X185477242Y-139153339D01*
X185265010Y-138639697D01*
X184872370Y-138246371D01*
X184359100Y-138033243D01*
X183803339Y-138032758D01*
X183289697Y-138244990D01*
X182896371Y-138637630D01*
X182810051Y-138845512D01*
X182725010Y-138639697D01*
X182332370Y-138246371D01*
X181819100Y-138033243D01*
X181263339Y-138032758D01*
X180749697Y-138244990D01*
X180356371Y-138637630D01*
X180270051Y-138845512D01*
X180185010Y-138639697D01*
X179792370Y-138246371D01*
X179279100Y-138033243D01*
X178723339Y-138032758D01*
X178209697Y-138244990D01*
X177816371Y-138637630D01*
X177736605Y-138829727D01*
X177682397Y-138698857D01*
X177440213Y-138629392D01*
X176639605Y-139430000D01*
X176280395Y-139430000D01*
X175479787Y-138629392D01*
X175237603Y-138698857D01*
X175187491Y-138839318D01*
X175105010Y-138639697D01*
X174915432Y-138449787D01*
X175659392Y-138449787D01*
X176460000Y-139250395D01*
X177260608Y-138449787D01*
X177191143Y-138207603D01*
X176667698Y-138020856D01*
X176112632Y-138048638D01*
X175728857Y-138207603D01*
X175659392Y-138449787D01*
X174915432Y-138449787D01*
X174712370Y-138246371D01*
X174199100Y-138033243D01*
X173643339Y-138032758D01*
X173129697Y-138244990D01*
X172736371Y-138637630D01*
X172523243Y-139150900D01*
X172522758Y-139706661D01*
X163953838Y-139706661D01*
X163985000Y-139550000D01*
X163985000Y-134223523D01*
X164273461Y-133935564D01*
X164484759Y-133426702D01*
X164485240Y-132875715D01*
X164274831Y-132366485D01*
X163885564Y-131976539D01*
X163376702Y-131765241D01*
X162825715Y-131764760D01*
X162316485Y-131975169D01*
X161926539Y-132364436D01*
X161715241Y-132873298D01*
X161714760Y-133424285D01*
X161925169Y-133933515D01*
X162215000Y-134223852D01*
X162215000Y-139183421D01*
X161883305Y-139515116D01*
X161475715Y-139514760D01*
X160966485Y-139725169D01*
X160576539Y-140114436D01*
X160365241Y-140623298D01*
X160364760Y-141174285D01*
X160464221Y-141415000D01*
X156483712Y-141415000D01*
X156563852Y-141335000D01*
X157280618Y-141335000D01*
X157280623Y-141335001D01*
X157563107Y-141278810D01*
X157619298Y-141267633D01*
X157906413Y-141075790D01*
X160390737Y-138591465D01*
X160390740Y-138591463D01*
X160582583Y-138304348D01*
X160624217Y-138095042D01*
X160649951Y-137965673D01*
X160649950Y-137965668D01*
X160649950Y-134258573D01*
X160938411Y-133970614D01*
X161149709Y-133461752D01*
X161150190Y-132910765D01*
X160939781Y-132401535D01*
X160550514Y-132011589D01*
X160041652Y-131800291D01*
X159490665Y-131799810D01*
X158981435Y-132010219D01*
X158591489Y-132399486D01*
X158380191Y-132908348D01*
X158379710Y-133459335D01*
X158590119Y-133968565D01*
X158879950Y-134258902D01*
X158879950Y-137599094D01*
X158715000Y-137764044D01*
X158715000Y-137564050D01*
X158605767Y-137014899D01*
X158294698Y-136549352D01*
X157829151Y-136238283D01*
X157280000Y-136129050D01*
X156730849Y-136238283D01*
X156265302Y-136549352D01*
X156010000Y-136931438D01*
X155754698Y-136549352D01*
X155289151Y-136238283D01*
X154740000Y-136129050D01*
X154190849Y-136238283D01*
X153725302Y-136549352D01*
X153470000Y-136931438D01*
X153214698Y-136549352D01*
X152749151Y-136238283D01*
X152200000Y-136129050D01*
X151650849Y-136238283D01*
X151185302Y-136549352D01*
X150932493Y-136927707D01*
X150584896Y-136495500D01*
X150091819Y-136225633D01*
X150009039Y-136208096D01*
X149787000Y-136330085D01*
X149533000Y-136330085D01*
X149310961Y-136208096D01*
X149228181Y-136225633D01*
X148735104Y-136495500D01*
X148390000Y-136924607D01*
X148044896Y-136495500D01*
X147551819Y-136225633D01*
X147469039Y-136208096D01*
X147247000Y-136330085D01*
X146993000Y-136330085D01*
X146770961Y-136208096D01*
X146688181Y-136225633D01*
X146195104Y-136495500D01*
X145847507Y-136927707D01*
X145594698Y-136549352D01*
X145129151Y-136238283D01*
X144580000Y-136129050D01*
X144030849Y-136238283D01*
X143565302Y-136549352D01*
X143310000Y-136931438D01*
X143054698Y-136549352D01*
X142589151Y-136238283D01*
X142040000Y-136129050D01*
X141490849Y-136238283D01*
X141025302Y-136549352D01*
X140926882Y-136696648D01*
X140898157Y-136552235D01*
X140757809Y-136342191D01*
X140547765Y-136201843D01*
X140300000Y-136152560D01*
X138700000Y-136152560D01*
X138452235Y-136201843D01*
X138242191Y-136342191D01*
X138101843Y-136552235D01*
X138052560Y-136800000D01*
X123435000Y-136800000D01*
X123435117Y-136666463D01*
X133716579Y-126385000D01*
X135726477Y-126385000D01*
X136014436Y-126673461D01*
X136288964Y-126787455D01*
X134924210Y-128152208D01*
X134732367Y-128439323D01*
X134732367Y-128439324D01*
X134664999Y-128777998D01*
X134665000Y-128778003D01*
X134665000Y-129876477D01*
X134376539Y-130164436D01*
X134165241Y-130673298D01*
X134164760Y-131224285D01*
X134375169Y-131733515D01*
X134764436Y-132123461D01*
X135273298Y-132334759D01*
X135824285Y-132335240D01*
X136333515Y-132124831D01*
X136723461Y-131735564D01*
X136934759Y-131226702D01*
X136935101Y-130834988D01*
X137224285Y-130835240D01*
X137733515Y-130624831D01*
X138065000Y-130293923D01*
X138065000Y-130815950D01*
X138174233Y-131365101D01*
X138485302Y-131830648D01*
X138950849Y-132141717D01*
X139500000Y-132250950D01*
X140049151Y-132141717D01*
X140514698Y-131830648D01*
X140770000Y-131448562D01*
X141025302Y-131830648D01*
X141490849Y-132141717D01*
X142040000Y-132250950D01*
X142589151Y-132141717D01*
X143054698Y-131830648D01*
X143310000Y-131448562D01*
X143565302Y-131830648D01*
X144030849Y-132141717D01*
X144580000Y-132250950D01*
X145129151Y-132141717D01*
X145594698Y-131830648D01*
X145847507Y-131452293D01*
X146195104Y-131884500D01*
X146688181Y-132154367D01*
X146770961Y-132171904D01*
X146993000Y-132049915D01*
X146993000Y-130507000D01*
X147247000Y-130507000D01*
X147247000Y-132049915D01*
X147469039Y-132171904D01*
X147551819Y-132154367D01*
X148044896Y-131884500D01*
X148390000Y-131455393D01*
X148735104Y-131884500D01*
X149228181Y-132154367D01*
X149310961Y-132171904D01*
X149533000Y-132049915D01*
X149533000Y-130507000D01*
X147247000Y-130507000D01*
X146993000Y-130507000D01*
X146973000Y-130507000D01*
X146973000Y-130253000D01*
X146993000Y-130253000D01*
X146993000Y-128710085D01*
X147247000Y-128710085D01*
X147247000Y-130253000D01*
X149533000Y-130253000D01*
X149533000Y-128710085D01*
X149787000Y-128710085D01*
X149787000Y-130253000D01*
X149807000Y-130253000D01*
X149807000Y-130507000D01*
X149787000Y-130507000D01*
X149787000Y-132049915D01*
X150009039Y-132171904D01*
X150091819Y-132154367D01*
X150584896Y-131884500D01*
X150932493Y-131452293D01*
X151185302Y-131830648D01*
X151650849Y-132141717D01*
X152200000Y-132250950D01*
X152749151Y-132141717D01*
X153214698Y-131830648D01*
X153470000Y-131448562D01*
X153725302Y-131830648D01*
X154190849Y-132141717D01*
X154740000Y-132250950D01*
X155289151Y-132141717D01*
X155754698Y-131830648D01*
X156010000Y-131448562D01*
X156265302Y-131830648D01*
X156730849Y-132141717D01*
X157280000Y-132250950D01*
X157829151Y-132141717D01*
X158294698Y-131830648D01*
X158605767Y-131365101D01*
X158715000Y-130815950D01*
X158715000Y-129944050D01*
X158605767Y-129394899D01*
X158294698Y-128929352D01*
X157829151Y-128618283D01*
X157280000Y-128509050D01*
X156730849Y-128618283D01*
X156265302Y-128929352D01*
X156010000Y-129311438D01*
X155754698Y-128929352D01*
X155289151Y-128618283D01*
X154740000Y-128509050D01*
X154190849Y-128618283D01*
X153725302Y-128929352D01*
X153470000Y-129311438D01*
X153214698Y-128929352D01*
X152749151Y-128618283D01*
X152200000Y-128509050D01*
X151650849Y-128618283D01*
X151185302Y-128929352D01*
X150932493Y-129307707D01*
X150584896Y-128875500D01*
X150091819Y-128605633D01*
X150009039Y-128588096D01*
X149787000Y-128710085D01*
X149533000Y-128710085D01*
X149310961Y-128588096D01*
X149228181Y-128605633D01*
X148735104Y-128875500D01*
X148390000Y-129304607D01*
X148044896Y-128875500D01*
X147551819Y-128605633D01*
X147469039Y-128588096D01*
X147247000Y-128710085D01*
X146993000Y-128710085D01*
X146770961Y-128588096D01*
X146688181Y-128605633D01*
X146195104Y-128875500D01*
X145847507Y-129307707D01*
X145594698Y-128929352D01*
X145285663Y-128722861D01*
X145573461Y-128435564D01*
X145784759Y-127926702D01*
X145785117Y-127516462D01*
X146366579Y-126935000D01*
X151426477Y-126935000D01*
X151714436Y-127223461D01*
X152223298Y-127434759D01*
X152774285Y-127435240D01*
X153283515Y-127224831D01*
X153673461Y-126835564D01*
X153884759Y-126326702D01*
X153885240Y-125775715D01*
X153674831Y-125266485D01*
X153285564Y-124876539D01*
X152776702Y-124665241D01*
X152225715Y-124664760D01*
X151716485Y-124875169D01*
X151426148Y-125165000D01*
X147175113Y-125165000D01*
X147274063Y-124926702D01*
X147274544Y-124375715D01*
X147064135Y-123866485D01*
X146674868Y-123476539D01*
X146166006Y-123265241D01*
X145615019Y-123264760D01*
X145105789Y-123475169D01*
X144815452Y-123765000D01*
X142757903Y-123765000D01*
X142757898Y-123764999D01*
X142475414Y-123821190D01*
X142419223Y-123832367D01*
X142132108Y-124024210D01*
X142132106Y-124024213D01*
X140817150Y-125339169D01*
X140817242Y-125233339D01*
X140605010Y-124719697D01*
X140212370Y-124326371D01*
X140004488Y-124240051D01*
X140210303Y-124155010D01*
X140603629Y-123762370D01*
X140816757Y-123249100D01*
X140817242Y-122693339D01*
X140605010Y-122179697D01*
X140212370Y-121786371D01*
X140020273Y-121706605D01*
X140151143Y-121652397D01*
X140187889Y-121524285D01*
X147814760Y-121524285D01*
X148025169Y-122033515D01*
X148414436Y-122423461D01*
X148923298Y-122634759D01*
X149338176Y-122635121D01*
X149611324Y-122817632D01*
X149644394Y-122824210D01*
X149949999Y-122885000D01*
X149950004Y-122884999D01*
X154133419Y-122884999D01*
X158774208Y-127525787D01*
X158774210Y-127525790D01*
X159061325Y-127717633D01*
X159117516Y-127728810D01*
X159400000Y-127785001D01*
X159400005Y-127785000D01*
X162026477Y-127785000D01*
X162314436Y-128073461D01*
X162823298Y-128284759D01*
X163374285Y-128285240D01*
X163883515Y-128074831D01*
X164273461Y-127685564D01*
X164484759Y-127176702D01*
X164485240Y-126625715D01*
X164274831Y-126116485D01*
X163885564Y-125726539D01*
X163376702Y-125515241D01*
X162825715Y-125514760D01*
X162316485Y-125725169D01*
X162026148Y-126015000D01*
X159766579Y-126015000D01*
X155125789Y-121374209D01*
X155089557Y-121350000D01*
X154838674Y-121182366D01*
X154782483Y-121171189D01*
X154499999Y-121114998D01*
X154499994Y-121114999D01*
X150585118Y-121114999D01*
X150585240Y-120975715D01*
X150374831Y-120466485D01*
X149985564Y-120076539D01*
X149476702Y-119865241D01*
X148925715Y-119864760D01*
X148416485Y-120075169D01*
X148026539Y-120464436D01*
X147815241Y-120973298D01*
X147814760Y-121524285D01*
X140187889Y-121524285D01*
X140220608Y-121410213D01*
X139420000Y-120609605D01*
X138619392Y-121410213D01*
X138688857Y-121652397D01*
X138829318Y-121702509D01*
X138629697Y-121784990D01*
X138236371Y-122177630D01*
X138038284Y-122654678D01*
X137844831Y-122186485D01*
X137455564Y-121796539D01*
X136946702Y-121585241D01*
X136395715Y-121584760D01*
X135886485Y-121795169D01*
X135596148Y-122085000D01*
X132880005Y-122085000D01*
X132880000Y-122084999D01*
X132541325Y-122152367D01*
X132254210Y-122344210D01*
X132254208Y-122344213D01*
X120533304Y-134065116D01*
X120125715Y-134064760D01*
X119616485Y-134275169D01*
X119226539Y-134664436D01*
X119015241Y-135173298D01*
X119014760Y-135724285D01*
X116235000Y-135724285D01*
X116235000Y-128785162D01*
X116324285Y-128785240D01*
X116833515Y-128574831D01*
X117211831Y-128197174D01*
X117587630Y-128573629D01*
X117819654Y-128669974D01*
X117589697Y-128764990D01*
X117196371Y-129157630D01*
X116983243Y-129670900D01*
X116982758Y-130226661D01*
X117194990Y-130740303D01*
X117565119Y-131111079D01*
X117370235Y-131149843D01*
X117160191Y-131290191D01*
X117019843Y-131500235D01*
X116970560Y-131748000D01*
X116970560Y-133272000D01*
X117019843Y-133519765D01*
X117160191Y-133729809D01*
X117370235Y-133870157D01*
X117618000Y-133919440D01*
X119142000Y-133919440D01*
X119389765Y-133870157D01*
X119599809Y-133729809D01*
X119740157Y-133519765D01*
X119789440Y-133272000D01*
X119789440Y-131748000D01*
X119740157Y-131500235D01*
X119599809Y-131290191D01*
X119389765Y-131149843D01*
X119194377Y-131110978D01*
X119563629Y-130742370D01*
X119776757Y-130229100D01*
X119777242Y-129673339D01*
X119565010Y-129159697D01*
X119172370Y-128766371D01*
X118940346Y-128670026D01*
X119170303Y-128575010D01*
X119563629Y-128182370D01*
X119776757Y-127669100D01*
X119777242Y-127113339D01*
X119565010Y-126599697D01*
X119172370Y-126206371D01*
X118956160Y-126116593D01*
X119111143Y-126052397D01*
X119180608Y-125810213D01*
X118380000Y-125009605D01*
X117579392Y-125810213D01*
X117648857Y-126052397D01*
X117815293Y-126111776D01*
X117589697Y-126204990D01*
X117201198Y-126592811D01*
X116835564Y-126226539D01*
X116326702Y-126015241D01*
X115775715Y-126014760D01*
X115266485Y-126225169D01*
X114876539Y-126614436D01*
X114665241Y-127123298D01*
X114664857Y-127563038D01*
X114532367Y-127761325D01*
X114532367Y-127761326D01*
X114464999Y-128100000D01*
X114465000Y-128100005D01*
X114465000Y-128465357D01*
X114391510Y-128287497D01*
X113998870Y-127894171D01*
X113790988Y-127807851D01*
X113996803Y-127722810D01*
X114390129Y-127330170D01*
X114603257Y-126816900D01*
X114603742Y-126261139D01*
X114391510Y-125747497D01*
X113998870Y-125354171D01*
X113790988Y-125267851D01*
X113996803Y-125182810D01*
X114390129Y-124790170D01*
X114459833Y-124622302D01*
X116970856Y-124622302D01*
X116998638Y-125177368D01*
X117157603Y-125561143D01*
X117399787Y-125630608D01*
X118200395Y-124830000D01*
X118559605Y-124830000D01*
X119360213Y-125630608D01*
X119602397Y-125561143D01*
X119789144Y-125037698D01*
X119761362Y-124482632D01*
X119602397Y-124098857D01*
X119360213Y-124029392D01*
X118559605Y-124830000D01*
X118200395Y-124830000D01*
X117399787Y-124029392D01*
X117157603Y-124098857D01*
X116970856Y-124622302D01*
X114459833Y-124622302D01*
X114603257Y-124276900D01*
X114603742Y-123721139D01*
X114391510Y-123207497D01*
X113998870Y-122814171D01*
X113790988Y-122727851D01*
X113996803Y-122642810D01*
X114390129Y-122250170D01*
X114603257Y-121736900D01*
X114603742Y-121181139D01*
X114391510Y-120667497D01*
X113998870Y-120274171D01*
X113790988Y-120187851D01*
X113996803Y-120102810D01*
X114390129Y-119710170D01*
X114603257Y-119196900D01*
X114603742Y-118641139D01*
X114391510Y-118127497D01*
X113998870Y-117734171D01*
X113790988Y-117647851D01*
X113996803Y-117562810D01*
X114390129Y-117170170D01*
X114603257Y-116656900D01*
X114603742Y-116101139D01*
X114391510Y-115587497D01*
X113998870Y-115194171D01*
X113790988Y-115107851D01*
X113996803Y-115022810D01*
X114390129Y-114630170D01*
X114603257Y-114116900D01*
X114603742Y-113561139D01*
X114391510Y-113047497D01*
X113998870Y-112654171D01*
X113790988Y-112567851D01*
X113996803Y-112482810D01*
X114390129Y-112090170D01*
X114603257Y-111576900D01*
X114603742Y-111021139D01*
X114391510Y-110507497D01*
X113998870Y-110114171D01*
X113790988Y-110027851D01*
X113996803Y-109942810D01*
X114390129Y-109550170D01*
X114603257Y-109036900D01*
X114603742Y-108481139D01*
X114391510Y-107967497D01*
X113998870Y-107574171D01*
X113790988Y-107487851D01*
X113996803Y-107402810D01*
X114390129Y-107010170D01*
X114603257Y-106496900D01*
X114603742Y-105941139D01*
X114391510Y-105427497D01*
X113998870Y-105034171D01*
X113790988Y-104947851D01*
X113996803Y-104862810D01*
X114390129Y-104470170D01*
X114603257Y-103956900D01*
X114603742Y-103401139D01*
X114391510Y-102887497D01*
X113998870Y-102494171D01*
X113790988Y-102407851D01*
X113996803Y-102322810D01*
X114390129Y-101930170D01*
X114603257Y-101416900D01*
X114603742Y-100861139D01*
X114391510Y-100347497D01*
X113998870Y-99954171D01*
X113790988Y-99867851D01*
X113996803Y-99782810D01*
X114390129Y-99390170D01*
X114603257Y-98876900D01*
X114603742Y-98321139D01*
X114391510Y-97807497D01*
X113998870Y-97414171D01*
X113790988Y-97327851D01*
X113996803Y-97242810D01*
X114390129Y-96850170D01*
X114603257Y-96336900D01*
X114603742Y-95781139D01*
X114391510Y-95267497D01*
X113998870Y-94874171D01*
X113790988Y-94787851D01*
X113996803Y-94702810D01*
X114390129Y-94310170D01*
X114603257Y-93796900D01*
X114603742Y-93241139D01*
X114391510Y-92727497D01*
X113998870Y-92334171D01*
X113790988Y-92247851D01*
X113996803Y-92162810D01*
X114390129Y-91770170D01*
X114603257Y-91256900D01*
X114603742Y-90701139D01*
X114391510Y-90187497D01*
X113998870Y-89794171D01*
X113790988Y-89707851D01*
X113996803Y-89622810D01*
X114390129Y-89230170D01*
X114603257Y-88716900D01*
X114603742Y-88161139D01*
X114391510Y-87647497D01*
X113998870Y-87254171D01*
X113790988Y-87167851D01*
X113996803Y-87082810D01*
X114390129Y-86690170D01*
X114515096Y-86389215D01*
X114514760Y-86774285D01*
X114725169Y-87283515D01*
X115114436Y-87673461D01*
X115623298Y-87884759D01*
X116033537Y-87885117D01*
X122015000Y-93866579D01*
X122015000Y-106604475D01*
X121726539Y-106892434D01*
X121515241Y-107401296D01*
X121514938Y-107748557D01*
X118340592Y-104574210D01*
X118205491Y-104483939D01*
X118053477Y-104382367D01*
X117997286Y-104371190D01*
X117714802Y-104314999D01*
X117714797Y-104315000D01*
X117173523Y-104315000D01*
X116885564Y-104026539D01*
X116376702Y-103815241D01*
X115825715Y-103814760D01*
X115316485Y-104025169D01*
X114926539Y-104414436D01*
X114715241Y-104923298D01*
X114714760Y-105474285D01*
X114925169Y-105983515D01*
X115314436Y-106373461D01*
X115823298Y-106584759D01*
X116374285Y-106585240D01*
X116883515Y-106374831D01*
X117173852Y-106085000D01*
X117348222Y-106085000D01*
X120252991Y-108989768D01*
X120119740Y-108989652D01*
X119380714Y-109295012D01*
X118814799Y-109859940D01*
X118508150Y-110598432D01*
X118507452Y-111398060D01*
X118812812Y-112137086D01*
X119377740Y-112703001D01*
X120116232Y-113009650D01*
X120855925Y-113010296D01*
X119124210Y-114742010D01*
X118932367Y-115029125D01*
X118932367Y-115029126D01*
X118864999Y-115367800D01*
X118865000Y-115367805D01*
X118865000Y-115526477D01*
X118576539Y-115814436D01*
X118365241Y-116323298D01*
X118364760Y-116874285D01*
X118484914Y-117165081D01*
X118117716Y-117164760D01*
X117608486Y-117375169D01*
X117218540Y-117764436D01*
X117007242Y-118273298D01*
X117006761Y-118824285D01*
X117217170Y-119333515D01*
X117480288Y-119597092D01*
X117218540Y-119858385D01*
X117007242Y-120367247D01*
X117006761Y-120918234D01*
X117217170Y-121427464D01*
X117419652Y-121630300D01*
X117218540Y-121831062D01*
X117007242Y-122339924D01*
X117006761Y-122890911D01*
X117217170Y-123400141D01*
X117598730Y-123782367D01*
X117579392Y-123849787D01*
X118380000Y-124650395D01*
X119180608Y-123849787D01*
X119165111Y-123795756D01*
X119175516Y-123791457D01*
X119465853Y-123501626D01*
X123197275Y-123501626D01*
X123270816Y-123679610D01*
X123660083Y-124069556D01*
X124168945Y-124280854D01*
X124719932Y-124281335D01*
X125229162Y-124070926D01*
X125619108Y-123681659D01*
X125830406Y-123172797D01*
X125830790Y-122732552D01*
X126333515Y-122524831D01*
X126723461Y-122135564D01*
X126934759Y-121626702D01*
X126935240Y-121075715D01*
X126724831Y-120566485D01*
X126381248Y-120222302D01*
X138010856Y-120222302D01*
X138038638Y-120777368D01*
X138197603Y-121161143D01*
X138439787Y-121230608D01*
X139240395Y-120430000D01*
X138439787Y-119629392D01*
X138197603Y-119698857D01*
X138010856Y-120222302D01*
X126381248Y-120222302D01*
X126335564Y-120176539D01*
X125826702Y-119965241D01*
X125584899Y-119965030D01*
X125585239Y-119575715D01*
X125485778Y-119335000D01*
X135376477Y-119335000D01*
X135664436Y-119623461D01*
X136173298Y-119834759D01*
X136724285Y-119835240D01*
X137233515Y-119624831D01*
X137623461Y-119235564D01*
X137834759Y-118726702D01*
X137835240Y-118175715D01*
X137624831Y-117666485D01*
X137244011Y-117285001D01*
X138158568Y-117285001D01*
X138023243Y-117610900D01*
X138022758Y-118166661D01*
X138234990Y-118680303D01*
X138627630Y-119073629D01*
X138819727Y-119153395D01*
X138688857Y-119207603D01*
X138619392Y-119449787D01*
X139420000Y-120250395D01*
X139434143Y-120236253D01*
X139613748Y-120415858D01*
X139599605Y-120430000D01*
X140400213Y-121230608D01*
X140642397Y-121161143D01*
X140829144Y-120637698D01*
X140801362Y-120082632D01*
X140642397Y-119698857D01*
X140400215Y-119629393D01*
X140492609Y-119536999D01*
X157735419Y-119536999D01*
X161515116Y-123316695D01*
X161514760Y-123724285D01*
X161725169Y-124233515D01*
X162114436Y-124623461D01*
X162623298Y-124834759D01*
X163174285Y-124835240D01*
X163683515Y-124624831D01*
X164073461Y-124235564D01*
X164284759Y-123726702D01*
X164285240Y-123175715D01*
X164074831Y-122666485D01*
X163685564Y-122276539D01*
X163176702Y-122065241D01*
X162766462Y-122064883D01*
X158727789Y-118026209D01*
X158638812Y-117966757D01*
X158440674Y-117834366D01*
X158384483Y-117823189D01*
X158101999Y-117766998D01*
X158101994Y-117766999D01*
X157061289Y-117766999D01*
X157197791Y-117675792D01*
X157197792Y-117675791D01*
X158838571Y-116035011D01*
X172629497Y-116035011D01*
X172523243Y-116290900D01*
X172522758Y-116846661D01*
X172734990Y-117360303D01*
X173127630Y-117753629D01*
X173640900Y-117966757D01*
X174196661Y-117967242D01*
X174710303Y-117755010D01*
X175103629Y-117362370D01*
X175189949Y-117154488D01*
X175274990Y-117360303D01*
X175667630Y-117753629D01*
X176180900Y-117966757D01*
X176736661Y-117967242D01*
X177250303Y-117755010D01*
X177643629Y-117362370D01*
X177729949Y-117154488D01*
X177814990Y-117360303D01*
X178207630Y-117753629D01*
X178720900Y-117966757D01*
X179276661Y-117967242D01*
X179790303Y-117755010D01*
X180183629Y-117362370D01*
X180269949Y-117154488D01*
X180354990Y-117360303D01*
X180747630Y-117753629D01*
X181260900Y-117966757D01*
X181816661Y-117967242D01*
X182330303Y-117755010D01*
X182723629Y-117362370D01*
X182809949Y-117154488D01*
X182894990Y-117360303D01*
X183287630Y-117753629D01*
X183800900Y-117966757D01*
X184356661Y-117967242D01*
X184870303Y-117755010D01*
X185263629Y-117362370D01*
X185476757Y-116849100D01*
X185477242Y-116293339D01*
X185265010Y-115779697D01*
X184872370Y-115386371D01*
X184359100Y-115173243D01*
X183803339Y-115172758D01*
X183289697Y-115384990D01*
X182896371Y-115777630D01*
X182810051Y-115985512D01*
X182725010Y-115779697D01*
X182628378Y-115682896D01*
X182734759Y-115426702D01*
X182735240Y-114875715D01*
X182524831Y-114366485D01*
X182227500Y-114068635D01*
X182333515Y-114024831D01*
X182723461Y-113635564D01*
X182934759Y-113126702D01*
X182935240Y-112575715D01*
X182839209Y-112343301D01*
X195783100Y-125287192D01*
X195783100Y-149180000D01*
X101191100Y-149180000D01*
X101191100Y-145922815D01*
X113204630Y-145922815D01*
X113528980Y-146707800D01*
X114129041Y-147308909D01*
X114913459Y-147634628D01*
X115762815Y-147635370D01*
X116547800Y-147311020D01*
X117148909Y-146710959D01*
X117474628Y-145926541D01*
X117474631Y-145922815D01*
X118284630Y-145922815D01*
X118608980Y-146707800D01*
X119209041Y-147308909D01*
X119993459Y-147634628D01*
X120842815Y-147635370D01*
X121627800Y-147311020D01*
X122228909Y-146710959D01*
X122554628Y-145926541D01*
X122555370Y-145077185D01*
X122231020Y-144292200D01*
X121939330Y-144000000D01*
X123352560Y-144000000D01*
X123352560Y-147000000D01*
X123401843Y-147247765D01*
X123542191Y-147457809D01*
X123752235Y-147598157D01*
X124000000Y-147647440D01*
X127000000Y-147647440D01*
X127247765Y-147598157D01*
X127457809Y-147457809D01*
X127598157Y-147247765D01*
X127647440Y-147000000D01*
X127647440Y-145922815D01*
X130204630Y-145922815D01*
X130528980Y-146707800D01*
X131129041Y-147308909D01*
X131913459Y-147634628D01*
X132762815Y-147635370D01*
X133547800Y-147311020D01*
X134148909Y-146710959D01*
X134474628Y-145926541D01*
X134474631Y-145922815D01*
X135284630Y-145922815D01*
X135608980Y-146707800D01*
X136209041Y-147308909D01*
X136993459Y-147634628D01*
X137842815Y-147635370D01*
X138627800Y-147311020D01*
X139228909Y-146710959D01*
X139554628Y-145926541D01*
X139555370Y-145077185D01*
X139231020Y-144292200D01*
X138939330Y-144000000D01*
X140352560Y-144000000D01*
X140352560Y-147000000D01*
X140401843Y-147247765D01*
X140542191Y-147457809D01*
X140752235Y-147598157D01*
X141000000Y-147647440D01*
X144000000Y-147647440D01*
X144247765Y-147598157D01*
X144457809Y-147457809D01*
X144598157Y-147247765D01*
X144644661Y-147013970D01*
X148005635Y-147013970D01*
X148165418Y-147332739D01*
X148956187Y-147642723D01*
X149805387Y-147626497D01*
X150514582Y-147332739D01*
X150674365Y-147013970D01*
X149340000Y-145679605D01*
X148005635Y-147013970D01*
X144644661Y-147013970D01*
X144647440Y-147000000D01*
X144647440Y-145116187D01*
X147197277Y-145116187D01*
X147213503Y-145965387D01*
X147507261Y-146674582D01*
X147826030Y-146834365D01*
X149160395Y-145500000D01*
X149519605Y-145500000D01*
X150853970Y-146834365D01*
X151172739Y-146674582D01*
X151467434Y-145922815D01*
X152284630Y-145922815D01*
X152608980Y-146707800D01*
X153209041Y-147308909D01*
X153993459Y-147634628D01*
X154842815Y-147635370D01*
X155627800Y-147311020D01*
X156228909Y-146710959D01*
X156554628Y-145926541D01*
X156555370Y-145077185D01*
X156231020Y-144292200D01*
X155939330Y-144000000D01*
X157352560Y-144000000D01*
X157352560Y-147000000D01*
X157401843Y-147247765D01*
X157542191Y-147457809D01*
X157752235Y-147598157D01*
X158000000Y-147647440D01*
X161000000Y-147647440D01*
X161247765Y-147598157D01*
X161457809Y-147457809D01*
X161598157Y-147247765D01*
X161647440Y-147000000D01*
X161647440Y-145922815D01*
X164284630Y-145922815D01*
X164608980Y-146707800D01*
X165209041Y-147308909D01*
X165993459Y-147634628D01*
X166842815Y-147635370D01*
X167627800Y-147311020D01*
X168228909Y-146710959D01*
X168554628Y-145926541D01*
X168555370Y-145077185D01*
X168231020Y-144292200D01*
X167939330Y-144000000D01*
X169352560Y-144000000D01*
X169352560Y-147000000D01*
X169401843Y-147247765D01*
X169542191Y-147457809D01*
X169752235Y-147598157D01*
X170000000Y-147647440D01*
X173000000Y-147647440D01*
X173247765Y-147598157D01*
X173457809Y-147457809D01*
X173598157Y-147247765D01*
X173644661Y-147013970D01*
X177085635Y-147013970D01*
X177245418Y-147332739D01*
X178036187Y-147642723D01*
X178885387Y-147626497D01*
X179594582Y-147332739D01*
X179754365Y-147013970D01*
X178420000Y-145679605D01*
X177085635Y-147013970D01*
X173644661Y-147013970D01*
X173647440Y-147000000D01*
X173647440Y-145116187D01*
X176277277Y-145116187D01*
X176293503Y-145965387D01*
X176587261Y-146674582D01*
X176906030Y-146834365D01*
X178240395Y-145500000D01*
X178599605Y-145500000D01*
X179933970Y-146834365D01*
X180252739Y-146674582D01*
X180562723Y-145883813D01*
X180546497Y-145034613D01*
X180252739Y-144325418D01*
X179933970Y-144165635D01*
X178599605Y-145500000D01*
X178240395Y-145500000D01*
X176906030Y-144165635D01*
X176587261Y-144325418D01*
X176277277Y-145116187D01*
X173647440Y-145116187D01*
X173647440Y-144000000D01*
X173644662Y-143986030D01*
X177085635Y-143986030D01*
X178420000Y-145320395D01*
X179740395Y-144000000D01*
X181352560Y-144000000D01*
X181352560Y-147000000D01*
X181401843Y-147247765D01*
X181542191Y-147457809D01*
X181752235Y-147598157D01*
X182000000Y-147647440D01*
X185000000Y-147647440D01*
X185247765Y-147598157D01*
X185457809Y-147457809D01*
X185598157Y-147247765D01*
X185647440Y-147000000D01*
X185647440Y-145308026D01*
X189003079Y-145308026D01*
X189373004Y-146203314D01*
X190057383Y-146888888D01*
X190952024Y-147260376D01*
X191920726Y-147261221D01*
X192816014Y-146891296D01*
X193501588Y-146206917D01*
X193873076Y-145312276D01*
X193873921Y-144343574D01*
X193503996Y-143448286D01*
X192819617Y-142762712D01*
X191924976Y-142391224D01*
X190956274Y-142390379D01*
X190060986Y-142760304D01*
X189375412Y-143444683D01*
X189003924Y-144339324D01*
X189003079Y-145308026D01*
X185647440Y-145308026D01*
X185647440Y-144000000D01*
X185598157Y-143752235D01*
X185457809Y-143542191D01*
X185247765Y-143401843D01*
X185000000Y-143352560D01*
X182000000Y-143352560D01*
X181752235Y-143401843D01*
X181542191Y-143542191D01*
X181401843Y-143752235D01*
X181352560Y-144000000D01*
X179740395Y-144000000D01*
X179754365Y-143986030D01*
X179594582Y-143667261D01*
X178803813Y-143357277D01*
X177954613Y-143373503D01*
X177245418Y-143667261D01*
X177085635Y-143986030D01*
X173644662Y-143986030D01*
X173598157Y-143752235D01*
X173457809Y-143542191D01*
X173247765Y-143401843D01*
X173000000Y-143352560D01*
X170000000Y-143352560D01*
X169752235Y-143401843D01*
X169542191Y-143542191D01*
X169401843Y-143752235D01*
X169352560Y-144000000D01*
X167939330Y-144000000D01*
X167630959Y-143691091D01*
X166846541Y-143365372D01*
X165997185Y-143364630D01*
X165212200Y-143688980D01*
X164611091Y-144289041D01*
X164285372Y-145073459D01*
X164284630Y-145922815D01*
X161647440Y-145922815D01*
X161647440Y-144000000D01*
X161598157Y-143752235D01*
X161457809Y-143542191D01*
X161247765Y-143401843D01*
X161000000Y-143352560D01*
X158000000Y-143352560D01*
X157752235Y-143401843D01*
X157542191Y-143542191D01*
X157401843Y-143752235D01*
X157352560Y-144000000D01*
X155939330Y-144000000D01*
X155630959Y-143691091D01*
X154846541Y-143365372D01*
X153997185Y-143364630D01*
X153212200Y-143688980D01*
X152611091Y-144289041D01*
X152285372Y-145073459D01*
X152284630Y-145922815D01*
X151467434Y-145922815D01*
X151482723Y-145883813D01*
X151466497Y-145034613D01*
X151172739Y-144325418D01*
X150853970Y-144165635D01*
X149519605Y-145500000D01*
X149160395Y-145500000D01*
X147826030Y-144165635D01*
X147507261Y-144325418D01*
X147197277Y-145116187D01*
X144647440Y-145116187D01*
X144647440Y-144000000D01*
X144644662Y-143986030D01*
X148005635Y-143986030D01*
X149340000Y-145320395D01*
X150674365Y-143986030D01*
X150514582Y-143667261D01*
X149723813Y-143357277D01*
X148874613Y-143373503D01*
X148165418Y-143667261D01*
X148005635Y-143986030D01*
X144644662Y-143986030D01*
X144598157Y-143752235D01*
X144457809Y-143542191D01*
X144247765Y-143401843D01*
X144000000Y-143352560D01*
X141000000Y-143352560D01*
X140752235Y-143401843D01*
X140542191Y-143542191D01*
X140401843Y-143752235D01*
X140352560Y-144000000D01*
X138939330Y-144000000D01*
X138630959Y-143691091D01*
X137846541Y-143365372D01*
X136997185Y-143364630D01*
X136212200Y-143688980D01*
X135611091Y-144289041D01*
X135285372Y-145073459D01*
X135284630Y-145922815D01*
X134474631Y-145922815D01*
X134475370Y-145077185D01*
X134151020Y-144292200D01*
X133550959Y-143691091D01*
X132766541Y-143365372D01*
X131917185Y-143364630D01*
X131132200Y-143688980D01*
X130531091Y-144289041D01*
X130205372Y-145073459D01*
X130204630Y-145922815D01*
X127647440Y-145922815D01*
X127647440Y-144000000D01*
X127598157Y-143752235D01*
X127457809Y-143542191D01*
X127247765Y-143401843D01*
X127000000Y-143352560D01*
X124000000Y-143352560D01*
X123752235Y-143401843D01*
X123542191Y-143542191D01*
X123401843Y-143752235D01*
X123352560Y-144000000D01*
X121939330Y-144000000D01*
X121630959Y-143691091D01*
X120846541Y-143365372D01*
X119997185Y-143364630D01*
X119212200Y-143688980D01*
X118611091Y-144289041D01*
X118285372Y-145073459D01*
X118284630Y-145922815D01*
X117474631Y-145922815D01*
X117475370Y-145077185D01*
X117151020Y-144292200D01*
X116550959Y-143691091D01*
X115766541Y-143365372D01*
X114917185Y-143364630D01*
X114132200Y-143688980D01*
X113531091Y-144289041D01*
X113205372Y-145073459D01*
X113204630Y-145922815D01*
X101191100Y-145922815D01*
X101191100Y-142768026D01*
X103151079Y-142768026D01*
X103521004Y-143663314D01*
X104205383Y-144348888D01*
X105100024Y-144720376D01*
X106068726Y-144721221D01*
X106964014Y-144351296D01*
X107649588Y-143666917D01*
X108021076Y-142772276D01*
X108021921Y-141803574D01*
X107651996Y-140908286D01*
X106967617Y-140222712D01*
X106072976Y-139851224D01*
X105104274Y-139850379D01*
X104208986Y-140220304D01*
X103523412Y-140904683D01*
X103151924Y-141799324D01*
X103151079Y-142768026D01*
X101191100Y-142768026D01*
X101191100Y-100930102D01*
X104177356Y-100930102D01*
X104205138Y-101485168D01*
X104364103Y-101868943D01*
X104606287Y-101938408D01*
X105406895Y-101137800D01*
X105766105Y-101137800D01*
X106566713Y-101938408D01*
X106808897Y-101868943D01*
X106852953Y-101745456D01*
X106904103Y-101868943D01*
X107146287Y-101938408D01*
X107946895Y-101137800D01*
X107146287Y-100337192D01*
X106904103Y-100406657D01*
X106860047Y-100530144D01*
X106808897Y-100406657D01*
X106566713Y-100337192D01*
X105766105Y-101137800D01*
X105406895Y-101137800D01*
X104606287Y-100337192D01*
X104364103Y-100406657D01*
X104177356Y-100930102D01*
X101191100Y-100930102D01*
X101191100Y-99578013D01*
X104785892Y-99578013D01*
X104855357Y-99820197D01*
X104978844Y-99864253D01*
X104855357Y-99915403D01*
X104785892Y-100157587D01*
X105586500Y-100958195D01*
X106387108Y-100157587D01*
X106317643Y-99915403D01*
X106194156Y-99871347D01*
X106317643Y-99820197D01*
X106387108Y-99578013D01*
X105586500Y-98777405D01*
X104785892Y-99578013D01*
X101191100Y-99578013D01*
X101191100Y-98390102D01*
X104177356Y-98390102D01*
X104205138Y-98945168D01*
X104364103Y-99328943D01*
X104606287Y-99398408D01*
X105406895Y-98597800D01*
X104606287Y-97797192D01*
X104364103Y-97866657D01*
X104177356Y-98390102D01*
X101191100Y-98390102D01*
X101191100Y-68092026D01*
X103151079Y-68092026D01*
X103521004Y-68987314D01*
X104205383Y-69672888D01*
X105100024Y-70044376D01*
X106068726Y-70045221D01*
X106964014Y-69675296D01*
X107649588Y-68990917D01*
X108021076Y-68096276D01*
X108021921Y-67127574D01*
X107651996Y-66232286D01*
X106967617Y-65546712D01*
X106072976Y-65175224D01*
X105104274Y-65174379D01*
X104208986Y-65544304D01*
X103523412Y-66228683D01*
X103151924Y-67123324D01*
X103151079Y-68092026D01*
X101191100Y-68092026D01*
X101191100Y-60710400D01*
X118964600Y-60710400D01*
X118814799Y-60859940D01*
G36*
X131809390Y-110522103D02*
X132202030Y-110915429D01*
X132409912Y-111001749D01*
X132204097Y-111086790D01*
X131810771Y-111479430D01*
X131731005Y-111671527D01*
X131676797Y-111540657D01*
X131434613Y-111471192D01*
X130634005Y-112271800D01*
X131434613Y-113072408D01*
X131676797Y-113002943D01*
X131726909Y-112862482D01*
X131809390Y-113062103D01*
X132202030Y-113455429D01*
X132715300Y-113668557D01*
X133271061Y-113669042D01*
X133784703Y-113456810D01*
X134178029Y-113064170D01*
X134264349Y-112856288D01*
X134349390Y-113062103D01*
X134742030Y-113455429D01*
X135255300Y-113668557D01*
X135295431Y-113668592D01*
X134916485Y-113825169D01*
X134526539Y-114214436D01*
X134315241Y-114723298D01*
X134315195Y-114776557D01*
X133926702Y-114615241D01*
X133375715Y-114614760D01*
X132866485Y-114825169D01*
X132476539Y-115214436D01*
X132265241Y-115723298D01*
X132264760Y-116274285D01*
X132475169Y-116783515D01*
X132864436Y-117173461D01*
X133373298Y-117384759D01*
X133924285Y-117385240D01*
X134433515Y-117174831D01*
X134543543Y-117064994D01*
X134771986Y-117217634D01*
X134812989Y-117225790D01*
X135110661Y-117285002D01*
X135110666Y-117285001D01*
X135656636Y-117285001D01*
X135376148Y-117565000D01*
X121966579Y-117565000D01*
X121134884Y-116733305D01*
X121135240Y-116325715D01*
X120924831Y-115816485D01*
X120739025Y-115630355D01*
X123977294Y-112392085D01*
X123977158Y-112548461D01*
X124189390Y-113062103D01*
X124582030Y-113455429D01*
X125095300Y-113668557D01*
X125651061Y-113669042D01*
X126164703Y-113456810D01*
X126558029Y-113064170D01*
X126644349Y-112856288D01*
X126729390Y-113062103D01*
X127122030Y-113455429D01*
X127635300Y-113668557D01*
X128191061Y-113669042D01*
X128704703Y-113456810D01*
X128909857Y-113252013D01*
X129653792Y-113252013D01*
X129723257Y-113494197D01*
X130246702Y-113680944D01*
X130801768Y-113653162D01*
X131185543Y-113494197D01*
X131255008Y-113252013D01*
X130454400Y-112451405D01*
X129653792Y-113252013D01*
X128909857Y-113252013D01*
X129098029Y-113064170D01*
X129177795Y-112872073D01*
X129232003Y-113002943D01*
X129474187Y-113072408D01*
X130274795Y-112271800D01*
X129474187Y-111471192D01*
X129232003Y-111540657D01*
X129181891Y-111681118D01*
X129099410Y-111481497D01*
X128706770Y-111088171D01*
X128498888Y-111001851D01*
X128704703Y-110916810D01*
X129098029Y-110524170D01*
X129184349Y-110316288D01*
X129269390Y-110522103D01*
X129662030Y-110915429D01*
X129854127Y-110995195D01*
X129723257Y-111049403D01*
X129653792Y-111291587D01*
X130454400Y-112092195D01*
X131255008Y-111291587D01*
X131185543Y-111049403D01*
X131045082Y-110999291D01*
X131244703Y-110916810D01*
X131638029Y-110524170D01*
X131724349Y-110316288D01*
X131809390Y-110522103D01*
X131809390Y-110522103D01*
G37*
X131809390Y-110522103D02*
X132202030Y-110915429D01*
X132409912Y-111001749D01*
X132204097Y-111086790D01*
X131810771Y-111479430D01*
X131731005Y-111671527D01*
X131676797Y-111540657D01*
X131434613Y-111471192D01*
X130634005Y-112271800D01*
X131434613Y-113072408D01*
X131676797Y-113002943D01*
X131726909Y-112862482D01*
X131809390Y-113062103D01*
X132202030Y-113455429D01*
X132715300Y-113668557D01*
X133271061Y-113669042D01*
X133784703Y-113456810D01*
X134178029Y-113064170D01*
X134264349Y-112856288D01*
X134349390Y-113062103D01*
X134742030Y-113455429D01*
X135255300Y-113668557D01*
X135295431Y-113668592D01*
X134916485Y-113825169D01*
X134526539Y-114214436D01*
X134315241Y-114723298D01*
X134315195Y-114776557D01*
X133926702Y-114615241D01*
X133375715Y-114614760D01*
X132866485Y-114825169D01*
X132476539Y-115214436D01*
X132265241Y-115723298D01*
X132264760Y-116274285D01*
X132475169Y-116783515D01*
X132864436Y-117173461D01*
X133373298Y-117384759D01*
X133924285Y-117385240D01*
X134433515Y-117174831D01*
X134543543Y-117064994D01*
X134771986Y-117217634D01*
X134812989Y-117225790D01*
X135110661Y-117285002D01*
X135110666Y-117285001D01*
X135656636Y-117285001D01*
X135376148Y-117565000D01*
X121966579Y-117565000D01*
X121134884Y-116733305D01*
X121135240Y-116325715D01*
X120924831Y-115816485D01*
X120739025Y-115630355D01*
X123977294Y-112392085D01*
X123977158Y-112548461D01*
X124189390Y-113062103D01*
X124582030Y-113455429D01*
X125095300Y-113668557D01*
X125651061Y-113669042D01*
X126164703Y-113456810D01*
X126558029Y-113064170D01*
X126644349Y-112856288D01*
X126729390Y-113062103D01*
X127122030Y-113455429D01*
X127635300Y-113668557D01*
X128191061Y-113669042D01*
X128704703Y-113456810D01*
X128909857Y-113252013D01*
X129653792Y-113252013D01*
X129723257Y-113494197D01*
X130246702Y-113680944D01*
X130801768Y-113653162D01*
X131185543Y-113494197D01*
X131255008Y-113252013D01*
X130454400Y-112451405D01*
X129653792Y-113252013D01*
X128909857Y-113252013D01*
X129098029Y-113064170D01*
X129177795Y-112872073D01*
X129232003Y-113002943D01*
X129474187Y-113072408D01*
X130274795Y-112271800D01*
X129474187Y-111471192D01*
X129232003Y-111540657D01*
X129181891Y-111681118D01*
X129099410Y-111481497D01*
X128706770Y-111088171D01*
X128498888Y-111001851D01*
X128704703Y-110916810D01*
X129098029Y-110524170D01*
X129184349Y-110316288D01*
X129269390Y-110522103D01*
X129662030Y-110915429D01*
X129854127Y-110995195D01*
X129723257Y-111049403D01*
X129653792Y-111291587D01*
X130454400Y-112092195D01*
X131255008Y-111291587D01*
X131185543Y-111049403D01*
X131045082Y-110999291D01*
X131244703Y-110916810D01*
X131638029Y-110524170D01*
X131724349Y-110316288D01*
X131809390Y-110522103D01*
G36*
X156205421Y-116165002D02*
X155594579Y-116165002D01*
X155353798Y-115924221D01*
X155295101Y-115885001D01*
X155066683Y-115732378D01*
X155010492Y-115721201D01*
X154728008Y-115665010D01*
X154728003Y-115665011D01*
X151471997Y-115665011D01*
X151471992Y-115665010D01*
X151189508Y-115721201D01*
X151133317Y-115732378D01*
X150846202Y-115924221D01*
X150846200Y-115924224D01*
X150605422Y-116165002D01*
X148380209Y-116165002D01*
X148479159Y-115926703D01*
X148479640Y-115375716D01*
X148380179Y-115135001D01*
X157235423Y-115135001D01*
X156205421Y-116165002D01*
X156205421Y-116165002D01*
G37*
X156205421Y-116165002D02*
X155594579Y-116165002D01*
X155353798Y-115924221D01*
X155295101Y-115885001D01*
X155066683Y-115732378D01*
X155010492Y-115721201D01*
X154728008Y-115665010D01*
X154728003Y-115665011D01*
X151471997Y-115665011D01*
X151471992Y-115665010D01*
X151189508Y-115721201D01*
X151133317Y-115732378D01*
X150846202Y-115924221D01*
X150846200Y-115924224D01*
X150605422Y-116165002D01*
X148380209Y-116165002D01*
X148479159Y-115926703D01*
X148479640Y-115375716D01*
X148380179Y-115135001D01*
X157235423Y-115135001D01*
X156205421Y-116165002D01*
G36*
X141969390Y-110522103D02*
X142362030Y-110915429D01*
X142569912Y-111001749D01*
X142364097Y-111086790D01*
X141970771Y-111479430D01*
X141891005Y-111671527D01*
X141836797Y-111540657D01*
X141594613Y-111471192D01*
X140794005Y-112271800D01*
X141594613Y-113072408D01*
X141836797Y-113002943D01*
X141886909Y-112862482D01*
X141969390Y-113062103D01*
X142271760Y-113365001D01*
X141382600Y-113365001D01*
X141415008Y-113252013D01*
X140614400Y-112451405D01*
X139813792Y-113252013D01*
X139846200Y-113365001D01*
X138956672Y-113365001D01*
X139258029Y-113064170D01*
X139337795Y-112872073D01*
X139392003Y-113002943D01*
X139634187Y-113072408D01*
X140434795Y-112271800D01*
X139634187Y-111471192D01*
X139392003Y-111540657D01*
X139341891Y-111681118D01*
X139259410Y-111481497D01*
X138866770Y-111088171D01*
X138658888Y-111001851D01*
X138864703Y-110916810D01*
X139258029Y-110524170D01*
X139344349Y-110316288D01*
X139429390Y-110522103D01*
X139822030Y-110915429D01*
X140014127Y-110995195D01*
X139883257Y-111049403D01*
X139813792Y-111291587D01*
X140614400Y-112092195D01*
X141415008Y-111291587D01*
X141345543Y-111049403D01*
X141205082Y-110999291D01*
X141404703Y-110916810D01*
X141798029Y-110524170D01*
X141884349Y-110316288D01*
X141969390Y-110522103D01*
X141969390Y-110522103D01*
G37*
X141969390Y-110522103D02*
X142362030Y-110915429D01*
X142569912Y-111001749D01*
X142364097Y-111086790D01*
X141970771Y-111479430D01*
X141891005Y-111671527D01*
X141836797Y-111540657D01*
X141594613Y-111471192D01*
X140794005Y-112271800D01*
X141594613Y-113072408D01*
X141836797Y-113002943D01*
X141886909Y-112862482D01*
X141969390Y-113062103D01*
X142271760Y-113365001D01*
X141382600Y-113365001D01*
X141415008Y-113252013D01*
X140614400Y-112451405D01*
X139813792Y-113252013D01*
X139846200Y-113365001D01*
X138956672Y-113365001D01*
X139258029Y-113064170D01*
X139337795Y-112872073D01*
X139392003Y-113002943D01*
X139634187Y-113072408D01*
X140434795Y-112271800D01*
X139634187Y-111471192D01*
X139392003Y-111540657D01*
X139341891Y-111681118D01*
X139259410Y-111481497D01*
X138866770Y-111088171D01*
X138658888Y-111001851D01*
X138864703Y-110916810D01*
X139258029Y-110524170D01*
X139344349Y-110316288D01*
X139429390Y-110522103D01*
X139822030Y-110915429D01*
X140014127Y-110995195D01*
X139883257Y-111049403D01*
X139813792Y-111291587D01*
X140614400Y-112092195D01*
X141415008Y-111291587D01*
X141345543Y-111049403D01*
X141205082Y-110999291D01*
X141404703Y-110916810D01*
X141798029Y-110524170D01*
X141884349Y-110316288D01*
X141969390Y-110522103D01*
G36*
X167369390Y-110522103D02*
X167762030Y-110915429D01*
X167969912Y-111001749D01*
X167764097Y-111086790D01*
X167370771Y-111479430D01*
X167291005Y-111671527D01*
X167236797Y-111540657D01*
X166994613Y-111471192D01*
X166194005Y-112271800D01*
X166994613Y-113072408D01*
X167236797Y-113002943D01*
X167286909Y-112862482D01*
X167369390Y-113062103D01*
X167671760Y-113365001D01*
X166782600Y-113365001D01*
X166815008Y-113252013D01*
X166014400Y-112451405D01*
X165213792Y-113252013D01*
X165246200Y-113365001D01*
X164356672Y-113365001D01*
X164658029Y-113064170D01*
X164737795Y-112872073D01*
X164792003Y-113002943D01*
X165034187Y-113072408D01*
X165834795Y-112271800D01*
X165034187Y-111471192D01*
X164792003Y-111540657D01*
X164741891Y-111681118D01*
X164659410Y-111481497D01*
X164266770Y-111088171D01*
X164058888Y-111001851D01*
X164264703Y-110916810D01*
X164658029Y-110524170D01*
X164744349Y-110316288D01*
X164829390Y-110522103D01*
X165222030Y-110915429D01*
X165414127Y-110995195D01*
X165283257Y-111049403D01*
X165213792Y-111291587D01*
X166014400Y-112092195D01*
X166815008Y-111291587D01*
X166745543Y-111049403D01*
X166605082Y-110999291D01*
X166804703Y-110916810D01*
X167198029Y-110524170D01*
X167284349Y-110316288D01*
X167369390Y-110522103D01*
X167369390Y-110522103D01*
G37*
X167369390Y-110522103D02*
X167762030Y-110915429D01*
X167969912Y-111001749D01*
X167764097Y-111086790D01*
X167370771Y-111479430D01*
X167291005Y-111671527D01*
X167236797Y-111540657D01*
X166994613Y-111471192D01*
X166194005Y-112271800D01*
X166994613Y-113072408D01*
X167236797Y-113002943D01*
X167286909Y-112862482D01*
X167369390Y-113062103D01*
X167671760Y-113365001D01*
X166782600Y-113365001D01*
X166815008Y-113252013D01*
X166014400Y-112451405D01*
X165213792Y-113252013D01*
X165246200Y-113365001D01*
X164356672Y-113365001D01*
X164658029Y-113064170D01*
X164737795Y-112872073D01*
X164792003Y-113002943D01*
X165034187Y-113072408D01*
X165834795Y-112271800D01*
X165034187Y-111471192D01*
X164792003Y-111540657D01*
X164741891Y-111681118D01*
X164659410Y-111481497D01*
X164266770Y-111088171D01*
X164058888Y-111001851D01*
X164264703Y-110916810D01*
X164658029Y-110524170D01*
X164744349Y-110316288D01*
X164829390Y-110522103D01*
X165222030Y-110915429D01*
X165414127Y-110995195D01*
X165283257Y-111049403D01*
X165213792Y-111291587D01*
X166014400Y-112092195D01*
X166815008Y-111291587D01*
X166745543Y-111049403D01*
X166605082Y-110999291D01*
X166804703Y-110916810D01*
X167198029Y-110524170D01*
X167284349Y-110316288D01*
X167369390Y-110522103D01*
G36*
X162289390Y-110522103D02*
X162682030Y-110915429D01*
X162889912Y-111001749D01*
X162684097Y-111086790D01*
X162290771Y-111479430D01*
X162211005Y-111671527D01*
X162156797Y-111540657D01*
X161914613Y-111471192D01*
X161114005Y-112271800D01*
X161914613Y-113072408D01*
X162156797Y-113002943D01*
X162206909Y-112862482D01*
X162289390Y-113062103D01*
X162591760Y-113365001D01*
X161702600Y-113365001D01*
X161735008Y-113252013D01*
X160934400Y-112451405D01*
X160133792Y-113252013D01*
X160166200Y-113365001D01*
X159276672Y-113365001D01*
X159578029Y-113064170D01*
X159657795Y-112872073D01*
X159712003Y-113002943D01*
X159954187Y-113072408D01*
X160754795Y-112271800D01*
X159954187Y-111471192D01*
X159712003Y-111540657D01*
X159661891Y-111681118D01*
X159579410Y-111481497D01*
X159186770Y-111088171D01*
X158978888Y-111001851D01*
X159184703Y-110916810D01*
X159578029Y-110524170D01*
X159664349Y-110316288D01*
X159749390Y-110522103D01*
X160142030Y-110915429D01*
X160334127Y-110995195D01*
X160203257Y-111049403D01*
X160133792Y-111291587D01*
X160934400Y-112092195D01*
X161735008Y-111291587D01*
X161665543Y-111049403D01*
X161525082Y-110999291D01*
X161724703Y-110916810D01*
X162118029Y-110524170D01*
X162204349Y-110316288D01*
X162289390Y-110522103D01*
X162289390Y-110522103D01*
G37*
X162289390Y-110522103D02*
X162682030Y-110915429D01*
X162889912Y-111001749D01*
X162684097Y-111086790D01*
X162290771Y-111479430D01*
X162211005Y-111671527D01*
X162156797Y-111540657D01*
X161914613Y-111471192D01*
X161114005Y-112271800D01*
X161914613Y-113072408D01*
X162156797Y-113002943D01*
X162206909Y-112862482D01*
X162289390Y-113062103D01*
X162591760Y-113365001D01*
X161702600Y-113365001D01*
X161735008Y-113252013D01*
X160934400Y-112451405D01*
X160133792Y-113252013D01*
X160166200Y-113365001D01*
X159276672Y-113365001D01*
X159578029Y-113064170D01*
X159657795Y-112872073D01*
X159712003Y-113002943D01*
X159954187Y-113072408D01*
X160754795Y-112271800D01*
X159954187Y-111471192D01*
X159712003Y-111540657D01*
X159661891Y-111681118D01*
X159579410Y-111481497D01*
X159186770Y-111088171D01*
X158978888Y-111001851D01*
X159184703Y-110916810D01*
X159578029Y-110524170D01*
X159664349Y-110316288D01*
X159749390Y-110522103D01*
X160142030Y-110915429D01*
X160334127Y-110995195D01*
X160203257Y-111049403D01*
X160133792Y-111291587D01*
X160934400Y-112092195D01*
X161735008Y-111291587D01*
X161665543Y-111049403D01*
X161525082Y-110999291D01*
X161724703Y-110916810D01*
X162118029Y-110524170D01*
X162204349Y-110316288D01*
X162289390Y-110522103D01*
G36*
X149589390Y-110522103D02*
X149982030Y-110915429D01*
X150189912Y-111001749D01*
X149984097Y-111086790D01*
X149590771Y-111479430D01*
X149511005Y-111671527D01*
X149456797Y-111540657D01*
X149214613Y-111471192D01*
X148414005Y-112271800D01*
X149214613Y-113072408D01*
X149456797Y-113002943D01*
X149506909Y-112862482D01*
X149589390Y-113062103D01*
X149891760Y-113365001D01*
X149002600Y-113365001D01*
X149035008Y-113252013D01*
X148234400Y-112451405D01*
X147433792Y-113252013D01*
X147466200Y-113365001D01*
X146576672Y-113365001D01*
X146878029Y-113064170D01*
X146957795Y-112872073D01*
X147012003Y-113002943D01*
X147254187Y-113072408D01*
X148054795Y-112271800D01*
X147254187Y-111471192D01*
X147012003Y-111540657D01*
X146961891Y-111681118D01*
X146879410Y-111481497D01*
X146486770Y-111088171D01*
X146278888Y-111001851D01*
X146484703Y-110916810D01*
X146878029Y-110524170D01*
X146964349Y-110316288D01*
X147049390Y-110522103D01*
X147442030Y-110915429D01*
X147634127Y-110995195D01*
X147503257Y-111049403D01*
X147433792Y-111291587D01*
X148234400Y-112092195D01*
X149035008Y-111291587D01*
X148965543Y-111049403D01*
X148825082Y-110999291D01*
X149024703Y-110916810D01*
X149418029Y-110524170D01*
X149504349Y-110316288D01*
X149589390Y-110522103D01*
X149589390Y-110522103D01*
G37*
X149589390Y-110522103D02*
X149982030Y-110915429D01*
X150189912Y-111001749D01*
X149984097Y-111086790D01*
X149590771Y-111479430D01*
X149511005Y-111671527D01*
X149456797Y-111540657D01*
X149214613Y-111471192D01*
X148414005Y-112271800D01*
X149214613Y-113072408D01*
X149456797Y-113002943D01*
X149506909Y-112862482D01*
X149589390Y-113062103D01*
X149891760Y-113365001D01*
X149002600Y-113365001D01*
X149035008Y-113252013D01*
X148234400Y-112451405D01*
X147433792Y-113252013D01*
X147466200Y-113365001D01*
X146576672Y-113365001D01*
X146878029Y-113064170D01*
X146957795Y-112872073D01*
X147012003Y-113002943D01*
X147254187Y-113072408D01*
X148054795Y-112271800D01*
X147254187Y-111471192D01*
X147012003Y-111540657D01*
X146961891Y-111681118D01*
X146879410Y-111481497D01*
X146486770Y-111088171D01*
X146278888Y-111001851D01*
X146484703Y-110916810D01*
X146878029Y-110524170D01*
X146964349Y-110316288D01*
X147049390Y-110522103D01*
X147442030Y-110915429D01*
X147634127Y-110995195D01*
X147503257Y-111049403D01*
X147433792Y-111291587D01*
X148234400Y-112092195D01*
X149035008Y-111291587D01*
X148965543Y-111049403D01*
X148825082Y-110999291D01*
X149024703Y-110916810D01*
X149418029Y-110524170D01*
X149504349Y-110316288D01*
X149589390Y-110522103D01*
G36*
X135728148Y-109717658D02*
X135714005Y-109731800D01*
X136514613Y-110532408D01*
X136756797Y-110462943D01*
X136806909Y-110322482D01*
X136889390Y-110522103D01*
X137282030Y-110915429D01*
X137489912Y-111001749D01*
X137284097Y-111086790D01*
X136890771Y-111479430D01*
X136804451Y-111687312D01*
X136719410Y-111481497D01*
X136326770Y-111088171D01*
X136134673Y-111008405D01*
X136265543Y-110954197D01*
X136335008Y-110712013D01*
X135534400Y-109911405D01*
X134733792Y-110712013D01*
X134803257Y-110954197D01*
X134943718Y-111004309D01*
X134744097Y-111086790D01*
X134350771Y-111479430D01*
X134264451Y-111687312D01*
X134179410Y-111481497D01*
X133786770Y-111088171D01*
X133578888Y-111001851D01*
X133784703Y-110916810D01*
X134178029Y-110524170D01*
X134257795Y-110332073D01*
X134312003Y-110462943D01*
X134554187Y-110532408D01*
X135354795Y-109731800D01*
X135340653Y-109717658D01*
X135520258Y-109538053D01*
X135534400Y-109552195D01*
X135548543Y-109538053D01*
X135728148Y-109717658D01*
X135728148Y-109717658D01*
G37*
X135728148Y-109717658D02*
X135714005Y-109731800D01*
X136514613Y-110532408D01*
X136756797Y-110462943D01*
X136806909Y-110322482D01*
X136889390Y-110522103D01*
X137282030Y-110915429D01*
X137489912Y-111001749D01*
X137284097Y-111086790D01*
X136890771Y-111479430D01*
X136804451Y-111687312D01*
X136719410Y-111481497D01*
X136326770Y-111088171D01*
X136134673Y-111008405D01*
X136265543Y-110954197D01*
X136335008Y-110712013D01*
X135534400Y-109911405D01*
X134733792Y-110712013D01*
X134803257Y-110954197D01*
X134943718Y-111004309D01*
X134744097Y-111086790D01*
X134350771Y-111479430D01*
X134264451Y-111687312D01*
X134179410Y-111481497D01*
X133786770Y-111088171D01*
X133578888Y-111001851D01*
X133784703Y-110916810D01*
X134178029Y-110524170D01*
X134257795Y-110332073D01*
X134312003Y-110462943D01*
X134554187Y-110532408D01*
X135354795Y-109731800D01*
X135340653Y-109717658D01*
X135520258Y-109538053D01*
X135534400Y-109552195D01*
X135548543Y-109538053D01*
X135728148Y-109717658D01*
M02*
