G04 #@! TF.GenerationSoftware,KiCad,Pcbnew,no-vcs-found-0ee38bc~61~ubuntu17.04.1*
G04 #@! TF.CreationDate,2018-06-07T10:33:44-04:00*
G04 #@! TF.ProjectId,Balloon_bus,42616C6C6F6F6E5F6275732E6B696361,rev?*
G04 #@! TF.SameCoordinates,Original*
G04 #@! TF.FileFunction,Copper,L16,Bot,Signal*
G04 #@! TF.FilePolarity,Positive*
%FSLAX46Y46*%
G04 Gerber Fmt 4.6, Leading zero omitted, Abs format (unit mm)*
G04 Created by KiCad (PCBNEW no-vcs-found-0ee38bc~61~ubuntu17.04.1) date Thu Jun  7 10:33:44 2018*
%MOMM*%
%LPD*%
G01*
G04 APERTURE LIST*
%ADD10C,3.000000*%
%ADD11R,3.000000X3.000000*%
%ADD12C,1.524000*%
%ADD13R,1.524000X1.524000*%
%ADD14R,1.600000X2.400000*%
%ADD15O,1.600000X2.400000*%
%ADD16C,1.400000*%
%ADD17O,1.400000X1.400000*%
%ADD18C,1.500000*%
%ADD19C,0.500000*%
%ADD20C,0.210000*%
%ADD21C,0.254000*%
G04 APERTURE END LIST*
D10*
X178420000Y-145500000D03*
D11*
X183500000Y-145500000D03*
D12*
X173634400Y-112271800D03*
X173634400Y-109731800D03*
X171094400Y-112271800D03*
X171094400Y-109731800D03*
X168554400Y-112271800D03*
X168554400Y-109731800D03*
X166014400Y-112271800D03*
X166014400Y-109731800D03*
X163474400Y-112271800D03*
X163474400Y-109731800D03*
X160934400Y-112271800D03*
X160934400Y-109731800D03*
X158394400Y-112271800D03*
X158394400Y-109731800D03*
X155854400Y-112271800D03*
X155854400Y-109731800D03*
X153314400Y-112271800D03*
X153314400Y-109731800D03*
X150774400Y-112271800D03*
X150774400Y-109731800D03*
X148234400Y-112271800D03*
X148234400Y-109731800D03*
X145694400Y-112271800D03*
X145694400Y-109731800D03*
X143154400Y-112271800D03*
X143154400Y-109731800D03*
X140614400Y-112271800D03*
X140614400Y-109731800D03*
X138074400Y-112271800D03*
X138074400Y-109731800D03*
X135534400Y-112271800D03*
X135534400Y-109731800D03*
X132994400Y-112271800D03*
X132994400Y-109731800D03*
X130454400Y-112271800D03*
X130454400Y-109731800D03*
X127914400Y-112271800D03*
X127914400Y-109731800D03*
X125374400Y-112271800D03*
D13*
X125387800Y-109730000D03*
D12*
X105586500Y-73197800D03*
X108126500Y-73197800D03*
X105586500Y-75737800D03*
X108126500Y-75737800D03*
X105586500Y-78277800D03*
X108126500Y-78277800D03*
X105586500Y-80817800D03*
X108126500Y-80817800D03*
X105586500Y-83357800D03*
X108126500Y-83357800D03*
X105586500Y-85897800D03*
X108126500Y-85897800D03*
X105586500Y-88437800D03*
X108126500Y-88437800D03*
X105586500Y-90977800D03*
X108126500Y-90977800D03*
X105586500Y-93517800D03*
X108126500Y-93517800D03*
X105586500Y-96057800D03*
X108126500Y-96057800D03*
X105586500Y-98597800D03*
X108126500Y-98597800D03*
X105586500Y-101137800D03*
X108126500Y-101137800D03*
X105586500Y-103677800D03*
X108126500Y-103677800D03*
X105586500Y-106217800D03*
X108126500Y-106217800D03*
X105586500Y-108757800D03*
X108126500Y-108757800D03*
X105586500Y-111297800D03*
X108126500Y-111297800D03*
X105586500Y-113837800D03*
X108126500Y-113837800D03*
X105586500Y-116377800D03*
X108126500Y-116377800D03*
X105586500Y-118917800D03*
X108126500Y-118917800D03*
X105586500Y-121457800D03*
X108126500Y-121457800D03*
X105586500Y-123997800D03*
X108126500Y-123997800D03*
X105586500Y-126537800D03*
X108126500Y-126537800D03*
X105586500Y-129077800D03*
X108126500Y-129077800D03*
X105586500Y-131617800D03*
X108126500Y-131617800D03*
X105586500Y-134157800D03*
X108126500Y-134157800D03*
X105586500Y-136697800D03*
X108126500Y-136697800D03*
X110666500Y-73197800D03*
X113206500Y-73197800D03*
X110666500Y-75737800D03*
X113206500Y-75737800D03*
X110666500Y-78277800D03*
X113206500Y-78277800D03*
X110666500Y-80817800D03*
X113206500Y-80817800D03*
X110666500Y-83357800D03*
X113206500Y-83357800D03*
X110666500Y-85897800D03*
X113206500Y-85897800D03*
X110666500Y-88437800D03*
X113206500Y-88437800D03*
X110666500Y-90977800D03*
X113206500Y-90977800D03*
X110666500Y-93517800D03*
X113206500Y-93517800D03*
X110666500Y-96057800D03*
X113206500Y-96057800D03*
X110666500Y-98597800D03*
X113206500Y-98597800D03*
X110666500Y-101137800D03*
X113206500Y-101137800D03*
X110666500Y-103677800D03*
X113206500Y-103677800D03*
X110666500Y-106217800D03*
X113206500Y-106217800D03*
X110666500Y-108757800D03*
X113206500Y-108757800D03*
X110666500Y-111297800D03*
X113206500Y-111297800D03*
X110666500Y-113837800D03*
X113206500Y-113837800D03*
X110666500Y-116377800D03*
X113206500Y-116377800D03*
X110666500Y-118917800D03*
X113206500Y-118917800D03*
X110666500Y-121457800D03*
X113206500Y-121457800D03*
X110666500Y-123997800D03*
X113206500Y-123997800D03*
X110666500Y-126537800D03*
X113206500Y-126537800D03*
X110666500Y-129077800D03*
X113206500Y-129077800D03*
X110666500Y-131617800D03*
X113206500Y-131617800D03*
X110666500Y-134157800D03*
X113206500Y-134157800D03*
X110666500Y-136697800D03*
X113206500Y-136697800D03*
D11*
X125500000Y-145500000D03*
D10*
X120420000Y-145500000D03*
X115340000Y-145500000D03*
X132340000Y-145500000D03*
X137420000Y-145500000D03*
D11*
X142500000Y-145500000D03*
X159500000Y-145500000D03*
D10*
X154420000Y-145500000D03*
X149340000Y-145500000D03*
X166420000Y-145500000D03*
D11*
X171500000Y-145500000D03*
D14*
X139500000Y-138000000D03*
D15*
X157280000Y-130380000D03*
X142040000Y-138000000D03*
X154740000Y-130380000D03*
X144580000Y-138000000D03*
X152200000Y-130380000D03*
X147120000Y-138000000D03*
X149660000Y-130380000D03*
X149660000Y-138000000D03*
X147120000Y-130380000D03*
X152200000Y-138000000D03*
X144580000Y-130380000D03*
X154740000Y-138000000D03*
X142040000Y-130380000D03*
X157280000Y-138000000D03*
X139500000Y-130380000D03*
D12*
X173920000Y-139430000D03*
X176460000Y-139430000D03*
X179000000Y-139430000D03*
X181540000Y-139430000D03*
X184080000Y-139430000D03*
X184080000Y-116570000D03*
X181540000Y-116570000D03*
X179000000Y-116570000D03*
X176460000Y-116570000D03*
X173920000Y-116570000D03*
X139420000Y-117890000D03*
X139420000Y-120430000D03*
X139420000Y-122970000D03*
X139420000Y-125510000D03*
D13*
X118380000Y-132510000D03*
D12*
X118380000Y-129950000D03*
X118380000Y-127390000D03*
X118380000Y-124830000D03*
D16*
X129600000Y-95150000D03*
D17*
X129600000Y-90070000D03*
X132300000Y-90070000D03*
D16*
X132300000Y-95150000D03*
X135050000Y-95150000D03*
D17*
X135050000Y-90070000D03*
D18*
X149733000Y-127889000D03*
X147066000Y-127889000D03*
X116300000Y-122750000D03*
X149650000Y-140400000D03*
X130450000Y-115600000D03*
X113000000Y-64550000D03*
X110350000Y-147350000D03*
X102150000Y-98500000D03*
X102150000Y-101150000D03*
X136650000Y-120400000D03*
X143350000Y-140500000D03*
X195300000Y-132800000D03*
X174950000Y-144850000D03*
X160950000Y-116900000D03*
X164450000Y-116850000D03*
X143089303Y-122510697D03*
X150300000Y-115650001D03*
X155900000Y-115650001D03*
X179000000Y-128000000D03*
X143150000Y-104300000D03*
X116050000Y-82150006D03*
X131200000Y-105400000D03*
X168500000Y-106400000D03*
X116150000Y-73400000D03*
X166000000Y-106650000D03*
X116100000Y-75800000D03*
X163450000Y-106650000D03*
X116050000Y-78350000D03*
X160950000Y-106650000D03*
X116050000Y-80250003D03*
X136670000Y-122970000D03*
X120400000Y-135450000D03*
X127367478Y-106405342D03*
X116100000Y-84150003D03*
X136800000Y-125500000D03*
X122050000Y-136800000D03*
X122900000Y-107677998D03*
X115900000Y-86500000D03*
X116050000Y-127400000D03*
X115350000Y-140500000D03*
X124800000Y-107850000D03*
X119750000Y-116600000D03*
X136450000Y-118450000D03*
X144600000Y-107900000D03*
X116100000Y-105200000D03*
X162900000Y-123450000D03*
X135700000Y-115000000D03*
X181550000Y-112850000D03*
X133650000Y-116000000D03*
X181350000Y-115150000D03*
X118392001Y-122616626D03*
X124445647Y-122896095D03*
X133732562Y-102849962D03*
X118392001Y-120643949D03*
X125550000Y-121350000D03*
X134000000Y-105657400D03*
X118392001Y-118550000D03*
X124199999Y-119850000D03*
X128916541Y-105305156D03*
X141687777Y-115650002D03*
X147094400Y-115650001D03*
X149200000Y-121250000D03*
X163100000Y-126900000D03*
X163100000Y-133150000D03*
X161750000Y-140900000D03*
X153000000Y-140600000D03*
X174950000Y-142300000D03*
X145889304Y-124650000D03*
X135550000Y-130950000D03*
X141589950Y-127889950D03*
X136950000Y-129450000D03*
X155490000Y-140450000D03*
X159764950Y-133185050D03*
X144400000Y-127650000D03*
X152500000Y-126050000D03*
X129600000Y-87300000D03*
X132350000Y-87300000D03*
X135050000Y-87300000D03*
D19*
X105586500Y-80817800D02*
X108126500Y-80817800D01*
X149660000Y-130380000D02*
X149660000Y-127962000D01*
X149660000Y-127962000D02*
X149733000Y-127889000D01*
X147120000Y-130380000D02*
X147120000Y-127943000D01*
X147120000Y-127943000D02*
X147066000Y-127889000D01*
X118380000Y-124830000D02*
X116300000Y-122750000D01*
X149660000Y-138000000D02*
X149660000Y-140390000D01*
X149660000Y-140390000D02*
X149650000Y-140400000D01*
X130454400Y-112271800D02*
X130454400Y-115595600D01*
X130454400Y-115595600D02*
X130450000Y-115600000D01*
X139420000Y-120430000D02*
X136680000Y-120430000D01*
X136680000Y-120430000D02*
X136650000Y-120400000D01*
X160934400Y-112271800D02*
X160934400Y-116884400D01*
X160934400Y-116884400D02*
X160950000Y-116900000D01*
X166014400Y-112271800D02*
X166014400Y-115285600D01*
X166014400Y-115285600D02*
X164450000Y-116850000D01*
X143100001Y-122499999D02*
X143089303Y-122510697D01*
X140614400Y-112271800D02*
X143100001Y-114757401D01*
X143100001Y-114757401D02*
X143100001Y-122499999D01*
X148234400Y-112271800D02*
X148234400Y-113584401D01*
X148234400Y-113584401D02*
X150300000Y-115650001D01*
X139500000Y-130780000D02*
X143970000Y-135250000D01*
X139500000Y-130380000D02*
X139500000Y-130780000D01*
X157280000Y-137600000D02*
X157280000Y-138000000D01*
X154930000Y-135250000D02*
X157280000Y-137600000D01*
X143970000Y-135250000D02*
X154930000Y-135250000D01*
X125374400Y-112271800D02*
X127914400Y-112271800D01*
X139500000Y-128680000D02*
X139500000Y-130380000D01*
X127914400Y-112271800D02*
X127914400Y-116341594D01*
X135399999Y-126172001D02*
X137277997Y-128049999D01*
X127914400Y-116341594D02*
X135399999Y-123827193D01*
X137277997Y-128049999D02*
X138869999Y-128049999D01*
X135399999Y-123827193D02*
X135399999Y-126172001D01*
X138869999Y-128049999D02*
X139500000Y-128680000D01*
X143154400Y-109731800D02*
X143154400Y-104304400D01*
X143154400Y-104304400D02*
X143150000Y-104300000D01*
D20*
X114989340Y-82150006D02*
X116050000Y-82150006D01*
X114930133Y-82090799D02*
X114989340Y-82150006D01*
X110064337Y-82090799D02*
X114930133Y-82090799D01*
X109393501Y-81419963D02*
X110064337Y-82090799D01*
X109393501Y-79544801D02*
X109393501Y-81419963D01*
X108126500Y-78277800D02*
X109393501Y-79544801D01*
D19*
X135534400Y-109731800D02*
X131202600Y-105400000D01*
X131202600Y-105400000D02*
X131200000Y-105400000D01*
X168554400Y-109731800D02*
X168554400Y-106454400D01*
X168554400Y-106454400D02*
X168500000Y-106400000D01*
X113408700Y-73400000D02*
X113206500Y-73197800D01*
X116150000Y-73400000D02*
X113408700Y-73400000D01*
X166014400Y-109731800D02*
X166014400Y-106664400D01*
X166014400Y-106664400D02*
X166000000Y-106650000D01*
X113268700Y-75800000D02*
X113206500Y-75737800D01*
X116100000Y-75800000D02*
X113268700Y-75800000D01*
X163474400Y-109731800D02*
X163474400Y-106674400D01*
X163474400Y-106674400D02*
X163450000Y-106650000D01*
X113278700Y-78350000D02*
X113206500Y-78277800D01*
X116050000Y-78350000D02*
X113278700Y-78350000D01*
X160934400Y-109731800D02*
X160934400Y-106665600D01*
X160934400Y-106665600D02*
X160950000Y-106650000D01*
D20*
X114989340Y-80250003D02*
X116050000Y-80250003D01*
X114290136Y-79550799D02*
X114989340Y-80250003D01*
X111939499Y-79550799D02*
X114290136Y-79550799D01*
X110666500Y-78277800D02*
X111939499Y-79550799D01*
D19*
X119642000Y-132510000D02*
X118380000Y-132510000D01*
X121150001Y-131001999D02*
X119642000Y-132510000D01*
X121150001Y-115927999D02*
X121150001Y-131001999D01*
X118492799Y-113270797D02*
X121150001Y-115927999D01*
X118492799Y-110027999D02*
X118492799Y-113270797D01*
X122970809Y-105549989D02*
X118492799Y-110027999D01*
X126272589Y-105549989D02*
X122970809Y-105549989D01*
X139420000Y-122970000D02*
X136670000Y-122970000D01*
X118380000Y-132510000D02*
X118380000Y-133430000D01*
X118380000Y-133430000D02*
X120400000Y-135450000D01*
X127300000Y-106472820D02*
X127367478Y-106405342D01*
X127300000Y-106577400D02*
X126272589Y-105549989D01*
X127300000Y-106577400D02*
X127300000Y-106472820D01*
X130454400Y-109731800D02*
X127300000Y-106577400D01*
X113998703Y-84150003D02*
X113206500Y-83357800D01*
X116100000Y-84150003D02*
X113998703Y-84150003D01*
X139420000Y-125510000D02*
X136810000Y-125510000D01*
X136810000Y-125510000D02*
X136800000Y-125500000D01*
X117302370Y-129950000D02*
X116850000Y-130402370D01*
X118380000Y-129950000D02*
X117302370Y-129950000D01*
X121999999Y-136850001D02*
X122050000Y-136800000D01*
X119727999Y-136850001D02*
X121999999Y-136850001D01*
X116850000Y-130402370D02*
X116850000Y-133972002D01*
X116850000Y-133972002D02*
X119727999Y-136850001D01*
X126200001Y-108017401D02*
X126200001Y-107177999D01*
X127914400Y-109731800D02*
X126200001Y-108017401D01*
X126200001Y-107177999D02*
X125472001Y-106449999D01*
X125472001Y-106449999D02*
X124127999Y-106449999D01*
X122700000Y-107877998D02*
X122700000Y-109250000D01*
X122700000Y-136150000D02*
X122050000Y-136800000D01*
X122700000Y-109250000D02*
X122700000Y-136150000D01*
X123250000Y-107327998D02*
X122700000Y-107877998D01*
X123250000Y-107327998D02*
X122900000Y-107677998D01*
X124127999Y-106449999D02*
X123250000Y-107327998D01*
X113808700Y-86500000D02*
X113206500Y-85897800D01*
X115900000Y-86500000D02*
X113808700Y-86500000D01*
X115340000Y-145500000D02*
X120420000Y-145500000D01*
X120420000Y-145500000D02*
X125500000Y-145500000D01*
X115340000Y-145500000D02*
X115340000Y-140510000D01*
X115340000Y-140510000D02*
X115350000Y-140500000D01*
X105586500Y-103677800D02*
X108126500Y-103677800D01*
X118380000Y-127390000D02*
X116060000Y-127390000D01*
X116060000Y-127390000D02*
X116050000Y-127400000D01*
X125387800Y-109730000D02*
X125387800Y-108437800D01*
X125387800Y-108437800D02*
X124800000Y-107850000D01*
X119141999Y-126628001D02*
X118380000Y-127390000D01*
X119792001Y-117702661D02*
X119792001Y-125977999D01*
X119750000Y-117660660D02*
X119792001Y-117702661D01*
X119792001Y-125977999D02*
X119141999Y-126628001D01*
X119750000Y-116600000D02*
X119750000Y-117660660D01*
X138860000Y-118450000D02*
X139420000Y-117890000D01*
X136450000Y-118450000D02*
X138860000Y-118450000D01*
X145694400Y-108994400D02*
X144600000Y-107900000D01*
X145694400Y-109731800D02*
X145694400Y-108994400D01*
D20*
X115039340Y-105200000D02*
X116100000Y-105200000D01*
X114790139Y-104950799D02*
X115039340Y-105200000D01*
X109399499Y-104950799D02*
X114790139Y-104950799D01*
X108126500Y-103677800D02*
X109399499Y-104950799D01*
D19*
X178880000Y-139430000D02*
X179000000Y-139430000D01*
X162900000Y-123450000D02*
X178880000Y-139430000D01*
X135534400Y-112271800D02*
X135534400Y-114834400D01*
X135534400Y-114834400D02*
X135700000Y-115000000D01*
X184080000Y-115380000D02*
X181550000Y-112850000D01*
X184080000Y-116570000D02*
X184080000Y-115380000D01*
X132994400Y-112271800D02*
X132994400Y-115344400D01*
X132994400Y-115344400D02*
X133650000Y-116000000D01*
X181350000Y-116380000D02*
X181540000Y-116570000D01*
X181350000Y-115150000D02*
X181350000Y-116380000D01*
X121852418Y-102849962D02*
X115600000Y-109102380D01*
X140614400Y-109731800D02*
X133732562Y-102849962D01*
X133732562Y-102849962D02*
X121852418Y-102849962D01*
X118292676Y-122616626D02*
X118392001Y-122616626D01*
X115600000Y-109102380D02*
X115600000Y-119923950D01*
X115600000Y-119923950D02*
X118292676Y-122616626D01*
X130840001Y-144000001D02*
X132340000Y-145500000D01*
X130800000Y-143960000D02*
X130840001Y-144000001D01*
X130800000Y-129250448D02*
X130800000Y-143960000D01*
X124445647Y-122896095D02*
X130800000Y-129250448D01*
X122225215Y-103749971D02*
X116550000Y-109425186D01*
X132092570Y-103749970D02*
X122225215Y-103749971D01*
X116550000Y-109425186D02*
X116550000Y-118801948D01*
X116550000Y-118801948D02*
X118392001Y-120643949D01*
X137420000Y-145500000D02*
X132400000Y-140480000D01*
X132400000Y-128200000D02*
X125550000Y-121350000D01*
X132400000Y-140480000D02*
X132400000Y-128200000D01*
X134000000Y-105657400D02*
X132092570Y-103749970D01*
X138074400Y-109731800D02*
X134000000Y-105657400D01*
X122598012Y-104649980D02*
X117550000Y-109697992D01*
X127912579Y-104649979D02*
X122598012Y-104649980D01*
X117550000Y-109697992D02*
X117550000Y-117707999D01*
X117550000Y-117707999D02*
X118392001Y-118550000D01*
X129850000Y-119850000D02*
X130150000Y-119850000D01*
X124199999Y-119850000D02*
X129850000Y-119850000D01*
X130150000Y-119850000D02*
X133900000Y-123600000D01*
X133900000Y-138900000D02*
X133900000Y-123600000D01*
X140500000Y-145500000D02*
X133900000Y-138900000D01*
X142500000Y-145500000D02*
X140500000Y-145500000D01*
X128761385Y-105150000D02*
X128916541Y-105305156D01*
X128412600Y-105150000D02*
X127912579Y-104649979D01*
X128412600Y-105150000D02*
X128761385Y-105150000D01*
X132994400Y-109731800D02*
X128412600Y-105150000D01*
X138074400Y-112271800D02*
X141452602Y-115650002D01*
X141452602Y-115650002D02*
X141687777Y-115650002D01*
X147094400Y-115650001D02*
X147094400Y-119144400D01*
X147094400Y-119144400D02*
X149200000Y-121250000D01*
X163100000Y-126900000D02*
X163100000Y-133150000D01*
X159500000Y-143150000D02*
X159500000Y-145500000D01*
X161750000Y-140900000D02*
X159500000Y-143150000D01*
X144580000Y-138400000D02*
X148030000Y-141850000D01*
X144580000Y-138000000D02*
X144580000Y-138400000D01*
X150770000Y-141850000D02*
X154420000Y-145500000D01*
X148030000Y-141850000D02*
X150770000Y-141850000D01*
X152200000Y-138000000D02*
X152200000Y-139800000D01*
X152200000Y-139800000D02*
X153000000Y-140600000D01*
X183500000Y-143500000D02*
X183500000Y-145500000D01*
X182300000Y-142300000D02*
X183500000Y-143500000D01*
X174950000Y-142300000D02*
X182300000Y-142300000D01*
X144580000Y-130780000D02*
X147600000Y-133800000D01*
X144580000Y-130380000D02*
X144580000Y-130780000D01*
X166420000Y-143378680D02*
X166420000Y-145500000D01*
X156841320Y-133800000D02*
X166420000Y-143378680D01*
X147600000Y-133800000D02*
X156841320Y-133800000D01*
X171500000Y-143500000D02*
X170700000Y-142700000D01*
X171500000Y-145500000D02*
X171500000Y-143500000D01*
X170700000Y-142700000D02*
X167300000Y-142700000D01*
X167300000Y-142700000D02*
X157350000Y-132750000D01*
X152200000Y-130780000D02*
X152200000Y-130380000D01*
X154170000Y-132750000D02*
X152200000Y-130780000D01*
X157350000Y-132750000D02*
X154170000Y-132750000D01*
X145694400Y-112271800D02*
X145694400Y-124455096D01*
X145694400Y-124455096D02*
X145889304Y-124650000D01*
X135550000Y-135350000D02*
X138200000Y-138000000D01*
X138200000Y-138000000D02*
X139500000Y-138000000D01*
X135550000Y-130950000D02*
X135550000Y-135350000D01*
X171094400Y-112271800D02*
X171094400Y-114405600D01*
X171094400Y-114405600D02*
X166000000Y-119500000D01*
X166000000Y-119500000D02*
X159700000Y-119500000D01*
X157280000Y-121920000D02*
X157280000Y-130380000D01*
X159700000Y-119500000D02*
X157280000Y-121920000D01*
X144000011Y-113117411D02*
X144000011Y-114384605D01*
X143154400Y-112271800D02*
X144000011Y-113117411D01*
X144489304Y-124990596D02*
X141589950Y-127889950D01*
X144000011Y-114384605D02*
X144489304Y-114873898D01*
X144489304Y-114873898D02*
X144489304Y-124990596D01*
X136950000Y-130510660D02*
X136950000Y-129450000D01*
X136950000Y-131210000D02*
X136950000Y-130510660D01*
X142040000Y-136300000D02*
X136950000Y-131210000D01*
X142040000Y-138000000D02*
X142040000Y-136300000D01*
X168554400Y-112271800D02*
X168554400Y-114895600D01*
X168554400Y-114895600D02*
X165100000Y-118350000D01*
X165100000Y-118350000D02*
X158500000Y-118350000D01*
X154740000Y-122110000D02*
X154740000Y-130380000D01*
X158500000Y-118350000D02*
X154740000Y-122110000D01*
X154740000Y-139700000D02*
X155490000Y-140450000D01*
X154740000Y-138000000D02*
X154740000Y-139700000D01*
X160877988Y-120400010D02*
X167199990Y-120400010D01*
X158949999Y-122327999D02*
X160877988Y-120400010D01*
X158949999Y-131309439D02*
X158949999Y-122327999D01*
X159764950Y-133185050D02*
X159764950Y-132124390D01*
X159764950Y-132124390D02*
X158949999Y-131309439D01*
X173634400Y-113965600D02*
X173634400Y-112271800D01*
X167199990Y-120400010D02*
X173634400Y-113965600D01*
X142040000Y-130380000D02*
X142040000Y-130010000D01*
X142040000Y-130010000D02*
X144400000Y-127650000D01*
X153249999Y-125300001D02*
X152500000Y-126050000D01*
X153839991Y-124710009D02*
X153249999Y-125300001D01*
X153839991Y-114286209D02*
X153839991Y-124710009D01*
X155854400Y-112271800D02*
X153839991Y-114286209D01*
D21*
G36*
X118814799Y-60859940D02*
X118508150Y-61598432D01*
X118507452Y-62398060D01*
X118812812Y-63137086D01*
X119377740Y-63703001D01*
X120116232Y-64009650D01*
X120915860Y-64010348D01*
X121654886Y-63704988D01*
X122220801Y-63140060D01*
X122527450Y-62401568D01*
X122528148Y-61601940D01*
X122222788Y-60862914D01*
X122070540Y-60710400D01*
X176964600Y-60710400D01*
X176814799Y-60859940D01*
X176508150Y-61598432D01*
X176507452Y-62398060D01*
X176812812Y-63137086D01*
X177377740Y-63703001D01*
X178116232Y-64009650D01*
X178915860Y-64010348D01*
X179654886Y-63704988D01*
X180220801Y-63140060D01*
X180527450Y-62401568D01*
X180528148Y-61601940D01*
X180222788Y-60862914D01*
X180070540Y-60710400D01*
X181290000Y-60710400D01*
X181290000Y-110500000D01*
X181344046Y-110771705D01*
X181497954Y-111002046D01*
X182056619Y-111560711D01*
X181826702Y-111465241D01*
X181275715Y-111464760D01*
X180766485Y-111675169D01*
X180376539Y-112064436D01*
X180165241Y-112573298D01*
X180164760Y-113124285D01*
X180375169Y-113633515D01*
X180672500Y-113931365D01*
X180566485Y-113975169D01*
X180176539Y-114364436D01*
X179965241Y-114873298D01*
X179964760Y-115424285D01*
X180059778Y-115654246D01*
X179792370Y-115386371D01*
X179279100Y-115173243D01*
X178723339Y-115172758D01*
X178209697Y-115384990D01*
X177816371Y-115777630D01*
X177730051Y-115985512D01*
X177645010Y-115779697D01*
X177252370Y-115386371D01*
X176739100Y-115173243D01*
X176183339Y-115172758D01*
X175669697Y-115384990D01*
X175276371Y-115777630D01*
X175190051Y-115985512D01*
X175105010Y-115779697D01*
X174712370Y-115386371D01*
X174199100Y-115173243D01*
X173678790Y-115172789D01*
X174260187Y-114591392D01*
X174260190Y-114591390D01*
X174452033Y-114304275D01*
X174471062Y-114208610D01*
X174519401Y-113965600D01*
X174519400Y-113965595D01*
X174519400Y-113362278D01*
X174818029Y-113064170D01*
X175031157Y-112550900D01*
X175031642Y-111995139D01*
X174819410Y-111481497D01*
X174736119Y-111398060D01*
X176507452Y-111398060D01*
X176812812Y-112137086D01*
X177377740Y-112703001D01*
X178116232Y-113009650D01*
X178915860Y-113010348D01*
X179654886Y-112704988D01*
X180220801Y-112140060D01*
X180527450Y-111401568D01*
X180528148Y-110601940D01*
X180222788Y-109862914D01*
X179657860Y-109296999D01*
X178919368Y-108990350D01*
X178119740Y-108989652D01*
X177380714Y-109295012D01*
X176814799Y-109859940D01*
X176508150Y-110598432D01*
X176507452Y-111398060D01*
X174736119Y-111398060D01*
X174426770Y-111088171D01*
X174234673Y-111008405D01*
X174365543Y-110954197D01*
X174435008Y-110712013D01*
X173634400Y-109911405D01*
X172833792Y-110712013D01*
X172903257Y-110954197D01*
X173043718Y-111004309D01*
X172844097Y-111086790D01*
X172450771Y-111479430D01*
X172364451Y-111687312D01*
X172279410Y-111481497D01*
X171886770Y-111088171D01*
X171678888Y-111001851D01*
X171884703Y-110916810D01*
X172278029Y-110524170D01*
X172357795Y-110332073D01*
X172412003Y-110462943D01*
X172654187Y-110532408D01*
X173454795Y-109731800D01*
X173814005Y-109731800D01*
X174614613Y-110532408D01*
X174856797Y-110462943D01*
X175043544Y-109939498D01*
X175015762Y-109384432D01*
X174856797Y-109000657D01*
X174614613Y-108931192D01*
X173814005Y-109731800D01*
X173454795Y-109731800D01*
X172654187Y-108931192D01*
X172412003Y-109000657D01*
X172361891Y-109141118D01*
X172279410Y-108941497D01*
X172089832Y-108751587D01*
X172833792Y-108751587D01*
X173634400Y-109552195D01*
X174435008Y-108751587D01*
X174365543Y-108509403D01*
X173842098Y-108322656D01*
X173287032Y-108350438D01*
X172903257Y-108509403D01*
X172833792Y-108751587D01*
X172089832Y-108751587D01*
X171886770Y-108548171D01*
X171373500Y-108335043D01*
X170817739Y-108334558D01*
X170304097Y-108546790D01*
X169910771Y-108939430D01*
X169824451Y-109147312D01*
X169739410Y-108941497D01*
X169439400Y-108640963D01*
X169439400Y-107419217D01*
X169673461Y-107185564D01*
X169884759Y-106676702D01*
X169885240Y-106125715D01*
X169674831Y-105616485D01*
X169285564Y-105226539D01*
X168776702Y-105015241D01*
X168225715Y-105014760D01*
X167716485Y-105225169D01*
X167326539Y-105614436D01*
X167198297Y-105923277D01*
X167174831Y-105866485D01*
X166785564Y-105476539D01*
X166276702Y-105265241D01*
X165725715Y-105264760D01*
X165216485Y-105475169D01*
X164826539Y-105864436D01*
X164725012Y-106108941D01*
X164624831Y-105866485D01*
X164235564Y-105476539D01*
X163726702Y-105265241D01*
X163175715Y-105264760D01*
X162666485Y-105475169D01*
X162276539Y-105864436D01*
X162200073Y-106048586D01*
X162124831Y-105866485D01*
X161735564Y-105476539D01*
X161226702Y-105265241D01*
X160675715Y-105264760D01*
X160166485Y-105475169D01*
X159776539Y-105864436D01*
X159565241Y-106373298D01*
X159564760Y-106924285D01*
X159775169Y-107433515D01*
X160049400Y-107708224D01*
X160049400Y-108641322D01*
X159750771Y-108939430D01*
X159664451Y-109147312D01*
X159579410Y-108941497D01*
X159186770Y-108548171D01*
X158673500Y-108335043D01*
X158117739Y-108334558D01*
X157604097Y-108546790D01*
X157210771Y-108939430D01*
X157131005Y-109131527D01*
X157076797Y-109000657D01*
X156834613Y-108931192D01*
X156034005Y-109731800D01*
X156834613Y-110532408D01*
X157076797Y-110462943D01*
X157126909Y-110322482D01*
X157209390Y-110522103D01*
X157602030Y-110915429D01*
X157809912Y-111001749D01*
X157604097Y-111086790D01*
X157210771Y-111479430D01*
X157124451Y-111687312D01*
X157039410Y-111481497D01*
X156646770Y-111088171D01*
X156454673Y-111008405D01*
X156585543Y-110954197D01*
X156655008Y-110712013D01*
X155854400Y-109911405D01*
X155053792Y-110712013D01*
X155123257Y-110954197D01*
X155263718Y-111004309D01*
X155064097Y-111086790D01*
X154670771Y-111479430D01*
X154584451Y-111687312D01*
X154499410Y-111481497D01*
X154106770Y-111088171D01*
X153898888Y-111001851D01*
X154104703Y-110916810D01*
X154498029Y-110524170D01*
X154577795Y-110332073D01*
X154632003Y-110462943D01*
X154874187Y-110532408D01*
X155674795Y-109731800D01*
X154874187Y-108931192D01*
X154632003Y-109000657D01*
X154581891Y-109141118D01*
X154499410Y-108941497D01*
X154309832Y-108751587D01*
X155053792Y-108751587D01*
X155854400Y-109552195D01*
X156655008Y-108751587D01*
X156585543Y-108509403D01*
X156062098Y-108322656D01*
X155507032Y-108350438D01*
X155123257Y-108509403D01*
X155053792Y-108751587D01*
X154309832Y-108751587D01*
X154106770Y-108548171D01*
X153593500Y-108335043D01*
X153037739Y-108334558D01*
X152524097Y-108546790D01*
X152130771Y-108939430D01*
X152044451Y-109147312D01*
X151959410Y-108941497D01*
X151566770Y-108548171D01*
X151053500Y-108335043D01*
X150497739Y-108334558D01*
X149984097Y-108546790D01*
X149590771Y-108939430D01*
X149504451Y-109147312D01*
X149419410Y-108941497D01*
X149026770Y-108548171D01*
X148513500Y-108335043D01*
X147957739Y-108334558D01*
X147444097Y-108546790D01*
X147050771Y-108939430D01*
X146964451Y-109147312D01*
X146879410Y-108941497D01*
X146486770Y-108548171D01*
X146422274Y-108521390D01*
X146320190Y-108368610D01*
X146320187Y-108368608D01*
X145984884Y-108033305D01*
X145985240Y-107625715D01*
X145774831Y-107116485D01*
X145385564Y-106726539D01*
X144876702Y-106515241D01*
X144325715Y-106514760D01*
X144039400Y-106633063D01*
X144039400Y-105369130D01*
X144323461Y-105085564D01*
X144534759Y-104576702D01*
X144535240Y-104025715D01*
X144324831Y-103516485D01*
X143935564Y-103126539D01*
X143426702Y-102915241D01*
X142875715Y-102914760D01*
X142366485Y-103125169D01*
X141976539Y-103514436D01*
X141765241Y-104023298D01*
X141764760Y-104574285D01*
X141975169Y-105083515D01*
X142269400Y-105378259D01*
X142269400Y-108641322D01*
X141970771Y-108939430D01*
X141884451Y-109147312D01*
X141799410Y-108941497D01*
X141406770Y-108548171D01*
X140893500Y-108335043D01*
X140468852Y-108334672D01*
X135117446Y-102983266D01*
X135117802Y-102575677D01*
X134907393Y-102066447D01*
X134518126Y-101676501D01*
X134009264Y-101465203D01*
X133458277Y-101464722D01*
X132949047Y-101675131D01*
X132658710Y-101964962D01*
X121852418Y-101964962D01*
X121513743Y-102032329D01*
X121226628Y-102224172D01*
X121226626Y-102224175D01*
X114974210Y-108476590D01*
X114782367Y-108763705D01*
X114782367Y-108763706D01*
X114714999Y-109102380D01*
X114715000Y-109102385D01*
X114715000Y-119923945D01*
X114714999Y-119923950D01*
X114755330Y-120126702D01*
X114782367Y-120262625D01*
X114962602Y-120532367D01*
X114974210Y-120549740D01*
X117007030Y-122582559D01*
X117006761Y-122890911D01*
X117217170Y-123400141D01*
X117598730Y-123782367D01*
X117579392Y-123849787D01*
X118380000Y-124650395D01*
X118394143Y-124636253D01*
X118573748Y-124815858D01*
X118559605Y-124830000D01*
X118573748Y-124844143D01*
X118394143Y-125023748D01*
X118380000Y-125009605D01*
X117579392Y-125810213D01*
X117648857Y-126052397D01*
X117815293Y-126111776D01*
X117589697Y-126204990D01*
X117289163Y-126505000D01*
X117113540Y-126505000D01*
X116835564Y-126226539D01*
X116326702Y-126015241D01*
X115775715Y-126014760D01*
X115266485Y-126225169D01*
X114876539Y-126614436D01*
X114665241Y-127123298D01*
X114664760Y-127674285D01*
X114875169Y-128183515D01*
X115264436Y-128573461D01*
X115773298Y-128784759D01*
X116324285Y-128785240D01*
X116833515Y-128574831D01*
X117133869Y-128275000D01*
X117289522Y-128275000D01*
X117587630Y-128573629D01*
X117819654Y-128669974D01*
X117589697Y-128764990D01*
X117285877Y-129068280D01*
X117019886Y-129121190D01*
X116963695Y-129132367D01*
X116676580Y-129324210D01*
X116676578Y-129324213D01*
X116224210Y-129776580D01*
X116032367Y-130063695D01*
X116031495Y-130068081D01*
X115964999Y-130402370D01*
X115965000Y-130402375D01*
X115965000Y-133971997D01*
X115964999Y-133972002D01*
X115998153Y-134138674D01*
X116032367Y-134310677D01*
X116205834Y-134570290D01*
X116224210Y-134597792D01*
X119102207Y-137475788D01*
X119102209Y-137475791D01*
X119314492Y-137617633D01*
X119389324Y-137667634D01*
X119727999Y-137735002D01*
X119728004Y-137735001D01*
X121026391Y-137735001D01*
X121264436Y-137973461D01*
X121773298Y-138184759D01*
X122324285Y-138185240D01*
X122833515Y-137974831D01*
X123223461Y-137585564D01*
X123434759Y-137076702D01*
X123435165Y-136612098D01*
X123517633Y-136488675D01*
X123555163Y-136300000D01*
X123585001Y-136150000D01*
X123585000Y-136149995D01*
X123585000Y-123994342D01*
X123660083Y-124069556D01*
X124168945Y-124280854D01*
X124579184Y-124281212D01*
X129915000Y-129617027D01*
X129915000Y-143959995D01*
X129914999Y-143960000D01*
X129962006Y-144196313D01*
X129982367Y-144298675D01*
X130040048Y-144385001D01*
X130174210Y-144585790D01*
X130214209Y-144625788D01*
X130214211Y-144625791D01*
X130339313Y-144750893D01*
X130205372Y-145073459D01*
X130204630Y-145922815D01*
X130528980Y-146707800D01*
X131129041Y-147308909D01*
X131913459Y-147634628D01*
X132762815Y-147635370D01*
X133547800Y-147311020D01*
X134148909Y-146710959D01*
X134474628Y-145926541D01*
X134475370Y-145077185D01*
X134151020Y-144292200D01*
X133550959Y-143691091D01*
X132766541Y-143365372D01*
X131917185Y-143364630D01*
X131685000Y-143460567D01*
X131685000Y-140972277D01*
X131774210Y-141105790D01*
X135419313Y-144750893D01*
X135285372Y-145073459D01*
X135284630Y-145922815D01*
X135608980Y-146707800D01*
X136209041Y-147308909D01*
X136993459Y-147634628D01*
X137842815Y-147635370D01*
X138627800Y-147311020D01*
X139228909Y-146710959D01*
X139554628Y-145926541D01*
X139554733Y-145806312D01*
X139874208Y-146125787D01*
X139874210Y-146125790D01*
X139990234Y-146203314D01*
X140161326Y-146317634D01*
X140352560Y-146355673D01*
X140352560Y-147000000D01*
X140401843Y-147247765D01*
X140542191Y-147457809D01*
X140752235Y-147598157D01*
X141000000Y-147647440D01*
X144000000Y-147647440D01*
X144247765Y-147598157D01*
X144457809Y-147457809D01*
X144598157Y-147247765D01*
X144644661Y-147013970D01*
X148005635Y-147013970D01*
X148165418Y-147332739D01*
X148956187Y-147642723D01*
X149805387Y-147626497D01*
X150514582Y-147332739D01*
X150674365Y-147013970D01*
X149340000Y-145679605D01*
X148005635Y-147013970D01*
X144644661Y-147013970D01*
X144647440Y-147000000D01*
X144647440Y-145116187D01*
X147197277Y-145116187D01*
X147213503Y-145965387D01*
X147507261Y-146674582D01*
X147826030Y-146834365D01*
X149160395Y-145500000D01*
X149519605Y-145500000D01*
X150853970Y-146834365D01*
X151172739Y-146674582D01*
X151482723Y-145883813D01*
X151466497Y-145034613D01*
X151172739Y-144325418D01*
X150853970Y-144165635D01*
X149519605Y-145500000D01*
X149160395Y-145500000D01*
X147826030Y-144165635D01*
X147507261Y-144325418D01*
X147197277Y-145116187D01*
X144647440Y-145116187D01*
X144647440Y-144000000D01*
X144644662Y-143986030D01*
X148005635Y-143986030D01*
X149340000Y-145320395D01*
X150674365Y-143986030D01*
X150514582Y-143667261D01*
X149723813Y-143357277D01*
X148874613Y-143373503D01*
X148165418Y-143667261D01*
X148005635Y-143986030D01*
X144644662Y-143986030D01*
X144598157Y-143752235D01*
X144457809Y-143542191D01*
X144247765Y-143401843D01*
X144000000Y-143352560D01*
X141000000Y-143352560D01*
X140752235Y-143401843D01*
X140542191Y-143542191D01*
X140401843Y-143752235D01*
X140352560Y-144000000D01*
X140352560Y-144100981D01*
X134785000Y-138533420D01*
X134785000Y-135767446D01*
X134924210Y-135975790D01*
X137574208Y-138625787D01*
X137574210Y-138625790D01*
X137861325Y-138817633D01*
X137917516Y-138828810D01*
X138052560Y-138855673D01*
X138052560Y-139200000D01*
X138101843Y-139447765D01*
X138242191Y-139657809D01*
X138452235Y-139798157D01*
X138700000Y-139847440D01*
X140300000Y-139847440D01*
X140547765Y-139798157D01*
X140757809Y-139657809D01*
X140898157Y-139447765D01*
X140926882Y-139303352D01*
X141025302Y-139450648D01*
X141490849Y-139761717D01*
X142040000Y-139870950D01*
X142589151Y-139761717D01*
X143054698Y-139450648D01*
X143310000Y-139068562D01*
X143565302Y-139450648D01*
X144030849Y-139761717D01*
X144580000Y-139870950D01*
X144762974Y-139834554D01*
X147404208Y-142475787D01*
X147404210Y-142475790D01*
X147691325Y-142667633D01*
X147747516Y-142678810D01*
X148030000Y-142735001D01*
X148030005Y-142735000D01*
X150403420Y-142735000D01*
X152419313Y-144750893D01*
X152285372Y-145073459D01*
X152284630Y-145922815D01*
X152608980Y-146707800D01*
X153209041Y-147308909D01*
X153993459Y-147634628D01*
X154842815Y-147635370D01*
X155627800Y-147311020D01*
X156228909Y-146710959D01*
X156554628Y-145926541D01*
X156555370Y-145077185D01*
X156231020Y-144292200D01*
X155630959Y-143691091D01*
X154846541Y-143365372D01*
X153997185Y-143364630D01*
X153670991Y-143499411D01*
X151395790Y-141224210D01*
X151324689Y-141176702D01*
X151108675Y-141032367D01*
X151052484Y-141021190D01*
X150770000Y-140964999D01*
X150769995Y-140965000D01*
X148396579Y-140965000D01*
X147247002Y-139815423D01*
X147247002Y-139669916D01*
X147469039Y-139791904D01*
X147551819Y-139774367D01*
X148044896Y-139504500D01*
X148390000Y-139075393D01*
X148735104Y-139504500D01*
X149228181Y-139774367D01*
X149310961Y-139791904D01*
X149533000Y-139669915D01*
X149533000Y-138127000D01*
X147247000Y-138127000D01*
X147247000Y-138147000D01*
X146993000Y-138147000D01*
X146993000Y-138127000D01*
X146973000Y-138127000D01*
X146973000Y-137873000D01*
X146993000Y-137873000D01*
X146993000Y-136330085D01*
X147247000Y-136330085D01*
X147247000Y-137873000D01*
X149533000Y-137873000D01*
X149533000Y-136330085D01*
X149310961Y-136208096D01*
X149228181Y-136225633D01*
X148735104Y-136495500D01*
X148390000Y-136924607D01*
X148044896Y-136495500D01*
X147551819Y-136225633D01*
X147469039Y-136208096D01*
X147247000Y-136330085D01*
X146993000Y-136330085D01*
X146770961Y-136208096D01*
X146688181Y-136225633D01*
X146195104Y-136495500D01*
X145847507Y-136927707D01*
X145594698Y-136549352D01*
X145129151Y-136238283D01*
X144609913Y-136135000D01*
X152170087Y-136135000D01*
X151650849Y-136238283D01*
X151185302Y-136549352D01*
X150932493Y-136927707D01*
X150584896Y-136495500D01*
X150091819Y-136225633D01*
X150009039Y-136208096D01*
X149787000Y-136330085D01*
X149787000Y-137873000D01*
X149807000Y-137873000D01*
X149807000Y-138127000D01*
X149787000Y-138127000D01*
X149787000Y-139669915D01*
X150009039Y-139791904D01*
X150091819Y-139774367D01*
X150584896Y-139504500D01*
X150932493Y-139072293D01*
X151185302Y-139450648D01*
X151315000Y-139537310D01*
X151315000Y-139799995D01*
X151314999Y-139800000D01*
X151331750Y-139884210D01*
X151382367Y-140138675D01*
X151507393Y-140325790D01*
X151574210Y-140425790D01*
X151615116Y-140466696D01*
X151614760Y-140874285D01*
X151825169Y-141383515D01*
X152214436Y-141773461D01*
X152723298Y-141984759D01*
X153274285Y-141985240D01*
X153783515Y-141774831D01*
X154173461Y-141385564D01*
X154275980Y-141138671D01*
X154315169Y-141233515D01*
X154704436Y-141623461D01*
X155213298Y-141834759D01*
X155764285Y-141835240D01*
X156273515Y-141624831D01*
X156663461Y-141235564D01*
X156874759Y-140726702D01*
X156875240Y-140175715D01*
X156694009Y-139737101D01*
X156730849Y-139761717D01*
X157280000Y-139870950D01*
X157829151Y-139761717D01*
X158294698Y-139450648D01*
X158605767Y-138985101D01*
X158715000Y-138435950D01*
X158715000Y-137564050D01*
X158605767Y-137014899D01*
X158294698Y-136549352D01*
X157829151Y-136238283D01*
X157280000Y-136129050D01*
X157097025Y-136165446D01*
X155616580Y-134685000D01*
X156474740Y-134685000D01*
X161354560Y-139564820D01*
X160966485Y-139725169D01*
X160576539Y-140114436D01*
X160365241Y-140623298D01*
X160364883Y-141033538D01*
X158874210Y-142524210D01*
X158682367Y-142811325D01*
X158682367Y-142811326D01*
X158614999Y-143150000D01*
X158615000Y-143150005D01*
X158615000Y-143352560D01*
X158000000Y-143352560D01*
X157752235Y-143401843D01*
X157542191Y-143542191D01*
X157401843Y-143752235D01*
X157352560Y-144000000D01*
X157352560Y-147000000D01*
X157401843Y-147247765D01*
X157542191Y-147457809D01*
X157752235Y-147598157D01*
X158000000Y-147647440D01*
X161000000Y-147647440D01*
X161247765Y-147598157D01*
X161457809Y-147457809D01*
X161598157Y-147247765D01*
X161647440Y-147000000D01*
X161647440Y-144000000D01*
X161598157Y-143752235D01*
X161457809Y-143542191D01*
X161247765Y-143401843D01*
X161000000Y-143352560D01*
X160549020Y-143352560D01*
X161616695Y-142284884D01*
X162024285Y-142285240D01*
X162533515Y-142074831D01*
X162923461Y-141685564D01*
X163085374Y-141295634D01*
X165400795Y-143611054D01*
X165212200Y-143688980D01*
X164611091Y-144289041D01*
X164285372Y-145073459D01*
X164284630Y-145922815D01*
X164608980Y-146707800D01*
X165209041Y-147308909D01*
X165993459Y-147634628D01*
X166842815Y-147635370D01*
X167627800Y-147311020D01*
X168228909Y-146710959D01*
X168554628Y-145926541D01*
X168555370Y-145077185D01*
X168231020Y-144292200D01*
X167630959Y-143691091D01*
X167375464Y-143585000D01*
X169513587Y-143585000D01*
X169401843Y-143752235D01*
X169352560Y-144000000D01*
X169352560Y-147000000D01*
X169401843Y-147247765D01*
X169542191Y-147457809D01*
X169752235Y-147598157D01*
X170000000Y-147647440D01*
X173000000Y-147647440D01*
X173247765Y-147598157D01*
X173457809Y-147457809D01*
X173598157Y-147247765D01*
X173644661Y-147013970D01*
X177085635Y-147013970D01*
X177245418Y-147332739D01*
X178036187Y-147642723D01*
X178885387Y-147626497D01*
X179594582Y-147332739D01*
X179754365Y-147013970D01*
X178420000Y-145679605D01*
X177085635Y-147013970D01*
X173644661Y-147013970D01*
X173647440Y-147000000D01*
X173647440Y-145116187D01*
X176277277Y-145116187D01*
X176293503Y-145965387D01*
X176587261Y-146674582D01*
X176906030Y-146834365D01*
X178240395Y-145500000D01*
X178599605Y-145500000D01*
X179933970Y-146834365D01*
X180252739Y-146674582D01*
X180562723Y-145883813D01*
X180546497Y-145034613D01*
X180252739Y-144325418D01*
X179933970Y-144165635D01*
X178599605Y-145500000D01*
X178240395Y-145500000D01*
X176906030Y-144165635D01*
X176587261Y-144325418D01*
X176277277Y-145116187D01*
X173647440Y-145116187D01*
X173647440Y-144000000D01*
X173644662Y-143986030D01*
X177085635Y-143986030D01*
X178420000Y-145320395D01*
X179754365Y-143986030D01*
X179594582Y-143667261D01*
X178803813Y-143357277D01*
X177954613Y-143373503D01*
X177245418Y-143667261D01*
X177085635Y-143986030D01*
X173644662Y-143986030D01*
X173598157Y-143752235D01*
X173457809Y-143542191D01*
X173247765Y-143401843D01*
X173000000Y-143352560D01*
X172355673Y-143352560D01*
X172317633Y-143161326D01*
X172317633Y-143161325D01*
X172125790Y-142874210D01*
X172125787Y-142874208D01*
X171825865Y-142574285D01*
X173564760Y-142574285D01*
X173775169Y-143083515D01*
X174164436Y-143473461D01*
X174673298Y-143684759D01*
X175224285Y-143685240D01*
X175733515Y-143474831D01*
X176023852Y-143185000D01*
X181933420Y-143185000D01*
X182100980Y-143352560D01*
X182000000Y-143352560D01*
X181752235Y-143401843D01*
X181542191Y-143542191D01*
X181401843Y-143752235D01*
X181352560Y-144000000D01*
X181352560Y-147000000D01*
X181401843Y-147247765D01*
X181542191Y-147457809D01*
X181752235Y-147598157D01*
X182000000Y-147647440D01*
X185000000Y-147647440D01*
X185247765Y-147598157D01*
X185457809Y-147457809D01*
X185598157Y-147247765D01*
X185647440Y-147000000D01*
X185647440Y-145308026D01*
X189003079Y-145308026D01*
X189373004Y-146203314D01*
X190057383Y-146888888D01*
X190952024Y-147260376D01*
X191920726Y-147261221D01*
X192816014Y-146891296D01*
X193501588Y-146206917D01*
X193873076Y-145312276D01*
X193873921Y-144343574D01*
X193503996Y-143448286D01*
X192819617Y-142762712D01*
X191924976Y-142391224D01*
X190956274Y-142390379D01*
X190060986Y-142760304D01*
X189375412Y-143444683D01*
X189003924Y-144339324D01*
X189003079Y-145308026D01*
X185647440Y-145308026D01*
X185647440Y-144000000D01*
X185598157Y-143752235D01*
X185457809Y-143542191D01*
X185247765Y-143401843D01*
X185000000Y-143352560D01*
X184355673Y-143352560D01*
X184317633Y-143161325D01*
X184235681Y-143038675D01*
X184125790Y-142874210D01*
X184125787Y-142874208D01*
X182925790Y-141674210D01*
X182924669Y-141673461D01*
X182638675Y-141482367D01*
X182582484Y-141471190D01*
X182300000Y-141414999D01*
X182299995Y-141415000D01*
X176023523Y-141415000D01*
X175735564Y-141126539D01*
X175226702Y-140915241D01*
X174675715Y-140914760D01*
X174166485Y-141125169D01*
X173776539Y-141514436D01*
X173565241Y-142023298D01*
X173564760Y-142574285D01*
X171825865Y-142574285D01*
X171325790Y-142074210D01*
X171324669Y-142073461D01*
X171038675Y-141882367D01*
X170982484Y-141871190D01*
X170700000Y-141814999D01*
X170699995Y-141815000D01*
X167666579Y-141815000D01*
X165558241Y-139706661D01*
X172522758Y-139706661D01*
X172734990Y-140220303D01*
X173127630Y-140613629D01*
X173640900Y-140826757D01*
X174196661Y-140827242D01*
X174710303Y-140615010D01*
X174915457Y-140410213D01*
X175659392Y-140410213D01*
X175728857Y-140652397D01*
X176252302Y-140839144D01*
X176807368Y-140811362D01*
X177191143Y-140652397D01*
X177260608Y-140410213D01*
X176460000Y-139609605D01*
X175659392Y-140410213D01*
X174915457Y-140410213D01*
X175103629Y-140222370D01*
X175183395Y-140030273D01*
X175237603Y-140161143D01*
X175479787Y-140230608D01*
X176280395Y-139430000D01*
X175479787Y-138629392D01*
X175237603Y-138698857D01*
X175187491Y-138839318D01*
X175105010Y-138639697D01*
X174712370Y-138246371D01*
X174199100Y-138033243D01*
X173643339Y-138032758D01*
X173129697Y-138244990D01*
X172736371Y-138637630D01*
X172523243Y-139150900D01*
X172522758Y-139706661D01*
X165558241Y-139706661D01*
X160309995Y-134458415D01*
X160548465Y-134359881D01*
X160938411Y-133970614D01*
X161149709Y-133461752D01*
X161150190Y-132910765D01*
X160939781Y-132401535D01*
X160646674Y-132107917D01*
X160591521Y-131830648D01*
X160582583Y-131785715D01*
X160390740Y-131498600D01*
X160390737Y-131498598D01*
X159834999Y-130942859D01*
X159834999Y-127174285D01*
X161714760Y-127174285D01*
X161925169Y-127683515D01*
X162215000Y-127973852D01*
X162215000Y-132076477D01*
X161926539Y-132364436D01*
X161715241Y-132873298D01*
X161714760Y-133424285D01*
X161925169Y-133933515D01*
X162314436Y-134323461D01*
X162823298Y-134534759D01*
X163374285Y-134535240D01*
X163883515Y-134324831D01*
X164273461Y-133935564D01*
X164484759Y-133426702D01*
X164485240Y-132875715D01*
X164274831Y-132366485D01*
X163985000Y-132076148D01*
X163985000Y-127973523D01*
X164273461Y-127685564D01*
X164484759Y-127176702D01*
X164485240Y-126625715D01*
X164274831Y-126116485D01*
X163885564Y-125726539D01*
X163376702Y-125515241D01*
X162825715Y-125514760D01*
X162316485Y-125725169D01*
X161926539Y-126114436D01*
X161715241Y-126623298D01*
X161714760Y-127174285D01*
X159834999Y-127174285D01*
X159834999Y-123724285D01*
X161514760Y-123724285D01*
X161725169Y-124233515D01*
X162114436Y-124623461D01*
X162623298Y-124834759D01*
X163033537Y-124835117D01*
X176240651Y-138042230D01*
X176112632Y-138048638D01*
X175728857Y-138207603D01*
X175659392Y-138449787D01*
X176460000Y-139250395D01*
X176474143Y-139236253D01*
X176653748Y-139415858D01*
X176639605Y-139430000D01*
X177440213Y-140230608D01*
X177682397Y-140161143D01*
X177732509Y-140020682D01*
X177814990Y-140220303D01*
X178207630Y-140613629D01*
X178720900Y-140826757D01*
X179276661Y-140827242D01*
X179790303Y-140615010D01*
X180183629Y-140222370D01*
X180269949Y-140014488D01*
X180354990Y-140220303D01*
X180747630Y-140613629D01*
X181260900Y-140826757D01*
X181816661Y-140827242D01*
X182330303Y-140615010D01*
X182723629Y-140222370D01*
X182809949Y-140014488D01*
X182894990Y-140220303D01*
X183287630Y-140613629D01*
X183800900Y-140826757D01*
X184356661Y-140827242D01*
X184870303Y-140615010D01*
X185263629Y-140222370D01*
X185476757Y-139709100D01*
X185477242Y-139153339D01*
X185265010Y-138639697D01*
X184872370Y-138246371D01*
X184359100Y-138033243D01*
X183803339Y-138032758D01*
X183289697Y-138244990D01*
X182896371Y-138637630D01*
X182810051Y-138845512D01*
X182725010Y-138639697D01*
X182332370Y-138246371D01*
X181819100Y-138033243D01*
X181263339Y-138032758D01*
X180749697Y-138244990D01*
X180356371Y-138637630D01*
X180270051Y-138845512D01*
X180185010Y-138639697D01*
X179792370Y-138246371D01*
X179279100Y-138033243D01*
X178734347Y-138032768D01*
X164284884Y-123583304D01*
X164285240Y-123175715D01*
X164074831Y-122666485D01*
X163685564Y-122276539D01*
X163176702Y-122065241D01*
X162625715Y-122064760D01*
X162116485Y-122275169D01*
X161726539Y-122664436D01*
X161515241Y-123173298D01*
X161514760Y-123724285D01*
X159834999Y-123724285D01*
X159834999Y-122694579D01*
X161244567Y-121285010D01*
X167199985Y-121285010D01*
X167199990Y-121285011D01*
X167501679Y-121225000D01*
X167538665Y-121217643D01*
X167825780Y-121025800D01*
X172523210Y-116328369D01*
X172522758Y-116846661D01*
X172734990Y-117360303D01*
X173127630Y-117753629D01*
X173640900Y-117966757D01*
X174196661Y-117967242D01*
X174710303Y-117755010D01*
X175103629Y-117362370D01*
X175189949Y-117154488D01*
X175274990Y-117360303D01*
X175667630Y-117753629D01*
X176180900Y-117966757D01*
X176736661Y-117967242D01*
X177250303Y-117755010D01*
X177643629Y-117362370D01*
X177729949Y-117154488D01*
X177814990Y-117360303D01*
X178207630Y-117753629D01*
X178720900Y-117966757D01*
X179276661Y-117967242D01*
X179790303Y-117755010D01*
X180183629Y-117362370D01*
X180269949Y-117154488D01*
X180354990Y-117360303D01*
X180747630Y-117753629D01*
X181260900Y-117966757D01*
X181816661Y-117967242D01*
X182330303Y-117755010D01*
X182723629Y-117362370D01*
X182809949Y-117154488D01*
X182894990Y-117360303D01*
X183287630Y-117753629D01*
X183800900Y-117966757D01*
X184356661Y-117967242D01*
X184870303Y-117755010D01*
X185263629Y-117362370D01*
X185476757Y-116849100D01*
X185477242Y-116293339D01*
X185265010Y-115779697D01*
X184965000Y-115479163D01*
X184965000Y-115380000D01*
X184897633Y-115041325D01*
X184705790Y-114754210D01*
X184705787Y-114754208D01*
X182934884Y-112983304D01*
X182935240Y-112575715D01*
X182839209Y-112343301D01*
X195783100Y-125287192D01*
X195783100Y-149180000D01*
X101191100Y-149180000D01*
X101191100Y-145922815D01*
X113204630Y-145922815D01*
X113528980Y-146707800D01*
X114129041Y-147308909D01*
X114913459Y-147634628D01*
X115762815Y-147635370D01*
X116547800Y-147311020D01*
X117148909Y-146710959D01*
X117284259Y-146385000D01*
X118475601Y-146385000D01*
X118608980Y-146707800D01*
X119209041Y-147308909D01*
X119993459Y-147634628D01*
X120842815Y-147635370D01*
X121627800Y-147311020D01*
X122228909Y-146710959D01*
X122364259Y-146385000D01*
X123352560Y-146385000D01*
X123352560Y-147000000D01*
X123401843Y-147247765D01*
X123542191Y-147457809D01*
X123752235Y-147598157D01*
X124000000Y-147647440D01*
X127000000Y-147647440D01*
X127247765Y-147598157D01*
X127457809Y-147457809D01*
X127598157Y-147247765D01*
X127647440Y-147000000D01*
X127647440Y-144000000D01*
X127598157Y-143752235D01*
X127457809Y-143542191D01*
X127247765Y-143401843D01*
X127000000Y-143352560D01*
X124000000Y-143352560D01*
X123752235Y-143401843D01*
X123542191Y-143542191D01*
X123401843Y-143752235D01*
X123352560Y-144000000D01*
X123352560Y-144615000D01*
X122364399Y-144615000D01*
X122231020Y-144292200D01*
X121630959Y-143691091D01*
X120846541Y-143365372D01*
X119997185Y-143364630D01*
X119212200Y-143688980D01*
X118611091Y-144289041D01*
X118475741Y-144615000D01*
X117284399Y-144615000D01*
X117151020Y-144292200D01*
X116550959Y-143691091D01*
X116225000Y-143555741D01*
X116225000Y-141583505D01*
X116523461Y-141285564D01*
X116734759Y-140776702D01*
X116735240Y-140225715D01*
X116524831Y-139716485D01*
X116135564Y-139326539D01*
X115626702Y-139115241D01*
X115075715Y-139114760D01*
X114566485Y-139325169D01*
X114176539Y-139714436D01*
X113965241Y-140223298D01*
X113964760Y-140774285D01*
X114175169Y-141283515D01*
X114455000Y-141563834D01*
X114455000Y-143555601D01*
X114132200Y-143688980D01*
X113531091Y-144289041D01*
X113205372Y-145073459D01*
X113204630Y-145922815D01*
X101191100Y-145922815D01*
X101191100Y-142768026D01*
X103151079Y-142768026D01*
X103521004Y-143663314D01*
X104205383Y-144348888D01*
X105100024Y-144720376D01*
X106068726Y-144721221D01*
X106964014Y-144351296D01*
X107649588Y-143666917D01*
X108021076Y-142772276D01*
X108021921Y-141803574D01*
X107651996Y-140908286D01*
X106967617Y-140222712D01*
X106072976Y-139851224D01*
X105104274Y-139850379D01*
X104208986Y-140220304D01*
X103523412Y-140904683D01*
X103151924Y-141799324D01*
X103151079Y-142768026D01*
X101191100Y-142768026D01*
X101191100Y-100930102D01*
X104177356Y-100930102D01*
X104205138Y-101485168D01*
X104364103Y-101868943D01*
X104606287Y-101938408D01*
X105406895Y-101137800D01*
X105766105Y-101137800D01*
X106566713Y-101938408D01*
X106808897Y-101868943D01*
X106852953Y-101745456D01*
X106904103Y-101868943D01*
X107146287Y-101938408D01*
X107946895Y-101137800D01*
X107146287Y-100337192D01*
X106904103Y-100406657D01*
X106860047Y-100530144D01*
X106808897Y-100406657D01*
X106566713Y-100337192D01*
X105766105Y-101137800D01*
X105406895Y-101137800D01*
X104606287Y-100337192D01*
X104364103Y-100406657D01*
X104177356Y-100930102D01*
X101191100Y-100930102D01*
X101191100Y-99578013D01*
X104785892Y-99578013D01*
X104855357Y-99820197D01*
X104978844Y-99864253D01*
X104855357Y-99915403D01*
X104785892Y-100157587D01*
X105586500Y-100958195D01*
X106387108Y-100157587D01*
X106317643Y-99915403D01*
X106194156Y-99871347D01*
X106317643Y-99820197D01*
X106387108Y-99578013D01*
X105586500Y-98777405D01*
X104785892Y-99578013D01*
X101191100Y-99578013D01*
X101191100Y-98390102D01*
X104177356Y-98390102D01*
X104205138Y-98945168D01*
X104364103Y-99328943D01*
X104606287Y-99398408D01*
X105406895Y-98597800D01*
X104606287Y-97797192D01*
X104364103Y-97866657D01*
X104177356Y-98390102D01*
X101191100Y-98390102D01*
X101191100Y-73474461D01*
X104189258Y-73474461D01*
X104401490Y-73988103D01*
X104794130Y-74381429D01*
X105002012Y-74467749D01*
X104796197Y-74552790D01*
X104402871Y-74945430D01*
X104189743Y-75458700D01*
X104189258Y-76014461D01*
X104401490Y-76528103D01*
X104794130Y-76921429D01*
X105002012Y-77007749D01*
X104796197Y-77092790D01*
X104402871Y-77485430D01*
X104189743Y-77998700D01*
X104189258Y-78554461D01*
X104401490Y-79068103D01*
X104794130Y-79461429D01*
X105002012Y-79547749D01*
X104796197Y-79632790D01*
X104402871Y-80025430D01*
X104189743Y-80538700D01*
X104189258Y-81094461D01*
X104401490Y-81608103D01*
X104794130Y-82001429D01*
X105002012Y-82087749D01*
X104796197Y-82172790D01*
X104402871Y-82565430D01*
X104189743Y-83078700D01*
X104189258Y-83634461D01*
X104401490Y-84148103D01*
X104794130Y-84541429D01*
X105002012Y-84627749D01*
X104796197Y-84712790D01*
X104402871Y-85105430D01*
X104189743Y-85618700D01*
X104189258Y-86174461D01*
X104401490Y-86688103D01*
X104794130Y-87081429D01*
X105002012Y-87167749D01*
X104796197Y-87252790D01*
X104402871Y-87645430D01*
X104189743Y-88158700D01*
X104189258Y-88714461D01*
X104401490Y-89228103D01*
X104794130Y-89621429D01*
X105002012Y-89707749D01*
X104796197Y-89792790D01*
X104402871Y-90185430D01*
X104189743Y-90698700D01*
X104189258Y-91254461D01*
X104401490Y-91768103D01*
X104794130Y-92161429D01*
X105002012Y-92247749D01*
X104796197Y-92332790D01*
X104402871Y-92725430D01*
X104189743Y-93238700D01*
X104189258Y-93794461D01*
X104401490Y-94308103D01*
X104794130Y-94701429D01*
X105002012Y-94787749D01*
X104796197Y-94872790D01*
X104402871Y-95265430D01*
X104189743Y-95778700D01*
X104189258Y-96334461D01*
X104401490Y-96848103D01*
X104794130Y-97241429D01*
X104986227Y-97321195D01*
X104855357Y-97375403D01*
X104785892Y-97617587D01*
X105586500Y-98418195D01*
X106387108Y-97617587D01*
X106317643Y-97375403D01*
X106177182Y-97325291D01*
X106376803Y-97242810D01*
X106770129Y-96850170D01*
X106856449Y-96642288D01*
X106941490Y-96848103D01*
X107334130Y-97241429D01*
X107542012Y-97327749D01*
X107336197Y-97412790D01*
X106942871Y-97805430D01*
X106863105Y-97997527D01*
X106808897Y-97866657D01*
X106566713Y-97797192D01*
X105766105Y-98597800D01*
X106566713Y-99398408D01*
X106808897Y-99328943D01*
X106859009Y-99188482D01*
X106941490Y-99388103D01*
X107334130Y-99781429D01*
X107526227Y-99861195D01*
X107395357Y-99915403D01*
X107325892Y-100157587D01*
X108126500Y-100958195D01*
X108927108Y-100157587D01*
X108857643Y-99915403D01*
X108717182Y-99865291D01*
X108916803Y-99782810D01*
X109310129Y-99390170D01*
X109396449Y-99182288D01*
X109481490Y-99388103D01*
X109874130Y-99781429D01*
X110082012Y-99867749D01*
X109876197Y-99952790D01*
X109482871Y-100345430D01*
X109403105Y-100537527D01*
X109348897Y-100406657D01*
X109106713Y-100337192D01*
X108306105Y-101137800D01*
X109106713Y-101938408D01*
X109348897Y-101868943D01*
X109399009Y-101728482D01*
X109481490Y-101928103D01*
X109874130Y-102321429D01*
X110082012Y-102407749D01*
X109876197Y-102492790D01*
X109482871Y-102885430D01*
X109396551Y-103093312D01*
X109311510Y-102887497D01*
X108918870Y-102494171D01*
X108726773Y-102414405D01*
X108857643Y-102360197D01*
X108927108Y-102118013D01*
X108126500Y-101317405D01*
X107325892Y-102118013D01*
X107395357Y-102360197D01*
X107535818Y-102410309D01*
X107336197Y-102492790D01*
X107035663Y-102792800D01*
X106676978Y-102792800D01*
X106378870Y-102494171D01*
X106186773Y-102414405D01*
X106317643Y-102360197D01*
X106387108Y-102118013D01*
X105586500Y-101317405D01*
X104785892Y-102118013D01*
X104855357Y-102360197D01*
X104995818Y-102410309D01*
X104796197Y-102492790D01*
X104402871Y-102885430D01*
X104189743Y-103398700D01*
X104189258Y-103954461D01*
X104401490Y-104468103D01*
X104794130Y-104861429D01*
X105002012Y-104947749D01*
X104796197Y-105032790D01*
X104402871Y-105425430D01*
X104189743Y-105938700D01*
X104189258Y-106494461D01*
X104401490Y-107008103D01*
X104794130Y-107401429D01*
X105002012Y-107487749D01*
X104796197Y-107572790D01*
X104402871Y-107965430D01*
X104189743Y-108478700D01*
X104189258Y-109034461D01*
X104401490Y-109548103D01*
X104794130Y-109941429D01*
X105002012Y-110027749D01*
X104796197Y-110112790D01*
X104402871Y-110505430D01*
X104189743Y-111018700D01*
X104189258Y-111574461D01*
X104401490Y-112088103D01*
X104794130Y-112481429D01*
X105002012Y-112567749D01*
X104796197Y-112652790D01*
X104402871Y-113045430D01*
X104189743Y-113558700D01*
X104189258Y-114114461D01*
X104401490Y-114628103D01*
X104794130Y-115021429D01*
X105002012Y-115107749D01*
X104796197Y-115192790D01*
X104402871Y-115585430D01*
X104189743Y-116098700D01*
X104189258Y-116654461D01*
X104401490Y-117168103D01*
X104794130Y-117561429D01*
X105002012Y-117647749D01*
X104796197Y-117732790D01*
X104402871Y-118125430D01*
X104189743Y-118638700D01*
X104189258Y-119194461D01*
X104401490Y-119708103D01*
X104794130Y-120101429D01*
X105002012Y-120187749D01*
X104796197Y-120272790D01*
X104402871Y-120665430D01*
X104189743Y-121178700D01*
X104189258Y-121734461D01*
X104401490Y-122248103D01*
X104794130Y-122641429D01*
X105002012Y-122727749D01*
X104796197Y-122812790D01*
X104402871Y-123205430D01*
X104189743Y-123718700D01*
X104189258Y-124274461D01*
X104401490Y-124788103D01*
X104794130Y-125181429D01*
X105002012Y-125267749D01*
X104796197Y-125352790D01*
X104402871Y-125745430D01*
X104189743Y-126258700D01*
X104189258Y-126814461D01*
X104401490Y-127328103D01*
X104794130Y-127721429D01*
X105002012Y-127807749D01*
X104796197Y-127892790D01*
X104402871Y-128285430D01*
X104189743Y-128798700D01*
X104189258Y-129354461D01*
X104401490Y-129868103D01*
X104794130Y-130261429D01*
X105002012Y-130347749D01*
X104796197Y-130432790D01*
X104402871Y-130825430D01*
X104189743Y-131338700D01*
X104189258Y-131894461D01*
X104401490Y-132408103D01*
X104794130Y-132801429D01*
X105002012Y-132887749D01*
X104796197Y-132972790D01*
X104402871Y-133365430D01*
X104189743Y-133878700D01*
X104189258Y-134434461D01*
X104401490Y-134948103D01*
X104794130Y-135341429D01*
X105002012Y-135427749D01*
X104796197Y-135512790D01*
X104402871Y-135905430D01*
X104189743Y-136418700D01*
X104189258Y-136974461D01*
X104401490Y-137488103D01*
X104794130Y-137881429D01*
X105307400Y-138094557D01*
X105863161Y-138095042D01*
X106376803Y-137882810D01*
X106770129Y-137490170D01*
X106856449Y-137282288D01*
X106941490Y-137488103D01*
X107334130Y-137881429D01*
X107847400Y-138094557D01*
X108403161Y-138095042D01*
X108916803Y-137882810D01*
X109310129Y-137490170D01*
X109396449Y-137282288D01*
X109481490Y-137488103D01*
X109874130Y-137881429D01*
X110387400Y-138094557D01*
X110943161Y-138095042D01*
X111456803Y-137882810D01*
X111850129Y-137490170D01*
X111936449Y-137282288D01*
X112021490Y-137488103D01*
X112414130Y-137881429D01*
X112927400Y-138094557D01*
X113483161Y-138095042D01*
X113996803Y-137882810D01*
X114390129Y-137490170D01*
X114603257Y-136976900D01*
X114603742Y-136421139D01*
X114391510Y-135907497D01*
X113998870Y-135514171D01*
X113790988Y-135427851D01*
X113996803Y-135342810D01*
X114390129Y-134950170D01*
X114603257Y-134436900D01*
X114603742Y-133881139D01*
X114391510Y-133367497D01*
X113998870Y-132974171D01*
X113790988Y-132887851D01*
X113996803Y-132802810D01*
X114390129Y-132410170D01*
X114603257Y-131896900D01*
X114603742Y-131341139D01*
X114391510Y-130827497D01*
X113998870Y-130434171D01*
X113790988Y-130347851D01*
X113996803Y-130262810D01*
X114390129Y-129870170D01*
X114603257Y-129356900D01*
X114603742Y-128801139D01*
X114391510Y-128287497D01*
X113998870Y-127894171D01*
X113790988Y-127807851D01*
X113996803Y-127722810D01*
X114390129Y-127330170D01*
X114603257Y-126816900D01*
X114603742Y-126261139D01*
X114391510Y-125747497D01*
X113998870Y-125354171D01*
X113790988Y-125267851D01*
X113996803Y-125182810D01*
X114390129Y-124790170D01*
X114459833Y-124622302D01*
X116970856Y-124622302D01*
X116998638Y-125177368D01*
X117157603Y-125561143D01*
X117399787Y-125630608D01*
X118200395Y-124830000D01*
X117399787Y-124029392D01*
X117157603Y-124098857D01*
X116970856Y-124622302D01*
X114459833Y-124622302D01*
X114603257Y-124276900D01*
X114603742Y-123721139D01*
X114391510Y-123207497D01*
X113998870Y-122814171D01*
X113790988Y-122727851D01*
X113996803Y-122642810D01*
X114390129Y-122250170D01*
X114603257Y-121736900D01*
X114603742Y-121181139D01*
X114391510Y-120667497D01*
X113998870Y-120274171D01*
X113790988Y-120187851D01*
X113996803Y-120102810D01*
X114390129Y-119710170D01*
X114603257Y-119196900D01*
X114603742Y-118641139D01*
X114391510Y-118127497D01*
X113998870Y-117734171D01*
X113790988Y-117647851D01*
X113996803Y-117562810D01*
X114390129Y-117170170D01*
X114603257Y-116656900D01*
X114603742Y-116101139D01*
X114391510Y-115587497D01*
X113998870Y-115194171D01*
X113790988Y-115107851D01*
X113996803Y-115022810D01*
X114390129Y-114630170D01*
X114603257Y-114116900D01*
X114603742Y-113561139D01*
X114391510Y-113047497D01*
X113998870Y-112654171D01*
X113790988Y-112567851D01*
X113996803Y-112482810D01*
X114390129Y-112090170D01*
X114603257Y-111576900D01*
X114603742Y-111021139D01*
X114391510Y-110507497D01*
X113998870Y-110114171D01*
X113790988Y-110027851D01*
X113996803Y-109942810D01*
X114390129Y-109550170D01*
X114603257Y-109036900D01*
X114603742Y-108481139D01*
X114391510Y-107967497D01*
X113998870Y-107574171D01*
X113790988Y-107487851D01*
X113996803Y-107402810D01*
X114390129Y-107010170D01*
X114603257Y-106496900D01*
X114603742Y-105941139D01*
X114512051Y-105719229D01*
X114516081Y-105723259D01*
X114756154Y-105883671D01*
X114895355Y-105911360D01*
X114925169Y-105983515D01*
X115314436Y-106373461D01*
X115823298Y-106584759D01*
X116374285Y-106585240D01*
X116883515Y-106374831D01*
X117273461Y-105985564D01*
X117484759Y-105476702D01*
X117485240Y-104925715D01*
X117274831Y-104416485D01*
X116885564Y-104026539D01*
X116376702Y-103815241D01*
X115825715Y-103814760D01*
X115316485Y-104025169D01*
X115073792Y-104267440D01*
X115073325Y-104267128D01*
X114790139Y-104210799D01*
X114497829Y-104210799D01*
X114603257Y-103956900D01*
X114603742Y-103401139D01*
X114391510Y-102887497D01*
X113998870Y-102494171D01*
X113790988Y-102407851D01*
X113996803Y-102322810D01*
X114390129Y-101930170D01*
X114603257Y-101416900D01*
X114603742Y-100861139D01*
X114391510Y-100347497D01*
X113998870Y-99954171D01*
X113790988Y-99867851D01*
X113996803Y-99782810D01*
X114390129Y-99390170D01*
X114603257Y-98876900D01*
X114603742Y-98321139D01*
X114391510Y-97807497D01*
X113998870Y-97414171D01*
X113790988Y-97327851D01*
X113996803Y-97242810D01*
X114390129Y-96850170D01*
X114603257Y-96336900D01*
X114603742Y-95781139D01*
X114452202Y-95414383D01*
X128264769Y-95414383D01*
X128467582Y-95905229D01*
X128842796Y-96281098D01*
X129333287Y-96484768D01*
X129864383Y-96485231D01*
X130355229Y-96282418D01*
X130731098Y-95907204D01*
X130934768Y-95416713D01*
X130934770Y-95414383D01*
X130964769Y-95414383D01*
X131167582Y-95905229D01*
X131542796Y-96281098D01*
X132033287Y-96484768D01*
X132564383Y-96485231D01*
X133055229Y-96282418D01*
X133431098Y-95907204D01*
X133634768Y-95416713D01*
X133634770Y-95414383D01*
X133714769Y-95414383D01*
X133917582Y-95905229D01*
X134292796Y-96281098D01*
X134783287Y-96484768D01*
X135314383Y-96485231D01*
X135805229Y-96282418D01*
X136181098Y-95907204D01*
X136384768Y-95416713D01*
X136385231Y-94885617D01*
X136182418Y-94394771D01*
X135807204Y-94018902D01*
X135316713Y-93815232D01*
X134785617Y-93814769D01*
X134294771Y-94017582D01*
X133918902Y-94392796D01*
X133715232Y-94883287D01*
X133714769Y-95414383D01*
X133634770Y-95414383D01*
X133635231Y-94885617D01*
X133432418Y-94394771D01*
X133057204Y-94018902D01*
X132566713Y-93815232D01*
X132035617Y-93814769D01*
X131544771Y-94017582D01*
X131168902Y-94392796D01*
X130965232Y-94883287D01*
X130964769Y-95414383D01*
X130934770Y-95414383D01*
X130935231Y-94885617D01*
X130732418Y-94394771D01*
X130357204Y-94018902D01*
X129866713Y-93815232D01*
X129335617Y-93814769D01*
X128844771Y-94017582D01*
X128468902Y-94392796D01*
X128265232Y-94883287D01*
X128264769Y-95414383D01*
X114452202Y-95414383D01*
X114391510Y-95267497D01*
X113998870Y-94874171D01*
X113790988Y-94787851D01*
X113996803Y-94702810D01*
X114390129Y-94310170D01*
X114603257Y-93796900D01*
X114603742Y-93241139D01*
X114391510Y-92727497D01*
X113998870Y-92334171D01*
X113790988Y-92247851D01*
X113996803Y-92162810D01*
X114390129Y-91770170D01*
X114603257Y-91256900D01*
X114603742Y-90701139D01*
X114480691Y-90403331D01*
X128307273Y-90403331D01*
X128533236Y-90872663D01*
X128921604Y-91219797D01*
X129266671Y-91362716D01*
X129473000Y-91239374D01*
X129473000Y-90197000D01*
X129727000Y-90197000D01*
X129727000Y-91239374D01*
X129933329Y-91362716D01*
X130278396Y-91219797D01*
X130666764Y-90872663D01*
X130892727Y-90403331D01*
X131007273Y-90403331D01*
X131233236Y-90872663D01*
X131621604Y-91219797D01*
X131966671Y-91362716D01*
X132173000Y-91239374D01*
X132173000Y-90197000D01*
X132427000Y-90197000D01*
X132427000Y-91239374D01*
X132633329Y-91362716D01*
X132978396Y-91219797D01*
X133366764Y-90872663D01*
X133592727Y-90403331D01*
X133757273Y-90403331D01*
X133983236Y-90872663D01*
X134371604Y-91219797D01*
X134716671Y-91362716D01*
X134923000Y-91239374D01*
X134923000Y-90197000D01*
X135177000Y-90197000D01*
X135177000Y-91239374D01*
X135383329Y-91362716D01*
X135728396Y-91219797D01*
X136116764Y-90872663D01*
X136342727Y-90403331D01*
X136220206Y-90197000D01*
X135177000Y-90197000D01*
X134923000Y-90197000D01*
X133879794Y-90197000D01*
X133757273Y-90403331D01*
X133592727Y-90403331D01*
X133470206Y-90197000D01*
X132427000Y-90197000D01*
X132173000Y-90197000D01*
X131129794Y-90197000D01*
X131007273Y-90403331D01*
X130892727Y-90403331D01*
X130770206Y-90197000D01*
X129727000Y-90197000D01*
X129473000Y-90197000D01*
X128429794Y-90197000D01*
X128307273Y-90403331D01*
X114480691Y-90403331D01*
X114391510Y-90187497D01*
X113998870Y-89794171D01*
X113860390Y-89736669D01*
X128307273Y-89736669D01*
X128429794Y-89943000D01*
X129473000Y-89943000D01*
X129473000Y-88900626D01*
X129727000Y-88900626D01*
X129727000Y-89943000D01*
X130770206Y-89943000D01*
X130892727Y-89736669D01*
X131007273Y-89736669D01*
X131129794Y-89943000D01*
X132173000Y-89943000D01*
X132173000Y-88900626D01*
X132427000Y-88900626D01*
X132427000Y-89943000D01*
X133470206Y-89943000D01*
X133592727Y-89736669D01*
X133757273Y-89736669D01*
X133879794Y-89943000D01*
X134923000Y-89943000D01*
X134923000Y-88900626D01*
X135177000Y-88900626D01*
X135177000Y-89943000D01*
X136220206Y-89943000D01*
X136342727Y-89736669D01*
X136116764Y-89267337D01*
X135728396Y-88920203D01*
X135383329Y-88777284D01*
X135177000Y-88900626D01*
X134923000Y-88900626D01*
X134716671Y-88777284D01*
X134371604Y-88920203D01*
X133983236Y-89267337D01*
X133757273Y-89736669D01*
X133592727Y-89736669D01*
X133366764Y-89267337D01*
X132978396Y-88920203D01*
X132633329Y-88777284D01*
X132427000Y-88900626D01*
X132173000Y-88900626D01*
X131966671Y-88777284D01*
X131621604Y-88920203D01*
X131233236Y-89267337D01*
X131007273Y-89736669D01*
X130892727Y-89736669D01*
X130666764Y-89267337D01*
X130278396Y-88920203D01*
X129933329Y-88777284D01*
X129727000Y-88900626D01*
X129473000Y-88900626D01*
X129266671Y-88777284D01*
X128921604Y-88920203D01*
X128533236Y-89267337D01*
X128307273Y-89736669D01*
X113860390Y-89736669D01*
X113790988Y-89707851D01*
X113996803Y-89622810D01*
X114390129Y-89230170D01*
X114603257Y-88716900D01*
X114603742Y-88161139D01*
X114391510Y-87647497D01*
X114129471Y-87385000D01*
X114826477Y-87385000D01*
X115114436Y-87673461D01*
X115623298Y-87884759D01*
X116174285Y-87885240D01*
X116683515Y-87674831D01*
X117073461Y-87285564D01*
X117284759Y-86776702D01*
X117285240Y-86225715D01*
X117074831Y-85716485D01*
X116742165Y-85383239D01*
X116883515Y-85324834D01*
X117273461Y-84935567D01*
X117484759Y-84426705D01*
X117485240Y-83875718D01*
X117274831Y-83366488D01*
X117033732Y-83124969D01*
X117223461Y-82935570D01*
X117434759Y-82426708D01*
X117435240Y-81875721D01*
X117224831Y-81366491D01*
X117058685Y-81200056D01*
X117223461Y-81035567D01*
X117434759Y-80526705D01*
X117435240Y-79975718D01*
X117224831Y-79466488D01*
X117058685Y-79300053D01*
X117223461Y-79135564D01*
X117434759Y-78626702D01*
X117435240Y-78075715D01*
X117224831Y-77566485D01*
X116835564Y-77176539D01*
X116615997Y-77085367D01*
X116883515Y-76974831D01*
X117273461Y-76585564D01*
X117484759Y-76076702D01*
X117485240Y-75525715D01*
X117274831Y-75016485D01*
X116885564Y-74626539D01*
X116847063Y-74610552D01*
X116933515Y-74574831D01*
X117323461Y-74185564D01*
X117534759Y-73676702D01*
X117535240Y-73125715D01*
X117324831Y-72616485D01*
X116935564Y-72226539D01*
X116426702Y-72015241D01*
X115875715Y-72014760D01*
X115366485Y-72225169D01*
X115076148Y-72515000D01*
X114435929Y-72515000D01*
X114391510Y-72407497D01*
X113998870Y-72014171D01*
X113485600Y-71801043D01*
X112929839Y-71800558D01*
X112416197Y-72012790D01*
X112022871Y-72405430D01*
X111936551Y-72613312D01*
X111851510Y-72407497D01*
X111458870Y-72014171D01*
X110945600Y-71801043D01*
X110389839Y-71800558D01*
X109876197Y-72012790D01*
X109482871Y-72405430D01*
X109396551Y-72613312D01*
X109311510Y-72407497D01*
X108918870Y-72014171D01*
X108405600Y-71801043D01*
X107849839Y-71800558D01*
X107336197Y-72012790D01*
X106942871Y-72405430D01*
X106856551Y-72613312D01*
X106771510Y-72407497D01*
X106378870Y-72014171D01*
X105865600Y-71801043D01*
X105309839Y-71800558D01*
X104796197Y-72012790D01*
X104402871Y-72405430D01*
X104189743Y-72918700D01*
X104189258Y-73474461D01*
X101191100Y-73474461D01*
X101191100Y-68092026D01*
X103151079Y-68092026D01*
X103521004Y-68987314D01*
X104205383Y-69672888D01*
X105100024Y-70044376D01*
X106068726Y-70045221D01*
X106964014Y-69675296D01*
X107649588Y-68990917D01*
X108021076Y-68096276D01*
X108021921Y-67127574D01*
X107651996Y-66232286D01*
X106967617Y-65546712D01*
X106072976Y-65175224D01*
X105104274Y-65174379D01*
X104208986Y-65544304D01*
X103523412Y-66228683D01*
X103151924Y-67123324D01*
X103151079Y-68092026D01*
X101191100Y-68092026D01*
X101191100Y-60710400D01*
X118964600Y-60710400D01*
X118814799Y-60859940D01*
X118814799Y-60859940D01*
G37*
X118814799Y-60859940D02*
X118508150Y-61598432D01*
X118507452Y-62398060D01*
X118812812Y-63137086D01*
X119377740Y-63703001D01*
X120116232Y-64009650D01*
X120915860Y-64010348D01*
X121654886Y-63704988D01*
X122220801Y-63140060D01*
X122527450Y-62401568D01*
X122528148Y-61601940D01*
X122222788Y-60862914D01*
X122070540Y-60710400D01*
X176964600Y-60710400D01*
X176814799Y-60859940D01*
X176508150Y-61598432D01*
X176507452Y-62398060D01*
X176812812Y-63137086D01*
X177377740Y-63703001D01*
X178116232Y-64009650D01*
X178915860Y-64010348D01*
X179654886Y-63704988D01*
X180220801Y-63140060D01*
X180527450Y-62401568D01*
X180528148Y-61601940D01*
X180222788Y-60862914D01*
X180070540Y-60710400D01*
X181290000Y-60710400D01*
X181290000Y-110500000D01*
X181344046Y-110771705D01*
X181497954Y-111002046D01*
X182056619Y-111560711D01*
X181826702Y-111465241D01*
X181275715Y-111464760D01*
X180766485Y-111675169D01*
X180376539Y-112064436D01*
X180165241Y-112573298D01*
X180164760Y-113124285D01*
X180375169Y-113633515D01*
X180672500Y-113931365D01*
X180566485Y-113975169D01*
X180176539Y-114364436D01*
X179965241Y-114873298D01*
X179964760Y-115424285D01*
X180059778Y-115654246D01*
X179792370Y-115386371D01*
X179279100Y-115173243D01*
X178723339Y-115172758D01*
X178209697Y-115384990D01*
X177816371Y-115777630D01*
X177730051Y-115985512D01*
X177645010Y-115779697D01*
X177252370Y-115386371D01*
X176739100Y-115173243D01*
X176183339Y-115172758D01*
X175669697Y-115384990D01*
X175276371Y-115777630D01*
X175190051Y-115985512D01*
X175105010Y-115779697D01*
X174712370Y-115386371D01*
X174199100Y-115173243D01*
X173678790Y-115172789D01*
X174260187Y-114591392D01*
X174260190Y-114591390D01*
X174452033Y-114304275D01*
X174471062Y-114208610D01*
X174519401Y-113965600D01*
X174519400Y-113965595D01*
X174519400Y-113362278D01*
X174818029Y-113064170D01*
X175031157Y-112550900D01*
X175031642Y-111995139D01*
X174819410Y-111481497D01*
X174736119Y-111398060D01*
X176507452Y-111398060D01*
X176812812Y-112137086D01*
X177377740Y-112703001D01*
X178116232Y-113009650D01*
X178915860Y-113010348D01*
X179654886Y-112704988D01*
X180220801Y-112140060D01*
X180527450Y-111401568D01*
X180528148Y-110601940D01*
X180222788Y-109862914D01*
X179657860Y-109296999D01*
X178919368Y-108990350D01*
X178119740Y-108989652D01*
X177380714Y-109295012D01*
X176814799Y-109859940D01*
X176508150Y-110598432D01*
X176507452Y-111398060D01*
X174736119Y-111398060D01*
X174426770Y-111088171D01*
X174234673Y-111008405D01*
X174365543Y-110954197D01*
X174435008Y-110712013D01*
X173634400Y-109911405D01*
X172833792Y-110712013D01*
X172903257Y-110954197D01*
X173043718Y-111004309D01*
X172844097Y-111086790D01*
X172450771Y-111479430D01*
X172364451Y-111687312D01*
X172279410Y-111481497D01*
X171886770Y-111088171D01*
X171678888Y-111001851D01*
X171884703Y-110916810D01*
X172278029Y-110524170D01*
X172357795Y-110332073D01*
X172412003Y-110462943D01*
X172654187Y-110532408D01*
X173454795Y-109731800D01*
X173814005Y-109731800D01*
X174614613Y-110532408D01*
X174856797Y-110462943D01*
X175043544Y-109939498D01*
X175015762Y-109384432D01*
X174856797Y-109000657D01*
X174614613Y-108931192D01*
X173814005Y-109731800D01*
X173454795Y-109731800D01*
X172654187Y-108931192D01*
X172412003Y-109000657D01*
X172361891Y-109141118D01*
X172279410Y-108941497D01*
X172089832Y-108751587D01*
X172833792Y-108751587D01*
X173634400Y-109552195D01*
X174435008Y-108751587D01*
X174365543Y-108509403D01*
X173842098Y-108322656D01*
X173287032Y-108350438D01*
X172903257Y-108509403D01*
X172833792Y-108751587D01*
X172089832Y-108751587D01*
X171886770Y-108548171D01*
X171373500Y-108335043D01*
X170817739Y-108334558D01*
X170304097Y-108546790D01*
X169910771Y-108939430D01*
X169824451Y-109147312D01*
X169739410Y-108941497D01*
X169439400Y-108640963D01*
X169439400Y-107419217D01*
X169673461Y-107185564D01*
X169884759Y-106676702D01*
X169885240Y-106125715D01*
X169674831Y-105616485D01*
X169285564Y-105226539D01*
X168776702Y-105015241D01*
X168225715Y-105014760D01*
X167716485Y-105225169D01*
X167326539Y-105614436D01*
X167198297Y-105923277D01*
X167174831Y-105866485D01*
X166785564Y-105476539D01*
X166276702Y-105265241D01*
X165725715Y-105264760D01*
X165216485Y-105475169D01*
X164826539Y-105864436D01*
X164725012Y-106108941D01*
X164624831Y-105866485D01*
X164235564Y-105476539D01*
X163726702Y-105265241D01*
X163175715Y-105264760D01*
X162666485Y-105475169D01*
X162276539Y-105864436D01*
X162200073Y-106048586D01*
X162124831Y-105866485D01*
X161735564Y-105476539D01*
X161226702Y-105265241D01*
X160675715Y-105264760D01*
X160166485Y-105475169D01*
X159776539Y-105864436D01*
X159565241Y-106373298D01*
X159564760Y-106924285D01*
X159775169Y-107433515D01*
X160049400Y-107708224D01*
X160049400Y-108641322D01*
X159750771Y-108939430D01*
X159664451Y-109147312D01*
X159579410Y-108941497D01*
X159186770Y-108548171D01*
X158673500Y-108335043D01*
X158117739Y-108334558D01*
X157604097Y-108546790D01*
X157210771Y-108939430D01*
X157131005Y-109131527D01*
X157076797Y-109000657D01*
X156834613Y-108931192D01*
X156034005Y-109731800D01*
X156834613Y-110532408D01*
X157076797Y-110462943D01*
X157126909Y-110322482D01*
X157209390Y-110522103D01*
X157602030Y-110915429D01*
X157809912Y-111001749D01*
X157604097Y-111086790D01*
X157210771Y-111479430D01*
X157124451Y-111687312D01*
X157039410Y-111481497D01*
X156646770Y-111088171D01*
X156454673Y-111008405D01*
X156585543Y-110954197D01*
X156655008Y-110712013D01*
X155854400Y-109911405D01*
X155053792Y-110712013D01*
X155123257Y-110954197D01*
X155263718Y-111004309D01*
X155064097Y-111086790D01*
X154670771Y-111479430D01*
X154584451Y-111687312D01*
X154499410Y-111481497D01*
X154106770Y-111088171D01*
X153898888Y-111001851D01*
X154104703Y-110916810D01*
X154498029Y-110524170D01*
X154577795Y-110332073D01*
X154632003Y-110462943D01*
X154874187Y-110532408D01*
X155674795Y-109731800D01*
X154874187Y-108931192D01*
X154632003Y-109000657D01*
X154581891Y-109141118D01*
X154499410Y-108941497D01*
X154309832Y-108751587D01*
X155053792Y-108751587D01*
X155854400Y-109552195D01*
X156655008Y-108751587D01*
X156585543Y-108509403D01*
X156062098Y-108322656D01*
X155507032Y-108350438D01*
X155123257Y-108509403D01*
X155053792Y-108751587D01*
X154309832Y-108751587D01*
X154106770Y-108548171D01*
X153593500Y-108335043D01*
X153037739Y-108334558D01*
X152524097Y-108546790D01*
X152130771Y-108939430D01*
X152044451Y-109147312D01*
X151959410Y-108941497D01*
X151566770Y-108548171D01*
X151053500Y-108335043D01*
X150497739Y-108334558D01*
X149984097Y-108546790D01*
X149590771Y-108939430D01*
X149504451Y-109147312D01*
X149419410Y-108941497D01*
X149026770Y-108548171D01*
X148513500Y-108335043D01*
X147957739Y-108334558D01*
X147444097Y-108546790D01*
X147050771Y-108939430D01*
X146964451Y-109147312D01*
X146879410Y-108941497D01*
X146486770Y-108548171D01*
X146422274Y-108521390D01*
X146320190Y-108368610D01*
X146320187Y-108368608D01*
X145984884Y-108033305D01*
X145985240Y-107625715D01*
X145774831Y-107116485D01*
X145385564Y-106726539D01*
X144876702Y-106515241D01*
X144325715Y-106514760D01*
X144039400Y-106633063D01*
X144039400Y-105369130D01*
X144323461Y-105085564D01*
X144534759Y-104576702D01*
X144535240Y-104025715D01*
X144324831Y-103516485D01*
X143935564Y-103126539D01*
X143426702Y-102915241D01*
X142875715Y-102914760D01*
X142366485Y-103125169D01*
X141976539Y-103514436D01*
X141765241Y-104023298D01*
X141764760Y-104574285D01*
X141975169Y-105083515D01*
X142269400Y-105378259D01*
X142269400Y-108641322D01*
X141970771Y-108939430D01*
X141884451Y-109147312D01*
X141799410Y-108941497D01*
X141406770Y-108548171D01*
X140893500Y-108335043D01*
X140468852Y-108334672D01*
X135117446Y-102983266D01*
X135117802Y-102575677D01*
X134907393Y-102066447D01*
X134518126Y-101676501D01*
X134009264Y-101465203D01*
X133458277Y-101464722D01*
X132949047Y-101675131D01*
X132658710Y-101964962D01*
X121852418Y-101964962D01*
X121513743Y-102032329D01*
X121226628Y-102224172D01*
X121226626Y-102224175D01*
X114974210Y-108476590D01*
X114782367Y-108763705D01*
X114782367Y-108763706D01*
X114714999Y-109102380D01*
X114715000Y-109102385D01*
X114715000Y-119923945D01*
X114714999Y-119923950D01*
X114755330Y-120126702D01*
X114782367Y-120262625D01*
X114962602Y-120532367D01*
X114974210Y-120549740D01*
X117007030Y-122582559D01*
X117006761Y-122890911D01*
X117217170Y-123400141D01*
X117598730Y-123782367D01*
X117579392Y-123849787D01*
X118380000Y-124650395D01*
X118394143Y-124636253D01*
X118573748Y-124815858D01*
X118559605Y-124830000D01*
X118573748Y-124844143D01*
X118394143Y-125023748D01*
X118380000Y-125009605D01*
X117579392Y-125810213D01*
X117648857Y-126052397D01*
X117815293Y-126111776D01*
X117589697Y-126204990D01*
X117289163Y-126505000D01*
X117113540Y-126505000D01*
X116835564Y-126226539D01*
X116326702Y-126015241D01*
X115775715Y-126014760D01*
X115266485Y-126225169D01*
X114876539Y-126614436D01*
X114665241Y-127123298D01*
X114664760Y-127674285D01*
X114875169Y-128183515D01*
X115264436Y-128573461D01*
X115773298Y-128784759D01*
X116324285Y-128785240D01*
X116833515Y-128574831D01*
X117133869Y-128275000D01*
X117289522Y-128275000D01*
X117587630Y-128573629D01*
X117819654Y-128669974D01*
X117589697Y-128764990D01*
X117285877Y-129068280D01*
X117019886Y-129121190D01*
X116963695Y-129132367D01*
X116676580Y-129324210D01*
X116676578Y-129324213D01*
X116224210Y-129776580D01*
X116032367Y-130063695D01*
X116031495Y-130068081D01*
X115964999Y-130402370D01*
X115965000Y-130402375D01*
X115965000Y-133971997D01*
X115964999Y-133972002D01*
X115998153Y-134138674D01*
X116032367Y-134310677D01*
X116205834Y-134570290D01*
X116224210Y-134597792D01*
X119102207Y-137475788D01*
X119102209Y-137475791D01*
X119314492Y-137617633D01*
X119389324Y-137667634D01*
X119727999Y-137735002D01*
X119728004Y-137735001D01*
X121026391Y-137735001D01*
X121264436Y-137973461D01*
X121773298Y-138184759D01*
X122324285Y-138185240D01*
X122833515Y-137974831D01*
X123223461Y-137585564D01*
X123434759Y-137076702D01*
X123435165Y-136612098D01*
X123517633Y-136488675D01*
X123555163Y-136300000D01*
X123585001Y-136150000D01*
X123585000Y-136149995D01*
X123585000Y-123994342D01*
X123660083Y-124069556D01*
X124168945Y-124280854D01*
X124579184Y-124281212D01*
X129915000Y-129617027D01*
X129915000Y-143959995D01*
X129914999Y-143960000D01*
X129962006Y-144196313D01*
X129982367Y-144298675D01*
X130040048Y-144385001D01*
X130174210Y-144585790D01*
X130214209Y-144625788D01*
X130214211Y-144625791D01*
X130339313Y-144750893D01*
X130205372Y-145073459D01*
X130204630Y-145922815D01*
X130528980Y-146707800D01*
X131129041Y-147308909D01*
X131913459Y-147634628D01*
X132762815Y-147635370D01*
X133547800Y-147311020D01*
X134148909Y-146710959D01*
X134474628Y-145926541D01*
X134475370Y-145077185D01*
X134151020Y-144292200D01*
X133550959Y-143691091D01*
X132766541Y-143365372D01*
X131917185Y-143364630D01*
X131685000Y-143460567D01*
X131685000Y-140972277D01*
X131774210Y-141105790D01*
X135419313Y-144750893D01*
X135285372Y-145073459D01*
X135284630Y-145922815D01*
X135608980Y-146707800D01*
X136209041Y-147308909D01*
X136993459Y-147634628D01*
X137842815Y-147635370D01*
X138627800Y-147311020D01*
X139228909Y-146710959D01*
X139554628Y-145926541D01*
X139554733Y-145806312D01*
X139874208Y-146125787D01*
X139874210Y-146125790D01*
X139990234Y-146203314D01*
X140161326Y-146317634D01*
X140352560Y-146355673D01*
X140352560Y-147000000D01*
X140401843Y-147247765D01*
X140542191Y-147457809D01*
X140752235Y-147598157D01*
X141000000Y-147647440D01*
X144000000Y-147647440D01*
X144247765Y-147598157D01*
X144457809Y-147457809D01*
X144598157Y-147247765D01*
X144644661Y-147013970D01*
X148005635Y-147013970D01*
X148165418Y-147332739D01*
X148956187Y-147642723D01*
X149805387Y-147626497D01*
X150514582Y-147332739D01*
X150674365Y-147013970D01*
X149340000Y-145679605D01*
X148005635Y-147013970D01*
X144644661Y-147013970D01*
X144647440Y-147000000D01*
X144647440Y-145116187D01*
X147197277Y-145116187D01*
X147213503Y-145965387D01*
X147507261Y-146674582D01*
X147826030Y-146834365D01*
X149160395Y-145500000D01*
X149519605Y-145500000D01*
X150853970Y-146834365D01*
X151172739Y-146674582D01*
X151482723Y-145883813D01*
X151466497Y-145034613D01*
X151172739Y-144325418D01*
X150853970Y-144165635D01*
X149519605Y-145500000D01*
X149160395Y-145500000D01*
X147826030Y-144165635D01*
X147507261Y-144325418D01*
X147197277Y-145116187D01*
X144647440Y-145116187D01*
X144647440Y-144000000D01*
X144644662Y-143986030D01*
X148005635Y-143986030D01*
X149340000Y-145320395D01*
X150674365Y-143986030D01*
X150514582Y-143667261D01*
X149723813Y-143357277D01*
X148874613Y-143373503D01*
X148165418Y-143667261D01*
X148005635Y-143986030D01*
X144644662Y-143986030D01*
X144598157Y-143752235D01*
X144457809Y-143542191D01*
X144247765Y-143401843D01*
X144000000Y-143352560D01*
X141000000Y-143352560D01*
X140752235Y-143401843D01*
X140542191Y-143542191D01*
X140401843Y-143752235D01*
X140352560Y-144000000D01*
X140352560Y-144100981D01*
X134785000Y-138533420D01*
X134785000Y-135767446D01*
X134924210Y-135975790D01*
X137574208Y-138625787D01*
X137574210Y-138625790D01*
X137861325Y-138817633D01*
X137917516Y-138828810D01*
X138052560Y-138855673D01*
X138052560Y-139200000D01*
X138101843Y-139447765D01*
X138242191Y-139657809D01*
X138452235Y-139798157D01*
X138700000Y-139847440D01*
X140300000Y-139847440D01*
X140547765Y-139798157D01*
X140757809Y-139657809D01*
X140898157Y-139447765D01*
X140926882Y-139303352D01*
X141025302Y-139450648D01*
X141490849Y-139761717D01*
X142040000Y-139870950D01*
X142589151Y-139761717D01*
X143054698Y-139450648D01*
X143310000Y-139068562D01*
X143565302Y-139450648D01*
X144030849Y-139761717D01*
X144580000Y-139870950D01*
X144762974Y-139834554D01*
X147404208Y-142475787D01*
X147404210Y-142475790D01*
X147691325Y-142667633D01*
X147747516Y-142678810D01*
X148030000Y-142735001D01*
X148030005Y-142735000D01*
X150403420Y-142735000D01*
X152419313Y-144750893D01*
X152285372Y-145073459D01*
X152284630Y-145922815D01*
X152608980Y-146707800D01*
X153209041Y-147308909D01*
X153993459Y-147634628D01*
X154842815Y-147635370D01*
X155627800Y-147311020D01*
X156228909Y-146710959D01*
X156554628Y-145926541D01*
X156555370Y-145077185D01*
X156231020Y-144292200D01*
X155630959Y-143691091D01*
X154846541Y-143365372D01*
X153997185Y-143364630D01*
X153670991Y-143499411D01*
X151395790Y-141224210D01*
X151324689Y-141176702D01*
X151108675Y-141032367D01*
X151052484Y-141021190D01*
X150770000Y-140964999D01*
X150769995Y-140965000D01*
X148396579Y-140965000D01*
X147247002Y-139815423D01*
X147247002Y-139669916D01*
X147469039Y-139791904D01*
X147551819Y-139774367D01*
X148044896Y-139504500D01*
X148390000Y-139075393D01*
X148735104Y-139504500D01*
X149228181Y-139774367D01*
X149310961Y-139791904D01*
X149533000Y-139669915D01*
X149533000Y-138127000D01*
X147247000Y-138127000D01*
X147247000Y-138147000D01*
X146993000Y-138147000D01*
X146993000Y-138127000D01*
X146973000Y-138127000D01*
X146973000Y-137873000D01*
X146993000Y-137873000D01*
X146993000Y-136330085D01*
X147247000Y-136330085D01*
X147247000Y-137873000D01*
X149533000Y-137873000D01*
X149533000Y-136330085D01*
X149310961Y-136208096D01*
X149228181Y-136225633D01*
X148735104Y-136495500D01*
X148390000Y-136924607D01*
X148044896Y-136495500D01*
X147551819Y-136225633D01*
X147469039Y-136208096D01*
X147247000Y-136330085D01*
X146993000Y-136330085D01*
X146770961Y-136208096D01*
X146688181Y-136225633D01*
X146195104Y-136495500D01*
X145847507Y-136927707D01*
X145594698Y-136549352D01*
X145129151Y-136238283D01*
X144609913Y-136135000D01*
X152170087Y-136135000D01*
X151650849Y-136238283D01*
X151185302Y-136549352D01*
X150932493Y-136927707D01*
X150584896Y-136495500D01*
X150091819Y-136225633D01*
X150009039Y-136208096D01*
X149787000Y-136330085D01*
X149787000Y-137873000D01*
X149807000Y-137873000D01*
X149807000Y-138127000D01*
X149787000Y-138127000D01*
X149787000Y-139669915D01*
X150009039Y-139791904D01*
X150091819Y-139774367D01*
X150584896Y-139504500D01*
X150932493Y-139072293D01*
X151185302Y-139450648D01*
X151315000Y-139537310D01*
X151315000Y-139799995D01*
X151314999Y-139800000D01*
X151331750Y-139884210D01*
X151382367Y-140138675D01*
X151507393Y-140325790D01*
X151574210Y-140425790D01*
X151615116Y-140466696D01*
X151614760Y-140874285D01*
X151825169Y-141383515D01*
X152214436Y-141773461D01*
X152723298Y-141984759D01*
X153274285Y-141985240D01*
X153783515Y-141774831D01*
X154173461Y-141385564D01*
X154275980Y-141138671D01*
X154315169Y-141233515D01*
X154704436Y-141623461D01*
X155213298Y-141834759D01*
X155764285Y-141835240D01*
X156273515Y-141624831D01*
X156663461Y-141235564D01*
X156874759Y-140726702D01*
X156875240Y-140175715D01*
X156694009Y-139737101D01*
X156730849Y-139761717D01*
X157280000Y-139870950D01*
X157829151Y-139761717D01*
X158294698Y-139450648D01*
X158605767Y-138985101D01*
X158715000Y-138435950D01*
X158715000Y-137564050D01*
X158605767Y-137014899D01*
X158294698Y-136549352D01*
X157829151Y-136238283D01*
X157280000Y-136129050D01*
X157097025Y-136165446D01*
X155616580Y-134685000D01*
X156474740Y-134685000D01*
X161354560Y-139564820D01*
X160966485Y-139725169D01*
X160576539Y-140114436D01*
X160365241Y-140623298D01*
X160364883Y-141033538D01*
X158874210Y-142524210D01*
X158682367Y-142811325D01*
X158682367Y-142811326D01*
X158614999Y-143150000D01*
X158615000Y-143150005D01*
X158615000Y-143352560D01*
X158000000Y-143352560D01*
X157752235Y-143401843D01*
X157542191Y-143542191D01*
X157401843Y-143752235D01*
X157352560Y-144000000D01*
X157352560Y-147000000D01*
X157401843Y-147247765D01*
X157542191Y-147457809D01*
X157752235Y-147598157D01*
X158000000Y-147647440D01*
X161000000Y-147647440D01*
X161247765Y-147598157D01*
X161457809Y-147457809D01*
X161598157Y-147247765D01*
X161647440Y-147000000D01*
X161647440Y-144000000D01*
X161598157Y-143752235D01*
X161457809Y-143542191D01*
X161247765Y-143401843D01*
X161000000Y-143352560D01*
X160549020Y-143352560D01*
X161616695Y-142284884D01*
X162024285Y-142285240D01*
X162533515Y-142074831D01*
X162923461Y-141685564D01*
X163085374Y-141295634D01*
X165400795Y-143611054D01*
X165212200Y-143688980D01*
X164611091Y-144289041D01*
X164285372Y-145073459D01*
X164284630Y-145922815D01*
X164608980Y-146707800D01*
X165209041Y-147308909D01*
X165993459Y-147634628D01*
X166842815Y-147635370D01*
X167627800Y-147311020D01*
X168228909Y-146710959D01*
X168554628Y-145926541D01*
X168555370Y-145077185D01*
X168231020Y-144292200D01*
X167630959Y-143691091D01*
X167375464Y-143585000D01*
X169513587Y-143585000D01*
X169401843Y-143752235D01*
X169352560Y-144000000D01*
X169352560Y-147000000D01*
X169401843Y-147247765D01*
X169542191Y-147457809D01*
X169752235Y-147598157D01*
X170000000Y-147647440D01*
X173000000Y-147647440D01*
X173247765Y-147598157D01*
X173457809Y-147457809D01*
X173598157Y-147247765D01*
X173644661Y-147013970D01*
X177085635Y-147013970D01*
X177245418Y-147332739D01*
X178036187Y-147642723D01*
X178885387Y-147626497D01*
X179594582Y-147332739D01*
X179754365Y-147013970D01*
X178420000Y-145679605D01*
X177085635Y-147013970D01*
X173644661Y-147013970D01*
X173647440Y-147000000D01*
X173647440Y-145116187D01*
X176277277Y-145116187D01*
X176293503Y-145965387D01*
X176587261Y-146674582D01*
X176906030Y-146834365D01*
X178240395Y-145500000D01*
X178599605Y-145500000D01*
X179933970Y-146834365D01*
X180252739Y-146674582D01*
X180562723Y-145883813D01*
X180546497Y-145034613D01*
X180252739Y-144325418D01*
X179933970Y-144165635D01*
X178599605Y-145500000D01*
X178240395Y-145500000D01*
X176906030Y-144165635D01*
X176587261Y-144325418D01*
X176277277Y-145116187D01*
X173647440Y-145116187D01*
X173647440Y-144000000D01*
X173644662Y-143986030D01*
X177085635Y-143986030D01*
X178420000Y-145320395D01*
X179754365Y-143986030D01*
X179594582Y-143667261D01*
X178803813Y-143357277D01*
X177954613Y-143373503D01*
X177245418Y-143667261D01*
X177085635Y-143986030D01*
X173644662Y-143986030D01*
X173598157Y-143752235D01*
X173457809Y-143542191D01*
X173247765Y-143401843D01*
X173000000Y-143352560D01*
X172355673Y-143352560D01*
X172317633Y-143161326D01*
X172317633Y-143161325D01*
X172125790Y-142874210D01*
X172125787Y-142874208D01*
X171825865Y-142574285D01*
X173564760Y-142574285D01*
X173775169Y-143083515D01*
X174164436Y-143473461D01*
X174673298Y-143684759D01*
X175224285Y-143685240D01*
X175733515Y-143474831D01*
X176023852Y-143185000D01*
X181933420Y-143185000D01*
X182100980Y-143352560D01*
X182000000Y-143352560D01*
X181752235Y-143401843D01*
X181542191Y-143542191D01*
X181401843Y-143752235D01*
X181352560Y-144000000D01*
X181352560Y-147000000D01*
X181401843Y-147247765D01*
X181542191Y-147457809D01*
X181752235Y-147598157D01*
X182000000Y-147647440D01*
X185000000Y-147647440D01*
X185247765Y-147598157D01*
X185457809Y-147457809D01*
X185598157Y-147247765D01*
X185647440Y-147000000D01*
X185647440Y-145308026D01*
X189003079Y-145308026D01*
X189373004Y-146203314D01*
X190057383Y-146888888D01*
X190952024Y-147260376D01*
X191920726Y-147261221D01*
X192816014Y-146891296D01*
X193501588Y-146206917D01*
X193873076Y-145312276D01*
X193873921Y-144343574D01*
X193503996Y-143448286D01*
X192819617Y-142762712D01*
X191924976Y-142391224D01*
X190956274Y-142390379D01*
X190060986Y-142760304D01*
X189375412Y-143444683D01*
X189003924Y-144339324D01*
X189003079Y-145308026D01*
X185647440Y-145308026D01*
X185647440Y-144000000D01*
X185598157Y-143752235D01*
X185457809Y-143542191D01*
X185247765Y-143401843D01*
X185000000Y-143352560D01*
X184355673Y-143352560D01*
X184317633Y-143161325D01*
X184235681Y-143038675D01*
X184125790Y-142874210D01*
X184125787Y-142874208D01*
X182925790Y-141674210D01*
X182924669Y-141673461D01*
X182638675Y-141482367D01*
X182582484Y-141471190D01*
X182300000Y-141414999D01*
X182299995Y-141415000D01*
X176023523Y-141415000D01*
X175735564Y-141126539D01*
X175226702Y-140915241D01*
X174675715Y-140914760D01*
X174166485Y-141125169D01*
X173776539Y-141514436D01*
X173565241Y-142023298D01*
X173564760Y-142574285D01*
X171825865Y-142574285D01*
X171325790Y-142074210D01*
X171324669Y-142073461D01*
X171038675Y-141882367D01*
X170982484Y-141871190D01*
X170700000Y-141814999D01*
X170699995Y-141815000D01*
X167666579Y-141815000D01*
X165558241Y-139706661D01*
X172522758Y-139706661D01*
X172734990Y-140220303D01*
X173127630Y-140613629D01*
X173640900Y-140826757D01*
X174196661Y-140827242D01*
X174710303Y-140615010D01*
X174915457Y-140410213D01*
X175659392Y-140410213D01*
X175728857Y-140652397D01*
X176252302Y-140839144D01*
X176807368Y-140811362D01*
X177191143Y-140652397D01*
X177260608Y-140410213D01*
X176460000Y-139609605D01*
X175659392Y-140410213D01*
X174915457Y-140410213D01*
X175103629Y-140222370D01*
X175183395Y-140030273D01*
X175237603Y-140161143D01*
X175479787Y-140230608D01*
X176280395Y-139430000D01*
X175479787Y-138629392D01*
X175237603Y-138698857D01*
X175187491Y-138839318D01*
X175105010Y-138639697D01*
X174712370Y-138246371D01*
X174199100Y-138033243D01*
X173643339Y-138032758D01*
X173129697Y-138244990D01*
X172736371Y-138637630D01*
X172523243Y-139150900D01*
X172522758Y-139706661D01*
X165558241Y-139706661D01*
X160309995Y-134458415D01*
X160548465Y-134359881D01*
X160938411Y-133970614D01*
X161149709Y-133461752D01*
X161150190Y-132910765D01*
X160939781Y-132401535D01*
X160646674Y-132107917D01*
X160591521Y-131830648D01*
X160582583Y-131785715D01*
X160390740Y-131498600D01*
X160390737Y-131498598D01*
X159834999Y-130942859D01*
X159834999Y-127174285D01*
X161714760Y-127174285D01*
X161925169Y-127683515D01*
X162215000Y-127973852D01*
X162215000Y-132076477D01*
X161926539Y-132364436D01*
X161715241Y-132873298D01*
X161714760Y-133424285D01*
X161925169Y-133933515D01*
X162314436Y-134323461D01*
X162823298Y-134534759D01*
X163374285Y-134535240D01*
X163883515Y-134324831D01*
X164273461Y-133935564D01*
X164484759Y-133426702D01*
X164485240Y-132875715D01*
X164274831Y-132366485D01*
X163985000Y-132076148D01*
X163985000Y-127973523D01*
X164273461Y-127685564D01*
X164484759Y-127176702D01*
X164485240Y-126625715D01*
X164274831Y-126116485D01*
X163885564Y-125726539D01*
X163376702Y-125515241D01*
X162825715Y-125514760D01*
X162316485Y-125725169D01*
X161926539Y-126114436D01*
X161715241Y-126623298D01*
X161714760Y-127174285D01*
X159834999Y-127174285D01*
X159834999Y-123724285D01*
X161514760Y-123724285D01*
X161725169Y-124233515D01*
X162114436Y-124623461D01*
X162623298Y-124834759D01*
X163033537Y-124835117D01*
X176240651Y-138042230D01*
X176112632Y-138048638D01*
X175728857Y-138207603D01*
X175659392Y-138449787D01*
X176460000Y-139250395D01*
X176474143Y-139236253D01*
X176653748Y-139415858D01*
X176639605Y-139430000D01*
X177440213Y-140230608D01*
X177682397Y-140161143D01*
X177732509Y-140020682D01*
X177814990Y-140220303D01*
X178207630Y-140613629D01*
X178720900Y-140826757D01*
X179276661Y-140827242D01*
X179790303Y-140615010D01*
X180183629Y-140222370D01*
X180269949Y-140014488D01*
X180354990Y-140220303D01*
X180747630Y-140613629D01*
X181260900Y-140826757D01*
X181816661Y-140827242D01*
X182330303Y-140615010D01*
X182723629Y-140222370D01*
X182809949Y-140014488D01*
X182894990Y-140220303D01*
X183287630Y-140613629D01*
X183800900Y-140826757D01*
X184356661Y-140827242D01*
X184870303Y-140615010D01*
X185263629Y-140222370D01*
X185476757Y-139709100D01*
X185477242Y-139153339D01*
X185265010Y-138639697D01*
X184872370Y-138246371D01*
X184359100Y-138033243D01*
X183803339Y-138032758D01*
X183289697Y-138244990D01*
X182896371Y-138637630D01*
X182810051Y-138845512D01*
X182725010Y-138639697D01*
X182332370Y-138246371D01*
X181819100Y-138033243D01*
X181263339Y-138032758D01*
X180749697Y-138244990D01*
X180356371Y-138637630D01*
X180270051Y-138845512D01*
X180185010Y-138639697D01*
X179792370Y-138246371D01*
X179279100Y-138033243D01*
X178734347Y-138032768D01*
X164284884Y-123583304D01*
X164285240Y-123175715D01*
X164074831Y-122666485D01*
X163685564Y-122276539D01*
X163176702Y-122065241D01*
X162625715Y-122064760D01*
X162116485Y-122275169D01*
X161726539Y-122664436D01*
X161515241Y-123173298D01*
X161514760Y-123724285D01*
X159834999Y-123724285D01*
X159834999Y-122694579D01*
X161244567Y-121285010D01*
X167199985Y-121285010D01*
X167199990Y-121285011D01*
X167501679Y-121225000D01*
X167538665Y-121217643D01*
X167825780Y-121025800D01*
X172523210Y-116328369D01*
X172522758Y-116846661D01*
X172734990Y-117360303D01*
X173127630Y-117753629D01*
X173640900Y-117966757D01*
X174196661Y-117967242D01*
X174710303Y-117755010D01*
X175103629Y-117362370D01*
X175189949Y-117154488D01*
X175274990Y-117360303D01*
X175667630Y-117753629D01*
X176180900Y-117966757D01*
X176736661Y-117967242D01*
X177250303Y-117755010D01*
X177643629Y-117362370D01*
X177729949Y-117154488D01*
X177814990Y-117360303D01*
X178207630Y-117753629D01*
X178720900Y-117966757D01*
X179276661Y-117967242D01*
X179790303Y-117755010D01*
X180183629Y-117362370D01*
X180269949Y-117154488D01*
X180354990Y-117360303D01*
X180747630Y-117753629D01*
X181260900Y-117966757D01*
X181816661Y-117967242D01*
X182330303Y-117755010D01*
X182723629Y-117362370D01*
X182809949Y-117154488D01*
X182894990Y-117360303D01*
X183287630Y-117753629D01*
X183800900Y-117966757D01*
X184356661Y-117967242D01*
X184870303Y-117755010D01*
X185263629Y-117362370D01*
X185476757Y-116849100D01*
X185477242Y-116293339D01*
X185265010Y-115779697D01*
X184965000Y-115479163D01*
X184965000Y-115380000D01*
X184897633Y-115041325D01*
X184705790Y-114754210D01*
X184705787Y-114754208D01*
X182934884Y-112983304D01*
X182935240Y-112575715D01*
X182839209Y-112343301D01*
X195783100Y-125287192D01*
X195783100Y-149180000D01*
X101191100Y-149180000D01*
X101191100Y-145922815D01*
X113204630Y-145922815D01*
X113528980Y-146707800D01*
X114129041Y-147308909D01*
X114913459Y-147634628D01*
X115762815Y-147635370D01*
X116547800Y-147311020D01*
X117148909Y-146710959D01*
X117284259Y-146385000D01*
X118475601Y-146385000D01*
X118608980Y-146707800D01*
X119209041Y-147308909D01*
X119993459Y-147634628D01*
X120842815Y-147635370D01*
X121627800Y-147311020D01*
X122228909Y-146710959D01*
X122364259Y-146385000D01*
X123352560Y-146385000D01*
X123352560Y-147000000D01*
X123401843Y-147247765D01*
X123542191Y-147457809D01*
X123752235Y-147598157D01*
X124000000Y-147647440D01*
X127000000Y-147647440D01*
X127247765Y-147598157D01*
X127457809Y-147457809D01*
X127598157Y-147247765D01*
X127647440Y-147000000D01*
X127647440Y-144000000D01*
X127598157Y-143752235D01*
X127457809Y-143542191D01*
X127247765Y-143401843D01*
X127000000Y-143352560D01*
X124000000Y-143352560D01*
X123752235Y-143401843D01*
X123542191Y-143542191D01*
X123401843Y-143752235D01*
X123352560Y-144000000D01*
X123352560Y-144615000D01*
X122364399Y-144615000D01*
X122231020Y-144292200D01*
X121630959Y-143691091D01*
X120846541Y-143365372D01*
X119997185Y-143364630D01*
X119212200Y-143688980D01*
X118611091Y-144289041D01*
X118475741Y-144615000D01*
X117284399Y-144615000D01*
X117151020Y-144292200D01*
X116550959Y-143691091D01*
X116225000Y-143555741D01*
X116225000Y-141583505D01*
X116523461Y-141285564D01*
X116734759Y-140776702D01*
X116735240Y-140225715D01*
X116524831Y-139716485D01*
X116135564Y-139326539D01*
X115626702Y-139115241D01*
X115075715Y-139114760D01*
X114566485Y-139325169D01*
X114176539Y-139714436D01*
X113965241Y-140223298D01*
X113964760Y-140774285D01*
X114175169Y-141283515D01*
X114455000Y-141563834D01*
X114455000Y-143555601D01*
X114132200Y-143688980D01*
X113531091Y-144289041D01*
X113205372Y-145073459D01*
X113204630Y-145922815D01*
X101191100Y-145922815D01*
X101191100Y-142768026D01*
X103151079Y-142768026D01*
X103521004Y-143663314D01*
X104205383Y-144348888D01*
X105100024Y-144720376D01*
X106068726Y-144721221D01*
X106964014Y-144351296D01*
X107649588Y-143666917D01*
X108021076Y-142772276D01*
X108021921Y-141803574D01*
X107651996Y-140908286D01*
X106967617Y-140222712D01*
X106072976Y-139851224D01*
X105104274Y-139850379D01*
X104208986Y-140220304D01*
X103523412Y-140904683D01*
X103151924Y-141799324D01*
X103151079Y-142768026D01*
X101191100Y-142768026D01*
X101191100Y-100930102D01*
X104177356Y-100930102D01*
X104205138Y-101485168D01*
X104364103Y-101868943D01*
X104606287Y-101938408D01*
X105406895Y-101137800D01*
X105766105Y-101137800D01*
X106566713Y-101938408D01*
X106808897Y-101868943D01*
X106852953Y-101745456D01*
X106904103Y-101868943D01*
X107146287Y-101938408D01*
X107946895Y-101137800D01*
X107146287Y-100337192D01*
X106904103Y-100406657D01*
X106860047Y-100530144D01*
X106808897Y-100406657D01*
X106566713Y-100337192D01*
X105766105Y-101137800D01*
X105406895Y-101137800D01*
X104606287Y-100337192D01*
X104364103Y-100406657D01*
X104177356Y-100930102D01*
X101191100Y-100930102D01*
X101191100Y-99578013D01*
X104785892Y-99578013D01*
X104855357Y-99820197D01*
X104978844Y-99864253D01*
X104855357Y-99915403D01*
X104785892Y-100157587D01*
X105586500Y-100958195D01*
X106387108Y-100157587D01*
X106317643Y-99915403D01*
X106194156Y-99871347D01*
X106317643Y-99820197D01*
X106387108Y-99578013D01*
X105586500Y-98777405D01*
X104785892Y-99578013D01*
X101191100Y-99578013D01*
X101191100Y-98390102D01*
X104177356Y-98390102D01*
X104205138Y-98945168D01*
X104364103Y-99328943D01*
X104606287Y-99398408D01*
X105406895Y-98597800D01*
X104606287Y-97797192D01*
X104364103Y-97866657D01*
X104177356Y-98390102D01*
X101191100Y-98390102D01*
X101191100Y-73474461D01*
X104189258Y-73474461D01*
X104401490Y-73988103D01*
X104794130Y-74381429D01*
X105002012Y-74467749D01*
X104796197Y-74552790D01*
X104402871Y-74945430D01*
X104189743Y-75458700D01*
X104189258Y-76014461D01*
X104401490Y-76528103D01*
X104794130Y-76921429D01*
X105002012Y-77007749D01*
X104796197Y-77092790D01*
X104402871Y-77485430D01*
X104189743Y-77998700D01*
X104189258Y-78554461D01*
X104401490Y-79068103D01*
X104794130Y-79461429D01*
X105002012Y-79547749D01*
X104796197Y-79632790D01*
X104402871Y-80025430D01*
X104189743Y-80538700D01*
X104189258Y-81094461D01*
X104401490Y-81608103D01*
X104794130Y-82001429D01*
X105002012Y-82087749D01*
X104796197Y-82172790D01*
X104402871Y-82565430D01*
X104189743Y-83078700D01*
X104189258Y-83634461D01*
X104401490Y-84148103D01*
X104794130Y-84541429D01*
X105002012Y-84627749D01*
X104796197Y-84712790D01*
X104402871Y-85105430D01*
X104189743Y-85618700D01*
X104189258Y-86174461D01*
X104401490Y-86688103D01*
X104794130Y-87081429D01*
X105002012Y-87167749D01*
X104796197Y-87252790D01*
X104402871Y-87645430D01*
X104189743Y-88158700D01*
X104189258Y-88714461D01*
X104401490Y-89228103D01*
X104794130Y-89621429D01*
X105002012Y-89707749D01*
X104796197Y-89792790D01*
X104402871Y-90185430D01*
X104189743Y-90698700D01*
X104189258Y-91254461D01*
X104401490Y-91768103D01*
X104794130Y-92161429D01*
X105002012Y-92247749D01*
X104796197Y-92332790D01*
X104402871Y-92725430D01*
X104189743Y-93238700D01*
X104189258Y-93794461D01*
X104401490Y-94308103D01*
X104794130Y-94701429D01*
X105002012Y-94787749D01*
X104796197Y-94872790D01*
X104402871Y-95265430D01*
X104189743Y-95778700D01*
X104189258Y-96334461D01*
X104401490Y-96848103D01*
X104794130Y-97241429D01*
X104986227Y-97321195D01*
X104855357Y-97375403D01*
X104785892Y-97617587D01*
X105586500Y-98418195D01*
X106387108Y-97617587D01*
X106317643Y-97375403D01*
X106177182Y-97325291D01*
X106376803Y-97242810D01*
X106770129Y-96850170D01*
X106856449Y-96642288D01*
X106941490Y-96848103D01*
X107334130Y-97241429D01*
X107542012Y-97327749D01*
X107336197Y-97412790D01*
X106942871Y-97805430D01*
X106863105Y-97997527D01*
X106808897Y-97866657D01*
X106566713Y-97797192D01*
X105766105Y-98597800D01*
X106566713Y-99398408D01*
X106808897Y-99328943D01*
X106859009Y-99188482D01*
X106941490Y-99388103D01*
X107334130Y-99781429D01*
X107526227Y-99861195D01*
X107395357Y-99915403D01*
X107325892Y-100157587D01*
X108126500Y-100958195D01*
X108927108Y-100157587D01*
X108857643Y-99915403D01*
X108717182Y-99865291D01*
X108916803Y-99782810D01*
X109310129Y-99390170D01*
X109396449Y-99182288D01*
X109481490Y-99388103D01*
X109874130Y-99781429D01*
X110082012Y-99867749D01*
X109876197Y-99952790D01*
X109482871Y-100345430D01*
X109403105Y-100537527D01*
X109348897Y-100406657D01*
X109106713Y-100337192D01*
X108306105Y-101137800D01*
X109106713Y-101938408D01*
X109348897Y-101868943D01*
X109399009Y-101728482D01*
X109481490Y-101928103D01*
X109874130Y-102321429D01*
X110082012Y-102407749D01*
X109876197Y-102492790D01*
X109482871Y-102885430D01*
X109396551Y-103093312D01*
X109311510Y-102887497D01*
X108918870Y-102494171D01*
X108726773Y-102414405D01*
X108857643Y-102360197D01*
X108927108Y-102118013D01*
X108126500Y-101317405D01*
X107325892Y-102118013D01*
X107395357Y-102360197D01*
X107535818Y-102410309D01*
X107336197Y-102492790D01*
X107035663Y-102792800D01*
X106676978Y-102792800D01*
X106378870Y-102494171D01*
X106186773Y-102414405D01*
X106317643Y-102360197D01*
X106387108Y-102118013D01*
X105586500Y-101317405D01*
X104785892Y-102118013D01*
X104855357Y-102360197D01*
X104995818Y-102410309D01*
X104796197Y-102492790D01*
X104402871Y-102885430D01*
X104189743Y-103398700D01*
X104189258Y-103954461D01*
X104401490Y-104468103D01*
X104794130Y-104861429D01*
X105002012Y-104947749D01*
X104796197Y-105032790D01*
X104402871Y-105425430D01*
X104189743Y-105938700D01*
X104189258Y-106494461D01*
X104401490Y-107008103D01*
X104794130Y-107401429D01*
X105002012Y-107487749D01*
X104796197Y-107572790D01*
X104402871Y-107965430D01*
X104189743Y-108478700D01*
X104189258Y-109034461D01*
X104401490Y-109548103D01*
X104794130Y-109941429D01*
X105002012Y-110027749D01*
X104796197Y-110112790D01*
X104402871Y-110505430D01*
X104189743Y-111018700D01*
X104189258Y-111574461D01*
X104401490Y-112088103D01*
X104794130Y-112481429D01*
X105002012Y-112567749D01*
X104796197Y-112652790D01*
X104402871Y-113045430D01*
X104189743Y-113558700D01*
X104189258Y-114114461D01*
X104401490Y-114628103D01*
X104794130Y-115021429D01*
X105002012Y-115107749D01*
X104796197Y-115192790D01*
X104402871Y-115585430D01*
X104189743Y-116098700D01*
X104189258Y-116654461D01*
X104401490Y-117168103D01*
X104794130Y-117561429D01*
X105002012Y-117647749D01*
X104796197Y-117732790D01*
X104402871Y-118125430D01*
X104189743Y-118638700D01*
X104189258Y-119194461D01*
X104401490Y-119708103D01*
X104794130Y-120101429D01*
X105002012Y-120187749D01*
X104796197Y-120272790D01*
X104402871Y-120665430D01*
X104189743Y-121178700D01*
X104189258Y-121734461D01*
X104401490Y-122248103D01*
X104794130Y-122641429D01*
X105002012Y-122727749D01*
X104796197Y-122812790D01*
X104402871Y-123205430D01*
X104189743Y-123718700D01*
X104189258Y-124274461D01*
X104401490Y-124788103D01*
X104794130Y-125181429D01*
X105002012Y-125267749D01*
X104796197Y-125352790D01*
X104402871Y-125745430D01*
X104189743Y-126258700D01*
X104189258Y-126814461D01*
X104401490Y-127328103D01*
X104794130Y-127721429D01*
X105002012Y-127807749D01*
X104796197Y-127892790D01*
X104402871Y-128285430D01*
X104189743Y-128798700D01*
X104189258Y-129354461D01*
X104401490Y-129868103D01*
X104794130Y-130261429D01*
X105002012Y-130347749D01*
X104796197Y-130432790D01*
X104402871Y-130825430D01*
X104189743Y-131338700D01*
X104189258Y-131894461D01*
X104401490Y-132408103D01*
X104794130Y-132801429D01*
X105002012Y-132887749D01*
X104796197Y-132972790D01*
X104402871Y-133365430D01*
X104189743Y-133878700D01*
X104189258Y-134434461D01*
X104401490Y-134948103D01*
X104794130Y-135341429D01*
X105002012Y-135427749D01*
X104796197Y-135512790D01*
X104402871Y-135905430D01*
X104189743Y-136418700D01*
X104189258Y-136974461D01*
X104401490Y-137488103D01*
X104794130Y-137881429D01*
X105307400Y-138094557D01*
X105863161Y-138095042D01*
X106376803Y-137882810D01*
X106770129Y-137490170D01*
X106856449Y-137282288D01*
X106941490Y-137488103D01*
X107334130Y-137881429D01*
X107847400Y-138094557D01*
X108403161Y-138095042D01*
X108916803Y-137882810D01*
X109310129Y-137490170D01*
X109396449Y-137282288D01*
X109481490Y-137488103D01*
X109874130Y-137881429D01*
X110387400Y-138094557D01*
X110943161Y-138095042D01*
X111456803Y-137882810D01*
X111850129Y-137490170D01*
X111936449Y-137282288D01*
X112021490Y-137488103D01*
X112414130Y-137881429D01*
X112927400Y-138094557D01*
X113483161Y-138095042D01*
X113996803Y-137882810D01*
X114390129Y-137490170D01*
X114603257Y-136976900D01*
X114603742Y-136421139D01*
X114391510Y-135907497D01*
X113998870Y-135514171D01*
X113790988Y-135427851D01*
X113996803Y-135342810D01*
X114390129Y-134950170D01*
X114603257Y-134436900D01*
X114603742Y-133881139D01*
X114391510Y-133367497D01*
X113998870Y-132974171D01*
X113790988Y-132887851D01*
X113996803Y-132802810D01*
X114390129Y-132410170D01*
X114603257Y-131896900D01*
X114603742Y-131341139D01*
X114391510Y-130827497D01*
X113998870Y-130434171D01*
X113790988Y-130347851D01*
X113996803Y-130262810D01*
X114390129Y-129870170D01*
X114603257Y-129356900D01*
X114603742Y-128801139D01*
X114391510Y-128287497D01*
X113998870Y-127894171D01*
X113790988Y-127807851D01*
X113996803Y-127722810D01*
X114390129Y-127330170D01*
X114603257Y-126816900D01*
X114603742Y-126261139D01*
X114391510Y-125747497D01*
X113998870Y-125354171D01*
X113790988Y-125267851D01*
X113996803Y-125182810D01*
X114390129Y-124790170D01*
X114459833Y-124622302D01*
X116970856Y-124622302D01*
X116998638Y-125177368D01*
X117157603Y-125561143D01*
X117399787Y-125630608D01*
X118200395Y-124830000D01*
X117399787Y-124029392D01*
X117157603Y-124098857D01*
X116970856Y-124622302D01*
X114459833Y-124622302D01*
X114603257Y-124276900D01*
X114603742Y-123721139D01*
X114391510Y-123207497D01*
X113998870Y-122814171D01*
X113790988Y-122727851D01*
X113996803Y-122642810D01*
X114390129Y-122250170D01*
X114603257Y-121736900D01*
X114603742Y-121181139D01*
X114391510Y-120667497D01*
X113998870Y-120274171D01*
X113790988Y-120187851D01*
X113996803Y-120102810D01*
X114390129Y-119710170D01*
X114603257Y-119196900D01*
X114603742Y-118641139D01*
X114391510Y-118127497D01*
X113998870Y-117734171D01*
X113790988Y-117647851D01*
X113996803Y-117562810D01*
X114390129Y-117170170D01*
X114603257Y-116656900D01*
X114603742Y-116101139D01*
X114391510Y-115587497D01*
X113998870Y-115194171D01*
X113790988Y-115107851D01*
X113996803Y-115022810D01*
X114390129Y-114630170D01*
X114603257Y-114116900D01*
X114603742Y-113561139D01*
X114391510Y-113047497D01*
X113998870Y-112654171D01*
X113790988Y-112567851D01*
X113996803Y-112482810D01*
X114390129Y-112090170D01*
X114603257Y-111576900D01*
X114603742Y-111021139D01*
X114391510Y-110507497D01*
X113998870Y-110114171D01*
X113790988Y-110027851D01*
X113996803Y-109942810D01*
X114390129Y-109550170D01*
X114603257Y-109036900D01*
X114603742Y-108481139D01*
X114391510Y-107967497D01*
X113998870Y-107574171D01*
X113790988Y-107487851D01*
X113996803Y-107402810D01*
X114390129Y-107010170D01*
X114603257Y-106496900D01*
X114603742Y-105941139D01*
X114512051Y-105719229D01*
X114516081Y-105723259D01*
X114756154Y-105883671D01*
X114895355Y-105911360D01*
X114925169Y-105983515D01*
X115314436Y-106373461D01*
X115823298Y-106584759D01*
X116374285Y-106585240D01*
X116883515Y-106374831D01*
X117273461Y-105985564D01*
X117484759Y-105476702D01*
X117485240Y-104925715D01*
X117274831Y-104416485D01*
X116885564Y-104026539D01*
X116376702Y-103815241D01*
X115825715Y-103814760D01*
X115316485Y-104025169D01*
X115073792Y-104267440D01*
X115073325Y-104267128D01*
X114790139Y-104210799D01*
X114497829Y-104210799D01*
X114603257Y-103956900D01*
X114603742Y-103401139D01*
X114391510Y-102887497D01*
X113998870Y-102494171D01*
X113790988Y-102407851D01*
X113996803Y-102322810D01*
X114390129Y-101930170D01*
X114603257Y-101416900D01*
X114603742Y-100861139D01*
X114391510Y-100347497D01*
X113998870Y-99954171D01*
X113790988Y-99867851D01*
X113996803Y-99782810D01*
X114390129Y-99390170D01*
X114603257Y-98876900D01*
X114603742Y-98321139D01*
X114391510Y-97807497D01*
X113998870Y-97414171D01*
X113790988Y-97327851D01*
X113996803Y-97242810D01*
X114390129Y-96850170D01*
X114603257Y-96336900D01*
X114603742Y-95781139D01*
X114452202Y-95414383D01*
X128264769Y-95414383D01*
X128467582Y-95905229D01*
X128842796Y-96281098D01*
X129333287Y-96484768D01*
X129864383Y-96485231D01*
X130355229Y-96282418D01*
X130731098Y-95907204D01*
X130934768Y-95416713D01*
X130934770Y-95414383D01*
X130964769Y-95414383D01*
X131167582Y-95905229D01*
X131542796Y-96281098D01*
X132033287Y-96484768D01*
X132564383Y-96485231D01*
X133055229Y-96282418D01*
X133431098Y-95907204D01*
X133634768Y-95416713D01*
X133634770Y-95414383D01*
X133714769Y-95414383D01*
X133917582Y-95905229D01*
X134292796Y-96281098D01*
X134783287Y-96484768D01*
X135314383Y-96485231D01*
X135805229Y-96282418D01*
X136181098Y-95907204D01*
X136384768Y-95416713D01*
X136385231Y-94885617D01*
X136182418Y-94394771D01*
X135807204Y-94018902D01*
X135316713Y-93815232D01*
X134785617Y-93814769D01*
X134294771Y-94017582D01*
X133918902Y-94392796D01*
X133715232Y-94883287D01*
X133714769Y-95414383D01*
X133634770Y-95414383D01*
X133635231Y-94885617D01*
X133432418Y-94394771D01*
X133057204Y-94018902D01*
X132566713Y-93815232D01*
X132035617Y-93814769D01*
X131544771Y-94017582D01*
X131168902Y-94392796D01*
X130965232Y-94883287D01*
X130964769Y-95414383D01*
X130934770Y-95414383D01*
X130935231Y-94885617D01*
X130732418Y-94394771D01*
X130357204Y-94018902D01*
X129866713Y-93815232D01*
X129335617Y-93814769D01*
X128844771Y-94017582D01*
X128468902Y-94392796D01*
X128265232Y-94883287D01*
X128264769Y-95414383D01*
X114452202Y-95414383D01*
X114391510Y-95267497D01*
X113998870Y-94874171D01*
X113790988Y-94787851D01*
X113996803Y-94702810D01*
X114390129Y-94310170D01*
X114603257Y-93796900D01*
X114603742Y-93241139D01*
X114391510Y-92727497D01*
X113998870Y-92334171D01*
X113790988Y-92247851D01*
X113996803Y-92162810D01*
X114390129Y-91770170D01*
X114603257Y-91256900D01*
X114603742Y-90701139D01*
X114480691Y-90403331D01*
X128307273Y-90403331D01*
X128533236Y-90872663D01*
X128921604Y-91219797D01*
X129266671Y-91362716D01*
X129473000Y-91239374D01*
X129473000Y-90197000D01*
X129727000Y-90197000D01*
X129727000Y-91239374D01*
X129933329Y-91362716D01*
X130278396Y-91219797D01*
X130666764Y-90872663D01*
X130892727Y-90403331D01*
X131007273Y-90403331D01*
X131233236Y-90872663D01*
X131621604Y-91219797D01*
X131966671Y-91362716D01*
X132173000Y-91239374D01*
X132173000Y-90197000D01*
X132427000Y-90197000D01*
X132427000Y-91239374D01*
X132633329Y-91362716D01*
X132978396Y-91219797D01*
X133366764Y-90872663D01*
X133592727Y-90403331D01*
X133757273Y-90403331D01*
X133983236Y-90872663D01*
X134371604Y-91219797D01*
X134716671Y-91362716D01*
X134923000Y-91239374D01*
X134923000Y-90197000D01*
X135177000Y-90197000D01*
X135177000Y-91239374D01*
X135383329Y-91362716D01*
X135728396Y-91219797D01*
X136116764Y-90872663D01*
X136342727Y-90403331D01*
X136220206Y-90197000D01*
X135177000Y-90197000D01*
X134923000Y-90197000D01*
X133879794Y-90197000D01*
X133757273Y-90403331D01*
X133592727Y-90403331D01*
X133470206Y-90197000D01*
X132427000Y-90197000D01*
X132173000Y-90197000D01*
X131129794Y-90197000D01*
X131007273Y-90403331D01*
X130892727Y-90403331D01*
X130770206Y-90197000D01*
X129727000Y-90197000D01*
X129473000Y-90197000D01*
X128429794Y-90197000D01*
X128307273Y-90403331D01*
X114480691Y-90403331D01*
X114391510Y-90187497D01*
X113998870Y-89794171D01*
X113860390Y-89736669D01*
X128307273Y-89736669D01*
X128429794Y-89943000D01*
X129473000Y-89943000D01*
X129473000Y-88900626D01*
X129727000Y-88900626D01*
X129727000Y-89943000D01*
X130770206Y-89943000D01*
X130892727Y-89736669D01*
X131007273Y-89736669D01*
X131129794Y-89943000D01*
X132173000Y-89943000D01*
X132173000Y-88900626D01*
X132427000Y-88900626D01*
X132427000Y-89943000D01*
X133470206Y-89943000D01*
X133592727Y-89736669D01*
X133757273Y-89736669D01*
X133879794Y-89943000D01*
X134923000Y-89943000D01*
X134923000Y-88900626D01*
X135177000Y-88900626D01*
X135177000Y-89943000D01*
X136220206Y-89943000D01*
X136342727Y-89736669D01*
X136116764Y-89267337D01*
X135728396Y-88920203D01*
X135383329Y-88777284D01*
X135177000Y-88900626D01*
X134923000Y-88900626D01*
X134716671Y-88777284D01*
X134371604Y-88920203D01*
X133983236Y-89267337D01*
X133757273Y-89736669D01*
X133592727Y-89736669D01*
X133366764Y-89267337D01*
X132978396Y-88920203D01*
X132633329Y-88777284D01*
X132427000Y-88900626D01*
X132173000Y-88900626D01*
X131966671Y-88777284D01*
X131621604Y-88920203D01*
X131233236Y-89267337D01*
X131007273Y-89736669D01*
X130892727Y-89736669D01*
X130666764Y-89267337D01*
X130278396Y-88920203D01*
X129933329Y-88777284D01*
X129727000Y-88900626D01*
X129473000Y-88900626D01*
X129266671Y-88777284D01*
X128921604Y-88920203D01*
X128533236Y-89267337D01*
X128307273Y-89736669D01*
X113860390Y-89736669D01*
X113790988Y-89707851D01*
X113996803Y-89622810D01*
X114390129Y-89230170D01*
X114603257Y-88716900D01*
X114603742Y-88161139D01*
X114391510Y-87647497D01*
X114129471Y-87385000D01*
X114826477Y-87385000D01*
X115114436Y-87673461D01*
X115623298Y-87884759D01*
X116174285Y-87885240D01*
X116683515Y-87674831D01*
X117073461Y-87285564D01*
X117284759Y-86776702D01*
X117285240Y-86225715D01*
X117074831Y-85716485D01*
X116742165Y-85383239D01*
X116883515Y-85324834D01*
X117273461Y-84935567D01*
X117484759Y-84426705D01*
X117485240Y-83875718D01*
X117274831Y-83366488D01*
X117033732Y-83124969D01*
X117223461Y-82935570D01*
X117434759Y-82426708D01*
X117435240Y-81875721D01*
X117224831Y-81366491D01*
X117058685Y-81200056D01*
X117223461Y-81035567D01*
X117434759Y-80526705D01*
X117435240Y-79975718D01*
X117224831Y-79466488D01*
X117058685Y-79300053D01*
X117223461Y-79135564D01*
X117434759Y-78626702D01*
X117435240Y-78075715D01*
X117224831Y-77566485D01*
X116835564Y-77176539D01*
X116615997Y-77085367D01*
X116883515Y-76974831D01*
X117273461Y-76585564D01*
X117484759Y-76076702D01*
X117485240Y-75525715D01*
X117274831Y-75016485D01*
X116885564Y-74626539D01*
X116847063Y-74610552D01*
X116933515Y-74574831D01*
X117323461Y-74185564D01*
X117534759Y-73676702D01*
X117535240Y-73125715D01*
X117324831Y-72616485D01*
X116935564Y-72226539D01*
X116426702Y-72015241D01*
X115875715Y-72014760D01*
X115366485Y-72225169D01*
X115076148Y-72515000D01*
X114435929Y-72515000D01*
X114391510Y-72407497D01*
X113998870Y-72014171D01*
X113485600Y-71801043D01*
X112929839Y-71800558D01*
X112416197Y-72012790D01*
X112022871Y-72405430D01*
X111936551Y-72613312D01*
X111851510Y-72407497D01*
X111458870Y-72014171D01*
X110945600Y-71801043D01*
X110389839Y-71800558D01*
X109876197Y-72012790D01*
X109482871Y-72405430D01*
X109396551Y-72613312D01*
X109311510Y-72407497D01*
X108918870Y-72014171D01*
X108405600Y-71801043D01*
X107849839Y-71800558D01*
X107336197Y-72012790D01*
X106942871Y-72405430D01*
X106856551Y-72613312D01*
X106771510Y-72407497D01*
X106378870Y-72014171D01*
X105865600Y-71801043D01*
X105309839Y-71800558D01*
X104796197Y-72012790D01*
X104402871Y-72405430D01*
X104189743Y-72918700D01*
X104189258Y-73474461D01*
X101191100Y-73474461D01*
X101191100Y-68092026D01*
X103151079Y-68092026D01*
X103521004Y-68987314D01*
X104205383Y-69672888D01*
X105100024Y-70044376D01*
X106068726Y-70045221D01*
X106964014Y-69675296D01*
X107649588Y-68990917D01*
X108021076Y-68096276D01*
X108021921Y-67127574D01*
X107651996Y-66232286D01*
X106967617Y-65546712D01*
X106072976Y-65175224D01*
X105104274Y-65174379D01*
X104208986Y-65544304D01*
X103523412Y-66228683D01*
X103151924Y-67123324D01*
X103151079Y-68092026D01*
X101191100Y-68092026D01*
X101191100Y-60710400D01*
X118964600Y-60710400D01*
X118814799Y-60859940D01*
G36*
X149589390Y-110522103D02*
X149982030Y-110915429D01*
X150189912Y-111001749D01*
X149984097Y-111086790D01*
X149590771Y-111479430D01*
X149511005Y-111671527D01*
X149456797Y-111540657D01*
X149214613Y-111471192D01*
X148414005Y-112271800D01*
X149214613Y-113072408D01*
X149456797Y-113002943D01*
X149506909Y-112862482D01*
X149589390Y-113062103D01*
X149982030Y-113455429D01*
X150495300Y-113668557D01*
X151051061Y-113669042D01*
X151564703Y-113456810D01*
X151958029Y-113064170D01*
X152044349Y-112856288D01*
X152129390Y-113062103D01*
X152522030Y-113455429D01*
X153035300Y-113668557D01*
X153208662Y-113668708D01*
X153022358Y-113947534D01*
X153016861Y-113975169D01*
X152954990Y-114286209D01*
X152954991Y-114286214D01*
X152954991Y-124343430D01*
X152633304Y-124665116D01*
X152225715Y-124664760D01*
X151716485Y-124875169D01*
X151326539Y-125264436D01*
X151115241Y-125773298D01*
X151114760Y-126324285D01*
X151325169Y-126833515D01*
X151714436Y-127223461D01*
X152223298Y-127434759D01*
X152774285Y-127435240D01*
X153283515Y-127224831D01*
X153673461Y-126835564D01*
X153855000Y-126398370D01*
X153855000Y-128842690D01*
X153725302Y-128929352D01*
X153470000Y-129311438D01*
X153214698Y-128929352D01*
X152749151Y-128618283D01*
X152200000Y-128509050D01*
X151650849Y-128618283D01*
X151185302Y-128929352D01*
X150932493Y-129307707D01*
X150584896Y-128875500D01*
X150091819Y-128605633D01*
X150009039Y-128588096D01*
X149787000Y-128710085D01*
X149787000Y-130253000D01*
X149807000Y-130253000D01*
X149807000Y-130507000D01*
X149787000Y-130507000D01*
X149787000Y-132049915D01*
X150009039Y-132171904D01*
X150091819Y-132154367D01*
X150584896Y-131884500D01*
X150932493Y-131452293D01*
X151185302Y-131830648D01*
X151650849Y-132141717D01*
X152200000Y-132250950D01*
X152382974Y-132214554D01*
X153083421Y-132915000D01*
X147966579Y-132915000D01*
X147247002Y-132195423D01*
X147247002Y-132049916D01*
X147469039Y-132171904D01*
X147551819Y-132154367D01*
X148044896Y-131884500D01*
X148390000Y-131455393D01*
X148735104Y-131884500D01*
X149228181Y-132154367D01*
X149310961Y-132171904D01*
X149533000Y-132049915D01*
X149533000Y-130507000D01*
X147247000Y-130507000D01*
X147247000Y-130527000D01*
X146993000Y-130527000D01*
X146993000Y-130507000D01*
X146973000Y-130507000D01*
X146973000Y-130253000D01*
X146993000Y-130253000D01*
X146993000Y-128710085D01*
X147247000Y-128710085D01*
X147247000Y-130253000D01*
X149533000Y-130253000D01*
X149533000Y-128710085D01*
X149310961Y-128588096D01*
X149228181Y-128605633D01*
X148735104Y-128875500D01*
X148390000Y-129304607D01*
X148044896Y-128875500D01*
X147551819Y-128605633D01*
X147469039Y-128588096D01*
X147247000Y-128710085D01*
X146993000Y-128710085D01*
X146770961Y-128588096D01*
X146688181Y-128605633D01*
X146195104Y-128875500D01*
X145847507Y-129307707D01*
X145594698Y-128929352D01*
X145285663Y-128722861D01*
X145573461Y-128435564D01*
X145784759Y-127926702D01*
X145785240Y-127375715D01*
X145574831Y-126866485D01*
X145185564Y-126476539D01*
X144676702Y-126265241D01*
X144466422Y-126265057D01*
X145005964Y-125725515D01*
X145103740Y-125823461D01*
X145612602Y-126034759D01*
X146163589Y-126035240D01*
X146672819Y-125824831D01*
X147062765Y-125435564D01*
X147274063Y-124926702D01*
X147274544Y-124375715D01*
X147064135Y-123866485D01*
X146674868Y-123476539D01*
X146579400Y-123436897D01*
X146579400Y-119880980D01*
X147815116Y-121116695D01*
X147814760Y-121524285D01*
X148025169Y-122033515D01*
X148414436Y-122423461D01*
X148923298Y-122634759D01*
X149474285Y-122635240D01*
X149983515Y-122424831D01*
X150373461Y-122035564D01*
X150584759Y-121526702D01*
X150585240Y-120975715D01*
X150374831Y-120466485D01*
X149985564Y-120076539D01*
X149476702Y-119865241D01*
X149066462Y-119864883D01*
X147979400Y-118777820D01*
X147979400Y-116723524D01*
X148267861Y-116435565D01*
X148479159Y-115926703D01*
X148479640Y-115375716D01*
X148269231Y-114866486D01*
X147879964Y-114476540D01*
X147371102Y-114265242D01*
X146820115Y-114264761D01*
X146579400Y-114364222D01*
X146579400Y-113362278D01*
X146689857Y-113252013D01*
X147433792Y-113252013D01*
X147503257Y-113494197D01*
X148026702Y-113680944D01*
X148581768Y-113653162D01*
X148965543Y-113494197D01*
X149035008Y-113252013D01*
X148234400Y-112451405D01*
X147433792Y-113252013D01*
X146689857Y-113252013D01*
X146878029Y-113064170D01*
X146957795Y-112872073D01*
X147012003Y-113002943D01*
X147254187Y-113072408D01*
X148054795Y-112271800D01*
X147254187Y-111471192D01*
X147012003Y-111540657D01*
X146961891Y-111681118D01*
X146879410Y-111481497D01*
X146486770Y-111088171D01*
X146278888Y-111001851D01*
X146484703Y-110916810D01*
X146878029Y-110524170D01*
X146964349Y-110316288D01*
X147049390Y-110522103D01*
X147442030Y-110915429D01*
X147634127Y-110995195D01*
X147503257Y-111049403D01*
X147433792Y-111291587D01*
X148234400Y-112092195D01*
X149035008Y-111291587D01*
X148965543Y-111049403D01*
X148825082Y-110999291D01*
X149024703Y-110916810D01*
X149418029Y-110524170D01*
X149504349Y-110316288D01*
X149589390Y-110522103D01*
X149589390Y-110522103D01*
G37*
X149589390Y-110522103D02*
X149982030Y-110915429D01*
X150189912Y-111001749D01*
X149984097Y-111086790D01*
X149590771Y-111479430D01*
X149511005Y-111671527D01*
X149456797Y-111540657D01*
X149214613Y-111471192D01*
X148414005Y-112271800D01*
X149214613Y-113072408D01*
X149456797Y-113002943D01*
X149506909Y-112862482D01*
X149589390Y-113062103D01*
X149982030Y-113455429D01*
X150495300Y-113668557D01*
X151051061Y-113669042D01*
X151564703Y-113456810D01*
X151958029Y-113064170D01*
X152044349Y-112856288D01*
X152129390Y-113062103D01*
X152522030Y-113455429D01*
X153035300Y-113668557D01*
X153208662Y-113668708D01*
X153022358Y-113947534D01*
X153016861Y-113975169D01*
X152954990Y-114286209D01*
X152954991Y-114286214D01*
X152954991Y-124343430D01*
X152633304Y-124665116D01*
X152225715Y-124664760D01*
X151716485Y-124875169D01*
X151326539Y-125264436D01*
X151115241Y-125773298D01*
X151114760Y-126324285D01*
X151325169Y-126833515D01*
X151714436Y-127223461D01*
X152223298Y-127434759D01*
X152774285Y-127435240D01*
X153283515Y-127224831D01*
X153673461Y-126835564D01*
X153855000Y-126398370D01*
X153855000Y-128842690D01*
X153725302Y-128929352D01*
X153470000Y-129311438D01*
X153214698Y-128929352D01*
X152749151Y-128618283D01*
X152200000Y-128509050D01*
X151650849Y-128618283D01*
X151185302Y-128929352D01*
X150932493Y-129307707D01*
X150584896Y-128875500D01*
X150091819Y-128605633D01*
X150009039Y-128588096D01*
X149787000Y-128710085D01*
X149787000Y-130253000D01*
X149807000Y-130253000D01*
X149807000Y-130507000D01*
X149787000Y-130507000D01*
X149787000Y-132049915D01*
X150009039Y-132171904D01*
X150091819Y-132154367D01*
X150584896Y-131884500D01*
X150932493Y-131452293D01*
X151185302Y-131830648D01*
X151650849Y-132141717D01*
X152200000Y-132250950D01*
X152382974Y-132214554D01*
X153083421Y-132915000D01*
X147966579Y-132915000D01*
X147247002Y-132195423D01*
X147247002Y-132049916D01*
X147469039Y-132171904D01*
X147551819Y-132154367D01*
X148044896Y-131884500D01*
X148390000Y-131455393D01*
X148735104Y-131884500D01*
X149228181Y-132154367D01*
X149310961Y-132171904D01*
X149533000Y-132049915D01*
X149533000Y-130507000D01*
X147247000Y-130507000D01*
X147247000Y-130527000D01*
X146993000Y-130527000D01*
X146993000Y-130507000D01*
X146973000Y-130507000D01*
X146973000Y-130253000D01*
X146993000Y-130253000D01*
X146993000Y-128710085D01*
X147247000Y-128710085D01*
X147247000Y-130253000D01*
X149533000Y-130253000D01*
X149533000Y-128710085D01*
X149310961Y-128588096D01*
X149228181Y-128605633D01*
X148735104Y-128875500D01*
X148390000Y-129304607D01*
X148044896Y-128875500D01*
X147551819Y-128605633D01*
X147469039Y-128588096D01*
X147247000Y-128710085D01*
X146993000Y-128710085D01*
X146770961Y-128588096D01*
X146688181Y-128605633D01*
X146195104Y-128875500D01*
X145847507Y-129307707D01*
X145594698Y-128929352D01*
X145285663Y-128722861D01*
X145573461Y-128435564D01*
X145784759Y-127926702D01*
X145785240Y-127375715D01*
X145574831Y-126866485D01*
X145185564Y-126476539D01*
X144676702Y-126265241D01*
X144466422Y-126265057D01*
X145005964Y-125725515D01*
X145103740Y-125823461D01*
X145612602Y-126034759D01*
X146163589Y-126035240D01*
X146672819Y-125824831D01*
X147062765Y-125435564D01*
X147274063Y-124926702D01*
X147274544Y-124375715D01*
X147064135Y-123866485D01*
X146674868Y-123476539D01*
X146579400Y-123436897D01*
X146579400Y-119880980D01*
X147815116Y-121116695D01*
X147814760Y-121524285D01*
X148025169Y-122033515D01*
X148414436Y-122423461D01*
X148923298Y-122634759D01*
X149474285Y-122635240D01*
X149983515Y-122424831D01*
X150373461Y-122035564D01*
X150584759Y-121526702D01*
X150585240Y-120975715D01*
X150374831Y-120466485D01*
X149985564Y-120076539D01*
X149476702Y-119865241D01*
X149066462Y-119864883D01*
X147979400Y-118777820D01*
X147979400Y-116723524D01*
X148267861Y-116435565D01*
X148479159Y-115926703D01*
X148479640Y-115375716D01*
X148269231Y-114866486D01*
X147879964Y-114476540D01*
X147371102Y-114265242D01*
X146820115Y-114264761D01*
X146579400Y-114364222D01*
X146579400Y-113362278D01*
X146689857Y-113252013D01*
X147433792Y-113252013D01*
X147503257Y-113494197D01*
X148026702Y-113680944D01*
X148581768Y-113653162D01*
X148965543Y-113494197D01*
X149035008Y-113252013D01*
X148234400Y-112451405D01*
X147433792Y-113252013D01*
X146689857Y-113252013D01*
X146878029Y-113064170D01*
X146957795Y-112872073D01*
X147012003Y-113002943D01*
X147254187Y-113072408D01*
X148054795Y-112271800D01*
X147254187Y-111471192D01*
X147012003Y-111540657D01*
X146961891Y-111681118D01*
X146879410Y-111481497D01*
X146486770Y-111088171D01*
X146278888Y-111001851D01*
X146484703Y-110916810D01*
X146878029Y-110524170D01*
X146964349Y-110316288D01*
X147049390Y-110522103D01*
X147442030Y-110915429D01*
X147634127Y-110995195D01*
X147503257Y-111049403D01*
X147433792Y-111291587D01*
X148234400Y-112092195D01*
X149035008Y-111291587D01*
X148965543Y-111049403D01*
X148825082Y-110999291D01*
X149024703Y-110916810D01*
X149418029Y-110524170D01*
X149504349Y-110316288D01*
X149589390Y-110522103D01*
G36*
X141969390Y-110522103D02*
X142362030Y-110915429D01*
X142569912Y-111001749D01*
X142364097Y-111086790D01*
X141970771Y-111479430D01*
X141891005Y-111671527D01*
X141836797Y-111540657D01*
X141594613Y-111471192D01*
X140794005Y-112271800D01*
X141594613Y-113072408D01*
X141836797Y-113002943D01*
X141886909Y-112862482D01*
X141969390Y-113062103D01*
X142362030Y-113455429D01*
X142875300Y-113668557D01*
X143115011Y-113668766D01*
X143115011Y-114384600D01*
X143115010Y-114384605D01*
X143171201Y-114667089D01*
X143182378Y-114723280D01*
X143354285Y-114980558D01*
X143374221Y-115010395D01*
X143604304Y-115240478D01*
X143604304Y-124624017D01*
X141723254Y-126505066D01*
X141315665Y-126504710D01*
X140806435Y-126715119D01*
X140416489Y-127104386D01*
X140205191Y-127613248D01*
X140204710Y-128164235D01*
X140213467Y-128185429D01*
X140125790Y-128054210D01*
X140125787Y-128054208D01*
X139495789Y-127424209D01*
X139444591Y-127390000D01*
X139208674Y-127232366D01*
X139152483Y-127221189D01*
X138869999Y-127164998D01*
X138869994Y-127164999D01*
X137644576Y-127164999D01*
X137279871Y-126800294D01*
X137583515Y-126674831D01*
X137863834Y-126395000D01*
X138329522Y-126395000D01*
X138627630Y-126693629D01*
X139140900Y-126906757D01*
X139696661Y-126907242D01*
X140210303Y-126695010D01*
X140603629Y-126302370D01*
X140816757Y-125789100D01*
X140817242Y-125233339D01*
X140605010Y-124719697D01*
X140212370Y-124326371D01*
X140004488Y-124240051D01*
X140210303Y-124155010D01*
X140603629Y-123762370D01*
X140816757Y-123249100D01*
X140817242Y-122693339D01*
X140605010Y-122179697D01*
X140212370Y-121786371D01*
X140020273Y-121706605D01*
X140151143Y-121652397D01*
X140220608Y-121410213D01*
X139420000Y-120609605D01*
X138619392Y-121410213D01*
X138688857Y-121652397D01*
X138829318Y-121702509D01*
X138629697Y-121784990D01*
X138329163Y-122085000D01*
X137743523Y-122085000D01*
X137455564Y-121796539D01*
X136946702Y-121585241D01*
X136395715Y-121584760D01*
X135886485Y-121795169D01*
X135496539Y-122184436D01*
X135353440Y-122529055D01*
X133046688Y-120222302D01*
X138010856Y-120222302D01*
X138038638Y-120777368D01*
X138197603Y-121161143D01*
X138439787Y-121230608D01*
X139240395Y-120430000D01*
X139599605Y-120430000D01*
X140400213Y-121230608D01*
X140642397Y-121161143D01*
X140829144Y-120637698D01*
X140801362Y-120082632D01*
X140642397Y-119698857D01*
X140400213Y-119629392D01*
X139599605Y-120430000D01*
X139240395Y-120430000D01*
X138439787Y-119629392D01*
X138197603Y-119698857D01*
X138010856Y-120222302D01*
X133046688Y-120222302D01*
X131548671Y-118724285D01*
X135064760Y-118724285D01*
X135275169Y-119233515D01*
X135664436Y-119623461D01*
X136173298Y-119834759D01*
X136724285Y-119835240D01*
X137233515Y-119624831D01*
X137523852Y-119335000D01*
X138652316Y-119335000D01*
X138619392Y-119449787D01*
X139420000Y-120250395D01*
X140220608Y-119449787D01*
X140151143Y-119207603D01*
X140010682Y-119157491D01*
X140210303Y-119075010D01*
X140603629Y-118682370D01*
X140816757Y-118169100D01*
X140817242Y-117613339D01*
X140605010Y-117099697D01*
X140212370Y-116706371D01*
X139699100Y-116493243D01*
X139143339Y-116492758D01*
X138629697Y-116704990D01*
X138236371Y-117097630D01*
X138042302Y-117565000D01*
X137523523Y-117565000D01*
X137235564Y-117276539D01*
X136726702Y-117065241D01*
X136175715Y-117064760D01*
X135666485Y-117275169D01*
X135276539Y-117664436D01*
X135065241Y-118173298D01*
X135064760Y-118724285D01*
X131548671Y-118724285D01*
X128799400Y-115975014D01*
X128799400Y-113362278D01*
X128909857Y-113252013D01*
X129653792Y-113252013D01*
X129723257Y-113494197D01*
X130246702Y-113680944D01*
X130801768Y-113653162D01*
X131185543Y-113494197D01*
X131255008Y-113252013D01*
X130454400Y-112451405D01*
X129653792Y-113252013D01*
X128909857Y-113252013D01*
X129098029Y-113064170D01*
X129177795Y-112872073D01*
X129232003Y-113002943D01*
X129474187Y-113072408D01*
X130274795Y-112271800D01*
X129474187Y-111471192D01*
X129232003Y-111540657D01*
X129181891Y-111681118D01*
X129099410Y-111481497D01*
X128706770Y-111088171D01*
X128498888Y-111001851D01*
X128704703Y-110916810D01*
X129098029Y-110524170D01*
X129184349Y-110316288D01*
X129269390Y-110522103D01*
X129662030Y-110915429D01*
X129854127Y-110995195D01*
X129723257Y-111049403D01*
X129653792Y-111291587D01*
X130454400Y-112092195D01*
X131255008Y-111291587D01*
X131185543Y-111049403D01*
X131045082Y-110999291D01*
X131244703Y-110916810D01*
X131638029Y-110524170D01*
X131724349Y-110316288D01*
X131809390Y-110522103D01*
X132202030Y-110915429D01*
X132409912Y-111001749D01*
X132204097Y-111086790D01*
X131810771Y-111479430D01*
X131731005Y-111671527D01*
X131676797Y-111540657D01*
X131434613Y-111471192D01*
X130634005Y-112271800D01*
X131434613Y-113072408D01*
X131676797Y-113002943D01*
X131726909Y-112862482D01*
X131809390Y-113062103D01*
X132109400Y-113362637D01*
X132109400Y-115344395D01*
X132109399Y-115344400D01*
X132157344Y-115585430D01*
X132176767Y-115683075D01*
X132265161Y-115815366D01*
X132264760Y-116274285D01*
X132475169Y-116783515D01*
X132864436Y-117173461D01*
X133373298Y-117384759D01*
X133924285Y-117385240D01*
X134433515Y-117174831D01*
X134823461Y-116785564D01*
X135034759Y-116276702D01*
X135034805Y-116223443D01*
X135423298Y-116384759D01*
X135974285Y-116385240D01*
X136483515Y-116174831D01*
X136873461Y-115785564D01*
X137084759Y-115276702D01*
X137085240Y-114725715D01*
X136874831Y-114216485D01*
X136485564Y-113826539D01*
X136419400Y-113799065D01*
X136419400Y-113362278D01*
X136718029Y-113064170D01*
X136804349Y-112856288D01*
X136889390Y-113062103D01*
X137282030Y-113455429D01*
X137795300Y-113668557D01*
X138219948Y-113668928D01*
X140302688Y-115751667D01*
X140302537Y-115924287D01*
X140512946Y-116433517D01*
X140902213Y-116823463D01*
X141411075Y-117034761D01*
X141962062Y-117035242D01*
X142471292Y-116824833D01*
X142861238Y-116435566D01*
X143072536Y-115926704D01*
X143073017Y-115375717D01*
X142862608Y-114866487D01*
X142473341Y-114476541D01*
X141964479Y-114265243D01*
X141413492Y-114264762D01*
X141346586Y-114292407D01*
X140719469Y-113665289D01*
X140961768Y-113653162D01*
X141345543Y-113494197D01*
X141415008Y-113252013D01*
X140614400Y-112451405D01*
X140600258Y-112465548D01*
X140420653Y-112285943D01*
X140434795Y-112271800D01*
X139634187Y-111471192D01*
X139392003Y-111540657D01*
X139341891Y-111681118D01*
X139259410Y-111481497D01*
X138866770Y-111088171D01*
X138658888Y-111001851D01*
X138864703Y-110916810D01*
X139258029Y-110524170D01*
X139344349Y-110316288D01*
X139429390Y-110522103D01*
X139822030Y-110915429D01*
X140014127Y-110995195D01*
X139883257Y-111049403D01*
X139813792Y-111291587D01*
X140614400Y-112092195D01*
X141415008Y-111291587D01*
X141345543Y-111049403D01*
X141205082Y-110999291D01*
X141404703Y-110916810D01*
X141798029Y-110524170D01*
X141884349Y-110316288D01*
X141969390Y-110522103D01*
X141969390Y-110522103D01*
G37*
X141969390Y-110522103D02*
X142362030Y-110915429D01*
X142569912Y-111001749D01*
X142364097Y-111086790D01*
X141970771Y-111479430D01*
X141891005Y-111671527D01*
X141836797Y-111540657D01*
X141594613Y-111471192D01*
X140794005Y-112271800D01*
X141594613Y-113072408D01*
X141836797Y-113002943D01*
X141886909Y-112862482D01*
X141969390Y-113062103D01*
X142362030Y-113455429D01*
X142875300Y-113668557D01*
X143115011Y-113668766D01*
X143115011Y-114384600D01*
X143115010Y-114384605D01*
X143171201Y-114667089D01*
X143182378Y-114723280D01*
X143354285Y-114980558D01*
X143374221Y-115010395D01*
X143604304Y-115240478D01*
X143604304Y-124624017D01*
X141723254Y-126505066D01*
X141315665Y-126504710D01*
X140806435Y-126715119D01*
X140416489Y-127104386D01*
X140205191Y-127613248D01*
X140204710Y-128164235D01*
X140213467Y-128185429D01*
X140125790Y-128054210D01*
X140125787Y-128054208D01*
X139495789Y-127424209D01*
X139444591Y-127390000D01*
X139208674Y-127232366D01*
X139152483Y-127221189D01*
X138869999Y-127164998D01*
X138869994Y-127164999D01*
X137644576Y-127164999D01*
X137279871Y-126800294D01*
X137583515Y-126674831D01*
X137863834Y-126395000D01*
X138329522Y-126395000D01*
X138627630Y-126693629D01*
X139140900Y-126906757D01*
X139696661Y-126907242D01*
X140210303Y-126695010D01*
X140603629Y-126302370D01*
X140816757Y-125789100D01*
X140817242Y-125233339D01*
X140605010Y-124719697D01*
X140212370Y-124326371D01*
X140004488Y-124240051D01*
X140210303Y-124155010D01*
X140603629Y-123762370D01*
X140816757Y-123249100D01*
X140817242Y-122693339D01*
X140605010Y-122179697D01*
X140212370Y-121786371D01*
X140020273Y-121706605D01*
X140151143Y-121652397D01*
X140220608Y-121410213D01*
X139420000Y-120609605D01*
X138619392Y-121410213D01*
X138688857Y-121652397D01*
X138829318Y-121702509D01*
X138629697Y-121784990D01*
X138329163Y-122085000D01*
X137743523Y-122085000D01*
X137455564Y-121796539D01*
X136946702Y-121585241D01*
X136395715Y-121584760D01*
X135886485Y-121795169D01*
X135496539Y-122184436D01*
X135353440Y-122529055D01*
X133046688Y-120222302D01*
X138010856Y-120222302D01*
X138038638Y-120777368D01*
X138197603Y-121161143D01*
X138439787Y-121230608D01*
X139240395Y-120430000D01*
X139599605Y-120430000D01*
X140400213Y-121230608D01*
X140642397Y-121161143D01*
X140829144Y-120637698D01*
X140801362Y-120082632D01*
X140642397Y-119698857D01*
X140400213Y-119629392D01*
X139599605Y-120430000D01*
X139240395Y-120430000D01*
X138439787Y-119629392D01*
X138197603Y-119698857D01*
X138010856Y-120222302D01*
X133046688Y-120222302D01*
X131548671Y-118724285D01*
X135064760Y-118724285D01*
X135275169Y-119233515D01*
X135664436Y-119623461D01*
X136173298Y-119834759D01*
X136724285Y-119835240D01*
X137233515Y-119624831D01*
X137523852Y-119335000D01*
X138652316Y-119335000D01*
X138619392Y-119449787D01*
X139420000Y-120250395D01*
X140220608Y-119449787D01*
X140151143Y-119207603D01*
X140010682Y-119157491D01*
X140210303Y-119075010D01*
X140603629Y-118682370D01*
X140816757Y-118169100D01*
X140817242Y-117613339D01*
X140605010Y-117099697D01*
X140212370Y-116706371D01*
X139699100Y-116493243D01*
X139143339Y-116492758D01*
X138629697Y-116704990D01*
X138236371Y-117097630D01*
X138042302Y-117565000D01*
X137523523Y-117565000D01*
X137235564Y-117276539D01*
X136726702Y-117065241D01*
X136175715Y-117064760D01*
X135666485Y-117275169D01*
X135276539Y-117664436D01*
X135065241Y-118173298D01*
X135064760Y-118724285D01*
X131548671Y-118724285D01*
X128799400Y-115975014D01*
X128799400Y-113362278D01*
X128909857Y-113252013D01*
X129653792Y-113252013D01*
X129723257Y-113494197D01*
X130246702Y-113680944D01*
X130801768Y-113653162D01*
X131185543Y-113494197D01*
X131255008Y-113252013D01*
X130454400Y-112451405D01*
X129653792Y-113252013D01*
X128909857Y-113252013D01*
X129098029Y-113064170D01*
X129177795Y-112872073D01*
X129232003Y-113002943D01*
X129474187Y-113072408D01*
X130274795Y-112271800D01*
X129474187Y-111471192D01*
X129232003Y-111540657D01*
X129181891Y-111681118D01*
X129099410Y-111481497D01*
X128706770Y-111088171D01*
X128498888Y-111001851D01*
X128704703Y-110916810D01*
X129098029Y-110524170D01*
X129184349Y-110316288D01*
X129269390Y-110522103D01*
X129662030Y-110915429D01*
X129854127Y-110995195D01*
X129723257Y-111049403D01*
X129653792Y-111291587D01*
X130454400Y-112092195D01*
X131255008Y-111291587D01*
X131185543Y-111049403D01*
X131045082Y-110999291D01*
X131244703Y-110916810D01*
X131638029Y-110524170D01*
X131724349Y-110316288D01*
X131809390Y-110522103D01*
X132202030Y-110915429D01*
X132409912Y-111001749D01*
X132204097Y-111086790D01*
X131810771Y-111479430D01*
X131731005Y-111671527D01*
X131676797Y-111540657D01*
X131434613Y-111471192D01*
X130634005Y-112271800D01*
X131434613Y-113072408D01*
X131676797Y-113002943D01*
X131726909Y-112862482D01*
X131809390Y-113062103D01*
X132109400Y-113362637D01*
X132109400Y-115344395D01*
X132109399Y-115344400D01*
X132157344Y-115585430D01*
X132176767Y-115683075D01*
X132265161Y-115815366D01*
X132264760Y-116274285D01*
X132475169Y-116783515D01*
X132864436Y-117173461D01*
X133373298Y-117384759D01*
X133924285Y-117385240D01*
X134433515Y-117174831D01*
X134823461Y-116785564D01*
X135034759Y-116276702D01*
X135034805Y-116223443D01*
X135423298Y-116384759D01*
X135974285Y-116385240D01*
X136483515Y-116174831D01*
X136873461Y-115785564D01*
X137084759Y-115276702D01*
X137085240Y-114725715D01*
X136874831Y-114216485D01*
X136485564Y-113826539D01*
X136419400Y-113799065D01*
X136419400Y-113362278D01*
X136718029Y-113064170D01*
X136804349Y-112856288D01*
X136889390Y-113062103D01*
X137282030Y-113455429D01*
X137795300Y-113668557D01*
X138219948Y-113668928D01*
X140302688Y-115751667D01*
X140302537Y-115924287D01*
X140512946Y-116433517D01*
X140902213Y-116823463D01*
X141411075Y-117034761D01*
X141962062Y-117035242D01*
X142471292Y-116824833D01*
X142861238Y-116435566D01*
X143072536Y-115926704D01*
X143073017Y-115375717D01*
X142862608Y-114866487D01*
X142473341Y-114476541D01*
X141964479Y-114265243D01*
X141413492Y-114264762D01*
X141346586Y-114292407D01*
X140719469Y-113665289D01*
X140961768Y-113653162D01*
X141345543Y-113494197D01*
X141415008Y-113252013D01*
X140614400Y-112451405D01*
X140600258Y-112465548D01*
X140420653Y-112285943D01*
X140434795Y-112271800D01*
X139634187Y-111471192D01*
X139392003Y-111540657D01*
X139341891Y-111681118D01*
X139259410Y-111481497D01*
X138866770Y-111088171D01*
X138658888Y-111001851D01*
X138864703Y-110916810D01*
X139258029Y-110524170D01*
X139344349Y-110316288D01*
X139429390Y-110522103D01*
X139822030Y-110915429D01*
X140014127Y-110995195D01*
X139883257Y-111049403D01*
X139813792Y-111291587D01*
X140614400Y-112092195D01*
X141415008Y-111291587D01*
X141345543Y-111049403D01*
X141205082Y-110999291D01*
X141404703Y-110916810D01*
X141798029Y-110524170D01*
X141884349Y-110316288D01*
X141969390Y-110522103D01*
G36*
X167369390Y-110522103D02*
X167762030Y-110915429D01*
X167969912Y-111001749D01*
X167764097Y-111086790D01*
X167370771Y-111479430D01*
X167291005Y-111671527D01*
X167236797Y-111540657D01*
X166994613Y-111471192D01*
X166194005Y-112271800D01*
X166994613Y-113072408D01*
X167236797Y-113002943D01*
X167286909Y-112862482D01*
X167369390Y-113062103D01*
X167669400Y-113362637D01*
X167669400Y-114529021D01*
X164733420Y-117465000D01*
X158500005Y-117465000D01*
X158500000Y-117464999D01*
X158218254Y-117521043D01*
X158161325Y-117532367D01*
X157874210Y-117724210D01*
X157874208Y-117724213D01*
X154724991Y-120873429D01*
X154724991Y-114652789D01*
X155709106Y-113668674D01*
X156131061Y-113669042D01*
X156644703Y-113456810D01*
X157038029Y-113064170D01*
X157124349Y-112856288D01*
X157209390Y-113062103D01*
X157602030Y-113455429D01*
X158115300Y-113668557D01*
X158671061Y-113669042D01*
X159184703Y-113456810D01*
X159389857Y-113252013D01*
X160133792Y-113252013D01*
X160203257Y-113494197D01*
X160726702Y-113680944D01*
X161281768Y-113653162D01*
X161665543Y-113494197D01*
X161735008Y-113252013D01*
X160934400Y-112451405D01*
X160133792Y-113252013D01*
X159389857Y-113252013D01*
X159578029Y-113064170D01*
X159657795Y-112872073D01*
X159712003Y-113002943D01*
X159954187Y-113072408D01*
X160754795Y-112271800D01*
X159954187Y-111471192D01*
X159712003Y-111540657D01*
X159661891Y-111681118D01*
X159579410Y-111481497D01*
X159186770Y-111088171D01*
X158978888Y-111001851D01*
X159184703Y-110916810D01*
X159578029Y-110524170D01*
X159664349Y-110316288D01*
X159749390Y-110522103D01*
X160142030Y-110915429D01*
X160334127Y-110995195D01*
X160203257Y-111049403D01*
X160133792Y-111291587D01*
X160934400Y-112092195D01*
X161735008Y-111291587D01*
X161665543Y-111049403D01*
X161525082Y-110999291D01*
X161724703Y-110916810D01*
X162118029Y-110524170D01*
X162204349Y-110316288D01*
X162289390Y-110522103D01*
X162682030Y-110915429D01*
X162889912Y-111001749D01*
X162684097Y-111086790D01*
X162290771Y-111479430D01*
X162211005Y-111671527D01*
X162156797Y-111540657D01*
X161914613Y-111471192D01*
X161114005Y-112271800D01*
X161914613Y-113072408D01*
X162156797Y-113002943D01*
X162206909Y-112862482D01*
X162289390Y-113062103D01*
X162682030Y-113455429D01*
X163195300Y-113668557D01*
X163751061Y-113669042D01*
X164264703Y-113456810D01*
X164469857Y-113252013D01*
X165213792Y-113252013D01*
X165283257Y-113494197D01*
X165806702Y-113680944D01*
X166361768Y-113653162D01*
X166745543Y-113494197D01*
X166815008Y-113252013D01*
X166014400Y-112451405D01*
X165213792Y-113252013D01*
X164469857Y-113252013D01*
X164658029Y-113064170D01*
X164737795Y-112872073D01*
X164792003Y-113002943D01*
X165034187Y-113072408D01*
X165834795Y-112271800D01*
X165034187Y-111471192D01*
X164792003Y-111540657D01*
X164741891Y-111681118D01*
X164659410Y-111481497D01*
X164266770Y-111088171D01*
X164058888Y-111001851D01*
X164264703Y-110916810D01*
X164658029Y-110524170D01*
X164744349Y-110316288D01*
X164829390Y-110522103D01*
X165222030Y-110915429D01*
X165414127Y-110995195D01*
X165283257Y-111049403D01*
X165213792Y-111291587D01*
X166014400Y-112092195D01*
X166815008Y-111291587D01*
X166745543Y-111049403D01*
X166605082Y-110999291D01*
X166804703Y-110916810D01*
X167198029Y-110524170D01*
X167284349Y-110316288D01*
X167369390Y-110522103D01*
X167369390Y-110522103D01*
G37*
X167369390Y-110522103D02*
X167762030Y-110915429D01*
X167969912Y-111001749D01*
X167764097Y-111086790D01*
X167370771Y-111479430D01*
X167291005Y-111671527D01*
X167236797Y-111540657D01*
X166994613Y-111471192D01*
X166194005Y-112271800D01*
X166994613Y-113072408D01*
X167236797Y-113002943D01*
X167286909Y-112862482D01*
X167369390Y-113062103D01*
X167669400Y-113362637D01*
X167669400Y-114529021D01*
X164733420Y-117465000D01*
X158500005Y-117465000D01*
X158500000Y-117464999D01*
X158218254Y-117521043D01*
X158161325Y-117532367D01*
X157874210Y-117724210D01*
X157874208Y-117724213D01*
X154724991Y-120873429D01*
X154724991Y-114652789D01*
X155709106Y-113668674D01*
X156131061Y-113669042D01*
X156644703Y-113456810D01*
X157038029Y-113064170D01*
X157124349Y-112856288D01*
X157209390Y-113062103D01*
X157602030Y-113455429D01*
X158115300Y-113668557D01*
X158671061Y-113669042D01*
X159184703Y-113456810D01*
X159389857Y-113252013D01*
X160133792Y-113252013D01*
X160203257Y-113494197D01*
X160726702Y-113680944D01*
X161281768Y-113653162D01*
X161665543Y-113494197D01*
X161735008Y-113252013D01*
X160934400Y-112451405D01*
X160133792Y-113252013D01*
X159389857Y-113252013D01*
X159578029Y-113064170D01*
X159657795Y-112872073D01*
X159712003Y-113002943D01*
X159954187Y-113072408D01*
X160754795Y-112271800D01*
X159954187Y-111471192D01*
X159712003Y-111540657D01*
X159661891Y-111681118D01*
X159579410Y-111481497D01*
X159186770Y-111088171D01*
X158978888Y-111001851D01*
X159184703Y-110916810D01*
X159578029Y-110524170D01*
X159664349Y-110316288D01*
X159749390Y-110522103D01*
X160142030Y-110915429D01*
X160334127Y-110995195D01*
X160203257Y-111049403D01*
X160133792Y-111291587D01*
X160934400Y-112092195D01*
X161735008Y-111291587D01*
X161665543Y-111049403D01*
X161525082Y-110999291D01*
X161724703Y-110916810D01*
X162118029Y-110524170D01*
X162204349Y-110316288D01*
X162289390Y-110522103D01*
X162682030Y-110915429D01*
X162889912Y-111001749D01*
X162684097Y-111086790D01*
X162290771Y-111479430D01*
X162211005Y-111671527D01*
X162156797Y-111540657D01*
X161914613Y-111471192D01*
X161114005Y-112271800D01*
X161914613Y-113072408D01*
X162156797Y-113002943D01*
X162206909Y-112862482D01*
X162289390Y-113062103D01*
X162682030Y-113455429D01*
X163195300Y-113668557D01*
X163751061Y-113669042D01*
X164264703Y-113456810D01*
X164469857Y-113252013D01*
X165213792Y-113252013D01*
X165283257Y-113494197D01*
X165806702Y-113680944D01*
X166361768Y-113653162D01*
X166745543Y-113494197D01*
X166815008Y-113252013D01*
X166014400Y-112451405D01*
X165213792Y-113252013D01*
X164469857Y-113252013D01*
X164658029Y-113064170D01*
X164737795Y-112872073D01*
X164792003Y-113002943D01*
X165034187Y-113072408D01*
X165834795Y-112271800D01*
X165034187Y-111471192D01*
X164792003Y-111540657D01*
X164741891Y-111681118D01*
X164659410Y-111481497D01*
X164266770Y-111088171D01*
X164058888Y-111001851D01*
X164264703Y-110916810D01*
X164658029Y-110524170D01*
X164744349Y-110316288D01*
X164829390Y-110522103D01*
X165222030Y-110915429D01*
X165414127Y-110995195D01*
X165283257Y-111049403D01*
X165213792Y-111291587D01*
X166014400Y-112092195D01*
X166815008Y-111291587D01*
X166745543Y-111049403D01*
X166605082Y-110999291D01*
X166804703Y-110916810D01*
X167198029Y-110524170D01*
X167284349Y-110316288D01*
X167369390Y-110522103D01*
G36*
X132615116Y-105524095D02*
X132614760Y-105931685D01*
X132825169Y-106440915D01*
X133214436Y-106830861D01*
X133723298Y-107042159D01*
X134133537Y-107042517D01*
X135429331Y-108338311D01*
X135187032Y-108350438D01*
X134803257Y-108509403D01*
X134733792Y-108751587D01*
X135534400Y-109552195D01*
X135548543Y-109538053D01*
X135728148Y-109717658D01*
X135714005Y-109731800D01*
X136514613Y-110532408D01*
X136756797Y-110462943D01*
X136806909Y-110322482D01*
X136889390Y-110522103D01*
X137282030Y-110915429D01*
X137489912Y-111001749D01*
X137284097Y-111086790D01*
X136890771Y-111479430D01*
X136804451Y-111687312D01*
X136719410Y-111481497D01*
X136326770Y-111088171D01*
X136134673Y-111008405D01*
X136265543Y-110954197D01*
X136335008Y-110712013D01*
X135534400Y-109911405D01*
X134733792Y-110712013D01*
X134803257Y-110954197D01*
X134943718Y-111004309D01*
X134744097Y-111086790D01*
X134350771Y-111479430D01*
X134264451Y-111687312D01*
X134179410Y-111481497D01*
X133786770Y-111088171D01*
X133578888Y-111001851D01*
X133784703Y-110916810D01*
X134178029Y-110524170D01*
X134257795Y-110332073D01*
X134312003Y-110462943D01*
X134554187Y-110532408D01*
X135354795Y-109731800D01*
X134554187Y-108931192D01*
X134312003Y-109000657D01*
X134261891Y-109141118D01*
X134179410Y-108941497D01*
X133786770Y-108548171D01*
X133273500Y-108335043D01*
X132848852Y-108334672D01*
X130241075Y-105726895D01*
X130301300Y-105581858D01*
X130301781Y-105030871D01*
X130138199Y-104634970D01*
X131725990Y-104634970D01*
X132615116Y-105524095D01*
X132615116Y-105524095D01*
G37*
X132615116Y-105524095D02*
X132614760Y-105931685D01*
X132825169Y-106440915D01*
X133214436Y-106830861D01*
X133723298Y-107042159D01*
X134133537Y-107042517D01*
X135429331Y-108338311D01*
X135187032Y-108350438D01*
X134803257Y-108509403D01*
X134733792Y-108751587D01*
X135534400Y-109552195D01*
X135548543Y-109538053D01*
X135728148Y-109717658D01*
X135714005Y-109731800D01*
X136514613Y-110532408D01*
X136756797Y-110462943D01*
X136806909Y-110322482D01*
X136889390Y-110522103D01*
X137282030Y-110915429D01*
X137489912Y-111001749D01*
X137284097Y-111086790D01*
X136890771Y-111479430D01*
X136804451Y-111687312D01*
X136719410Y-111481497D01*
X136326770Y-111088171D01*
X136134673Y-111008405D01*
X136265543Y-110954197D01*
X136335008Y-110712013D01*
X135534400Y-109911405D01*
X134733792Y-110712013D01*
X134803257Y-110954197D01*
X134943718Y-111004309D01*
X134744097Y-111086790D01*
X134350771Y-111479430D01*
X134264451Y-111687312D01*
X134179410Y-111481497D01*
X133786770Y-111088171D01*
X133578888Y-111001851D01*
X133784703Y-110916810D01*
X134178029Y-110524170D01*
X134257795Y-110332073D01*
X134312003Y-110462943D01*
X134554187Y-110532408D01*
X135354795Y-109731800D01*
X134554187Y-108931192D01*
X134312003Y-109000657D01*
X134261891Y-109141118D01*
X134179410Y-108941497D01*
X133786770Y-108548171D01*
X133273500Y-108335043D01*
X132848852Y-108334672D01*
X130241075Y-105726895D01*
X130301300Y-105581858D01*
X130301781Y-105030871D01*
X130138199Y-104634970D01*
X131725990Y-104634970D01*
X132615116Y-105524095D01*
M02*
