G04 #@! TF.GenerationSoftware,KiCad,Pcbnew,no-vcs-found-0ee38bc~61~ubuntu17.04.1*
G04 #@! TF.CreationDate,2018-06-06T16:24:28-04:00*
G04 #@! TF.ProjectId,Balloon_bus,42616C6C6F6F6E5F6275732E6B696361,rev?*
G04 #@! TF.SameCoordinates,Original*
G04 #@! TF.FileFunction,Legend,Top*
G04 #@! TF.FilePolarity,Positive*
%FSLAX46Y46*%
G04 Gerber Fmt 4.6, Leading zero omitted, Abs format (unit mm)*
G04 Created by KiCad (PCBNEW no-vcs-found-0ee38bc~61~ubuntu17.04.1) date Wed Jun  6 16:24:28 2018*
%MOMM*%
%LPD*%
G01*
G04 APERTURE LIST*
%ADD10C,0.254000*%
%ADD11C,0.203200*%
%ADD12C,0.152400*%
%ADD13C,0.120000*%
%ADD14C,0.150000*%
G04 APERTURE END LIST*
D10*
X109840500Y-71165800D02*
X109840500Y-138729800D01*
X103872500Y-71165800D02*
X109840500Y-71165800D01*
X103872500Y-138729800D02*
X103872500Y-71165800D01*
X109840500Y-138729800D02*
X103872500Y-138729800D01*
X114920500Y-71165800D02*
X114920500Y-138729800D01*
X108952500Y-71165800D02*
X114920500Y-71165800D01*
X108952500Y-138729800D02*
X108952500Y-71165800D01*
X114920500Y-138729800D02*
X108952500Y-138729800D01*
D11*
X107486500Y-67609800D02*
G75*
G03X107486500Y-67609800I-1900000J0D01*
G01*
D12*
X109015500Y-67609800D02*
G75*
G03X109015500Y-67609800I-3429000J0D01*
G01*
D11*
X193338500Y-144825800D02*
G75*
G03X193338500Y-144825800I-1900000J0D01*
G01*
D12*
X194867500Y-144825800D02*
G75*
G03X194867500Y-144825800I-3429000J0D01*
G01*
D11*
X107486500Y-142285800D02*
G75*
G03X107486500Y-142285800I-1900000J0D01*
G01*
D12*
X109015500Y-142285800D02*
G75*
G03X109015500Y-142285800I-3429000J0D01*
G01*
D13*
X138170000Y-133190000D02*
G75*
G02X138170000Y-135190000I0J-1000000D01*
G01*
X138170000Y-135190000D02*
X138170000Y-136440000D01*
X138170000Y-136440000D02*
X158610000Y-136440000D01*
X158610000Y-136440000D02*
X158610000Y-131940000D01*
X158610000Y-131940000D02*
X138170000Y-131940000D01*
X138170000Y-131940000D02*
X138170000Y-133190000D01*
D14*
X163760000Y-140700000D02*
X194240000Y-140700000D01*
X194240000Y-140700000D02*
X194240000Y-115300000D01*
X194240000Y-115300000D02*
X163760000Y-115300000D01*
X163760000Y-140700000D02*
X163760000Y-115300000D01*
X138000000Y-116450000D02*
X138000000Y-126950000D01*
X138000000Y-126950000D02*
X151000000Y-126950000D01*
X151000000Y-126950000D02*
X151000000Y-116450000D01*
X151000000Y-116450000D02*
X138000000Y-116450000D01*
X117110000Y-134510000D02*
X134890000Y-134510000D01*
X117110000Y-117490000D02*
X134890000Y-117490000D01*
X117110000Y-117490000D02*
X117110000Y-134510000D01*
X134890000Y-117490000D02*
X134890000Y-134510000D01*
X117110000Y-123590000D02*
X134890000Y-123590000D01*
D13*
X128680000Y-94530000D02*
X128680000Y-90690000D01*
X130520000Y-94530000D02*
X130520000Y-90690000D01*
X133220000Y-94530000D02*
X133220000Y-90690000D01*
X131380000Y-94530000D02*
X131380000Y-90690000D01*
X134130000Y-94530000D02*
X134130000Y-90690000D01*
X135970000Y-94530000D02*
X135970000Y-90690000D01*
D14*
X136622380Y-134951904D02*
X137431904Y-134951904D01*
X137527142Y-134904285D01*
X137574761Y-134856666D01*
X137622380Y-134761428D01*
X137622380Y-134570952D01*
X137574761Y-134475714D01*
X137527142Y-134428095D01*
X137431904Y-134380476D01*
X136622380Y-134380476D01*
X136955714Y-133475714D02*
X137622380Y-133475714D01*
X136574761Y-133713809D02*
X137289047Y-133951904D01*
X137289047Y-133332857D01*
X161942380Y-128761904D02*
X162751904Y-128761904D01*
X162847142Y-128714285D01*
X162894761Y-128666666D01*
X162942380Y-128571428D01*
X162942380Y-128380952D01*
X162894761Y-128285714D01*
X162847142Y-128238095D01*
X162751904Y-128190476D01*
X161942380Y-128190476D01*
X162942380Y-127190476D02*
X162942380Y-127761904D01*
X162942380Y-127476190D02*
X161942380Y-127476190D01*
X162085238Y-127571428D01*
X162180476Y-127666666D01*
X162228095Y-127761904D01*
X143738095Y-114802380D02*
X143738095Y-115611904D01*
X143785714Y-115707142D01*
X143833333Y-115754761D01*
X143928571Y-115802380D01*
X144119047Y-115802380D01*
X144214285Y-115754761D01*
X144261904Y-115707142D01*
X144309523Y-115611904D01*
X144309523Y-114802380D01*
X144690476Y-114802380D02*
X145309523Y-114802380D01*
X144976190Y-115183333D01*
X145119047Y-115183333D01*
X145214285Y-115230952D01*
X145261904Y-115278571D01*
X145309523Y-115373809D01*
X145309523Y-115611904D01*
X145261904Y-115707142D01*
X145214285Y-115754761D01*
X145119047Y-115802380D01*
X144833333Y-115802380D01*
X144738095Y-115754761D01*
X144690476Y-115707142D01*
X125238095Y-115292380D02*
X125238095Y-116101904D01*
X125285714Y-116197142D01*
X125333333Y-116244761D01*
X125428571Y-116292380D01*
X125619047Y-116292380D01*
X125714285Y-116244761D01*
X125761904Y-116197142D01*
X125809523Y-116101904D01*
X125809523Y-115292380D01*
X126238095Y-115387619D02*
X126285714Y-115340000D01*
X126380952Y-115292380D01*
X126619047Y-115292380D01*
X126714285Y-115340000D01*
X126761904Y-115387619D01*
X126809523Y-115482857D01*
X126809523Y-115578095D01*
X126761904Y-115720952D01*
X126190476Y-116292380D01*
X126809523Y-116292380D01*
X128502380Y-92716666D02*
X128026190Y-93050000D01*
X128502380Y-93288095D02*
X127502380Y-93288095D01*
X127502380Y-92907142D01*
X127550000Y-92811904D01*
X127597619Y-92764285D01*
X127692857Y-92716666D01*
X127835714Y-92716666D01*
X127930952Y-92764285D01*
X127978571Y-92811904D01*
X128026190Y-92907142D01*
X128026190Y-93288095D01*
X128502380Y-91764285D02*
X128502380Y-92335714D01*
X128502380Y-92050000D02*
X127502380Y-92050000D01*
X127645238Y-92145238D01*
X127740476Y-92240476D01*
X127788095Y-92335714D01*
X131252380Y-92776666D02*
X130776190Y-93110000D01*
X131252380Y-93348095D02*
X130252380Y-93348095D01*
X130252380Y-92967142D01*
X130300000Y-92871904D01*
X130347619Y-92824285D01*
X130442857Y-92776666D01*
X130585714Y-92776666D01*
X130680952Y-92824285D01*
X130728571Y-92871904D01*
X130776190Y-92967142D01*
X130776190Y-93348095D01*
X130347619Y-92395714D02*
X130300000Y-92348095D01*
X130252380Y-92252857D01*
X130252380Y-92014761D01*
X130300000Y-91919523D01*
X130347619Y-91871904D01*
X130442857Y-91824285D01*
X130538095Y-91824285D01*
X130680952Y-91871904D01*
X131252380Y-92443333D01*
X131252380Y-91824285D01*
X134052380Y-92776666D02*
X133576190Y-93110000D01*
X134052380Y-93348095D02*
X133052380Y-93348095D01*
X133052380Y-92967142D01*
X133100000Y-92871904D01*
X133147619Y-92824285D01*
X133242857Y-92776666D01*
X133385714Y-92776666D01*
X133480952Y-92824285D01*
X133528571Y-92871904D01*
X133576190Y-92967142D01*
X133576190Y-93348095D01*
X133052380Y-92443333D02*
X133052380Y-91824285D01*
X133433333Y-92157619D01*
X133433333Y-92014761D01*
X133480952Y-91919523D01*
X133528571Y-91871904D01*
X133623809Y-91824285D01*
X133861904Y-91824285D01*
X133957142Y-91871904D01*
X134004761Y-91919523D01*
X134052380Y-92014761D01*
X134052380Y-92300476D01*
X134004761Y-92395714D01*
X133957142Y-92443333D01*
M02*
