G04 #@! TF.GenerationSoftware,KiCad,Pcbnew,5.99.0-unknown-c7daca1~86~ubuntu18.04.1*
G04 #@! TF.CreationDate,2020-03-26T16:36:09-03:00*
G04 #@! TF.ProjectId,DPL,44504c2e-6b69-4636-9164-5f7063625858,rev?*
G04 #@! TF.SameCoordinates,Original*
G04 #@! TF.FileFunction,Paste,Bot*
G04 #@! TF.FilePolarity,Positive*
%FSLAX46Y46*%
G04 Gerber Fmt 4.6, Leading zero omitted, Abs format (unit mm)*
G04 Created by KiCad (PCBNEW 5.99.0-unknown-c7daca1~86~ubuntu18.04.1) date 2020-03-26 16:36:09*
%MOMM*%
%LPD*%
G01*
G04 APERTURE LIST*
%ADD10R,1.400000X1.000000*%
%ADD11R,1.400000X1.200000*%
G04 APERTURE END LIST*
G36*
G01*
X169099999Y-127200000D02*
X170000001Y-127200000D01*
G75*
G02*
X170250000Y-127449999I0J-249999D01*
G01*
X170250000Y-128100001D01*
G75*
G02*
X170000001Y-128350000I-249999J0D01*
G01*
X169099999Y-128350000D01*
G75*
G02*
X168850000Y-128100001I0J249999D01*
G01*
X168850000Y-127449999D01*
G75*
G02*
X169099999Y-127200000I249999J0D01*
G01*
G37*
G36*
G01*
X169099999Y-125150000D02*
X170000001Y-125150000D01*
G75*
G02*
X170250000Y-125399999I0J-249999D01*
G01*
X170250000Y-126050001D01*
G75*
G02*
X170000001Y-126300000I-249999J0D01*
G01*
X169099999Y-126300000D01*
G75*
G02*
X168850000Y-126050001I0J249999D01*
G01*
X168850000Y-125399999D01*
G75*
G02*
X169099999Y-125150000I249999J0D01*
G01*
G37*
G36*
G01*
X112499999Y-128250000D02*
X113400001Y-128250000D01*
G75*
G02*
X113650000Y-128499999I0J-249999D01*
G01*
X113650000Y-129150001D01*
G75*
G02*
X113400001Y-129400000I-249999J0D01*
G01*
X112499999Y-129400000D01*
G75*
G02*
X112250000Y-129150001I0J249999D01*
G01*
X112250000Y-128499999D01*
G75*
G02*
X112499999Y-128250000I249999J0D01*
G01*
G37*
G36*
G01*
X112499999Y-126200000D02*
X113400001Y-126200000D01*
G75*
G02*
X113650000Y-126449999I0J-249999D01*
G01*
X113650000Y-127100001D01*
G75*
G02*
X113400001Y-127350000I-249999J0D01*
G01*
X112499999Y-127350000D01*
G75*
G02*
X112250000Y-127100001I0J249999D01*
G01*
X112250000Y-126449999D01*
G75*
G02*
X112499999Y-126200000I249999J0D01*
G01*
G37*
D10*
X139825000Y-134550000D03*
X139825000Y-136450000D03*
X142025000Y-136450000D03*
D11*
X142025000Y-134730000D03*
M02*
