G04 #@! TF.GenerationSoftware,KiCad,Pcbnew,5.99.0-unknown-c7daca1~86~ubuntu18.04.1*
G04 #@! TF.CreationDate,2020-03-27T23:29:59-03:00*
G04 #@! TF.ProjectId,DPL,44504c2e-6b69-4636-9164-5f7063625858,rev?*
G04 #@! TF.SameCoordinates,Original*
G04 #@! TF.FileFunction,Paste,Top*
G04 #@! TF.FilePolarity,Positive*
%FSLAX46Y46*%
G04 Gerber Fmt 4.6, Leading zero omitted, Abs format (unit mm)*
G04 Created by KiCad (PCBNEW 5.99.0-unknown-c7daca1~86~ubuntu18.04.1) date 2020-03-27 23:29:59*
%MOMM*%
%LPD*%
G01*
G04 APERTURE LIST*
%ADD10R,1.000000X1.900000*%
%ADD11R,1.800000X1.900000*%
%ADD12R,1.650000X1.300000*%
%ADD13R,1.425000X1.550000*%
%ADD14R,0.450000X1.380000*%
%ADD15R,1.750000X1.800000*%
%ADD16R,1.300000X0.900000*%
%ADD17R,1.600000X0.550000*%
%ADD18R,0.550000X1.600000*%
%ADD19R,0.900000X0.800000*%
G04 APERTURE END LIST*
G36*
G01*
X130975000Y-136887500D02*
X130975000Y-136412500D01*
G75*
G02*
X131212500Y-136175000I237500J0D01*
G01*
X131787500Y-136175000D01*
G75*
G02*
X132025000Y-136412500I0J-237500D01*
G01*
X132025000Y-136887500D01*
G75*
G02*
X131787500Y-137125000I-237500J0D01*
G01*
X131212500Y-137125000D01*
G75*
G02*
X130975000Y-136887500I0J237500D01*
G01*
G37*
G36*
G01*
X129225000Y-136887500D02*
X129225000Y-136412500D01*
G75*
G02*
X129462500Y-136175000I237500J0D01*
G01*
X130037500Y-136175000D01*
G75*
G02*
X130275000Y-136412500I0J-237500D01*
G01*
X130275000Y-136887500D01*
G75*
G02*
X130037500Y-137125000I-237500J0D01*
G01*
X129462500Y-137125000D01*
G75*
G02*
X129225000Y-136887500I0J237500D01*
G01*
G37*
G36*
G01*
X131100000Y-123112500D02*
X131100000Y-123587500D01*
G75*
G02*
X130862500Y-123825000I-237500J0D01*
G01*
X130287500Y-123825000D01*
G75*
G02*
X130050000Y-123587500I0J237500D01*
G01*
X130050000Y-123112500D01*
G75*
G02*
X130287500Y-122875000I237500J0D01*
G01*
X130862500Y-122875000D01*
G75*
G02*
X131100000Y-123112500I0J-237500D01*
G01*
G37*
G36*
G01*
X132850000Y-123112500D02*
X132850000Y-123587500D01*
G75*
G02*
X132612500Y-123825000I-237500J0D01*
G01*
X132037500Y-123825000D01*
G75*
G02*
X131800000Y-123587500I0J237500D01*
G01*
X131800000Y-123112500D01*
G75*
G02*
X132037500Y-122875000I237500J0D01*
G01*
X132612500Y-122875000D01*
G75*
G02*
X132850000Y-123112500I0J-237500D01*
G01*
G37*
D10*
X142800000Y-142525000D03*
D11*
X140100000Y-142525000D03*
D12*
X144625000Y-142525000D03*
X137875000Y-142525000D03*
D13*
X143737500Y-139950000D03*
X138762500Y-139950000D03*
D14*
X142550000Y-139865000D03*
X141900000Y-139865000D03*
X141250000Y-139865000D03*
X140600000Y-139865000D03*
X139950000Y-139865000D03*
D15*
X139300000Y-120200000D03*
X142550000Y-120200000D03*
G36*
X127300000Y-135316500D02*
G01*
X124175000Y-135316500D01*
X124175000Y-134900000D01*
X122700000Y-134900000D01*
X122700000Y-134000000D01*
X124175000Y-134000000D01*
X124175000Y-133583500D01*
X127300000Y-133583500D01*
X127300000Y-135316500D01*
G37*
D16*
X123350000Y-135950000D03*
X123350000Y-132950000D03*
D17*
X142775000Y-124150000D03*
X142775000Y-124950000D03*
X142775000Y-125750000D03*
X142775000Y-126550000D03*
X142775000Y-127350000D03*
X142775000Y-128150000D03*
X142775000Y-128950000D03*
X142775000Y-129750000D03*
D18*
X141325000Y-131200000D03*
X140525000Y-131200000D03*
X139725000Y-131200000D03*
X138925000Y-131200000D03*
X138125000Y-131200000D03*
X137325000Y-131200000D03*
X136525000Y-131200000D03*
X135725000Y-131200000D03*
D17*
X134275000Y-129750000D03*
X134275000Y-128950000D03*
X134275000Y-128150000D03*
X134275000Y-127350000D03*
X134275000Y-126550000D03*
X134275000Y-125750000D03*
X134275000Y-124950000D03*
X134275000Y-124150000D03*
D18*
X135725000Y-122700000D03*
X136525000Y-122700000D03*
X137325000Y-122700000D03*
X138125000Y-122700000D03*
X138925000Y-122700000D03*
X139725000Y-122700000D03*
X140525000Y-122700000D03*
X141325000Y-122700000D03*
G36*
G01*
X170350000Y-126237500D02*
X170350000Y-125762500D01*
G75*
G02*
X170587500Y-125525000I237500J0D01*
G01*
X171162500Y-125525000D01*
G75*
G02*
X171400000Y-125762500I0J-237500D01*
G01*
X171400000Y-126237500D01*
G75*
G02*
X171162500Y-126475000I-237500J0D01*
G01*
X170587500Y-126475000D01*
G75*
G02*
X170350000Y-126237500I0J237500D01*
G01*
G37*
G36*
G01*
X168600000Y-126237500D02*
X168600000Y-125762500D01*
G75*
G02*
X168837500Y-125525000I237500J0D01*
G01*
X169412500Y-125525000D01*
G75*
G02*
X169650000Y-125762500I0J-237500D01*
G01*
X169650000Y-126237500D01*
G75*
G02*
X169412500Y-126475000I-237500J0D01*
G01*
X168837500Y-126475000D01*
G75*
G02*
X168600000Y-126237500I0J237500D01*
G01*
G37*
G36*
G01*
X170350000Y-127862500D02*
X170350000Y-127387500D01*
G75*
G02*
X170587500Y-127150000I237500J0D01*
G01*
X171162500Y-127150000D01*
G75*
G02*
X171400000Y-127387500I0J-237500D01*
G01*
X171400000Y-127862500D01*
G75*
G02*
X171162500Y-128100000I-237500J0D01*
G01*
X170587500Y-128100000D01*
G75*
G02*
X170350000Y-127862500I0J237500D01*
G01*
G37*
G36*
G01*
X168600000Y-127862500D02*
X168600000Y-127387500D01*
G75*
G02*
X168837500Y-127150000I237500J0D01*
G01*
X169412500Y-127150000D01*
G75*
G02*
X169650000Y-127387500I0J-237500D01*
G01*
X169650000Y-127862500D01*
G75*
G02*
X169412500Y-128100000I-237500J0D01*
G01*
X168837500Y-128100000D01*
G75*
G02*
X168600000Y-127862500I0J237500D01*
G01*
G37*
G36*
G01*
X170350000Y-129437500D02*
X170350000Y-128962500D01*
G75*
G02*
X170587500Y-128725000I237500J0D01*
G01*
X171162500Y-128725000D01*
G75*
G02*
X171400000Y-128962500I0J-237500D01*
G01*
X171400000Y-129437500D01*
G75*
G02*
X171162500Y-129675000I-237500J0D01*
G01*
X170587500Y-129675000D01*
G75*
G02*
X170350000Y-129437500I0J237500D01*
G01*
G37*
G36*
G01*
X168600000Y-129437500D02*
X168600000Y-128962500D01*
G75*
G02*
X168837500Y-128725000I237500J0D01*
G01*
X169412500Y-128725000D01*
G75*
G02*
X169650000Y-128962500I0J-237500D01*
G01*
X169650000Y-129437500D01*
G75*
G02*
X169412500Y-129675000I-237500J0D01*
G01*
X168837500Y-129675000D01*
G75*
G02*
X168600000Y-129437500I0J237500D01*
G01*
G37*
G36*
G01*
X110212500Y-128300000D02*
X110687500Y-128300000D01*
G75*
G02*
X110925000Y-128537500I0J-237500D01*
G01*
X110925000Y-129112500D01*
G75*
G02*
X110687500Y-129350000I-237500J0D01*
G01*
X110212500Y-129350000D01*
G75*
G02*
X109975000Y-129112500I0J237500D01*
G01*
X109975000Y-128537500D01*
G75*
G02*
X110212500Y-128300000I237500J0D01*
G01*
G37*
G36*
G01*
X110212500Y-126550000D02*
X110687500Y-126550000D01*
G75*
G02*
X110925000Y-126787500I0J-237500D01*
G01*
X110925000Y-127362500D01*
G75*
G02*
X110687500Y-127600000I-237500J0D01*
G01*
X110212500Y-127600000D01*
G75*
G02*
X109975000Y-127362500I0J237500D01*
G01*
X109975000Y-126787500D01*
G75*
G02*
X110212500Y-126550000I237500J0D01*
G01*
G37*
G36*
G01*
X172262500Y-126400000D02*
X172737500Y-126400000D01*
G75*
G02*
X172975000Y-126637500I0J-237500D01*
G01*
X172975000Y-127212500D01*
G75*
G02*
X172737500Y-127450000I-237500J0D01*
G01*
X172262500Y-127450000D01*
G75*
G02*
X172025000Y-127212500I0J237500D01*
G01*
X172025000Y-126637500D01*
G75*
G02*
X172262500Y-126400000I237500J0D01*
G01*
G37*
G36*
G01*
X172262500Y-124650000D02*
X172737500Y-124650000D01*
G75*
G02*
X172975000Y-124887500I0J-237500D01*
G01*
X172975000Y-125462500D01*
G75*
G02*
X172737500Y-125700000I-237500J0D01*
G01*
X172262500Y-125700000D01*
G75*
G02*
X172025000Y-125462500I0J237500D01*
G01*
X172025000Y-124887500D01*
G75*
G02*
X172262500Y-124650000I237500J0D01*
G01*
G37*
G36*
G01*
X144362500Y-132650000D02*
X144837500Y-132650000D01*
G75*
G02*
X145075000Y-132887500I0J-237500D01*
G01*
X145075000Y-133462500D01*
G75*
G02*
X144837500Y-133700000I-237500J0D01*
G01*
X144362500Y-133700000D01*
G75*
G02*
X144125000Y-133462500I0J237500D01*
G01*
X144125000Y-132887500D01*
G75*
G02*
X144362500Y-132650000I237500J0D01*
G01*
G37*
G36*
G01*
X144362500Y-130900000D02*
X144837500Y-130900000D01*
G75*
G02*
X145075000Y-131137500I0J-237500D01*
G01*
X145075000Y-131712500D01*
G75*
G02*
X144837500Y-131950000I-237500J0D01*
G01*
X144362500Y-131950000D01*
G75*
G02*
X144125000Y-131712500I0J237500D01*
G01*
X144125000Y-131137500D01*
G75*
G02*
X144362500Y-130900000I237500J0D01*
G01*
G37*
G36*
G01*
X148237500Y-136600000D02*
X147762500Y-136600000D01*
G75*
G02*
X147525000Y-136362500I0J237500D01*
G01*
X147525000Y-135787500D01*
G75*
G02*
X147762500Y-135550000I237500J0D01*
G01*
X148237500Y-135550000D01*
G75*
G02*
X148475000Y-135787500I0J-237500D01*
G01*
X148475000Y-136362500D01*
G75*
G02*
X148237500Y-136600000I-237500J0D01*
G01*
G37*
G36*
G01*
X148237500Y-138350000D02*
X147762500Y-138350000D01*
G75*
G02*
X147525000Y-138112500I0J237500D01*
G01*
X147525000Y-137537500D01*
G75*
G02*
X147762500Y-137300000I237500J0D01*
G01*
X148237500Y-137300000D01*
G75*
G02*
X148475000Y-137537500I0J-237500D01*
G01*
X148475000Y-138112500D01*
G75*
G02*
X148237500Y-138350000I-237500J0D01*
G01*
G37*
G36*
G01*
X158362500Y-129400000D02*
X158837500Y-129400000D01*
G75*
G02*
X159075000Y-129637500I0J-237500D01*
G01*
X159075000Y-130212500D01*
G75*
G02*
X158837500Y-130450000I-237500J0D01*
G01*
X158362500Y-130450000D01*
G75*
G02*
X158125000Y-130212500I0J237500D01*
G01*
X158125000Y-129637500D01*
G75*
G02*
X158362500Y-129400000I237500J0D01*
G01*
G37*
G36*
G01*
X158362500Y-127650000D02*
X158837500Y-127650000D01*
G75*
G02*
X159075000Y-127887500I0J-237500D01*
G01*
X159075000Y-128462500D01*
G75*
G02*
X158837500Y-128700000I-237500J0D01*
G01*
X158362500Y-128700000D01*
G75*
G02*
X158125000Y-128462500I0J237500D01*
G01*
X158125000Y-127887500D01*
G75*
G02*
X158362500Y-127650000I237500J0D01*
G01*
G37*
G36*
G01*
X154100000Y-133637500D02*
X154100000Y-133162500D01*
G75*
G02*
X154337500Y-132925000I237500J0D01*
G01*
X154912500Y-132925000D01*
G75*
G02*
X155150000Y-133162500I0J-237500D01*
G01*
X155150000Y-133637500D01*
G75*
G02*
X154912500Y-133875000I-237500J0D01*
G01*
X154337500Y-133875000D01*
G75*
G02*
X154100000Y-133637500I0J237500D01*
G01*
G37*
G36*
G01*
X152350000Y-133637500D02*
X152350000Y-133162500D01*
G75*
G02*
X152587500Y-132925000I237500J0D01*
G01*
X153162500Y-132925000D01*
G75*
G02*
X153400000Y-133162500I0J-237500D01*
G01*
X153400000Y-133637500D01*
G75*
G02*
X153162500Y-133875000I-237500J0D01*
G01*
X152587500Y-133875000D01*
G75*
G02*
X152350000Y-133637500I0J237500D01*
G01*
G37*
D19*
X103250000Y-125850000D03*
X105250000Y-124900000D03*
X105250000Y-126800000D03*
X179400000Y-126250000D03*
X177400000Y-127200000D03*
X177400000Y-125300000D03*
G36*
G01*
X128750000Y-119599999D02*
X128750000Y-120500001D01*
G75*
G02*
X128500001Y-120750000I-249999J0D01*
G01*
X127849999Y-120750000D01*
G75*
G02*
X127600000Y-120500001I0J249999D01*
G01*
X127600000Y-119599999D01*
G75*
G02*
X127849999Y-119350000I249999J0D01*
G01*
X128500001Y-119350000D01*
G75*
G02*
X128750000Y-119599999I0J-249999D01*
G01*
G37*
G36*
G01*
X130800000Y-119599999D02*
X130800000Y-120500001D01*
G75*
G02*
X130550001Y-120750000I-249999J0D01*
G01*
X129899999Y-120750000D01*
G75*
G02*
X129650000Y-120500001I0J249999D01*
G01*
X129650000Y-119599999D01*
G75*
G02*
X129899999Y-119350000I249999J0D01*
G01*
X130550001Y-119350000D01*
G75*
G02*
X130800000Y-119599999I0J-249999D01*
G01*
G37*
G36*
G01*
X120350000Y-135912500D02*
X120350000Y-136387500D01*
G75*
G02*
X120112500Y-136625000I-237500J0D01*
G01*
X119537500Y-136625000D01*
G75*
G02*
X119300000Y-136387500I0J237500D01*
G01*
X119300000Y-135912500D01*
G75*
G02*
X119537500Y-135675000I237500J0D01*
G01*
X120112500Y-135675000D01*
G75*
G02*
X120350000Y-135912500I0J-237500D01*
G01*
G37*
G36*
G01*
X122100000Y-135912500D02*
X122100000Y-136387500D01*
G75*
G02*
X121862500Y-136625000I-237500J0D01*
G01*
X121287500Y-136625000D01*
G75*
G02*
X121050000Y-136387500I0J237500D01*
G01*
X121050000Y-135912500D01*
G75*
G02*
X121287500Y-135675000I237500J0D01*
G01*
X121862500Y-135675000D01*
G75*
G02*
X122100000Y-135912500I0J-237500D01*
G01*
G37*
G36*
G01*
X121837500Y-133350000D02*
X121362500Y-133350000D01*
G75*
G02*
X121125000Y-133112500I0J237500D01*
G01*
X121125000Y-132537500D01*
G75*
G02*
X121362500Y-132300000I237500J0D01*
G01*
X121837500Y-132300000D01*
G75*
G02*
X122075000Y-132537500I0J-237500D01*
G01*
X122075000Y-133112500D01*
G75*
G02*
X121837500Y-133350000I-237500J0D01*
G01*
G37*
G36*
G01*
X121837500Y-135100000D02*
X121362500Y-135100000D01*
G75*
G02*
X121125000Y-134862500I0J237500D01*
G01*
X121125000Y-134287500D01*
G75*
G02*
X121362500Y-134050000I237500J0D01*
G01*
X121837500Y-134050000D01*
G75*
G02*
X122075000Y-134287500I0J-237500D01*
G01*
X122075000Y-134862500D01*
G75*
G02*
X121837500Y-135100000I-237500J0D01*
G01*
G37*
G36*
G01*
X139537500Y-116900000D02*
X139062500Y-116900000D01*
G75*
G02*
X138825000Y-116662500I0J237500D01*
G01*
X138825000Y-116087500D01*
G75*
G02*
X139062500Y-115850000I237500J0D01*
G01*
X139537500Y-115850000D01*
G75*
G02*
X139775000Y-116087500I0J-237500D01*
G01*
X139775000Y-116662500D01*
G75*
G02*
X139537500Y-116900000I-237500J0D01*
G01*
G37*
G36*
G01*
X139537500Y-118650000D02*
X139062500Y-118650000D01*
G75*
G02*
X138825000Y-118412500I0J237500D01*
G01*
X138825000Y-117837500D01*
G75*
G02*
X139062500Y-117600000I237500J0D01*
G01*
X139537500Y-117600000D01*
G75*
G02*
X139775000Y-117837500I0J-237500D01*
G01*
X139775000Y-118412500D01*
G75*
G02*
X139537500Y-118650000I-237500J0D01*
G01*
G37*
G36*
G01*
X142787500Y-116900000D02*
X142312500Y-116900000D01*
G75*
G02*
X142075000Y-116662500I0J237500D01*
G01*
X142075000Y-116087500D01*
G75*
G02*
X142312500Y-115850000I237500J0D01*
G01*
X142787500Y-115850000D01*
G75*
G02*
X143025000Y-116087500I0J-237500D01*
G01*
X143025000Y-116662500D01*
G75*
G02*
X142787500Y-116900000I-237500J0D01*
G01*
G37*
G36*
G01*
X142787500Y-118650000D02*
X142312500Y-118650000D01*
G75*
G02*
X142075000Y-118412500I0J237500D01*
G01*
X142075000Y-117837500D01*
G75*
G02*
X142312500Y-117600000I237500J0D01*
G01*
X142787500Y-117600000D01*
G75*
G02*
X143025000Y-117837500I0J-237500D01*
G01*
X143025000Y-118412500D01*
G75*
G02*
X142787500Y-118650000I-237500J0D01*
G01*
G37*
G36*
G01*
X147662500Y-127300000D02*
X148137500Y-127300000D01*
G75*
G02*
X148375000Y-127537500I0J-237500D01*
G01*
X148375000Y-128112500D01*
G75*
G02*
X148137500Y-128350000I-237500J0D01*
G01*
X147662500Y-128350000D01*
G75*
G02*
X147425000Y-128112500I0J237500D01*
G01*
X147425000Y-127537500D01*
G75*
G02*
X147662500Y-127300000I237500J0D01*
G01*
G37*
G36*
G01*
X147662500Y-125550000D02*
X148137500Y-125550000D01*
G75*
G02*
X148375000Y-125787500I0J-237500D01*
G01*
X148375000Y-126362500D01*
G75*
G02*
X148137500Y-126600000I-237500J0D01*
G01*
X147662500Y-126600000D01*
G75*
G02*
X147425000Y-126362500I0J237500D01*
G01*
X147425000Y-125787500D01*
G75*
G02*
X147662500Y-125550000I237500J0D01*
G01*
G37*
G36*
G01*
X149212500Y-127300000D02*
X149687500Y-127300000D01*
G75*
G02*
X149925000Y-127537500I0J-237500D01*
G01*
X149925000Y-128112500D01*
G75*
G02*
X149687500Y-128350000I-237500J0D01*
G01*
X149212500Y-128350000D01*
G75*
G02*
X148975000Y-128112500I0J237500D01*
G01*
X148975000Y-127537500D01*
G75*
G02*
X149212500Y-127300000I237500J0D01*
G01*
G37*
G36*
G01*
X149212500Y-125550000D02*
X149687500Y-125550000D01*
G75*
G02*
X149925000Y-125787500I0J-237500D01*
G01*
X149925000Y-126362500D01*
G75*
G02*
X149687500Y-126600000I-237500J0D01*
G01*
X149212500Y-126600000D01*
G75*
G02*
X148975000Y-126362500I0J237500D01*
G01*
X148975000Y-125787500D01*
G75*
G02*
X149212500Y-125550000I237500J0D01*
G01*
G37*
G36*
G01*
X131100000Y-121562500D02*
X131100000Y-122037500D01*
G75*
G02*
X130862500Y-122275000I-237500J0D01*
G01*
X130287500Y-122275000D01*
G75*
G02*
X130050000Y-122037500I0J237500D01*
G01*
X130050000Y-121562500D01*
G75*
G02*
X130287500Y-121325000I237500J0D01*
G01*
X130862500Y-121325000D01*
G75*
G02*
X131100000Y-121562500I0J-237500D01*
G01*
G37*
G36*
G01*
X132850000Y-121562500D02*
X132850000Y-122037500D01*
G75*
G02*
X132612500Y-122275000I-237500J0D01*
G01*
X132037500Y-122275000D01*
G75*
G02*
X131800000Y-122037500I0J237500D01*
G01*
X131800000Y-121562500D01*
G75*
G02*
X132037500Y-121325000I237500J0D01*
G01*
X132612500Y-121325000D01*
G75*
G02*
X132850000Y-121562500I0J-237500D01*
G01*
G37*
G36*
G01*
X158362500Y-132775000D02*
X158837500Y-132775000D01*
G75*
G02*
X159075000Y-133012500I0J-237500D01*
G01*
X159075000Y-133587500D01*
G75*
G02*
X158837500Y-133825000I-237500J0D01*
G01*
X158362500Y-133825000D01*
G75*
G02*
X158125000Y-133587500I0J237500D01*
G01*
X158125000Y-133012500D01*
G75*
G02*
X158362500Y-132775000I237500J0D01*
G01*
G37*
G36*
G01*
X158362500Y-131025000D02*
X158837500Y-131025000D01*
G75*
G02*
X159075000Y-131262500I0J-237500D01*
G01*
X159075000Y-131837500D01*
G75*
G02*
X158837500Y-132075000I-237500J0D01*
G01*
X158362500Y-132075000D01*
G75*
G02*
X158125000Y-131837500I0J237500D01*
G01*
X158125000Y-131262500D01*
G75*
G02*
X158362500Y-131025000I237500J0D01*
G01*
G37*
G36*
G01*
X146637500Y-136600000D02*
X146162500Y-136600000D01*
G75*
G02*
X145925000Y-136362500I0J237500D01*
G01*
X145925000Y-135787500D01*
G75*
G02*
X146162500Y-135550000I237500J0D01*
G01*
X146637500Y-135550000D01*
G75*
G02*
X146875000Y-135787500I0J-237500D01*
G01*
X146875000Y-136362500D01*
G75*
G02*
X146637500Y-136600000I-237500J0D01*
G01*
G37*
G36*
G01*
X146637500Y-138350000D02*
X146162500Y-138350000D01*
G75*
G02*
X145925000Y-138112500I0J237500D01*
G01*
X145925000Y-137537500D01*
G75*
G02*
X146162500Y-137300000I237500J0D01*
G01*
X146637500Y-137300000D01*
G75*
G02*
X146875000Y-137537500I0J-237500D01*
G01*
X146875000Y-138112500D01*
G75*
G02*
X146637500Y-138350000I-237500J0D01*
G01*
G37*
G36*
G01*
X146112500Y-127300000D02*
X146587500Y-127300000D01*
G75*
G02*
X146825000Y-127537500I0J-237500D01*
G01*
X146825000Y-128112500D01*
G75*
G02*
X146587500Y-128350000I-237500J0D01*
G01*
X146112500Y-128350000D01*
G75*
G02*
X145875000Y-128112500I0J237500D01*
G01*
X145875000Y-127537500D01*
G75*
G02*
X146112500Y-127300000I237500J0D01*
G01*
G37*
G36*
G01*
X146112500Y-125550000D02*
X146587500Y-125550000D01*
G75*
G02*
X146825000Y-125787500I0J-237500D01*
G01*
X146825000Y-126362500D01*
G75*
G02*
X146587500Y-126600000I-237500J0D01*
G01*
X146112500Y-126600000D01*
G75*
G02*
X145875000Y-126362500I0J237500D01*
G01*
X145875000Y-125787500D01*
G75*
G02*
X146112500Y-125550000I237500J0D01*
G01*
G37*
M02*
