G04 #@! TF.GenerationSoftware,KiCad,Pcbnew,5.99.0-unknown-c7daca1~86~ubuntu18.04.1*
G04 #@! TF.CreationDate,2020-03-27T23:29:59-03:00*
G04 #@! TF.ProjectId,DPL,44504c2e-6b69-4636-9164-5f7063625858,rev?*
G04 #@! TF.SameCoordinates,Original*
G04 #@! TF.FileFunction,Copper,L2,Bot*
G04 #@! TF.FilePolarity,Positive*
%FSLAX46Y46*%
G04 Gerber Fmt 4.6, Leading zero omitted, Abs format (unit mm)*
G04 Created by KiCad (PCBNEW 5.99.0-unknown-c7daca1~86~ubuntu18.04.1) date 2020-03-27 23:29:59*
%MOMM*%
%LPD*%
G01*
G04 APERTURE LIST*
G04 #@! TA.AperFunction,ComponentPad*
%ADD10C,5.800000*%
G04 #@! TD*
G04 #@! TA.AperFunction,ComponentPad*
%ADD11C,5.000000*%
G04 #@! TD*
G04 #@! TA.AperFunction,ComponentPad*
%ADD12C,1.700000*%
G04 #@! TD*
G04 #@! TA.AperFunction,ComponentPad*
%ADD13R,1.700000X1.700000*%
G04 #@! TD*
G04 #@! TA.AperFunction,ComponentPad*
%ADD14O,0.800000X1.300000*%
G04 #@! TD*
G04 #@! TA.AperFunction,ComponentPad*
%ADD15O,1.300000X0.800000*%
G04 #@! TD*
G04 #@! TA.AperFunction,SMDPad,CuDef*
%ADD16R,1.400000X1.000000*%
G04 #@! TD*
G04 #@! TA.AperFunction,SMDPad,CuDef*
%ADD17R,1.400000X1.200000*%
G04 #@! TD*
G04 #@! TA.AperFunction,ViaPad*
%ADD18C,1.000000*%
G04 #@! TD*
G04 #@! TA.AperFunction,ViaPad*
%ADD19C,3.300000*%
G04 #@! TD*
G04 #@! TA.AperFunction,Conductor*
%ADD20C,0.450000*%
G04 #@! TD*
G04 #@! TA.AperFunction,Conductor*
%ADD21C,0.550000*%
G04 #@! TD*
G04 #@! TA.AperFunction,Conductor*
%ADD22C,1.000000*%
G04 #@! TD*
G04 #@! TA.AperFunction,Conductor*
%ADD23C,0.800000*%
G04 #@! TD*
G04 #@! TA.AperFunction,Conductor*
%ADD24C,2.000000*%
G04 #@! TD*
G04 #@! TA.AperFunction,Conductor*
%ADD25C,0.254000*%
G04 #@! TD*
G04 APERTURE END LIST*
D10*
X171600000Y-132900000D03*
X178100000Y-132900000D03*
X111000000Y-132900000D03*
X104500000Y-132900000D03*
D11*
X179200000Y-118500000D03*
X179200000Y-140500000D03*
X103300000Y-140500000D03*
X103300000Y-118500000D03*
G04 #@! TA.AperFunction,SMDPad,CuDef*
G36*
G01*
X169099999Y-127200000D02*
X170000001Y-127200000D01*
G75*
G02*
X170250000Y-127449999I0J-249999D01*
G01*
X170250000Y-128100001D01*
G75*
G02*
X170000001Y-128350000I-249999J0D01*
G01*
X169099999Y-128350000D01*
G75*
G02*
X168850000Y-128100001I0J249999D01*
G01*
X168850000Y-127449999D01*
G75*
G02*
X169099999Y-127200000I249999J0D01*
G01*
G37*
G04 #@! TD.AperFunction*
G04 #@! TA.AperFunction,SMDPad,CuDef*
G36*
G01*
X169099999Y-125150000D02*
X170000001Y-125150000D01*
G75*
G02*
X170250000Y-125399999I0J-249999D01*
G01*
X170250000Y-126050001D01*
G75*
G02*
X170000001Y-126300000I-249999J0D01*
G01*
X169099999Y-126300000D01*
G75*
G02*
X168850000Y-126050001I0J249999D01*
G01*
X168850000Y-125399999D01*
G75*
G02*
X169099999Y-125150000I249999J0D01*
G01*
G37*
G04 #@! TD.AperFunction*
D12*
X177390000Y-123000000D03*
X174850000Y-123000000D03*
D13*
X172310000Y-123000000D03*
D12*
X110290000Y-123000000D03*
X107750000Y-123000000D03*
D13*
X105210000Y-123000000D03*
D14*
X157500000Y-139000000D03*
X156250000Y-139000000D03*
X155000000Y-139000000D03*
X153750000Y-139000000D03*
X152500000Y-139000000D03*
G04 #@! TA.AperFunction,ComponentPad*
G36*
G01*
X150850000Y-139450000D02*
X150850000Y-138550000D01*
G75*
G02*
X151050000Y-138350000I200000J0D01*
G01*
X151450000Y-138350000D01*
G75*
G02*
X151650000Y-138550000I0J-200000D01*
G01*
X151650000Y-139450000D01*
G75*
G02*
X151450000Y-139650000I-200000J0D01*
G01*
X151050000Y-139650000D01*
G75*
G02*
X150850000Y-139450000I0J200000D01*
G01*
G37*
G04 #@! TD.AperFunction*
X131250000Y-139000000D03*
X130000000Y-139000000D03*
X128750000Y-139000000D03*
X127500000Y-139000000D03*
X126250000Y-139000000D03*
G04 #@! TA.AperFunction,ComponentPad*
G36*
G01*
X124600000Y-139450000D02*
X124600000Y-138550000D01*
G75*
G02*
X124800000Y-138350000I200000J0D01*
G01*
X125200000Y-138350000D01*
G75*
G02*
X125400000Y-138550000I0J-200000D01*
G01*
X125400000Y-139450000D01*
G75*
G02*
X125200000Y-139650000I-200000J0D01*
G01*
X124800000Y-139650000D01*
G75*
G02*
X124600000Y-139450000I0J200000D01*
G01*
G37*
G04 #@! TD.AperFunction*
D12*
X156650000Y-129950000D03*
X150150000Y-129950000D03*
X156650000Y-134450000D03*
X150150000Y-134450000D03*
D15*
X165500000Y-136375000D03*
X165500000Y-135125000D03*
X165500000Y-133875000D03*
X165500000Y-132625000D03*
X165500000Y-131375000D03*
X165500000Y-130125000D03*
X165500000Y-128875000D03*
X165500000Y-127625000D03*
X165500000Y-126375000D03*
X165500000Y-125125000D03*
X165500000Y-123875000D03*
G04 #@! TA.AperFunction,ComponentPad*
G36*
G01*
X165050000Y-122225000D02*
X165950000Y-122225000D01*
G75*
G02*
X166150000Y-122425000I0J-200000D01*
G01*
X166150000Y-122825000D01*
G75*
G02*
X165950000Y-123025000I-200000J0D01*
G01*
X165050000Y-123025000D01*
G75*
G02*
X164850000Y-122825000I0J200000D01*
G01*
X164850000Y-122425000D01*
G75*
G02*
X165050000Y-122225000I200000J0D01*
G01*
G37*
G04 #@! TD.AperFunction*
X117000000Y-122625000D03*
X117000000Y-123875000D03*
X117000000Y-125125000D03*
X117000000Y-126375000D03*
X117000000Y-127625000D03*
X117000000Y-128875000D03*
X117000000Y-130125000D03*
X117000000Y-131375000D03*
X117000000Y-132625000D03*
X117000000Y-133875000D03*
X117000000Y-135125000D03*
G04 #@! TA.AperFunction,ComponentPad*
G36*
G01*
X117450000Y-136775000D02*
X116550000Y-136775000D01*
G75*
G02*
X116350000Y-136575000I0J200000D01*
G01*
X116350000Y-136175000D01*
G75*
G02*
X116550000Y-135975000I200000J0D01*
G01*
X117450000Y-135975000D01*
G75*
G02*
X117650000Y-136175000I0J-200000D01*
G01*
X117650000Y-136575000D01*
G75*
G02*
X117450000Y-136775000I-200000J0D01*
G01*
G37*
G04 #@! TD.AperFunction*
G04 #@! TA.AperFunction,SMDPad,CuDef*
G36*
G01*
X112499999Y-128250000D02*
X113400001Y-128250000D01*
G75*
G02*
X113650000Y-128499999I0J-249999D01*
G01*
X113650000Y-129150001D01*
G75*
G02*
X113400001Y-129400000I-249999J0D01*
G01*
X112499999Y-129400000D01*
G75*
G02*
X112250000Y-129150001I0J249999D01*
G01*
X112250000Y-128499999D01*
G75*
G02*
X112499999Y-128250000I249999J0D01*
G01*
G37*
G04 #@! TD.AperFunction*
G04 #@! TA.AperFunction,SMDPad,CuDef*
G36*
G01*
X112499999Y-126200000D02*
X113400001Y-126200000D01*
G75*
G02*
X113650000Y-126449999I0J-249999D01*
G01*
X113650000Y-127100001D01*
G75*
G02*
X113400001Y-127350000I-249999J0D01*
G01*
X112499999Y-127350000D01*
G75*
G02*
X112250000Y-127100001I0J249999D01*
G01*
X112250000Y-126449999D01*
G75*
G02*
X112499999Y-126200000I249999J0D01*
G01*
G37*
G04 #@! TD.AperFunction*
D16*
X139825000Y-134550000D03*
X139825000Y-136450000D03*
X142025000Y-136450000D03*
D17*
X142025000Y-134730000D03*
D18*
X128650000Y-138150000D03*
X123750000Y-119450000D03*
X124350000Y-120550000D03*
X123600000Y-121525000D03*
X128750000Y-140250000D03*
X130000000Y-138100000D03*
X131250000Y-138100000D03*
X161050000Y-139250000D03*
X119000000Y-123700000D03*
X120649990Y-119450000D03*
X111750000Y-128825000D03*
X119500000Y-132100000D03*
X123350000Y-132100000D03*
X119800000Y-137250000D03*
X144500000Y-123000000D03*
X145015478Y-124150000D03*
X170550000Y-122150000D03*
X129442929Y-123449999D03*
X129200000Y-121400000D03*
X108500000Y-119300000D03*
X110700000Y-119450000D03*
X123400000Y-126375000D03*
X124375000Y-125125000D03*
X126775000Y-128875000D03*
X126975000Y-127625000D03*
X127700000Y-121550000D03*
X128100000Y-122750000D03*
X137850000Y-137600000D03*
X131475000Y-130099999D03*
X132274999Y-131100000D03*
X144350000Y-128950000D03*
X134850000Y-136100000D03*
X136000000Y-136750000D03*
X128150000Y-134550000D03*
X146500000Y-139350000D03*
X148000000Y-134850000D03*
X143450000Y-136450000D03*
X138450000Y-136450000D03*
X146350000Y-129050000D03*
X147900000Y-129050000D03*
X141000000Y-116350000D03*
X140900000Y-117500000D03*
D19*
X174850000Y-129000000D03*
X174850000Y-136800000D03*
X107750000Y-136800000D03*
X107750000Y-129000000D03*
D18*
X124550000Y-137200000D03*
X156250000Y-137250000D03*
X155000000Y-137250000D03*
X152500000Y-137250000D03*
X151250000Y-137000000D03*
X102400000Y-123350000D03*
X113000000Y-125200000D03*
X112800000Y-117700000D03*
X120550000Y-117700000D03*
X144500000Y-117500000D03*
X134900000Y-139200000D03*
X112950000Y-141850000D03*
X123650000Y-123700000D03*
X134000000Y-117600000D03*
X134150000Y-122550000D03*
X108649999Y-126374999D03*
X168700000Y-123850000D03*
X175800000Y-125300000D03*
X177400000Y-129000000D03*
X181250000Y-129000000D03*
X148345669Y-130164174D03*
X151750000Y-129950000D03*
X155150000Y-129950000D03*
X152850000Y-128750000D03*
X157800000Y-128650000D03*
X153850000Y-124150000D03*
X158600000Y-134850000D03*
X162150000Y-134850000D03*
X160250000Y-136900000D03*
X160250000Y-123000000D03*
X146400000Y-133900000D03*
X168800000Y-120400000D03*
X128200000Y-118850000D03*
X147900000Y-118850000D03*
X129200000Y-117600000D03*
X152700000Y-118850000D03*
X150200000Y-117500000D03*
X151550000Y-128750000D03*
X161850000Y-117500000D03*
X171200000Y-139900000D03*
X173150000Y-118850000D03*
X107450000Y-120550000D03*
X167350000Y-127650000D03*
X167650000Y-129200000D03*
X167400000Y-125150000D03*
X171050000Y-126950000D03*
X173738361Y-126346899D03*
X172250000Y-128300000D03*
X176800000Y-126000000D03*
X122250000Y-139950000D03*
X157750000Y-124062500D03*
X162400000Y-124062500D03*
X120300000Y-139250000D03*
X142600000Y-122700000D03*
D20*
X128750000Y-139000000D02*
X128750000Y-138250000D01*
X128750000Y-138250000D02*
X128650000Y-138150000D01*
X128750000Y-139000000D02*
X128750000Y-140250000D01*
D21*
X110700000Y-119450000D02*
X123750000Y-119450000D01*
X107450000Y-120550000D02*
X124350000Y-120550000D01*
X114731998Y-121525000D02*
X123600000Y-121525000D01*
X130000000Y-139000000D02*
X130000000Y-138100000D01*
D22*
X131250000Y-139000000D02*
X131250000Y-138100000D01*
D21*
X126250000Y-139000000D02*
X126250000Y-138160674D01*
X126250000Y-138160674D02*
X127335673Y-137075001D01*
X135674999Y-137075001D02*
X136000000Y-136750000D01*
X127335673Y-137075001D02*
X135674999Y-137075001D01*
D20*
X123650000Y-123700000D02*
X119000000Y-123700000D01*
D23*
X117000000Y-133350000D02*
X111450000Y-133350000D01*
X111450000Y-133350000D02*
X111000000Y-132900000D01*
X117000000Y-133875000D02*
X111975000Y-133875000D01*
X111975000Y-133875000D02*
X111000000Y-132900000D01*
X117000000Y-132625000D02*
X111275000Y-132625000D01*
X111275000Y-132625000D02*
X111000000Y-132900000D01*
D24*
X111000000Y-132900000D02*
X111000000Y-134400000D01*
X111000000Y-134400000D02*
X118750000Y-142150000D01*
X118750000Y-142150000D02*
X130300000Y-142150000D01*
D23*
X165500000Y-133200000D02*
X171300000Y-133200000D01*
X171300000Y-133200000D02*
X171600000Y-132900000D01*
X165500000Y-133875000D02*
X170625000Y-133875000D01*
X170625000Y-133875000D02*
X171600000Y-132900000D01*
X165500000Y-132625000D02*
X171325000Y-132625000D01*
X171325000Y-132625000D02*
X171600000Y-132900000D01*
D24*
X171600000Y-132900000D02*
X162350000Y-142150000D01*
D23*
X162350000Y-142150000D02*
X162050000Y-142150000D01*
D20*
X177400000Y-129000000D02*
X181250000Y-129000000D01*
D21*
X112950000Y-128825000D02*
X111750000Y-128825000D01*
X128450000Y-122400000D02*
X128100000Y-122750000D01*
X159564326Y-125125000D02*
X165500000Y-125125000D01*
X123400000Y-126375000D02*
X150675000Y-126375000D01*
X159375000Y-126375000D02*
X165500000Y-126375000D01*
X117000000Y-126375000D02*
X123400000Y-126375000D01*
X126975000Y-127625000D02*
X149081998Y-127625000D01*
X123775000Y-125125000D02*
X124375000Y-125125000D01*
X126775000Y-128875000D02*
X129175000Y-128875000D01*
X117000000Y-128875000D02*
X126775000Y-128875000D01*
X117000000Y-127625000D02*
X126975000Y-127625000D01*
X117000000Y-125125000D02*
X123775000Y-125125000D01*
D20*
X137850000Y-137600000D02*
X137200000Y-136950000D01*
X137200000Y-136950000D02*
X137200000Y-134550000D01*
D21*
X129175000Y-128875000D02*
X142831998Y-128875000D01*
X117000000Y-131375000D02*
X117300001Y-131074999D01*
X117300001Y-131074999D02*
X142910649Y-131074999D01*
X142910649Y-131074999D02*
X144310671Y-132475021D01*
X117000000Y-130125000D02*
X143021324Y-130125000D01*
X143021324Y-130125000D02*
X144621335Y-131725011D01*
X142831998Y-128875000D02*
X144931999Y-130975001D01*
X144350000Y-128950000D02*
X145425001Y-130025001D01*
X125000000Y-138350000D02*
X125000000Y-139000000D01*
X127250000Y-136100000D02*
X125000000Y-138350000D01*
X134850000Y-136100000D02*
X127250000Y-136100000D01*
D20*
X139825000Y-134550000D02*
X137200000Y-134550000D01*
X137200000Y-134550000D02*
X128150000Y-134550000D01*
D21*
X146500000Y-137955000D02*
X146500000Y-139350000D01*
X142025000Y-134730000D02*
X143275000Y-134730000D01*
X143275000Y-134730000D02*
X146500000Y-137955000D01*
D20*
X142025000Y-136450000D02*
X143450000Y-136450000D01*
X139825000Y-136450000D02*
X138450000Y-136450000D01*
D21*
X156250000Y-137250000D02*
X156250000Y-139000000D01*
X155000000Y-137250000D02*
X155000000Y-139000000D01*
X152500000Y-137250000D02*
X152500000Y-139000000D01*
X151250000Y-139000000D02*
X151250000Y-137000000D01*
D23*
X117000000Y-133350000D02*
X117000000Y-133875000D01*
X117000000Y-132625000D02*
X117000000Y-133350000D01*
X165500000Y-133200000D02*
X165500000Y-133875000D01*
X165500000Y-132625000D02*
X165500000Y-133200000D01*
X131250000Y-142100000D02*
X131200000Y-142150000D01*
D22*
X131250000Y-139000000D02*
X131250000Y-142100000D01*
D24*
X131200000Y-142150000D02*
X162050000Y-142150000D01*
D23*
X130000000Y-141850000D02*
X130300000Y-142150000D01*
D24*
X130300000Y-142150000D02*
X131200000Y-142150000D01*
D23*
X130550000Y-141900000D02*
X130300000Y-142150000D01*
D20*
X112800000Y-117700000D02*
X120550000Y-117700000D01*
X128692929Y-124199999D02*
X124149999Y-124199999D01*
X129442929Y-123449999D02*
X128692929Y-124199999D01*
X124149999Y-124199999D02*
X123650000Y-123700000D01*
D21*
X165525000Y-125150000D02*
X165500000Y-125125000D01*
D20*
X169550000Y-124700000D02*
X168700000Y-123850000D01*
X169550000Y-125725000D02*
X169550000Y-124700000D01*
D21*
X109881999Y-126374999D02*
X114731998Y-121525000D01*
X108649999Y-126374999D02*
X109881999Y-126374999D01*
X148206496Y-130025001D02*
X148345669Y-130164174D01*
X145425001Y-130025001D02*
X148206496Y-130025001D01*
X151750000Y-129950000D02*
X155150000Y-129950000D01*
X160675000Y-128875000D02*
X165500000Y-128875000D01*
X158274999Y-131275001D02*
X160675000Y-128875000D01*
X145231999Y-131275001D02*
X158274999Y-131275001D01*
X144931999Y-130975001D02*
X145231999Y-131275001D01*
X160975000Y-130125000D02*
X165500000Y-130125000D01*
X144921335Y-132025011D02*
X159074989Y-132025011D01*
X159074989Y-132025011D02*
X160975000Y-130125000D01*
X144621335Y-131725011D02*
X144921335Y-132025011D01*
X161625000Y-131375000D02*
X165500000Y-131375000D01*
X160224979Y-132775021D02*
X161625000Y-131375000D01*
X144610671Y-132775021D02*
X160224979Y-132775021D01*
X144310671Y-132475021D02*
X144610671Y-132775021D01*
X149081998Y-127625000D02*
X165500000Y-127625000D01*
X152850000Y-128750000D02*
X152975001Y-128624999D01*
X152975001Y-128624999D02*
X157774999Y-128624999D01*
X157774999Y-128624999D02*
X157800000Y-128650000D01*
X150675000Y-126375000D02*
X159375000Y-126375000D01*
X124375000Y-125125000D02*
X165500000Y-125125000D01*
X145015478Y-124150000D02*
X153850000Y-124150000D01*
D20*
X158600000Y-134850000D02*
X162150000Y-134850000D01*
D21*
X160250000Y-136900000D02*
X156600000Y-136900000D01*
X144500000Y-123000000D02*
X160250000Y-123000000D01*
X156600000Y-136900000D02*
X156250000Y-137250000D01*
X133781999Y-121474999D02*
X169874999Y-121474999D01*
X169874999Y-121474999D02*
X170550000Y-122150000D01*
X132856998Y-122400000D02*
X133781999Y-121474999D01*
X128450000Y-122400000D02*
X132856998Y-122400000D01*
X128142894Y-120400000D02*
X168800000Y-120400000D01*
X127700000Y-120842894D02*
X128142894Y-120400000D01*
X127700000Y-121550000D02*
X127700000Y-120842894D01*
X128200000Y-118850000D02*
X147900000Y-118850000D01*
D20*
X134000000Y-117600000D02*
X129200000Y-117600000D01*
D21*
X147900000Y-118850000D02*
X152700000Y-118850000D01*
D20*
X144500000Y-117500000D02*
X150200000Y-117500000D01*
X150200000Y-117500000D02*
X161850000Y-117500000D01*
D21*
X152700000Y-118850000D02*
X173150000Y-118850000D01*
X165525000Y-127650000D02*
X165500000Y-127625000D01*
X167350000Y-127650000D02*
X165525000Y-127650000D01*
X166725000Y-130125000D02*
X167650000Y-129200000D01*
X165500000Y-130125000D02*
X166725000Y-130125000D01*
X167375000Y-125125000D02*
X167400000Y-125150000D01*
X165500000Y-125125000D02*
X167375000Y-125125000D01*
X170075000Y-128300000D02*
X172250000Y-128300000D01*
X169550000Y-127775000D02*
X170075000Y-128300000D01*
X176453101Y-126346899D02*
X176800000Y-126000000D01*
X173738361Y-126346899D02*
X176453101Y-126346899D01*
X127500000Y-139250000D02*
X127500000Y-139000000D01*
X126300001Y-140449999D02*
X127500000Y-139250000D01*
X122749999Y-140449999D02*
X126300001Y-140449999D01*
X122250000Y-139950000D02*
X122749999Y-140449999D01*
X171050000Y-126950000D02*
X172700000Y-125300000D01*
X172700000Y-125300000D02*
X175800000Y-125300000D01*
G36*
X101951860Y-115665135D02*
G01*
X101945308Y-115668260D01*
X101634963Y-115838873D01*
X101628814Y-115842730D01*
X101340135Y-116047883D01*
X101334470Y-116052422D01*
X101234510Y-116142427D01*
X101231676Y-116250657D01*
X103247809Y-118266790D01*
X103352191Y-118266790D01*
X105372309Y-116246672D01*
X105364516Y-116132360D01*
X105053829Y-115896535D01*
X105047803Y-115892486D01*
X104742971Y-115712209D01*
X104736521Y-115708880D01*
X104568338Y-115634000D01*
X177928154Y-115634000D01*
X177851860Y-115665135D01*
X177845308Y-115668260D01*
X177534963Y-115838873D01*
X177528814Y-115842730D01*
X177240135Y-116047883D01*
X177234470Y-116052422D01*
X177134510Y-116142427D01*
X177131676Y-116250657D01*
X179147809Y-118266790D01*
X179252191Y-118266790D01*
X181272309Y-116246672D01*
X181264516Y-116132360D01*
X180953829Y-115896535D01*
X180947803Y-115892486D01*
X180642971Y-115712209D01*
X180636521Y-115708880D01*
X180468338Y-115634000D01*
X181866000Y-115634000D01*
X181866000Y-116850825D01*
X181732036Y-116644539D01*
X181727738Y-116638688D01*
X181560736Y-116436816D01*
X181449451Y-116431568D01*
X179433210Y-118447809D01*
X179433210Y-118552191D01*
X181450690Y-120569671D01*
X181557384Y-120567996D01*
X181605876Y-120516359D01*
X181610534Y-120510789D01*
X181821688Y-120226470D01*
X181825673Y-120220402D01*
X181866000Y-120150554D01*
X181866001Y-138850827D01*
X181732036Y-138644539D01*
X181727738Y-138638688D01*
X181560736Y-138436816D01*
X181449451Y-138431568D01*
X179433210Y-140447809D01*
X179433210Y-140552191D01*
X181450690Y-142569671D01*
X181557384Y-142567996D01*
X181605876Y-142516359D01*
X181610534Y-142510789D01*
X181821688Y-142226470D01*
X181825673Y-142220402D01*
X181866001Y-142150552D01*
X181866001Y-143366000D01*
X180478609Y-143366000D01*
X180780628Y-143212114D01*
X180786895Y-143208452D01*
X181081875Y-143012466D01*
X181087680Y-143008108D01*
X181263420Y-142859595D01*
X181268053Y-142749072D01*
X179252191Y-140733210D01*
X179147809Y-140733210D01*
X177130955Y-142750064D01*
X177136827Y-142862108D01*
X177365260Y-143047090D01*
X177371155Y-143051326D01*
X177670174Y-143241090D01*
X177676517Y-143244620D01*
X177927602Y-143366000D01*
X163446394Y-143366000D01*
X163450436Y-143362727D01*
X163455340Y-143358312D01*
X166235108Y-140578544D01*
X176061884Y-140578544D01*
X176062074Y-140585801D01*
X176091709Y-140938709D01*
X176092731Y-140945896D01*
X176162731Y-141293060D01*
X176164573Y-141300081D01*
X176274012Y-141636899D01*
X176276649Y-141643662D01*
X176424075Y-141965669D01*
X176427472Y-141972085D01*
X176610932Y-142275013D01*
X176615044Y-142280995D01*
X176834439Y-142563839D01*
X176947997Y-142570984D01*
X178966790Y-140552191D01*
X178966790Y-140447809D01*
X176950982Y-138432001D01*
X176841986Y-138435426D01*
X176731974Y-138560208D01*
X176727495Y-138565921D01*
X176525376Y-138856731D01*
X176521583Y-138862921D01*
X176354229Y-139175035D01*
X176351172Y-139181620D01*
X176220801Y-139510901D01*
X176218522Y-139517793D01*
X176126861Y-139859877D01*
X176125389Y-139866985D01*
X176073653Y-140217337D01*
X176073008Y-140224568D01*
X176061884Y-140578544D01*
X166235108Y-140578544D01*
X168562995Y-138250657D01*
X177131676Y-138250657D01*
X179147809Y-140266790D01*
X179252191Y-140266790D01*
X181272309Y-138246672D01*
X181264516Y-138132360D01*
X180953829Y-137896535D01*
X180947803Y-137892486D01*
X180642971Y-137712209D01*
X180636521Y-137708880D01*
X180312987Y-137564833D01*
X180306196Y-137562267D01*
X179968252Y-137456362D01*
X179961211Y-137454594D01*
X179613333Y-137388232D01*
X179606136Y-137387284D01*
X179252936Y-137361348D01*
X179245678Y-137361234D01*
X178891837Y-137376064D01*
X178884614Y-137376784D01*
X178534823Y-137432186D01*
X178527731Y-137433732D01*
X178186625Y-137528971D01*
X178179758Y-137531322D01*
X177851860Y-137665135D01*
X177845308Y-137668260D01*
X177534963Y-137838873D01*
X177528814Y-137842730D01*
X177240135Y-138047883D01*
X177234470Y-138052422D01*
X177134510Y-138142427D01*
X177131676Y-138250657D01*
X168562995Y-138250657D01*
X170540644Y-136273008D01*
X170818637Y-136351672D01*
X170825289Y-136353171D01*
X171195986Y-136415870D01*
X171202761Y-136416642D01*
X171578061Y-136438938D01*
X171584880Y-136438974D01*
X171960391Y-136420609D01*
X171967174Y-136419908D01*
X172338507Y-136361094D01*
X172345175Y-136359665D01*
X172707984Y-136261092D01*
X172714458Y-136258951D01*
X173064499Y-136121771D01*
X173070704Y-136118943D01*
X173403883Y-135944762D01*
X173409746Y-135941281D01*
X173722163Y-135732135D01*
X173727616Y-135728041D01*
X174015620Y-135486378D01*
X174020599Y-135481719D01*
X174280818Y-135210364D01*
X174285264Y-135205195D01*
X174514656Y-134907324D01*
X174518518Y-134901704D01*
X174714398Y-134580802D01*
X174717631Y-134574798D01*
X174850610Y-134292203D01*
X174965003Y-134542059D01*
X174968172Y-134548097D01*
X175160681Y-134871033D01*
X175164484Y-134876693D01*
X175390743Y-135176949D01*
X175395135Y-135182165D01*
X175652499Y-135456228D01*
X175657429Y-135460939D01*
X175942885Y-135705606D01*
X175948295Y-135709757D01*
X176258506Y-135922163D01*
X176264333Y-135925705D01*
X176595668Y-136103366D01*
X176601843Y-136106259D01*
X176950429Y-136247096D01*
X176956880Y-136249305D01*
X177318637Y-136351672D01*
X177325289Y-136353171D01*
X177695986Y-136415870D01*
X177702761Y-136416642D01*
X178078061Y-136438938D01*
X178084880Y-136438974D01*
X178460391Y-136420609D01*
X178467174Y-136419908D01*
X178838507Y-136361094D01*
X178845175Y-136359665D01*
X179207984Y-136261092D01*
X179214458Y-136258951D01*
X179564499Y-136121771D01*
X179570704Y-136118943D01*
X179903883Y-135944762D01*
X179909746Y-135941281D01*
X180222163Y-135732135D01*
X180227616Y-135728041D01*
X180515620Y-135486378D01*
X180520599Y-135481719D01*
X180780818Y-135210364D01*
X180785264Y-135205195D01*
X181014656Y-134907324D01*
X181018518Y-134901704D01*
X181214398Y-134580802D01*
X181217631Y-134574798D01*
X181377707Y-134234618D01*
X181380272Y-134228300D01*
X181502673Y-133872822D01*
X181504541Y-133866264D01*
X181587835Y-133499645D01*
X181588984Y-133492924D01*
X181632208Y-133119345D01*
X181632626Y-133112318D01*
X181634023Y-132712349D01*
X181633654Y-132705320D01*
X181593038Y-132331447D01*
X181591936Y-132324718D01*
X181511205Y-131957528D01*
X181509382Y-131950956D01*
X181389465Y-131594632D01*
X181386944Y-131588296D01*
X181229247Y-131247007D01*
X181226056Y-131240981D01*
X181032421Y-130918719D01*
X181028598Y-130913072D01*
X180801292Y-130613608D01*
X180796882Y-130608407D01*
X180538564Y-130335244D01*
X180533617Y-130330550D01*
X180247308Y-130086881D01*
X180241883Y-130082749D01*
X179930934Y-129871427D01*
X179925095Y-129867905D01*
X179593140Y-129691402D01*
X179586955Y-129688531D01*
X179237881Y-129548912D01*
X179231422Y-129546725D01*
X178869309Y-129445622D01*
X178862652Y-129444146D01*
X178491740Y-129382741D01*
X178484962Y-129381993D01*
X178109586Y-129361006D01*
X178102767Y-129360994D01*
X177727321Y-129380671D01*
X177720541Y-129381396D01*
X177349415Y-129441505D01*
X177342753Y-129442958D01*
X176980291Y-129542796D01*
X176973824Y-129544960D01*
X176624264Y-129683360D01*
X176618069Y-129686210D01*
X176285500Y-129861553D01*
X176279649Y-129865055D01*
X175967963Y-130075290D01*
X175962524Y-130079403D01*
X175675367Y-130322070D01*
X175670405Y-130326747D01*
X175411134Y-130599008D01*
X175406706Y-130604193D01*
X175178355Y-130902862D01*
X175174512Y-130908495D01*
X174979755Y-131230079D01*
X174976543Y-131236094D01*
X174849797Y-131507901D01*
X174729247Y-131247007D01*
X174726056Y-131240981D01*
X174532421Y-130918719D01*
X174528598Y-130913072D01*
X174301292Y-130613608D01*
X174296882Y-130608407D01*
X174038564Y-130335244D01*
X174033617Y-130330550D01*
X173747308Y-130086881D01*
X173741883Y-130082749D01*
X173430934Y-129871427D01*
X173425095Y-129867905D01*
X173093140Y-129691402D01*
X173086955Y-129688531D01*
X172737881Y-129548912D01*
X172731422Y-129546725D01*
X172369309Y-129445622D01*
X172362652Y-129444146D01*
X172312111Y-129435779D01*
X172497864Y-129416256D01*
X172512673Y-129412864D01*
X172756973Y-129324910D01*
X172770545Y-129318084D01*
X172986814Y-129174395D01*
X172998367Y-129164529D01*
X173174118Y-128973400D01*
X173182983Y-128961062D01*
X173308071Y-128733528D01*
X173313738Y-128719433D01*
X173381026Y-128468309D01*
X173383178Y-128452601D01*
X173386125Y-128171164D01*
X173384303Y-128155414D01*
X173322289Y-127902936D01*
X173316919Y-127888724D01*
X173196623Y-127658621D01*
X173188018Y-127646100D01*
X173016307Y-127451334D01*
X173004964Y-127441227D01*
X172791752Y-127293041D01*
X172778326Y-127285932D01*
X172535921Y-127192882D01*
X172521186Y-127189181D01*
X172263583Y-127156638D01*
X172248391Y-127156558D01*
X172168294Y-127165825D01*
X172181026Y-127118309D01*
X172182770Y-127105578D01*
X172641771Y-126646578D01*
X172661974Y-126732713D01*
X172667195Y-126746980D01*
X172785074Y-126978330D01*
X172793547Y-126990940D01*
X172963208Y-127187494D01*
X172974445Y-127197719D01*
X173186093Y-127348129D01*
X173199444Y-127355378D01*
X173440862Y-127450963D01*
X173455557Y-127454818D01*
X173712806Y-127490056D01*
X173727996Y-127490295D01*
X173986225Y-127463155D01*
X174001034Y-127459763D01*
X174245334Y-127371809D01*
X174258906Y-127364983D01*
X174420080Y-127257899D01*
X176393405Y-127257899D01*
X176444842Y-127264671D01*
X176461360Y-127264671D01*
X176516893Y-127257360D01*
X176516904Y-127257359D01*
X176682661Y-127235537D01*
X176698615Y-127231262D01*
X176904835Y-127145843D01*
X176919140Y-127137584D01*
X176930918Y-127128547D01*
X177047864Y-127116256D01*
X177062673Y-127112864D01*
X177306973Y-127024910D01*
X177320545Y-127018084D01*
X177536814Y-126874395D01*
X177548367Y-126864529D01*
X177724118Y-126673400D01*
X177732983Y-126661062D01*
X177858071Y-126433528D01*
X177863738Y-126419433D01*
X177931026Y-126168309D01*
X177933178Y-126152601D01*
X177936125Y-125871164D01*
X177934303Y-125855414D01*
X177872289Y-125602936D01*
X177866919Y-125588724D01*
X177746623Y-125358621D01*
X177738018Y-125346100D01*
X177566307Y-125151334D01*
X177554964Y-125141227D01*
X177341752Y-124993041D01*
X177328326Y-124985932D01*
X177085921Y-124892882D01*
X177071186Y-124889181D01*
X176852730Y-124861583D01*
X176746623Y-124658621D01*
X176738018Y-124646100D01*
X176566307Y-124451334D01*
X176554964Y-124441227D01*
X176341752Y-124293041D01*
X176328326Y-124285932D01*
X176085921Y-124192882D01*
X176071186Y-124189181D01*
X175813583Y-124156638D01*
X175798391Y-124156558D01*
X175737713Y-124163578D01*
X175748285Y-124079304D01*
X174902191Y-123233210D01*
X174797809Y-123233210D01*
X173955365Y-124075654D01*
X173963157Y-124189966D01*
X174048791Y-124254967D01*
X174057807Y-124260678D01*
X174271696Y-124372021D01*
X174281545Y-124376131D01*
X174321627Y-124389000D01*
X173503975Y-124389000D01*
X173644590Y-124271010D01*
X173658761Y-124254121D01*
X173759359Y-124079880D01*
X173766900Y-124059163D01*
X173800527Y-123868454D01*
X174616790Y-123052191D01*
X174616790Y-122947809D01*
X175083210Y-122947809D01*
X175083210Y-123052191D01*
X175930119Y-123899100D01*
X176053085Y-123883129D01*
X176119486Y-123769043D01*
X176217430Y-123917584D01*
X176224038Y-123925965D01*
X176388798Y-124102032D01*
X176396722Y-124109180D01*
X176588792Y-124254968D01*
X176597808Y-124260679D01*
X176811696Y-124372021D01*
X176821545Y-124376131D01*
X177051134Y-124449844D01*
X177061535Y-124452236D01*
X177300262Y-124486212D01*
X177310917Y-124486817D01*
X177551956Y-124480084D01*
X177562561Y-124478885D01*
X177799019Y-124431636D01*
X177809270Y-124428667D01*
X178034387Y-124342253D01*
X178043991Y-124337600D01*
X178251330Y-124214491D01*
X178260012Y-124208286D01*
X178443645Y-124052004D01*
X178451158Y-124044424D01*
X178605833Y-123859435D01*
X178611962Y-123850698D01*
X178733256Y-123642294D01*
X178737825Y-123632650D01*
X178822272Y-123406787D01*
X178825151Y-123396511D01*
X178870392Y-123159351D01*
X178871507Y-123148128D01*
X178874077Y-122880341D01*
X178873178Y-122869099D01*
X178832499Y-122631114D01*
X178829817Y-122620784D01*
X178749723Y-122393343D01*
X178745339Y-122383612D01*
X178628067Y-122172916D01*
X178622107Y-122164064D01*
X178471013Y-121976140D01*
X178463647Y-121968417D01*
X178283049Y-121808638D01*
X178274486Y-121802267D01*
X178069549Y-121675202D01*
X178060036Y-121670365D01*
X177836619Y-121579645D01*
X177826427Y-121576480D01*
X177590919Y-121524700D01*
X177580340Y-121523298D01*
X177339475Y-121511939D01*
X177328809Y-121512339D01*
X177089474Y-121541727D01*
X177079030Y-121543918D01*
X176848068Y-121613210D01*
X176838142Y-121617130D01*
X176622155Y-121724346D01*
X176613032Y-121729882D01*
X176418199Y-121871957D01*
X176410138Y-121878952D01*
X176242029Y-122051822D01*
X176235263Y-122060074D01*
X176119229Y-122228903D01*
X176088068Y-122172917D01*
X176082109Y-122164066D01*
X176038981Y-122110422D01*
X175926682Y-122104337D01*
X175083210Y-122947809D01*
X174616790Y-122947809D01*
X173800490Y-122131509D01*
X173799681Y-122125366D01*
X173745890Y-121924615D01*
X173955634Y-121924615D01*
X174797809Y-122766790D01*
X174902191Y-122766790D01*
X175746767Y-121922214D01*
X175732765Y-121801199D01*
X175529549Y-121675201D01*
X175520036Y-121670365D01*
X175296619Y-121579645D01*
X175286427Y-121576480D01*
X175050919Y-121524700D01*
X175040340Y-121523298D01*
X174799475Y-121511939D01*
X174788809Y-121512339D01*
X174549474Y-121541727D01*
X174539030Y-121543918D01*
X174308068Y-121613210D01*
X174298142Y-121617130D01*
X174082156Y-121724346D01*
X174073032Y-121729882D01*
X173964638Y-121808924D01*
X173955634Y-121924615D01*
X173745890Y-121924615D01*
X173724863Y-121846142D01*
X173712120Y-121821662D01*
X173581010Y-121665410D01*
X173564121Y-121651239D01*
X173389880Y-121550641D01*
X173369163Y-121543100D01*
X173176462Y-121509122D01*
X173165501Y-121508163D01*
X171496308Y-121508163D01*
X171488018Y-121496100D01*
X171316307Y-121301334D01*
X171304964Y-121291227D01*
X171091752Y-121143041D01*
X171078326Y-121135932D01*
X170835921Y-121042882D01*
X170821186Y-121039181D01*
X170713986Y-121025639D01*
X170561394Y-120873047D01*
X170529802Y-120831875D01*
X170518123Y-120820196D01*
X170426726Y-120750064D01*
X177130955Y-120750064D01*
X177136827Y-120862108D01*
X177365260Y-121047090D01*
X177371155Y-121051326D01*
X177670174Y-121241090D01*
X177676517Y-121244620D01*
X177995367Y-121398759D01*
X178002073Y-121401537D01*
X178336524Y-121518005D01*
X178343506Y-121519994D01*
X178689128Y-121597249D01*
X178696292Y-121598422D01*
X179048503Y-121635441D01*
X179055754Y-121635783D01*
X179409886Y-121632075D01*
X179417128Y-121631581D01*
X179768486Y-121587194D01*
X179775623Y-121585871D01*
X180119552Y-121501394D01*
X180126490Y-121499260D01*
X180458430Y-121375812D01*
X180465077Y-121372895D01*
X180780628Y-121212114D01*
X180786895Y-121208452D01*
X181081875Y-121012466D01*
X181087680Y-121008108D01*
X181263420Y-120859595D01*
X181268053Y-120749072D01*
X179252191Y-118733210D01*
X179147809Y-118733210D01*
X177130955Y-120750064D01*
X170426726Y-120750064D01*
X170341037Y-120684313D01*
X170326733Y-120676055D01*
X170120513Y-120590636D01*
X170104559Y-120586361D01*
X169938802Y-120564539D01*
X169938791Y-120564538D01*
X169931671Y-120563601D01*
X169933178Y-120552601D01*
X169936125Y-120271164D01*
X169934303Y-120255414D01*
X169872289Y-120002936D01*
X169866919Y-119988724D01*
X169747867Y-119761000D01*
X172470766Y-119761000D01*
X172597732Y-119851230D01*
X172611083Y-119858479D01*
X172852501Y-119954064D01*
X172867196Y-119957919D01*
X173124445Y-119993157D01*
X173139635Y-119993396D01*
X173397864Y-119966256D01*
X173412673Y-119962864D01*
X173656973Y-119874910D01*
X173670545Y-119868084D01*
X173886814Y-119724395D01*
X173898367Y-119714529D01*
X174074118Y-119523400D01*
X174082983Y-119511062D01*
X174208071Y-119283528D01*
X174213738Y-119269433D01*
X174281026Y-119018309D01*
X174283178Y-119002601D01*
X174286125Y-118721164D01*
X174284303Y-118705414D01*
X174253142Y-118578544D01*
X176061884Y-118578544D01*
X176062074Y-118585801D01*
X176091709Y-118938709D01*
X176092731Y-118945896D01*
X176162731Y-119293060D01*
X176164573Y-119300081D01*
X176274012Y-119636899D01*
X176276649Y-119643662D01*
X176424075Y-119965669D01*
X176427472Y-119972085D01*
X176610932Y-120275013D01*
X176615044Y-120280995D01*
X176834439Y-120563839D01*
X176947997Y-120570984D01*
X178966790Y-118552191D01*
X178966790Y-118447809D01*
X176950982Y-116432001D01*
X176841986Y-116435426D01*
X176731974Y-116560208D01*
X176727495Y-116565921D01*
X176525376Y-116856731D01*
X176521583Y-116862921D01*
X176354229Y-117175035D01*
X176351172Y-117181620D01*
X176220801Y-117510901D01*
X176218522Y-117517793D01*
X176126861Y-117859877D01*
X176125389Y-117866985D01*
X176073653Y-118217337D01*
X176073008Y-118224568D01*
X176061884Y-118578544D01*
X174253142Y-118578544D01*
X174222289Y-118452936D01*
X174216919Y-118438724D01*
X174096623Y-118208621D01*
X174088018Y-118196100D01*
X173916307Y-118001334D01*
X173904964Y-117991227D01*
X173691752Y-117843041D01*
X173678326Y-117835932D01*
X173435921Y-117742882D01*
X173421186Y-117739181D01*
X173163583Y-117706638D01*
X173148391Y-117706558D01*
X172890460Y-117736401D01*
X172875687Y-117739948D01*
X172632322Y-117830455D01*
X172618822Y-117837423D01*
X172469357Y-117939000D01*
X153379819Y-117939000D01*
X153241752Y-117843041D01*
X153228326Y-117835932D01*
X152985921Y-117742882D01*
X152971186Y-117739181D01*
X152713583Y-117706638D01*
X152698391Y-117706558D01*
X152440460Y-117736401D01*
X152425687Y-117739948D01*
X152182322Y-117830455D01*
X152168822Y-117837423D01*
X152019357Y-117939000D01*
X148579819Y-117939000D01*
X148441752Y-117843041D01*
X148428326Y-117835932D01*
X148185921Y-117742882D01*
X148171186Y-117739181D01*
X147913583Y-117706638D01*
X147898391Y-117706558D01*
X147640460Y-117736401D01*
X147625687Y-117739948D01*
X147382322Y-117830455D01*
X147368822Y-117837423D01*
X147219357Y-117939000D01*
X128879819Y-117939000D01*
X128741752Y-117843041D01*
X128728326Y-117835932D01*
X128485921Y-117742882D01*
X128471186Y-117739181D01*
X128213583Y-117706638D01*
X128198391Y-117706558D01*
X127940460Y-117736401D01*
X127925687Y-117739948D01*
X127682322Y-117830455D01*
X127668822Y-117837423D01*
X127454070Y-117983368D01*
X127442622Y-117993355D01*
X127268881Y-118186314D01*
X127260145Y-118198743D01*
X127137447Y-118427575D01*
X127131929Y-118441729D01*
X127067355Y-118693222D01*
X127065372Y-118708285D01*
X127062653Y-118967922D01*
X127064321Y-118983023D01*
X127123613Y-119235814D01*
X127128834Y-119250081D01*
X127246713Y-119481431D01*
X127255186Y-119494041D01*
X127424847Y-119690595D01*
X127436084Y-119700820D01*
X127499254Y-119745713D01*
X127488091Y-119756876D01*
X127456499Y-119798048D01*
X127098041Y-120156505D01*
X127056877Y-120188091D01*
X127045198Y-120199770D01*
X127011094Y-120244215D01*
X127011092Y-120244217D01*
X126929103Y-120351067D01*
X126909315Y-120376856D01*
X126901057Y-120391160D01*
X126815637Y-120597379D01*
X126811362Y-120613334D01*
X126789540Y-120779091D01*
X126789539Y-120779102D01*
X126782228Y-120834635D01*
X126782228Y-120851152D01*
X126784564Y-120868896D01*
X126768881Y-120886314D01*
X126760145Y-120898743D01*
X126637447Y-121127575D01*
X126631929Y-121141729D01*
X126567355Y-121393222D01*
X126565372Y-121408285D01*
X126562653Y-121667922D01*
X126564321Y-121683023D01*
X126623613Y-121935814D01*
X126628834Y-121950081D01*
X126746713Y-122181431D01*
X126755186Y-122194041D01*
X126924847Y-122390595D01*
X126936084Y-122400820D01*
X127004308Y-122449304D01*
X126967355Y-122593222D01*
X126965372Y-122608285D01*
X126962653Y-122867922D01*
X126964321Y-122883023D01*
X127023613Y-123135814D01*
X127028834Y-123150081D01*
X127146713Y-123381431D01*
X127155186Y-123394041D01*
X127324847Y-123590595D01*
X127336084Y-123600820D01*
X127547732Y-123751230D01*
X127561083Y-123758479D01*
X127802501Y-123854064D01*
X127817196Y-123857919D01*
X128074445Y-123893157D01*
X128089635Y-123893396D01*
X128347864Y-123866256D01*
X128362673Y-123862864D01*
X128606973Y-123774910D01*
X128620545Y-123768084D01*
X128836814Y-123624395D01*
X128848367Y-123614529D01*
X129024118Y-123423400D01*
X129032983Y-123411063D01*
X129087993Y-123311000D01*
X132797302Y-123311000D01*
X132848739Y-123317772D01*
X132865257Y-123317772D01*
X132920790Y-123310461D01*
X132920801Y-123310460D01*
X133086558Y-123288638D01*
X133102512Y-123284363D01*
X133308732Y-123198944D01*
X133323036Y-123190686D01*
X133500122Y-123054803D01*
X133511801Y-123043124D01*
X133543393Y-123001952D01*
X134159346Y-122385999D01*
X143540169Y-122385999D01*
X143437447Y-122577575D01*
X143431929Y-122591729D01*
X143367355Y-122843222D01*
X143365372Y-122858285D01*
X143362653Y-123117922D01*
X143364321Y-123133023D01*
X143423613Y-123385814D01*
X143428834Y-123400081D01*
X143546713Y-123631431D01*
X143555186Y-123644041D01*
X143724847Y-123840595D01*
X143736084Y-123850820D01*
X143891109Y-123960990D01*
X143882833Y-123993223D01*
X143880850Y-124008285D01*
X143878696Y-124214000D01*
X125054819Y-124214000D01*
X124916752Y-124118041D01*
X124903326Y-124110932D01*
X124660921Y-124017882D01*
X124646186Y-124014181D01*
X124388583Y-123981638D01*
X124373391Y-123981558D01*
X124115460Y-124011401D01*
X124100687Y-124014948D01*
X123857322Y-124105455D01*
X123843822Y-124112423D01*
X123694357Y-124214000D01*
X118230922Y-124214000D01*
X118236109Y-124202349D01*
X118240190Y-124189789D01*
X118282619Y-123990172D01*
X118283999Y-123977038D01*
X118283999Y-123772962D01*
X118282619Y-123759828D01*
X118240190Y-123560211D01*
X118236108Y-123547650D01*
X118153103Y-123361218D01*
X118146500Y-123349781D01*
X118074005Y-123250000D01*
X118146499Y-123150220D01*
X118153103Y-123138782D01*
X118236109Y-122952349D01*
X118240190Y-122939789D01*
X118282619Y-122740172D01*
X118283999Y-122727038D01*
X118283999Y-122522962D01*
X118282619Y-122509828D01*
X118266927Y-122436000D01*
X122920766Y-122436000D01*
X123047732Y-122526230D01*
X123061083Y-122533479D01*
X123302501Y-122629064D01*
X123317196Y-122632919D01*
X123574445Y-122668157D01*
X123589635Y-122668396D01*
X123847864Y-122641256D01*
X123862673Y-122637864D01*
X124106973Y-122549910D01*
X124120545Y-122543084D01*
X124336814Y-122399395D01*
X124348367Y-122389529D01*
X124524118Y-122198400D01*
X124532983Y-122186062D01*
X124658071Y-121958528D01*
X124663738Y-121944433D01*
X124731026Y-121693309D01*
X124733178Y-121677601D01*
X124733789Y-121619260D01*
X124856973Y-121574910D01*
X124870545Y-121568084D01*
X125086814Y-121424395D01*
X125098367Y-121414529D01*
X125274118Y-121223400D01*
X125282983Y-121211062D01*
X125408071Y-120983528D01*
X125413738Y-120969433D01*
X125481026Y-120718309D01*
X125483178Y-120702601D01*
X125486125Y-120421164D01*
X125484303Y-120405414D01*
X125422289Y-120152936D01*
X125416919Y-120138724D01*
X125296623Y-119908621D01*
X125288018Y-119896100D01*
X125116307Y-119701334D01*
X125104964Y-119691227D01*
X124891752Y-119543041D01*
X124883846Y-119538855D01*
X124886125Y-119321164D01*
X124884303Y-119305414D01*
X124822289Y-119052936D01*
X124816919Y-119038724D01*
X124696623Y-118808621D01*
X124688018Y-118796100D01*
X124516307Y-118601334D01*
X124504964Y-118591227D01*
X124291752Y-118443041D01*
X124278326Y-118435932D01*
X124035921Y-118342882D01*
X124021186Y-118339181D01*
X123763583Y-118306638D01*
X123748391Y-118306558D01*
X123490460Y-118336401D01*
X123475687Y-118339948D01*
X123232322Y-118430455D01*
X123218822Y-118437423D01*
X123069357Y-118539000D01*
X121329809Y-118539000D01*
X121191742Y-118443041D01*
X121178316Y-118435932D01*
X120935911Y-118342882D01*
X120921176Y-118339181D01*
X120663573Y-118306638D01*
X120648381Y-118306558D01*
X120390450Y-118336401D01*
X120375677Y-118339948D01*
X120132312Y-118430455D01*
X120118812Y-118437423D01*
X119969347Y-118539000D01*
X111379819Y-118539000D01*
X111241752Y-118443041D01*
X111228326Y-118435932D01*
X110985921Y-118342882D01*
X110971186Y-118339181D01*
X110713583Y-118306638D01*
X110698391Y-118306558D01*
X110440460Y-118336401D01*
X110425687Y-118339948D01*
X110182322Y-118430455D01*
X110168822Y-118437423D01*
X109954070Y-118583368D01*
X109942622Y-118593355D01*
X109768881Y-118786314D01*
X109760145Y-118798743D01*
X109637447Y-119027575D01*
X109631929Y-119041729D01*
X109567355Y-119293222D01*
X109565372Y-119308285D01*
X109562653Y-119567922D01*
X109564321Y-119583023D01*
X109577450Y-119639000D01*
X108129819Y-119639000D01*
X107991752Y-119543041D01*
X107978326Y-119535932D01*
X107735921Y-119442882D01*
X107721186Y-119439181D01*
X107463583Y-119406638D01*
X107448391Y-119406558D01*
X107190460Y-119436401D01*
X107175687Y-119439948D01*
X106932322Y-119530455D01*
X106918822Y-119537423D01*
X106704070Y-119683368D01*
X106692622Y-119693355D01*
X106518881Y-119886314D01*
X106510145Y-119898743D01*
X106387447Y-120127575D01*
X106381929Y-120141729D01*
X106317355Y-120393222D01*
X106315372Y-120408285D01*
X106312653Y-120667922D01*
X106314321Y-120683023D01*
X106373613Y-120935814D01*
X106378834Y-120950081D01*
X106496713Y-121181431D01*
X106505186Y-121194041D01*
X106674847Y-121390595D01*
X106686084Y-121400820D01*
X106897732Y-121551230D01*
X106911083Y-121558479D01*
X107136501Y-121647729D01*
X106982156Y-121724346D01*
X106973032Y-121729882D01*
X106864638Y-121808924D01*
X106855634Y-121924615D01*
X107697809Y-122766790D01*
X107802191Y-122766790D01*
X108646767Y-121922214D01*
X108632765Y-121801199D01*
X108429549Y-121675201D01*
X108420036Y-121670365D01*
X108196619Y-121579645D01*
X108186427Y-121576480D01*
X108014727Y-121538729D01*
X108131719Y-121461000D01*
X113507650Y-121461000D01*
X111761220Y-123207431D01*
X111770392Y-123159351D01*
X111771507Y-123148128D01*
X111774077Y-122880341D01*
X111773178Y-122869099D01*
X111732499Y-122631114D01*
X111729817Y-122620784D01*
X111649723Y-122393343D01*
X111645339Y-122383612D01*
X111528067Y-122172916D01*
X111522107Y-122164064D01*
X111371013Y-121976140D01*
X111363647Y-121968417D01*
X111183049Y-121808638D01*
X111174486Y-121802267D01*
X110969549Y-121675202D01*
X110960036Y-121670365D01*
X110736619Y-121579645D01*
X110726427Y-121576480D01*
X110490919Y-121524700D01*
X110480340Y-121523298D01*
X110239475Y-121511939D01*
X110228809Y-121512339D01*
X109989474Y-121541727D01*
X109979030Y-121543918D01*
X109748068Y-121613210D01*
X109738142Y-121617130D01*
X109522155Y-121724346D01*
X109513032Y-121729882D01*
X109318199Y-121871957D01*
X109310138Y-121878952D01*
X109142029Y-122051822D01*
X109135263Y-122060074D01*
X109019229Y-122228903D01*
X108988068Y-122172917D01*
X108982109Y-122164066D01*
X108938981Y-122110422D01*
X108826682Y-122104337D01*
X107983210Y-122947809D01*
X107983210Y-123052191D01*
X108830119Y-123899100D01*
X108953085Y-123883129D01*
X109019486Y-123769043D01*
X109117430Y-123917584D01*
X109124038Y-123925965D01*
X109288798Y-124102032D01*
X109296722Y-124109180D01*
X109488792Y-124254968D01*
X109497808Y-124260679D01*
X109711696Y-124372021D01*
X109721545Y-124376131D01*
X109951134Y-124449844D01*
X109961535Y-124452236D01*
X110200262Y-124486212D01*
X110210917Y-124486817D01*
X110451956Y-124480084D01*
X110462561Y-124478885D01*
X110496560Y-124472091D01*
X109504652Y-125463999D01*
X109329818Y-125463999D01*
X109191751Y-125368040D01*
X109178325Y-125360931D01*
X108935920Y-125267881D01*
X108921185Y-125264180D01*
X108663582Y-125231637D01*
X108648390Y-125231557D01*
X108390459Y-125261400D01*
X108375686Y-125264947D01*
X108132321Y-125355454D01*
X108118821Y-125362422D01*
X107904069Y-125508367D01*
X107892621Y-125518354D01*
X107718880Y-125711313D01*
X107710144Y-125723742D01*
X107587446Y-125952574D01*
X107581928Y-125966728D01*
X107517354Y-126218221D01*
X107515371Y-126233284D01*
X107512652Y-126492921D01*
X107514320Y-126508022D01*
X107573612Y-126760813D01*
X107578833Y-126775080D01*
X107696712Y-127006430D01*
X107705185Y-127019040D01*
X107874846Y-127215594D01*
X107886083Y-127225819D01*
X108097731Y-127376229D01*
X108111082Y-127383478D01*
X108352500Y-127479063D01*
X108367195Y-127482918D01*
X108624444Y-127518156D01*
X108639634Y-127518395D01*
X108897863Y-127491255D01*
X108912672Y-127487863D01*
X109156972Y-127399909D01*
X109170544Y-127393083D01*
X109331718Y-127285999D01*
X109822303Y-127285999D01*
X109873740Y-127292771D01*
X109890258Y-127292771D01*
X109945791Y-127285460D01*
X109945802Y-127285459D01*
X110111559Y-127263637D01*
X110127513Y-127259362D01*
X110333733Y-127173943D01*
X110348037Y-127165685D01*
X110525123Y-127029802D01*
X110536802Y-127018123D01*
X110568394Y-126976951D01*
X111097275Y-126448070D01*
X111610776Y-126448070D01*
X111610776Y-126573191D01*
X111684585Y-126647000D01*
X112748191Y-126647001D01*
X112822000Y-126573192D01*
X112822000Y-126573191D01*
X113077999Y-126573191D01*
X113151808Y-126647000D01*
X114215415Y-126647001D01*
X114289224Y-126573192D01*
X114289224Y-126445816D01*
X114287780Y-126432386D01*
X114214745Y-126096647D01*
X114206115Y-126075812D01*
X114077304Y-125875380D01*
X114065501Y-125861759D01*
X113887151Y-125707217D01*
X113871989Y-125697473D01*
X113657324Y-125599439D01*
X113640031Y-125594361D01*
X113410907Y-125561418D01*
X113401930Y-125560776D01*
X113151809Y-125560776D01*
X113078000Y-125634585D01*
X113077999Y-126573191D01*
X112822000Y-126573191D01*
X112822001Y-125634585D01*
X112748192Y-125560776D01*
X112495816Y-125560776D01*
X112482386Y-125562220D01*
X112146647Y-125635255D01*
X112125812Y-125643885D01*
X111925380Y-125772696D01*
X111911759Y-125784499D01*
X111757217Y-125962849D01*
X111747473Y-125978011D01*
X111649439Y-126192676D01*
X111644361Y-126209969D01*
X111611418Y-126439093D01*
X111610776Y-126448070D01*
X111097275Y-126448070D01*
X115109346Y-122436000D01*
X115733073Y-122436000D01*
X115717381Y-122509828D01*
X115716001Y-122522962D01*
X115716001Y-122727038D01*
X115717381Y-122740172D01*
X115759810Y-122939789D01*
X115763892Y-122952350D01*
X115846897Y-123138782D01*
X115853500Y-123150219D01*
X115925995Y-123250000D01*
X115853501Y-123349780D01*
X115846897Y-123361218D01*
X115763891Y-123547651D01*
X115759810Y-123560211D01*
X115717381Y-123759828D01*
X115716001Y-123772962D01*
X115716001Y-123977038D01*
X115717381Y-123990172D01*
X115759810Y-124189789D01*
X115763892Y-124202350D01*
X115846897Y-124388782D01*
X115853500Y-124400219D01*
X115925995Y-124500000D01*
X115853501Y-124599780D01*
X115846897Y-124611218D01*
X115763891Y-124797651D01*
X115759810Y-124810211D01*
X115717381Y-125009828D01*
X115716001Y-125022962D01*
X115716001Y-125227038D01*
X115717381Y-125240172D01*
X115759810Y-125439789D01*
X115763892Y-125452350D01*
X115846897Y-125638782D01*
X115853500Y-125650219D01*
X115925995Y-125750000D01*
X115853501Y-125849780D01*
X115846897Y-125861218D01*
X115763891Y-126047651D01*
X115759810Y-126060211D01*
X115717381Y-126259828D01*
X115716001Y-126272962D01*
X115716001Y-126477038D01*
X115717381Y-126490172D01*
X115759810Y-126689789D01*
X115763892Y-126702350D01*
X115846897Y-126888782D01*
X115853500Y-126900219D01*
X115925995Y-127000000D01*
X115853501Y-127099780D01*
X115846897Y-127111218D01*
X115763891Y-127297651D01*
X115759810Y-127310211D01*
X115717381Y-127509828D01*
X115716001Y-127522962D01*
X115716001Y-127727038D01*
X115717381Y-127740172D01*
X115759810Y-127939789D01*
X115763892Y-127952350D01*
X115846897Y-128138782D01*
X115853500Y-128150219D01*
X115925995Y-128250000D01*
X115853501Y-128349780D01*
X115846897Y-128361218D01*
X115763891Y-128547651D01*
X115759810Y-128560211D01*
X115717381Y-128759828D01*
X115716001Y-128772962D01*
X115716001Y-128977038D01*
X115717381Y-128990172D01*
X115759810Y-129189789D01*
X115763892Y-129202350D01*
X115846897Y-129388782D01*
X115853500Y-129400219D01*
X115925995Y-129500000D01*
X115853501Y-129599780D01*
X115846897Y-129611218D01*
X115763891Y-129797651D01*
X115759810Y-129810211D01*
X115717381Y-130009828D01*
X115716001Y-130022962D01*
X115716001Y-130227038D01*
X115717381Y-130240172D01*
X115759810Y-130439789D01*
X115763892Y-130452350D01*
X115846897Y-130638782D01*
X115853500Y-130650219D01*
X115925995Y-130750000D01*
X115853501Y-130849780D01*
X115846897Y-130861218D01*
X115763891Y-131047651D01*
X115759810Y-131060211D01*
X115717381Y-131259828D01*
X115716001Y-131272962D01*
X115716001Y-131477038D01*
X115717381Y-131490172D01*
X115738387Y-131589000D01*
X114287224Y-131589000D01*
X114286944Y-131588296D01*
X114129247Y-131247007D01*
X114126056Y-131240981D01*
X113932421Y-130918719D01*
X113928598Y-130913072D01*
X113701292Y-130613608D01*
X113696882Y-130608407D01*
X113438564Y-130335244D01*
X113433617Y-130330550D01*
X113147308Y-130086881D01*
X113141883Y-130082749D01*
X113077838Y-130039224D01*
X113404184Y-130039224D01*
X113417614Y-130037780D01*
X113753353Y-129964745D01*
X113774188Y-129956115D01*
X113974620Y-129827304D01*
X113988241Y-129815501D01*
X114142783Y-129637151D01*
X114152527Y-129621989D01*
X114250561Y-129407324D01*
X114255639Y-129390031D01*
X114288582Y-129160907D01*
X114289224Y-129151930D01*
X114289224Y-128495816D01*
X114287780Y-128482386D01*
X114214745Y-128146647D01*
X114206115Y-128125812D01*
X114077304Y-127925380D01*
X114065501Y-127911759D01*
X113937709Y-127801026D01*
X113974620Y-127777304D01*
X113988241Y-127765501D01*
X114142783Y-127587151D01*
X114152527Y-127571989D01*
X114250561Y-127357324D01*
X114255639Y-127340031D01*
X114288582Y-127110907D01*
X114289224Y-127101930D01*
X114289224Y-126976809D01*
X114215415Y-126903000D01*
X113151808Y-126902999D01*
X113151807Y-126903000D01*
X111684585Y-126902999D01*
X111610776Y-126976808D01*
X111610776Y-127104184D01*
X111612220Y-127117614D01*
X111685255Y-127453353D01*
X111693885Y-127474188D01*
X111822696Y-127674620D01*
X111834499Y-127688241D01*
X111837682Y-127690999D01*
X111763583Y-127681638D01*
X111748391Y-127681558D01*
X111490460Y-127711401D01*
X111475687Y-127714948D01*
X111232322Y-127805455D01*
X111218822Y-127812423D01*
X111004070Y-127958368D01*
X110992622Y-127968355D01*
X110818881Y-128161314D01*
X110810145Y-128173743D01*
X110687447Y-128402575D01*
X110681929Y-128416729D01*
X110617355Y-128668222D01*
X110615372Y-128683285D01*
X110612653Y-128942922D01*
X110614321Y-128958023D01*
X110673613Y-129210814D01*
X110678834Y-129225081D01*
X110754710Y-129373995D01*
X110627321Y-129380671D01*
X110620541Y-129381396D01*
X110249415Y-129441505D01*
X110242753Y-129442958D01*
X109880291Y-129542796D01*
X109873824Y-129544960D01*
X109524264Y-129683360D01*
X109518069Y-129686210D01*
X109185500Y-129861553D01*
X109179649Y-129865055D01*
X108867963Y-130075290D01*
X108862524Y-130079403D01*
X108575367Y-130322070D01*
X108570405Y-130326747D01*
X108311134Y-130599008D01*
X108306706Y-130604193D01*
X108078355Y-130902862D01*
X108074512Y-130908495D01*
X107879755Y-131230079D01*
X107876543Y-131236094D01*
X107749797Y-131507901D01*
X107629247Y-131247007D01*
X107626056Y-131240981D01*
X107432421Y-130918719D01*
X107428598Y-130913072D01*
X107201292Y-130613608D01*
X107196882Y-130608407D01*
X106938564Y-130335244D01*
X106933617Y-130330550D01*
X106647308Y-130086881D01*
X106641883Y-130082749D01*
X106330934Y-129871427D01*
X106325095Y-129867905D01*
X105993140Y-129691402D01*
X105986955Y-129688531D01*
X105637881Y-129548912D01*
X105631422Y-129546725D01*
X105269309Y-129445622D01*
X105262652Y-129444146D01*
X104891740Y-129382741D01*
X104884962Y-129381993D01*
X104509586Y-129361006D01*
X104502767Y-129360994D01*
X104127321Y-129380671D01*
X104120541Y-129381396D01*
X103749415Y-129441505D01*
X103742753Y-129442958D01*
X103380291Y-129542796D01*
X103373824Y-129544960D01*
X103024264Y-129683360D01*
X103018069Y-129686210D01*
X102685500Y-129861553D01*
X102679649Y-129865055D01*
X102367963Y-130075290D01*
X102362524Y-130079403D01*
X102075367Y-130322070D01*
X102070405Y-130326747D01*
X101811134Y-130599008D01*
X101806706Y-130604193D01*
X101578355Y-130902862D01*
X101574512Y-130908495D01*
X101379755Y-131230079D01*
X101376543Y-131236094D01*
X101217654Y-131576831D01*
X101215111Y-131583158D01*
X101093951Y-131939061D01*
X101092106Y-131945626D01*
X101010093Y-132312533D01*
X101008967Y-132319259D01*
X100967059Y-132692877D01*
X100966667Y-132699685D01*
X100965355Y-133075644D01*
X100965700Y-133082454D01*
X101004999Y-133456355D01*
X101006077Y-133463088D01*
X101085527Y-133830559D01*
X101087326Y-133837136D01*
X101205998Y-134193878D01*
X101208497Y-134200222D01*
X101365003Y-134542059D01*
X101368172Y-134548097D01*
X101560681Y-134871033D01*
X101564484Y-134876693D01*
X101790743Y-135176949D01*
X101795135Y-135182165D01*
X102052499Y-135456228D01*
X102057429Y-135460939D01*
X102342885Y-135705606D01*
X102348295Y-135709757D01*
X102658506Y-135922163D01*
X102664333Y-135925705D01*
X102995668Y-136103366D01*
X103001843Y-136106259D01*
X103350429Y-136247096D01*
X103356880Y-136249305D01*
X103718637Y-136351672D01*
X103725289Y-136353171D01*
X104095986Y-136415870D01*
X104102761Y-136416642D01*
X104478061Y-136438938D01*
X104484880Y-136438974D01*
X104860391Y-136420609D01*
X104867174Y-136419908D01*
X105238507Y-136361094D01*
X105245175Y-136359665D01*
X105607984Y-136261092D01*
X105614458Y-136258951D01*
X105964499Y-136121771D01*
X105970704Y-136118943D01*
X106303883Y-135944762D01*
X106309746Y-135941281D01*
X106622163Y-135732135D01*
X106627616Y-135728041D01*
X106915620Y-135486378D01*
X106920599Y-135481719D01*
X107180818Y-135210364D01*
X107185264Y-135205195D01*
X107414656Y-134907324D01*
X107418518Y-134901704D01*
X107614398Y-134580802D01*
X107617631Y-134574798D01*
X107750610Y-134292203D01*
X107865003Y-134542059D01*
X107868172Y-134548097D01*
X108060681Y-134871033D01*
X108064484Y-134876693D01*
X108290743Y-135176949D01*
X108295135Y-135182165D01*
X108552499Y-135456228D01*
X108557429Y-135460939D01*
X108842885Y-135705606D01*
X108848295Y-135709757D01*
X109158506Y-135922163D01*
X109164333Y-135925705D01*
X109495668Y-136103366D01*
X109501843Y-136106259D01*
X109850429Y-136247096D01*
X109856880Y-136249305D01*
X110218637Y-136351672D01*
X110225289Y-136353171D01*
X110595986Y-136415870D01*
X110602761Y-136416642D01*
X110709322Y-136422973D01*
X117530096Y-143243749D01*
X117571591Y-143295358D01*
X117580214Y-143304163D01*
X117644205Y-143357859D01*
X117648038Y-143361692D01*
X117652600Y-143365829D01*
X117652808Y-143366000D01*
X104578609Y-143366000D01*
X104880628Y-143212114D01*
X104886895Y-143208452D01*
X105181875Y-143012466D01*
X105187680Y-143008108D01*
X105363420Y-142859595D01*
X105368053Y-142749072D01*
X103352191Y-140733210D01*
X103247809Y-140733210D01*
X101230955Y-142750064D01*
X101236827Y-142862108D01*
X101465260Y-143047090D01*
X101471155Y-143051326D01*
X101770174Y-143241090D01*
X101776517Y-143244620D01*
X102027602Y-143366000D01*
X100634000Y-143366000D01*
X100634000Y-142147983D01*
X100710932Y-142275013D01*
X100715044Y-142280995D01*
X100934439Y-142563839D01*
X101047997Y-142570984D01*
X103066790Y-140552191D01*
X103066790Y-140447809D01*
X103533210Y-140447809D01*
X103533210Y-140552191D01*
X105550690Y-142569671D01*
X105657384Y-142567996D01*
X105705876Y-142516359D01*
X105710534Y-142510789D01*
X105921688Y-142226470D01*
X105925673Y-142220402D01*
X106102749Y-141913699D01*
X106106011Y-141907214D01*
X106246661Y-141582190D01*
X106249155Y-141575373D01*
X106351516Y-141236337D01*
X106353211Y-141229279D01*
X106416101Y-140879749D01*
X106417067Y-140870560D01*
X106434184Y-140325894D01*
X106433797Y-140316661D01*
X106392978Y-139963873D01*
X106391730Y-139956722D01*
X106310859Y-139611928D01*
X106308797Y-139604968D01*
X106188832Y-139271754D01*
X106185985Y-139265077D01*
X106028517Y-138947860D01*
X106024920Y-138941554D01*
X105832036Y-138644539D01*
X105827738Y-138638688D01*
X105660736Y-138436816D01*
X105549451Y-138431568D01*
X103533210Y-140447809D01*
X103066790Y-140447809D01*
X101050982Y-138432001D01*
X100941986Y-138435426D01*
X100831974Y-138560208D01*
X100827495Y-138565921D01*
X100634000Y-138844323D01*
X100634000Y-138250657D01*
X101231676Y-138250657D01*
X103247809Y-140266790D01*
X103352191Y-140266790D01*
X105372309Y-138246672D01*
X105364516Y-138132360D01*
X105053829Y-137896535D01*
X105047803Y-137892486D01*
X104742971Y-137712209D01*
X104736521Y-137708880D01*
X104412987Y-137564833D01*
X104406196Y-137562267D01*
X104068252Y-137456362D01*
X104061211Y-137454594D01*
X103713333Y-137388232D01*
X103706136Y-137387284D01*
X103352936Y-137361348D01*
X103345678Y-137361234D01*
X102991837Y-137376064D01*
X102984614Y-137376784D01*
X102634823Y-137432186D01*
X102627731Y-137433732D01*
X102286625Y-137528971D01*
X102279758Y-137531322D01*
X101951860Y-137665135D01*
X101945308Y-137668260D01*
X101634963Y-137838873D01*
X101628814Y-137842730D01*
X101340135Y-138047883D01*
X101334470Y-138052422D01*
X101234510Y-138142427D01*
X101231676Y-138250657D01*
X100634000Y-138250657D01*
X100634000Y-122144499D01*
X103718163Y-122144499D01*
X103718163Y-123858258D01*
X103720319Y-123874634D01*
X103795137Y-124153859D01*
X103807880Y-124178339D01*
X103938990Y-124334590D01*
X103955879Y-124348761D01*
X104130120Y-124449359D01*
X104150837Y-124456900D01*
X104343538Y-124490878D01*
X104354499Y-124491837D01*
X106068258Y-124491837D01*
X106084634Y-124489681D01*
X106363859Y-124414863D01*
X106388339Y-124402120D01*
X106544590Y-124271010D01*
X106558761Y-124254121D01*
X106659359Y-124079880D01*
X106660897Y-124075654D01*
X106855365Y-124075654D01*
X106863157Y-124189966D01*
X106948791Y-124254967D01*
X106957807Y-124260678D01*
X107171696Y-124372021D01*
X107181545Y-124376131D01*
X107411134Y-124449844D01*
X107421535Y-124452236D01*
X107660262Y-124486212D01*
X107670917Y-124486817D01*
X107911956Y-124480084D01*
X107922561Y-124478885D01*
X108159019Y-124431636D01*
X108169270Y-124428667D01*
X108394387Y-124342253D01*
X108403991Y-124337600D01*
X108632936Y-124201662D01*
X108648285Y-124079304D01*
X107802191Y-123233210D01*
X107697809Y-123233210D01*
X106855365Y-124075654D01*
X106660897Y-124075654D01*
X106666900Y-124059163D01*
X106700527Y-123868454D01*
X107516790Y-123052191D01*
X107516790Y-122947809D01*
X106700490Y-122131509D01*
X106699681Y-122125366D01*
X106624863Y-121846142D01*
X106612120Y-121821662D01*
X106481010Y-121665410D01*
X106464121Y-121651239D01*
X106289880Y-121550641D01*
X106269163Y-121543100D01*
X106076462Y-121509122D01*
X106065501Y-121508163D01*
X104351742Y-121508163D01*
X104335366Y-121510319D01*
X104056142Y-121585137D01*
X104031662Y-121597880D01*
X103875410Y-121728990D01*
X103861239Y-121745879D01*
X103760641Y-121920120D01*
X103753100Y-121940837D01*
X103719122Y-122133538D01*
X103718163Y-122144499D01*
X100634000Y-122144499D01*
X100634000Y-120750064D01*
X101230955Y-120750064D01*
X101236827Y-120862108D01*
X101465260Y-121047090D01*
X101471155Y-121051326D01*
X101770174Y-121241090D01*
X101776517Y-121244620D01*
X102095367Y-121398759D01*
X102102073Y-121401537D01*
X102436524Y-121518005D01*
X102443506Y-121519994D01*
X102789128Y-121597249D01*
X102796292Y-121598422D01*
X103148503Y-121635441D01*
X103155754Y-121635783D01*
X103509886Y-121632075D01*
X103517128Y-121631581D01*
X103868486Y-121587194D01*
X103875623Y-121585871D01*
X104219552Y-121501394D01*
X104226490Y-121499260D01*
X104558430Y-121375812D01*
X104565077Y-121372895D01*
X104880628Y-121212114D01*
X104886895Y-121208452D01*
X105181875Y-121012466D01*
X105187680Y-121008108D01*
X105363420Y-120859595D01*
X105368053Y-120749072D01*
X103352191Y-118733210D01*
X103247809Y-118733210D01*
X101230955Y-120750064D01*
X100634000Y-120750064D01*
X100634000Y-120147983D01*
X100710932Y-120275013D01*
X100715044Y-120280995D01*
X100934439Y-120563839D01*
X101047997Y-120570984D01*
X103066790Y-118552191D01*
X103066790Y-118447809D01*
X103533210Y-118447809D01*
X103533210Y-118552191D01*
X105550690Y-120569671D01*
X105657384Y-120567996D01*
X105705876Y-120516359D01*
X105710534Y-120510789D01*
X105921688Y-120226470D01*
X105925673Y-120220402D01*
X106102749Y-119913699D01*
X106106011Y-119907214D01*
X106246661Y-119582190D01*
X106249155Y-119575373D01*
X106351516Y-119236337D01*
X106353211Y-119229279D01*
X106416101Y-118879749D01*
X106417067Y-118870560D01*
X106434184Y-118325894D01*
X106433797Y-118316661D01*
X106392978Y-117963873D01*
X106391730Y-117956722D01*
X106310859Y-117611928D01*
X106308797Y-117604968D01*
X106188832Y-117271754D01*
X106185985Y-117265077D01*
X106028517Y-116947860D01*
X106024920Y-116941554D01*
X105832036Y-116644539D01*
X105827738Y-116638688D01*
X105660736Y-116436816D01*
X105549451Y-116431568D01*
X103533210Y-118447809D01*
X103066790Y-118447809D01*
X101050982Y-116432001D01*
X100941986Y-116435426D01*
X100831974Y-116560208D01*
X100827495Y-116565921D01*
X100634000Y-116844323D01*
X100634000Y-115634000D01*
X102028154Y-115634000D01*
X101951860Y-115665135D01*
G37*
D25*
X101951860Y-115665135D02*
X101945308Y-115668260D01*
X101634963Y-115838873D01*
X101628814Y-115842730D01*
X101340135Y-116047883D01*
X101334470Y-116052422D01*
X101234510Y-116142427D01*
X101231676Y-116250657D01*
X103247809Y-118266790D01*
X103352191Y-118266790D01*
X105372309Y-116246672D01*
X105364516Y-116132360D01*
X105053829Y-115896535D01*
X105047803Y-115892486D01*
X104742971Y-115712209D01*
X104736521Y-115708880D01*
X104568338Y-115634000D01*
X177928154Y-115634000D01*
X177851860Y-115665135D01*
X177845308Y-115668260D01*
X177534963Y-115838873D01*
X177528814Y-115842730D01*
X177240135Y-116047883D01*
X177234470Y-116052422D01*
X177134510Y-116142427D01*
X177131676Y-116250657D01*
X179147809Y-118266790D01*
X179252191Y-118266790D01*
X181272309Y-116246672D01*
X181264516Y-116132360D01*
X180953829Y-115896535D01*
X180947803Y-115892486D01*
X180642971Y-115712209D01*
X180636521Y-115708880D01*
X180468338Y-115634000D01*
X181866000Y-115634000D01*
X181866000Y-116850825D01*
X181732036Y-116644539D01*
X181727738Y-116638688D01*
X181560736Y-116436816D01*
X181449451Y-116431568D01*
X179433210Y-118447809D01*
X179433210Y-118552191D01*
X181450690Y-120569671D01*
X181557384Y-120567996D01*
X181605876Y-120516359D01*
X181610534Y-120510789D01*
X181821688Y-120226470D01*
X181825673Y-120220402D01*
X181866000Y-120150554D01*
X181866001Y-138850827D01*
X181732036Y-138644539D01*
X181727738Y-138638688D01*
X181560736Y-138436816D01*
X181449451Y-138431568D01*
X179433210Y-140447809D01*
X179433210Y-140552191D01*
X181450690Y-142569671D01*
X181557384Y-142567996D01*
X181605876Y-142516359D01*
X181610534Y-142510789D01*
X181821688Y-142226470D01*
X181825673Y-142220402D01*
X181866001Y-142150552D01*
X181866001Y-143366000D01*
X180478609Y-143366000D01*
X180780628Y-143212114D01*
X180786895Y-143208452D01*
X181081875Y-143012466D01*
X181087680Y-143008108D01*
X181263420Y-142859595D01*
X181268053Y-142749072D01*
X179252191Y-140733210D01*
X179147809Y-140733210D01*
X177130955Y-142750064D01*
X177136827Y-142862108D01*
X177365260Y-143047090D01*
X177371155Y-143051326D01*
X177670174Y-143241090D01*
X177676517Y-143244620D01*
X177927602Y-143366000D01*
X163446394Y-143366000D01*
X163450436Y-143362727D01*
X163455340Y-143358312D01*
X166235108Y-140578544D01*
X176061884Y-140578544D01*
X176062074Y-140585801D01*
X176091709Y-140938709D01*
X176092731Y-140945896D01*
X176162731Y-141293060D01*
X176164573Y-141300081D01*
X176274012Y-141636899D01*
X176276649Y-141643662D01*
X176424075Y-141965669D01*
X176427472Y-141972085D01*
X176610932Y-142275013D01*
X176615044Y-142280995D01*
X176834439Y-142563839D01*
X176947997Y-142570984D01*
X178966790Y-140552191D01*
X178966790Y-140447809D01*
X176950982Y-138432001D01*
X176841986Y-138435426D01*
X176731974Y-138560208D01*
X176727495Y-138565921D01*
X176525376Y-138856731D01*
X176521583Y-138862921D01*
X176354229Y-139175035D01*
X176351172Y-139181620D01*
X176220801Y-139510901D01*
X176218522Y-139517793D01*
X176126861Y-139859877D01*
X176125389Y-139866985D01*
X176073653Y-140217337D01*
X176073008Y-140224568D01*
X176061884Y-140578544D01*
X166235108Y-140578544D01*
X168562995Y-138250657D01*
X177131676Y-138250657D01*
X179147809Y-140266790D01*
X179252191Y-140266790D01*
X181272309Y-138246672D01*
X181264516Y-138132360D01*
X180953829Y-137896535D01*
X180947803Y-137892486D01*
X180642971Y-137712209D01*
X180636521Y-137708880D01*
X180312987Y-137564833D01*
X180306196Y-137562267D01*
X179968252Y-137456362D01*
X179961211Y-137454594D01*
X179613333Y-137388232D01*
X179606136Y-137387284D01*
X179252936Y-137361348D01*
X179245678Y-137361234D01*
X178891837Y-137376064D01*
X178884614Y-137376784D01*
X178534823Y-137432186D01*
X178527731Y-137433732D01*
X178186625Y-137528971D01*
X178179758Y-137531322D01*
X177851860Y-137665135D01*
X177845308Y-137668260D01*
X177534963Y-137838873D01*
X177528814Y-137842730D01*
X177240135Y-138047883D01*
X177234470Y-138052422D01*
X177134510Y-138142427D01*
X177131676Y-138250657D01*
X168562995Y-138250657D01*
X170540644Y-136273008D01*
X170818637Y-136351672D01*
X170825289Y-136353171D01*
X171195986Y-136415870D01*
X171202761Y-136416642D01*
X171578061Y-136438938D01*
X171584880Y-136438974D01*
X171960391Y-136420609D01*
X171967174Y-136419908D01*
X172338507Y-136361094D01*
X172345175Y-136359665D01*
X172707984Y-136261092D01*
X172714458Y-136258951D01*
X173064499Y-136121771D01*
X173070704Y-136118943D01*
X173403883Y-135944762D01*
X173409746Y-135941281D01*
X173722163Y-135732135D01*
X173727616Y-135728041D01*
X174015620Y-135486378D01*
X174020599Y-135481719D01*
X174280818Y-135210364D01*
X174285264Y-135205195D01*
X174514656Y-134907324D01*
X174518518Y-134901704D01*
X174714398Y-134580802D01*
X174717631Y-134574798D01*
X174850610Y-134292203D01*
X174965003Y-134542059D01*
X174968172Y-134548097D01*
X175160681Y-134871033D01*
X175164484Y-134876693D01*
X175390743Y-135176949D01*
X175395135Y-135182165D01*
X175652499Y-135456228D01*
X175657429Y-135460939D01*
X175942885Y-135705606D01*
X175948295Y-135709757D01*
X176258506Y-135922163D01*
X176264333Y-135925705D01*
X176595668Y-136103366D01*
X176601843Y-136106259D01*
X176950429Y-136247096D01*
X176956880Y-136249305D01*
X177318637Y-136351672D01*
X177325289Y-136353171D01*
X177695986Y-136415870D01*
X177702761Y-136416642D01*
X178078061Y-136438938D01*
X178084880Y-136438974D01*
X178460391Y-136420609D01*
X178467174Y-136419908D01*
X178838507Y-136361094D01*
X178845175Y-136359665D01*
X179207984Y-136261092D01*
X179214458Y-136258951D01*
X179564499Y-136121771D01*
X179570704Y-136118943D01*
X179903883Y-135944762D01*
X179909746Y-135941281D01*
X180222163Y-135732135D01*
X180227616Y-135728041D01*
X180515620Y-135486378D01*
X180520599Y-135481719D01*
X180780818Y-135210364D01*
X180785264Y-135205195D01*
X181014656Y-134907324D01*
X181018518Y-134901704D01*
X181214398Y-134580802D01*
X181217631Y-134574798D01*
X181377707Y-134234618D01*
X181380272Y-134228300D01*
X181502673Y-133872822D01*
X181504541Y-133866264D01*
X181587835Y-133499645D01*
X181588984Y-133492924D01*
X181632208Y-133119345D01*
X181632626Y-133112318D01*
X181634023Y-132712349D01*
X181633654Y-132705320D01*
X181593038Y-132331447D01*
X181591936Y-132324718D01*
X181511205Y-131957528D01*
X181509382Y-131950956D01*
X181389465Y-131594632D01*
X181386944Y-131588296D01*
X181229247Y-131247007D01*
X181226056Y-131240981D01*
X181032421Y-130918719D01*
X181028598Y-130913072D01*
X180801292Y-130613608D01*
X180796882Y-130608407D01*
X180538564Y-130335244D01*
X180533617Y-130330550D01*
X180247308Y-130086881D01*
X180241883Y-130082749D01*
X179930934Y-129871427D01*
X179925095Y-129867905D01*
X179593140Y-129691402D01*
X179586955Y-129688531D01*
X179237881Y-129548912D01*
X179231422Y-129546725D01*
X178869309Y-129445622D01*
X178862652Y-129444146D01*
X178491740Y-129382741D01*
X178484962Y-129381993D01*
X178109586Y-129361006D01*
X178102767Y-129360994D01*
X177727321Y-129380671D01*
X177720541Y-129381396D01*
X177349415Y-129441505D01*
X177342753Y-129442958D01*
X176980291Y-129542796D01*
X176973824Y-129544960D01*
X176624264Y-129683360D01*
X176618069Y-129686210D01*
X176285500Y-129861553D01*
X176279649Y-129865055D01*
X175967963Y-130075290D01*
X175962524Y-130079403D01*
X175675367Y-130322070D01*
X175670405Y-130326747D01*
X175411134Y-130599008D01*
X175406706Y-130604193D01*
X175178355Y-130902862D01*
X175174512Y-130908495D01*
X174979755Y-131230079D01*
X174976543Y-131236094D01*
X174849797Y-131507901D01*
X174729247Y-131247007D01*
X174726056Y-131240981D01*
X174532421Y-130918719D01*
X174528598Y-130913072D01*
X174301292Y-130613608D01*
X174296882Y-130608407D01*
X174038564Y-130335244D01*
X174033617Y-130330550D01*
X173747308Y-130086881D01*
X173741883Y-130082749D01*
X173430934Y-129871427D01*
X173425095Y-129867905D01*
X173093140Y-129691402D01*
X173086955Y-129688531D01*
X172737881Y-129548912D01*
X172731422Y-129546725D01*
X172369309Y-129445622D01*
X172362652Y-129444146D01*
X172312111Y-129435779D01*
X172497864Y-129416256D01*
X172512673Y-129412864D01*
X172756973Y-129324910D01*
X172770545Y-129318084D01*
X172986814Y-129174395D01*
X172998367Y-129164529D01*
X173174118Y-128973400D01*
X173182983Y-128961062D01*
X173308071Y-128733528D01*
X173313738Y-128719433D01*
X173381026Y-128468309D01*
X173383178Y-128452601D01*
X173386125Y-128171164D01*
X173384303Y-128155414D01*
X173322289Y-127902936D01*
X173316919Y-127888724D01*
X173196623Y-127658621D01*
X173188018Y-127646100D01*
X173016307Y-127451334D01*
X173004964Y-127441227D01*
X172791752Y-127293041D01*
X172778326Y-127285932D01*
X172535921Y-127192882D01*
X172521186Y-127189181D01*
X172263583Y-127156638D01*
X172248391Y-127156558D01*
X172168294Y-127165825D01*
X172181026Y-127118309D01*
X172182770Y-127105578D01*
X172641771Y-126646578D01*
X172661974Y-126732713D01*
X172667195Y-126746980D01*
X172785074Y-126978330D01*
X172793547Y-126990940D01*
X172963208Y-127187494D01*
X172974445Y-127197719D01*
X173186093Y-127348129D01*
X173199444Y-127355378D01*
X173440862Y-127450963D01*
X173455557Y-127454818D01*
X173712806Y-127490056D01*
X173727996Y-127490295D01*
X173986225Y-127463155D01*
X174001034Y-127459763D01*
X174245334Y-127371809D01*
X174258906Y-127364983D01*
X174420080Y-127257899D01*
X176393405Y-127257899D01*
X176444842Y-127264671D01*
X176461360Y-127264671D01*
X176516893Y-127257360D01*
X176516904Y-127257359D01*
X176682661Y-127235537D01*
X176698615Y-127231262D01*
X176904835Y-127145843D01*
X176919140Y-127137584D01*
X176930918Y-127128547D01*
X177047864Y-127116256D01*
X177062673Y-127112864D01*
X177306973Y-127024910D01*
X177320545Y-127018084D01*
X177536814Y-126874395D01*
X177548367Y-126864529D01*
X177724118Y-126673400D01*
X177732983Y-126661062D01*
X177858071Y-126433528D01*
X177863738Y-126419433D01*
X177931026Y-126168309D01*
X177933178Y-126152601D01*
X177936125Y-125871164D01*
X177934303Y-125855414D01*
X177872289Y-125602936D01*
X177866919Y-125588724D01*
X177746623Y-125358621D01*
X177738018Y-125346100D01*
X177566307Y-125151334D01*
X177554964Y-125141227D01*
X177341752Y-124993041D01*
X177328326Y-124985932D01*
X177085921Y-124892882D01*
X177071186Y-124889181D01*
X176852730Y-124861583D01*
X176746623Y-124658621D01*
X176738018Y-124646100D01*
X176566307Y-124451334D01*
X176554964Y-124441227D01*
X176341752Y-124293041D01*
X176328326Y-124285932D01*
X176085921Y-124192882D01*
X176071186Y-124189181D01*
X175813583Y-124156638D01*
X175798391Y-124156558D01*
X175737713Y-124163578D01*
X175748285Y-124079304D01*
X174902191Y-123233210D01*
X174797809Y-123233210D01*
X173955365Y-124075654D01*
X173963157Y-124189966D01*
X174048791Y-124254967D01*
X174057807Y-124260678D01*
X174271696Y-124372021D01*
X174281545Y-124376131D01*
X174321627Y-124389000D01*
X173503975Y-124389000D01*
X173644590Y-124271010D01*
X173658761Y-124254121D01*
X173759359Y-124079880D01*
X173766900Y-124059163D01*
X173800527Y-123868454D01*
X174616790Y-123052191D01*
X174616790Y-122947809D01*
X175083210Y-122947809D01*
X175083210Y-123052191D01*
X175930119Y-123899100D01*
X176053085Y-123883129D01*
X176119486Y-123769043D01*
X176217430Y-123917584D01*
X176224038Y-123925965D01*
X176388798Y-124102032D01*
X176396722Y-124109180D01*
X176588792Y-124254968D01*
X176597808Y-124260679D01*
X176811696Y-124372021D01*
X176821545Y-124376131D01*
X177051134Y-124449844D01*
X177061535Y-124452236D01*
X177300262Y-124486212D01*
X177310917Y-124486817D01*
X177551956Y-124480084D01*
X177562561Y-124478885D01*
X177799019Y-124431636D01*
X177809270Y-124428667D01*
X178034387Y-124342253D01*
X178043991Y-124337600D01*
X178251330Y-124214491D01*
X178260012Y-124208286D01*
X178443645Y-124052004D01*
X178451158Y-124044424D01*
X178605833Y-123859435D01*
X178611962Y-123850698D01*
X178733256Y-123642294D01*
X178737825Y-123632650D01*
X178822272Y-123406787D01*
X178825151Y-123396511D01*
X178870392Y-123159351D01*
X178871507Y-123148128D01*
X178874077Y-122880341D01*
X178873178Y-122869099D01*
X178832499Y-122631114D01*
X178829817Y-122620784D01*
X178749723Y-122393343D01*
X178745339Y-122383612D01*
X178628067Y-122172916D01*
X178622107Y-122164064D01*
X178471013Y-121976140D01*
X178463647Y-121968417D01*
X178283049Y-121808638D01*
X178274486Y-121802267D01*
X178069549Y-121675202D01*
X178060036Y-121670365D01*
X177836619Y-121579645D01*
X177826427Y-121576480D01*
X177590919Y-121524700D01*
X177580340Y-121523298D01*
X177339475Y-121511939D01*
X177328809Y-121512339D01*
X177089474Y-121541727D01*
X177079030Y-121543918D01*
X176848068Y-121613210D01*
X176838142Y-121617130D01*
X176622155Y-121724346D01*
X176613032Y-121729882D01*
X176418199Y-121871957D01*
X176410138Y-121878952D01*
X176242029Y-122051822D01*
X176235263Y-122060074D01*
X176119229Y-122228903D01*
X176088068Y-122172917D01*
X176082109Y-122164066D01*
X176038981Y-122110422D01*
X175926682Y-122104337D01*
X175083210Y-122947809D01*
X174616790Y-122947809D01*
X173800490Y-122131509D01*
X173799681Y-122125366D01*
X173745890Y-121924615D01*
X173955634Y-121924615D01*
X174797809Y-122766790D01*
X174902191Y-122766790D01*
X175746767Y-121922214D01*
X175732765Y-121801199D01*
X175529549Y-121675201D01*
X175520036Y-121670365D01*
X175296619Y-121579645D01*
X175286427Y-121576480D01*
X175050919Y-121524700D01*
X175040340Y-121523298D01*
X174799475Y-121511939D01*
X174788809Y-121512339D01*
X174549474Y-121541727D01*
X174539030Y-121543918D01*
X174308068Y-121613210D01*
X174298142Y-121617130D01*
X174082156Y-121724346D01*
X174073032Y-121729882D01*
X173964638Y-121808924D01*
X173955634Y-121924615D01*
X173745890Y-121924615D01*
X173724863Y-121846142D01*
X173712120Y-121821662D01*
X173581010Y-121665410D01*
X173564121Y-121651239D01*
X173389880Y-121550641D01*
X173369163Y-121543100D01*
X173176462Y-121509122D01*
X173165501Y-121508163D01*
X171496308Y-121508163D01*
X171488018Y-121496100D01*
X171316307Y-121301334D01*
X171304964Y-121291227D01*
X171091752Y-121143041D01*
X171078326Y-121135932D01*
X170835921Y-121042882D01*
X170821186Y-121039181D01*
X170713986Y-121025639D01*
X170561394Y-120873047D01*
X170529802Y-120831875D01*
X170518123Y-120820196D01*
X170426726Y-120750064D01*
X177130955Y-120750064D01*
X177136827Y-120862108D01*
X177365260Y-121047090D01*
X177371155Y-121051326D01*
X177670174Y-121241090D01*
X177676517Y-121244620D01*
X177995367Y-121398759D01*
X178002073Y-121401537D01*
X178336524Y-121518005D01*
X178343506Y-121519994D01*
X178689128Y-121597249D01*
X178696292Y-121598422D01*
X179048503Y-121635441D01*
X179055754Y-121635783D01*
X179409886Y-121632075D01*
X179417128Y-121631581D01*
X179768486Y-121587194D01*
X179775623Y-121585871D01*
X180119552Y-121501394D01*
X180126490Y-121499260D01*
X180458430Y-121375812D01*
X180465077Y-121372895D01*
X180780628Y-121212114D01*
X180786895Y-121208452D01*
X181081875Y-121012466D01*
X181087680Y-121008108D01*
X181263420Y-120859595D01*
X181268053Y-120749072D01*
X179252191Y-118733210D01*
X179147809Y-118733210D01*
X177130955Y-120750064D01*
X170426726Y-120750064D01*
X170341037Y-120684313D01*
X170326733Y-120676055D01*
X170120513Y-120590636D01*
X170104559Y-120586361D01*
X169938802Y-120564539D01*
X169938791Y-120564538D01*
X169931671Y-120563601D01*
X169933178Y-120552601D01*
X169936125Y-120271164D01*
X169934303Y-120255414D01*
X169872289Y-120002936D01*
X169866919Y-119988724D01*
X169747867Y-119761000D01*
X172470766Y-119761000D01*
X172597732Y-119851230D01*
X172611083Y-119858479D01*
X172852501Y-119954064D01*
X172867196Y-119957919D01*
X173124445Y-119993157D01*
X173139635Y-119993396D01*
X173397864Y-119966256D01*
X173412673Y-119962864D01*
X173656973Y-119874910D01*
X173670545Y-119868084D01*
X173886814Y-119724395D01*
X173898367Y-119714529D01*
X174074118Y-119523400D01*
X174082983Y-119511062D01*
X174208071Y-119283528D01*
X174213738Y-119269433D01*
X174281026Y-119018309D01*
X174283178Y-119002601D01*
X174286125Y-118721164D01*
X174284303Y-118705414D01*
X174253142Y-118578544D01*
X176061884Y-118578544D01*
X176062074Y-118585801D01*
X176091709Y-118938709D01*
X176092731Y-118945896D01*
X176162731Y-119293060D01*
X176164573Y-119300081D01*
X176274012Y-119636899D01*
X176276649Y-119643662D01*
X176424075Y-119965669D01*
X176427472Y-119972085D01*
X176610932Y-120275013D01*
X176615044Y-120280995D01*
X176834439Y-120563839D01*
X176947997Y-120570984D01*
X178966790Y-118552191D01*
X178966790Y-118447809D01*
X176950982Y-116432001D01*
X176841986Y-116435426D01*
X176731974Y-116560208D01*
X176727495Y-116565921D01*
X176525376Y-116856731D01*
X176521583Y-116862921D01*
X176354229Y-117175035D01*
X176351172Y-117181620D01*
X176220801Y-117510901D01*
X176218522Y-117517793D01*
X176126861Y-117859877D01*
X176125389Y-117866985D01*
X176073653Y-118217337D01*
X176073008Y-118224568D01*
X176061884Y-118578544D01*
X174253142Y-118578544D01*
X174222289Y-118452936D01*
X174216919Y-118438724D01*
X174096623Y-118208621D01*
X174088018Y-118196100D01*
X173916307Y-118001334D01*
X173904964Y-117991227D01*
X173691752Y-117843041D01*
X173678326Y-117835932D01*
X173435921Y-117742882D01*
X173421186Y-117739181D01*
X173163583Y-117706638D01*
X173148391Y-117706558D01*
X172890460Y-117736401D01*
X172875687Y-117739948D01*
X172632322Y-117830455D01*
X172618822Y-117837423D01*
X172469357Y-117939000D01*
X153379819Y-117939000D01*
X153241752Y-117843041D01*
X153228326Y-117835932D01*
X152985921Y-117742882D01*
X152971186Y-117739181D01*
X152713583Y-117706638D01*
X152698391Y-117706558D01*
X152440460Y-117736401D01*
X152425687Y-117739948D01*
X152182322Y-117830455D01*
X152168822Y-117837423D01*
X152019357Y-117939000D01*
X148579819Y-117939000D01*
X148441752Y-117843041D01*
X148428326Y-117835932D01*
X148185921Y-117742882D01*
X148171186Y-117739181D01*
X147913583Y-117706638D01*
X147898391Y-117706558D01*
X147640460Y-117736401D01*
X147625687Y-117739948D01*
X147382322Y-117830455D01*
X147368822Y-117837423D01*
X147219357Y-117939000D01*
X128879819Y-117939000D01*
X128741752Y-117843041D01*
X128728326Y-117835932D01*
X128485921Y-117742882D01*
X128471186Y-117739181D01*
X128213583Y-117706638D01*
X128198391Y-117706558D01*
X127940460Y-117736401D01*
X127925687Y-117739948D01*
X127682322Y-117830455D01*
X127668822Y-117837423D01*
X127454070Y-117983368D01*
X127442622Y-117993355D01*
X127268881Y-118186314D01*
X127260145Y-118198743D01*
X127137447Y-118427575D01*
X127131929Y-118441729D01*
X127067355Y-118693222D01*
X127065372Y-118708285D01*
X127062653Y-118967922D01*
X127064321Y-118983023D01*
X127123613Y-119235814D01*
X127128834Y-119250081D01*
X127246713Y-119481431D01*
X127255186Y-119494041D01*
X127424847Y-119690595D01*
X127436084Y-119700820D01*
X127499254Y-119745713D01*
X127488091Y-119756876D01*
X127456499Y-119798048D01*
X127098041Y-120156505D01*
X127056877Y-120188091D01*
X127045198Y-120199770D01*
X127011094Y-120244215D01*
X127011092Y-120244217D01*
X126929103Y-120351067D01*
X126909315Y-120376856D01*
X126901057Y-120391160D01*
X126815637Y-120597379D01*
X126811362Y-120613334D01*
X126789540Y-120779091D01*
X126789539Y-120779102D01*
X126782228Y-120834635D01*
X126782228Y-120851152D01*
X126784564Y-120868896D01*
X126768881Y-120886314D01*
X126760145Y-120898743D01*
X126637447Y-121127575D01*
X126631929Y-121141729D01*
X126567355Y-121393222D01*
X126565372Y-121408285D01*
X126562653Y-121667922D01*
X126564321Y-121683023D01*
X126623613Y-121935814D01*
X126628834Y-121950081D01*
X126746713Y-122181431D01*
X126755186Y-122194041D01*
X126924847Y-122390595D01*
X126936084Y-122400820D01*
X127004308Y-122449304D01*
X126967355Y-122593222D01*
X126965372Y-122608285D01*
X126962653Y-122867922D01*
X126964321Y-122883023D01*
X127023613Y-123135814D01*
X127028834Y-123150081D01*
X127146713Y-123381431D01*
X127155186Y-123394041D01*
X127324847Y-123590595D01*
X127336084Y-123600820D01*
X127547732Y-123751230D01*
X127561083Y-123758479D01*
X127802501Y-123854064D01*
X127817196Y-123857919D01*
X128074445Y-123893157D01*
X128089635Y-123893396D01*
X128347864Y-123866256D01*
X128362673Y-123862864D01*
X128606973Y-123774910D01*
X128620545Y-123768084D01*
X128836814Y-123624395D01*
X128848367Y-123614529D01*
X129024118Y-123423400D01*
X129032983Y-123411063D01*
X129087993Y-123311000D01*
X132797302Y-123311000D01*
X132848739Y-123317772D01*
X132865257Y-123317772D01*
X132920790Y-123310461D01*
X132920801Y-123310460D01*
X133086558Y-123288638D01*
X133102512Y-123284363D01*
X133308732Y-123198944D01*
X133323036Y-123190686D01*
X133500122Y-123054803D01*
X133511801Y-123043124D01*
X133543393Y-123001952D01*
X134159346Y-122385999D01*
X143540169Y-122385999D01*
X143437447Y-122577575D01*
X143431929Y-122591729D01*
X143367355Y-122843222D01*
X143365372Y-122858285D01*
X143362653Y-123117922D01*
X143364321Y-123133023D01*
X143423613Y-123385814D01*
X143428834Y-123400081D01*
X143546713Y-123631431D01*
X143555186Y-123644041D01*
X143724847Y-123840595D01*
X143736084Y-123850820D01*
X143891109Y-123960990D01*
X143882833Y-123993223D01*
X143880850Y-124008285D01*
X143878696Y-124214000D01*
X125054819Y-124214000D01*
X124916752Y-124118041D01*
X124903326Y-124110932D01*
X124660921Y-124017882D01*
X124646186Y-124014181D01*
X124388583Y-123981638D01*
X124373391Y-123981558D01*
X124115460Y-124011401D01*
X124100687Y-124014948D01*
X123857322Y-124105455D01*
X123843822Y-124112423D01*
X123694357Y-124214000D01*
X118230922Y-124214000D01*
X118236109Y-124202349D01*
X118240190Y-124189789D01*
X118282619Y-123990172D01*
X118283999Y-123977038D01*
X118283999Y-123772962D01*
X118282619Y-123759828D01*
X118240190Y-123560211D01*
X118236108Y-123547650D01*
X118153103Y-123361218D01*
X118146500Y-123349781D01*
X118074005Y-123250000D01*
X118146499Y-123150220D01*
X118153103Y-123138782D01*
X118236109Y-122952349D01*
X118240190Y-122939789D01*
X118282619Y-122740172D01*
X118283999Y-122727038D01*
X118283999Y-122522962D01*
X118282619Y-122509828D01*
X118266927Y-122436000D01*
X122920766Y-122436000D01*
X123047732Y-122526230D01*
X123061083Y-122533479D01*
X123302501Y-122629064D01*
X123317196Y-122632919D01*
X123574445Y-122668157D01*
X123589635Y-122668396D01*
X123847864Y-122641256D01*
X123862673Y-122637864D01*
X124106973Y-122549910D01*
X124120545Y-122543084D01*
X124336814Y-122399395D01*
X124348367Y-122389529D01*
X124524118Y-122198400D01*
X124532983Y-122186062D01*
X124658071Y-121958528D01*
X124663738Y-121944433D01*
X124731026Y-121693309D01*
X124733178Y-121677601D01*
X124733789Y-121619260D01*
X124856973Y-121574910D01*
X124870545Y-121568084D01*
X125086814Y-121424395D01*
X125098367Y-121414529D01*
X125274118Y-121223400D01*
X125282983Y-121211062D01*
X125408071Y-120983528D01*
X125413738Y-120969433D01*
X125481026Y-120718309D01*
X125483178Y-120702601D01*
X125486125Y-120421164D01*
X125484303Y-120405414D01*
X125422289Y-120152936D01*
X125416919Y-120138724D01*
X125296623Y-119908621D01*
X125288018Y-119896100D01*
X125116307Y-119701334D01*
X125104964Y-119691227D01*
X124891752Y-119543041D01*
X124883846Y-119538855D01*
X124886125Y-119321164D01*
X124884303Y-119305414D01*
X124822289Y-119052936D01*
X124816919Y-119038724D01*
X124696623Y-118808621D01*
X124688018Y-118796100D01*
X124516307Y-118601334D01*
X124504964Y-118591227D01*
X124291752Y-118443041D01*
X124278326Y-118435932D01*
X124035921Y-118342882D01*
X124021186Y-118339181D01*
X123763583Y-118306638D01*
X123748391Y-118306558D01*
X123490460Y-118336401D01*
X123475687Y-118339948D01*
X123232322Y-118430455D01*
X123218822Y-118437423D01*
X123069357Y-118539000D01*
X121329809Y-118539000D01*
X121191742Y-118443041D01*
X121178316Y-118435932D01*
X120935911Y-118342882D01*
X120921176Y-118339181D01*
X120663573Y-118306638D01*
X120648381Y-118306558D01*
X120390450Y-118336401D01*
X120375677Y-118339948D01*
X120132312Y-118430455D01*
X120118812Y-118437423D01*
X119969347Y-118539000D01*
X111379819Y-118539000D01*
X111241752Y-118443041D01*
X111228326Y-118435932D01*
X110985921Y-118342882D01*
X110971186Y-118339181D01*
X110713583Y-118306638D01*
X110698391Y-118306558D01*
X110440460Y-118336401D01*
X110425687Y-118339948D01*
X110182322Y-118430455D01*
X110168822Y-118437423D01*
X109954070Y-118583368D01*
X109942622Y-118593355D01*
X109768881Y-118786314D01*
X109760145Y-118798743D01*
X109637447Y-119027575D01*
X109631929Y-119041729D01*
X109567355Y-119293222D01*
X109565372Y-119308285D01*
X109562653Y-119567922D01*
X109564321Y-119583023D01*
X109577450Y-119639000D01*
X108129819Y-119639000D01*
X107991752Y-119543041D01*
X107978326Y-119535932D01*
X107735921Y-119442882D01*
X107721186Y-119439181D01*
X107463583Y-119406638D01*
X107448391Y-119406558D01*
X107190460Y-119436401D01*
X107175687Y-119439948D01*
X106932322Y-119530455D01*
X106918822Y-119537423D01*
X106704070Y-119683368D01*
X106692622Y-119693355D01*
X106518881Y-119886314D01*
X106510145Y-119898743D01*
X106387447Y-120127575D01*
X106381929Y-120141729D01*
X106317355Y-120393222D01*
X106315372Y-120408285D01*
X106312653Y-120667922D01*
X106314321Y-120683023D01*
X106373613Y-120935814D01*
X106378834Y-120950081D01*
X106496713Y-121181431D01*
X106505186Y-121194041D01*
X106674847Y-121390595D01*
X106686084Y-121400820D01*
X106897732Y-121551230D01*
X106911083Y-121558479D01*
X107136501Y-121647729D01*
X106982156Y-121724346D01*
X106973032Y-121729882D01*
X106864638Y-121808924D01*
X106855634Y-121924615D01*
X107697809Y-122766790D01*
X107802191Y-122766790D01*
X108646767Y-121922214D01*
X108632765Y-121801199D01*
X108429549Y-121675201D01*
X108420036Y-121670365D01*
X108196619Y-121579645D01*
X108186427Y-121576480D01*
X108014727Y-121538729D01*
X108131719Y-121461000D01*
X113507650Y-121461000D01*
X111761220Y-123207431D01*
X111770392Y-123159351D01*
X111771507Y-123148128D01*
X111774077Y-122880341D01*
X111773178Y-122869099D01*
X111732499Y-122631114D01*
X111729817Y-122620784D01*
X111649723Y-122393343D01*
X111645339Y-122383612D01*
X111528067Y-122172916D01*
X111522107Y-122164064D01*
X111371013Y-121976140D01*
X111363647Y-121968417D01*
X111183049Y-121808638D01*
X111174486Y-121802267D01*
X110969549Y-121675202D01*
X110960036Y-121670365D01*
X110736619Y-121579645D01*
X110726427Y-121576480D01*
X110490919Y-121524700D01*
X110480340Y-121523298D01*
X110239475Y-121511939D01*
X110228809Y-121512339D01*
X109989474Y-121541727D01*
X109979030Y-121543918D01*
X109748068Y-121613210D01*
X109738142Y-121617130D01*
X109522155Y-121724346D01*
X109513032Y-121729882D01*
X109318199Y-121871957D01*
X109310138Y-121878952D01*
X109142029Y-122051822D01*
X109135263Y-122060074D01*
X109019229Y-122228903D01*
X108988068Y-122172917D01*
X108982109Y-122164066D01*
X108938981Y-122110422D01*
X108826682Y-122104337D01*
X107983210Y-122947809D01*
X107983210Y-123052191D01*
X108830119Y-123899100D01*
X108953085Y-123883129D01*
X109019486Y-123769043D01*
X109117430Y-123917584D01*
X109124038Y-123925965D01*
X109288798Y-124102032D01*
X109296722Y-124109180D01*
X109488792Y-124254968D01*
X109497808Y-124260679D01*
X109711696Y-124372021D01*
X109721545Y-124376131D01*
X109951134Y-124449844D01*
X109961535Y-124452236D01*
X110200262Y-124486212D01*
X110210917Y-124486817D01*
X110451956Y-124480084D01*
X110462561Y-124478885D01*
X110496560Y-124472091D01*
X109504652Y-125463999D01*
X109329818Y-125463999D01*
X109191751Y-125368040D01*
X109178325Y-125360931D01*
X108935920Y-125267881D01*
X108921185Y-125264180D01*
X108663582Y-125231637D01*
X108648390Y-125231557D01*
X108390459Y-125261400D01*
X108375686Y-125264947D01*
X108132321Y-125355454D01*
X108118821Y-125362422D01*
X107904069Y-125508367D01*
X107892621Y-125518354D01*
X107718880Y-125711313D01*
X107710144Y-125723742D01*
X107587446Y-125952574D01*
X107581928Y-125966728D01*
X107517354Y-126218221D01*
X107515371Y-126233284D01*
X107512652Y-126492921D01*
X107514320Y-126508022D01*
X107573612Y-126760813D01*
X107578833Y-126775080D01*
X107696712Y-127006430D01*
X107705185Y-127019040D01*
X107874846Y-127215594D01*
X107886083Y-127225819D01*
X108097731Y-127376229D01*
X108111082Y-127383478D01*
X108352500Y-127479063D01*
X108367195Y-127482918D01*
X108624444Y-127518156D01*
X108639634Y-127518395D01*
X108897863Y-127491255D01*
X108912672Y-127487863D01*
X109156972Y-127399909D01*
X109170544Y-127393083D01*
X109331718Y-127285999D01*
X109822303Y-127285999D01*
X109873740Y-127292771D01*
X109890258Y-127292771D01*
X109945791Y-127285460D01*
X109945802Y-127285459D01*
X110111559Y-127263637D01*
X110127513Y-127259362D01*
X110333733Y-127173943D01*
X110348037Y-127165685D01*
X110525123Y-127029802D01*
X110536802Y-127018123D01*
X110568394Y-126976951D01*
X111097275Y-126448070D01*
X111610776Y-126448070D01*
X111610776Y-126573191D01*
X111684585Y-126647000D01*
X112748191Y-126647001D01*
X112822000Y-126573192D01*
X112822000Y-126573191D01*
X113077999Y-126573191D01*
X113151808Y-126647000D01*
X114215415Y-126647001D01*
X114289224Y-126573192D01*
X114289224Y-126445816D01*
X114287780Y-126432386D01*
X114214745Y-126096647D01*
X114206115Y-126075812D01*
X114077304Y-125875380D01*
X114065501Y-125861759D01*
X113887151Y-125707217D01*
X113871989Y-125697473D01*
X113657324Y-125599439D01*
X113640031Y-125594361D01*
X113410907Y-125561418D01*
X113401930Y-125560776D01*
X113151809Y-125560776D01*
X113078000Y-125634585D01*
X113077999Y-126573191D01*
X112822000Y-126573191D01*
X112822001Y-125634585D01*
X112748192Y-125560776D01*
X112495816Y-125560776D01*
X112482386Y-125562220D01*
X112146647Y-125635255D01*
X112125812Y-125643885D01*
X111925380Y-125772696D01*
X111911759Y-125784499D01*
X111757217Y-125962849D01*
X111747473Y-125978011D01*
X111649439Y-126192676D01*
X111644361Y-126209969D01*
X111611418Y-126439093D01*
X111610776Y-126448070D01*
X111097275Y-126448070D01*
X115109346Y-122436000D01*
X115733073Y-122436000D01*
X115717381Y-122509828D01*
X115716001Y-122522962D01*
X115716001Y-122727038D01*
X115717381Y-122740172D01*
X115759810Y-122939789D01*
X115763892Y-122952350D01*
X115846897Y-123138782D01*
X115853500Y-123150219D01*
X115925995Y-123250000D01*
X115853501Y-123349780D01*
X115846897Y-123361218D01*
X115763891Y-123547651D01*
X115759810Y-123560211D01*
X115717381Y-123759828D01*
X115716001Y-123772962D01*
X115716001Y-123977038D01*
X115717381Y-123990172D01*
X115759810Y-124189789D01*
X115763892Y-124202350D01*
X115846897Y-124388782D01*
X115853500Y-124400219D01*
X115925995Y-124500000D01*
X115853501Y-124599780D01*
X115846897Y-124611218D01*
X115763891Y-124797651D01*
X115759810Y-124810211D01*
X115717381Y-125009828D01*
X115716001Y-125022962D01*
X115716001Y-125227038D01*
X115717381Y-125240172D01*
X115759810Y-125439789D01*
X115763892Y-125452350D01*
X115846897Y-125638782D01*
X115853500Y-125650219D01*
X115925995Y-125750000D01*
X115853501Y-125849780D01*
X115846897Y-125861218D01*
X115763891Y-126047651D01*
X115759810Y-126060211D01*
X115717381Y-126259828D01*
X115716001Y-126272962D01*
X115716001Y-126477038D01*
X115717381Y-126490172D01*
X115759810Y-126689789D01*
X115763892Y-126702350D01*
X115846897Y-126888782D01*
X115853500Y-126900219D01*
X115925995Y-127000000D01*
X115853501Y-127099780D01*
X115846897Y-127111218D01*
X115763891Y-127297651D01*
X115759810Y-127310211D01*
X115717381Y-127509828D01*
X115716001Y-127522962D01*
X115716001Y-127727038D01*
X115717381Y-127740172D01*
X115759810Y-127939789D01*
X115763892Y-127952350D01*
X115846897Y-128138782D01*
X115853500Y-128150219D01*
X115925995Y-128250000D01*
X115853501Y-128349780D01*
X115846897Y-128361218D01*
X115763891Y-128547651D01*
X115759810Y-128560211D01*
X115717381Y-128759828D01*
X115716001Y-128772962D01*
X115716001Y-128977038D01*
X115717381Y-128990172D01*
X115759810Y-129189789D01*
X115763892Y-129202350D01*
X115846897Y-129388782D01*
X115853500Y-129400219D01*
X115925995Y-129500000D01*
X115853501Y-129599780D01*
X115846897Y-129611218D01*
X115763891Y-129797651D01*
X115759810Y-129810211D01*
X115717381Y-130009828D01*
X115716001Y-130022962D01*
X115716001Y-130227038D01*
X115717381Y-130240172D01*
X115759810Y-130439789D01*
X115763892Y-130452350D01*
X115846897Y-130638782D01*
X115853500Y-130650219D01*
X115925995Y-130750000D01*
X115853501Y-130849780D01*
X115846897Y-130861218D01*
X115763891Y-131047651D01*
X115759810Y-131060211D01*
X115717381Y-131259828D01*
X115716001Y-131272962D01*
X115716001Y-131477038D01*
X115717381Y-131490172D01*
X115738387Y-131589000D01*
X114287224Y-131589000D01*
X114286944Y-131588296D01*
X114129247Y-131247007D01*
X114126056Y-131240981D01*
X113932421Y-130918719D01*
X113928598Y-130913072D01*
X113701292Y-130613608D01*
X113696882Y-130608407D01*
X113438564Y-130335244D01*
X113433617Y-130330550D01*
X113147308Y-130086881D01*
X113141883Y-130082749D01*
X113077838Y-130039224D01*
X113404184Y-130039224D01*
X113417614Y-130037780D01*
X113753353Y-129964745D01*
X113774188Y-129956115D01*
X113974620Y-129827304D01*
X113988241Y-129815501D01*
X114142783Y-129637151D01*
X114152527Y-129621989D01*
X114250561Y-129407324D01*
X114255639Y-129390031D01*
X114288582Y-129160907D01*
X114289224Y-129151930D01*
X114289224Y-128495816D01*
X114287780Y-128482386D01*
X114214745Y-128146647D01*
X114206115Y-128125812D01*
X114077304Y-127925380D01*
X114065501Y-127911759D01*
X113937709Y-127801026D01*
X113974620Y-127777304D01*
X113988241Y-127765501D01*
X114142783Y-127587151D01*
X114152527Y-127571989D01*
X114250561Y-127357324D01*
X114255639Y-127340031D01*
X114288582Y-127110907D01*
X114289224Y-127101930D01*
X114289224Y-126976809D01*
X114215415Y-126903000D01*
X113151808Y-126902999D01*
X113151807Y-126903000D01*
X111684585Y-126902999D01*
X111610776Y-126976808D01*
X111610776Y-127104184D01*
X111612220Y-127117614D01*
X111685255Y-127453353D01*
X111693885Y-127474188D01*
X111822696Y-127674620D01*
X111834499Y-127688241D01*
X111837682Y-127690999D01*
X111763583Y-127681638D01*
X111748391Y-127681558D01*
X111490460Y-127711401D01*
X111475687Y-127714948D01*
X111232322Y-127805455D01*
X111218822Y-127812423D01*
X111004070Y-127958368D01*
X110992622Y-127968355D01*
X110818881Y-128161314D01*
X110810145Y-128173743D01*
X110687447Y-128402575D01*
X110681929Y-128416729D01*
X110617355Y-128668222D01*
X110615372Y-128683285D01*
X110612653Y-128942922D01*
X110614321Y-128958023D01*
X110673613Y-129210814D01*
X110678834Y-129225081D01*
X110754710Y-129373995D01*
X110627321Y-129380671D01*
X110620541Y-129381396D01*
X110249415Y-129441505D01*
X110242753Y-129442958D01*
X109880291Y-129542796D01*
X109873824Y-129544960D01*
X109524264Y-129683360D01*
X109518069Y-129686210D01*
X109185500Y-129861553D01*
X109179649Y-129865055D01*
X108867963Y-130075290D01*
X108862524Y-130079403D01*
X108575367Y-130322070D01*
X108570405Y-130326747D01*
X108311134Y-130599008D01*
X108306706Y-130604193D01*
X108078355Y-130902862D01*
X108074512Y-130908495D01*
X107879755Y-131230079D01*
X107876543Y-131236094D01*
X107749797Y-131507901D01*
X107629247Y-131247007D01*
X107626056Y-131240981D01*
X107432421Y-130918719D01*
X107428598Y-130913072D01*
X107201292Y-130613608D01*
X107196882Y-130608407D01*
X106938564Y-130335244D01*
X106933617Y-130330550D01*
X106647308Y-130086881D01*
X106641883Y-130082749D01*
X106330934Y-129871427D01*
X106325095Y-129867905D01*
X105993140Y-129691402D01*
X105986955Y-129688531D01*
X105637881Y-129548912D01*
X105631422Y-129546725D01*
X105269309Y-129445622D01*
X105262652Y-129444146D01*
X104891740Y-129382741D01*
X104884962Y-129381993D01*
X104509586Y-129361006D01*
X104502767Y-129360994D01*
X104127321Y-129380671D01*
X104120541Y-129381396D01*
X103749415Y-129441505D01*
X103742753Y-129442958D01*
X103380291Y-129542796D01*
X103373824Y-129544960D01*
X103024264Y-129683360D01*
X103018069Y-129686210D01*
X102685500Y-129861553D01*
X102679649Y-129865055D01*
X102367963Y-130075290D01*
X102362524Y-130079403D01*
X102075367Y-130322070D01*
X102070405Y-130326747D01*
X101811134Y-130599008D01*
X101806706Y-130604193D01*
X101578355Y-130902862D01*
X101574512Y-130908495D01*
X101379755Y-131230079D01*
X101376543Y-131236094D01*
X101217654Y-131576831D01*
X101215111Y-131583158D01*
X101093951Y-131939061D01*
X101092106Y-131945626D01*
X101010093Y-132312533D01*
X101008967Y-132319259D01*
X100967059Y-132692877D01*
X100966667Y-132699685D01*
X100965355Y-133075644D01*
X100965700Y-133082454D01*
X101004999Y-133456355D01*
X101006077Y-133463088D01*
X101085527Y-133830559D01*
X101087326Y-133837136D01*
X101205998Y-134193878D01*
X101208497Y-134200222D01*
X101365003Y-134542059D01*
X101368172Y-134548097D01*
X101560681Y-134871033D01*
X101564484Y-134876693D01*
X101790743Y-135176949D01*
X101795135Y-135182165D01*
X102052499Y-135456228D01*
X102057429Y-135460939D01*
X102342885Y-135705606D01*
X102348295Y-135709757D01*
X102658506Y-135922163D01*
X102664333Y-135925705D01*
X102995668Y-136103366D01*
X103001843Y-136106259D01*
X103350429Y-136247096D01*
X103356880Y-136249305D01*
X103718637Y-136351672D01*
X103725289Y-136353171D01*
X104095986Y-136415870D01*
X104102761Y-136416642D01*
X104478061Y-136438938D01*
X104484880Y-136438974D01*
X104860391Y-136420609D01*
X104867174Y-136419908D01*
X105238507Y-136361094D01*
X105245175Y-136359665D01*
X105607984Y-136261092D01*
X105614458Y-136258951D01*
X105964499Y-136121771D01*
X105970704Y-136118943D01*
X106303883Y-135944762D01*
X106309746Y-135941281D01*
X106622163Y-135732135D01*
X106627616Y-135728041D01*
X106915620Y-135486378D01*
X106920599Y-135481719D01*
X107180818Y-135210364D01*
X107185264Y-135205195D01*
X107414656Y-134907324D01*
X107418518Y-134901704D01*
X107614398Y-134580802D01*
X107617631Y-134574798D01*
X107750610Y-134292203D01*
X107865003Y-134542059D01*
X107868172Y-134548097D01*
X108060681Y-134871033D01*
X108064484Y-134876693D01*
X108290743Y-135176949D01*
X108295135Y-135182165D01*
X108552499Y-135456228D01*
X108557429Y-135460939D01*
X108842885Y-135705606D01*
X108848295Y-135709757D01*
X109158506Y-135922163D01*
X109164333Y-135925705D01*
X109495668Y-136103366D01*
X109501843Y-136106259D01*
X109850429Y-136247096D01*
X109856880Y-136249305D01*
X110218637Y-136351672D01*
X110225289Y-136353171D01*
X110595986Y-136415870D01*
X110602761Y-136416642D01*
X110709322Y-136422973D01*
X117530096Y-143243749D01*
X117571591Y-143295358D01*
X117580214Y-143304163D01*
X117644205Y-143357859D01*
X117648038Y-143361692D01*
X117652600Y-143365829D01*
X117652808Y-143366000D01*
X104578609Y-143366000D01*
X104880628Y-143212114D01*
X104886895Y-143208452D01*
X105181875Y-143012466D01*
X105187680Y-143008108D01*
X105363420Y-142859595D01*
X105368053Y-142749072D01*
X103352191Y-140733210D01*
X103247809Y-140733210D01*
X101230955Y-142750064D01*
X101236827Y-142862108D01*
X101465260Y-143047090D01*
X101471155Y-143051326D01*
X101770174Y-143241090D01*
X101776517Y-143244620D01*
X102027602Y-143366000D01*
X100634000Y-143366000D01*
X100634000Y-142147983D01*
X100710932Y-142275013D01*
X100715044Y-142280995D01*
X100934439Y-142563839D01*
X101047997Y-142570984D01*
X103066790Y-140552191D01*
X103066790Y-140447809D01*
X103533210Y-140447809D01*
X103533210Y-140552191D01*
X105550690Y-142569671D01*
X105657384Y-142567996D01*
X105705876Y-142516359D01*
X105710534Y-142510789D01*
X105921688Y-142226470D01*
X105925673Y-142220402D01*
X106102749Y-141913699D01*
X106106011Y-141907214D01*
X106246661Y-141582190D01*
X106249155Y-141575373D01*
X106351516Y-141236337D01*
X106353211Y-141229279D01*
X106416101Y-140879749D01*
X106417067Y-140870560D01*
X106434184Y-140325894D01*
X106433797Y-140316661D01*
X106392978Y-139963873D01*
X106391730Y-139956722D01*
X106310859Y-139611928D01*
X106308797Y-139604968D01*
X106188832Y-139271754D01*
X106185985Y-139265077D01*
X106028517Y-138947860D01*
X106024920Y-138941554D01*
X105832036Y-138644539D01*
X105827738Y-138638688D01*
X105660736Y-138436816D01*
X105549451Y-138431568D01*
X103533210Y-140447809D01*
X103066790Y-140447809D01*
X101050982Y-138432001D01*
X100941986Y-138435426D01*
X100831974Y-138560208D01*
X100827495Y-138565921D01*
X100634000Y-138844323D01*
X100634000Y-138250657D01*
X101231676Y-138250657D01*
X103247809Y-140266790D01*
X103352191Y-140266790D01*
X105372309Y-138246672D01*
X105364516Y-138132360D01*
X105053829Y-137896535D01*
X105047803Y-137892486D01*
X104742971Y-137712209D01*
X104736521Y-137708880D01*
X104412987Y-137564833D01*
X104406196Y-137562267D01*
X104068252Y-137456362D01*
X104061211Y-137454594D01*
X103713333Y-137388232D01*
X103706136Y-137387284D01*
X103352936Y-137361348D01*
X103345678Y-137361234D01*
X102991837Y-137376064D01*
X102984614Y-137376784D01*
X102634823Y-137432186D01*
X102627731Y-137433732D01*
X102286625Y-137528971D01*
X102279758Y-137531322D01*
X101951860Y-137665135D01*
X101945308Y-137668260D01*
X101634963Y-137838873D01*
X101628814Y-137842730D01*
X101340135Y-138047883D01*
X101334470Y-138052422D01*
X101234510Y-138142427D01*
X101231676Y-138250657D01*
X100634000Y-138250657D01*
X100634000Y-122144499D01*
X103718163Y-122144499D01*
X103718163Y-123858258D01*
X103720319Y-123874634D01*
X103795137Y-124153859D01*
X103807880Y-124178339D01*
X103938990Y-124334590D01*
X103955879Y-124348761D01*
X104130120Y-124449359D01*
X104150837Y-124456900D01*
X104343538Y-124490878D01*
X104354499Y-124491837D01*
X106068258Y-124491837D01*
X106084634Y-124489681D01*
X106363859Y-124414863D01*
X106388339Y-124402120D01*
X106544590Y-124271010D01*
X106558761Y-124254121D01*
X106659359Y-124079880D01*
X106660897Y-124075654D01*
X106855365Y-124075654D01*
X106863157Y-124189966D01*
X106948791Y-124254967D01*
X106957807Y-124260678D01*
X107171696Y-124372021D01*
X107181545Y-124376131D01*
X107411134Y-124449844D01*
X107421535Y-124452236D01*
X107660262Y-124486212D01*
X107670917Y-124486817D01*
X107911956Y-124480084D01*
X107922561Y-124478885D01*
X108159019Y-124431636D01*
X108169270Y-124428667D01*
X108394387Y-124342253D01*
X108403991Y-124337600D01*
X108632936Y-124201662D01*
X108648285Y-124079304D01*
X107802191Y-123233210D01*
X107697809Y-123233210D01*
X106855365Y-124075654D01*
X106660897Y-124075654D01*
X106666900Y-124059163D01*
X106700527Y-123868454D01*
X107516790Y-123052191D01*
X107516790Y-122947809D01*
X106700490Y-122131509D01*
X106699681Y-122125366D01*
X106624863Y-121846142D01*
X106612120Y-121821662D01*
X106481010Y-121665410D01*
X106464121Y-121651239D01*
X106289880Y-121550641D01*
X106269163Y-121543100D01*
X106076462Y-121509122D01*
X106065501Y-121508163D01*
X104351742Y-121508163D01*
X104335366Y-121510319D01*
X104056142Y-121585137D01*
X104031662Y-121597880D01*
X103875410Y-121728990D01*
X103861239Y-121745879D01*
X103760641Y-121920120D01*
X103753100Y-121940837D01*
X103719122Y-122133538D01*
X103718163Y-122144499D01*
X100634000Y-122144499D01*
X100634000Y-120750064D01*
X101230955Y-120750064D01*
X101236827Y-120862108D01*
X101465260Y-121047090D01*
X101471155Y-121051326D01*
X101770174Y-121241090D01*
X101776517Y-121244620D01*
X102095367Y-121398759D01*
X102102073Y-121401537D01*
X102436524Y-121518005D01*
X102443506Y-121519994D01*
X102789128Y-121597249D01*
X102796292Y-121598422D01*
X103148503Y-121635441D01*
X103155754Y-121635783D01*
X103509886Y-121632075D01*
X103517128Y-121631581D01*
X103868486Y-121587194D01*
X103875623Y-121585871D01*
X104219552Y-121501394D01*
X104226490Y-121499260D01*
X104558430Y-121375812D01*
X104565077Y-121372895D01*
X104880628Y-121212114D01*
X104886895Y-121208452D01*
X105181875Y-121012466D01*
X105187680Y-121008108D01*
X105363420Y-120859595D01*
X105368053Y-120749072D01*
X103352191Y-118733210D01*
X103247809Y-118733210D01*
X101230955Y-120750064D01*
X100634000Y-120750064D01*
X100634000Y-120147983D01*
X100710932Y-120275013D01*
X100715044Y-120280995D01*
X100934439Y-120563839D01*
X101047997Y-120570984D01*
X103066790Y-118552191D01*
X103066790Y-118447809D01*
X103533210Y-118447809D01*
X103533210Y-118552191D01*
X105550690Y-120569671D01*
X105657384Y-120567996D01*
X105705876Y-120516359D01*
X105710534Y-120510789D01*
X105921688Y-120226470D01*
X105925673Y-120220402D01*
X106102749Y-119913699D01*
X106106011Y-119907214D01*
X106246661Y-119582190D01*
X106249155Y-119575373D01*
X106351516Y-119236337D01*
X106353211Y-119229279D01*
X106416101Y-118879749D01*
X106417067Y-118870560D01*
X106434184Y-118325894D01*
X106433797Y-118316661D01*
X106392978Y-117963873D01*
X106391730Y-117956722D01*
X106310859Y-117611928D01*
X106308797Y-117604968D01*
X106188832Y-117271754D01*
X106185985Y-117265077D01*
X106028517Y-116947860D01*
X106024920Y-116941554D01*
X105832036Y-116644539D01*
X105827738Y-116638688D01*
X105660736Y-116436816D01*
X105549451Y-116431568D01*
X103533210Y-118447809D01*
X103066790Y-118447809D01*
X101050982Y-116432001D01*
X100941986Y-116435426D01*
X100831974Y-116560208D01*
X100827495Y-116565921D01*
X100634000Y-116844323D01*
X100634000Y-115634000D01*
X102028154Y-115634000D01*
X101951860Y-115665135D01*
G36*
X131722731Y-132101230D02*
G01*
X131736082Y-132108479D01*
X131977500Y-132204064D01*
X131992195Y-132207919D01*
X132249444Y-132243157D01*
X132264634Y-132243396D01*
X132522863Y-132216256D01*
X132537672Y-132212864D01*
X132781972Y-132124910D01*
X132795544Y-132118084D01*
X132994349Y-131985999D01*
X142533302Y-131985999D01*
X143706035Y-133158734D01*
X143706050Y-133158747D01*
X143924276Y-133376973D01*
X143955868Y-133418145D01*
X143967547Y-133429824D01*
X144144633Y-133565707D01*
X144158937Y-133573965D01*
X144365157Y-133659384D01*
X144381111Y-133663659D01*
X144546868Y-133685481D01*
X144546877Y-133685482D01*
X144602411Y-133692793D01*
X144618928Y-133692793D01*
X144670368Y-133686021D01*
X148874337Y-133686021D01*
X148858683Y-133708798D01*
X148853403Y-133718073D01*
X148752260Y-133936968D01*
X148748618Y-133947000D01*
X148685802Y-134179807D01*
X148683903Y-134190309D01*
X148661211Y-134430372D01*
X148661109Y-134441043D01*
X148679188Y-134681497D01*
X148680885Y-134692034D01*
X148739221Y-134926005D01*
X148742669Y-134936104D01*
X148839591Y-135156901D01*
X148844692Y-135166275D01*
X148954713Y-135333130D01*
X149073759Y-135345222D01*
X150150000Y-134268980D01*
X151230119Y-135349100D01*
X151353085Y-135333129D01*
X151493256Y-135092294D01*
X151497825Y-135082650D01*
X151582272Y-134856787D01*
X151585151Y-134846511D01*
X151630392Y-134609351D01*
X151631507Y-134598128D01*
X151634077Y-134330341D01*
X151633178Y-134319099D01*
X151592499Y-134081114D01*
X151589817Y-134070784D01*
X151509723Y-133843343D01*
X151505339Y-133833612D01*
X151423191Y-133686021D01*
X155374337Y-133686021D01*
X155358683Y-133708798D01*
X155353403Y-133718073D01*
X155252260Y-133936968D01*
X155248618Y-133947000D01*
X155185802Y-134179807D01*
X155183903Y-134190309D01*
X155161211Y-134430372D01*
X155161109Y-134441043D01*
X155179188Y-134681497D01*
X155180885Y-134692034D01*
X155239221Y-134926005D01*
X155242669Y-134936104D01*
X155339591Y-135156901D01*
X155344692Y-135166275D01*
X155454713Y-135333130D01*
X155573759Y-135345222D01*
X156650000Y-134268980D01*
X157730119Y-135349100D01*
X157750830Y-135346410D01*
X164239962Y-135346410D01*
X164259810Y-135439789D01*
X164263892Y-135452350D01*
X164346897Y-135638782D01*
X164353500Y-135650219D01*
X164425995Y-135750000D01*
X164353501Y-135849780D01*
X164346897Y-135861218D01*
X164263892Y-136047650D01*
X164259810Y-136060211D01*
X164239962Y-136153588D01*
X164315605Y-136247000D01*
X165298191Y-136247001D01*
X165372000Y-136173192D01*
X165372000Y-136073000D01*
X165372001Y-135326809D01*
X165298192Y-135253000D01*
X164315605Y-135252999D01*
X164239962Y-135346410D01*
X157750830Y-135346410D01*
X157853085Y-135333129D01*
X157993256Y-135092294D01*
X157997825Y-135082650D01*
X158082272Y-134856787D01*
X158085151Y-134846511D01*
X158130392Y-134609351D01*
X158131507Y-134598128D01*
X158134077Y-134330341D01*
X158133178Y-134319099D01*
X158092499Y-134081114D01*
X158089817Y-134070784D01*
X158009723Y-133843343D01*
X158005339Y-133833612D01*
X157923191Y-133686021D01*
X160165283Y-133686021D01*
X160216720Y-133692793D01*
X160233238Y-133692793D01*
X160288771Y-133685482D01*
X160288782Y-133685481D01*
X160454539Y-133663659D01*
X160470493Y-133659384D01*
X160676713Y-133573965D01*
X160691017Y-133565707D01*
X160868103Y-133429824D01*
X160879782Y-133418145D01*
X160911374Y-133376973D01*
X162002347Y-132286000D01*
X164269078Y-132286000D01*
X164263891Y-132297651D01*
X164259810Y-132310211D01*
X164217381Y-132509828D01*
X164216001Y-132522962D01*
X164216001Y-132727038D01*
X164217381Y-132740172D01*
X164259810Y-132939789D01*
X164263892Y-132952350D01*
X164346897Y-133138782D01*
X164353500Y-133150219D01*
X164425995Y-133250000D01*
X164353501Y-133349780D01*
X164346897Y-133361218D01*
X164263891Y-133547651D01*
X164259810Y-133560211D01*
X164217381Y-133759828D01*
X164216001Y-133772962D01*
X164216001Y-133977038D01*
X164217381Y-133990172D01*
X164259810Y-134189789D01*
X164263892Y-134202350D01*
X164346897Y-134388782D01*
X164353500Y-134400219D01*
X164425995Y-134500000D01*
X164353501Y-134599780D01*
X164346897Y-134611218D01*
X164263892Y-134797650D01*
X164259810Y-134810211D01*
X164239962Y-134903588D01*
X164315605Y-134997000D01*
X165298192Y-134997001D01*
X165298193Y-134997000D01*
X166684395Y-134997001D01*
X166754037Y-134911000D01*
X167275347Y-134911000D01*
X166737124Y-135449223D01*
X166740190Y-135439789D01*
X166760038Y-135346412D01*
X166684395Y-135253000D01*
X165701809Y-135252999D01*
X165628000Y-135326808D01*
X165628000Y-135975538D01*
X165627999Y-136072999D01*
X165627999Y-136173192D01*
X165628000Y-136173193D01*
X165627999Y-136503000D01*
X164315605Y-136502999D01*
X164239962Y-136596410D01*
X164259810Y-136689789D01*
X164263892Y-136702350D01*
X164346897Y-136888782D01*
X164353500Y-136900219D01*
X164473453Y-137065320D01*
X164482290Y-137075135D01*
X164633948Y-137211688D01*
X164644632Y-137219450D01*
X164821368Y-137321489D01*
X164833433Y-137326861D01*
X164853097Y-137333250D01*
X161672348Y-140514000D01*
X132386000Y-140514000D01*
X132386000Y-138034909D01*
X132385544Y-138027336D01*
X132385537Y-138027282D01*
X132385970Y-137986001D01*
X135615303Y-137986001D01*
X135666740Y-137992773D01*
X135683258Y-137992773D01*
X135738791Y-137985462D01*
X135738802Y-137985461D01*
X135904559Y-137963639D01*
X135920513Y-137959364D01*
X136110425Y-137880701D01*
X136247864Y-137866256D01*
X136262673Y-137862864D01*
X136506973Y-137774910D01*
X136520545Y-137768084D01*
X136688716Y-137656352D01*
X136713043Y-137680679D01*
X136712653Y-137717922D01*
X136714321Y-137733023D01*
X136773613Y-137985814D01*
X136778834Y-138000081D01*
X136896713Y-138231431D01*
X136905186Y-138244041D01*
X137074847Y-138440595D01*
X137086084Y-138450820D01*
X137297732Y-138601230D01*
X137311083Y-138608479D01*
X137552501Y-138704064D01*
X137567196Y-138707919D01*
X137824445Y-138743157D01*
X137839635Y-138743396D01*
X138097864Y-138716256D01*
X138112673Y-138712864D01*
X138356973Y-138624910D01*
X138370545Y-138618084D01*
X138586814Y-138474395D01*
X138598367Y-138464529D01*
X138774118Y-138273400D01*
X138782983Y-138261062D01*
X138908071Y-138033528D01*
X138913738Y-138019433D01*
X138981026Y-137768309D01*
X138983178Y-137752601D01*
X138985099Y-137569113D01*
X139108538Y-137590878D01*
X139119499Y-137591837D01*
X140533258Y-137591837D01*
X140549634Y-137589681D01*
X140828859Y-137514863D01*
X140853339Y-137502120D01*
X140918904Y-137447104D01*
X140920879Y-137448761D01*
X141095120Y-137549359D01*
X141115837Y-137556900D01*
X141308538Y-137590878D01*
X141319499Y-137591837D01*
X142733258Y-137591837D01*
X142749634Y-137589681D01*
X143028859Y-137514863D01*
X143039500Y-137509324D01*
X143152501Y-137554064D01*
X143167196Y-137557919D01*
X143424445Y-137593157D01*
X143439635Y-137593396D01*
X143697864Y-137566256D01*
X143712673Y-137562864D01*
X143956973Y-137474910D01*
X143970545Y-137468084D01*
X144186814Y-137324395D01*
X144198367Y-137314529D01*
X144374118Y-137123400D01*
X144376599Y-137119946D01*
X145589000Y-138332347D01*
X145589001Y-138663968D01*
X145568881Y-138686314D01*
X145560145Y-138698743D01*
X145437447Y-138927575D01*
X145431929Y-138941729D01*
X145367355Y-139193222D01*
X145365372Y-139208285D01*
X145362653Y-139467922D01*
X145364321Y-139483023D01*
X145423613Y-139735814D01*
X145428834Y-139750081D01*
X145546713Y-139981431D01*
X145555186Y-139994041D01*
X145724847Y-140190595D01*
X145736084Y-140200820D01*
X145947732Y-140351230D01*
X145961083Y-140358479D01*
X146202501Y-140454064D01*
X146217196Y-140457919D01*
X146474445Y-140493157D01*
X146489635Y-140493396D01*
X146747864Y-140466256D01*
X146762673Y-140462864D01*
X147006973Y-140374910D01*
X147020545Y-140368084D01*
X147236814Y-140224395D01*
X147248367Y-140214529D01*
X147424118Y-140023400D01*
X147432983Y-140011062D01*
X147558071Y-139783528D01*
X147563738Y-139769433D01*
X147631026Y-139518309D01*
X147633178Y-139502601D01*
X147636125Y-139221164D01*
X147634303Y-139205414D01*
X147572289Y-138952936D01*
X147566919Y-138938724D01*
X147446623Y-138708621D01*
X147438018Y-138696100D01*
X147411000Y-138665454D01*
X147411000Y-138014704D01*
X147417773Y-137963259D01*
X147417773Y-137946742D01*
X147388638Y-137725439D01*
X147384363Y-137709484D01*
X147336426Y-137593754D01*
X147298944Y-137503266D01*
X147290686Y-137488962D01*
X147154803Y-137311876D01*
X147143124Y-137300197D01*
X147101952Y-137268605D01*
X146951269Y-137117922D01*
X150112653Y-137117922D01*
X150114321Y-137133023D01*
X150173613Y-137385814D01*
X150178834Y-137400081D01*
X150296713Y-137631431D01*
X150305186Y-137644041D01*
X150339001Y-137683215D01*
X150339000Y-138105802D01*
X150247393Y-138306394D01*
X150242315Y-138323687D01*
X150211418Y-138538580D01*
X150210776Y-138547557D01*
X150210776Y-139454697D01*
X150212220Y-139468127D01*
X150280691Y-139782882D01*
X150289321Y-139803716D01*
X150410358Y-139992054D01*
X150422161Y-140005675D01*
X150589645Y-140150802D01*
X150604807Y-140160546D01*
X150806394Y-140252607D01*
X150823687Y-140257685D01*
X151038580Y-140288582D01*
X151047557Y-140289224D01*
X151454697Y-140289224D01*
X151468127Y-140287780D01*
X151782882Y-140219309D01*
X151803716Y-140210679D01*
X151941363Y-140122219D01*
X151974781Y-140146499D01*
X151986219Y-140153103D01*
X152172652Y-140236109D01*
X152185212Y-140240190D01*
X152384829Y-140282619D01*
X152397963Y-140283999D01*
X152602038Y-140283999D01*
X152615172Y-140282619D01*
X152814789Y-140240190D01*
X152827350Y-140236108D01*
X153013782Y-140153103D01*
X153025219Y-140146500D01*
X153125000Y-140074004D01*
X153224781Y-140146499D01*
X153236219Y-140153103D01*
X153422651Y-140236108D01*
X153435211Y-140240189D01*
X153528588Y-140260038D01*
X153622000Y-140184395D01*
X153622000Y-137815605D01*
X153528588Y-137739962D01*
X153526842Y-137740333D01*
X153558071Y-137683528D01*
X153563738Y-137669433D01*
X153631026Y-137418309D01*
X153633178Y-137402601D01*
X153633541Y-137367922D01*
X153862653Y-137367922D01*
X153864321Y-137383023D01*
X153923613Y-137635814D01*
X153928834Y-137650081D01*
X153975022Y-137740729D01*
X153971412Y-137739962D01*
X153878000Y-137815605D01*
X153878000Y-140184395D01*
X153971412Y-140260038D01*
X154064790Y-140240190D01*
X154077350Y-140236108D01*
X154263782Y-140153103D01*
X154275219Y-140146500D01*
X154375000Y-140074004D01*
X154474781Y-140146499D01*
X154486219Y-140153103D01*
X154672652Y-140236109D01*
X154685212Y-140240190D01*
X154884829Y-140282619D01*
X154897963Y-140283999D01*
X155102038Y-140283999D01*
X155115172Y-140282619D01*
X155314789Y-140240190D01*
X155327350Y-140236108D01*
X155513782Y-140153103D01*
X155525219Y-140146500D01*
X155625000Y-140074004D01*
X155724781Y-140146499D01*
X155736219Y-140153103D01*
X155922652Y-140236109D01*
X155935212Y-140240190D01*
X156134829Y-140282619D01*
X156147963Y-140283999D01*
X156352038Y-140283999D01*
X156365172Y-140282619D01*
X156564789Y-140240190D01*
X156577350Y-140236108D01*
X156763782Y-140153103D01*
X156775219Y-140146500D01*
X156875000Y-140074004D01*
X156974781Y-140146499D01*
X156986219Y-140153103D01*
X157172652Y-140236109D01*
X157185212Y-140240190D01*
X157384829Y-140282619D01*
X157397963Y-140283999D01*
X157602038Y-140283999D01*
X157615172Y-140282619D01*
X157814789Y-140240190D01*
X157827350Y-140236108D01*
X158013782Y-140153103D01*
X158025219Y-140146500D01*
X158190320Y-140026547D01*
X158200135Y-140017710D01*
X158336688Y-139866052D01*
X158344450Y-139855368D01*
X158446489Y-139678632D01*
X158451861Y-139666567D01*
X158514924Y-139472480D01*
X158517670Y-139459562D01*
X158533655Y-139307471D01*
X158534000Y-139300881D01*
X158534000Y-138699119D01*
X158533655Y-138692529D01*
X158517670Y-138540438D01*
X158514924Y-138527520D01*
X158451861Y-138333433D01*
X158446489Y-138321368D01*
X158344450Y-138144632D01*
X158336688Y-138133948D01*
X158200135Y-137982290D01*
X158190320Y-137973453D01*
X158025219Y-137853500D01*
X158013781Y-137846897D01*
X157933156Y-137811000D01*
X159570766Y-137811000D01*
X159697732Y-137901230D01*
X159711083Y-137908479D01*
X159952501Y-138004064D01*
X159967196Y-138007919D01*
X160224445Y-138043157D01*
X160239635Y-138043396D01*
X160497864Y-138016256D01*
X160512673Y-138012864D01*
X160756973Y-137924910D01*
X160770545Y-137918084D01*
X160986814Y-137774395D01*
X160998367Y-137764529D01*
X161174118Y-137573400D01*
X161182983Y-137561062D01*
X161308071Y-137333528D01*
X161313738Y-137319433D01*
X161381026Y-137068309D01*
X161383178Y-137052601D01*
X161386125Y-136771164D01*
X161384303Y-136755414D01*
X161322289Y-136502936D01*
X161316919Y-136488724D01*
X161196623Y-136258621D01*
X161188018Y-136246100D01*
X161016307Y-136051334D01*
X161004964Y-136041227D01*
X160791752Y-135893041D01*
X160778326Y-135885932D01*
X160535921Y-135792882D01*
X160521186Y-135789181D01*
X160263583Y-135756638D01*
X160248391Y-135756558D01*
X159990460Y-135786401D01*
X159975687Y-135789948D01*
X159732322Y-135880455D01*
X159718822Y-135887423D01*
X159569357Y-135989000D01*
X156659704Y-135989000D01*
X156608259Y-135982227D01*
X156591742Y-135982227D01*
X156370439Y-136011362D01*
X156354484Y-136015637D01*
X156318887Y-136030382D01*
X156148266Y-136101055D01*
X156133963Y-136109313D01*
X156117874Y-136121659D01*
X155990460Y-136136401D01*
X155975687Y-136139948D01*
X155732322Y-136230455D01*
X155718822Y-136237423D01*
X155625207Y-136301044D01*
X155541752Y-136243041D01*
X155528326Y-136235932D01*
X155285921Y-136142882D01*
X155271186Y-136139181D01*
X155013583Y-136106638D01*
X154998391Y-136106558D01*
X154740460Y-136136401D01*
X154725687Y-136139948D01*
X154482322Y-136230455D01*
X154468822Y-136237423D01*
X154254070Y-136383368D01*
X154242622Y-136393355D01*
X154068881Y-136586314D01*
X154060145Y-136598743D01*
X153937447Y-136827575D01*
X153931929Y-136841729D01*
X153867355Y-137093222D01*
X153865372Y-137108285D01*
X153862653Y-137367922D01*
X153633541Y-137367922D01*
X153636125Y-137121164D01*
X153634303Y-137105414D01*
X153572289Y-136852936D01*
X153566919Y-136838724D01*
X153446623Y-136608621D01*
X153438018Y-136596100D01*
X153266307Y-136401334D01*
X153254964Y-136391227D01*
X153041752Y-136243041D01*
X153028326Y-136235932D01*
X152785921Y-136142882D01*
X152771186Y-136139181D01*
X152513583Y-136106638D01*
X152498391Y-136106558D01*
X152240460Y-136136401D01*
X152225687Y-136139948D01*
X152060447Y-136201401D01*
X152016308Y-136151334D01*
X152004965Y-136141227D01*
X151791752Y-135993041D01*
X151778326Y-135985932D01*
X151535921Y-135892882D01*
X151521186Y-135889181D01*
X151263583Y-135856638D01*
X151248391Y-135856558D01*
X150990460Y-135886401D01*
X150975687Y-135889948D01*
X150732322Y-135980455D01*
X150718822Y-135987423D01*
X150504070Y-136133368D01*
X150492622Y-136143355D01*
X150318881Y-136336314D01*
X150310145Y-136348743D01*
X150187447Y-136577575D01*
X150181929Y-136591729D01*
X150117355Y-136843222D01*
X150115372Y-136858285D01*
X150112653Y-137117922D01*
X146951269Y-137117922D01*
X145359001Y-135525654D01*
X149255365Y-135525654D01*
X149263157Y-135639966D01*
X149348791Y-135704967D01*
X149357807Y-135710678D01*
X149571696Y-135822021D01*
X149581545Y-135826131D01*
X149811134Y-135899844D01*
X149821535Y-135902236D01*
X150060262Y-135936212D01*
X150070917Y-135936817D01*
X150311956Y-135930084D01*
X150322561Y-135928885D01*
X150559019Y-135881636D01*
X150569270Y-135878667D01*
X150794387Y-135792253D01*
X150803991Y-135787600D01*
X151032936Y-135651662D01*
X151048285Y-135529304D01*
X151044635Y-135525654D01*
X155755365Y-135525654D01*
X155763157Y-135639966D01*
X155848791Y-135704967D01*
X155857807Y-135710678D01*
X156071696Y-135822021D01*
X156081545Y-135826131D01*
X156311134Y-135899844D01*
X156321535Y-135902236D01*
X156560262Y-135936212D01*
X156570917Y-135936817D01*
X156811956Y-135930084D01*
X156822561Y-135928885D01*
X157059019Y-135881636D01*
X157069270Y-135878667D01*
X157294387Y-135792253D01*
X157303991Y-135787600D01*
X157532936Y-135651662D01*
X157548285Y-135529304D01*
X156702191Y-134683210D01*
X156597809Y-134683210D01*
X155755365Y-135525654D01*
X151044635Y-135525654D01*
X150202191Y-134683210D01*
X150097809Y-134683210D01*
X149255365Y-135525654D01*
X145359001Y-135525654D01*
X143961395Y-134128048D01*
X143929803Y-134086876D01*
X143918124Y-134075197D01*
X143741038Y-133939314D01*
X143726734Y-133931056D01*
X143520514Y-133845637D01*
X143504560Y-133841362D01*
X143338803Y-133819540D01*
X143338792Y-133819539D01*
X143283259Y-133812228D01*
X143282620Y-133812228D01*
X143277120Y-133801662D01*
X143146010Y-133645410D01*
X143129121Y-133631239D01*
X142954880Y-133530641D01*
X142934163Y-133523100D01*
X142741462Y-133489122D01*
X142730501Y-133488163D01*
X141316742Y-133488163D01*
X141300366Y-133490319D01*
X141021142Y-133565137D01*
X140996662Y-133577880D01*
X140973078Y-133597669D01*
X140946010Y-133565410D01*
X140929121Y-133551239D01*
X140754880Y-133450641D01*
X140734163Y-133443100D01*
X140541462Y-133409122D01*
X140530501Y-133408163D01*
X139116742Y-133408163D01*
X139100366Y-133410319D01*
X138821142Y-133485137D01*
X138796662Y-133497880D01*
X138640410Y-133628990D01*
X138626239Y-133645879D01*
X138601343Y-133689000D01*
X137212300Y-133689000D01*
X137091016Y-133688260D01*
X137085615Y-133689000D01*
X128901760Y-133689000D01*
X128691752Y-133543041D01*
X128678326Y-133535932D01*
X128435921Y-133442882D01*
X128421186Y-133439181D01*
X128163583Y-133406638D01*
X128148391Y-133406558D01*
X127890460Y-133436401D01*
X127875687Y-133439948D01*
X127632322Y-133530455D01*
X127618822Y-133537423D01*
X127404070Y-133683368D01*
X127392622Y-133693355D01*
X127218881Y-133886314D01*
X127210145Y-133898743D01*
X127087447Y-134127575D01*
X127081929Y-134141729D01*
X127017355Y-134393222D01*
X127015372Y-134408285D01*
X127012653Y-134667922D01*
X127014321Y-134683023D01*
X127073613Y-134935814D01*
X127078834Y-134950081D01*
X127196713Y-135181431D01*
X127200864Y-135187609D01*
X127020438Y-135211362D01*
X127004483Y-135215637D01*
X126984420Y-135223948D01*
X126798266Y-135301056D01*
X126783962Y-135309314D01*
X126606876Y-135445197D01*
X126595197Y-135456876D01*
X126563605Y-135498048D01*
X124398048Y-137663605D01*
X124356876Y-137695197D01*
X124345197Y-137706876D01*
X124209314Y-137883963D01*
X124201056Y-137898267D01*
X124142469Y-138039708D01*
X124099198Y-138089645D01*
X124089454Y-138104807D01*
X123997393Y-138306394D01*
X123992315Y-138323687D01*
X123961418Y-138538580D01*
X123960776Y-138547557D01*
X123960776Y-139454697D01*
X123962220Y-139468127D01*
X123977638Y-139538999D01*
X123317023Y-139538999D01*
X123316919Y-139538724D01*
X123196623Y-139308621D01*
X123188018Y-139296100D01*
X123016307Y-139101334D01*
X123004964Y-139091227D01*
X122791752Y-138943041D01*
X122778326Y-138935932D01*
X122535921Y-138842882D01*
X122521186Y-138839181D01*
X122263583Y-138806638D01*
X122248391Y-138806558D01*
X121990460Y-138836401D01*
X121975687Y-138839948D01*
X121732322Y-138930455D01*
X121718822Y-138937423D01*
X121504070Y-139083368D01*
X121492622Y-139093355D01*
X121318881Y-139286314D01*
X121310145Y-139298743D01*
X121187447Y-139527575D01*
X121181929Y-139541729D01*
X121117355Y-139793222D01*
X121115372Y-139808285D01*
X121112653Y-140067922D01*
X121114321Y-140083023D01*
X121173613Y-140335814D01*
X121178834Y-140350081D01*
X121262355Y-140514000D01*
X119427652Y-140514000D01*
X116278537Y-137364885D01*
X116306394Y-137377607D01*
X116323687Y-137382685D01*
X116538580Y-137413582D01*
X116547557Y-137414224D01*
X116798191Y-137414224D01*
X116872000Y-137340415D01*
X117127999Y-137340415D01*
X117201808Y-137414224D01*
X117454697Y-137414224D01*
X117468127Y-137412780D01*
X117782882Y-137344309D01*
X117803716Y-137335679D01*
X117992054Y-137214642D01*
X118005675Y-137202839D01*
X118150802Y-137035355D01*
X118160546Y-137020193D01*
X118252607Y-136818606D01*
X118257685Y-136801313D01*
X118288071Y-136589975D01*
X118212706Y-136503000D01*
X117201809Y-136502999D01*
X117128000Y-136576808D01*
X117127999Y-137340415D01*
X116872000Y-137340415D01*
X116872001Y-136576809D01*
X116798192Y-136503000D01*
X115788687Y-136502999D01*
X115713035Y-136596877D01*
X115769336Y-136855684D01*
X115073677Y-136160025D01*
X115711929Y-136160025D01*
X115787294Y-136247000D01*
X116798191Y-136247001D01*
X116872000Y-136173192D01*
X116872000Y-136073000D01*
X116872000Y-136072999D01*
X117127999Y-136072999D01*
X117127999Y-136173191D01*
X117201808Y-136247000D01*
X118211313Y-136247001D01*
X118286965Y-136153123D01*
X118219309Y-135842118D01*
X118210679Y-135821284D01*
X118122220Y-135683638D01*
X118146499Y-135650220D01*
X118153103Y-135638783D01*
X118236108Y-135452350D01*
X118240190Y-135439789D01*
X118260038Y-135346412D01*
X118184395Y-135253000D01*
X117201809Y-135252999D01*
X117128000Y-135326808D01*
X117128000Y-135975538D01*
X117127999Y-136072999D01*
X116872000Y-136072999D01*
X116872001Y-135326809D01*
X116798192Y-135253000D01*
X115815605Y-135252999D01*
X115739962Y-135346410D01*
X115759810Y-135439789D01*
X115763892Y-135452350D01*
X115846897Y-135638782D01*
X115853500Y-135650219D01*
X115876999Y-135682562D01*
X115849198Y-135714645D01*
X115839454Y-135729807D01*
X115747393Y-135931394D01*
X115742315Y-135948687D01*
X115711929Y-136160025D01*
X115073677Y-136160025D01*
X113873899Y-134960247D01*
X113911825Y-134911000D01*
X115745964Y-134911000D01*
X115815605Y-134997000D01*
X116798192Y-134997001D01*
X116798193Y-134997000D01*
X118184395Y-134997001D01*
X118260038Y-134903590D01*
X118240190Y-134810211D01*
X118236108Y-134797650D01*
X118153103Y-134611218D01*
X118146500Y-134599781D01*
X118074005Y-134500000D01*
X118146499Y-134400220D01*
X118153103Y-134388782D01*
X118236109Y-134202349D01*
X118240190Y-134189789D01*
X118282619Y-133990172D01*
X118283999Y-133977038D01*
X118283999Y-133772962D01*
X118282619Y-133759828D01*
X118240190Y-133560211D01*
X118236108Y-133547650D01*
X118153103Y-133361218D01*
X118146500Y-133349781D01*
X118074005Y-133250000D01*
X118146499Y-133150220D01*
X118153103Y-133138782D01*
X118236109Y-132952349D01*
X118240190Y-132939789D01*
X118282619Y-132740172D01*
X118283999Y-132727038D01*
X118283999Y-132522962D01*
X118282619Y-132509828D01*
X118240190Y-132310211D01*
X118236108Y-132297650D01*
X118153103Y-132111218D01*
X118146500Y-132099781D01*
X118074005Y-132000000D01*
X118084177Y-131985999D01*
X131560585Y-131985999D01*
X131722731Y-132101230D01*
G37*
X131722731Y-132101230D02*
X131736082Y-132108479D01*
X131977500Y-132204064D01*
X131992195Y-132207919D01*
X132249444Y-132243157D01*
X132264634Y-132243396D01*
X132522863Y-132216256D01*
X132537672Y-132212864D01*
X132781972Y-132124910D01*
X132795544Y-132118084D01*
X132994349Y-131985999D01*
X142533302Y-131985999D01*
X143706035Y-133158734D01*
X143706050Y-133158747D01*
X143924276Y-133376973D01*
X143955868Y-133418145D01*
X143967547Y-133429824D01*
X144144633Y-133565707D01*
X144158937Y-133573965D01*
X144365157Y-133659384D01*
X144381111Y-133663659D01*
X144546868Y-133685481D01*
X144546877Y-133685482D01*
X144602411Y-133692793D01*
X144618928Y-133692793D01*
X144670368Y-133686021D01*
X148874337Y-133686021D01*
X148858683Y-133708798D01*
X148853403Y-133718073D01*
X148752260Y-133936968D01*
X148748618Y-133947000D01*
X148685802Y-134179807D01*
X148683903Y-134190309D01*
X148661211Y-134430372D01*
X148661109Y-134441043D01*
X148679188Y-134681497D01*
X148680885Y-134692034D01*
X148739221Y-134926005D01*
X148742669Y-134936104D01*
X148839591Y-135156901D01*
X148844692Y-135166275D01*
X148954713Y-135333130D01*
X149073759Y-135345222D01*
X150150000Y-134268980D01*
X151230119Y-135349100D01*
X151353085Y-135333129D01*
X151493256Y-135092294D01*
X151497825Y-135082650D01*
X151582272Y-134856787D01*
X151585151Y-134846511D01*
X151630392Y-134609351D01*
X151631507Y-134598128D01*
X151634077Y-134330341D01*
X151633178Y-134319099D01*
X151592499Y-134081114D01*
X151589817Y-134070784D01*
X151509723Y-133843343D01*
X151505339Y-133833612D01*
X151423191Y-133686021D01*
X155374337Y-133686021D01*
X155358683Y-133708798D01*
X155353403Y-133718073D01*
X155252260Y-133936968D01*
X155248618Y-133947000D01*
X155185802Y-134179807D01*
X155183903Y-134190309D01*
X155161211Y-134430372D01*
X155161109Y-134441043D01*
X155179188Y-134681497D01*
X155180885Y-134692034D01*
X155239221Y-134926005D01*
X155242669Y-134936104D01*
X155339591Y-135156901D01*
X155344692Y-135166275D01*
X155454713Y-135333130D01*
X155573759Y-135345222D01*
X156650000Y-134268980D01*
X157730119Y-135349100D01*
X157750830Y-135346410D01*
X164239962Y-135346410D01*
X164259810Y-135439789D01*
X164263892Y-135452350D01*
X164346897Y-135638782D01*
X164353500Y-135650219D01*
X164425995Y-135750000D01*
X164353501Y-135849780D01*
X164346897Y-135861218D01*
X164263892Y-136047650D01*
X164259810Y-136060211D01*
X164239962Y-136153588D01*
X164315605Y-136247000D01*
X165298191Y-136247001D01*
X165372000Y-136173192D01*
X165372000Y-136073000D01*
X165372001Y-135326809D01*
X165298192Y-135253000D01*
X164315605Y-135252999D01*
X164239962Y-135346410D01*
X157750830Y-135346410D01*
X157853085Y-135333129D01*
X157993256Y-135092294D01*
X157997825Y-135082650D01*
X158082272Y-134856787D01*
X158085151Y-134846511D01*
X158130392Y-134609351D01*
X158131507Y-134598128D01*
X158134077Y-134330341D01*
X158133178Y-134319099D01*
X158092499Y-134081114D01*
X158089817Y-134070784D01*
X158009723Y-133843343D01*
X158005339Y-133833612D01*
X157923191Y-133686021D01*
X160165283Y-133686021D01*
X160216720Y-133692793D01*
X160233238Y-133692793D01*
X160288771Y-133685482D01*
X160288782Y-133685481D01*
X160454539Y-133663659D01*
X160470493Y-133659384D01*
X160676713Y-133573965D01*
X160691017Y-133565707D01*
X160868103Y-133429824D01*
X160879782Y-133418145D01*
X160911374Y-133376973D01*
X162002347Y-132286000D01*
X164269078Y-132286000D01*
X164263891Y-132297651D01*
X164259810Y-132310211D01*
X164217381Y-132509828D01*
X164216001Y-132522962D01*
X164216001Y-132727038D01*
X164217381Y-132740172D01*
X164259810Y-132939789D01*
X164263892Y-132952350D01*
X164346897Y-133138782D01*
X164353500Y-133150219D01*
X164425995Y-133250000D01*
X164353501Y-133349780D01*
X164346897Y-133361218D01*
X164263891Y-133547651D01*
X164259810Y-133560211D01*
X164217381Y-133759828D01*
X164216001Y-133772962D01*
X164216001Y-133977038D01*
X164217381Y-133990172D01*
X164259810Y-134189789D01*
X164263892Y-134202350D01*
X164346897Y-134388782D01*
X164353500Y-134400219D01*
X164425995Y-134500000D01*
X164353501Y-134599780D01*
X164346897Y-134611218D01*
X164263892Y-134797650D01*
X164259810Y-134810211D01*
X164239962Y-134903588D01*
X164315605Y-134997000D01*
X165298192Y-134997001D01*
X165298193Y-134997000D01*
X166684395Y-134997001D01*
X166754037Y-134911000D01*
X167275347Y-134911000D01*
X166737124Y-135449223D01*
X166740190Y-135439789D01*
X166760038Y-135346412D01*
X166684395Y-135253000D01*
X165701809Y-135252999D01*
X165628000Y-135326808D01*
X165628000Y-135975538D01*
X165627999Y-136072999D01*
X165627999Y-136173192D01*
X165628000Y-136173193D01*
X165627999Y-136503000D01*
X164315605Y-136502999D01*
X164239962Y-136596410D01*
X164259810Y-136689789D01*
X164263892Y-136702350D01*
X164346897Y-136888782D01*
X164353500Y-136900219D01*
X164473453Y-137065320D01*
X164482290Y-137075135D01*
X164633948Y-137211688D01*
X164644632Y-137219450D01*
X164821368Y-137321489D01*
X164833433Y-137326861D01*
X164853097Y-137333250D01*
X161672348Y-140514000D01*
X132386000Y-140514000D01*
X132386000Y-138034909D01*
X132385544Y-138027336D01*
X132385537Y-138027282D01*
X132385970Y-137986001D01*
X135615303Y-137986001D01*
X135666740Y-137992773D01*
X135683258Y-137992773D01*
X135738791Y-137985462D01*
X135738802Y-137985461D01*
X135904559Y-137963639D01*
X135920513Y-137959364D01*
X136110425Y-137880701D01*
X136247864Y-137866256D01*
X136262673Y-137862864D01*
X136506973Y-137774910D01*
X136520545Y-137768084D01*
X136688716Y-137656352D01*
X136713043Y-137680679D01*
X136712653Y-137717922D01*
X136714321Y-137733023D01*
X136773613Y-137985814D01*
X136778834Y-138000081D01*
X136896713Y-138231431D01*
X136905186Y-138244041D01*
X137074847Y-138440595D01*
X137086084Y-138450820D01*
X137297732Y-138601230D01*
X137311083Y-138608479D01*
X137552501Y-138704064D01*
X137567196Y-138707919D01*
X137824445Y-138743157D01*
X137839635Y-138743396D01*
X138097864Y-138716256D01*
X138112673Y-138712864D01*
X138356973Y-138624910D01*
X138370545Y-138618084D01*
X138586814Y-138474395D01*
X138598367Y-138464529D01*
X138774118Y-138273400D01*
X138782983Y-138261062D01*
X138908071Y-138033528D01*
X138913738Y-138019433D01*
X138981026Y-137768309D01*
X138983178Y-137752601D01*
X138985099Y-137569113D01*
X139108538Y-137590878D01*
X139119499Y-137591837D01*
X140533258Y-137591837D01*
X140549634Y-137589681D01*
X140828859Y-137514863D01*
X140853339Y-137502120D01*
X140918904Y-137447104D01*
X140920879Y-137448761D01*
X141095120Y-137549359D01*
X141115837Y-137556900D01*
X141308538Y-137590878D01*
X141319499Y-137591837D01*
X142733258Y-137591837D01*
X142749634Y-137589681D01*
X143028859Y-137514863D01*
X143039500Y-137509324D01*
X143152501Y-137554064D01*
X143167196Y-137557919D01*
X143424445Y-137593157D01*
X143439635Y-137593396D01*
X143697864Y-137566256D01*
X143712673Y-137562864D01*
X143956973Y-137474910D01*
X143970545Y-137468084D01*
X144186814Y-137324395D01*
X144198367Y-137314529D01*
X144374118Y-137123400D01*
X144376599Y-137119946D01*
X145589000Y-138332347D01*
X145589001Y-138663968D01*
X145568881Y-138686314D01*
X145560145Y-138698743D01*
X145437447Y-138927575D01*
X145431929Y-138941729D01*
X145367355Y-139193222D01*
X145365372Y-139208285D01*
X145362653Y-139467922D01*
X145364321Y-139483023D01*
X145423613Y-139735814D01*
X145428834Y-139750081D01*
X145546713Y-139981431D01*
X145555186Y-139994041D01*
X145724847Y-140190595D01*
X145736084Y-140200820D01*
X145947732Y-140351230D01*
X145961083Y-140358479D01*
X146202501Y-140454064D01*
X146217196Y-140457919D01*
X146474445Y-140493157D01*
X146489635Y-140493396D01*
X146747864Y-140466256D01*
X146762673Y-140462864D01*
X147006973Y-140374910D01*
X147020545Y-140368084D01*
X147236814Y-140224395D01*
X147248367Y-140214529D01*
X147424118Y-140023400D01*
X147432983Y-140011062D01*
X147558071Y-139783528D01*
X147563738Y-139769433D01*
X147631026Y-139518309D01*
X147633178Y-139502601D01*
X147636125Y-139221164D01*
X147634303Y-139205414D01*
X147572289Y-138952936D01*
X147566919Y-138938724D01*
X147446623Y-138708621D01*
X147438018Y-138696100D01*
X147411000Y-138665454D01*
X147411000Y-138014704D01*
X147417773Y-137963259D01*
X147417773Y-137946742D01*
X147388638Y-137725439D01*
X147384363Y-137709484D01*
X147336426Y-137593754D01*
X147298944Y-137503266D01*
X147290686Y-137488962D01*
X147154803Y-137311876D01*
X147143124Y-137300197D01*
X147101952Y-137268605D01*
X146951269Y-137117922D01*
X150112653Y-137117922D01*
X150114321Y-137133023D01*
X150173613Y-137385814D01*
X150178834Y-137400081D01*
X150296713Y-137631431D01*
X150305186Y-137644041D01*
X150339001Y-137683215D01*
X150339000Y-138105802D01*
X150247393Y-138306394D01*
X150242315Y-138323687D01*
X150211418Y-138538580D01*
X150210776Y-138547557D01*
X150210776Y-139454697D01*
X150212220Y-139468127D01*
X150280691Y-139782882D01*
X150289321Y-139803716D01*
X150410358Y-139992054D01*
X150422161Y-140005675D01*
X150589645Y-140150802D01*
X150604807Y-140160546D01*
X150806394Y-140252607D01*
X150823687Y-140257685D01*
X151038580Y-140288582D01*
X151047557Y-140289224D01*
X151454697Y-140289224D01*
X151468127Y-140287780D01*
X151782882Y-140219309D01*
X151803716Y-140210679D01*
X151941363Y-140122219D01*
X151974781Y-140146499D01*
X151986219Y-140153103D01*
X152172652Y-140236109D01*
X152185212Y-140240190D01*
X152384829Y-140282619D01*
X152397963Y-140283999D01*
X152602038Y-140283999D01*
X152615172Y-140282619D01*
X152814789Y-140240190D01*
X152827350Y-140236108D01*
X153013782Y-140153103D01*
X153025219Y-140146500D01*
X153125000Y-140074004D01*
X153224781Y-140146499D01*
X153236219Y-140153103D01*
X153422651Y-140236108D01*
X153435211Y-140240189D01*
X153528588Y-140260038D01*
X153622000Y-140184395D01*
X153622000Y-137815605D01*
X153528588Y-137739962D01*
X153526842Y-137740333D01*
X153558071Y-137683528D01*
X153563738Y-137669433D01*
X153631026Y-137418309D01*
X153633178Y-137402601D01*
X153633541Y-137367922D01*
X153862653Y-137367922D01*
X153864321Y-137383023D01*
X153923613Y-137635814D01*
X153928834Y-137650081D01*
X153975022Y-137740729D01*
X153971412Y-137739962D01*
X153878000Y-137815605D01*
X153878000Y-140184395D01*
X153971412Y-140260038D01*
X154064790Y-140240190D01*
X154077350Y-140236108D01*
X154263782Y-140153103D01*
X154275219Y-140146500D01*
X154375000Y-140074004D01*
X154474781Y-140146499D01*
X154486219Y-140153103D01*
X154672652Y-140236109D01*
X154685212Y-140240190D01*
X154884829Y-140282619D01*
X154897963Y-140283999D01*
X155102038Y-140283999D01*
X155115172Y-140282619D01*
X155314789Y-140240190D01*
X155327350Y-140236108D01*
X155513782Y-140153103D01*
X155525219Y-140146500D01*
X155625000Y-140074004D01*
X155724781Y-140146499D01*
X155736219Y-140153103D01*
X155922652Y-140236109D01*
X155935212Y-140240190D01*
X156134829Y-140282619D01*
X156147963Y-140283999D01*
X156352038Y-140283999D01*
X156365172Y-140282619D01*
X156564789Y-140240190D01*
X156577350Y-140236108D01*
X156763782Y-140153103D01*
X156775219Y-140146500D01*
X156875000Y-140074004D01*
X156974781Y-140146499D01*
X156986219Y-140153103D01*
X157172652Y-140236109D01*
X157185212Y-140240190D01*
X157384829Y-140282619D01*
X157397963Y-140283999D01*
X157602038Y-140283999D01*
X157615172Y-140282619D01*
X157814789Y-140240190D01*
X157827350Y-140236108D01*
X158013782Y-140153103D01*
X158025219Y-140146500D01*
X158190320Y-140026547D01*
X158200135Y-140017710D01*
X158336688Y-139866052D01*
X158344450Y-139855368D01*
X158446489Y-139678632D01*
X158451861Y-139666567D01*
X158514924Y-139472480D01*
X158517670Y-139459562D01*
X158533655Y-139307471D01*
X158534000Y-139300881D01*
X158534000Y-138699119D01*
X158533655Y-138692529D01*
X158517670Y-138540438D01*
X158514924Y-138527520D01*
X158451861Y-138333433D01*
X158446489Y-138321368D01*
X158344450Y-138144632D01*
X158336688Y-138133948D01*
X158200135Y-137982290D01*
X158190320Y-137973453D01*
X158025219Y-137853500D01*
X158013781Y-137846897D01*
X157933156Y-137811000D01*
X159570766Y-137811000D01*
X159697732Y-137901230D01*
X159711083Y-137908479D01*
X159952501Y-138004064D01*
X159967196Y-138007919D01*
X160224445Y-138043157D01*
X160239635Y-138043396D01*
X160497864Y-138016256D01*
X160512673Y-138012864D01*
X160756973Y-137924910D01*
X160770545Y-137918084D01*
X160986814Y-137774395D01*
X160998367Y-137764529D01*
X161174118Y-137573400D01*
X161182983Y-137561062D01*
X161308071Y-137333528D01*
X161313738Y-137319433D01*
X161381026Y-137068309D01*
X161383178Y-137052601D01*
X161386125Y-136771164D01*
X161384303Y-136755414D01*
X161322289Y-136502936D01*
X161316919Y-136488724D01*
X161196623Y-136258621D01*
X161188018Y-136246100D01*
X161016307Y-136051334D01*
X161004964Y-136041227D01*
X160791752Y-135893041D01*
X160778326Y-135885932D01*
X160535921Y-135792882D01*
X160521186Y-135789181D01*
X160263583Y-135756638D01*
X160248391Y-135756558D01*
X159990460Y-135786401D01*
X159975687Y-135789948D01*
X159732322Y-135880455D01*
X159718822Y-135887423D01*
X159569357Y-135989000D01*
X156659704Y-135989000D01*
X156608259Y-135982227D01*
X156591742Y-135982227D01*
X156370439Y-136011362D01*
X156354484Y-136015637D01*
X156318887Y-136030382D01*
X156148266Y-136101055D01*
X156133963Y-136109313D01*
X156117874Y-136121659D01*
X155990460Y-136136401D01*
X155975687Y-136139948D01*
X155732322Y-136230455D01*
X155718822Y-136237423D01*
X155625207Y-136301044D01*
X155541752Y-136243041D01*
X155528326Y-136235932D01*
X155285921Y-136142882D01*
X155271186Y-136139181D01*
X155013583Y-136106638D01*
X154998391Y-136106558D01*
X154740460Y-136136401D01*
X154725687Y-136139948D01*
X154482322Y-136230455D01*
X154468822Y-136237423D01*
X154254070Y-136383368D01*
X154242622Y-136393355D01*
X154068881Y-136586314D01*
X154060145Y-136598743D01*
X153937447Y-136827575D01*
X153931929Y-136841729D01*
X153867355Y-137093222D01*
X153865372Y-137108285D01*
X153862653Y-137367922D01*
X153633541Y-137367922D01*
X153636125Y-137121164D01*
X153634303Y-137105414D01*
X153572289Y-136852936D01*
X153566919Y-136838724D01*
X153446623Y-136608621D01*
X153438018Y-136596100D01*
X153266307Y-136401334D01*
X153254964Y-136391227D01*
X153041752Y-136243041D01*
X153028326Y-136235932D01*
X152785921Y-136142882D01*
X152771186Y-136139181D01*
X152513583Y-136106638D01*
X152498391Y-136106558D01*
X152240460Y-136136401D01*
X152225687Y-136139948D01*
X152060447Y-136201401D01*
X152016308Y-136151334D01*
X152004965Y-136141227D01*
X151791752Y-135993041D01*
X151778326Y-135985932D01*
X151535921Y-135892882D01*
X151521186Y-135889181D01*
X151263583Y-135856638D01*
X151248391Y-135856558D01*
X150990460Y-135886401D01*
X150975687Y-135889948D01*
X150732322Y-135980455D01*
X150718822Y-135987423D01*
X150504070Y-136133368D01*
X150492622Y-136143355D01*
X150318881Y-136336314D01*
X150310145Y-136348743D01*
X150187447Y-136577575D01*
X150181929Y-136591729D01*
X150117355Y-136843222D01*
X150115372Y-136858285D01*
X150112653Y-137117922D01*
X146951269Y-137117922D01*
X145359001Y-135525654D01*
X149255365Y-135525654D01*
X149263157Y-135639966D01*
X149348791Y-135704967D01*
X149357807Y-135710678D01*
X149571696Y-135822021D01*
X149581545Y-135826131D01*
X149811134Y-135899844D01*
X149821535Y-135902236D01*
X150060262Y-135936212D01*
X150070917Y-135936817D01*
X150311956Y-135930084D01*
X150322561Y-135928885D01*
X150559019Y-135881636D01*
X150569270Y-135878667D01*
X150794387Y-135792253D01*
X150803991Y-135787600D01*
X151032936Y-135651662D01*
X151048285Y-135529304D01*
X151044635Y-135525654D01*
X155755365Y-135525654D01*
X155763157Y-135639966D01*
X155848791Y-135704967D01*
X155857807Y-135710678D01*
X156071696Y-135822021D01*
X156081545Y-135826131D01*
X156311134Y-135899844D01*
X156321535Y-135902236D01*
X156560262Y-135936212D01*
X156570917Y-135936817D01*
X156811956Y-135930084D01*
X156822561Y-135928885D01*
X157059019Y-135881636D01*
X157069270Y-135878667D01*
X157294387Y-135792253D01*
X157303991Y-135787600D01*
X157532936Y-135651662D01*
X157548285Y-135529304D01*
X156702191Y-134683210D01*
X156597809Y-134683210D01*
X155755365Y-135525654D01*
X151044635Y-135525654D01*
X150202191Y-134683210D01*
X150097809Y-134683210D01*
X149255365Y-135525654D01*
X145359001Y-135525654D01*
X143961395Y-134128048D01*
X143929803Y-134086876D01*
X143918124Y-134075197D01*
X143741038Y-133939314D01*
X143726734Y-133931056D01*
X143520514Y-133845637D01*
X143504560Y-133841362D01*
X143338803Y-133819540D01*
X143338792Y-133819539D01*
X143283259Y-133812228D01*
X143282620Y-133812228D01*
X143277120Y-133801662D01*
X143146010Y-133645410D01*
X143129121Y-133631239D01*
X142954880Y-133530641D01*
X142934163Y-133523100D01*
X142741462Y-133489122D01*
X142730501Y-133488163D01*
X141316742Y-133488163D01*
X141300366Y-133490319D01*
X141021142Y-133565137D01*
X140996662Y-133577880D01*
X140973078Y-133597669D01*
X140946010Y-133565410D01*
X140929121Y-133551239D01*
X140754880Y-133450641D01*
X140734163Y-133443100D01*
X140541462Y-133409122D01*
X140530501Y-133408163D01*
X139116742Y-133408163D01*
X139100366Y-133410319D01*
X138821142Y-133485137D01*
X138796662Y-133497880D01*
X138640410Y-133628990D01*
X138626239Y-133645879D01*
X138601343Y-133689000D01*
X137212300Y-133689000D01*
X137091016Y-133688260D01*
X137085615Y-133689000D01*
X128901760Y-133689000D01*
X128691752Y-133543041D01*
X128678326Y-133535932D01*
X128435921Y-133442882D01*
X128421186Y-133439181D01*
X128163583Y-133406638D01*
X128148391Y-133406558D01*
X127890460Y-133436401D01*
X127875687Y-133439948D01*
X127632322Y-133530455D01*
X127618822Y-133537423D01*
X127404070Y-133683368D01*
X127392622Y-133693355D01*
X127218881Y-133886314D01*
X127210145Y-133898743D01*
X127087447Y-134127575D01*
X127081929Y-134141729D01*
X127017355Y-134393222D01*
X127015372Y-134408285D01*
X127012653Y-134667922D01*
X127014321Y-134683023D01*
X127073613Y-134935814D01*
X127078834Y-134950081D01*
X127196713Y-135181431D01*
X127200864Y-135187609D01*
X127020438Y-135211362D01*
X127004483Y-135215637D01*
X126984420Y-135223948D01*
X126798266Y-135301056D01*
X126783962Y-135309314D01*
X126606876Y-135445197D01*
X126595197Y-135456876D01*
X126563605Y-135498048D01*
X124398048Y-137663605D01*
X124356876Y-137695197D01*
X124345197Y-137706876D01*
X124209314Y-137883963D01*
X124201056Y-137898267D01*
X124142469Y-138039708D01*
X124099198Y-138089645D01*
X124089454Y-138104807D01*
X123997393Y-138306394D01*
X123992315Y-138323687D01*
X123961418Y-138538580D01*
X123960776Y-138547557D01*
X123960776Y-139454697D01*
X123962220Y-139468127D01*
X123977638Y-139538999D01*
X123317023Y-139538999D01*
X123316919Y-139538724D01*
X123196623Y-139308621D01*
X123188018Y-139296100D01*
X123016307Y-139101334D01*
X123004964Y-139091227D01*
X122791752Y-138943041D01*
X122778326Y-138935932D01*
X122535921Y-138842882D01*
X122521186Y-138839181D01*
X122263583Y-138806638D01*
X122248391Y-138806558D01*
X121990460Y-138836401D01*
X121975687Y-138839948D01*
X121732322Y-138930455D01*
X121718822Y-138937423D01*
X121504070Y-139083368D01*
X121492622Y-139093355D01*
X121318881Y-139286314D01*
X121310145Y-139298743D01*
X121187447Y-139527575D01*
X121181929Y-139541729D01*
X121117355Y-139793222D01*
X121115372Y-139808285D01*
X121112653Y-140067922D01*
X121114321Y-140083023D01*
X121173613Y-140335814D01*
X121178834Y-140350081D01*
X121262355Y-140514000D01*
X119427652Y-140514000D01*
X116278537Y-137364885D01*
X116306394Y-137377607D01*
X116323687Y-137382685D01*
X116538580Y-137413582D01*
X116547557Y-137414224D01*
X116798191Y-137414224D01*
X116872000Y-137340415D01*
X117127999Y-137340415D01*
X117201808Y-137414224D01*
X117454697Y-137414224D01*
X117468127Y-137412780D01*
X117782882Y-137344309D01*
X117803716Y-137335679D01*
X117992054Y-137214642D01*
X118005675Y-137202839D01*
X118150802Y-137035355D01*
X118160546Y-137020193D01*
X118252607Y-136818606D01*
X118257685Y-136801313D01*
X118288071Y-136589975D01*
X118212706Y-136503000D01*
X117201809Y-136502999D01*
X117128000Y-136576808D01*
X117127999Y-137340415D01*
X116872000Y-137340415D01*
X116872001Y-136576809D01*
X116798192Y-136503000D01*
X115788687Y-136502999D01*
X115713035Y-136596877D01*
X115769336Y-136855684D01*
X115073677Y-136160025D01*
X115711929Y-136160025D01*
X115787294Y-136247000D01*
X116798191Y-136247001D01*
X116872000Y-136173192D01*
X116872000Y-136073000D01*
X116872000Y-136072999D01*
X117127999Y-136072999D01*
X117127999Y-136173191D01*
X117201808Y-136247000D01*
X118211313Y-136247001D01*
X118286965Y-136153123D01*
X118219309Y-135842118D01*
X118210679Y-135821284D01*
X118122220Y-135683638D01*
X118146499Y-135650220D01*
X118153103Y-135638783D01*
X118236108Y-135452350D01*
X118240190Y-135439789D01*
X118260038Y-135346412D01*
X118184395Y-135253000D01*
X117201809Y-135252999D01*
X117128000Y-135326808D01*
X117128000Y-135975538D01*
X117127999Y-136072999D01*
X116872000Y-136072999D01*
X116872001Y-135326809D01*
X116798192Y-135253000D01*
X115815605Y-135252999D01*
X115739962Y-135346410D01*
X115759810Y-135439789D01*
X115763892Y-135452350D01*
X115846897Y-135638782D01*
X115853500Y-135650219D01*
X115876999Y-135682562D01*
X115849198Y-135714645D01*
X115839454Y-135729807D01*
X115747393Y-135931394D01*
X115742315Y-135948687D01*
X115711929Y-136160025D01*
X115073677Y-136160025D01*
X113873899Y-134960247D01*
X113911825Y-134911000D01*
X115745964Y-134911000D01*
X115815605Y-134997000D01*
X116798192Y-134997001D01*
X116798193Y-134997000D01*
X118184395Y-134997001D01*
X118260038Y-134903590D01*
X118240190Y-134810211D01*
X118236108Y-134797650D01*
X118153103Y-134611218D01*
X118146500Y-134599781D01*
X118074005Y-134500000D01*
X118146499Y-134400220D01*
X118153103Y-134388782D01*
X118236109Y-134202349D01*
X118240190Y-134189789D01*
X118282619Y-133990172D01*
X118283999Y-133977038D01*
X118283999Y-133772962D01*
X118282619Y-133759828D01*
X118240190Y-133560211D01*
X118236108Y-133547650D01*
X118153103Y-133361218D01*
X118146500Y-133349781D01*
X118074005Y-133250000D01*
X118146499Y-133150220D01*
X118153103Y-133138782D01*
X118236109Y-132952349D01*
X118240190Y-132939789D01*
X118282619Y-132740172D01*
X118283999Y-132727038D01*
X118283999Y-132522962D01*
X118282619Y-132509828D01*
X118240190Y-132310211D01*
X118236108Y-132297650D01*
X118153103Y-132111218D01*
X118146500Y-132099781D01*
X118074005Y-132000000D01*
X118084177Y-131985999D01*
X131560585Y-131985999D01*
X131722731Y-132101230D01*
G36*
X128878000Y-140184395D02*
G01*
X128971412Y-140260038D01*
X129064790Y-140240190D01*
X129077350Y-140236108D01*
X129263782Y-140153103D01*
X129275219Y-140146500D01*
X129375000Y-140074004D01*
X129474781Y-140146499D01*
X129486219Y-140153103D01*
X129672652Y-140236109D01*
X129685212Y-140240190D01*
X129884829Y-140282619D01*
X129897963Y-140283999D01*
X130102038Y-140283999D01*
X130114000Y-140282742D01*
X130114001Y-140514000D01*
X127524347Y-140514000D01*
X127793667Y-140244680D01*
X127814789Y-140240190D01*
X127827350Y-140236108D01*
X128013782Y-140153103D01*
X128025219Y-140146500D01*
X128125000Y-140074004D01*
X128224781Y-140146499D01*
X128236219Y-140153103D01*
X128422651Y-140236108D01*
X128435211Y-140240189D01*
X128528588Y-140260038D01*
X128622000Y-140184395D01*
X128622000Y-138872000D01*
X128878000Y-138872000D01*
X128878000Y-140184395D01*
G37*
X128878000Y-140184395D02*
X128971412Y-140260038D01*
X129064790Y-140240190D01*
X129077350Y-140236108D01*
X129263782Y-140153103D01*
X129275219Y-140146500D01*
X129375000Y-140074004D01*
X129474781Y-140146499D01*
X129486219Y-140153103D01*
X129672652Y-140236109D01*
X129685212Y-140240190D01*
X129884829Y-140282619D01*
X129897963Y-140283999D01*
X130102038Y-140283999D01*
X130114000Y-140282742D01*
X130114001Y-140514000D01*
X127524347Y-140514000D01*
X127793667Y-140244680D01*
X127814789Y-140240190D01*
X127827350Y-140236108D01*
X128013782Y-140153103D01*
X128025219Y-140146500D01*
X128125000Y-140074004D01*
X128224781Y-140146499D01*
X128236219Y-140153103D01*
X128422651Y-140236108D01*
X128435211Y-140240189D01*
X128528588Y-140260038D01*
X128622000Y-140184395D01*
X128622000Y-138872000D01*
X128878000Y-138872000D01*
X128878000Y-140184395D01*
G36*
X149608068Y-128563210D02*
G01*
X149598142Y-128567130D01*
X149382155Y-128674346D01*
X149373032Y-128679882D01*
X149178199Y-128821957D01*
X149170138Y-128828952D01*
X149002029Y-129001822D01*
X148995263Y-129010074D01*
X148891965Y-129160373D01*
X148887421Y-129157215D01*
X148873995Y-129150106D01*
X148631590Y-129057056D01*
X148616855Y-129053355D01*
X148359252Y-129020812D01*
X148344060Y-129020732D01*
X148086129Y-129050575D01*
X148071356Y-129054122D01*
X147910348Y-129114001D01*
X145802349Y-129114001D01*
X145481223Y-128792875D01*
X145422289Y-128552936D01*
X145416919Y-128538725D01*
X145415494Y-128536000D01*
X149698764Y-128536000D01*
X149608068Y-128563210D01*
G37*
X149608068Y-128563210D02*
X149598142Y-128567130D01*
X149382155Y-128674346D01*
X149373032Y-128679882D01*
X149178199Y-128821957D01*
X149170138Y-128828952D01*
X149002029Y-129001822D01*
X148995263Y-129010074D01*
X148891965Y-129160373D01*
X148887421Y-129157215D01*
X148873995Y-129150106D01*
X148631590Y-129057056D01*
X148616855Y-129053355D01*
X148359252Y-129020812D01*
X148344060Y-129020732D01*
X148086129Y-129050575D01*
X148071356Y-129054122D01*
X147910348Y-129114001D01*
X145802349Y-129114001D01*
X145481223Y-128792875D01*
X145422289Y-128552936D01*
X145416919Y-128538725D01*
X145415494Y-128536000D01*
X149698764Y-128536000D01*
X149608068Y-128563210D01*
G36*
X151717356Y-128593222D02*
G01*
X151715372Y-128608285D01*
X151713253Y-128810624D01*
X151490460Y-128836401D01*
X151475687Y-128839948D01*
X151233985Y-128929837D01*
X151231013Y-128926140D01*
X151223647Y-128918417D01*
X151043049Y-128758638D01*
X151034486Y-128752267D01*
X150829549Y-128625202D01*
X150820036Y-128620365D01*
X150612270Y-128536000D01*
X151732048Y-128536000D01*
X151717356Y-128593222D01*
G37*
X151717356Y-128593222D02*
X151715372Y-128608285D01*
X151713253Y-128810624D01*
X151490460Y-128836401D01*
X151475687Y-128839948D01*
X151233985Y-128929837D01*
X151231013Y-128926140D01*
X151223647Y-128918417D01*
X151043049Y-128758638D01*
X151034486Y-128752267D01*
X150829549Y-128625202D01*
X150820036Y-128620365D01*
X150612270Y-128536000D01*
X151732048Y-128536000D01*
X151717356Y-128593222D01*
G36*
X169473613Y-122535814D02*
G01*
X169478834Y-122550081D01*
X169596713Y-122781431D01*
X169605186Y-122794041D01*
X169774847Y-122990595D01*
X169786084Y-123000820D01*
X169997732Y-123151230D01*
X170011083Y-123158479D01*
X170252501Y-123254064D01*
X170267196Y-123257919D01*
X170524445Y-123293157D01*
X170539635Y-123293396D01*
X170797864Y-123266256D01*
X170812673Y-123262864D01*
X170818163Y-123260887D01*
X170818163Y-123858258D01*
X170820319Y-123874634D01*
X170895137Y-124153859D01*
X170907880Y-124178339D01*
X171038990Y-124334590D01*
X171055879Y-124348761D01*
X171230120Y-124449359D01*
X171250837Y-124456900D01*
X171443538Y-124490878D01*
X171454499Y-124491837D01*
X172270523Y-124491837D01*
X172248266Y-124501056D01*
X172233962Y-124509314D01*
X172056876Y-124645197D01*
X172045197Y-124656876D01*
X172013608Y-124698044D01*
X170886346Y-125825307D01*
X170790460Y-125836401D01*
X170775688Y-125839948D01*
X170740591Y-125853000D01*
X169751808Y-125852999D01*
X169751807Y-125853000D01*
X169422000Y-125852999D01*
X169422000Y-125523191D01*
X169677999Y-125523191D01*
X169751808Y-125597000D01*
X170815415Y-125597001D01*
X170889224Y-125523192D01*
X170889224Y-125395816D01*
X170887780Y-125382386D01*
X170814745Y-125046647D01*
X170806115Y-125025812D01*
X170677304Y-124825380D01*
X170665501Y-124811759D01*
X170487151Y-124657217D01*
X170471989Y-124647473D01*
X170257324Y-124549439D01*
X170240031Y-124544361D01*
X170010907Y-124511418D01*
X170001930Y-124510776D01*
X169751809Y-124510776D01*
X169678000Y-124584585D01*
X169677999Y-125523191D01*
X169422000Y-125523191D01*
X169422001Y-124584585D01*
X169348192Y-124510776D01*
X169095816Y-124510776D01*
X169082386Y-124512220D01*
X168746647Y-124585255D01*
X168725812Y-124593885D01*
X168525380Y-124722696D01*
X168511759Y-124734499D01*
X168477478Y-124774061D01*
X168472289Y-124752936D01*
X168466919Y-124738724D01*
X168346623Y-124508621D01*
X168338018Y-124496100D01*
X168166307Y-124301334D01*
X168154964Y-124291227D01*
X167941752Y-124143041D01*
X167928326Y-124135932D01*
X167685921Y-124042882D01*
X167671186Y-124039181D01*
X167413583Y-124006638D01*
X167398391Y-124006558D01*
X167140460Y-124036401D01*
X167125687Y-124039948D01*
X166882322Y-124130455D01*
X166868822Y-124137423D01*
X166756143Y-124214000D01*
X166730922Y-124214000D01*
X166736109Y-124202349D01*
X166740190Y-124189789D01*
X166782619Y-123990172D01*
X166783999Y-123977038D01*
X166783999Y-123772962D01*
X166782619Y-123759828D01*
X166740190Y-123560211D01*
X166736108Y-123547650D01*
X166653103Y-123361218D01*
X166646500Y-123349781D01*
X166623001Y-123317438D01*
X166650802Y-123285355D01*
X166660546Y-123270193D01*
X166752607Y-123068606D01*
X166757685Y-123051313D01*
X166788582Y-122836420D01*
X166789224Y-122827443D01*
X166789224Y-122420303D01*
X166787780Y-122406873D01*
X166783239Y-122385999D01*
X169438474Y-122385999D01*
X169473613Y-122535814D01*
G37*
X169473613Y-122535814D02*
X169478834Y-122550081D01*
X169596713Y-122781431D01*
X169605186Y-122794041D01*
X169774847Y-122990595D01*
X169786084Y-123000820D01*
X169997732Y-123151230D01*
X170011083Y-123158479D01*
X170252501Y-123254064D01*
X170267196Y-123257919D01*
X170524445Y-123293157D01*
X170539635Y-123293396D01*
X170797864Y-123266256D01*
X170812673Y-123262864D01*
X170818163Y-123260887D01*
X170818163Y-123858258D01*
X170820319Y-123874634D01*
X170895137Y-124153859D01*
X170907880Y-124178339D01*
X171038990Y-124334590D01*
X171055879Y-124348761D01*
X171230120Y-124449359D01*
X171250837Y-124456900D01*
X171443538Y-124490878D01*
X171454499Y-124491837D01*
X172270523Y-124491837D01*
X172248266Y-124501056D01*
X172233962Y-124509314D01*
X172056876Y-124645197D01*
X172045197Y-124656876D01*
X172013608Y-124698044D01*
X170886346Y-125825307D01*
X170790460Y-125836401D01*
X170775688Y-125839948D01*
X170740591Y-125853000D01*
X169751808Y-125852999D01*
X169751807Y-125853000D01*
X169422000Y-125852999D01*
X169422000Y-125523191D01*
X169677999Y-125523191D01*
X169751808Y-125597000D01*
X170815415Y-125597001D01*
X170889224Y-125523192D01*
X170889224Y-125395816D01*
X170887780Y-125382386D01*
X170814745Y-125046647D01*
X170806115Y-125025812D01*
X170677304Y-124825380D01*
X170665501Y-124811759D01*
X170487151Y-124657217D01*
X170471989Y-124647473D01*
X170257324Y-124549439D01*
X170240031Y-124544361D01*
X170010907Y-124511418D01*
X170001930Y-124510776D01*
X169751809Y-124510776D01*
X169678000Y-124584585D01*
X169677999Y-125523191D01*
X169422000Y-125523191D01*
X169422001Y-124584585D01*
X169348192Y-124510776D01*
X169095816Y-124510776D01*
X169082386Y-124512220D01*
X168746647Y-124585255D01*
X168725812Y-124593885D01*
X168525380Y-124722696D01*
X168511759Y-124734499D01*
X168477478Y-124774061D01*
X168472289Y-124752936D01*
X168466919Y-124738724D01*
X168346623Y-124508621D01*
X168338018Y-124496100D01*
X168166307Y-124301334D01*
X168154964Y-124291227D01*
X167941752Y-124143041D01*
X167928326Y-124135932D01*
X167685921Y-124042882D01*
X167671186Y-124039181D01*
X167413583Y-124006638D01*
X167398391Y-124006558D01*
X167140460Y-124036401D01*
X167125687Y-124039948D01*
X166882322Y-124130455D01*
X166868822Y-124137423D01*
X166756143Y-124214000D01*
X166730922Y-124214000D01*
X166736109Y-124202349D01*
X166740190Y-124189789D01*
X166782619Y-123990172D01*
X166783999Y-123977038D01*
X166783999Y-123772962D01*
X166782619Y-123759828D01*
X166740190Y-123560211D01*
X166736108Y-123547650D01*
X166653103Y-123361218D01*
X166646500Y-123349781D01*
X166623001Y-123317438D01*
X166650802Y-123285355D01*
X166660546Y-123270193D01*
X166752607Y-123068606D01*
X166757685Y-123051313D01*
X166788582Y-122836420D01*
X166789224Y-122827443D01*
X166789224Y-122420303D01*
X166787780Y-122406873D01*
X166783239Y-122385999D01*
X169438474Y-122385999D01*
X169473613Y-122535814D01*
G36*
X164211418Y-122413580D02*
G01*
X164210776Y-122422557D01*
X164210776Y-122829697D01*
X164212220Y-122843127D01*
X164280691Y-123157882D01*
X164289321Y-123178716D01*
X164377780Y-123316362D01*
X164353501Y-123349780D01*
X164346897Y-123361217D01*
X164263891Y-123547651D01*
X164259810Y-123560211D01*
X164217381Y-123759828D01*
X164216001Y-123772962D01*
X164216001Y-123977038D01*
X164217381Y-123990172D01*
X164259810Y-124189789D01*
X164263892Y-124202350D01*
X164269079Y-124214000D01*
X154984106Y-124214000D01*
X154986125Y-124021164D01*
X154984303Y-124005414D01*
X154961113Y-123911000D01*
X159570766Y-123911000D01*
X159697732Y-124001230D01*
X159711083Y-124008479D01*
X159952501Y-124104064D01*
X159967196Y-124107919D01*
X160224445Y-124143157D01*
X160239635Y-124143396D01*
X160497864Y-124116256D01*
X160512673Y-124112864D01*
X160756973Y-124024910D01*
X160770545Y-124018084D01*
X160986814Y-123874395D01*
X160998367Y-123864529D01*
X161174118Y-123673400D01*
X161182983Y-123661062D01*
X161308071Y-123433528D01*
X161313738Y-123419433D01*
X161381026Y-123168309D01*
X161383178Y-123152601D01*
X161386125Y-122871164D01*
X161384303Y-122855414D01*
X161322289Y-122602936D01*
X161316919Y-122588724D01*
X161210936Y-122385999D01*
X164215383Y-122385999D01*
X164211418Y-122413580D01*
G37*
X164211418Y-122413580D02*
X164210776Y-122422557D01*
X164210776Y-122829697D01*
X164212220Y-122843127D01*
X164280691Y-123157882D01*
X164289321Y-123178716D01*
X164377780Y-123316362D01*
X164353501Y-123349780D01*
X164346897Y-123361217D01*
X164263891Y-123547651D01*
X164259810Y-123560211D01*
X164217381Y-123759828D01*
X164216001Y-123772962D01*
X164216001Y-123977038D01*
X164217381Y-123990172D01*
X164259810Y-124189789D01*
X164263892Y-124202350D01*
X164269079Y-124214000D01*
X154984106Y-124214000D01*
X154986125Y-124021164D01*
X154984303Y-124005414D01*
X154961113Y-123911000D01*
X159570766Y-123911000D01*
X159697732Y-124001230D01*
X159711083Y-124008479D01*
X159952501Y-124104064D01*
X159967196Y-124107919D01*
X160224445Y-124143157D01*
X160239635Y-124143396D01*
X160497864Y-124116256D01*
X160512673Y-124112864D01*
X160756973Y-124024910D01*
X160770545Y-124018084D01*
X160986814Y-123874395D01*
X160998367Y-123864529D01*
X161174118Y-123673400D01*
X161182983Y-123661062D01*
X161308071Y-123433528D01*
X161313738Y-123419433D01*
X161381026Y-123168309D01*
X161383178Y-123152601D01*
X161386125Y-122871164D01*
X161384303Y-122855414D01*
X161322289Y-122602936D01*
X161316919Y-122588724D01*
X161210936Y-122385999D01*
X164215383Y-122385999D01*
X164211418Y-122413580D01*
G36*
X132479651Y-121489000D02*
G01*
X128835415Y-121489000D01*
X128836125Y-121421164D01*
X128834303Y-121405415D01*
X128811113Y-121311000D01*
X132657651Y-121311000D01*
X132479651Y-121489000D01*
G37*
X132479651Y-121489000D02*
X128835415Y-121489000D01*
X128836125Y-121421164D01*
X128834303Y-121405415D01*
X128811113Y-121311000D01*
X132657651Y-121311000D01*
X132479651Y-121489000D01*
M02*
