M48
; DRILL file {KiCad 5.99.0-unknown-c7daca1~86~ubuntu18.04.1} date Thu Mar 26 16:36:06 2020
; FORMAT={-:-/ absolute / inch / decimal}
; #@! TF.CreationDate,2020-03-26T16:36:06-03:00
; #@! TF.GenerationSoftware,Kicad,Pcbnew,5.99.0-unknown-c7daca1~86~ubuntu18.04.1
FMAT,2
INCH
T1C0.0157
T2C0.0197
T3C0.0394
T4C0.0984
T5C0.1024
T6C0.1181
%
G90
G05
T1
X4.0315Y-4.8563
X4.2303Y-4.7461
X4.2717Y-4.6969
X4.2776Y-4.9754
X4.3583Y-4.7028
X4.3996Y-5.0719
X4.4409Y-4.6339
X4.4469Y-5.5846
X4.4488Y-4.9291
X4.685Y-4.8701
X4.7047Y-5.2008
X4.7165Y-5.4035
X4.7362Y-5.4823
X4.7461Y-4.6339
X4.75Y-4.7028
X4.813Y-5.5098
X4.8563Y-5.2008
X4.8583Y-4.9754
X4.8681Y-4.8701
X4.8967Y-4.9262
X4.9035Y-5.4016
X4.9301Y-4.7844
X4.9685Y-4.7461
X4.9911Y-5.0738
X4.9921Y-4.7028
X4.999Y-5.0246
X5.0276Y-4.7854
X5.0433Y-4.8327
X5.0453Y-5.2972
X5.0472Y-4.6791
X5.0866Y-4.6299
X5.0866Y-4.7795
X5.0962Y-4.8602
X5.1762Y-5.122
X5.2077Y-5.1614
X5.2756Y-4.6299
X5.2815Y-4.8248
X5.3091Y-5.3583
X5.311Y-5.4803
X5.3543Y-5.3839
X5.4272Y-5.4173
X5.4508Y-5.372
X5.5472Y-4.626
X5.5512Y-4.5807
X5.6142Y-4.8307
X5.6476Y-5.372
X5.6831Y-5.0768
X5.689Y-4.626
X5.689Y-4.8425
X5.7093Y-4.8878
X5.7618Y-5.0807
X5.7638Y-5.2717
X5.7677Y-5.4862
X5.8228Y-4.6791
X5.8228Y-5.0807
X5.8268Y-5.3091
X5.8404Y-5.1246
X5.9134Y-4.626
X5.9547Y-5.3937
X5.9665Y-5.0689
X5.9744Y-5.1161
X6.0039Y-5.4035
X6.0118Y-4.6791
X6.0177Y-5.0689
X6.0571Y-4.8878
X6.1024Y-5.4035
X6.1083Y-5.1161
X6.1516Y-5.4035
X6.2106Y-4.8844
X6.2126Y-5.065
X6.2441Y-5.3091
X6.3091Y-4.8425
X6.3091Y-5.3898
X6.3406Y-5.4823
X6.372Y-4.626
X6.3839Y-5.3091
X6.3937Y-4.8844
X6.5886Y-5.0256
X6.5906Y-4.9272
X6.6004Y-5.0866
X6.6417Y-4.876
X6.6457Y-4.7402
X6.7146Y-4.8091
X6.7343Y-4.998
X6.7402Y-5.5079
X6.7815Y-5.0512
X6.8169Y-4.6791
X6.8401Y-4.9743
X6.9213Y-4.9331
X6.9606Y-4.9606
X6.9843Y-5.0787
X7.1358Y-5.0787
T2
X6.5157Y-4.8278
X6.5157Y-4.877
X6.5157Y-4.9262
X6.5157Y-4.9754
X6.5157Y-5.0246
X6.5157Y-5.0738
X6.5157Y-5.123
X6.5157Y-5.1722
X6.5157Y-5.2215
X6.5157Y-5.2707
X6.5157Y-5.3199
X6.5157Y-5.3691
X4.6063Y-4.8278
X4.6063Y-4.877
X4.6063Y-4.9262
X4.6063Y-4.9754
X4.6063Y-5.0246
X4.6063Y-5.0738
X4.6063Y-5.123
X4.6063Y-5.1722
X4.6063Y-5.2215
X4.6063Y-5.2707
X4.6063Y-5.3199
X4.6063Y-5.3691
X5.9547Y-5.4724
X6.0039Y-5.4724
X6.0531Y-5.4724
X6.1024Y-5.4724
X6.1516Y-5.4724
X6.2008Y-5.4724
X4.9213Y-5.4724
X4.9705Y-5.4724
X5.0197Y-5.4724
X5.0689Y-5.4724
X5.1181Y-5.4724
X5.1673Y-5.4724
T3
X5.9114Y-5.1161
X5.9114Y-5.2933
X6.1673Y-5.1161
X6.1673Y-5.2933
X4.1421Y-4.8425
X4.2421Y-4.8425
X4.3421Y-4.8425
X6.7839Y-4.8425
X6.8839Y-4.8425
X6.9839Y-4.8425
T4
X4.0669Y-4.6654
X4.0669Y-5.5315
X7.0551Y-4.6654
X7.0551Y-5.5315
T5
X4.2421Y-5.0787
X4.2421Y-5.3858
X6.8839Y-5.0787
X6.8839Y-5.3858
T6
X4.1142Y-5.2323
X4.3701Y-5.2323
X6.7559Y-5.2323
X7.0118Y-5.2323
T0
M30
