G04 #@! TF.GenerationSoftware,KiCad,Pcbnew,5.99.0-unknown-c7daca1~86~ubuntu18.04.1*
G04 #@! TF.CreationDate,2020-03-27T23:30:00-03:00*
G04 #@! TF.ProjectId,DPL,44504c2e-6b69-4636-9164-5f7063625858,rev?*
G04 #@! TF.SameCoordinates,Original*
G04 #@! TF.FileFunction,Soldermask,Bot*
G04 #@! TF.FilePolarity,Negative*
%FSLAX46Y46*%
G04 Gerber Fmt 4.6, Leading zero omitted, Abs format (unit mm)*
G04 Created by KiCad (PCBNEW 5.99.0-unknown-c7daca1~86~ubuntu18.04.1) date 2020-03-27 23:30:00*
%MOMM*%
%LPD*%
G01*
G04 APERTURE LIST*
G04 APERTURE END LIST*
G36*
X179256864Y-137947535D02*
G01*
X179311487Y-137946581D01*
X179415543Y-137957518D01*
X179520357Y-137964112D01*
X179571983Y-137973960D01*
X179621836Y-137979200D01*
X179728308Y-138003781D01*
X179835662Y-138024260D01*
X179881442Y-138039135D01*
X179925897Y-138049398D01*
X180032958Y-138088365D01*
X180140942Y-138123451D01*
X180180504Y-138142067D01*
X180219146Y-138156132D01*
X180324869Y-138210001D01*
X180431383Y-138260122D01*
X180464555Y-138281174D01*
X180497194Y-138297804D01*
X180599555Y-138366848D01*
X180702404Y-138432118D01*
X180729261Y-138454336D01*
X180755901Y-138472305D01*
X180852757Y-138556500D01*
X180949732Y-138636725D01*
X180970562Y-138658907D01*
X180991422Y-138677040D01*
X181080665Y-138776155D01*
X181169465Y-138870717D01*
X181184741Y-138891743D01*
X181200229Y-138908944D01*
X181279764Y-139022531D01*
X181358138Y-139130404D01*
X181368516Y-139149281D01*
X181379222Y-139164571D01*
X181446989Y-139292023D01*
X181512777Y-139411690D01*
X181519075Y-139427598D01*
X181525725Y-139440104D01*
X181579764Y-139580879D01*
X181630941Y-139710139D01*
X181634091Y-139722406D01*
X181637560Y-139731444D01*
X181676111Y-139886066D01*
X181710768Y-140021045D01*
X181711798Y-140029199D01*
X181713054Y-140034236D01*
X181734511Y-140208992D01*
X181750999Y-140339505D01*
X181750999Y-140660495D01*
X181740345Y-140744834D01*
X181739137Y-140790948D01*
X181722851Y-140883311D01*
X181710768Y-140978955D01*
X181695501Y-141038415D01*
X181685232Y-141096654D01*
X181655992Y-141192294D01*
X181630941Y-141289861D01*
X181609966Y-141342837D01*
X181593995Y-141395077D01*
X181551441Y-141490656D01*
X181512777Y-141588310D01*
X181487458Y-141634365D01*
X181467068Y-141680162D01*
X181410781Y-141773839D01*
X181358138Y-141869596D01*
X181329849Y-141908533D01*
X181306343Y-141947653D01*
X181236181Y-142037456D01*
X181169465Y-142129283D01*
X181139542Y-142161148D01*
X181114225Y-142193552D01*
X181030327Y-142277450D01*
X180949732Y-142363275D01*
X180919454Y-142388323D01*
X180893552Y-142414225D01*
X180796253Y-142490244D01*
X180702404Y-142567882D01*
X180672981Y-142586554D01*
X180647653Y-142606343D01*
X180537621Y-142672457D01*
X180431383Y-142739878D01*
X180403856Y-142752831D01*
X180380162Y-142767068D01*
X180258322Y-142821314D01*
X180140942Y-142876549D01*
X180116220Y-142884582D01*
X180095077Y-142893995D01*
X179962511Y-142934524D01*
X179835662Y-142975740D01*
X179814492Y-142979778D01*
X179796654Y-142985232D01*
X179654551Y-143010289D01*
X179520357Y-143035888D01*
X179503281Y-143036962D01*
X179489332Y-143039422D01*
X179338751Y-143047314D01*
X179200000Y-143056043D01*
X179187359Y-143055248D01*
X179177698Y-143055754D01*
X179018827Y-143044645D01*
X178879643Y-143035888D01*
X178871565Y-143034347D01*
X178866387Y-143033985D01*
X178693581Y-143000394D01*
X178564338Y-142975740D01*
X178560753Y-142974575D01*
X178560068Y-142974442D01*
X178263274Y-142878008D01*
X178262644Y-142877714D01*
X178259058Y-142876549D01*
X178139856Y-142820457D01*
X177980454Y-142746126D01*
X177976061Y-142743381D01*
X177968617Y-142739878D01*
X177850860Y-142665147D01*
X177715808Y-142580757D01*
X177708288Y-142574667D01*
X177697596Y-142567882D01*
X177590514Y-142479297D01*
X177473298Y-142384377D01*
X177463455Y-142374184D01*
X177450268Y-142363275D01*
X177356744Y-142263682D01*
X177256514Y-142159891D01*
X177245287Y-142144992D01*
X177230535Y-142129283D01*
X177152157Y-142021405D01*
X177068711Y-141910668D01*
X177057134Y-141890617D01*
X177041862Y-141869596D01*
X176979377Y-141755937D01*
X176912680Y-141640414D01*
X176901880Y-141614971D01*
X176887223Y-141588310D01*
X176840899Y-141471308D01*
X176790750Y-141353165D01*
X176781892Y-141322273D01*
X176769059Y-141289861D01*
X176738765Y-141171873D01*
X176704731Y-141053184D01*
X176699000Y-141016998D01*
X176689232Y-140978955D01*
X176674483Y-140862202D01*
X176655915Y-140744970D01*
X176654480Y-140703863D01*
X176649001Y-140660495D01*
X176649001Y-140546960D01*
X176645025Y-140433091D01*
X176649001Y-140387644D01*
X176649001Y-140339505D01*
X176662698Y-140231081D01*
X176672222Y-140122221D01*
X176682646Y-140073182D01*
X176689232Y-140021045D01*
X176715346Y-139919338D01*
X176737102Y-139816983D01*
X176754891Y-139765320D01*
X176769059Y-139710139D01*
X176806136Y-139616493D01*
X176838702Y-139521914D01*
X176864629Y-139468755D01*
X176887223Y-139411690D01*
X176933659Y-139327224D01*
X176975499Y-139241439D01*
X177010173Y-139188046D01*
X177041862Y-139130404D01*
X177095969Y-139055932D01*
X177145459Y-138979724D01*
X177189277Y-138927504D01*
X177230535Y-138870717D01*
X177290587Y-138806768D01*
X177346051Y-138740669D01*
X177399201Y-138691105D01*
X177450268Y-138636725D01*
X177514499Y-138583589D01*
X177574281Y-138527841D01*
X177636746Y-138482458D01*
X177697596Y-138432118D01*
X177764274Y-138389803D01*
X177826739Y-138344419D01*
X177898232Y-138304790D01*
X177968617Y-138260122D01*
X178036119Y-138228358D01*
X178099683Y-138193124D01*
X178179683Y-138160802D01*
X178259058Y-138123451D01*
X178325822Y-138101758D01*
X178389014Y-138076227D01*
X178476764Y-138052714D01*
X178564338Y-138024260D01*
X178628970Y-138011931D01*
X178690443Y-137995459D01*
X178784923Y-137982181D01*
X178879643Y-137964112D01*
X178940926Y-137960256D01*
X178999475Y-137952028D01*
X179099458Y-137950283D01*
X179200000Y-137943957D01*
X179256864Y-137947535D01*
G37*
G36*
X103356864Y-137947535D02*
G01*
X103411487Y-137946581D01*
X103515543Y-137957518D01*
X103620357Y-137964112D01*
X103671983Y-137973960D01*
X103721836Y-137979200D01*
X103828308Y-138003781D01*
X103935662Y-138024260D01*
X103981442Y-138039135D01*
X104025897Y-138049398D01*
X104132958Y-138088365D01*
X104240942Y-138123451D01*
X104280504Y-138142067D01*
X104319146Y-138156132D01*
X104424869Y-138210001D01*
X104531383Y-138260122D01*
X104564555Y-138281174D01*
X104597194Y-138297804D01*
X104699555Y-138366848D01*
X104802404Y-138432118D01*
X104829261Y-138454336D01*
X104855901Y-138472305D01*
X104952757Y-138556500D01*
X105049732Y-138636725D01*
X105070562Y-138658907D01*
X105091422Y-138677040D01*
X105180665Y-138776155D01*
X105269465Y-138870717D01*
X105284741Y-138891743D01*
X105300229Y-138908944D01*
X105379764Y-139022531D01*
X105458138Y-139130404D01*
X105468516Y-139149281D01*
X105479222Y-139164571D01*
X105546989Y-139292023D01*
X105612777Y-139411690D01*
X105619075Y-139427598D01*
X105625725Y-139440104D01*
X105679764Y-139580879D01*
X105730941Y-139710139D01*
X105734091Y-139722406D01*
X105737560Y-139731444D01*
X105776111Y-139886066D01*
X105810768Y-140021045D01*
X105811798Y-140029199D01*
X105813054Y-140034236D01*
X105834511Y-140208992D01*
X105850999Y-140339505D01*
X105850999Y-140660495D01*
X105840345Y-140744834D01*
X105839137Y-140790948D01*
X105822851Y-140883311D01*
X105810768Y-140978955D01*
X105795501Y-141038415D01*
X105785232Y-141096654D01*
X105755992Y-141192294D01*
X105730941Y-141289861D01*
X105709966Y-141342837D01*
X105693995Y-141395077D01*
X105651441Y-141490656D01*
X105612777Y-141588310D01*
X105587458Y-141634365D01*
X105567068Y-141680162D01*
X105510781Y-141773839D01*
X105458138Y-141869596D01*
X105429849Y-141908533D01*
X105406343Y-141947653D01*
X105336181Y-142037456D01*
X105269465Y-142129283D01*
X105239542Y-142161148D01*
X105214225Y-142193552D01*
X105130327Y-142277450D01*
X105049732Y-142363275D01*
X105019454Y-142388323D01*
X104993552Y-142414225D01*
X104896253Y-142490244D01*
X104802404Y-142567882D01*
X104772981Y-142586554D01*
X104747653Y-142606343D01*
X104637621Y-142672457D01*
X104531383Y-142739878D01*
X104503856Y-142752831D01*
X104480162Y-142767068D01*
X104358322Y-142821314D01*
X104240942Y-142876549D01*
X104216220Y-142884582D01*
X104195077Y-142893995D01*
X104062511Y-142934524D01*
X103935662Y-142975740D01*
X103914492Y-142979778D01*
X103896654Y-142985232D01*
X103754551Y-143010289D01*
X103620357Y-143035888D01*
X103603281Y-143036962D01*
X103589332Y-143039422D01*
X103438751Y-143047314D01*
X103300000Y-143056043D01*
X103287359Y-143055248D01*
X103277698Y-143055754D01*
X103118827Y-143044645D01*
X102979643Y-143035888D01*
X102971565Y-143034347D01*
X102966387Y-143033985D01*
X102793581Y-143000394D01*
X102664338Y-142975740D01*
X102660753Y-142974575D01*
X102660068Y-142974442D01*
X102363274Y-142878008D01*
X102362644Y-142877714D01*
X102359058Y-142876549D01*
X102239856Y-142820457D01*
X102080454Y-142746126D01*
X102076061Y-142743381D01*
X102068617Y-142739878D01*
X101950860Y-142665147D01*
X101815808Y-142580757D01*
X101808288Y-142574667D01*
X101797596Y-142567882D01*
X101690514Y-142479297D01*
X101573298Y-142384377D01*
X101563455Y-142374184D01*
X101550268Y-142363275D01*
X101456744Y-142263682D01*
X101356514Y-142159891D01*
X101345287Y-142144992D01*
X101330535Y-142129283D01*
X101252157Y-142021405D01*
X101168711Y-141910668D01*
X101157134Y-141890617D01*
X101141862Y-141869596D01*
X101079377Y-141755937D01*
X101012680Y-141640414D01*
X101001880Y-141614971D01*
X100987223Y-141588310D01*
X100940899Y-141471308D01*
X100890750Y-141353165D01*
X100881892Y-141322273D01*
X100869059Y-141289861D01*
X100838765Y-141171873D01*
X100804731Y-141053184D01*
X100799000Y-141016998D01*
X100789232Y-140978955D01*
X100774483Y-140862202D01*
X100755915Y-140744970D01*
X100754480Y-140703863D01*
X100749001Y-140660495D01*
X100749001Y-140546960D01*
X100745025Y-140433091D01*
X100749001Y-140387644D01*
X100749001Y-140339505D01*
X100762698Y-140231081D01*
X100772222Y-140122221D01*
X100782646Y-140073182D01*
X100789232Y-140021045D01*
X100815346Y-139919338D01*
X100837102Y-139816983D01*
X100854891Y-139765320D01*
X100869059Y-139710139D01*
X100906136Y-139616493D01*
X100938702Y-139521914D01*
X100964629Y-139468755D01*
X100987223Y-139411690D01*
X101033659Y-139327224D01*
X101075499Y-139241439D01*
X101110173Y-139188046D01*
X101141862Y-139130404D01*
X101195969Y-139055932D01*
X101245459Y-138979724D01*
X101289277Y-138927504D01*
X101330535Y-138870717D01*
X101390587Y-138806768D01*
X101446051Y-138740669D01*
X101499201Y-138691105D01*
X101550268Y-138636725D01*
X101614499Y-138583589D01*
X101674281Y-138527841D01*
X101736746Y-138482458D01*
X101797596Y-138432118D01*
X101864274Y-138389803D01*
X101926739Y-138344419D01*
X101998232Y-138304790D01*
X102068617Y-138260122D01*
X102136119Y-138228358D01*
X102199683Y-138193124D01*
X102279683Y-138160802D01*
X102359058Y-138123451D01*
X102425822Y-138101758D01*
X102489014Y-138076227D01*
X102576764Y-138052714D01*
X102664338Y-138024260D01*
X102728970Y-138011931D01*
X102790443Y-137995459D01*
X102884923Y-137982181D01*
X102979643Y-137964112D01*
X103040926Y-137960256D01*
X103099475Y-137952028D01*
X103199458Y-137950283D01*
X103300000Y-137943957D01*
X103356864Y-137947535D01*
G37*
G36*
X157530648Y-138299144D02*
G01*
X157567346Y-138299368D01*
X157594867Y-138307598D01*
X157617735Y-138310609D01*
X157650982Y-138324380D01*
X157691117Y-138336383D01*
X157710871Y-138349187D01*
X157727445Y-138356052D01*
X157759988Y-138381023D01*
X157799524Y-138406649D01*
X157811504Y-138420552D01*
X157821657Y-138428343D01*
X157849639Y-138464810D01*
X157883852Y-138504516D01*
X157889299Y-138516497D01*
X157893948Y-138522555D01*
X157913337Y-138569364D01*
X157937323Y-138622118D01*
X157938451Y-138629995D01*
X157939391Y-138632264D01*
X157946394Y-138685462D01*
X157951000Y-138717621D01*
X157951000Y-139281027D01*
X157949373Y-139291914D01*
X157939391Y-139367736D01*
X157937279Y-139372834D01*
X157935728Y-139383215D01*
X157912385Y-139432934D01*
X157893948Y-139477445D01*
X157887608Y-139485707D01*
X157880825Y-139500155D01*
X157848023Y-139537296D01*
X157821657Y-139571657D01*
X157809306Y-139581134D01*
X157795307Y-139596985D01*
X157757842Y-139620623D01*
X157727445Y-139643948D01*
X157708319Y-139651870D01*
X157686050Y-139665921D01*
X157648464Y-139676663D01*
X157617736Y-139689391D01*
X157592138Y-139692761D01*
X157561837Y-139701421D01*
X157527931Y-139701214D01*
X157500000Y-139704891D01*
X157469352Y-139700856D01*
X157432654Y-139700632D01*
X157405133Y-139692402D01*
X157382265Y-139689391D01*
X157349018Y-139675620D01*
X157308883Y-139663617D01*
X157289130Y-139650813D01*
X157272555Y-139643948D01*
X157240011Y-139618976D01*
X157200477Y-139593351D01*
X157188497Y-139579448D01*
X157178344Y-139571657D01*
X157150363Y-139535191D01*
X157116149Y-139495484D01*
X157110701Y-139483503D01*
X157106054Y-139477446D01*
X157086667Y-139430642D01*
X157062678Y-139377882D01*
X157061550Y-139370006D01*
X157060609Y-139367734D01*
X157053595Y-139314461D01*
X157049001Y-139282379D01*
X157049001Y-139279563D01*
X157049000Y-139279555D01*
X157049000Y-138718974D01*
X157050627Y-138708087D01*
X157060609Y-138632265D01*
X157062721Y-138627167D01*
X157064272Y-138616786D01*
X157087615Y-138567067D01*
X157106052Y-138522556D01*
X157112392Y-138514294D01*
X157119175Y-138499846D01*
X157151980Y-138462701D01*
X157178344Y-138428343D01*
X157190692Y-138418868D01*
X157204693Y-138403015D01*
X157242159Y-138379375D01*
X157272555Y-138356052D01*
X157291681Y-138348130D01*
X157313950Y-138334079D01*
X157351536Y-138323337D01*
X157382264Y-138310609D01*
X157407862Y-138307239D01*
X157438163Y-138298579D01*
X157472069Y-138298786D01*
X157500000Y-138295109D01*
X157530648Y-138299144D01*
G37*
G36*
X156280648Y-138299144D02*
G01*
X156317346Y-138299368D01*
X156344867Y-138307598D01*
X156367735Y-138310609D01*
X156400982Y-138324380D01*
X156441117Y-138336383D01*
X156460871Y-138349187D01*
X156477445Y-138356052D01*
X156509988Y-138381023D01*
X156549524Y-138406649D01*
X156561504Y-138420552D01*
X156571657Y-138428343D01*
X156599639Y-138464810D01*
X156633852Y-138504516D01*
X156639299Y-138516497D01*
X156643948Y-138522555D01*
X156663337Y-138569364D01*
X156687323Y-138622118D01*
X156688451Y-138629995D01*
X156689391Y-138632264D01*
X156696394Y-138685462D01*
X156701000Y-138717621D01*
X156701000Y-139281027D01*
X156699373Y-139291914D01*
X156689391Y-139367736D01*
X156687279Y-139372834D01*
X156685728Y-139383215D01*
X156662385Y-139432934D01*
X156643948Y-139477445D01*
X156637608Y-139485707D01*
X156630825Y-139500155D01*
X156598023Y-139537296D01*
X156571657Y-139571657D01*
X156559306Y-139581134D01*
X156545307Y-139596985D01*
X156507842Y-139620623D01*
X156477445Y-139643948D01*
X156458319Y-139651870D01*
X156436050Y-139665921D01*
X156398464Y-139676663D01*
X156367736Y-139689391D01*
X156342138Y-139692761D01*
X156311837Y-139701421D01*
X156277931Y-139701214D01*
X156250000Y-139704891D01*
X156219352Y-139700856D01*
X156182654Y-139700632D01*
X156155133Y-139692402D01*
X156132265Y-139689391D01*
X156099018Y-139675620D01*
X156058883Y-139663617D01*
X156039130Y-139650813D01*
X156022555Y-139643948D01*
X155990011Y-139618976D01*
X155950477Y-139593351D01*
X155938497Y-139579448D01*
X155928344Y-139571657D01*
X155900363Y-139535191D01*
X155866149Y-139495484D01*
X155860701Y-139483503D01*
X155856054Y-139477446D01*
X155836667Y-139430642D01*
X155812678Y-139377882D01*
X155811550Y-139370006D01*
X155810609Y-139367734D01*
X155803595Y-139314461D01*
X155799001Y-139282379D01*
X155799001Y-139279563D01*
X155799000Y-139279555D01*
X155799000Y-138718974D01*
X155800627Y-138708087D01*
X155810609Y-138632265D01*
X155812721Y-138627167D01*
X155814272Y-138616786D01*
X155837615Y-138567067D01*
X155856052Y-138522556D01*
X155862392Y-138514294D01*
X155869175Y-138499846D01*
X155901980Y-138462701D01*
X155928344Y-138428343D01*
X155940692Y-138418868D01*
X155954693Y-138403015D01*
X155992159Y-138379375D01*
X156022555Y-138356052D01*
X156041681Y-138348130D01*
X156063950Y-138334079D01*
X156101536Y-138323337D01*
X156132264Y-138310609D01*
X156157862Y-138307239D01*
X156188163Y-138298579D01*
X156222069Y-138298786D01*
X156250000Y-138295109D01*
X156280648Y-138299144D01*
G37*
G36*
X126280648Y-138299144D02*
G01*
X126317346Y-138299368D01*
X126344867Y-138307598D01*
X126367735Y-138310609D01*
X126400982Y-138324380D01*
X126441117Y-138336383D01*
X126460871Y-138349187D01*
X126477445Y-138356052D01*
X126509988Y-138381023D01*
X126549524Y-138406649D01*
X126561504Y-138420552D01*
X126571657Y-138428343D01*
X126599639Y-138464810D01*
X126633852Y-138504516D01*
X126639299Y-138516497D01*
X126643948Y-138522555D01*
X126663337Y-138569364D01*
X126687323Y-138622118D01*
X126688451Y-138629995D01*
X126689391Y-138632264D01*
X126696394Y-138685462D01*
X126701000Y-138717621D01*
X126701000Y-139281027D01*
X126699373Y-139291914D01*
X126689391Y-139367736D01*
X126687279Y-139372834D01*
X126685728Y-139383215D01*
X126662385Y-139432934D01*
X126643948Y-139477445D01*
X126637608Y-139485707D01*
X126630825Y-139500155D01*
X126598023Y-139537296D01*
X126571657Y-139571657D01*
X126559306Y-139581134D01*
X126545307Y-139596985D01*
X126507842Y-139620623D01*
X126477445Y-139643948D01*
X126458319Y-139651870D01*
X126436050Y-139665921D01*
X126398464Y-139676663D01*
X126367736Y-139689391D01*
X126342138Y-139692761D01*
X126311837Y-139701421D01*
X126277931Y-139701214D01*
X126250000Y-139704891D01*
X126219352Y-139700856D01*
X126182654Y-139700632D01*
X126155133Y-139692402D01*
X126132265Y-139689391D01*
X126099018Y-139675620D01*
X126058883Y-139663617D01*
X126039130Y-139650813D01*
X126022555Y-139643948D01*
X125990011Y-139618976D01*
X125950477Y-139593351D01*
X125938497Y-139579448D01*
X125928344Y-139571657D01*
X125900363Y-139535191D01*
X125866149Y-139495484D01*
X125860701Y-139483503D01*
X125856054Y-139477446D01*
X125836667Y-139430642D01*
X125812678Y-139377882D01*
X125811550Y-139370006D01*
X125810609Y-139367734D01*
X125803595Y-139314461D01*
X125799001Y-139282379D01*
X125799001Y-139279563D01*
X125799000Y-139279555D01*
X125799000Y-138718974D01*
X125800627Y-138708087D01*
X125810609Y-138632265D01*
X125812721Y-138627167D01*
X125814272Y-138616786D01*
X125837615Y-138567067D01*
X125856052Y-138522556D01*
X125862392Y-138514294D01*
X125869175Y-138499846D01*
X125901980Y-138462701D01*
X125928344Y-138428343D01*
X125940692Y-138418868D01*
X125954693Y-138403015D01*
X125992159Y-138379375D01*
X126022555Y-138356052D01*
X126041681Y-138348130D01*
X126063950Y-138334079D01*
X126101536Y-138323337D01*
X126132264Y-138310609D01*
X126157862Y-138307239D01*
X126188163Y-138298579D01*
X126222069Y-138298786D01*
X126250000Y-138295109D01*
X126280648Y-138299144D01*
G37*
G36*
X155030648Y-138299144D02*
G01*
X155067346Y-138299368D01*
X155094867Y-138307598D01*
X155117735Y-138310609D01*
X155150982Y-138324380D01*
X155191117Y-138336383D01*
X155210871Y-138349187D01*
X155227445Y-138356052D01*
X155259988Y-138381023D01*
X155299524Y-138406649D01*
X155311504Y-138420552D01*
X155321657Y-138428343D01*
X155349639Y-138464810D01*
X155383852Y-138504516D01*
X155389299Y-138516497D01*
X155393948Y-138522555D01*
X155413337Y-138569364D01*
X155437323Y-138622118D01*
X155438451Y-138629995D01*
X155439391Y-138632264D01*
X155446394Y-138685462D01*
X155451000Y-138717621D01*
X155451000Y-139281027D01*
X155449373Y-139291914D01*
X155439391Y-139367736D01*
X155437279Y-139372834D01*
X155435728Y-139383215D01*
X155412385Y-139432934D01*
X155393948Y-139477445D01*
X155387608Y-139485707D01*
X155380825Y-139500155D01*
X155348023Y-139537296D01*
X155321657Y-139571657D01*
X155309306Y-139581134D01*
X155295307Y-139596985D01*
X155257842Y-139620623D01*
X155227445Y-139643948D01*
X155208319Y-139651870D01*
X155186050Y-139665921D01*
X155148464Y-139676663D01*
X155117736Y-139689391D01*
X155092138Y-139692761D01*
X155061837Y-139701421D01*
X155027931Y-139701214D01*
X155000000Y-139704891D01*
X154969352Y-139700856D01*
X154932654Y-139700632D01*
X154905133Y-139692402D01*
X154882265Y-139689391D01*
X154849018Y-139675620D01*
X154808883Y-139663617D01*
X154789130Y-139650813D01*
X154772555Y-139643948D01*
X154740011Y-139618976D01*
X154700477Y-139593351D01*
X154688497Y-139579448D01*
X154678344Y-139571657D01*
X154650363Y-139535191D01*
X154616149Y-139495484D01*
X154610701Y-139483503D01*
X154606054Y-139477446D01*
X154586667Y-139430642D01*
X154562678Y-139377882D01*
X154561550Y-139370006D01*
X154560609Y-139367734D01*
X154553595Y-139314461D01*
X154549001Y-139282379D01*
X154549001Y-139279563D01*
X154549000Y-139279555D01*
X154549000Y-138718974D01*
X154550627Y-138708087D01*
X154560609Y-138632265D01*
X154562721Y-138627167D01*
X154564272Y-138616786D01*
X154587615Y-138567067D01*
X154606052Y-138522556D01*
X154612392Y-138514294D01*
X154619175Y-138499846D01*
X154651980Y-138462701D01*
X154678344Y-138428343D01*
X154690692Y-138418868D01*
X154704693Y-138403015D01*
X154742159Y-138379375D01*
X154772555Y-138356052D01*
X154791681Y-138348130D01*
X154813950Y-138334079D01*
X154851536Y-138323337D01*
X154882264Y-138310609D01*
X154907862Y-138307239D01*
X154938163Y-138298579D01*
X154972069Y-138298786D01*
X155000000Y-138295109D01*
X155030648Y-138299144D01*
G37*
G36*
X127530648Y-138299144D02*
G01*
X127567346Y-138299368D01*
X127594867Y-138307598D01*
X127617735Y-138310609D01*
X127650982Y-138324380D01*
X127691117Y-138336383D01*
X127710871Y-138349187D01*
X127727445Y-138356052D01*
X127759988Y-138381023D01*
X127799524Y-138406649D01*
X127811504Y-138420552D01*
X127821657Y-138428343D01*
X127849639Y-138464810D01*
X127883852Y-138504516D01*
X127889299Y-138516497D01*
X127893948Y-138522555D01*
X127913337Y-138569364D01*
X127937323Y-138622118D01*
X127938451Y-138629995D01*
X127939391Y-138632264D01*
X127946394Y-138685462D01*
X127951000Y-138717621D01*
X127951000Y-139281027D01*
X127949373Y-139291914D01*
X127939391Y-139367736D01*
X127937279Y-139372834D01*
X127935728Y-139383215D01*
X127912385Y-139432934D01*
X127893948Y-139477445D01*
X127887608Y-139485707D01*
X127880825Y-139500155D01*
X127848023Y-139537296D01*
X127821657Y-139571657D01*
X127809306Y-139581134D01*
X127795307Y-139596985D01*
X127757842Y-139620623D01*
X127727445Y-139643948D01*
X127708319Y-139651870D01*
X127686050Y-139665921D01*
X127648464Y-139676663D01*
X127617736Y-139689391D01*
X127592138Y-139692761D01*
X127561837Y-139701421D01*
X127527931Y-139701214D01*
X127500000Y-139704891D01*
X127469352Y-139700856D01*
X127432654Y-139700632D01*
X127405133Y-139692402D01*
X127382265Y-139689391D01*
X127349018Y-139675620D01*
X127308883Y-139663617D01*
X127289130Y-139650813D01*
X127272555Y-139643948D01*
X127240011Y-139618976D01*
X127200477Y-139593351D01*
X127188497Y-139579448D01*
X127178344Y-139571657D01*
X127150363Y-139535191D01*
X127116149Y-139495484D01*
X127110701Y-139483503D01*
X127106054Y-139477446D01*
X127086667Y-139430642D01*
X127062678Y-139377882D01*
X127061550Y-139370006D01*
X127060609Y-139367734D01*
X127053595Y-139314461D01*
X127049001Y-139282379D01*
X127049001Y-139279563D01*
X127049000Y-139279555D01*
X127049000Y-138718974D01*
X127050627Y-138708087D01*
X127060609Y-138632265D01*
X127062721Y-138627167D01*
X127064272Y-138616786D01*
X127087615Y-138567067D01*
X127106052Y-138522556D01*
X127112392Y-138514294D01*
X127119175Y-138499846D01*
X127151980Y-138462701D01*
X127178344Y-138428343D01*
X127190692Y-138418868D01*
X127204693Y-138403015D01*
X127242159Y-138379375D01*
X127272555Y-138356052D01*
X127291681Y-138348130D01*
X127313950Y-138334079D01*
X127351536Y-138323337D01*
X127382264Y-138310609D01*
X127407862Y-138307239D01*
X127438163Y-138298579D01*
X127472069Y-138298786D01*
X127500000Y-138295109D01*
X127530648Y-138299144D01*
G37*
G36*
X153780648Y-138299144D02*
G01*
X153817346Y-138299368D01*
X153844867Y-138307598D01*
X153867735Y-138310609D01*
X153900982Y-138324380D01*
X153941117Y-138336383D01*
X153960871Y-138349187D01*
X153977445Y-138356052D01*
X154009988Y-138381023D01*
X154049524Y-138406649D01*
X154061504Y-138420552D01*
X154071657Y-138428343D01*
X154099639Y-138464810D01*
X154133852Y-138504516D01*
X154139299Y-138516497D01*
X154143948Y-138522555D01*
X154163337Y-138569364D01*
X154187323Y-138622118D01*
X154188451Y-138629995D01*
X154189391Y-138632264D01*
X154196394Y-138685462D01*
X154201000Y-138717621D01*
X154201000Y-139281027D01*
X154199373Y-139291914D01*
X154189391Y-139367736D01*
X154187279Y-139372834D01*
X154185728Y-139383215D01*
X154162385Y-139432934D01*
X154143948Y-139477445D01*
X154137608Y-139485707D01*
X154130825Y-139500155D01*
X154098023Y-139537296D01*
X154071657Y-139571657D01*
X154059306Y-139581134D01*
X154045307Y-139596985D01*
X154007842Y-139620623D01*
X153977445Y-139643948D01*
X153958319Y-139651870D01*
X153936050Y-139665921D01*
X153898464Y-139676663D01*
X153867736Y-139689391D01*
X153842138Y-139692761D01*
X153811837Y-139701421D01*
X153777931Y-139701214D01*
X153750000Y-139704891D01*
X153719352Y-139700856D01*
X153682654Y-139700632D01*
X153655133Y-139692402D01*
X153632265Y-139689391D01*
X153599018Y-139675620D01*
X153558883Y-139663617D01*
X153539130Y-139650813D01*
X153522555Y-139643948D01*
X153490011Y-139618976D01*
X153450477Y-139593351D01*
X153438497Y-139579448D01*
X153428344Y-139571657D01*
X153400363Y-139535191D01*
X153366149Y-139495484D01*
X153360701Y-139483503D01*
X153356054Y-139477446D01*
X153336667Y-139430642D01*
X153312678Y-139377882D01*
X153311550Y-139370006D01*
X153310609Y-139367734D01*
X153303595Y-139314461D01*
X153299001Y-139282379D01*
X153299001Y-139279563D01*
X153299000Y-139279555D01*
X153299000Y-138718974D01*
X153300627Y-138708087D01*
X153310609Y-138632265D01*
X153312721Y-138627167D01*
X153314272Y-138616786D01*
X153337615Y-138567067D01*
X153356052Y-138522556D01*
X153362392Y-138514294D01*
X153369175Y-138499846D01*
X153401980Y-138462701D01*
X153428344Y-138428343D01*
X153440692Y-138418868D01*
X153454693Y-138403015D01*
X153492159Y-138379375D01*
X153522555Y-138356052D01*
X153541681Y-138348130D01*
X153563950Y-138334079D01*
X153601536Y-138323337D01*
X153632264Y-138310609D01*
X153657862Y-138307239D01*
X153688163Y-138298579D01*
X153722069Y-138298786D01*
X153750000Y-138295109D01*
X153780648Y-138299144D01*
G37*
G36*
X128780648Y-138299144D02*
G01*
X128817346Y-138299368D01*
X128844867Y-138307598D01*
X128867735Y-138310609D01*
X128900982Y-138324380D01*
X128941117Y-138336383D01*
X128960871Y-138349187D01*
X128977445Y-138356052D01*
X129009988Y-138381023D01*
X129049524Y-138406649D01*
X129061504Y-138420552D01*
X129071657Y-138428343D01*
X129099639Y-138464810D01*
X129133852Y-138504516D01*
X129139299Y-138516497D01*
X129143948Y-138522555D01*
X129163337Y-138569364D01*
X129187323Y-138622118D01*
X129188451Y-138629995D01*
X129189391Y-138632264D01*
X129196394Y-138685462D01*
X129201000Y-138717621D01*
X129201000Y-139281027D01*
X129199373Y-139291914D01*
X129189391Y-139367736D01*
X129187279Y-139372834D01*
X129185728Y-139383215D01*
X129162385Y-139432934D01*
X129143948Y-139477445D01*
X129137608Y-139485707D01*
X129130825Y-139500155D01*
X129098023Y-139537296D01*
X129071657Y-139571657D01*
X129059306Y-139581134D01*
X129045307Y-139596985D01*
X129007842Y-139620623D01*
X128977445Y-139643948D01*
X128958319Y-139651870D01*
X128936050Y-139665921D01*
X128898464Y-139676663D01*
X128867736Y-139689391D01*
X128842138Y-139692761D01*
X128811837Y-139701421D01*
X128777931Y-139701214D01*
X128750000Y-139704891D01*
X128719352Y-139700856D01*
X128682654Y-139700632D01*
X128655133Y-139692402D01*
X128632265Y-139689391D01*
X128599018Y-139675620D01*
X128558883Y-139663617D01*
X128539130Y-139650813D01*
X128522555Y-139643948D01*
X128490011Y-139618976D01*
X128450477Y-139593351D01*
X128438497Y-139579448D01*
X128428344Y-139571657D01*
X128400363Y-139535191D01*
X128366149Y-139495484D01*
X128360701Y-139483503D01*
X128356054Y-139477446D01*
X128336667Y-139430642D01*
X128312678Y-139377882D01*
X128311550Y-139370006D01*
X128310609Y-139367734D01*
X128303595Y-139314461D01*
X128299001Y-139282379D01*
X128299001Y-139279563D01*
X128299000Y-139279555D01*
X128299000Y-138718974D01*
X128300627Y-138708087D01*
X128310609Y-138632265D01*
X128312721Y-138627167D01*
X128314272Y-138616786D01*
X128337615Y-138567067D01*
X128356052Y-138522556D01*
X128362392Y-138514294D01*
X128369175Y-138499846D01*
X128401980Y-138462701D01*
X128428344Y-138428343D01*
X128440692Y-138418868D01*
X128454693Y-138403015D01*
X128492159Y-138379375D01*
X128522555Y-138356052D01*
X128541681Y-138348130D01*
X128563950Y-138334079D01*
X128601536Y-138323337D01*
X128632264Y-138310609D01*
X128657862Y-138307239D01*
X128688163Y-138298579D01*
X128722069Y-138298786D01*
X128750000Y-138295109D01*
X128780648Y-138299144D01*
G37*
G36*
X152530648Y-138299144D02*
G01*
X152567346Y-138299368D01*
X152594867Y-138307598D01*
X152617735Y-138310609D01*
X152650982Y-138324380D01*
X152691117Y-138336383D01*
X152710871Y-138349187D01*
X152727445Y-138356052D01*
X152759988Y-138381023D01*
X152799524Y-138406649D01*
X152811504Y-138420552D01*
X152821657Y-138428343D01*
X152849639Y-138464810D01*
X152883852Y-138504516D01*
X152889299Y-138516497D01*
X152893948Y-138522555D01*
X152913337Y-138569364D01*
X152937323Y-138622118D01*
X152938451Y-138629995D01*
X152939391Y-138632264D01*
X152946394Y-138685462D01*
X152951000Y-138717621D01*
X152951000Y-139281027D01*
X152949373Y-139291914D01*
X152939391Y-139367736D01*
X152937279Y-139372834D01*
X152935728Y-139383215D01*
X152912385Y-139432934D01*
X152893948Y-139477445D01*
X152887608Y-139485707D01*
X152880825Y-139500155D01*
X152848023Y-139537296D01*
X152821657Y-139571657D01*
X152809306Y-139581134D01*
X152795307Y-139596985D01*
X152757842Y-139620623D01*
X152727445Y-139643948D01*
X152708319Y-139651870D01*
X152686050Y-139665921D01*
X152648464Y-139676663D01*
X152617736Y-139689391D01*
X152592138Y-139692761D01*
X152561837Y-139701421D01*
X152527931Y-139701214D01*
X152500000Y-139704891D01*
X152469352Y-139700856D01*
X152432654Y-139700632D01*
X152405133Y-139692402D01*
X152382265Y-139689391D01*
X152349018Y-139675620D01*
X152308883Y-139663617D01*
X152289130Y-139650813D01*
X152272555Y-139643948D01*
X152240011Y-139618976D01*
X152200477Y-139593351D01*
X152188497Y-139579448D01*
X152178344Y-139571657D01*
X152150363Y-139535191D01*
X152116149Y-139495484D01*
X152110701Y-139483503D01*
X152106054Y-139477446D01*
X152086667Y-139430642D01*
X152062678Y-139377882D01*
X152061550Y-139370006D01*
X152060609Y-139367734D01*
X152053595Y-139314461D01*
X152049001Y-139282379D01*
X152049001Y-139279563D01*
X152049000Y-139279555D01*
X152049000Y-138718974D01*
X152050627Y-138708087D01*
X152060609Y-138632265D01*
X152062721Y-138627167D01*
X152064272Y-138616786D01*
X152087615Y-138567067D01*
X152106052Y-138522556D01*
X152112392Y-138514294D01*
X152119175Y-138499846D01*
X152151980Y-138462701D01*
X152178344Y-138428343D01*
X152190692Y-138418868D01*
X152204693Y-138403015D01*
X152242159Y-138379375D01*
X152272555Y-138356052D01*
X152291681Y-138348130D01*
X152313950Y-138334079D01*
X152351536Y-138323337D01*
X152382264Y-138310609D01*
X152407862Y-138307239D01*
X152438163Y-138298579D01*
X152472069Y-138298786D01*
X152500000Y-138295109D01*
X152530648Y-138299144D01*
G37*
G36*
X130030648Y-138299144D02*
G01*
X130067346Y-138299368D01*
X130094867Y-138307598D01*
X130117735Y-138310609D01*
X130150982Y-138324380D01*
X130191117Y-138336383D01*
X130210871Y-138349187D01*
X130227445Y-138356052D01*
X130259988Y-138381023D01*
X130299524Y-138406649D01*
X130311504Y-138420552D01*
X130321657Y-138428343D01*
X130349639Y-138464810D01*
X130383852Y-138504516D01*
X130389299Y-138516497D01*
X130393948Y-138522555D01*
X130413337Y-138569364D01*
X130437323Y-138622118D01*
X130438451Y-138629995D01*
X130439391Y-138632264D01*
X130446394Y-138685462D01*
X130451000Y-138717621D01*
X130451000Y-139281027D01*
X130449373Y-139291914D01*
X130439391Y-139367736D01*
X130437279Y-139372834D01*
X130435728Y-139383215D01*
X130412385Y-139432934D01*
X130393948Y-139477445D01*
X130387608Y-139485707D01*
X130380825Y-139500155D01*
X130348023Y-139537296D01*
X130321657Y-139571657D01*
X130309306Y-139581134D01*
X130295307Y-139596985D01*
X130257842Y-139620623D01*
X130227445Y-139643948D01*
X130208319Y-139651870D01*
X130186050Y-139665921D01*
X130148464Y-139676663D01*
X130117736Y-139689391D01*
X130092138Y-139692761D01*
X130061837Y-139701421D01*
X130027931Y-139701214D01*
X130000000Y-139704891D01*
X129969352Y-139700856D01*
X129932654Y-139700632D01*
X129905133Y-139692402D01*
X129882265Y-139689391D01*
X129849018Y-139675620D01*
X129808883Y-139663617D01*
X129789130Y-139650813D01*
X129772555Y-139643948D01*
X129740011Y-139618976D01*
X129700477Y-139593351D01*
X129688497Y-139579448D01*
X129678344Y-139571657D01*
X129650363Y-139535191D01*
X129616149Y-139495484D01*
X129610701Y-139483503D01*
X129606054Y-139477446D01*
X129586667Y-139430642D01*
X129562678Y-139377882D01*
X129561550Y-139370006D01*
X129560609Y-139367734D01*
X129553595Y-139314461D01*
X129549001Y-139282379D01*
X129549001Y-139279563D01*
X129549000Y-139279555D01*
X129549000Y-138718974D01*
X129550627Y-138708087D01*
X129560609Y-138632265D01*
X129562721Y-138627167D01*
X129564272Y-138616786D01*
X129587615Y-138567067D01*
X129606052Y-138522556D01*
X129612392Y-138514294D01*
X129619175Y-138499846D01*
X129651980Y-138462701D01*
X129678344Y-138428343D01*
X129690692Y-138418868D01*
X129704693Y-138403015D01*
X129742159Y-138379375D01*
X129772555Y-138356052D01*
X129791681Y-138348130D01*
X129813950Y-138334079D01*
X129851536Y-138323337D01*
X129882264Y-138310609D01*
X129907862Y-138307239D01*
X129938163Y-138298579D01*
X129972069Y-138298786D01*
X130000000Y-138295109D01*
X130030648Y-138299144D01*
G37*
G36*
X131280648Y-138299144D02*
G01*
X131317346Y-138299368D01*
X131344867Y-138307598D01*
X131367735Y-138310609D01*
X131400982Y-138324380D01*
X131441117Y-138336383D01*
X131460871Y-138349187D01*
X131477445Y-138356052D01*
X131509988Y-138381023D01*
X131549524Y-138406649D01*
X131561504Y-138420552D01*
X131571657Y-138428343D01*
X131599639Y-138464810D01*
X131633852Y-138504516D01*
X131639299Y-138516497D01*
X131643948Y-138522555D01*
X131663337Y-138569364D01*
X131687323Y-138622118D01*
X131688451Y-138629995D01*
X131689391Y-138632264D01*
X131696394Y-138685462D01*
X131701000Y-138717621D01*
X131701000Y-139281027D01*
X131699373Y-139291914D01*
X131689391Y-139367736D01*
X131687279Y-139372834D01*
X131685728Y-139383215D01*
X131662385Y-139432934D01*
X131643948Y-139477445D01*
X131637608Y-139485707D01*
X131630825Y-139500155D01*
X131598023Y-139537296D01*
X131571657Y-139571657D01*
X131559306Y-139581134D01*
X131545307Y-139596985D01*
X131507842Y-139620623D01*
X131477445Y-139643948D01*
X131458319Y-139651870D01*
X131436050Y-139665921D01*
X131398464Y-139676663D01*
X131367736Y-139689391D01*
X131342138Y-139692761D01*
X131311837Y-139701421D01*
X131277931Y-139701214D01*
X131250000Y-139704891D01*
X131219352Y-139700856D01*
X131182654Y-139700632D01*
X131155133Y-139692402D01*
X131132265Y-139689391D01*
X131099018Y-139675620D01*
X131058883Y-139663617D01*
X131039130Y-139650813D01*
X131022555Y-139643948D01*
X130990011Y-139618976D01*
X130950477Y-139593351D01*
X130938497Y-139579448D01*
X130928344Y-139571657D01*
X130900363Y-139535191D01*
X130866149Y-139495484D01*
X130860701Y-139483503D01*
X130856054Y-139477446D01*
X130836667Y-139430642D01*
X130812678Y-139377882D01*
X130811550Y-139370006D01*
X130810609Y-139367734D01*
X130803595Y-139314461D01*
X130799001Y-139282379D01*
X130799001Y-139279563D01*
X130799000Y-139279555D01*
X130799000Y-138718974D01*
X130800627Y-138708087D01*
X130810609Y-138632265D01*
X130812721Y-138627167D01*
X130814272Y-138616786D01*
X130837615Y-138567067D01*
X130856052Y-138522556D01*
X130862392Y-138514294D01*
X130869175Y-138499846D01*
X130901980Y-138462701D01*
X130928344Y-138428343D01*
X130940692Y-138418868D01*
X130954693Y-138403015D01*
X130992159Y-138379375D01*
X131022555Y-138356052D01*
X131041681Y-138348130D01*
X131063950Y-138334079D01*
X131101536Y-138323337D01*
X131132264Y-138310609D01*
X131157862Y-138307239D01*
X131188163Y-138298579D01*
X131222069Y-138298786D01*
X131250000Y-138295109D01*
X131280648Y-138299144D01*
G37*
G36*
X151445479Y-138298001D02*
G01*
X151446082Y-138298001D01*
X151449224Y-138298626D01*
X151529862Y-138312082D01*
X151537413Y-138316168D01*
X151544017Y-138317482D01*
X151561815Y-138329374D01*
X151603534Y-138351951D01*
X151616205Y-138365715D01*
X151627043Y-138372957D01*
X151638087Y-138389486D01*
X151660269Y-138413582D01*
X151671892Y-138440079D01*
X151682518Y-138455983D01*
X151685547Y-138471210D01*
X151694982Y-138492720D01*
X151703434Y-138560526D01*
X151703434Y-139436879D01*
X151701999Y-139445479D01*
X151701999Y-139446082D01*
X151701374Y-139449224D01*
X151687918Y-139529862D01*
X151683832Y-139537413D01*
X151682518Y-139544017D01*
X151670626Y-139561815D01*
X151648049Y-139603534D01*
X151634285Y-139616205D01*
X151627043Y-139627043D01*
X151610514Y-139638087D01*
X151586418Y-139660269D01*
X151559921Y-139671892D01*
X151544017Y-139682518D01*
X151528790Y-139685547D01*
X151507280Y-139694982D01*
X151439474Y-139703434D01*
X151063121Y-139703434D01*
X151054521Y-139701999D01*
X151053918Y-139701999D01*
X151050776Y-139701374D01*
X150970138Y-139687918D01*
X150962587Y-139683832D01*
X150955983Y-139682518D01*
X150938185Y-139670626D01*
X150896466Y-139648049D01*
X150883795Y-139634285D01*
X150872957Y-139627043D01*
X150861913Y-139610514D01*
X150839731Y-139586418D01*
X150828108Y-139559921D01*
X150817482Y-139544017D01*
X150814453Y-139528790D01*
X150805018Y-139507280D01*
X150796566Y-139439474D01*
X150796566Y-138563121D01*
X150798001Y-138554521D01*
X150798001Y-138553918D01*
X150798626Y-138550776D01*
X150812082Y-138470138D01*
X150816168Y-138462587D01*
X150817482Y-138455983D01*
X150829374Y-138438185D01*
X150851951Y-138396466D01*
X150865715Y-138383795D01*
X150872957Y-138372957D01*
X150889486Y-138361913D01*
X150913582Y-138339731D01*
X150940079Y-138328108D01*
X150955983Y-138317482D01*
X150971210Y-138314453D01*
X150992720Y-138305018D01*
X151060526Y-138296566D01*
X151436879Y-138296566D01*
X151445479Y-138298001D01*
G37*
G36*
X125195479Y-138298001D02*
G01*
X125196082Y-138298001D01*
X125199224Y-138298626D01*
X125279862Y-138312082D01*
X125287413Y-138316168D01*
X125294017Y-138317482D01*
X125311815Y-138329374D01*
X125353534Y-138351951D01*
X125366205Y-138365715D01*
X125377043Y-138372957D01*
X125388087Y-138389486D01*
X125410269Y-138413582D01*
X125421892Y-138440079D01*
X125432518Y-138455983D01*
X125435547Y-138471210D01*
X125444982Y-138492720D01*
X125453434Y-138560526D01*
X125453434Y-139436879D01*
X125451999Y-139445479D01*
X125451999Y-139446082D01*
X125451374Y-139449224D01*
X125437918Y-139529862D01*
X125433832Y-139537413D01*
X125432518Y-139544017D01*
X125420626Y-139561815D01*
X125398049Y-139603534D01*
X125384285Y-139616205D01*
X125377043Y-139627043D01*
X125360514Y-139638087D01*
X125336418Y-139660269D01*
X125309921Y-139671892D01*
X125294017Y-139682518D01*
X125278790Y-139685547D01*
X125257280Y-139694982D01*
X125189474Y-139703434D01*
X124813121Y-139703434D01*
X124804521Y-139701999D01*
X124803918Y-139701999D01*
X124800776Y-139701374D01*
X124720138Y-139687918D01*
X124712587Y-139683832D01*
X124705983Y-139682518D01*
X124688185Y-139670626D01*
X124646466Y-139648049D01*
X124633795Y-139634285D01*
X124622957Y-139627043D01*
X124611913Y-139610514D01*
X124589731Y-139586418D01*
X124578108Y-139559921D01*
X124567482Y-139544017D01*
X124564453Y-139528790D01*
X124555018Y-139507280D01*
X124546566Y-139439474D01*
X124546566Y-138563121D01*
X124548001Y-138554521D01*
X124548001Y-138553918D01*
X124548626Y-138550776D01*
X124562082Y-138470138D01*
X124566168Y-138462587D01*
X124567482Y-138455983D01*
X124579374Y-138438185D01*
X124601951Y-138396466D01*
X124615715Y-138383795D01*
X124622957Y-138372957D01*
X124639486Y-138361913D01*
X124663582Y-138339731D01*
X124690079Y-138328108D01*
X124705983Y-138317482D01*
X124721210Y-138314453D01*
X124742720Y-138305018D01*
X124810526Y-138296566D01*
X125186879Y-138296566D01*
X125195479Y-138298001D01*
G37*
G36*
X142744899Y-135901959D02*
G01*
X142761769Y-135913231D01*
X142773041Y-135930101D01*
X142779448Y-135962312D01*
X142779448Y-136937688D01*
X142776999Y-136950000D01*
X142773041Y-136969899D01*
X142761769Y-136986769D01*
X142744899Y-136998041D01*
X142725000Y-137001999D01*
X142712688Y-137004448D01*
X141337312Y-137004448D01*
X141305101Y-136998041D01*
X141288231Y-136986769D01*
X141276959Y-136969899D01*
X141270552Y-136937688D01*
X141270552Y-135962312D01*
X141276959Y-135930101D01*
X141288231Y-135913231D01*
X141305101Y-135901959D01*
X141337312Y-135895552D01*
X142712688Y-135895552D01*
X142744899Y-135901959D01*
G37*
G36*
X140544899Y-135901959D02*
G01*
X140561769Y-135913231D01*
X140573041Y-135930101D01*
X140579448Y-135962312D01*
X140579448Y-136937688D01*
X140576999Y-136950000D01*
X140573041Y-136969899D01*
X140561769Y-136986769D01*
X140544899Y-136998041D01*
X140525000Y-137001999D01*
X140512688Y-137004448D01*
X139137312Y-137004448D01*
X139105101Y-136998041D01*
X139088231Y-136986769D01*
X139076959Y-136969899D01*
X139070552Y-136937688D01*
X139070552Y-135962312D01*
X139076959Y-135930101D01*
X139088231Y-135913231D01*
X139105101Y-135901959D01*
X139137312Y-135895552D01*
X140512688Y-135895552D01*
X140544899Y-135901959D01*
G37*
G36*
X117445479Y-135923001D02*
G01*
X117446082Y-135923001D01*
X117449224Y-135923626D01*
X117529862Y-135937082D01*
X117537413Y-135941168D01*
X117544017Y-135942482D01*
X117561815Y-135954374D01*
X117603534Y-135976951D01*
X117616205Y-135990715D01*
X117627043Y-135997957D01*
X117638087Y-136014486D01*
X117660269Y-136038582D01*
X117671892Y-136065079D01*
X117682518Y-136080983D01*
X117685547Y-136096210D01*
X117694982Y-136117720D01*
X117703434Y-136185526D01*
X117703434Y-136561879D01*
X117701999Y-136570479D01*
X117701999Y-136571082D01*
X117701374Y-136574224D01*
X117687918Y-136654862D01*
X117683832Y-136662413D01*
X117682518Y-136669017D01*
X117670626Y-136686815D01*
X117648049Y-136728534D01*
X117634285Y-136741205D01*
X117627043Y-136752043D01*
X117610514Y-136763087D01*
X117586418Y-136785269D01*
X117559921Y-136796892D01*
X117544017Y-136807518D01*
X117528790Y-136810547D01*
X117507280Y-136819982D01*
X117439474Y-136828434D01*
X116563121Y-136828434D01*
X116554521Y-136826999D01*
X116553918Y-136826999D01*
X116550776Y-136826374D01*
X116470138Y-136812918D01*
X116462587Y-136808832D01*
X116455983Y-136807518D01*
X116438185Y-136795626D01*
X116396466Y-136773049D01*
X116383795Y-136759285D01*
X116372957Y-136752043D01*
X116361913Y-136735514D01*
X116339731Y-136711418D01*
X116328108Y-136684921D01*
X116317482Y-136669017D01*
X116314453Y-136653790D01*
X116305018Y-136632280D01*
X116296566Y-136564474D01*
X116296566Y-136188121D01*
X116298001Y-136179521D01*
X116298001Y-136178918D01*
X116298626Y-136175776D01*
X116312082Y-136095138D01*
X116316168Y-136087587D01*
X116317482Y-136080983D01*
X116329374Y-136063185D01*
X116351951Y-136021466D01*
X116365715Y-136008795D01*
X116372957Y-135997957D01*
X116389486Y-135986913D01*
X116413582Y-135964731D01*
X116440079Y-135953108D01*
X116455983Y-135942482D01*
X116471210Y-135939453D01*
X116492720Y-135930018D01*
X116560526Y-135921566D01*
X117436879Y-135921566D01*
X117445479Y-135923001D01*
G37*
G36*
X165791914Y-135925627D02*
G01*
X165867736Y-135935609D01*
X165872834Y-135937721D01*
X165883215Y-135939272D01*
X165932934Y-135962615D01*
X165977445Y-135981052D01*
X165985707Y-135987392D01*
X166000155Y-135994175D01*
X166037296Y-136026977D01*
X166071657Y-136053343D01*
X166081134Y-136065694D01*
X166096985Y-136079693D01*
X166120623Y-136117158D01*
X166143948Y-136147555D01*
X166151870Y-136166681D01*
X166165921Y-136188950D01*
X166176663Y-136226536D01*
X166189391Y-136257264D01*
X166192761Y-136282862D01*
X166201421Y-136313163D01*
X166201214Y-136347069D01*
X166204891Y-136375000D01*
X166200856Y-136405648D01*
X166200632Y-136442347D01*
X166192402Y-136469868D01*
X166189391Y-136492736D01*
X166175620Y-136525983D01*
X166163617Y-136566118D01*
X166150813Y-136585871D01*
X166143948Y-136602446D01*
X166118976Y-136634990D01*
X166093351Y-136674524D01*
X166079448Y-136686504D01*
X166071657Y-136696657D01*
X166035190Y-136724639D01*
X165995484Y-136758852D01*
X165983503Y-136764299D01*
X165977445Y-136768948D01*
X165930636Y-136788337D01*
X165877882Y-136812323D01*
X165870005Y-136813451D01*
X165867736Y-136814391D01*
X165814538Y-136821394D01*
X165782379Y-136826000D01*
X165218973Y-136826000D01*
X165208086Y-136824373D01*
X165132264Y-136814391D01*
X165127166Y-136812279D01*
X165116785Y-136810728D01*
X165067066Y-136787385D01*
X165022555Y-136768948D01*
X165014293Y-136762608D01*
X164999845Y-136755825D01*
X164962704Y-136723023D01*
X164928343Y-136696657D01*
X164918866Y-136684306D01*
X164903015Y-136670307D01*
X164879377Y-136632842D01*
X164856052Y-136602445D01*
X164848130Y-136583319D01*
X164834079Y-136561050D01*
X164823337Y-136523464D01*
X164810609Y-136492736D01*
X164807239Y-136467138D01*
X164798579Y-136436837D01*
X164798786Y-136402931D01*
X164795109Y-136375000D01*
X164799144Y-136344352D01*
X164799368Y-136307653D01*
X164807598Y-136280132D01*
X164810609Y-136257264D01*
X164824380Y-136224017D01*
X164836383Y-136183882D01*
X164849187Y-136164129D01*
X164856052Y-136147554D01*
X164881024Y-136115010D01*
X164906649Y-136075476D01*
X164920552Y-136063496D01*
X164928343Y-136053343D01*
X164964810Y-136025361D01*
X165004516Y-135991148D01*
X165016497Y-135985701D01*
X165022555Y-135981052D01*
X165069364Y-135961663D01*
X165122118Y-135937677D01*
X165129995Y-135936549D01*
X165132264Y-135935609D01*
X165185462Y-135928606D01*
X165217621Y-135924000D01*
X165781027Y-135924000D01*
X165791914Y-135925627D01*
G37*
G36*
X178182816Y-129947036D02*
G01*
X178216041Y-129946456D01*
X178348182Y-129959179D01*
X178485836Y-129969288D01*
X178519134Y-129975640D01*
X178549658Y-129978579D01*
X178681926Y-130006694D01*
X178820126Y-130033057D01*
X178850010Y-130042422D01*
X178877465Y-130048258D01*
X179007983Y-130091928D01*
X179144872Y-130134827D01*
X179171113Y-130146510D01*
X179195303Y-130154604D01*
X179322262Y-130213806D01*
X179455769Y-130273247D01*
X179478267Y-130286552D01*
X179499053Y-130296245D01*
X179620525Y-130370684D01*
X179748695Y-130446483D01*
X179767455Y-130460723D01*
X179784807Y-130471356D01*
X179898874Y-130560475D01*
X180019769Y-130652239D01*
X180034905Y-130666754D01*
X180048909Y-130677695D01*
X180153737Y-130780709D01*
X180265398Y-130887788D01*
X180277120Y-130901958D01*
X180287959Y-130912609D01*
X180381847Y-131028551D01*
X180482325Y-131150008D01*
X180490924Y-131163250D01*
X180498866Y-131173057D01*
X180580073Y-131300527D01*
X180667676Y-131435424D01*
X180673550Y-131447257D01*
X180678944Y-131455724D01*
X180745950Y-131593106D01*
X180818993Y-131740251D01*
X180822589Y-131750240D01*
X180825862Y-131756950D01*
X180877280Y-131902149D01*
X180934272Y-132060450D01*
X180936105Y-132068264D01*
X180937738Y-132072876D01*
X180972339Y-132222750D01*
X181011984Y-132391777D01*
X181012609Y-132397178D01*
X181013130Y-132399435D01*
X181029878Y-132546431D01*
X181051099Y-132729841D01*
X181050581Y-132746322D01*
X181040737Y-133197489D01*
X181035331Y-133231624D01*
X181034592Y-133255125D01*
X181009677Y-133393598D01*
X180988523Y-133527156D01*
X180980329Y-133556703D01*
X180974326Y-133590065D01*
X180934431Y-133722205D01*
X180898957Y-133850119D01*
X180886512Y-133880922D01*
X180875964Y-133915858D01*
X180822200Y-134040099D01*
X180773407Y-134160866D01*
X180756325Y-134192328D01*
X180740807Y-134228187D01*
X180674468Y-134343090D01*
X180613491Y-134455395D01*
X180591474Y-134486838D01*
X180570647Y-134522912D01*
X180493125Y-134627296D01*
X180421262Y-134729927D01*
X180394126Y-134760599D01*
X180367741Y-134796126D01*
X180280511Y-134889017D01*
X180199179Y-134980945D01*
X180166841Y-135010062D01*
X180134777Y-135044207D01*
X180039468Y-135124750D01*
X179950120Y-135205199D01*
X179912599Y-135231963D01*
X179874843Y-135263869D01*
X179773105Y-135331463D01*
X179677273Y-135399820D01*
X179634705Y-135423416D01*
X179591384Y-135452198D01*
X179484878Y-135506466D01*
X179384139Y-135562306D01*
X179336812Y-135581909D01*
X179288158Y-135606700D01*
X179178572Y-135647455D01*
X179074508Y-135690559D01*
X179022790Y-135705389D01*
X178969183Y-135725325D01*
X178858185Y-135752589D01*
X178752344Y-135782938D01*
X178696742Y-135792243D01*
X178638688Y-135806502D01*
X178527882Y-135820500D01*
X178421791Y-135838254D01*
X178362931Y-135841339D01*
X178301053Y-135849156D01*
X178191988Y-135850298D01*
X178087102Y-135855795D01*
X178025695Y-135852039D01*
X177960753Y-135852719D01*
X177854877Y-135841591D01*
X177752580Y-135835334D01*
X177689468Y-135824206D01*
X177622299Y-135817146D01*
X177520946Y-135794491D01*
X177422520Y-135777136D01*
X177358609Y-135758204D01*
X177290176Y-135742908D01*
X177194550Y-135709608D01*
X177101180Y-135681950D01*
X177037470Y-135654907D01*
X176968787Y-135630989D01*
X176879955Y-135588046D01*
X176792675Y-135550998D01*
X176730202Y-135515653D01*
X176662392Y-135482872D01*
X176581283Y-135431398D01*
X176500974Y-135385962D01*
X176440822Y-135342259D01*
X176375052Y-135300520D01*
X176302424Y-135241707D01*
X176229835Y-135188968D01*
X176173127Y-135137004D01*
X176110574Y-135086350D01*
X176046994Y-135021425D01*
X175982740Y-134962546D01*
X175930604Y-134902570D01*
X175872466Y-134843202D01*
X175818362Y-134773451D01*
X175762860Y-134709604D01*
X175716393Y-134641994D01*
X175663882Y-134574297D01*
X175619496Y-134501007D01*
X175573036Y-134433407D01*
X175533325Y-134358722D01*
X175487588Y-134283201D01*
X175452996Y-134207646D01*
X175415686Y-134137476D01*
X175383742Y-134056383D01*
X175345920Y-133973771D01*
X175321049Y-133897225D01*
X175292859Y-133825661D01*
X175269638Y-133738999D01*
X175240756Y-133650109D01*
X175225357Y-133573740D01*
X175206115Y-133501927D01*
X175192477Y-133410672D01*
X175173489Y-133316504D01*
X175167187Y-133241458D01*
X175156577Y-133170464D01*
X175153268Y-133075694D01*
X175145012Y-132977379D01*
X175147296Y-132904691D01*
X175144881Y-132835521D01*
X175152521Y-132738445D01*
X175155702Y-132637228D01*
X175165948Y-132567844D01*
X175171177Y-132501398D01*
X175190245Y-132403302D01*
X175205416Y-132300561D01*
X175222896Y-132235326D01*
X175235123Y-132172421D01*
X175265939Y-132074687D01*
X175293497Y-131971838D01*
X175317413Y-131911434D01*
X175335908Y-131852775D01*
X175378621Y-131756840D01*
X175418777Y-131655418D01*
X175448249Y-131600452D01*
X175472222Y-131546609D01*
X175526817Y-131453924D01*
X175579595Y-131355494D01*
X175613708Y-131306411D01*
X175642324Y-131257831D01*
X175708591Y-131169893D01*
X175773819Y-131076041D01*
X175811644Y-131033137D01*
X175844020Y-130990173D01*
X175921558Y-130908465D01*
X175998876Y-130820765D01*
X176039450Y-130784232D01*
X176074720Y-130747065D01*
X176162955Y-130673027D01*
X176251782Y-130593047D01*
X176294184Y-130562913D01*
X176331458Y-130531637D01*
X176429602Y-130466677D01*
X176529185Y-130395907D01*
X176572505Y-130372092D01*
X176610934Y-130346656D01*
X176718057Y-130292074D01*
X176827409Y-130231957D01*
X176870773Y-130214260D01*
X176909557Y-130194499D01*
X177024557Y-130151502D01*
X177142500Y-130103371D01*
X177185117Y-130091472D01*
X177223474Y-130077131D01*
X177345015Y-130046827D01*
X177470282Y-130011852D01*
X177511437Y-130005334D01*
X177548664Y-129996052D01*
X177675331Y-129979376D01*
X177806411Y-129958615D01*
X177845452Y-129956979D01*
X177880952Y-129952305D01*
X178011213Y-129950031D01*
X178146431Y-129944364D01*
X178182816Y-129947036D01*
G37*
G36*
X171682816Y-129947036D02*
G01*
X171716041Y-129946456D01*
X171848182Y-129959179D01*
X171985836Y-129969288D01*
X172019134Y-129975640D01*
X172049658Y-129978579D01*
X172181926Y-130006694D01*
X172320126Y-130033057D01*
X172350010Y-130042422D01*
X172377465Y-130048258D01*
X172507983Y-130091928D01*
X172644872Y-130134827D01*
X172671113Y-130146510D01*
X172695303Y-130154604D01*
X172822262Y-130213806D01*
X172955769Y-130273247D01*
X172978267Y-130286552D01*
X172999053Y-130296245D01*
X173120525Y-130370684D01*
X173248695Y-130446483D01*
X173267455Y-130460723D01*
X173284807Y-130471356D01*
X173398874Y-130560475D01*
X173519769Y-130652239D01*
X173534905Y-130666754D01*
X173548909Y-130677695D01*
X173653737Y-130780709D01*
X173765398Y-130887788D01*
X173777120Y-130901958D01*
X173787959Y-130912609D01*
X173881847Y-131028551D01*
X173982325Y-131150008D01*
X173990924Y-131163250D01*
X173998866Y-131173057D01*
X174080073Y-131300527D01*
X174167676Y-131435424D01*
X174173550Y-131447257D01*
X174178944Y-131455724D01*
X174245950Y-131593106D01*
X174318993Y-131740251D01*
X174322589Y-131750240D01*
X174325862Y-131756950D01*
X174377280Y-131902149D01*
X174434272Y-132060450D01*
X174436105Y-132068264D01*
X174437738Y-132072876D01*
X174472339Y-132222750D01*
X174511984Y-132391777D01*
X174512609Y-132397178D01*
X174513130Y-132399435D01*
X174529878Y-132546431D01*
X174551099Y-132729841D01*
X174550581Y-132746322D01*
X174540737Y-133197489D01*
X174535331Y-133231624D01*
X174534592Y-133255125D01*
X174509677Y-133393598D01*
X174488523Y-133527156D01*
X174480329Y-133556703D01*
X174474326Y-133590065D01*
X174434431Y-133722205D01*
X174398957Y-133850119D01*
X174386512Y-133880922D01*
X174375964Y-133915858D01*
X174322200Y-134040099D01*
X174273407Y-134160866D01*
X174256325Y-134192328D01*
X174240807Y-134228187D01*
X174174468Y-134343090D01*
X174113491Y-134455395D01*
X174091474Y-134486838D01*
X174070647Y-134522912D01*
X173993125Y-134627296D01*
X173921262Y-134729927D01*
X173894126Y-134760599D01*
X173867741Y-134796126D01*
X173780511Y-134889017D01*
X173699179Y-134980945D01*
X173666841Y-135010062D01*
X173634777Y-135044207D01*
X173539468Y-135124750D01*
X173450120Y-135205199D01*
X173412599Y-135231963D01*
X173374843Y-135263869D01*
X173273105Y-135331463D01*
X173177273Y-135399820D01*
X173134705Y-135423416D01*
X173091384Y-135452198D01*
X172984878Y-135506466D01*
X172884139Y-135562306D01*
X172836812Y-135581909D01*
X172788158Y-135606700D01*
X172678572Y-135647455D01*
X172574508Y-135690559D01*
X172522790Y-135705389D01*
X172469183Y-135725325D01*
X172358185Y-135752589D01*
X172252344Y-135782938D01*
X172196742Y-135792243D01*
X172138688Y-135806502D01*
X172027882Y-135820500D01*
X171921791Y-135838254D01*
X171862931Y-135841339D01*
X171801053Y-135849156D01*
X171691988Y-135850298D01*
X171587102Y-135855795D01*
X171525695Y-135852039D01*
X171460753Y-135852719D01*
X171354877Y-135841591D01*
X171252580Y-135835334D01*
X171189468Y-135824206D01*
X171122299Y-135817146D01*
X171020946Y-135794491D01*
X170922520Y-135777136D01*
X170858609Y-135758204D01*
X170790176Y-135742908D01*
X170694550Y-135709608D01*
X170601180Y-135681950D01*
X170537470Y-135654907D01*
X170468787Y-135630989D01*
X170379955Y-135588046D01*
X170292675Y-135550998D01*
X170230202Y-135515653D01*
X170162392Y-135482872D01*
X170081283Y-135431398D01*
X170000974Y-135385962D01*
X169940822Y-135342259D01*
X169875052Y-135300520D01*
X169802424Y-135241707D01*
X169729835Y-135188968D01*
X169673127Y-135137004D01*
X169610574Y-135086350D01*
X169546994Y-135021425D01*
X169482740Y-134962546D01*
X169430604Y-134902570D01*
X169372466Y-134843202D01*
X169318362Y-134773451D01*
X169262860Y-134709604D01*
X169216393Y-134641994D01*
X169163882Y-134574297D01*
X169119496Y-134501007D01*
X169073036Y-134433407D01*
X169033325Y-134358722D01*
X168987588Y-134283201D01*
X168952996Y-134207646D01*
X168915686Y-134137476D01*
X168883742Y-134056383D01*
X168845920Y-133973771D01*
X168821049Y-133897225D01*
X168792859Y-133825661D01*
X168769638Y-133738999D01*
X168740756Y-133650109D01*
X168725357Y-133573740D01*
X168706115Y-133501927D01*
X168692477Y-133410672D01*
X168673489Y-133316504D01*
X168667187Y-133241458D01*
X168656577Y-133170464D01*
X168653268Y-133075694D01*
X168645012Y-132977379D01*
X168647296Y-132904691D01*
X168644881Y-132835521D01*
X168652521Y-132738445D01*
X168655702Y-132637228D01*
X168665948Y-132567844D01*
X168671177Y-132501398D01*
X168690245Y-132403302D01*
X168705416Y-132300561D01*
X168722896Y-132235326D01*
X168735123Y-132172421D01*
X168765939Y-132074687D01*
X168793497Y-131971838D01*
X168817413Y-131911434D01*
X168835908Y-131852775D01*
X168878621Y-131756840D01*
X168918777Y-131655418D01*
X168948249Y-131600452D01*
X168972222Y-131546609D01*
X169026817Y-131453924D01*
X169079595Y-131355494D01*
X169113708Y-131306411D01*
X169142324Y-131257831D01*
X169208591Y-131169893D01*
X169273819Y-131076041D01*
X169311644Y-131033137D01*
X169344020Y-130990173D01*
X169421558Y-130908465D01*
X169498876Y-130820765D01*
X169539450Y-130784232D01*
X169574720Y-130747065D01*
X169662955Y-130673027D01*
X169751782Y-130593047D01*
X169794184Y-130562913D01*
X169831458Y-130531637D01*
X169929602Y-130466677D01*
X170029185Y-130395907D01*
X170072505Y-130372092D01*
X170110934Y-130346656D01*
X170218057Y-130292074D01*
X170327409Y-130231957D01*
X170370773Y-130214260D01*
X170409557Y-130194499D01*
X170524557Y-130151502D01*
X170642500Y-130103371D01*
X170685117Y-130091472D01*
X170723474Y-130077131D01*
X170845015Y-130046827D01*
X170970282Y-130011852D01*
X171011437Y-130005334D01*
X171048664Y-129996052D01*
X171175331Y-129979376D01*
X171306411Y-129958615D01*
X171345452Y-129956979D01*
X171380952Y-129952305D01*
X171511213Y-129950031D01*
X171646431Y-129944364D01*
X171682816Y-129947036D01*
G37*
G36*
X111082816Y-129947036D02*
G01*
X111116041Y-129946456D01*
X111248182Y-129959179D01*
X111385836Y-129969288D01*
X111419134Y-129975640D01*
X111449658Y-129978579D01*
X111581926Y-130006694D01*
X111720126Y-130033057D01*
X111750010Y-130042422D01*
X111777465Y-130048258D01*
X111907983Y-130091928D01*
X112044872Y-130134827D01*
X112071113Y-130146510D01*
X112095303Y-130154604D01*
X112222262Y-130213806D01*
X112355769Y-130273247D01*
X112378267Y-130286552D01*
X112399053Y-130296245D01*
X112520525Y-130370684D01*
X112648695Y-130446483D01*
X112667455Y-130460723D01*
X112684807Y-130471356D01*
X112798874Y-130560475D01*
X112919769Y-130652239D01*
X112934905Y-130666754D01*
X112948909Y-130677695D01*
X113053737Y-130780709D01*
X113165398Y-130887788D01*
X113177120Y-130901958D01*
X113187959Y-130912609D01*
X113281847Y-131028551D01*
X113382325Y-131150008D01*
X113390924Y-131163250D01*
X113398866Y-131173057D01*
X113480073Y-131300527D01*
X113567676Y-131435424D01*
X113573550Y-131447257D01*
X113578944Y-131455724D01*
X113645950Y-131593106D01*
X113718993Y-131740251D01*
X113722589Y-131750240D01*
X113725862Y-131756950D01*
X113777280Y-131902149D01*
X113834272Y-132060450D01*
X113836105Y-132068264D01*
X113837738Y-132072876D01*
X113872339Y-132222750D01*
X113911984Y-132391777D01*
X113912609Y-132397178D01*
X113913130Y-132399435D01*
X113929878Y-132546431D01*
X113951099Y-132729841D01*
X113950581Y-132746322D01*
X113940737Y-133197489D01*
X113935331Y-133231624D01*
X113934592Y-133255125D01*
X113909677Y-133393598D01*
X113888523Y-133527156D01*
X113880329Y-133556703D01*
X113874326Y-133590065D01*
X113834431Y-133722205D01*
X113798957Y-133850119D01*
X113786512Y-133880922D01*
X113775964Y-133915858D01*
X113722200Y-134040099D01*
X113673407Y-134160866D01*
X113656325Y-134192328D01*
X113640807Y-134228187D01*
X113574468Y-134343090D01*
X113513491Y-134455395D01*
X113491474Y-134486838D01*
X113470647Y-134522912D01*
X113393125Y-134627296D01*
X113321262Y-134729927D01*
X113294126Y-134760599D01*
X113267741Y-134796126D01*
X113180511Y-134889017D01*
X113099179Y-134980945D01*
X113066841Y-135010062D01*
X113034777Y-135044207D01*
X112939468Y-135124750D01*
X112850120Y-135205199D01*
X112812599Y-135231963D01*
X112774843Y-135263869D01*
X112673105Y-135331463D01*
X112577273Y-135399820D01*
X112534705Y-135423416D01*
X112491384Y-135452198D01*
X112384878Y-135506466D01*
X112284139Y-135562306D01*
X112236812Y-135581909D01*
X112188158Y-135606700D01*
X112078572Y-135647455D01*
X111974508Y-135690559D01*
X111922790Y-135705389D01*
X111869183Y-135725325D01*
X111758185Y-135752589D01*
X111652344Y-135782938D01*
X111596742Y-135792243D01*
X111538688Y-135806502D01*
X111427882Y-135820500D01*
X111321791Y-135838254D01*
X111262931Y-135841339D01*
X111201053Y-135849156D01*
X111091988Y-135850298D01*
X110987102Y-135855795D01*
X110925695Y-135852039D01*
X110860753Y-135852719D01*
X110754877Y-135841591D01*
X110652580Y-135835334D01*
X110589468Y-135824206D01*
X110522299Y-135817146D01*
X110420946Y-135794491D01*
X110322520Y-135777136D01*
X110258609Y-135758204D01*
X110190176Y-135742908D01*
X110094550Y-135709608D01*
X110001180Y-135681950D01*
X109937470Y-135654907D01*
X109868787Y-135630989D01*
X109779955Y-135588046D01*
X109692675Y-135550998D01*
X109630202Y-135515653D01*
X109562392Y-135482872D01*
X109481283Y-135431398D01*
X109400974Y-135385962D01*
X109340822Y-135342259D01*
X109275052Y-135300520D01*
X109202424Y-135241707D01*
X109129835Y-135188968D01*
X109073127Y-135137004D01*
X109010574Y-135086350D01*
X108946994Y-135021425D01*
X108882740Y-134962546D01*
X108830604Y-134902570D01*
X108772466Y-134843202D01*
X108718362Y-134773451D01*
X108662860Y-134709604D01*
X108616393Y-134641994D01*
X108563882Y-134574297D01*
X108519496Y-134501007D01*
X108473036Y-134433407D01*
X108433325Y-134358722D01*
X108387588Y-134283201D01*
X108352996Y-134207646D01*
X108315686Y-134137476D01*
X108283742Y-134056383D01*
X108245920Y-133973771D01*
X108221049Y-133897225D01*
X108192859Y-133825661D01*
X108169638Y-133738999D01*
X108140756Y-133650109D01*
X108125357Y-133573740D01*
X108106115Y-133501927D01*
X108092477Y-133410672D01*
X108073489Y-133316504D01*
X108067187Y-133241458D01*
X108056577Y-133170464D01*
X108053268Y-133075694D01*
X108045012Y-132977379D01*
X108047296Y-132904691D01*
X108044881Y-132835521D01*
X108052521Y-132738445D01*
X108055702Y-132637228D01*
X108065948Y-132567844D01*
X108071177Y-132501398D01*
X108090245Y-132403302D01*
X108105416Y-132300561D01*
X108122896Y-132235326D01*
X108135123Y-132172421D01*
X108165939Y-132074687D01*
X108193497Y-131971838D01*
X108217413Y-131911434D01*
X108235908Y-131852775D01*
X108278621Y-131756840D01*
X108318777Y-131655418D01*
X108348249Y-131600452D01*
X108372222Y-131546609D01*
X108426817Y-131453924D01*
X108479595Y-131355494D01*
X108513708Y-131306411D01*
X108542324Y-131257831D01*
X108608591Y-131169893D01*
X108673819Y-131076041D01*
X108711644Y-131033137D01*
X108744020Y-130990173D01*
X108821558Y-130908465D01*
X108898876Y-130820765D01*
X108939450Y-130784232D01*
X108974720Y-130747065D01*
X109062955Y-130673027D01*
X109151782Y-130593047D01*
X109194184Y-130562913D01*
X109231458Y-130531637D01*
X109329602Y-130466677D01*
X109429185Y-130395907D01*
X109472505Y-130372092D01*
X109510934Y-130346656D01*
X109618057Y-130292074D01*
X109727409Y-130231957D01*
X109770773Y-130214260D01*
X109809557Y-130194499D01*
X109924557Y-130151502D01*
X110042500Y-130103371D01*
X110085117Y-130091472D01*
X110123474Y-130077131D01*
X110245015Y-130046827D01*
X110370282Y-130011852D01*
X110411437Y-130005334D01*
X110448664Y-129996052D01*
X110575331Y-129979376D01*
X110706411Y-129958615D01*
X110745452Y-129956979D01*
X110780952Y-129952305D01*
X110911213Y-129950031D01*
X111046431Y-129944364D01*
X111082816Y-129947036D01*
G37*
G36*
X104582816Y-129947036D02*
G01*
X104616041Y-129946456D01*
X104748182Y-129959179D01*
X104885836Y-129969288D01*
X104919134Y-129975640D01*
X104949658Y-129978579D01*
X105081926Y-130006694D01*
X105220126Y-130033057D01*
X105250010Y-130042422D01*
X105277465Y-130048258D01*
X105407983Y-130091928D01*
X105544872Y-130134827D01*
X105571113Y-130146510D01*
X105595303Y-130154604D01*
X105722262Y-130213806D01*
X105855769Y-130273247D01*
X105878267Y-130286552D01*
X105899053Y-130296245D01*
X106020525Y-130370684D01*
X106148695Y-130446483D01*
X106167455Y-130460723D01*
X106184807Y-130471356D01*
X106298874Y-130560475D01*
X106419769Y-130652239D01*
X106434905Y-130666754D01*
X106448909Y-130677695D01*
X106553737Y-130780709D01*
X106665398Y-130887788D01*
X106677120Y-130901958D01*
X106687959Y-130912609D01*
X106781847Y-131028551D01*
X106882325Y-131150008D01*
X106890924Y-131163250D01*
X106898866Y-131173057D01*
X106980073Y-131300527D01*
X107067676Y-131435424D01*
X107073550Y-131447257D01*
X107078944Y-131455724D01*
X107145950Y-131593106D01*
X107218993Y-131740251D01*
X107222589Y-131750240D01*
X107225862Y-131756950D01*
X107277280Y-131902149D01*
X107334272Y-132060450D01*
X107336105Y-132068264D01*
X107337738Y-132072876D01*
X107372339Y-132222750D01*
X107411984Y-132391777D01*
X107412609Y-132397178D01*
X107413130Y-132399435D01*
X107429878Y-132546431D01*
X107451099Y-132729841D01*
X107450581Y-132746322D01*
X107440737Y-133197489D01*
X107435331Y-133231624D01*
X107434592Y-133255125D01*
X107409677Y-133393598D01*
X107388523Y-133527156D01*
X107380329Y-133556703D01*
X107374326Y-133590065D01*
X107334431Y-133722205D01*
X107298957Y-133850119D01*
X107286512Y-133880922D01*
X107275964Y-133915858D01*
X107222200Y-134040099D01*
X107173407Y-134160866D01*
X107156325Y-134192328D01*
X107140807Y-134228187D01*
X107074468Y-134343090D01*
X107013491Y-134455395D01*
X106991474Y-134486838D01*
X106970647Y-134522912D01*
X106893125Y-134627296D01*
X106821262Y-134729927D01*
X106794126Y-134760599D01*
X106767741Y-134796126D01*
X106680511Y-134889017D01*
X106599179Y-134980945D01*
X106566841Y-135010062D01*
X106534777Y-135044207D01*
X106439468Y-135124750D01*
X106350120Y-135205199D01*
X106312599Y-135231963D01*
X106274843Y-135263869D01*
X106173105Y-135331463D01*
X106077273Y-135399820D01*
X106034705Y-135423416D01*
X105991384Y-135452198D01*
X105884878Y-135506466D01*
X105784139Y-135562306D01*
X105736812Y-135581909D01*
X105688158Y-135606700D01*
X105578572Y-135647455D01*
X105474508Y-135690559D01*
X105422790Y-135705389D01*
X105369183Y-135725325D01*
X105258185Y-135752589D01*
X105152344Y-135782938D01*
X105096742Y-135792243D01*
X105038688Y-135806502D01*
X104927882Y-135820500D01*
X104821791Y-135838254D01*
X104762931Y-135841339D01*
X104701053Y-135849156D01*
X104591988Y-135850298D01*
X104487102Y-135855795D01*
X104425695Y-135852039D01*
X104360753Y-135852719D01*
X104254877Y-135841591D01*
X104152580Y-135835334D01*
X104089468Y-135824206D01*
X104022299Y-135817146D01*
X103920946Y-135794491D01*
X103822520Y-135777136D01*
X103758609Y-135758204D01*
X103690176Y-135742908D01*
X103594550Y-135709608D01*
X103501180Y-135681950D01*
X103437470Y-135654907D01*
X103368787Y-135630989D01*
X103279955Y-135588046D01*
X103192675Y-135550998D01*
X103130202Y-135515653D01*
X103062392Y-135482872D01*
X102981283Y-135431398D01*
X102900974Y-135385962D01*
X102840822Y-135342259D01*
X102775052Y-135300520D01*
X102702424Y-135241707D01*
X102629835Y-135188968D01*
X102573127Y-135137004D01*
X102510574Y-135086350D01*
X102446994Y-135021425D01*
X102382740Y-134962546D01*
X102330604Y-134902570D01*
X102272466Y-134843202D01*
X102218362Y-134773451D01*
X102162860Y-134709604D01*
X102116393Y-134641994D01*
X102063882Y-134574297D01*
X102019496Y-134501007D01*
X101973036Y-134433407D01*
X101933325Y-134358722D01*
X101887588Y-134283201D01*
X101852996Y-134207646D01*
X101815686Y-134137476D01*
X101783742Y-134056383D01*
X101745920Y-133973771D01*
X101721049Y-133897225D01*
X101692859Y-133825661D01*
X101669638Y-133738999D01*
X101640756Y-133650109D01*
X101625357Y-133573740D01*
X101606115Y-133501927D01*
X101592477Y-133410672D01*
X101573489Y-133316504D01*
X101567187Y-133241458D01*
X101556577Y-133170464D01*
X101553268Y-133075694D01*
X101545012Y-132977379D01*
X101547296Y-132904691D01*
X101544881Y-132835521D01*
X101552521Y-132738445D01*
X101555702Y-132637228D01*
X101565948Y-132567844D01*
X101571177Y-132501398D01*
X101590245Y-132403302D01*
X101605416Y-132300561D01*
X101622896Y-132235326D01*
X101635123Y-132172421D01*
X101665939Y-132074687D01*
X101693497Y-131971838D01*
X101717413Y-131911434D01*
X101735908Y-131852775D01*
X101778621Y-131756840D01*
X101818777Y-131655418D01*
X101848249Y-131600452D01*
X101872222Y-131546609D01*
X101926817Y-131453924D01*
X101979595Y-131355494D01*
X102013708Y-131306411D01*
X102042324Y-131257831D01*
X102108591Y-131169893D01*
X102173819Y-131076041D01*
X102211644Y-131033137D01*
X102244020Y-130990173D01*
X102321558Y-130908465D01*
X102398876Y-130820765D01*
X102439450Y-130784232D01*
X102474720Y-130747065D01*
X102562955Y-130673027D01*
X102651782Y-130593047D01*
X102694184Y-130562913D01*
X102731458Y-130531637D01*
X102829602Y-130466677D01*
X102929185Y-130395907D01*
X102972505Y-130372092D01*
X103010934Y-130346656D01*
X103118057Y-130292074D01*
X103227409Y-130231957D01*
X103270773Y-130214260D01*
X103309557Y-130194499D01*
X103424557Y-130151502D01*
X103542500Y-130103371D01*
X103585117Y-130091472D01*
X103623474Y-130077131D01*
X103745015Y-130046827D01*
X103870282Y-130011852D01*
X103911437Y-130005334D01*
X103948664Y-129996052D01*
X104075331Y-129979376D01*
X104206411Y-129958615D01*
X104245452Y-129956979D01*
X104280952Y-129952305D01*
X104411213Y-129950031D01*
X104546431Y-129944364D01*
X104582816Y-129947036D01*
G37*
G36*
X117291914Y-134675627D02*
G01*
X117367736Y-134685609D01*
X117372834Y-134687721D01*
X117383215Y-134689272D01*
X117432934Y-134712615D01*
X117477445Y-134731052D01*
X117485707Y-134737392D01*
X117500155Y-134744175D01*
X117537296Y-134776977D01*
X117571657Y-134803343D01*
X117581134Y-134815694D01*
X117596985Y-134829693D01*
X117620623Y-134867158D01*
X117643948Y-134897555D01*
X117651870Y-134916681D01*
X117665921Y-134938950D01*
X117676663Y-134976536D01*
X117689391Y-135007264D01*
X117692761Y-135032862D01*
X117701421Y-135063163D01*
X117701214Y-135097069D01*
X117704891Y-135125000D01*
X117700856Y-135155648D01*
X117700632Y-135192347D01*
X117692402Y-135219868D01*
X117689391Y-135242736D01*
X117675620Y-135275983D01*
X117663617Y-135316118D01*
X117650813Y-135335871D01*
X117643948Y-135352446D01*
X117618976Y-135384990D01*
X117593351Y-135424524D01*
X117579448Y-135436504D01*
X117571657Y-135446657D01*
X117535190Y-135474639D01*
X117495484Y-135508852D01*
X117483503Y-135514299D01*
X117477445Y-135518948D01*
X117430636Y-135538337D01*
X117377882Y-135562323D01*
X117370005Y-135563451D01*
X117367736Y-135564391D01*
X117314538Y-135571394D01*
X117282379Y-135576000D01*
X116718973Y-135576000D01*
X116708086Y-135574373D01*
X116632264Y-135564391D01*
X116627166Y-135562279D01*
X116616785Y-135560728D01*
X116567066Y-135537385D01*
X116522555Y-135518948D01*
X116514293Y-135512608D01*
X116499845Y-135505825D01*
X116462704Y-135473023D01*
X116428343Y-135446657D01*
X116418866Y-135434306D01*
X116403015Y-135420307D01*
X116379377Y-135382842D01*
X116356052Y-135352445D01*
X116348130Y-135333319D01*
X116334079Y-135311050D01*
X116323337Y-135273464D01*
X116310609Y-135242736D01*
X116307239Y-135217138D01*
X116298579Y-135186837D01*
X116298786Y-135152931D01*
X116295109Y-135125000D01*
X116299144Y-135094352D01*
X116299368Y-135057653D01*
X116307598Y-135030132D01*
X116310609Y-135007264D01*
X116324380Y-134974017D01*
X116336383Y-134933882D01*
X116349187Y-134914129D01*
X116356052Y-134897554D01*
X116381024Y-134865010D01*
X116406649Y-134825476D01*
X116420552Y-134813496D01*
X116428343Y-134803343D01*
X116464810Y-134775361D01*
X116504516Y-134741148D01*
X116516497Y-134735701D01*
X116522555Y-134731052D01*
X116569364Y-134711663D01*
X116622118Y-134687677D01*
X116629995Y-134686549D01*
X116632264Y-134685609D01*
X116685462Y-134678606D01*
X116717621Y-134674000D01*
X117281027Y-134674000D01*
X117291914Y-134675627D01*
G37*
G36*
X165791914Y-134675627D02*
G01*
X165867736Y-134685609D01*
X165872834Y-134687721D01*
X165883215Y-134689272D01*
X165932934Y-134712615D01*
X165977445Y-134731052D01*
X165985707Y-134737392D01*
X166000155Y-134744175D01*
X166037296Y-134776977D01*
X166071657Y-134803343D01*
X166081134Y-134815694D01*
X166096985Y-134829693D01*
X166120623Y-134867158D01*
X166143948Y-134897555D01*
X166151870Y-134916681D01*
X166165921Y-134938950D01*
X166176663Y-134976536D01*
X166189391Y-135007264D01*
X166192761Y-135032862D01*
X166201421Y-135063163D01*
X166201214Y-135097069D01*
X166204891Y-135125000D01*
X166200856Y-135155648D01*
X166200632Y-135192347D01*
X166192402Y-135219868D01*
X166189391Y-135242736D01*
X166175620Y-135275983D01*
X166163617Y-135316118D01*
X166150813Y-135335871D01*
X166143948Y-135352446D01*
X166118976Y-135384990D01*
X166093351Y-135424524D01*
X166079448Y-135436504D01*
X166071657Y-135446657D01*
X166035190Y-135474639D01*
X165995484Y-135508852D01*
X165983503Y-135514299D01*
X165977445Y-135518948D01*
X165930636Y-135538337D01*
X165877882Y-135562323D01*
X165870005Y-135563451D01*
X165867736Y-135564391D01*
X165814538Y-135571394D01*
X165782379Y-135576000D01*
X165218973Y-135576000D01*
X165208086Y-135574373D01*
X165132264Y-135564391D01*
X165127166Y-135562279D01*
X165116785Y-135560728D01*
X165067066Y-135537385D01*
X165022555Y-135518948D01*
X165014293Y-135512608D01*
X164999845Y-135505825D01*
X164962704Y-135473023D01*
X164928343Y-135446657D01*
X164918866Y-135434306D01*
X164903015Y-135420307D01*
X164879377Y-135382842D01*
X164856052Y-135352445D01*
X164848130Y-135333319D01*
X164834079Y-135311050D01*
X164823337Y-135273464D01*
X164810609Y-135242736D01*
X164807239Y-135217138D01*
X164798579Y-135186837D01*
X164798786Y-135152931D01*
X164795109Y-135125000D01*
X164799144Y-135094352D01*
X164799368Y-135057653D01*
X164807598Y-135030132D01*
X164810609Y-135007264D01*
X164824380Y-134974017D01*
X164836383Y-134933882D01*
X164849187Y-134914129D01*
X164856052Y-134897554D01*
X164881024Y-134865010D01*
X164906649Y-134825476D01*
X164920552Y-134813496D01*
X164928343Y-134803343D01*
X164964810Y-134775361D01*
X165004516Y-134741148D01*
X165016497Y-134735701D01*
X165022555Y-134731052D01*
X165069364Y-134711663D01*
X165122118Y-134687677D01*
X165129995Y-134686549D01*
X165132264Y-134685609D01*
X165185462Y-134678606D01*
X165217621Y-134674000D01*
X165781027Y-134674000D01*
X165791914Y-134675627D01*
G37*
G36*
X142744899Y-134081959D02*
G01*
X142761769Y-134093231D01*
X142773041Y-134110101D01*
X142779448Y-134142312D01*
X142779448Y-135317688D01*
X142776999Y-135330000D01*
X142773041Y-135349899D01*
X142761769Y-135366769D01*
X142744899Y-135378041D01*
X142725000Y-135381999D01*
X142712688Y-135384448D01*
X141337312Y-135384448D01*
X141305101Y-135378041D01*
X141288231Y-135366769D01*
X141276959Y-135349899D01*
X141270552Y-135317688D01*
X141270552Y-134142312D01*
X141276959Y-134110101D01*
X141288231Y-134093231D01*
X141305101Y-134081959D01*
X141337312Y-134075552D01*
X142712688Y-134075552D01*
X142744899Y-134081959D01*
G37*
G36*
X150199902Y-133549283D02*
G01*
X150244637Y-133549595D01*
X150288460Y-133558590D01*
X150338360Y-133563835D01*
X150380132Y-133577408D01*
X150417723Y-133585124D01*
X150464851Y-133604935D01*
X150518488Y-133622363D01*
X150551099Y-133641191D01*
X150580614Y-133653598D01*
X150628301Y-133685763D01*
X150682511Y-133717061D01*
X150705826Y-133738054D01*
X150727101Y-133752404D01*
X150772183Y-133797802D01*
X150823261Y-133843793D01*
X150838003Y-133864083D01*
X150851608Y-133877784D01*
X150890643Y-133936537D01*
X150934586Y-133997019D01*
X150942221Y-134014168D01*
X150949388Y-134024955D01*
X150978865Y-134096472D01*
X151011621Y-134170042D01*
X151014211Y-134182225D01*
X151016724Y-134188323D01*
X151033292Y-134271997D01*
X151050999Y-134355301D01*
X151050999Y-134544699D01*
X151048115Y-134558269D01*
X151048030Y-134564331D01*
X151029342Y-134646585D01*
X151011621Y-134729958D01*
X151009129Y-134735555D01*
X151009078Y-134735780D01*
X150937210Y-134897197D01*
X150937078Y-134897385D01*
X150934586Y-134902981D01*
X150884480Y-134971946D01*
X150835357Y-135041582D01*
X150830585Y-135046126D01*
X150823261Y-135056207D01*
X150763396Y-135110110D01*
X150707396Y-135163438D01*
X150696464Y-135170376D01*
X150682511Y-135182939D01*
X150617764Y-135220321D01*
X150558211Y-135258114D01*
X150540209Y-135265097D01*
X150518488Y-135277637D01*
X150453115Y-135298878D01*
X150393468Y-135322014D01*
X150368200Y-135326469D01*
X150338360Y-135336165D01*
X150276095Y-135342709D01*
X150219460Y-135352695D01*
X150187459Y-135352025D01*
X150150000Y-135355962D01*
X150093902Y-135350066D01*
X150042799Y-135348996D01*
X150005323Y-135340756D01*
X149961640Y-135336165D01*
X149913917Y-135320659D01*
X149870225Y-135311052D01*
X149829230Y-135293142D01*
X149781512Y-135277637D01*
X149743473Y-135255675D01*
X149708310Y-135240313D01*
X149666337Y-135211141D01*
X149617489Y-135182939D01*
X149589504Y-135157741D01*
X149563215Y-135139470D01*
X149523257Y-135098092D01*
X149476739Y-135056207D01*
X149458296Y-135030823D01*
X149440473Y-135012366D01*
X149405821Y-134958597D01*
X149365414Y-134902981D01*
X149355212Y-134880066D01*
X149344754Y-134863839D01*
X149318789Y-134798261D01*
X149288379Y-134729958D01*
X149284476Y-134711596D01*
X149279707Y-134699551D01*
X149265740Y-134623448D01*
X149249001Y-134544699D01*
X149249001Y-134532246D01*
X149247811Y-134525762D01*
X149249001Y-134440535D01*
X149249001Y-134355301D01*
X149250275Y-134349308D01*
X149250278Y-134349077D01*
X149287015Y-134176246D01*
X149287105Y-134176036D01*
X149288379Y-134170042D01*
X149323042Y-134092188D01*
X149356622Y-134013839D01*
X149360348Y-134008397D01*
X149365414Y-133997019D01*
X149412746Y-133931872D01*
X149456452Y-133868041D01*
X149465706Y-133858979D01*
X149476739Y-133843793D01*
X149532297Y-133793769D01*
X149582693Y-133744417D01*
X149598848Y-133733846D01*
X149617489Y-133717061D01*
X149677026Y-133682687D01*
X149730551Y-133647662D01*
X149754340Y-133638050D01*
X149781512Y-133622363D01*
X149841045Y-133603019D01*
X149894376Y-133581472D01*
X149925820Y-133575474D01*
X149961640Y-133563835D01*
X150017744Y-133557938D01*
X150067945Y-133548362D01*
X150106312Y-133548630D01*
X150150000Y-133544038D01*
X150199902Y-133549283D01*
G37*
G36*
X156699902Y-133549283D02*
G01*
X156744637Y-133549595D01*
X156788460Y-133558590D01*
X156838360Y-133563835D01*
X156880132Y-133577408D01*
X156917723Y-133585124D01*
X156964851Y-133604935D01*
X157018488Y-133622363D01*
X157051099Y-133641191D01*
X157080614Y-133653598D01*
X157128301Y-133685763D01*
X157182511Y-133717061D01*
X157205826Y-133738054D01*
X157227101Y-133752404D01*
X157272183Y-133797802D01*
X157323261Y-133843793D01*
X157338003Y-133864083D01*
X157351608Y-133877784D01*
X157390643Y-133936537D01*
X157434586Y-133997019D01*
X157442221Y-134014168D01*
X157449388Y-134024955D01*
X157478865Y-134096472D01*
X157511621Y-134170042D01*
X157514211Y-134182225D01*
X157516724Y-134188323D01*
X157533292Y-134271997D01*
X157550999Y-134355301D01*
X157550999Y-134544699D01*
X157548115Y-134558269D01*
X157548030Y-134564331D01*
X157529342Y-134646585D01*
X157511621Y-134729958D01*
X157509129Y-134735555D01*
X157509078Y-134735780D01*
X157437210Y-134897197D01*
X157437078Y-134897385D01*
X157434586Y-134902981D01*
X157384480Y-134971946D01*
X157335357Y-135041582D01*
X157330585Y-135046126D01*
X157323261Y-135056207D01*
X157263396Y-135110110D01*
X157207396Y-135163438D01*
X157196464Y-135170376D01*
X157182511Y-135182939D01*
X157117764Y-135220321D01*
X157058211Y-135258114D01*
X157040209Y-135265097D01*
X157018488Y-135277637D01*
X156953115Y-135298878D01*
X156893468Y-135322014D01*
X156868200Y-135326469D01*
X156838360Y-135336165D01*
X156776095Y-135342709D01*
X156719460Y-135352695D01*
X156687459Y-135352025D01*
X156650000Y-135355962D01*
X156593902Y-135350066D01*
X156542799Y-135348996D01*
X156505323Y-135340756D01*
X156461640Y-135336165D01*
X156413917Y-135320659D01*
X156370225Y-135311052D01*
X156329230Y-135293142D01*
X156281512Y-135277637D01*
X156243473Y-135255675D01*
X156208310Y-135240313D01*
X156166337Y-135211141D01*
X156117489Y-135182939D01*
X156089504Y-135157741D01*
X156063215Y-135139470D01*
X156023257Y-135098092D01*
X155976739Y-135056207D01*
X155958296Y-135030823D01*
X155940473Y-135012366D01*
X155905821Y-134958597D01*
X155865414Y-134902981D01*
X155855212Y-134880066D01*
X155844754Y-134863839D01*
X155818789Y-134798261D01*
X155788379Y-134729958D01*
X155784476Y-134711596D01*
X155779707Y-134699551D01*
X155765740Y-134623448D01*
X155749001Y-134544699D01*
X155749001Y-134532246D01*
X155747811Y-134525762D01*
X155749001Y-134440535D01*
X155749001Y-134355301D01*
X155750275Y-134349308D01*
X155750278Y-134349077D01*
X155787015Y-134176246D01*
X155787105Y-134176036D01*
X155788379Y-134170042D01*
X155823042Y-134092188D01*
X155856622Y-134013839D01*
X155860348Y-134008397D01*
X155865414Y-133997019D01*
X155912746Y-133931872D01*
X155956452Y-133868041D01*
X155965706Y-133858979D01*
X155976739Y-133843793D01*
X156032297Y-133793769D01*
X156082693Y-133744417D01*
X156098848Y-133733846D01*
X156117489Y-133717061D01*
X156177026Y-133682687D01*
X156230551Y-133647662D01*
X156254340Y-133638050D01*
X156281512Y-133622363D01*
X156341045Y-133603019D01*
X156394376Y-133581472D01*
X156425820Y-133575474D01*
X156461640Y-133563835D01*
X156517744Y-133557938D01*
X156567945Y-133548362D01*
X156606312Y-133548630D01*
X156650000Y-133544038D01*
X156699902Y-133549283D01*
G37*
G36*
X140544899Y-134001959D02*
G01*
X140561769Y-134013231D01*
X140573041Y-134030101D01*
X140579448Y-134062312D01*
X140579448Y-135037688D01*
X140576999Y-135050000D01*
X140573041Y-135069899D01*
X140561769Y-135086769D01*
X140544899Y-135098041D01*
X140525000Y-135101999D01*
X140512688Y-135104448D01*
X139137312Y-135104448D01*
X139105101Y-135098041D01*
X139088231Y-135086769D01*
X139076959Y-135069899D01*
X139070552Y-135037688D01*
X139070552Y-134062312D01*
X139076959Y-134030101D01*
X139088231Y-134013231D01*
X139105101Y-134001959D01*
X139137312Y-133995552D01*
X140512688Y-133995552D01*
X140544899Y-134001959D01*
G37*
G36*
X165791914Y-133425627D02*
G01*
X165867736Y-133435609D01*
X165872834Y-133437721D01*
X165883215Y-133439272D01*
X165932934Y-133462615D01*
X165977445Y-133481052D01*
X165985707Y-133487392D01*
X166000155Y-133494175D01*
X166037296Y-133526977D01*
X166071657Y-133553343D01*
X166081134Y-133565694D01*
X166096985Y-133579693D01*
X166120623Y-133617158D01*
X166143948Y-133647555D01*
X166151870Y-133666681D01*
X166165921Y-133688950D01*
X166176663Y-133726536D01*
X166189391Y-133757264D01*
X166192761Y-133782862D01*
X166201421Y-133813163D01*
X166201214Y-133847069D01*
X166204891Y-133875000D01*
X166200856Y-133905648D01*
X166200632Y-133942347D01*
X166192402Y-133969868D01*
X166189391Y-133992736D01*
X166175620Y-134025983D01*
X166163617Y-134066118D01*
X166150813Y-134085871D01*
X166143948Y-134102446D01*
X166118976Y-134134990D01*
X166093351Y-134174524D01*
X166079448Y-134186504D01*
X166071657Y-134196657D01*
X166035190Y-134224639D01*
X165995484Y-134258852D01*
X165983503Y-134264299D01*
X165977445Y-134268948D01*
X165930636Y-134288337D01*
X165877882Y-134312323D01*
X165870005Y-134313451D01*
X165867736Y-134314391D01*
X165814538Y-134321394D01*
X165782379Y-134326000D01*
X165218973Y-134326000D01*
X165208086Y-134324373D01*
X165132264Y-134314391D01*
X165127166Y-134312279D01*
X165116785Y-134310728D01*
X165067066Y-134287385D01*
X165022555Y-134268948D01*
X165014293Y-134262608D01*
X164999845Y-134255825D01*
X164962704Y-134223023D01*
X164928343Y-134196657D01*
X164918866Y-134184306D01*
X164903015Y-134170307D01*
X164879377Y-134132842D01*
X164856052Y-134102445D01*
X164848130Y-134083319D01*
X164834079Y-134061050D01*
X164823337Y-134023464D01*
X164810609Y-133992736D01*
X164807239Y-133967138D01*
X164798579Y-133936837D01*
X164798786Y-133902931D01*
X164795109Y-133875000D01*
X164799144Y-133844352D01*
X164799368Y-133807653D01*
X164807598Y-133780132D01*
X164810609Y-133757264D01*
X164824380Y-133724017D01*
X164836383Y-133683882D01*
X164849187Y-133664129D01*
X164856052Y-133647554D01*
X164881024Y-133615010D01*
X164906649Y-133575476D01*
X164920552Y-133563496D01*
X164928343Y-133553343D01*
X164964810Y-133525361D01*
X165004516Y-133491148D01*
X165016497Y-133485701D01*
X165022555Y-133481052D01*
X165069364Y-133461663D01*
X165122118Y-133437677D01*
X165129995Y-133436549D01*
X165132264Y-133435609D01*
X165185462Y-133428606D01*
X165217621Y-133424000D01*
X165781027Y-133424000D01*
X165791914Y-133425627D01*
G37*
G36*
X117291914Y-133425627D02*
G01*
X117367736Y-133435609D01*
X117372834Y-133437721D01*
X117383215Y-133439272D01*
X117432934Y-133462615D01*
X117477445Y-133481052D01*
X117485707Y-133487392D01*
X117500155Y-133494175D01*
X117537296Y-133526977D01*
X117571657Y-133553343D01*
X117581134Y-133565694D01*
X117596985Y-133579693D01*
X117620623Y-133617158D01*
X117643948Y-133647555D01*
X117651870Y-133666681D01*
X117665921Y-133688950D01*
X117676663Y-133726536D01*
X117689391Y-133757264D01*
X117692761Y-133782862D01*
X117701421Y-133813163D01*
X117701214Y-133847069D01*
X117704891Y-133875000D01*
X117700856Y-133905648D01*
X117700632Y-133942347D01*
X117692402Y-133969868D01*
X117689391Y-133992736D01*
X117675620Y-134025983D01*
X117663617Y-134066118D01*
X117650813Y-134085871D01*
X117643948Y-134102446D01*
X117618976Y-134134990D01*
X117593351Y-134174524D01*
X117579448Y-134186504D01*
X117571657Y-134196657D01*
X117535190Y-134224639D01*
X117495484Y-134258852D01*
X117483503Y-134264299D01*
X117477445Y-134268948D01*
X117430636Y-134288337D01*
X117377882Y-134312323D01*
X117370005Y-134313451D01*
X117367736Y-134314391D01*
X117314538Y-134321394D01*
X117282379Y-134326000D01*
X116718973Y-134326000D01*
X116708086Y-134324373D01*
X116632264Y-134314391D01*
X116627166Y-134312279D01*
X116616785Y-134310728D01*
X116567066Y-134287385D01*
X116522555Y-134268948D01*
X116514293Y-134262608D01*
X116499845Y-134255825D01*
X116462704Y-134223023D01*
X116428343Y-134196657D01*
X116418866Y-134184306D01*
X116403015Y-134170307D01*
X116379377Y-134132842D01*
X116356052Y-134102445D01*
X116348130Y-134083319D01*
X116334079Y-134061050D01*
X116323337Y-134023464D01*
X116310609Y-133992736D01*
X116307239Y-133967138D01*
X116298579Y-133936837D01*
X116298786Y-133902931D01*
X116295109Y-133875000D01*
X116299144Y-133844352D01*
X116299368Y-133807653D01*
X116307598Y-133780132D01*
X116310609Y-133757264D01*
X116324380Y-133724017D01*
X116336383Y-133683882D01*
X116349187Y-133664129D01*
X116356052Y-133647554D01*
X116381024Y-133615010D01*
X116406649Y-133575476D01*
X116420552Y-133563496D01*
X116428343Y-133553343D01*
X116464810Y-133525361D01*
X116504516Y-133491148D01*
X116516497Y-133485701D01*
X116522555Y-133481052D01*
X116569364Y-133461663D01*
X116622118Y-133437677D01*
X116629995Y-133436549D01*
X116632264Y-133435609D01*
X116685462Y-133428606D01*
X116717621Y-133424000D01*
X117281027Y-133424000D01*
X117291914Y-133425627D01*
G37*
G36*
X117291914Y-132175627D02*
G01*
X117367736Y-132185609D01*
X117372834Y-132187721D01*
X117383215Y-132189272D01*
X117432934Y-132212615D01*
X117477445Y-132231052D01*
X117485707Y-132237392D01*
X117500155Y-132244175D01*
X117537296Y-132276977D01*
X117571657Y-132303343D01*
X117581134Y-132315694D01*
X117596985Y-132329693D01*
X117620623Y-132367158D01*
X117643948Y-132397555D01*
X117651870Y-132416681D01*
X117665921Y-132438950D01*
X117676663Y-132476536D01*
X117689391Y-132507264D01*
X117692761Y-132532862D01*
X117701421Y-132563163D01*
X117701214Y-132597069D01*
X117704891Y-132625000D01*
X117700856Y-132655648D01*
X117700632Y-132692347D01*
X117692402Y-132719868D01*
X117689391Y-132742736D01*
X117675620Y-132775983D01*
X117663617Y-132816118D01*
X117650813Y-132835871D01*
X117643948Y-132852446D01*
X117618976Y-132884990D01*
X117593351Y-132924524D01*
X117579448Y-132936504D01*
X117571657Y-132946657D01*
X117535190Y-132974639D01*
X117495484Y-133008852D01*
X117483503Y-133014299D01*
X117477445Y-133018948D01*
X117430636Y-133038337D01*
X117377882Y-133062323D01*
X117370005Y-133063451D01*
X117367736Y-133064391D01*
X117314538Y-133071394D01*
X117282379Y-133076000D01*
X116718973Y-133076000D01*
X116708086Y-133074373D01*
X116632264Y-133064391D01*
X116627166Y-133062279D01*
X116616785Y-133060728D01*
X116567066Y-133037385D01*
X116522555Y-133018948D01*
X116514293Y-133012608D01*
X116499845Y-133005825D01*
X116462704Y-132973023D01*
X116428343Y-132946657D01*
X116418866Y-132934306D01*
X116403015Y-132920307D01*
X116379377Y-132882842D01*
X116356052Y-132852445D01*
X116348130Y-132833319D01*
X116334079Y-132811050D01*
X116323337Y-132773464D01*
X116310609Y-132742736D01*
X116307239Y-132717138D01*
X116298579Y-132686837D01*
X116298786Y-132652931D01*
X116295109Y-132625000D01*
X116299144Y-132594352D01*
X116299368Y-132557653D01*
X116307598Y-132530132D01*
X116310609Y-132507264D01*
X116324380Y-132474017D01*
X116336383Y-132433882D01*
X116349187Y-132414129D01*
X116356052Y-132397554D01*
X116381024Y-132365010D01*
X116406649Y-132325476D01*
X116420552Y-132313496D01*
X116428343Y-132303343D01*
X116464810Y-132275361D01*
X116504516Y-132241148D01*
X116516497Y-132235701D01*
X116522555Y-132231052D01*
X116569364Y-132211663D01*
X116622118Y-132187677D01*
X116629995Y-132186549D01*
X116632264Y-132185609D01*
X116685462Y-132178606D01*
X116717621Y-132174000D01*
X117281027Y-132174000D01*
X117291914Y-132175627D01*
G37*
G36*
X165791914Y-132175627D02*
G01*
X165867736Y-132185609D01*
X165872834Y-132187721D01*
X165883215Y-132189272D01*
X165932934Y-132212615D01*
X165977445Y-132231052D01*
X165985707Y-132237392D01*
X166000155Y-132244175D01*
X166037296Y-132276977D01*
X166071657Y-132303343D01*
X166081134Y-132315694D01*
X166096985Y-132329693D01*
X166120623Y-132367158D01*
X166143948Y-132397555D01*
X166151870Y-132416681D01*
X166165921Y-132438950D01*
X166176663Y-132476536D01*
X166189391Y-132507264D01*
X166192761Y-132532862D01*
X166201421Y-132563163D01*
X166201214Y-132597069D01*
X166204891Y-132625000D01*
X166200856Y-132655648D01*
X166200632Y-132692347D01*
X166192402Y-132719868D01*
X166189391Y-132742736D01*
X166175620Y-132775983D01*
X166163617Y-132816118D01*
X166150813Y-132835871D01*
X166143948Y-132852446D01*
X166118976Y-132884990D01*
X166093351Y-132924524D01*
X166079448Y-132936504D01*
X166071657Y-132946657D01*
X166035190Y-132974639D01*
X165995484Y-133008852D01*
X165983503Y-133014299D01*
X165977445Y-133018948D01*
X165930636Y-133038337D01*
X165877882Y-133062323D01*
X165870005Y-133063451D01*
X165867736Y-133064391D01*
X165814538Y-133071394D01*
X165782379Y-133076000D01*
X165218973Y-133076000D01*
X165208086Y-133074373D01*
X165132264Y-133064391D01*
X165127166Y-133062279D01*
X165116785Y-133060728D01*
X165067066Y-133037385D01*
X165022555Y-133018948D01*
X165014293Y-133012608D01*
X164999845Y-133005825D01*
X164962704Y-132973023D01*
X164928343Y-132946657D01*
X164918866Y-132934306D01*
X164903015Y-132920307D01*
X164879377Y-132882842D01*
X164856052Y-132852445D01*
X164848130Y-132833319D01*
X164834079Y-132811050D01*
X164823337Y-132773464D01*
X164810609Y-132742736D01*
X164807239Y-132717138D01*
X164798579Y-132686837D01*
X164798786Y-132652931D01*
X164795109Y-132625000D01*
X164799144Y-132594352D01*
X164799368Y-132557653D01*
X164807598Y-132530132D01*
X164810609Y-132507264D01*
X164824380Y-132474017D01*
X164836383Y-132433882D01*
X164849187Y-132414129D01*
X164856052Y-132397554D01*
X164881024Y-132365010D01*
X164906649Y-132325476D01*
X164920552Y-132313496D01*
X164928343Y-132303343D01*
X164964810Y-132275361D01*
X165004516Y-132241148D01*
X165016497Y-132235701D01*
X165022555Y-132231052D01*
X165069364Y-132211663D01*
X165122118Y-132187677D01*
X165129995Y-132186549D01*
X165132264Y-132185609D01*
X165185462Y-132178606D01*
X165217621Y-132174000D01*
X165781027Y-132174000D01*
X165791914Y-132175627D01*
G37*
G36*
X165791914Y-130925627D02*
G01*
X165867736Y-130935609D01*
X165872834Y-130937721D01*
X165883215Y-130939272D01*
X165932934Y-130962615D01*
X165977445Y-130981052D01*
X165985707Y-130987392D01*
X166000155Y-130994175D01*
X166037296Y-131026977D01*
X166071657Y-131053343D01*
X166081134Y-131065694D01*
X166096985Y-131079693D01*
X166120623Y-131117158D01*
X166143948Y-131147555D01*
X166151870Y-131166681D01*
X166165921Y-131188950D01*
X166176663Y-131226536D01*
X166189391Y-131257264D01*
X166192761Y-131282862D01*
X166201421Y-131313163D01*
X166201214Y-131347069D01*
X166204891Y-131375000D01*
X166200856Y-131405648D01*
X166200632Y-131442347D01*
X166192402Y-131469868D01*
X166189391Y-131492736D01*
X166175620Y-131525983D01*
X166163617Y-131566118D01*
X166150813Y-131585871D01*
X166143948Y-131602446D01*
X166118976Y-131634990D01*
X166093351Y-131674524D01*
X166079448Y-131686504D01*
X166071657Y-131696657D01*
X166035190Y-131724639D01*
X165995484Y-131758852D01*
X165983503Y-131764299D01*
X165977445Y-131768948D01*
X165930636Y-131788337D01*
X165877882Y-131812323D01*
X165870005Y-131813451D01*
X165867736Y-131814391D01*
X165814538Y-131821394D01*
X165782379Y-131826000D01*
X165218973Y-131826000D01*
X165208086Y-131824373D01*
X165132264Y-131814391D01*
X165127166Y-131812279D01*
X165116785Y-131810728D01*
X165067066Y-131787385D01*
X165022555Y-131768948D01*
X165014293Y-131762608D01*
X164999845Y-131755825D01*
X164962704Y-131723023D01*
X164928343Y-131696657D01*
X164918866Y-131684306D01*
X164903015Y-131670307D01*
X164879377Y-131632842D01*
X164856052Y-131602445D01*
X164848130Y-131583319D01*
X164834079Y-131561050D01*
X164823337Y-131523464D01*
X164810609Y-131492736D01*
X164807239Y-131467138D01*
X164798579Y-131436837D01*
X164798786Y-131402931D01*
X164795109Y-131375000D01*
X164799144Y-131344352D01*
X164799368Y-131307653D01*
X164807598Y-131280132D01*
X164810609Y-131257264D01*
X164824380Y-131224017D01*
X164836383Y-131183882D01*
X164849187Y-131164129D01*
X164856052Y-131147554D01*
X164881024Y-131115010D01*
X164906649Y-131075476D01*
X164920552Y-131063496D01*
X164928343Y-131053343D01*
X164964810Y-131025361D01*
X165004516Y-130991148D01*
X165016497Y-130985701D01*
X165022555Y-130981052D01*
X165069364Y-130961663D01*
X165122118Y-130937677D01*
X165129995Y-130936549D01*
X165132264Y-130935609D01*
X165185462Y-130928606D01*
X165217621Y-130924000D01*
X165781027Y-130924000D01*
X165791914Y-130925627D01*
G37*
G36*
X117291914Y-130925627D02*
G01*
X117367736Y-130935609D01*
X117372834Y-130937721D01*
X117383215Y-130939272D01*
X117432934Y-130962615D01*
X117477445Y-130981052D01*
X117485707Y-130987392D01*
X117500155Y-130994175D01*
X117537296Y-131026977D01*
X117571657Y-131053343D01*
X117581134Y-131065694D01*
X117596985Y-131079693D01*
X117620623Y-131117158D01*
X117643948Y-131147555D01*
X117651870Y-131166681D01*
X117665921Y-131188950D01*
X117676663Y-131226536D01*
X117689391Y-131257264D01*
X117692761Y-131282862D01*
X117701421Y-131313163D01*
X117701214Y-131347069D01*
X117704891Y-131375000D01*
X117700856Y-131405648D01*
X117700632Y-131442347D01*
X117692402Y-131469868D01*
X117689391Y-131492736D01*
X117675620Y-131525983D01*
X117663617Y-131566118D01*
X117650813Y-131585871D01*
X117643948Y-131602446D01*
X117618976Y-131634990D01*
X117593351Y-131674524D01*
X117579448Y-131686504D01*
X117571657Y-131696657D01*
X117535190Y-131724639D01*
X117495484Y-131758852D01*
X117483503Y-131764299D01*
X117477445Y-131768948D01*
X117430636Y-131788337D01*
X117377882Y-131812323D01*
X117370005Y-131813451D01*
X117367736Y-131814391D01*
X117314538Y-131821394D01*
X117282379Y-131826000D01*
X116718973Y-131826000D01*
X116708086Y-131824373D01*
X116632264Y-131814391D01*
X116627166Y-131812279D01*
X116616785Y-131810728D01*
X116567066Y-131787385D01*
X116522555Y-131768948D01*
X116514293Y-131762608D01*
X116499845Y-131755825D01*
X116462704Y-131723023D01*
X116428343Y-131696657D01*
X116418866Y-131684306D01*
X116403015Y-131670307D01*
X116379377Y-131632842D01*
X116356052Y-131602445D01*
X116348130Y-131583319D01*
X116334079Y-131561050D01*
X116323337Y-131523464D01*
X116310609Y-131492736D01*
X116307239Y-131467138D01*
X116298579Y-131436837D01*
X116298786Y-131402931D01*
X116295109Y-131375000D01*
X116299144Y-131344352D01*
X116299368Y-131307653D01*
X116307598Y-131280132D01*
X116310609Y-131257264D01*
X116324380Y-131224017D01*
X116336383Y-131183882D01*
X116349187Y-131164129D01*
X116356052Y-131147554D01*
X116381024Y-131115010D01*
X116406649Y-131075476D01*
X116420552Y-131063496D01*
X116428343Y-131053343D01*
X116464810Y-131025361D01*
X116504516Y-130991148D01*
X116516497Y-130985701D01*
X116522555Y-130981052D01*
X116569364Y-130961663D01*
X116622118Y-130937677D01*
X116629995Y-130936549D01*
X116632264Y-130935609D01*
X116685462Y-130928606D01*
X116717621Y-130924000D01*
X117281027Y-130924000D01*
X117291914Y-130925627D01*
G37*
G36*
X156699902Y-129049283D02*
G01*
X156744637Y-129049595D01*
X156788460Y-129058590D01*
X156838360Y-129063835D01*
X156880132Y-129077408D01*
X156917723Y-129085124D01*
X156964851Y-129104935D01*
X157018488Y-129122363D01*
X157051099Y-129141191D01*
X157080614Y-129153598D01*
X157128301Y-129185763D01*
X157182511Y-129217061D01*
X157205826Y-129238054D01*
X157227101Y-129252404D01*
X157272183Y-129297802D01*
X157323261Y-129343793D01*
X157338003Y-129364083D01*
X157351608Y-129377784D01*
X157390643Y-129436537D01*
X157434586Y-129497019D01*
X157442221Y-129514168D01*
X157449388Y-129524955D01*
X157478865Y-129596472D01*
X157511621Y-129670042D01*
X157514211Y-129682225D01*
X157516724Y-129688323D01*
X157533292Y-129771997D01*
X157550999Y-129855301D01*
X157550999Y-130044699D01*
X157548115Y-130058269D01*
X157548030Y-130064331D01*
X157529342Y-130146585D01*
X157511621Y-130229958D01*
X157509129Y-130235555D01*
X157509078Y-130235780D01*
X157437210Y-130397197D01*
X157437078Y-130397385D01*
X157434586Y-130402981D01*
X157384480Y-130471946D01*
X157335357Y-130541582D01*
X157330585Y-130546126D01*
X157323261Y-130556207D01*
X157263396Y-130610110D01*
X157207396Y-130663438D01*
X157196464Y-130670376D01*
X157182511Y-130682939D01*
X157117764Y-130720321D01*
X157058211Y-130758114D01*
X157040209Y-130765097D01*
X157018488Y-130777637D01*
X156953115Y-130798878D01*
X156893468Y-130822014D01*
X156868200Y-130826469D01*
X156838360Y-130836165D01*
X156776095Y-130842709D01*
X156719460Y-130852695D01*
X156687459Y-130852025D01*
X156650000Y-130855962D01*
X156593902Y-130850066D01*
X156542799Y-130848996D01*
X156505323Y-130840756D01*
X156461640Y-130836165D01*
X156413917Y-130820659D01*
X156370225Y-130811052D01*
X156329230Y-130793142D01*
X156281512Y-130777637D01*
X156243473Y-130755675D01*
X156208310Y-130740313D01*
X156166337Y-130711141D01*
X156117489Y-130682939D01*
X156089504Y-130657741D01*
X156063215Y-130639470D01*
X156023257Y-130598092D01*
X155976739Y-130556207D01*
X155958296Y-130530823D01*
X155940473Y-130512366D01*
X155905821Y-130458597D01*
X155865414Y-130402981D01*
X155855212Y-130380066D01*
X155844754Y-130363839D01*
X155818789Y-130298261D01*
X155788379Y-130229958D01*
X155784476Y-130211596D01*
X155779707Y-130199551D01*
X155765740Y-130123448D01*
X155749001Y-130044699D01*
X155749001Y-130032246D01*
X155747811Y-130025762D01*
X155749001Y-129940535D01*
X155749001Y-129855301D01*
X155750275Y-129849308D01*
X155750278Y-129849077D01*
X155787015Y-129676246D01*
X155787105Y-129676036D01*
X155788379Y-129670042D01*
X155823042Y-129592188D01*
X155856622Y-129513839D01*
X155860348Y-129508397D01*
X155865414Y-129497019D01*
X155912746Y-129431872D01*
X155956452Y-129368041D01*
X155965706Y-129358979D01*
X155976739Y-129343793D01*
X156032297Y-129293769D01*
X156082693Y-129244417D01*
X156098848Y-129233846D01*
X156117489Y-129217061D01*
X156177026Y-129182687D01*
X156230551Y-129147662D01*
X156254340Y-129138050D01*
X156281512Y-129122363D01*
X156341045Y-129103019D01*
X156394376Y-129081472D01*
X156425820Y-129075474D01*
X156461640Y-129063835D01*
X156517744Y-129057938D01*
X156567945Y-129048362D01*
X156606312Y-129048630D01*
X156650000Y-129044038D01*
X156699902Y-129049283D01*
G37*
G36*
X150199902Y-129049283D02*
G01*
X150244637Y-129049595D01*
X150288460Y-129058590D01*
X150338360Y-129063835D01*
X150380132Y-129077408D01*
X150417723Y-129085124D01*
X150464851Y-129104935D01*
X150518488Y-129122363D01*
X150551099Y-129141191D01*
X150580614Y-129153598D01*
X150628301Y-129185763D01*
X150682511Y-129217061D01*
X150705826Y-129238054D01*
X150727101Y-129252404D01*
X150772183Y-129297802D01*
X150823261Y-129343793D01*
X150838003Y-129364083D01*
X150851608Y-129377784D01*
X150890643Y-129436537D01*
X150934586Y-129497019D01*
X150942221Y-129514168D01*
X150949388Y-129524955D01*
X150978865Y-129596472D01*
X151011621Y-129670042D01*
X151014211Y-129682225D01*
X151016724Y-129688323D01*
X151033292Y-129771997D01*
X151050999Y-129855301D01*
X151050999Y-130044699D01*
X151048115Y-130058269D01*
X151048030Y-130064331D01*
X151029342Y-130146585D01*
X151011621Y-130229958D01*
X151009129Y-130235555D01*
X151009078Y-130235780D01*
X150937210Y-130397197D01*
X150937078Y-130397385D01*
X150934586Y-130402981D01*
X150884480Y-130471946D01*
X150835357Y-130541582D01*
X150830585Y-130546126D01*
X150823261Y-130556207D01*
X150763396Y-130610110D01*
X150707396Y-130663438D01*
X150696464Y-130670376D01*
X150682511Y-130682939D01*
X150617764Y-130720321D01*
X150558211Y-130758114D01*
X150540209Y-130765097D01*
X150518488Y-130777637D01*
X150453115Y-130798878D01*
X150393468Y-130822014D01*
X150368200Y-130826469D01*
X150338360Y-130836165D01*
X150276095Y-130842709D01*
X150219460Y-130852695D01*
X150187459Y-130852025D01*
X150150000Y-130855962D01*
X150093902Y-130850066D01*
X150042799Y-130848996D01*
X150005323Y-130840756D01*
X149961640Y-130836165D01*
X149913917Y-130820659D01*
X149870225Y-130811052D01*
X149829230Y-130793142D01*
X149781512Y-130777637D01*
X149743473Y-130755675D01*
X149708310Y-130740313D01*
X149666337Y-130711141D01*
X149617489Y-130682939D01*
X149589504Y-130657741D01*
X149563215Y-130639470D01*
X149523257Y-130598092D01*
X149476739Y-130556207D01*
X149458296Y-130530823D01*
X149440473Y-130512366D01*
X149405821Y-130458597D01*
X149365414Y-130402981D01*
X149355212Y-130380066D01*
X149344754Y-130363839D01*
X149318789Y-130298261D01*
X149288379Y-130229958D01*
X149284476Y-130211596D01*
X149279707Y-130199551D01*
X149265740Y-130123448D01*
X149249001Y-130044699D01*
X149249001Y-130032246D01*
X149247811Y-130025762D01*
X149249001Y-129940535D01*
X149249001Y-129855301D01*
X149250275Y-129849308D01*
X149250278Y-129849077D01*
X149287015Y-129676246D01*
X149287105Y-129676036D01*
X149288379Y-129670042D01*
X149323042Y-129592188D01*
X149356622Y-129513839D01*
X149360348Y-129508397D01*
X149365414Y-129497019D01*
X149412746Y-129431872D01*
X149456452Y-129368041D01*
X149465706Y-129358979D01*
X149476739Y-129343793D01*
X149532297Y-129293769D01*
X149582693Y-129244417D01*
X149598848Y-129233846D01*
X149617489Y-129217061D01*
X149677026Y-129182687D01*
X149730551Y-129147662D01*
X149754340Y-129138050D01*
X149781512Y-129122363D01*
X149841045Y-129103019D01*
X149894376Y-129081472D01*
X149925820Y-129075474D01*
X149961640Y-129063835D01*
X150017744Y-129057938D01*
X150067945Y-129048362D01*
X150106312Y-129048630D01*
X150150000Y-129044038D01*
X150199902Y-129049283D01*
G37*
G36*
X117291914Y-129675627D02*
G01*
X117367736Y-129685609D01*
X117372834Y-129687721D01*
X117383215Y-129689272D01*
X117432934Y-129712615D01*
X117477445Y-129731052D01*
X117485707Y-129737392D01*
X117500155Y-129744175D01*
X117537296Y-129776977D01*
X117571657Y-129803343D01*
X117581134Y-129815694D01*
X117596985Y-129829693D01*
X117620623Y-129867158D01*
X117643948Y-129897555D01*
X117651870Y-129916681D01*
X117665921Y-129938950D01*
X117676663Y-129976536D01*
X117689391Y-130007264D01*
X117692761Y-130032862D01*
X117701421Y-130063163D01*
X117701214Y-130097069D01*
X117704891Y-130125000D01*
X117700856Y-130155648D01*
X117700632Y-130192347D01*
X117692402Y-130219868D01*
X117689391Y-130242736D01*
X117675620Y-130275983D01*
X117663617Y-130316118D01*
X117650813Y-130335871D01*
X117643948Y-130352446D01*
X117618976Y-130384990D01*
X117593351Y-130424524D01*
X117579448Y-130436504D01*
X117571657Y-130446657D01*
X117535190Y-130474639D01*
X117495484Y-130508852D01*
X117483503Y-130514299D01*
X117477445Y-130518948D01*
X117430636Y-130538337D01*
X117377882Y-130562323D01*
X117370005Y-130563451D01*
X117367736Y-130564391D01*
X117314538Y-130571394D01*
X117282379Y-130576000D01*
X116718973Y-130576000D01*
X116708086Y-130574373D01*
X116632264Y-130564391D01*
X116627166Y-130562279D01*
X116616785Y-130560728D01*
X116567066Y-130537385D01*
X116522555Y-130518948D01*
X116514293Y-130512608D01*
X116499845Y-130505825D01*
X116462704Y-130473023D01*
X116428343Y-130446657D01*
X116418866Y-130434306D01*
X116403015Y-130420307D01*
X116379377Y-130382842D01*
X116356052Y-130352445D01*
X116348130Y-130333319D01*
X116334079Y-130311050D01*
X116323337Y-130273464D01*
X116310609Y-130242736D01*
X116307239Y-130217138D01*
X116298579Y-130186837D01*
X116298786Y-130152931D01*
X116295109Y-130125000D01*
X116299144Y-130094352D01*
X116299368Y-130057653D01*
X116307598Y-130030132D01*
X116310609Y-130007264D01*
X116324380Y-129974017D01*
X116336383Y-129933882D01*
X116349187Y-129914129D01*
X116356052Y-129897554D01*
X116381024Y-129865010D01*
X116406649Y-129825476D01*
X116420552Y-129813496D01*
X116428343Y-129803343D01*
X116464810Y-129775361D01*
X116504516Y-129741148D01*
X116516497Y-129735701D01*
X116522555Y-129731052D01*
X116569364Y-129711663D01*
X116622118Y-129687677D01*
X116629995Y-129686549D01*
X116632264Y-129685609D01*
X116685462Y-129678606D01*
X116717621Y-129674000D01*
X117281027Y-129674000D01*
X117291914Y-129675627D01*
G37*
G36*
X165791914Y-129675627D02*
G01*
X165867736Y-129685609D01*
X165872834Y-129687721D01*
X165883215Y-129689272D01*
X165932934Y-129712615D01*
X165977445Y-129731052D01*
X165985707Y-129737392D01*
X166000155Y-129744175D01*
X166037296Y-129776977D01*
X166071657Y-129803343D01*
X166081134Y-129815694D01*
X166096985Y-129829693D01*
X166120623Y-129867158D01*
X166143948Y-129897555D01*
X166151870Y-129916681D01*
X166165921Y-129938950D01*
X166176663Y-129976536D01*
X166189391Y-130007264D01*
X166192761Y-130032862D01*
X166201421Y-130063163D01*
X166201214Y-130097069D01*
X166204891Y-130125000D01*
X166200856Y-130155648D01*
X166200632Y-130192347D01*
X166192402Y-130219868D01*
X166189391Y-130242736D01*
X166175620Y-130275983D01*
X166163617Y-130316118D01*
X166150813Y-130335871D01*
X166143948Y-130352446D01*
X166118976Y-130384990D01*
X166093351Y-130424524D01*
X166079448Y-130436504D01*
X166071657Y-130446657D01*
X166035190Y-130474639D01*
X165995484Y-130508852D01*
X165983503Y-130514299D01*
X165977445Y-130518948D01*
X165930636Y-130538337D01*
X165877882Y-130562323D01*
X165870005Y-130563451D01*
X165867736Y-130564391D01*
X165814538Y-130571394D01*
X165782379Y-130576000D01*
X165218973Y-130576000D01*
X165208086Y-130574373D01*
X165132264Y-130564391D01*
X165127166Y-130562279D01*
X165116785Y-130560728D01*
X165067066Y-130537385D01*
X165022555Y-130518948D01*
X165014293Y-130512608D01*
X164999845Y-130505825D01*
X164962704Y-130473023D01*
X164928343Y-130446657D01*
X164918866Y-130434306D01*
X164903015Y-130420307D01*
X164879377Y-130382842D01*
X164856052Y-130352445D01*
X164848130Y-130333319D01*
X164834079Y-130311050D01*
X164823337Y-130273464D01*
X164810609Y-130242736D01*
X164807239Y-130217138D01*
X164798579Y-130186837D01*
X164798786Y-130152931D01*
X164795109Y-130125000D01*
X164799144Y-130094352D01*
X164799368Y-130057653D01*
X164807598Y-130030132D01*
X164810609Y-130007264D01*
X164824380Y-129974017D01*
X164836383Y-129933882D01*
X164849187Y-129914129D01*
X164856052Y-129897554D01*
X164881024Y-129865010D01*
X164906649Y-129825476D01*
X164920552Y-129813496D01*
X164928343Y-129803343D01*
X164964810Y-129775361D01*
X165004516Y-129741148D01*
X165016497Y-129735701D01*
X165022555Y-129731052D01*
X165069364Y-129711663D01*
X165122118Y-129687677D01*
X165129995Y-129686549D01*
X165132264Y-129685609D01*
X165185462Y-129678606D01*
X165217621Y-129674000D01*
X165781027Y-129674000D01*
X165791914Y-129675627D01*
G37*
G36*
X113486756Y-128211764D02*
G01*
X113498227Y-128217288D01*
X113506287Y-128218795D01*
X113523547Y-128229482D01*
X113568638Y-128251197D01*
X113588738Y-128269847D01*
X113601964Y-128278036D01*
X113612265Y-128291676D01*
X113635264Y-128313016D01*
X113657614Y-128351727D01*
X113669781Y-128367839D01*
X113671751Y-128376213D01*
X113679506Y-128389646D01*
X113698419Y-128489601D01*
X113701883Y-128504330D01*
X113701883Y-128507909D01*
X113703194Y-128514838D01*
X113703194Y-129137517D01*
X113688236Y-129236756D01*
X113682712Y-129248227D01*
X113681205Y-129256287D01*
X113670518Y-129273547D01*
X113648803Y-129318638D01*
X113630153Y-129338738D01*
X113621964Y-129351964D01*
X113608324Y-129362265D01*
X113586984Y-129385264D01*
X113548273Y-129407614D01*
X113532161Y-129419781D01*
X113523787Y-129421751D01*
X113510354Y-129429506D01*
X113410399Y-129448419D01*
X113395670Y-129451883D01*
X113392091Y-129451883D01*
X113385162Y-129453194D01*
X112512483Y-129453194D01*
X112413244Y-129438236D01*
X112401773Y-129432712D01*
X112393713Y-129431205D01*
X112376453Y-129420518D01*
X112331362Y-129398803D01*
X112311262Y-129380153D01*
X112298036Y-129371964D01*
X112287735Y-129358324D01*
X112264736Y-129336984D01*
X112242386Y-129298273D01*
X112230219Y-129282161D01*
X112228249Y-129273787D01*
X112220494Y-129260354D01*
X112201581Y-129160399D01*
X112198117Y-129145670D01*
X112198117Y-129142091D01*
X112196806Y-129135162D01*
X112196806Y-128512483D01*
X112211764Y-128413244D01*
X112217288Y-128401773D01*
X112218795Y-128393713D01*
X112229482Y-128376453D01*
X112251197Y-128331362D01*
X112269847Y-128311262D01*
X112278036Y-128298036D01*
X112291676Y-128287735D01*
X112313016Y-128264736D01*
X112351727Y-128242386D01*
X112367839Y-128230219D01*
X112376213Y-128228249D01*
X112389646Y-128220494D01*
X112489601Y-128201581D01*
X112504330Y-128198117D01*
X112507909Y-128198117D01*
X112514838Y-128196806D01*
X113387517Y-128196806D01*
X113486756Y-128211764D01*
G37*
G36*
X117291914Y-128425627D02*
G01*
X117367736Y-128435609D01*
X117372834Y-128437721D01*
X117383215Y-128439272D01*
X117432934Y-128462615D01*
X117477445Y-128481052D01*
X117485707Y-128487392D01*
X117500155Y-128494175D01*
X117537296Y-128526977D01*
X117571657Y-128553343D01*
X117581134Y-128565694D01*
X117596985Y-128579693D01*
X117620623Y-128617158D01*
X117643948Y-128647555D01*
X117651870Y-128666681D01*
X117665921Y-128688950D01*
X117676663Y-128726536D01*
X117689391Y-128757264D01*
X117692761Y-128782862D01*
X117701421Y-128813163D01*
X117701214Y-128847069D01*
X117704891Y-128875000D01*
X117700856Y-128905648D01*
X117700632Y-128942347D01*
X117692402Y-128969868D01*
X117689391Y-128992736D01*
X117675620Y-129025983D01*
X117663617Y-129066118D01*
X117650813Y-129085871D01*
X117643948Y-129102446D01*
X117618976Y-129134990D01*
X117593351Y-129174524D01*
X117579448Y-129186504D01*
X117571657Y-129196657D01*
X117535190Y-129224639D01*
X117495484Y-129258852D01*
X117483503Y-129264299D01*
X117477445Y-129268948D01*
X117430636Y-129288337D01*
X117377882Y-129312323D01*
X117370005Y-129313451D01*
X117367736Y-129314391D01*
X117314538Y-129321394D01*
X117282379Y-129326000D01*
X116718973Y-129326000D01*
X116708086Y-129324373D01*
X116632264Y-129314391D01*
X116627166Y-129312279D01*
X116616785Y-129310728D01*
X116567066Y-129287385D01*
X116522555Y-129268948D01*
X116514293Y-129262608D01*
X116499845Y-129255825D01*
X116462704Y-129223023D01*
X116428343Y-129196657D01*
X116418866Y-129184306D01*
X116403015Y-129170307D01*
X116379377Y-129132842D01*
X116356052Y-129102445D01*
X116348130Y-129083319D01*
X116334079Y-129061050D01*
X116323337Y-129023464D01*
X116310609Y-128992736D01*
X116307239Y-128967138D01*
X116298579Y-128936837D01*
X116298786Y-128902931D01*
X116295109Y-128875000D01*
X116299144Y-128844352D01*
X116299368Y-128807653D01*
X116307598Y-128780132D01*
X116310609Y-128757264D01*
X116324380Y-128724017D01*
X116336383Y-128683882D01*
X116349187Y-128664129D01*
X116356052Y-128647554D01*
X116381024Y-128615010D01*
X116406649Y-128575476D01*
X116420552Y-128563496D01*
X116428343Y-128553343D01*
X116464810Y-128525361D01*
X116504516Y-128491148D01*
X116516497Y-128485701D01*
X116522555Y-128481052D01*
X116569364Y-128461663D01*
X116622118Y-128437677D01*
X116629995Y-128436549D01*
X116632264Y-128435609D01*
X116685462Y-128428606D01*
X116717621Y-128424000D01*
X117281027Y-128424000D01*
X117291914Y-128425627D01*
G37*
G36*
X165791914Y-128425627D02*
G01*
X165867736Y-128435609D01*
X165872834Y-128437721D01*
X165883215Y-128439272D01*
X165932934Y-128462615D01*
X165977445Y-128481052D01*
X165985707Y-128487392D01*
X166000155Y-128494175D01*
X166037296Y-128526977D01*
X166071657Y-128553343D01*
X166081134Y-128565694D01*
X166096985Y-128579693D01*
X166120623Y-128617158D01*
X166143948Y-128647555D01*
X166151870Y-128666681D01*
X166165921Y-128688950D01*
X166176663Y-128726536D01*
X166189391Y-128757264D01*
X166192761Y-128782862D01*
X166201421Y-128813163D01*
X166201214Y-128847069D01*
X166204891Y-128875000D01*
X166200856Y-128905648D01*
X166200632Y-128942347D01*
X166192402Y-128969868D01*
X166189391Y-128992736D01*
X166175620Y-129025983D01*
X166163617Y-129066118D01*
X166150813Y-129085871D01*
X166143948Y-129102446D01*
X166118976Y-129134990D01*
X166093351Y-129174524D01*
X166079448Y-129186504D01*
X166071657Y-129196657D01*
X166035190Y-129224639D01*
X165995484Y-129258852D01*
X165983503Y-129264299D01*
X165977445Y-129268948D01*
X165930636Y-129288337D01*
X165877882Y-129312323D01*
X165870005Y-129313451D01*
X165867736Y-129314391D01*
X165814538Y-129321394D01*
X165782379Y-129326000D01*
X165218973Y-129326000D01*
X165208086Y-129324373D01*
X165132264Y-129314391D01*
X165127166Y-129312279D01*
X165116785Y-129310728D01*
X165067066Y-129287385D01*
X165022555Y-129268948D01*
X165014293Y-129262608D01*
X164999845Y-129255825D01*
X164962704Y-129223023D01*
X164928343Y-129196657D01*
X164918866Y-129184306D01*
X164903015Y-129170307D01*
X164879377Y-129132842D01*
X164856052Y-129102445D01*
X164848130Y-129083319D01*
X164834079Y-129061050D01*
X164823337Y-129023464D01*
X164810609Y-128992736D01*
X164807239Y-128967138D01*
X164798579Y-128936837D01*
X164798786Y-128902931D01*
X164795109Y-128875000D01*
X164799144Y-128844352D01*
X164799368Y-128807653D01*
X164807598Y-128780132D01*
X164810609Y-128757264D01*
X164824380Y-128724017D01*
X164836383Y-128683882D01*
X164849187Y-128664129D01*
X164856052Y-128647554D01*
X164881024Y-128615010D01*
X164906649Y-128575476D01*
X164920552Y-128563496D01*
X164928343Y-128553343D01*
X164964810Y-128525361D01*
X165004516Y-128491148D01*
X165016497Y-128485701D01*
X165022555Y-128481052D01*
X165069364Y-128461663D01*
X165122118Y-128437677D01*
X165129995Y-128436549D01*
X165132264Y-128435609D01*
X165185462Y-128428606D01*
X165217621Y-128424000D01*
X165781027Y-128424000D01*
X165791914Y-128425627D01*
G37*
G36*
X170086756Y-127161764D02*
G01*
X170098227Y-127167288D01*
X170106287Y-127168795D01*
X170123547Y-127179482D01*
X170168638Y-127201197D01*
X170188738Y-127219847D01*
X170201964Y-127228036D01*
X170212265Y-127241676D01*
X170235264Y-127263016D01*
X170257614Y-127301727D01*
X170269781Y-127317839D01*
X170271751Y-127326213D01*
X170279506Y-127339646D01*
X170298419Y-127439601D01*
X170301883Y-127454330D01*
X170301883Y-127457909D01*
X170303194Y-127464838D01*
X170303194Y-128087517D01*
X170288236Y-128186756D01*
X170282712Y-128198227D01*
X170281205Y-128206287D01*
X170270518Y-128223547D01*
X170248803Y-128268638D01*
X170230153Y-128288738D01*
X170221964Y-128301964D01*
X170208324Y-128312265D01*
X170186984Y-128335264D01*
X170148273Y-128357614D01*
X170132161Y-128369781D01*
X170123787Y-128371751D01*
X170110354Y-128379506D01*
X170010399Y-128398419D01*
X169995670Y-128401883D01*
X169992091Y-128401883D01*
X169985162Y-128403194D01*
X169112483Y-128403194D01*
X169013244Y-128388236D01*
X169001773Y-128382712D01*
X168993713Y-128381205D01*
X168976453Y-128370518D01*
X168931362Y-128348803D01*
X168911262Y-128330153D01*
X168898036Y-128321964D01*
X168887735Y-128308324D01*
X168864736Y-128286984D01*
X168842386Y-128248273D01*
X168830219Y-128232161D01*
X168828249Y-128223787D01*
X168820494Y-128210354D01*
X168801581Y-128110399D01*
X168798117Y-128095670D01*
X168798117Y-128092091D01*
X168796806Y-128085162D01*
X168796806Y-127462483D01*
X168811764Y-127363244D01*
X168817288Y-127351773D01*
X168818795Y-127343713D01*
X168829482Y-127326453D01*
X168851197Y-127281362D01*
X168869847Y-127261262D01*
X168878036Y-127248036D01*
X168891676Y-127237735D01*
X168913016Y-127214736D01*
X168951727Y-127192386D01*
X168967839Y-127180219D01*
X168976213Y-127178249D01*
X168989646Y-127170494D01*
X169089601Y-127151581D01*
X169104330Y-127148117D01*
X169107909Y-127148117D01*
X169114838Y-127146806D01*
X169987517Y-127146806D01*
X170086756Y-127161764D01*
G37*
G36*
X117291914Y-127175627D02*
G01*
X117367736Y-127185609D01*
X117372834Y-127187721D01*
X117383215Y-127189272D01*
X117432934Y-127212615D01*
X117477445Y-127231052D01*
X117485707Y-127237392D01*
X117500155Y-127244175D01*
X117537296Y-127276977D01*
X117571657Y-127303343D01*
X117581134Y-127315694D01*
X117596985Y-127329693D01*
X117620623Y-127367158D01*
X117643948Y-127397555D01*
X117651870Y-127416681D01*
X117665921Y-127438950D01*
X117676663Y-127476536D01*
X117689391Y-127507264D01*
X117692761Y-127532862D01*
X117701421Y-127563163D01*
X117701214Y-127597069D01*
X117704891Y-127625000D01*
X117700856Y-127655648D01*
X117700632Y-127692347D01*
X117692402Y-127719868D01*
X117689391Y-127742736D01*
X117675620Y-127775983D01*
X117663617Y-127816118D01*
X117650813Y-127835871D01*
X117643948Y-127852446D01*
X117618976Y-127884990D01*
X117593351Y-127924524D01*
X117579448Y-127936504D01*
X117571657Y-127946657D01*
X117535190Y-127974639D01*
X117495484Y-128008852D01*
X117483503Y-128014299D01*
X117477445Y-128018948D01*
X117430636Y-128038337D01*
X117377882Y-128062323D01*
X117370005Y-128063451D01*
X117367736Y-128064391D01*
X117314538Y-128071394D01*
X117282379Y-128076000D01*
X116718973Y-128076000D01*
X116708086Y-128074373D01*
X116632264Y-128064391D01*
X116627166Y-128062279D01*
X116616785Y-128060728D01*
X116567066Y-128037385D01*
X116522555Y-128018948D01*
X116514293Y-128012608D01*
X116499845Y-128005825D01*
X116462704Y-127973023D01*
X116428343Y-127946657D01*
X116418866Y-127934306D01*
X116403015Y-127920307D01*
X116379377Y-127882842D01*
X116356052Y-127852445D01*
X116348130Y-127833319D01*
X116334079Y-127811050D01*
X116323337Y-127773464D01*
X116310609Y-127742736D01*
X116307239Y-127717138D01*
X116298579Y-127686837D01*
X116298786Y-127652931D01*
X116295109Y-127625000D01*
X116299144Y-127594352D01*
X116299368Y-127557653D01*
X116307598Y-127530132D01*
X116310609Y-127507264D01*
X116324380Y-127474017D01*
X116336383Y-127433882D01*
X116349187Y-127414129D01*
X116356052Y-127397554D01*
X116381024Y-127365010D01*
X116406649Y-127325476D01*
X116420552Y-127313496D01*
X116428343Y-127303343D01*
X116464810Y-127275361D01*
X116504516Y-127241148D01*
X116516497Y-127235701D01*
X116522555Y-127231052D01*
X116569364Y-127211663D01*
X116622118Y-127187677D01*
X116629995Y-127186549D01*
X116632264Y-127185609D01*
X116685462Y-127178606D01*
X116717621Y-127174000D01*
X117281027Y-127174000D01*
X117291914Y-127175627D01*
G37*
G36*
X165791914Y-127175627D02*
G01*
X165867736Y-127185609D01*
X165872834Y-127187721D01*
X165883215Y-127189272D01*
X165932934Y-127212615D01*
X165977445Y-127231052D01*
X165985707Y-127237392D01*
X166000155Y-127244175D01*
X166037296Y-127276977D01*
X166071657Y-127303343D01*
X166081134Y-127315694D01*
X166096985Y-127329693D01*
X166120623Y-127367158D01*
X166143948Y-127397555D01*
X166151870Y-127416681D01*
X166165921Y-127438950D01*
X166176663Y-127476536D01*
X166189391Y-127507264D01*
X166192761Y-127532862D01*
X166201421Y-127563163D01*
X166201214Y-127597069D01*
X166204891Y-127625000D01*
X166200856Y-127655648D01*
X166200632Y-127692347D01*
X166192402Y-127719868D01*
X166189391Y-127742736D01*
X166175620Y-127775983D01*
X166163617Y-127816118D01*
X166150813Y-127835871D01*
X166143948Y-127852446D01*
X166118976Y-127884990D01*
X166093351Y-127924524D01*
X166079448Y-127936504D01*
X166071657Y-127946657D01*
X166035190Y-127974639D01*
X165995484Y-128008852D01*
X165983503Y-128014299D01*
X165977445Y-128018948D01*
X165930636Y-128038337D01*
X165877882Y-128062323D01*
X165870005Y-128063451D01*
X165867736Y-128064391D01*
X165814538Y-128071394D01*
X165782379Y-128076000D01*
X165218973Y-128076000D01*
X165208086Y-128074373D01*
X165132264Y-128064391D01*
X165127166Y-128062279D01*
X165116785Y-128060728D01*
X165067066Y-128037385D01*
X165022555Y-128018948D01*
X165014293Y-128012608D01*
X164999845Y-128005825D01*
X164962704Y-127973023D01*
X164928343Y-127946657D01*
X164918866Y-127934306D01*
X164903015Y-127920307D01*
X164879377Y-127882842D01*
X164856052Y-127852445D01*
X164848130Y-127833319D01*
X164834079Y-127811050D01*
X164823337Y-127773464D01*
X164810609Y-127742736D01*
X164807239Y-127717138D01*
X164798579Y-127686837D01*
X164798786Y-127652931D01*
X164795109Y-127625000D01*
X164799144Y-127594352D01*
X164799368Y-127557653D01*
X164807598Y-127530132D01*
X164810609Y-127507264D01*
X164824380Y-127474017D01*
X164836383Y-127433882D01*
X164849187Y-127414129D01*
X164856052Y-127397554D01*
X164881024Y-127365010D01*
X164906649Y-127325476D01*
X164920552Y-127313496D01*
X164928343Y-127303343D01*
X164964810Y-127275361D01*
X165004516Y-127241148D01*
X165016497Y-127235701D01*
X165022555Y-127231052D01*
X165069364Y-127211663D01*
X165122118Y-127187677D01*
X165129995Y-127186549D01*
X165132264Y-127185609D01*
X165185462Y-127178606D01*
X165217621Y-127174000D01*
X165781027Y-127174000D01*
X165791914Y-127175627D01*
G37*
G36*
X113486756Y-126161764D02*
G01*
X113498227Y-126167288D01*
X113506287Y-126168795D01*
X113523547Y-126179482D01*
X113568638Y-126201197D01*
X113588738Y-126219847D01*
X113601964Y-126228036D01*
X113612265Y-126241676D01*
X113635264Y-126263016D01*
X113657614Y-126301727D01*
X113669781Y-126317839D01*
X113671751Y-126326213D01*
X113679506Y-126339646D01*
X113698419Y-126439601D01*
X113701883Y-126454330D01*
X113701883Y-126457909D01*
X113703194Y-126464838D01*
X113703194Y-127087517D01*
X113688236Y-127186756D01*
X113682712Y-127198227D01*
X113681205Y-127206287D01*
X113670518Y-127223547D01*
X113648803Y-127268638D01*
X113630153Y-127288738D01*
X113621964Y-127301964D01*
X113608324Y-127312265D01*
X113586984Y-127335264D01*
X113548273Y-127357614D01*
X113532161Y-127369781D01*
X113523787Y-127371751D01*
X113510354Y-127379506D01*
X113410399Y-127398419D01*
X113395670Y-127401883D01*
X113392091Y-127401883D01*
X113385162Y-127403194D01*
X112512483Y-127403194D01*
X112413244Y-127388236D01*
X112401773Y-127382712D01*
X112393713Y-127381205D01*
X112376453Y-127370518D01*
X112331362Y-127348803D01*
X112311262Y-127330153D01*
X112298036Y-127321964D01*
X112287735Y-127308324D01*
X112264736Y-127286984D01*
X112242386Y-127248273D01*
X112230219Y-127232161D01*
X112228249Y-127223787D01*
X112220494Y-127210354D01*
X112201581Y-127110399D01*
X112198117Y-127095670D01*
X112198117Y-127092091D01*
X112196806Y-127085162D01*
X112196806Y-126462483D01*
X112211764Y-126363244D01*
X112217288Y-126351773D01*
X112218795Y-126343713D01*
X112229482Y-126326453D01*
X112251197Y-126281362D01*
X112269847Y-126261262D01*
X112278036Y-126248036D01*
X112291676Y-126237735D01*
X112313016Y-126214736D01*
X112351727Y-126192386D01*
X112367839Y-126180219D01*
X112376213Y-126178249D01*
X112389646Y-126170494D01*
X112489601Y-126151581D01*
X112504330Y-126148117D01*
X112507909Y-126148117D01*
X112514838Y-126146806D01*
X113387517Y-126146806D01*
X113486756Y-126161764D01*
G37*
G36*
X165791914Y-125925627D02*
G01*
X165867736Y-125935609D01*
X165872834Y-125937721D01*
X165883215Y-125939272D01*
X165932934Y-125962615D01*
X165977445Y-125981052D01*
X165985707Y-125987392D01*
X166000155Y-125994175D01*
X166037296Y-126026977D01*
X166071657Y-126053343D01*
X166081134Y-126065694D01*
X166096985Y-126079693D01*
X166120623Y-126117158D01*
X166143948Y-126147555D01*
X166151870Y-126166681D01*
X166165921Y-126188950D01*
X166176663Y-126226536D01*
X166189391Y-126257264D01*
X166192761Y-126282862D01*
X166201421Y-126313163D01*
X166201214Y-126347069D01*
X166204891Y-126375000D01*
X166200856Y-126405648D01*
X166200632Y-126442347D01*
X166192402Y-126469868D01*
X166189391Y-126492736D01*
X166175620Y-126525983D01*
X166163617Y-126566118D01*
X166150813Y-126585871D01*
X166143948Y-126602446D01*
X166118976Y-126634990D01*
X166093351Y-126674524D01*
X166079448Y-126686504D01*
X166071657Y-126696657D01*
X166035190Y-126724639D01*
X165995484Y-126758852D01*
X165983503Y-126764299D01*
X165977445Y-126768948D01*
X165930636Y-126788337D01*
X165877882Y-126812323D01*
X165870005Y-126813451D01*
X165867736Y-126814391D01*
X165814538Y-126821394D01*
X165782379Y-126826000D01*
X165218973Y-126826000D01*
X165208086Y-126824373D01*
X165132264Y-126814391D01*
X165127166Y-126812279D01*
X165116785Y-126810728D01*
X165067066Y-126787385D01*
X165022555Y-126768948D01*
X165014293Y-126762608D01*
X164999845Y-126755825D01*
X164962704Y-126723023D01*
X164928343Y-126696657D01*
X164918866Y-126684306D01*
X164903015Y-126670307D01*
X164879377Y-126632842D01*
X164856052Y-126602445D01*
X164848130Y-126583319D01*
X164834079Y-126561050D01*
X164823337Y-126523464D01*
X164810609Y-126492736D01*
X164807239Y-126467138D01*
X164798579Y-126436837D01*
X164798786Y-126402931D01*
X164795109Y-126375000D01*
X164799144Y-126344352D01*
X164799368Y-126307653D01*
X164807598Y-126280132D01*
X164810609Y-126257264D01*
X164824380Y-126224017D01*
X164836383Y-126183882D01*
X164849187Y-126164129D01*
X164856052Y-126147554D01*
X164881024Y-126115010D01*
X164906649Y-126075476D01*
X164920552Y-126063496D01*
X164928343Y-126053343D01*
X164964810Y-126025361D01*
X165004516Y-125991148D01*
X165016497Y-125985701D01*
X165022555Y-125981052D01*
X165069364Y-125961663D01*
X165122118Y-125937677D01*
X165129995Y-125936549D01*
X165132264Y-125935609D01*
X165185462Y-125928606D01*
X165217621Y-125924000D01*
X165781027Y-125924000D01*
X165791914Y-125925627D01*
G37*
G36*
X117291914Y-125925627D02*
G01*
X117367736Y-125935609D01*
X117372834Y-125937721D01*
X117383215Y-125939272D01*
X117432934Y-125962615D01*
X117477445Y-125981052D01*
X117485707Y-125987392D01*
X117500155Y-125994175D01*
X117537296Y-126026977D01*
X117571657Y-126053343D01*
X117581134Y-126065694D01*
X117596985Y-126079693D01*
X117620623Y-126117158D01*
X117643948Y-126147555D01*
X117651870Y-126166681D01*
X117665921Y-126188950D01*
X117676663Y-126226536D01*
X117689391Y-126257264D01*
X117692761Y-126282862D01*
X117701421Y-126313163D01*
X117701214Y-126347069D01*
X117704891Y-126375000D01*
X117700856Y-126405648D01*
X117700632Y-126442347D01*
X117692402Y-126469868D01*
X117689391Y-126492736D01*
X117675620Y-126525983D01*
X117663617Y-126566118D01*
X117650813Y-126585871D01*
X117643948Y-126602446D01*
X117618976Y-126634990D01*
X117593351Y-126674524D01*
X117579448Y-126686504D01*
X117571657Y-126696657D01*
X117535190Y-126724639D01*
X117495484Y-126758852D01*
X117483503Y-126764299D01*
X117477445Y-126768948D01*
X117430636Y-126788337D01*
X117377882Y-126812323D01*
X117370005Y-126813451D01*
X117367736Y-126814391D01*
X117314538Y-126821394D01*
X117282379Y-126826000D01*
X116718973Y-126826000D01*
X116708086Y-126824373D01*
X116632264Y-126814391D01*
X116627166Y-126812279D01*
X116616785Y-126810728D01*
X116567066Y-126787385D01*
X116522555Y-126768948D01*
X116514293Y-126762608D01*
X116499845Y-126755825D01*
X116462704Y-126723023D01*
X116428343Y-126696657D01*
X116418866Y-126684306D01*
X116403015Y-126670307D01*
X116379377Y-126632842D01*
X116356052Y-126602445D01*
X116348130Y-126583319D01*
X116334079Y-126561050D01*
X116323337Y-126523464D01*
X116310609Y-126492736D01*
X116307239Y-126467138D01*
X116298579Y-126436837D01*
X116298786Y-126402931D01*
X116295109Y-126375000D01*
X116299144Y-126344352D01*
X116299368Y-126307653D01*
X116307598Y-126280132D01*
X116310609Y-126257264D01*
X116324380Y-126224017D01*
X116336383Y-126183882D01*
X116349187Y-126164129D01*
X116356052Y-126147554D01*
X116381024Y-126115010D01*
X116406649Y-126075476D01*
X116420552Y-126063496D01*
X116428343Y-126053343D01*
X116464810Y-126025361D01*
X116504516Y-125991148D01*
X116516497Y-125985701D01*
X116522555Y-125981052D01*
X116569364Y-125961663D01*
X116622118Y-125937677D01*
X116629995Y-125936549D01*
X116632264Y-125935609D01*
X116685462Y-125928606D01*
X116717621Y-125924000D01*
X117281027Y-125924000D01*
X117291914Y-125925627D01*
G37*
G36*
X170086756Y-125111764D02*
G01*
X170098227Y-125117288D01*
X170106287Y-125118795D01*
X170123547Y-125129482D01*
X170168638Y-125151197D01*
X170188738Y-125169847D01*
X170201964Y-125178036D01*
X170212265Y-125191676D01*
X170235264Y-125213016D01*
X170257614Y-125251727D01*
X170269781Y-125267839D01*
X170271751Y-125276213D01*
X170279506Y-125289646D01*
X170298419Y-125389601D01*
X170301883Y-125404330D01*
X170301883Y-125407909D01*
X170303194Y-125414838D01*
X170303194Y-126037517D01*
X170288236Y-126136756D01*
X170282712Y-126148227D01*
X170281205Y-126156287D01*
X170270518Y-126173547D01*
X170248803Y-126218638D01*
X170230153Y-126238738D01*
X170221964Y-126251964D01*
X170208324Y-126262265D01*
X170186984Y-126285264D01*
X170148273Y-126307614D01*
X170132161Y-126319781D01*
X170123787Y-126321751D01*
X170110354Y-126329506D01*
X170010399Y-126348419D01*
X169995670Y-126351883D01*
X169992091Y-126351883D01*
X169985162Y-126353194D01*
X169112483Y-126353194D01*
X169013244Y-126338236D01*
X169001773Y-126332712D01*
X168993713Y-126331205D01*
X168976453Y-126320518D01*
X168931362Y-126298803D01*
X168911262Y-126280153D01*
X168898036Y-126271964D01*
X168887735Y-126258324D01*
X168864736Y-126236984D01*
X168842386Y-126198273D01*
X168830219Y-126182161D01*
X168828249Y-126173787D01*
X168820494Y-126160354D01*
X168801581Y-126060399D01*
X168798117Y-126045670D01*
X168798117Y-126042091D01*
X168796806Y-126035162D01*
X168796806Y-125412483D01*
X168811764Y-125313244D01*
X168817288Y-125301773D01*
X168818795Y-125293713D01*
X168829482Y-125276453D01*
X168851197Y-125231362D01*
X168869847Y-125211262D01*
X168878036Y-125198036D01*
X168891676Y-125187735D01*
X168913016Y-125164736D01*
X168951727Y-125142386D01*
X168967839Y-125130219D01*
X168976213Y-125128249D01*
X168989646Y-125120494D01*
X169089601Y-125101581D01*
X169104330Y-125098117D01*
X169107909Y-125098117D01*
X169114838Y-125096806D01*
X169987517Y-125096806D01*
X170086756Y-125111764D01*
G37*
G36*
X165791914Y-124675627D02*
G01*
X165867736Y-124685609D01*
X165872834Y-124687721D01*
X165883215Y-124689272D01*
X165932934Y-124712615D01*
X165977445Y-124731052D01*
X165985707Y-124737392D01*
X166000155Y-124744175D01*
X166037296Y-124776977D01*
X166071657Y-124803343D01*
X166081134Y-124815694D01*
X166096985Y-124829693D01*
X166120623Y-124867158D01*
X166143948Y-124897555D01*
X166151870Y-124916681D01*
X166165921Y-124938950D01*
X166176663Y-124976536D01*
X166189391Y-125007264D01*
X166192761Y-125032862D01*
X166201421Y-125063163D01*
X166201214Y-125097069D01*
X166204891Y-125125000D01*
X166200856Y-125155648D01*
X166200632Y-125192347D01*
X166192402Y-125219868D01*
X166189391Y-125242736D01*
X166175620Y-125275983D01*
X166163617Y-125316118D01*
X166150813Y-125335871D01*
X166143948Y-125352446D01*
X166118976Y-125384990D01*
X166093351Y-125424524D01*
X166079448Y-125436504D01*
X166071657Y-125446657D01*
X166035190Y-125474639D01*
X165995484Y-125508852D01*
X165983503Y-125514299D01*
X165977445Y-125518948D01*
X165930636Y-125538337D01*
X165877882Y-125562323D01*
X165870005Y-125563451D01*
X165867736Y-125564391D01*
X165814538Y-125571394D01*
X165782379Y-125576000D01*
X165218973Y-125576000D01*
X165208086Y-125574373D01*
X165132264Y-125564391D01*
X165127166Y-125562279D01*
X165116785Y-125560728D01*
X165067066Y-125537385D01*
X165022555Y-125518948D01*
X165014293Y-125512608D01*
X164999845Y-125505825D01*
X164962704Y-125473023D01*
X164928343Y-125446657D01*
X164918866Y-125434306D01*
X164903015Y-125420307D01*
X164879377Y-125382842D01*
X164856052Y-125352445D01*
X164848130Y-125333319D01*
X164834079Y-125311050D01*
X164823337Y-125273464D01*
X164810609Y-125242736D01*
X164807239Y-125217138D01*
X164798579Y-125186837D01*
X164798786Y-125152931D01*
X164795109Y-125125000D01*
X164799144Y-125094352D01*
X164799368Y-125057653D01*
X164807598Y-125030132D01*
X164810609Y-125007264D01*
X164824380Y-124974017D01*
X164836383Y-124933882D01*
X164849187Y-124914129D01*
X164856052Y-124897554D01*
X164881024Y-124865010D01*
X164906649Y-124825476D01*
X164920552Y-124813496D01*
X164928343Y-124803343D01*
X164964810Y-124775361D01*
X165004516Y-124741148D01*
X165016497Y-124735701D01*
X165022555Y-124731052D01*
X165069364Y-124711663D01*
X165122118Y-124687677D01*
X165129995Y-124686549D01*
X165132264Y-124685609D01*
X165185462Y-124678606D01*
X165217621Y-124674000D01*
X165781027Y-124674000D01*
X165791914Y-124675627D01*
G37*
G36*
X117291914Y-124675627D02*
G01*
X117367736Y-124685609D01*
X117372834Y-124687721D01*
X117383215Y-124689272D01*
X117432934Y-124712615D01*
X117477445Y-124731052D01*
X117485707Y-124737392D01*
X117500155Y-124744175D01*
X117537296Y-124776977D01*
X117571657Y-124803343D01*
X117581134Y-124815694D01*
X117596985Y-124829693D01*
X117620623Y-124867158D01*
X117643948Y-124897555D01*
X117651870Y-124916681D01*
X117665921Y-124938950D01*
X117676663Y-124976536D01*
X117689391Y-125007264D01*
X117692761Y-125032862D01*
X117701421Y-125063163D01*
X117701214Y-125097069D01*
X117704891Y-125125000D01*
X117700856Y-125155648D01*
X117700632Y-125192347D01*
X117692402Y-125219868D01*
X117689391Y-125242736D01*
X117675620Y-125275983D01*
X117663617Y-125316118D01*
X117650813Y-125335871D01*
X117643948Y-125352446D01*
X117618976Y-125384990D01*
X117593351Y-125424524D01*
X117579448Y-125436504D01*
X117571657Y-125446657D01*
X117535190Y-125474639D01*
X117495484Y-125508852D01*
X117483503Y-125514299D01*
X117477445Y-125518948D01*
X117430636Y-125538337D01*
X117377882Y-125562323D01*
X117370005Y-125563451D01*
X117367736Y-125564391D01*
X117314538Y-125571394D01*
X117282379Y-125576000D01*
X116718973Y-125576000D01*
X116708086Y-125574373D01*
X116632264Y-125564391D01*
X116627166Y-125562279D01*
X116616785Y-125560728D01*
X116567066Y-125537385D01*
X116522555Y-125518948D01*
X116514293Y-125512608D01*
X116499845Y-125505825D01*
X116462704Y-125473023D01*
X116428343Y-125446657D01*
X116418866Y-125434306D01*
X116403015Y-125420307D01*
X116379377Y-125382842D01*
X116356052Y-125352445D01*
X116348130Y-125333319D01*
X116334079Y-125311050D01*
X116323337Y-125273464D01*
X116310609Y-125242736D01*
X116307239Y-125217138D01*
X116298579Y-125186837D01*
X116298786Y-125152931D01*
X116295109Y-125125000D01*
X116299144Y-125094352D01*
X116299368Y-125057653D01*
X116307598Y-125030132D01*
X116310609Y-125007264D01*
X116324380Y-124974017D01*
X116336383Y-124933882D01*
X116349187Y-124914129D01*
X116356052Y-124897554D01*
X116381024Y-124865010D01*
X116406649Y-124825476D01*
X116420552Y-124813496D01*
X116428343Y-124803343D01*
X116464810Y-124775361D01*
X116504516Y-124741148D01*
X116516497Y-124735701D01*
X116522555Y-124731052D01*
X116569364Y-124711663D01*
X116622118Y-124687677D01*
X116629995Y-124686549D01*
X116632264Y-124685609D01*
X116685462Y-124678606D01*
X116717621Y-124674000D01*
X117281027Y-124674000D01*
X117291914Y-124675627D01*
G37*
G36*
X117291914Y-123425627D02*
G01*
X117367736Y-123435609D01*
X117372834Y-123437721D01*
X117383215Y-123439272D01*
X117432934Y-123462615D01*
X117477445Y-123481052D01*
X117485707Y-123487392D01*
X117500155Y-123494175D01*
X117537296Y-123526977D01*
X117571657Y-123553343D01*
X117581134Y-123565694D01*
X117596985Y-123579693D01*
X117620623Y-123617158D01*
X117643948Y-123647555D01*
X117651870Y-123666681D01*
X117665921Y-123688950D01*
X117676663Y-123726536D01*
X117689391Y-123757264D01*
X117692761Y-123782862D01*
X117701421Y-123813163D01*
X117701214Y-123847069D01*
X117704891Y-123875000D01*
X117700856Y-123905648D01*
X117700632Y-123942347D01*
X117692402Y-123969868D01*
X117689391Y-123992736D01*
X117675620Y-124025983D01*
X117663617Y-124066118D01*
X117650813Y-124085871D01*
X117643948Y-124102446D01*
X117618976Y-124134990D01*
X117593351Y-124174524D01*
X117579448Y-124186504D01*
X117571657Y-124196657D01*
X117535190Y-124224639D01*
X117495484Y-124258852D01*
X117483503Y-124264299D01*
X117477445Y-124268948D01*
X117430636Y-124288337D01*
X117377882Y-124312323D01*
X117370005Y-124313451D01*
X117367736Y-124314391D01*
X117314538Y-124321394D01*
X117282379Y-124326000D01*
X116718973Y-124326000D01*
X116708086Y-124324373D01*
X116632264Y-124314391D01*
X116627166Y-124312279D01*
X116616785Y-124310728D01*
X116567066Y-124287385D01*
X116522555Y-124268948D01*
X116514293Y-124262608D01*
X116499845Y-124255825D01*
X116462704Y-124223023D01*
X116428343Y-124196657D01*
X116418866Y-124184306D01*
X116403015Y-124170307D01*
X116379377Y-124132842D01*
X116356052Y-124102445D01*
X116348130Y-124083319D01*
X116334079Y-124061050D01*
X116323337Y-124023464D01*
X116310609Y-123992736D01*
X116307239Y-123967138D01*
X116298579Y-123936837D01*
X116298786Y-123902931D01*
X116295109Y-123875000D01*
X116299144Y-123844352D01*
X116299368Y-123807653D01*
X116307598Y-123780132D01*
X116310609Y-123757264D01*
X116324380Y-123724017D01*
X116336383Y-123683882D01*
X116349187Y-123664129D01*
X116356052Y-123647554D01*
X116381024Y-123615010D01*
X116406649Y-123575476D01*
X116420552Y-123563496D01*
X116428343Y-123553343D01*
X116464810Y-123525361D01*
X116504516Y-123491148D01*
X116516497Y-123485701D01*
X116522555Y-123481052D01*
X116569364Y-123461663D01*
X116622118Y-123437677D01*
X116629995Y-123436549D01*
X116632264Y-123435609D01*
X116685462Y-123428606D01*
X116717621Y-123424000D01*
X117281027Y-123424000D01*
X117291914Y-123425627D01*
G37*
G36*
X165791914Y-123425627D02*
G01*
X165867736Y-123435609D01*
X165872834Y-123437721D01*
X165883215Y-123439272D01*
X165932934Y-123462615D01*
X165977445Y-123481052D01*
X165985707Y-123487392D01*
X166000155Y-123494175D01*
X166037296Y-123526977D01*
X166071657Y-123553343D01*
X166081134Y-123565694D01*
X166096985Y-123579693D01*
X166120623Y-123617158D01*
X166143948Y-123647555D01*
X166151870Y-123666681D01*
X166165921Y-123688950D01*
X166176663Y-123726536D01*
X166189391Y-123757264D01*
X166192761Y-123782862D01*
X166201421Y-123813163D01*
X166201214Y-123847069D01*
X166204891Y-123875000D01*
X166200856Y-123905648D01*
X166200632Y-123942347D01*
X166192402Y-123969868D01*
X166189391Y-123992736D01*
X166175620Y-124025983D01*
X166163617Y-124066118D01*
X166150813Y-124085871D01*
X166143948Y-124102446D01*
X166118976Y-124134990D01*
X166093351Y-124174524D01*
X166079448Y-124186504D01*
X166071657Y-124196657D01*
X166035190Y-124224639D01*
X165995484Y-124258852D01*
X165983503Y-124264299D01*
X165977445Y-124268948D01*
X165930636Y-124288337D01*
X165877882Y-124312323D01*
X165870005Y-124313451D01*
X165867736Y-124314391D01*
X165814538Y-124321394D01*
X165782379Y-124326000D01*
X165218973Y-124326000D01*
X165208086Y-124324373D01*
X165132264Y-124314391D01*
X165127166Y-124312279D01*
X165116785Y-124310728D01*
X165067066Y-124287385D01*
X165022555Y-124268948D01*
X165014293Y-124262608D01*
X164999845Y-124255825D01*
X164962704Y-124223023D01*
X164928343Y-124196657D01*
X164918866Y-124184306D01*
X164903015Y-124170307D01*
X164879377Y-124132842D01*
X164856052Y-124102445D01*
X164848130Y-124083319D01*
X164834079Y-124061050D01*
X164823337Y-124023464D01*
X164810609Y-123992736D01*
X164807239Y-123967138D01*
X164798579Y-123936837D01*
X164798786Y-123902931D01*
X164795109Y-123875000D01*
X164799144Y-123844352D01*
X164799368Y-123807653D01*
X164807598Y-123780132D01*
X164810609Y-123757264D01*
X164824380Y-123724017D01*
X164836383Y-123683882D01*
X164849187Y-123664129D01*
X164856052Y-123647554D01*
X164881024Y-123615010D01*
X164906649Y-123575476D01*
X164920552Y-123563496D01*
X164928343Y-123553343D01*
X164964810Y-123525361D01*
X165004516Y-123491148D01*
X165016497Y-123485701D01*
X165022555Y-123481052D01*
X165069364Y-123461663D01*
X165122118Y-123437677D01*
X165129995Y-123436549D01*
X165132264Y-123435609D01*
X165185462Y-123428606D01*
X165217621Y-123424000D01*
X165781027Y-123424000D01*
X165791914Y-123425627D01*
G37*
G36*
X174899902Y-122099283D02*
G01*
X174944637Y-122099595D01*
X174988460Y-122108590D01*
X175038360Y-122113835D01*
X175080132Y-122127408D01*
X175117723Y-122135124D01*
X175164851Y-122154935D01*
X175218488Y-122172363D01*
X175251099Y-122191191D01*
X175280614Y-122203598D01*
X175328301Y-122235763D01*
X175382511Y-122267061D01*
X175405826Y-122288054D01*
X175427101Y-122302404D01*
X175472183Y-122347802D01*
X175523261Y-122393793D01*
X175538003Y-122414083D01*
X175551608Y-122427784D01*
X175590643Y-122486537D01*
X175634586Y-122547019D01*
X175642221Y-122564168D01*
X175649388Y-122574955D01*
X175678865Y-122646472D01*
X175711621Y-122720042D01*
X175714211Y-122732225D01*
X175716724Y-122738323D01*
X175733292Y-122821997D01*
X175750999Y-122905301D01*
X175750999Y-123094699D01*
X175748115Y-123108269D01*
X175748030Y-123114331D01*
X175729342Y-123196585D01*
X175711621Y-123279958D01*
X175709129Y-123285555D01*
X175709078Y-123285780D01*
X175637210Y-123447197D01*
X175637078Y-123447385D01*
X175634586Y-123452981D01*
X175584480Y-123521946D01*
X175535357Y-123591582D01*
X175530585Y-123596126D01*
X175523261Y-123606207D01*
X175463396Y-123660110D01*
X175407396Y-123713438D01*
X175396464Y-123720376D01*
X175382511Y-123732939D01*
X175317764Y-123770321D01*
X175258211Y-123808114D01*
X175240209Y-123815097D01*
X175218488Y-123827637D01*
X175153115Y-123848878D01*
X175093468Y-123872014D01*
X175068200Y-123876469D01*
X175038360Y-123886165D01*
X174976095Y-123892709D01*
X174919460Y-123902695D01*
X174887459Y-123902025D01*
X174850000Y-123905962D01*
X174793902Y-123900066D01*
X174742799Y-123898996D01*
X174705323Y-123890756D01*
X174661640Y-123886165D01*
X174613917Y-123870659D01*
X174570225Y-123861052D01*
X174529230Y-123843142D01*
X174481512Y-123827637D01*
X174443473Y-123805675D01*
X174408310Y-123790313D01*
X174366337Y-123761141D01*
X174317489Y-123732939D01*
X174289504Y-123707741D01*
X174263215Y-123689470D01*
X174223257Y-123648092D01*
X174176739Y-123606207D01*
X174158296Y-123580823D01*
X174140473Y-123562366D01*
X174105821Y-123508597D01*
X174065414Y-123452981D01*
X174055212Y-123430066D01*
X174044754Y-123413839D01*
X174018789Y-123348261D01*
X173988379Y-123279958D01*
X173984476Y-123261596D01*
X173979707Y-123249551D01*
X173965740Y-123173448D01*
X173949001Y-123094699D01*
X173949001Y-123082246D01*
X173947811Y-123075762D01*
X173949001Y-122990535D01*
X173949001Y-122905301D01*
X173950275Y-122899308D01*
X173950278Y-122899077D01*
X173987015Y-122726246D01*
X173987105Y-122726036D01*
X173988379Y-122720042D01*
X174023042Y-122642188D01*
X174056622Y-122563839D01*
X174060348Y-122558397D01*
X174065414Y-122547019D01*
X174112746Y-122481872D01*
X174156452Y-122418041D01*
X174165706Y-122408979D01*
X174176739Y-122393793D01*
X174232297Y-122343769D01*
X174282693Y-122294417D01*
X174298848Y-122283846D01*
X174317489Y-122267061D01*
X174377026Y-122232687D01*
X174430551Y-122197662D01*
X174454340Y-122188050D01*
X174481512Y-122172363D01*
X174541045Y-122153019D01*
X174594376Y-122131472D01*
X174625820Y-122125474D01*
X174661640Y-122113835D01*
X174717744Y-122107938D01*
X174767945Y-122098362D01*
X174806312Y-122098630D01*
X174850000Y-122094038D01*
X174899902Y-122099283D01*
G37*
G36*
X177439902Y-122099283D02*
G01*
X177484637Y-122099595D01*
X177528460Y-122108590D01*
X177578360Y-122113835D01*
X177620132Y-122127408D01*
X177657723Y-122135124D01*
X177704851Y-122154935D01*
X177758488Y-122172363D01*
X177791099Y-122191191D01*
X177820614Y-122203598D01*
X177868301Y-122235763D01*
X177922511Y-122267061D01*
X177945826Y-122288054D01*
X177967101Y-122302404D01*
X178012183Y-122347802D01*
X178063261Y-122393793D01*
X178078003Y-122414083D01*
X178091608Y-122427784D01*
X178130643Y-122486537D01*
X178174586Y-122547019D01*
X178182221Y-122564168D01*
X178189388Y-122574955D01*
X178218865Y-122646472D01*
X178251621Y-122720042D01*
X178254211Y-122732225D01*
X178256724Y-122738323D01*
X178273292Y-122821997D01*
X178290999Y-122905301D01*
X178290999Y-123094699D01*
X178288115Y-123108269D01*
X178288030Y-123114331D01*
X178269342Y-123196585D01*
X178251621Y-123279958D01*
X178249129Y-123285555D01*
X178249078Y-123285780D01*
X178177210Y-123447197D01*
X178177078Y-123447385D01*
X178174586Y-123452981D01*
X178124480Y-123521946D01*
X178075357Y-123591582D01*
X178070585Y-123596126D01*
X178063261Y-123606207D01*
X178003396Y-123660110D01*
X177947396Y-123713438D01*
X177936464Y-123720376D01*
X177922511Y-123732939D01*
X177857764Y-123770321D01*
X177798211Y-123808114D01*
X177780209Y-123815097D01*
X177758488Y-123827637D01*
X177693115Y-123848878D01*
X177633468Y-123872014D01*
X177608200Y-123876469D01*
X177578360Y-123886165D01*
X177516095Y-123892709D01*
X177459460Y-123902695D01*
X177427459Y-123902025D01*
X177390000Y-123905962D01*
X177333902Y-123900066D01*
X177282799Y-123898996D01*
X177245323Y-123890756D01*
X177201640Y-123886165D01*
X177153917Y-123870659D01*
X177110225Y-123861052D01*
X177069230Y-123843142D01*
X177021512Y-123827637D01*
X176983473Y-123805675D01*
X176948310Y-123790313D01*
X176906337Y-123761141D01*
X176857489Y-123732939D01*
X176829504Y-123707741D01*
X176803215Y-123689470D01*
X176763257Y-123648092D01*
X176716739Y-123606207D01*
X176698296Y-123580823D01*
X176680473Y-123562366D01*
X176645821Y-123508597D01*
X176605414Y-123452981D01*
X176595212Y-123430066D01*
X176584754Y-123413839D01*
X176558789Y-123348261D01*
X176528379Y-123279958D01*
X176524476Y-123261596D01*
X176519707Y-123249551D01*
X176505740Y-123173448D01*
X176489001Y-123094699D01*
X176489001Y-123082246D01*
X176487811Y-123075762D01*
X176489001Y-122990535D01*
X176489001Y-122905301D01*
X176490275Y-122899308D01*
X176490278Y-122899077D01*
X176527015Y-122726246D01*
X176527105Y-122726036D01*
X176528379Y-122720042D01*
X176563042Y-122642188D01*
X176596622Y-122563839D01*
X176600348Y-122558397D01*
X176605414Y-122547019D01*
X176652746Y-122481872D01*
X176696452Y-122418041D01*
X176705706Y-122408979D01*
X176716739Y-122393793D01*
X176772297Y-122343769D01*
X176822693Y-122294417D01*
X176838848Y-122283846D01*
X176857489Y-122267061D01*
X176917026Y-122232687D01*
X176970551Y-122197662D01*
X176994340Y-122188050D01*
X177021512Y-122172363D01*
X177081045Y-122153019D01*
X177134376Y-122131472D01*
X177165820Y-122125474D01*
X177201640Y-122113835D01*
X177257744Y-122107938D01*
X177307945Y-122098362D01*
X177346312Y-122098630D01*
X177390000Y-122094038D01*
X177439902Y-122099283D01*
G37*
G36*
X110339902Y-122099283D02*
G01*
X110384637Y-122099595D01*
X110428460Y-122108590D01*
X110478360Y-122113835D01*
X110520132Y-122127408D01*
X110557723Y-122135124D01*
X110604851Y-122154935D01*
X110658488Y-122172363D01*
X110691099Y-122191191D01*
X110720614Y-122203598D01*
X110768301Y-122235763D01*
X110822511Y-122267061D01*
X110845826Y-122288054D01*
X110867101Y-122302404D01*
X110912183Y-122347802D01*
X110963261Y-122393793D01*
X110978003Y-122414083D01*
X110991608Y-122427784D01*
X111030643Y-122486537D01*
X111074586Y-122547019D01*
X111082221Y-122564168D01*
X111089388Y-122574955D01*
X111118865Y-122646472D01*
X111151621Y-122720042D01*
X111154211Y-122732225D01*
X111156724Y-122738323D01*
X111173292Y-122821997D01*
X111190999Y-122905301D01*
X111190999Y-123094699D01*
X111188115Y-123108269D01*
X111188030Y-123114331D01*
X111169342Y-123196585D01*
X111151621Y-123279958D01*
X111149129Y-123285555D01*
X111149078Y-123285780D01*
X111077210Y-123447197D01*
X111077078Y-123447385D01*
X111074586Y-123452981D01*
X111024480Y-123521946D01*
X110975357Y-123591582D01*
X110970585Y-123596126D01*
X110963261Y-123606207D01*
X110903396Y-123660110D01*
X110847396Y-123713438D01*
X110836464Y-123720376D01*
X110822511Y-123732939D01*
X110757764Y-123770321D01*
X110698211Y-123808114D01*
X110680209Y-123815097D01*
X110658488Y-123827637D01*
X110593115Y-123848878D01*
X110533468Y-123872014D01*
X110508200Y-123876469D01*
X110478360Y-123886165D01*
X110416095Y-123892709D01*
X110359460Y-123902695D01*
X110327459Y-123902025D01*
X110290000Y-123905962D01*
X110233902Y-123900066D01*
X110182799Y-123898996D01*
X110145323Y-123890756D01*
X110101640Y-123886165D01*
X110053917Y-123870659D01*
X110010225Y-123861052D01*
X109969230Y-123843142D01*
X109921512Y-123827637D01*
X109883473Y-123805675D01*
X109848310Y-123790313D01*
X109806337Y-123761141D01*
X109757489Y-123732939D01*
X109729504Y-123707741D01*
X109703215Y-123689470D01*
X109663257Y-123648092D01*
X109616739Y-123606207D01*
X109598296Y-123580823D01*
X109580473Y-123562366D01*
X109545821Y-123508597D01*
X109505414Y-123452981D01*
X109495212Y-123430066D01*
X109484754Y-123413839D01*
X109458789Y-123348261D01*
X109428379Y-123279958D01*
X109424476Y-123261596D01*
X109419707Y-123249551D01*
X109405740Y-123173448D01*
X109389001Y-123094699D01*
X109389001Y-123082246D01*
X109387811Y-123075762D01*
X109389001Y-122990535D01*
X109389001Y-122905301D01*
X109390275Y-122899308D01*
X109390278Y-122899077D01*
X109427015Y-122726246D01*
X109427105Y-122726036D01*
X109428379Y-122720042D01*
X109463042Y-122642188D01*
X109496622Y-122563839D01*
X109500348Y-122558397D01*
X109505414Y-122547019D01*
X109552746Y-122481872D01*
X109596452Y-122418041D01*
X109605706Y-122408979D01*
X109616739Y-122393793D01*
X109672297Y-122343769D01*
X109722693Y-122294417D01*
X109738848Y-122283846D01*
X109757489Y-122267061D01*
X109817026Y-122232687D01*
X109870551Y-122197662D01*
X109894340Y-122188050D01*
X109921512Y-122172363D01*
X109981045Y-122153019D01*
X110034376Y-122131472D01*
X110065820Y-122125474D01*
X110101640Y-122113835D01*
X110157744Y-122107938D01*
X110207945Y-122098362D01*
X110246312Y-122098630D01*
X110290000Y-122094038D01*
X110339902Y-122099283D01*
G37*
G36*
X107799902Y-122099283D02*
G01*
X107844637Y-122099595D01*
X107888460Y-122108590D01*
X107938360Y-122113835D01*
X107980132Y-122127408D01*
X108017723Y-122135124D01*
X108064851Y-122154935D01*
X108118488Y-122172363D01*
X108151099Y-122191191D01*
X108180614Y-122203598D01*
X108228301Y-122235763D01*
X108282511Y-122267061D01*
X108305826Y-122288054D01*
X108327101Y-122302404D01*
X108372183Y-122347802D01*
X108423261Y-122393793D01*
X108438003Y-122414083D01*
X108451608Y-122427784D01*
X108490643Y-122486537D01*
X108534586Y-122547019D01*
X108542221Y-122564168D01*
X108549388Y-122574955D01*
X108578865Y-122646472D01*
X108611621Y-122720042D01*
X108614211Y-122732225D01*
X108616724Y-122738323D01*
X108633292Y-122821997D01*
X108650999Y-122905301D01*
X108650999Y-123094699D01*
X108648115Y-123108269D01*
X108648030Y-123114331D01*
X108629342Y-123196585D01*
X108611621Y-123279958D01*
X108609129Y-123285555D01*
X108609078Y-123285780D01*
X108537210Y-123447197D01*
X108537078Y-123447385D01*
X108534586Y-123452981D01*
X108484480Y-123521946D01*
X108435357Y-123591582D01*
X108430585Y-123596126D01*
X108423261Y-123606207D01*
X108363396Y-123660110D01*
X108307396Y-123713438D01*
X108296464Y-123720376D01*
X108282511Y-123732939D01*
X108217764Y-123770321D01*
X108158211Y-123808114D01*
X108140209Y-123815097D01*
X108118488Y-123827637D01*
X108053115Y-123848878D01*
X107993468Y-123872014D01*
X107968200Y-123876469D01*
X107938360Y-123886165D01*
X107876095Y-123892709D01*
X107819460Y-123902695D01*
X107787459Y-123902025D01*
X107750000Y-123905962D01*
X107693902Y-123900066D01*
X107642799Y-123898996D01*
X107605323Y-123890756D01*
X107561640Y-123886165D01*
X107513917Y-123870659D01*
X107470225Y-123861052D01*
X107429230Y-123843142D01*
X107381512Y-123827637D01*
X107343473Y-123805675D01*
X107308310Y-123790313D01*
X107266337Y-123761141D01*
X107217489Y-123732939D01*
X107189504Y-123707741D01*
X107163215Y-123689470D01*
X107123257Y-123648092D01*
X107076739Y-123606207D01*
X107058296Y-123580823D01*
X107040473Y-123562366D01*
X107005821Y-123508597D01*
X106965414Y-123452981D01*
X106955212Y-123430066D01*
X106944754Y-123413839D01*
X106918789Y-123348261D01*
X106888379Y-123279958D01*
X106884476Y-123261596D01*
X106879707Y-123249551D01*
X106865740Y-123173448D01*
X106849001Y-123094699D01*
X106849001Y-123082246D01*
X106847811Y-123075762D01*
X106849001Y-122990535D01*
X106849001Y-122905301D01*
X106850275Y-122899308D01*
X106850278Y-122899077D01*
X106887015Y-122726246D01*
X106887105Y-122726036D01*
X106888379Y-122720042D01*
X106923042Y-122642188D01*
X106956622Y-122563839D01*
X106960348Y-122558397D01*
X106965414Y-122547019D01*
X107012746Y-122481872D01*
X107056452Y-122418041D01*
X107065706Y-122408979D01*
X107076739Y-122393793D01*
X107132297Y-122343769D01*
X107182693Y-122294417D01*
X107198848Y-122283846D01*
X107217489Y-122267061D01*
X107277026Y-122232687D01*
X107330551Y-122197662D01*
X107354340Y-122188050D01*
X107381512Y-122172363D01*
X107441045Y-122153019D01*
X107494376Y-122131472D01*
X107525820Y-122125474D01*
X107561640Y-122113835D01*
X107617744Y-122107938D01*
X107667945Y-122098362D01*
X107706312Y-122098630D01*
X107750000Y-122094038D01*
X107799902Y-122099283D01*
G37*
G36*
X173179899Y-122101959D02*
G01*
X173196769Y-122113231D01*
X173208041Y-122130101D01*
X173214448Y-122162312D01*
X173214448Y-123837688D01*
X173211999Y-123850000D01*
X173208041Y-123869899D01*
X173196769Y-123886769D01*
X173179899Y-123898041D01*
X173160000Y-123901999D01*
X173147688Y-123904448D01*
X171472312Y-123904448D01*
X171440101Y-123898041D01*
X171423231Y-123886769D01*
X171411959Y-123869899D01*
X171405552Y-123837688D01*
X171405552Y-122162312D01*
X171411959Y-122130101D01*
X171423231Y-122113231D01*
X171440101Y-122101959D01*
X171472312Y-122095552D01*
X173147688Y-122095552D01*
X173179899Y-122101959D01*
G37*
G36*
X106079899Y-122101959D02*
G01*
X106096769Y-122113231D01*
X106108041Y-122130101D01*
X106114448Y-122162312D01*
X106114448Y-123837688D01*
X106111999Y-123850000D01*
X106108041Y-123869899D01*
X106096769Y-123886769D01*
X106079899Y-123898041D01*
X106060000Y-123901999D01*
X106047688Y-123904448D01*
X104372312Y-123904448D01*
X104340101Y-123898041D01*
X104323231Y-123886769D01*
X104311959Y-123869899D01*
X104305552Y-123837688D01*
X104305552Y-122162312D01*
X104311959Y-122130101D01*
X104323231Y-122113231D01*
X104340101Y-122101959D01*
X104372312Y-122095552D01*
X106047688Y-122095552D01*
X106079899Y-122101959D01*
G37*
G36*
X165945479Y-122173001D02*
G01*
X165946082Y-122173001D01*
X165949224Y-122173626D01*
X166029862Y-122187082D01*
X166037413Y-122191168D01*
X166044017Y-122192482D01*
X166061815Y-122204374D01*
X166103534Y-122226951D01*
X166116205Y-122240715D01*
X166127043Y-122247957D01*
X166138087Y-122264486D01*
X166160269Y-122288582D01*
X166171892Y-122315079D01*
X166182518Y-122330983D01*
X166185547Y-122346210D01*
X166194982Y-122367720D01*
X166203434Y-122435526D01*
X166203434Y-122811879D01*
X166201999Y-122820479D01*
X166201999Y-122821082D01*
X166201374Y-122824224D01*
X166187918Y-122904862D01*
X166183832Y-122912413D01*
X166182518Y-122919017D01*
X166170626Y-122936815D01*
X166148049Y-122978534D01*
X166134285Y-122991205D01*
X166127043Y-123002043D01*
X166110514Y-123013087D01*
X166086418Y-123035269D01*
X166059921Y-123046892D01*
X166044017Y-123057518D01*
X166028790Y-123060547D01*
X166007280Y-123069982D01*
X165939474Y-123078434D01*
X165063121Y-123078434D01*
X165054521Y-123076999D01*
X165053918Y-123076999D01*
X165050776Y-123076374D01*
X164970138Y-123062918D01*
X164962587Y-123058832D01*
X164955983Y-123057518D01*
X164938185Y-123045626D01*
X164896466Y-123023049D01*
X164883795Y-123009285D01*
X164872957Y-123002043D01*
X164861913Y-122985514D01*
X164839731Y-122961418D01*
X164828108Y-122934921D01*
X164817482Y-122919017D01*
X164814453Y-122903790D01*
X164805018Y-122882280D01*
X164796566Y-122814474D01*
X164796566Y-122438121D01*
X164798001Y-122429521D01*
X164798001Y-122428918D01*
X164798626Y-122425776D01*
X164812082Y-122345138D01*
X164816168Y-122337587D01*
X164817482Y-122330983D01*
X164829374Y-122313185D01*
X164851951Y-122271466D01*
X164865715Y-122258795D01*
X164872957Y-122247957D01*
X164889486Y-122236913D01*
X164913582Y-122214731D01*
X164940079Y-122203108D01*
X164955983Y-122192482D01*
X164971210Y-122189453D01*
X164992720Y-122180018D01*
X165060526Y-122171566D01*
X165936879Y-122171566D01*
X165945479Y-122173001D01*
G37*
G36*
X117291914Y-122175627D02*
G01*
X117367736Y-122185609D01*
X117372834Y-122187721D01*
X117383215Y-122189272D01*
X117432934Y-122212615D01*
X117477445Y-122231052D01*
X117485707Y-122237392D01*
X117500155Y-122244175D01*
X117537296Y-122276977D01*
X117571657Y-122303343D01*
X117581134Y-122315694D01*
X117596985Y-122329693D01*
X117620623Y-122367158D01*
X117643948Y-122397555D01*
X117651870Y-122416681D01*
X117665921Y-122438950D01*
X117676663Y-122476536D01*
X117689391Y-122507264D01*
X117692761Y-122532862D01*
X117701421Y-122563163D01*
X117701214Y-122597069D01*
X117704891Y-122625000D01*
X117700856Y-122655648D01*
X117700632Y-122692347D01*
X117692402Y-122719868D01*
X117689391Y-122742736D01*
X117675620Y-122775983D01*
X117663617Y-122816118D01*
X117650813Y-122835871D01*
X117643948Y-122852446D01*
X117618976Y-122884990D01*
X117593351Y-122924524D01*
X117579448Y-122936504D01*
X117571657Y-122946657D01*
X117535190Y-122974639D01*
X117495484Y-123008852D01*
X117483503Y-123014299D01*
X117477445Y-123018948D01*
X117430636Y-123038337D01*
X117377882Y-123062323D01*
X117370005Y-123063451D01*
X117367736Y-123064391D01*
X117314538Y-123071394D01*
X117282379Y-123076000D01*
X116718973Y-123076000D01*
X116708086Y-123074373D01*
X116632264Y-123064391D01*
X116627166Y-123062279D01*
X116616785Y-123060728D01*
X116567066Y-123037385D01*
X116522555Y-123018948D01*
X116514293Y-123012608D01*
X116499845Y-123005825D01*
X116462704Y-122973023D01*
X116428343Y-122946657D01*
X116418866Y-122934306D01*
X116403015Y-122920307D01*
X116379377Y-122882842D01*
X116356052Y-122852445D01*
X116348130Y-122833319D01*
X116334079Y-122811050D01*
X116323337Y-122773464D01*
X116310609Y-122742736D01*
X116307239Y-122717138D01*
X116298579Y-122686837D01*
X116298786Y-122652931D01*
X116295109Y-122625000D01*
X116299144Y-122594352D01*
X116299368Y-122557653D01*
X116307598Y-122530132D01*
X116310609Y-122507264D01*
X116324380Y-122474017D01*
X116336383Y-122433882D01*
X116349187Y-122414129D01*
X116356052Y-122397554D01*
X116381024Y-122365010D01*
X116406649Y-122325476D01*
X116420552Y-122313496D01*
X116428343Y-122303343D01*
X116464810Y-122275361D01*
X116504516Y-122241148D01*
X116516497Y-122235701D01*
X116522555Y-122231052D01*
X116569364Y-122211663D01*
X116622118Y-122187677D01*
X116629995Y-122186549D01*
X116632264Y-122185609D01*
X116685462Y-122178606D01*
X116717621Y-122174000D01*
X117281027Y-122174000D01*
X117291914Y-122175627D01*
G37*
G36*
X103356864Y-115947535D02*
G01*
X103411487Y-115946581D01*
X103515543Y-115957518D01*
X103620357Y-115964112D01*
X103671983Y-115973960D01*
X103721836Y-115979200D01*
X103828308Y-116003781D01*
X103935662Y-116024260D01*
X103981442Y-116039135D01*
X104025897Y-116049398D01*
X104132958Y-116088365D01*
X104240942Y-116123451D01*
X104280504Y-116142067D01*
X104319146Y-116156132D01*
X104424869Y-116210001D01*
X104531383Y-116260122D01*
X104564555Y-116281174D01*
X104597194Y-116297804D01*
X104699555Y-116366848D01*
X104802404Y-116432118D01*
X104829261Y-116454336D01*
X104855901Y-116472305D01*
X104952757Y-116556500D01*
X105049732Y-116636725D01*
X105070562Y-116658907D01*
X105091422Y-116677040D01*
X105180665Y-116776155D01*
X105269465Y-116870717D01*
X105284741Y-116891743D01*
X105300229Y-116908944D01*
X105379764Y-117022531D01*
X105458138Y-117130404D01*
X105468516Y-117149281D01*
X105479222Y-117164571D01*
X105546989Y-117292023D01*
X105612777Y-117411690D01*
X105619075Y-117427598D01*
X105625725Y-117440104D01*
X105679764Y-117580879D01*
X105730941Y-117710139D01*
X105734091Y-117722406D01*
X105737560Y-117731444D01*
X105776111Y-117886066D01*
X105810768Y-118021045D01*
X105811798Y-118029199D01*
X105813054Y-118034236D01*
X105834511Y-118208992D01*
X105850999Y-118339505D01*
X105850999Y-118660495D01*
X105840345Y-118744834D01*
X105839137Y-118790948D01*
X105822851Y-118883311D01*
X105810768Y-118978955D01*
X105795501Y-119038415D01*
X105785232Y-119096654D01*
X105755992Y-119192294D01*
X105730941Y-119289861D01*
X105709966Y-119342837D01*
X105693995Y-119395077D01*
X105651441Y-119490656D01*
X105612777Y-119588310D01*
X105587458Y-119634365D01*
X105567068Y-119680162D01*
X105510781Y-119773839D01*
X105458138Y-119869596D01*
X105429849Y-119908533D01*
X105406343Y-119947653D01*
X105336181Y-120037456D01*
X105269465Y-120129283D01*
X105239542Y-120161148D01*
X105214225Y-120193552D01*
X105130327Y-120277450D01*
X105049732Y-120363275D01*
X105019454Y-120388323D01*
X104993552Y-120414225D01*
X104896253Y-120490244D01*
X104802404Y-120567882D01*
X104772981Y-120586554D01*
X104747653Y-120606343D01*
X104637621Y-120672457D01*
X104531383Y-120739878D01*
X104503856Y-120752831D01*
X104480162Y-120767068D01*
X104358322Y-120821314D01*
X104240942Y-120876549D01*
X104216220Y-120884582D01*
X104195077Y-120893995D01*
X104062511Y-120934524D01*
X103935662Y-120975740D01*
X103914492Y-120979778D01*
X103896654Y-120985232D01*
X103754551Y-121010289D01*
X103620357Y-121035888D01*
X103603281Y-121036962D01*
X103589332Y-121039422D01*
X103438751Y-121047314D01*
X103300000Y-121056043D01*
X103287359Y-121055248D01*
X103277698Y-121055754D01*
X103118827Y-121044645D01*
X102979643Y-121035888D01*
X102971565Y-121034347D01*
X102966387Y-121033985D01*
X102793581Y-121000394D01*
X102664338Y-120975740D01*
X102660753Y-120974575D01*
X102660068Y-120974442D01*
X102363274Y-120878008D01*
X102362644Y-120877714D01*
X102359058Y-120876549D01*
X102239856Y-120820457D01*
X102080454Y-120746126D01*
X102076061Y-120743381D01*
X102068617Y-120739878D01*
X101950860Y-120665147D01*
X101815808Y-120580757D01*
X101808288Y-120574667D01*
X101797596Y-120567882D01*
X101690514Y-120479297D01*
X101573298Y-120384377D01*
X101563455Y-120374184D01*
X101550268Y-120363275D01*
X101456744Y-120263682D01*
X101356514Y-120159891D01*
X101345287Y-120144992D01*
X101330535Y-120129283D01*
X101252157Y-120021405D01*
X101168711Y-119910668D01*
X101157134Y-119890617D01*
X101141862Y-119869596D01*
X101079377Y-119755937D01*
X101012680Y-119640414D01*
X101001880Y-119614971D01*
X100987223Y-119588310D01*
X100940899Y-119471308D01*
X100890750Y-119353165D01*
X100881892Y-119322273D01*
X100869059Y-119289861D01*
X100838765Y-119171873D01*
X100804731Y-119053184D01*
X100799000Y-119016998D01*
X100789232Y-118978955D01*
X100774483Y-118862202D01*
X100755915Y-118744970D01*
X100754480Y-118703863D01*
X100749001Y-118660495D01*
X100749001Y-118546960D01*
X100745025Y-118433091D01*
X100749001Y-118387644D01*
X100749001Y-118339505D01*
X100762698Y-118231081D01*
X100772222Y-118122221D01*
X100782646Y-118073182D01*
X100789232Y-118021045D01*
X100815346Y-117919338D01*
X100837102Y-117816983D01*
X100854891Y-117765320D01*
X100869059Y-117710139D01*
X100906136Y-117616493D01*
X100938702Y-117521914D01*
X100964629Y-117468755D01*
X100987223Y-117411690D01*
X101033659Y-117327224D01*
X101075499Y-117241439D01*
X101110173Y-117188046D01*
X101141862Y-117130404D01*
X101195969Y-117055932D01*
X101245459Y-116979724D01*
X101289277Y-116927504D01*
X101330535Y-116870717D01*
X101390587Y-116806768D01*
X101446051Y-116740669D01*
X101499201Y-116691105D01*
X101550268Y-116636725D01*
X101614499Y-116583589D01*
X101674281Y-116527841D01*
X101736746Y-116482458D01*
X101797596Y-116432118D01*
X101864274Y-116389803D01*
X101926739Y-116344419D01*
X101998232Y-116304790D01*
X102068617Y-116260122D01*
X102136119Y-116228358D01*
X102199683Y-116193124D01*
X102279683Y-116160802D01*
X102359058Y-116123451D01*
X102425822Y-116101758D01*
X102489014Y-116076227D01*
X102576764Y-116052714D01*
X102664338Y-116024260D01*
X102728970Y-116011931D01*
X102790443Y-115995459D01*
X102884923Y-115982181D01*
X102979643Y-115964112D01*
X103040926Y-115960256D01*
X103099475Y-115952028D01*
X103199458Y-115950283D01*
X103300000Y-115943957D01*
X103356864Y-115947535D01*
G37*
G36*
X179256864Y-115947535D02*
G01*
X179311487Y-115946581D01*
X179415543Y-115957518D01*
X179520357Y-115964112D01*
X179571983Y-115973960D01*
X179621836Y-115979200D01*
X179728308Y-116003781D01*
X179835662Y-116024260D01*
X179881442Y-116039135D01*
X179925897Y-116049398D01*
X180032958Y-116088365D01*
X180140942Y-116123451D01*
X180180504Y-116142067D01*
X180219146Y-116156132D01*
X180324869Y-116210001D01*
X180431383Y-116260122D01*
X180464555Y-116281174D01*
X180497194Y-116297804D01*
X180599555Y-116366848D01*
X180702404Y-116432118D01*
X180729261Y-116454336D01*
X180755901Y-116472305D01*
X180852757Y-116556500D01*
X180949732Y-116636725D01*
X180970562Y-116658907D01*
X180991422Y-116677040D01*
X181080665Y-116776155D01*
X181169465Y-116870717D01*
X181184741Y-116891743D01*
X181200229Y-116908944D01*
X181279764Y-117022531D01*
X181358138Y-117130404D01*
X181368516Y-117149281D01*
X181379222Y-117164571D01*
X181446989Y-117292023D01*
X181512777Y-117411690D01*
X181519075Y-117427598D01*
X181525725Y-117440104D01*
X181579764Y-117580879D01*
X181630941Y-117710139D01*
X181634091Y-117722406D01*
X181637560Y-117731444D01*
X181676111Y-117886066D01*
X181710768Y-118021045D01*
X181711798Y-118029199D01*
X181713054Y-118034236D01*
X181734511Y-118208992D01*
X181750999Y-118339505D01*
X181750999Y-118660495D01*
X181740345Y-118744834D01*
X181739137Y-118790948D01*
X181722851Y-118883311D01*
X181710768Y-118978955D01*
X181695501Y-119038415D01*
X181685232Y-119096654D01*
X181655992Y-119192294D01*
X181630941Y-119289861D01*
X181609966Y-119342837D01*
X181593995Y-119395077D01*
X181551441Y-119490656D01*
X181512777Y-119588310D01*
X181487458Y-119634365D01*
X181467068Y-119680162D01*
X181410781Y-119773839D01*
X181358138Y-119869596D01*
X181329849Y-119908533D01*
X181306343Y-119947653D01*
X181236181Y-120037456D01*
X181169465Y-120129283D01*
X181139542Y-120161148D01*
X181114225Y-120193552D01*
X181030327Y-120277450D01*
X180949732Y-120363275D01*
X180919454Y-120388323D01*
X180893552Y-120414225D01*
X180796253Y-120490244D01*
X180702404Y-120567882D01*
X180672981Y-120586554D01*
X180647653Y-120606343D01*
X180537621Y-120672457D01*
X180431383Y-120739878D01*
X180403856Y-120752831D01*
X180380162Y-120767068D01*
X180258322Y-120821314D01*
X180140942Y-120876549D01*
X180116220Y-120884582D01*
X180095077Y-120893995D01*
X179962511Y-120934524D01*
X179835662Y-120975740D01*
X179814492Y-120979778D01*
X179796654Y-120985232D01*
X179654551Y-121010289D01*
X179520357Y-121035888D01*
X179503281Y-121036962D01*
X179489332Y-121039422D01*
X179338751Y-121047314D01*
X179200000Y-121056043D01*
X179187359Y-121055248D01*
X179177698Y-121055754D01*
X179018827Y-121044645D01*
X178879643Y-121035888D01*
X178871565Y-121034347D01*
X178866387Y-121033985D01*
X178693581Y-121000394D01*
X178564338Y-120975740D01*
X178560753Y-120974575D01*
X178560068Y-120974442D01*
X178263274Y-120878008D01*
X178262644Y-120877714D01*
X178259058Y-120876549D01*
X178139856Y-120820457D01*
X177980454Y-120746126D01*
X177976061Y-120743381D01*
X177968617Y-120739878D01*
X177850860Y-120665147D01*
X177715808Y-120580757D01*
X177708288Y-120574667D01*
X177697596Y-120567882D01*
X177590514Y-120479297D01*
X177473298Y-120384377D01*
X177463455Y-120374184D01*
X177450268Y-120363275D01*
X177356744Y-120263682D01*
X177256514Y-120159891D01*
X177245287Y-120144992D01*
X177230535Y-120129283D01*
X177152157Y-120021405D01*
X177068711Y-119910668D01*
X177057134Y-119890617D01*
X177041862Y-119869596D01*
X176979377Y-119755937D01*
X176912680Y-119640414D01*
X176901880Y-119614971D01*
X176887223Y-119588310D01*
X176840899Y-119471308D01*
X176790750Y-119353165D01*
X176781892Y-119322273D01*
X176769059Y-119289861D01*
X176738765Y-119171873D01*
X176704731Y-119053184D01*
X176699000Y-119016998D01*
X176689232Y-118978955D01*
X176674483Y-118862202D01*
X176655915Y-118744970D01*
X176654480Y-118703863D01*
X176649001Y-118660495D01*
X176649001Y-118546960D01*
X176645025Y-118433091D01*
X176649001Y-118387644D01*
X176649001Y-118339505D01*
X176662698Y-118231081D01*
X176672222Y-118122221D01*
X176682646Y-118073182D01*
X176689232Y-118021045D01*
X176715346Y-117919338D01*
X176737102Y-117816983D01*
X176754891Y-117765320D01*
X176769059Y-117710139D01*
X176806136Y-117616493D01*
X176838702Y-117521914D01*
X176864629Y-117468755D01*
X176887223Y-117411690D01*
X176933659Y-117327224D01*
X176975499Y-117241439D01*
X177010173Y-117188046D01*
X177041862Y-117130404D01*
X177095969Y-117055932D01*
X177145459Y-116979724D01*
X177189277Y-116927504D01*
X177230535Y-116870717D01*
X177290587Y-116806768D01*
X177346051Y-116740669D01*
X177399201Y-116691105D01*
X177450268Y-116636725D01*
X177514499Y-116583589D01*
X177574281Y-116527841D01*
X177636746Y-116482458D01*
X177697596Y-116432118D01*
X177764274Y-116389803D01*
X177826739Y-116344419D01*
X177898232Y-116304790D01*
X177968617Y-116260122D01*
X178036119Y-116228358D01*
X178099683Y-116193124D01*
X178179683Y-116160802D01*
X178259058Y-116123451D01*
X178325822Y-116101758D01*
X178389014Y-116076227D01*
X178476764Y-116052714D01*
X178564338Y-116024260D01*
X178628970Y-116011931D01*
X178690443Y-115995459D01*
X178784923Y-115982181D01*
X178879643Y-115964112D01*
X178940926Y-115960256D01*
X178999475Y-115952028D01*
X179099458Y-115950283D01*
X179200000Y-115943957D01*
X179256864Y-115947535D01*
G37*
M02*
