G04 #@! TF.GenerationSoftware,KiCad,Pcbnew,5.99.0-unknown-529461e~86~ubuntu18.04.1*
G04 #@! TF.CreationDate,2019-09-26T16:04:43-03:00*
G04 #@! TF.ProjectId,DPL,44504c2e-6b69-4636-9164-5f7063625858,rev?*
G04 #@! TF.SameCoordinates,Original*
G04 #@! TF.FileFunction,Legend,Top*
G04 #@! TF.FilePolarity,Positive*
%FSLAX46Y46*%
G04 Gerber Fmt 4.6, Leading zero omitted, Abs format (unit mm)*
G04 Created by KiCad (PCBNEW 5.99.0-unknown-529461e~86~ubuntu18.04.1) date 2019-09-26 16:04:43*
%MOMM*%
%LPD*%
G04 APERTURE LIST*
%ADD10C,0.150000*%
%ADD11C,0.300000*%
%ADD12C,0.200000*%
%ADD13C,0.120000*%
G04 APERTURE END LIST*
D10*
X167569047Y-127321428D02*
X168330952Y-127321428D01*
X167950000Y-127702380D02*
X167950000Y-126940476D01*
X167669047Y-43721428D02*
X168430952Y-43721428D01*
X175764285Y-126702380D02*
X176097619Y-127702380D01*
X176430952Y-126702380D01*
X176526190Y-127797619D02*
X177288095Y-127797619D01*
X177526190Y-127702380D02*
X177526190Y-126702380D01*
X178097619Y-127702380D01*
X178097619Y-126702380D01*
X178573809Y-127702380D02*
X178573809Y-127035714D01*
X178573809Y-126702380D02*
X178526190Y-126750000D01*
X178573809Y-126797619D01*
X178621428Y-126750000D01*
X178573809Y-126702380D01*
X178573809Y-126797619D01*
X179621428Y-127607142D02*
X179573809Y-127654761D01*
X179430952Y-127702380D01*
X179335714Y-127702380D01*
X179192857Y-127654761D01*
X179097619Y-127559523D01*
X179050000Y-127464285D01*
X179002380Y-127273809D01*
X179002380Y-127130952D01*
X179050000Y-126940476D01*
X179097619Y-126845238D01*
X179192857Y-126750000D01*
X179335714Y-126702380D01*
X179430952Y-126702380D01*
X179573809Y-126750000D01*
X179621428Y-126797619D01*
X180050000Y-127702380D02*
X180050000Y-127035714D01*
X180050000Y-127226190D02*
X180097619Y-127130952D01*
X180145238Y-127083333D01*
X180240476Y-127035714D01*
X180335714Y-127035714D01*
X176288095Y-43150000D02*
X176192857Y-43102380D01*
X176050000Y-43102380D01*
X175907142Y-43150000D01*
X175811904Y-43245238D01*
X175764285Y-43340476D01*
X175716666Y-43530952D01*
X175716666Y-43673809D01*
X175764285Y-43864285D01*
X175811904Y-43959523D01*
X175907142Y-44054761D01*
X176050000Y-44102380D01*
X176145238Y-44102380D01*
X176288095Y-44054761D01*
X176335714Y-44007142D01*
X176335714Y-43673809D01*
X176145238Y-43673809D01*
X176764285Y-44102380D02*
X176764285Y-43102380D01*
X177335714Y-44102380D01*
X177335714Y-43102380D01*
X177811904Y-44102380D02*
X177811904Y-43102380D01*
X178050000Y-43102380D01*
X178192857Y-43150000D01*
X178288095Y-43245238D01*
X178335714Y-43340476D01*
X178383333Y-43530952D01*
X178383333Y-43673809D01*
X178335714Y-43864285D01*
X178288095Y-43959523D01*
X178192857Y-44054761D01*
X178050000Y-44102380D01*
X177811904Y-44102380D01*
X132741666Y-99634523D02*
X133025000Y-100484523D01*
X133308333Y-99634523D01*
X133591666Y-99634523D02*
X133591666Y-100322619D01*
X133632142Y-100403571D01*
X133672619Y-100444047D01*
X133753571Y-100484523D01*
X133915476Y-100484523D01*
X133996428Y-100444047D01*
X134036904Y-100403571D01*
X134077380Y-100322619D01*
X134077380Y-99634523D01*
X134441666Y-100444047D02*
X134563095Y-100484523D01*
X134765476Y-100484523D01*
X134846428Y-100444047D01*
X134886904Y-100403571D01*
X134927380Y-100322619D01*
X134927380Y-100241666D01*
X134886904Y-100160714D01*
X134846428Y-100120238D01*
X134765476Y-100079761D01*
X134603571Y-100039285D01*
X134522619Y-99998809D01*
X134482142Y-99958333D01*
X134441666Y-99877380D01*
X134441666Y-99796428D01*
X134482142Y-99715476D01*
X134522619Y-99675000D01*
X134603571Y-99634523D01*
X134805952Y-99634523D01*
X134927380Y-99675000D01*
X135575000Y-100039285D02*
X135696428Y-100079761D01*
X135736904Y-100120238D01*
X135777380Y-100201190D01*
X135777380Y-100322619D01*
X135736904Y-100403571D01*
X135696428Y-100444047D01*
X135615476Y-100484523D01*
X135291666Y-100484523D01*
X135291666Y-99634523D01*
X135575000Y-99634523D01*
X135655952Y-99675000D01*
X135696428Y-99715476D01*
X135736904Y-99796428D01*
X135736904Y-99877380D01*
X135696428Y-99958333D01*
X135655952Y-99998809D01*
X135575000Y-100039285D01*
X135291666Y-100039285D01*
X130643333Y-99634523D02*
X130238571Y-99634523D01*
X130198095Y-100039285D01*
X130238571Y-99998809D01*
X130319523Y-99958333D01*
X130521904Y-99958333D01*
X130602857Y-99998809D01*
X130643333Y-100039285D01*
X130683809Y-100120238D01*
X130683809Y-100322619D01*
X130643333Y-100403571D01*
X130602857Y-100444047D01*
X130521904Y-100484523D01*
X130319523Y-100484523D01*
X130238571Y-100444047D01*
X130198095Y-100403571D01*
X130926666Y-99634523D02*
X131210000Y-100484523D01*
X131493333Y-99634523D01*
X131938571Y-99634523D02*
X132019523Y-99634523D01*
X132100476Y-99675000D01*
X132140952Y-99715476D01*
X132181428Y-99796428D01*
X132221904Y-99958333D01*
X132221904Y-100160714D01*
X132181428Y-100322619D01*
X132140952Y-100403571D01*
X132100476Y-100444047D01*
X132019523Y-100484523D01*
X131938571Y-100484523D01*
X131857619Y-100444047D01*
X131817142Y-100403571D01*
X131776666Y-100322619D01*
X131736190Y-100160714D01*
X131736190Y-99958333D01*
X131776666Y-99796428D01*
X131817142Y-99715476D01*
X131857619Y-99675000D01*
X131938571Y-99634523D01*
X127639047Y-99634523D02*
X127922380Y-100484523D01*
X128205714Y-99634523D01*
X128489047Y-100484523D02*
X128489047Y-99634523D01*
X128893809Y-100484523D02*
X128893809Y-99634523D01*
X129379523Y-100484523D01*
X129379523Y-99634523D01*
X158216428Y-77944047D02*
X158337857Y-77984523D01*
X158540238Y-77984523D01*
X158621190Y-77944047D01*
X158661666Y-77903571D01*
X158702142Y-77822619D01*
X158702142Y-77741666D01*
X158661666Y-77660714D01*
X158621190Y-77620238D01*
X158540238Y-77579761D01*
X158378333Y-77539285D01*
X158297380Y-77498809D01*
X158256904Y-77458333D01*
X158216428Y-77377380D01*
X158216428Y-77296428D01*
X158256904Y-77215476D01*
X158297380Y-77175000D01*
X158378333Y-77134523D01*
X158580714Y-77134523D01*
X158702142Y-77175000D01*
X158985476Y-77134523D02*
X159187857Y-77984523D01*
X159349761Y-77377380D01*
X159511666Y-77984523D01*
X159714047Y-77134523D01*
X160037857Y-77984523D02*
X160037857Y-77134523D01*
X160240238Y-77134523D01*
X160361666Y-77175000D01*
X160442619Y-77255952D01*
X160483095Y-77336904D01*
X160523571Y-77498809D01*
X160523571Y-77620238D01*
X160483095Y-77782142D01*
X160442619Y-77863095D01*
X160361666Y-77944047D01*
X160240238Y-77984523D01*
X160037857Y-77984523D01*
X155676428Y-77944047D02*
X155797857Y-77984523D01*
X156000238Y-77984523D01*
X156081190Y-77944047D01*
X156121666Y-77903571D01*
X156162142Y-77822619D01*
X156162142Y-77741666D01*
X156121666Y-77660714D01*
X156081190Y-77620238D01*
X156000238Y-77579761D01*
X155838333Y-77539285D01*
X155757380Y-77498809D01*
X155716904Y-77458333D01*
X155676428Y-77377380D01*
X155676428Y-77296428D01*
X155716904Y-77215476D01*
X155757380Y-77175000D01*
X155838333Y-77134523D01*
X156040714Y-77134523D01*
X156162142Y-77175000D01*
X156445476Y-77134523D02*
X156647857Y-77984523D01*
X156809761Y-77377380D01*
X156971666Y-77984523D01*
X157174047Y-77134523D01*
X157983571Y-77903571D02*
X157943095Y-77944047D01*
X157821666Y-77984523D01*
X157740714Y-77984523D01*
X157619285Y-77944047D01*
X157538333Y-77863095D01*
X157497857Y-77782142D01*
X157457380Y-77620238D01*
X157457380Y-77498809D01*
X157497857Y-77336904D01*
X157538333Y-77255952D01*
X157619285Y-77175000D01*
X157740714Y-77134523D01*
X157821666Y-77134523D01*
X157943095Y-77175000D01*
X157983571Y-77215476D01*
X153642380Y-77175000D02*
X153561428Y-77134523D01*
X153440000Y-77134523D01*
X153318571Y-77175000D01*
X153237619Y-77255952D01*
X153197142Y-77336904D01*
X153156666Y-77498809D01*
X153156666Y-77620238D01*
X153197142Y-77782142D01*
X153237619Y-77863095D01*
X153318571Y-77944047D01*
X153440000Y-77984523D01*
X153520952Y-77984523D01*
X153642380Y-77944047D01*
X153682857Y-77903571D01*
X153682857Y-77620238D01*
X153520952Y-77620238D01*
X154047142Y-77984523D02*
X154047142Y-77134523D01*
X154532857Y-77984523D01*
X154532857Y-77134523D01*
X154937619Y-77984523D02*
X154937619Y-77134523D01*
X155140000Y-77134523D01*
X155261428Y-77175000D01*
X155342380Y-77255952D01*
X155382857Y-77336904D01*
X155423333Y-77498809D01*
X155423333Y-77620238D01*
X155382857Y-77782142D01*
X155342380Y-77863095D01*
X155261428Y-77944047D01*
X155140000Y-77984523D01*
X154937619Y-77984523D01*
X150697619Y-77134523D02*
X151223809Y-77134523D01*
X150940476Y-77458333D01*
X151061904Y-77458333D01*
X151142857Y-77498809D01*
X151183333Y-77539285D01*
X151223809Y-77620238D01*
X151223809Y-77822619D01*
X151183333Y-77903571D01*
X151142857Y-77944047D01*
X151061904Y-77984523D01*
X150819047Y-77984523D01*
X150738095Y-77944047D01*
X150697619Y-77903571D01*
X151466666Y-77134523D02*
X151750000Y-77984523D01*
X152033333Y-77134523D01*
X152235714Y-77134523D02*
X152761904Y-77134523D01*
X152478571Y-77458333D01*
X152600000Y-77458333D01*
X152680952Y-77498809D01*
X152721428Y-77539285D01*
X152761904Y-77620238D01*
X152761904Y-77822619D01*
X152721428Y-77903571D01*
X152680952Y-77944047D01*
X152600000Y-77984523D01*
X152357142Y-77984523D01*
X152276190Y-77944047D01*
X152235714Y-77903571D01*
X148744523Y-77984523D02*
X148461190Y-77579761D01*
X148258809Y-77984523D02*
X148258809Y-77134523D01*
X148582619Y-77134523D01*
X148663571Y-77175000D01*
X148704047Y-77215476D01*
X148744523Y-77296428D01*
X148744523Y-77417857D01*
X148704047Y-77498809D01*
X148663571Y-77539285D01*
X148582619Y-77579761D01*
X148258809Y-77579761D01*
X149068333Y-77944047D02*
X149189761Y-77984523D01*
X149392142Y-77984523D01*
X149473095Y-77944047D01*
X149513571Y-77903571D01*
X149554047Y-77822619D01*
X149554047Y-77741666D01*
X149513571Y-77660714D01*
X149473095Y-77620238D01*
X149392142Y-77579761D01*
X149230238Y-77539285D01*
X149149285Y-77498809D01*
X149108809Y-77458333D01*
X149068333Y-77377380D01*
X149068333Y-77296428D01*
X149108809Y-77215476D01*
X149149285Y-77175000D01*
X149230238Y-77134523D01*
X149432619Y-77134523D01*
X149554047Y-77175000D01*
X149796904Y-77134523D02*
X150282619Y-77134523D01*
X150039761Y-77984523D02*
X150039761Y-77134523D01*
X121444761Y-50302380D02*
X121778095Y-51302380D01*
X122111428Y-50302380D01*
X122444761Y-51302380D02*
X122444761Y-50302380D01*
X122920952Y-51302380D02*
X122920952Y-50302380D01*
X123492380Y-51302380D01*
X123492380Y-50302380D01*
X115200000Y-78819523D02*
X115161904Y-78895714D01*
X115161904Y-79010000D01*
X115200000Y-79124285D01*
X115276190Y-79200476D01*
X115352380Y-79238571D01*
X115504761Y-79276666D01*
X115619047Y-79276666D01*
X115771428Y-79238571D01*
X115847619Y-79200476D01*
X115923809Y-79124285D01*
X115961904Y-79010000D01*
X115961904Y-78933809D01*
X115923809Y-78819523D01*
X115885714Y-78781428D01*
X115619047Y-78781428D01*
X115619047Y-78933809D01*
X115961904Y-78438571D02*
X115161904Y-78438571D01*
X115961904Y-77981428D01*
X115161904Y-77981428D01*
X115961904Y-77600476D02*
X115161904Y-77600476D01*
X115161904Y-77410000D01*
X115200000Y-77295714D01*
X115276190Y-77219523D01*
X115352380Y-77181428D01*
X115504761Y-77143333D01*
X115619047Y-77143333D01*
X115771428Y-77181428D01*
X115847619Y-77219523D01*
X115923809Y-77295714D01*
X115961904Y-77410000D01*
X115961904Y-77600476D01*
X115200000Y-81359523D02*
X115161904Y-81435714D01*
X115161904Y-81550000D01*
X115200000Y-81664285D01*
X115276190Y-81740476D01*
X115352380Y-81778571D01*
X115504761Y-81816666D01*
X115619047Y-81816666D01*
X115771428Y-81778571D01*
X115847619Y-81740476D01*
X115923809Y-81664285D01*
X115961904Y-81550000D01*
X115961904Y-81473809D01*
X115923809Y-81359523D01*
X115885714Y-81321428D01*
X115619047Y-81321428D01*
X115619047Y-81473809D01*
X115961904Y-80978571D02*
X115161904Y-80978571D01*
X115961904Y-80521428D01*
X115161904Y-80521428D01*
X115961904Y-80140476D02*
X115161904Y-80140476D01*
X115161904Y-79950000D01*
X115200000Y-79835714D01*
X115276190Y-79759523D01*
X115352380Y-79721428D01*
X115504761Y-79683333D01*
X115619047Y-79683333D01*
X115771428Y-79721428D01*
X115847619Y-79759523D01*
X115923809Y-79835714D01*
X115961904Y-79950000D01*
X115961904Y-80140476D01*
X126635714Y-65914761D02*
X126778571Y-65962380D01*
X127016666Y-65962380D01*
X127111904Y-65914761D01*
X127159523Y-65867142D01*
X127207142Y-65771904D01*
X127207142Y-65676666D01*
X127159523Y-65581428D01*
X127111904Y-65533809D01*
X127016666Y-65486190D01*
X126826190Y-65438571D01*
X126730952Y-65390952D01*
X126683333Y-65343333D01*
X126635714Y-65248095D01*
X126635714Y-65152857D01*
X126683333Y-65057619D01*
X126730952Y-65010000D01*
X126826190Y-64962380D01*
X127064285Y-64962380D01*
X127207142Y-65010000D01*
X127635714Y-65962380D02*
X127635714Y-64962380D01*
X127873809Y-64962380D01*
X128016666Y-65010000D01*
X128111904Y-65105238D01*
X128159523Y-65200476D01*
X128207142Y-65390952D01*
X128207142Y-65533809D01*
X128159523Y-65724285D01*
X128111904Y-65819523D01*
X128016666Y-65914761D01*
X127873809Y-65962380D01*
X127635714Y-65962380D01*
X128588095Y-65676666D02*
X129064285Y-65676666D01*
X128492857Y-65962380D02*
X128826190Y-64962380D01*
X129159523Y-65962380D01*
X126659523Y-63374761D02*
X126802380Y-63422380D01*
X127040476Y-63422380D01*
X127135714Y-63374761D01*
X127183333Y-63327142D01*
X127230952Y-63231904D01*
X127230952Y-63136666D01*
X127183333Y-63041428D01*
X127135714Y-62993809D01*
X127040476Y-62946190D01*
X126850000Y-62898571D01*
X126754761Y-62850952D01*
X126707142Y-62803333D01*
X126659523Y-62708095D01*
X126659523Y-62612857D01*
X126707142Y-62517619D01*
X126754761Y-62470000D01*
X126850000Y-62422380D01*
X127088095Y-62422380D01*
X127230952Y-62470000D01*
X128230952Y-63327142D02*
X128183333Y-63374761D01*
X128040476Y-63422380D01*
X127945238Y-63422380D01*
X127802380Y-63374761D01*
X127707142Y-63279523D01*
X127659523Y-63184285D01*
X127611904Y-62993809D01*
X127611904Y-62850952D01*
X127659523Y-62660476D01*
X127707142Y-62565238D01*
X127802380Y-62470000D01*
X127945238Y-62422380D01*
X128040476Y-62422380D01*
X128183333Y-62470000D01*
X128230952Y-62517619D01*
X129135714Y-63422380D02*
X128659523Y-63422380D01*
X128659523Y-62422380D01*
X132999523Y-45447619D02*
X132999523Y-46447619D01*
X132666190Y-45733333D01*
X132332857Y-46447619D01*
X132332857Y-45447619D01*
X131666190Y-46447619D02*
X131475714Y-46447619D01*
X131380476Y-46400000D01*
X131285238Y-46304761D01*
X131237619Y-46114285D01*
X131237619Y-45780952D01*
X131285238Y-45590476D01*
X131380476Y-45495238D01*
X131475714Y-45447619D01*
X131666190Y-45447619D01*
X131761428Y-45495238D01*
X131856666Y-45590476D01*
X131904285Y-45780952D01*
X131904285Y-46114285D01*
X131856666Y-46304761D01*
X131761428Y-46400000D01*
X131666190Y-46447619D01*
X130856666Y-45495238D02*
X130713809Y-45447619D01*
X130475714Y-45447619D01*
X130380476Y-45495238D01*
X130332857Y-45542857D01*
X130285238Y-45638095D01*
X130285238Y-45733333D01*
X130332857Y-45828571D01*
X130380476Y-45876190D01*
X130475714Y-45923809D01*
X130666190Y-45971428D01*
X130761428Y-46019047D01*
X130809047Y-46066666D01*
X130856666Y-46161904D01*
X130856666Y-46257142D01*
X130809047Y-46352380D01*
X130761428Y-46400000D01*
X130666190Y-46447619D01*
X130428095Y-46447619D01*
X130285238Y-46400000D01*
X129904285Y-46352380D02*
X129856666Y-46400000D01*
X129761428Y-46447619D01*
X129523333Y-46447619D01*
X129428095Y-46400000D01*
X129380476Y-46352380D01*
X129332857Y-46257142D01*
X129332857Y-46161904D01*
X129380476Y-46019047D01*
X129951904Y-45447619D01*
X129332857Y-45447619D01*
X138555714Y-46447619D02*
X138222380Y-45447619D01*
X137889047Y-46447619D01*
X137793809Y-45352380D02*
X137031904Y-45352380D01*
X136793809Y-45447619D02*
X136793809Y-46447619D01*
X136222380Y-45447619D01*
X136222380Y-46447619D01*
X135746190Y-45447619D02*
X135746190Y-46114285D01*
X135746190Y-46447619D02*
X135793809Y-46400000D01*
X135746190Y-46352380D01*
X135698571Y-46400000D01*
X135746190Y-46447619D01*
X135746190Y-46352380D01*
X134698571Y-45542857D02*
X134746190Y-45495238D01*
X134889047Y-45447619D01*
X134984285Y-45447619D01*
X135127142Y-45495238D01*
X135222380Y-45590476D01*
X135270000Y-45685714D01*
X135317619Y-45876190D01*
X135317619Y-46019047D01*
X135270000Y-46209523D01*
X135222380Y-46304761D01*
X135127142Y-46400000D01*
X134984285Y-46447619D01*
X134889047Y-46447619D01*
X134746190Y-46400000D01*
X134698571Y-46352380D01*
X134270000Y-45447619D02*
X134270000Y-46114285D01*
X134270000Y-45923809D02*
X134222380Y-46019047D01*
X134174761Y-46066666D01*
X134079523Y-46114285D01*
X133984285Y-46114285D01*
X142921428Y-45495238D02*
X142778571Y-45447619D01*
X142540476Y-45447619D01*
X142445238Y-45495238D01*
X142397619Y-45542857D01*
X142350000Y-45638095D01*
X142350000Y-45733333D01*
X142397619Y-45828571D01*
X142445238Y-45876190D01*
X142540476Y-45923809D01*
X142730952Y-45971428D01*
X142826190Y-46019047D01*
X142873809Y-46066666D01*
X142921428Y-46161904D01*
X142921428Y-46257142D01*
X142873809Y-46352380D01*
X142826190Y-46400000D01*
X142730952Y-46447619D01*
X142492857Y-46447619D01*
X142350000Y-46400000D01*
X142064285Y-46447619D02*
X141492857Y-46447619D01*
X141778571Y-45447619D02*
X141778571Y-46447619D01*
X141207142Y-45733333D02*
X140730952Y-45733333D01*
X141302380Y-45447619D02*
X140969047Y-46447619D01*
X140635714Y-45447619D01*
X140350000Y-46352380D02*
X140302380Y-46400000D01*
X140207142Y-46447619D01*
X139969047Y-46447619D01*
X139873809Y-46400000D01*
X139826190Y-46352380D01*
X139778571Y-46257142D01*
X139778571Y-46161904D01*
X139826190Y-46019047D01*
X140397619Y-45447619D01*
X139778571Y-45447619D01*
X201652380Y-59649523D02*
X200652380Y-59649523D01*
X201366666Y-59316190D01*
X200652380Y-58982857D01*
X201652380Y-58982857D01*
X200652380Y-58316190D02*
X200652380Y-58125714D01*
X200700000Y-58030476D01*
X200795238Y-57935238D01*
X200985714Y-57887619D01*
X201319047Y-57887619D01*
X201509523Y-57935238D01*
X201604761Y-58030476D01*
X201652380Y-58125714D01*
X201652380Y-58316190D01*
X201604761Y-58411428D01*
X201509523Y-58506666D01*
X201319047Y-58554285D01*
X200985714Y-58554285D01*
X200795238Y-58506666D01*
X200700000Y-58411428D01*
X200652380Y-58316190D01*
X201604761Y-57506666D02*
X201652380Y-57363809D01*
X201652380Y-57125714D01*
X201604761Y-57030476D01*
X201557142Y-56982857D01*
X201461904Y-56935238D01*
X201366666Y-56935238D01*
X201271428Y-56982857D01*
X201223809Y-57030476D01*
X201176190Y-57125714D01*
X201128571Y-57316190D01*
X201080952Y-57411428D01*
X201033333Y-57459047D01*
X200938095Y-57506666D01*
X200842857Y-57506666D01*
X200747619Y-57459047D01*
X200700000Y-57411428D01*
X200652380Y-57316190D01*
X200652380Y-57078095D01*
X200700000Y-56935238D01*
X201652380Y-55982857D02*
X201652380Y-56554285D01*
X201652380Y-56268571D02*
X200652380Y-56268571D01*
X200795238Y-56363809D01*
X200890476Y-56459047D01*
X200938095Y-56554285D01*
X200652380Y-65205714D02*
X201652380Y-64872380D01*
X200652380Y-64539047D01*
X201747619Y-64443809D02*
X201747619Y-63681904D01*
X201652380Y-63443809D02*
X200652380Y-63443809D01*
X201652380Y-62872380D01*
X200652380Y-62872380D01*
X201652380Y-62396190D02*
X200985714Y-62396190D01*
X200652380Y-62396190D02*
X200700000Y-62443809D01*
X200747619Y-62396190D01*
X200700000Y-62348571D01*
X200652380Y-62396190D01*
X200747619Y-62396190D01*
X201557142Y-61348571D02*
X201604761Y-61396190D01*
X201652380Y-61539047D01*
X201652380Y-61634285D01*
X201604761Y-61777142D01*
X201509523Y-61872380D01*
X201414285Y-61920000D01*
X201223809Y-61967619D01*
X201080952Y-61967619D01*
X200890476Y-61920000D01*
X200795238Y-61872380D01*
X200700000Y-61777142D01*
X200652380Y-61634285D01*
X200652380Y-61539047D01*
X200700000Y-61396190D01*
X200747619Y-61348571D01*
X201652380Y-60920000D02*
X200985714Y-60920000D01*
X201176190Y-60920000D02*
X201080952Y-60872380D01*
X201033333Y-60824761D01*
X200985714Y-60729523D01*
X200985714Y-60634285D01*
X201604761Y-69571428D02*
X201652380Y-69428571D01*
X201652380Y-69190476D01*
X201604761Y-69095238D01*
X201557142Y-69047619D01*
X201461904Y-69000000D01*
X201366666Y-69000000D01*
X201271428Y-69047619D01*
X201223809Y-69095238D01*
X201176190Y-69190476D01*
X201128571Y-69380952D01*
X201080952Y-69476190D01*
X201033333Y-69523809D01*
X200938095Y-69571428D01*
X200842857Y-69571428D01*
X200747619Y-69523809D01*
X200700000Y-69476190D01*
X200652380Y-69380952D01*
X200652380Y-69142857D01*
X200700000Y-69000000D01*
X200652380Y-68714285D02*
X200652380Y-68142857D01*
X201652380Y-68428571D02*
X200652380Y-68428571D01*
X201366666Y-67857142D02*
X201366666Y-67380952D01*
X201652380Y-67952380D02*
X200652380Y-67619047D01*
X201652380Y-67285714D01*
X201652380Y-66428571D02*
X201652380Y-67000000D01*
X201652380Y-66714285D02*
X200652380Y-66714285D01*
X200795238Y-66809523D01*
X200890476Y-66904761D01*
X200938095Y-67000000D01*
X194940476Y-123402380D02*
X194940476Y-122402380D01*
X195273809Y-123116666D01*
X195607142Y-122402380D01*
X195607142Y-123402380D01*
X196273809Y-122402380D02*
X196464285Y-122402380D01*
X196559523Y-122450000D01*
X196654761Y-122545238D01*
X196702380Y-122735714D01*
X196702380Y-123069047D01*
X196654761Y-123259523D01*
X196559523Y-123354761D01*
X196464285Y-123402380D01*
X196273809Y-123402380D01*
X196178571Y-123354761D01*
X196083333Y-123259523D01*
X196035714Y-123069047D01*
X196035714Y-122735714D01*
X196083333Y-122545238D01*
X196178571Y-122450000D01*
X196273809Y-122402380D01*
X197083333Y-123354761D02*
X197226190Y-123402380D01*
X197464285Y-123402380D01*
X197559523Y-123354761D01*
X197607142Y-123307142D01*
X197654761Y-123211904D01*
X197654761Y-123116666D01*
X197607142Y-123021428D01*
X197559523Y-122973809D01*
X197464285Y-122926190D01*
X197273809Y-122878571D01*
X197178571Y-122830952D01*
X197130952Y-122783333D01*
X197083333Y-122688095D01*
X197083333Y-122592857D01*
X197130952Y-122497619D01*
X197178571Y-122450000D01*
X197273809Y-122402380D01*
X197511904Y-122402380D01*
X197654761Y-122450000D01*
X198511904Y-122735714D02*
X198511904Y-123402380D01*
X198273809Y-122354761D02*
X198035714Y-123069047D01*
X198654761Y-123069047D01*
X189384285Y-122402380D02*
X189717619Y-123402380D01*
X190050952Y-122402380D01*
X190146190Y-123497619D02*
X190908095Y-123497619D01*
X191146190Y-123402380D02*
X191146190Y-122402380D01*
X191717619Y-123402380D01*
X191717619Y-122402380D01*
X192193809Y-123402380D02*
X192193809Y-122735714D01*
X192193809Y-122402380D02*
X192146190Y-122450000D01*
X192193809Y-122497619D01*
X192241428Y-122450000D01*
X192193809Y-122402380D01*
X192193809Y-122497619D01*
X193241428Y-123307142D02*
X193193809Y-123354761D01*
X193050952Y-123402380D01*
X192955714Y-123402380D01*
X192812857Y-123354761D01*
X192717619Y-123259523D01*
X192670000Y-123164285D01*
X192622380Y-122973809D01*
X192622380Y-122830952D01*
X192670000Y-122640476D01*
X192717619Y-122545238D01*
X192812857Y-122450000D01*
X192955714Y-122402380D01*
X193050952Y-122402380D01*
X193193809Y-122450000D01*
X193241428Y-122497619D01*
X193670000Y-123402380D02*
X193670000Y-122735714D01*
X193670000Y-122926190D02*
X193717619Y-122830952D01*
X193765238Y-122783333D01*
X193860476Y-122735714D01*
X193955714Y-122735714D01*
X185018571Y-123354761D02*
X185161428Y-123402380D01*
X185399523Y-123402380D01*
X185494761Y-123354761D01*
X185542380Y-123307142D01*
X185590000Y-123211904D01*
X185590000Y-123116666D01*
X185542380Y-123021428D01*
X185494761Y-122973809D01*
X185399523Y-122926190D01*
X185209047Y-122878571D01*
X185113809Y-122830952D01*
X185066190Y-122783333D01*
X185018571Y-122688095D01*
X185018571Y-122592857D01*
X185066190Y-122497619D01*
X185113809Y-122450000D01*
X185209047Y-122402380D01*
X185447142Y-122402380D01*
X185590000Y-122450000D01*
X185875714Y-122402380D02*
X186447142Y-122402380D01*
X186161428Y-123402380D02*
X186161428Y-122402380D01*
X186732857Y-123116666D02*
X187209047Y-123116666D01*
X186637619Y-123402380D02*
X186970952Y-122402380D01*
X187304285Y-123402380D01*
X188066190Y-122735714D02*
X188066190Y-123402380D01*
X187828095Y-122354761D02*
X187590000Y-123069047D01*
X188209047Y-123069047D01*
X132781428Y-125957142D02*
X132781428Y-125057142D01*
X133081428Y-125700000D01*
X133381428Y-125057142D01*
X133381428Y-125957142D01*
X133981428Y-125057142D02*
X134152857Y-125057142D01*
X134238571Y-125100000D01*
X134324285Y-125185714D01*
X134367142Y-125357142D01*
X134367142Y-125657142D01*
X134324285Y-125828571D01*
X134238571Y-125914285D01*
X134152857Y-125957142D01*
X133981428Y-125957142D01*
X133895714Y-125914285D01*
X133810000Y-125828571D01*
X133767142Y-125657142D01*
X133767142Y-125357142D01*
X133810000Y-125185714D01*
X133895714Y-125100000D01*
X133981428Y-125057142D01*
X134710000Y-125914285D02*
X134838571Y-125957142D01*
X135052857Y-125957142D01*
X135138571Y-125914285D01*
X135181428Y-125871428D01*
X135224285Y-125785714D01*
X135224285Y-125700000D01*
X135181428Y-125614285D01*
X135138571Y-125571428D01*
X135052857Y-125528571D01*
X134881428Y-125485714D01*
X134795714Y-125442857D01*
X134752857Y-125400000D01*
X134710000Y-125314285D01*
X134710000Y-125228571D01*
X134752857Y-125142857D01*
X134795714Y-125100000D01*
X134881428Y-125057142D01*
X135095714Y-125057142D01*
X135224285Y-125100000D01*
X135524285Y-125057142D02*
X136081428Y-125057142D01*
X135781428Y-125400000D01*
X135910000Y-125400000D01*
X135995714Y-125442857D01*
X136038571Y-125485714D01*
X136081428Y-125571428D01*
X136081428Y-125785714D01*
X136038571Y-125871428D01*
X135995714Y-125914285D01*
X135910000Y-125957142D01*
X135652857Y-125957142D01*
X135567142Y-125914285D01*
X135524285Y-125871428D01*
X127272857Y-125057142D02*
X127572857Y-125957142D01*
X127872857Y-125057142D01*
X127958571Y-126042857D02*
X128644285Y-126042857D01*
X128858571Y-125957142D02*
X128858571Y-125057142D01*
X129372857Y-125957142D01*
X129372857Y-125057142D01*
X129801428Y-125957142D02*
X129801428Y-125357142D01*
X129801428Y-125057142D02*
X129758571Y-125100000D01*
X129801428Y-125142857D01*
X129844285Y-125100000D01*
X129801428Y-125057142D01*
X129801428Y-125142857D01*
X130744285Y-125871428D02*
X130701428Y-125914285D01*
X130572857Y-125957142D01*
X130487142Y-125957142D01*
X130358571Y-125914285D01*
X130272857Y-125828571D01*
X130230000Y-125742857D01*
X130187142Y-125571428D01*
X130187142Y-125442857D01*
X130230000Y-125271428D01*
X130272857Y-125185714D01*
X130358571Y-125100000D01*
X130487142Y-125057142D01*
X130572857Y-125057142D01*
X130701428Y-125100000D01*
X130744285Y-125142857D01*
X131130000Y-125957142D02*
X131130000Y-125357142D01*
X131130000Y-125528571D02*
X131172857Y-125442857D01*
X131215714Y-125400000D01*
X131301428Y-125357142D01*
X131387142Y-125357142D01*
X122835714Y-125914285D02*
X122964285Y-125957142D01*
X123178571Y-125957142D01*
X123264285Y-125914285D01*
X123307142Y-125871428D01*
X123350000Y-125785714D01*
X123350000Y-125700000D01*
X123307142Y-125614285D01*
X123264285Y-125571428D01*
X123178571Y-125528571D01*
X123007142Y-125485714D01*
X122921428Y-125442857D01*
X122878571Y-125400000D01*
X122835714Y-125314285D01*
X122835714Y-125228571D01*
X122878571Y-125142857D01*
X122921428Y-125100000D01*
X123007142Y-125057142D01*
X123221428Y-125057142D01*
X123350000Y-125100000D01*
X123607142Y-125057142D02*
X124121428Y-125057142D01*
X123864285Y-125957142D02*
X123864285Y-125057142D01*
X124378571Y-125700000D02*
X124807142Y-125700000D01*
X124292857Y-125957142D02*
X124592857Y-125057142D01*
X124892857Y-125957142D01*
X125107142Y-125057142D02*
X125664285Y-125057142D01*
X125364285Y-125400000D01*
X125492857Y-125400000D01*
X125578571Y-125442857D01*
X125621428Y-125485714D01*
X125664285Y-125571428D01*
X125664285Y-125785714D01*
X125621428Y-125871428D01*
X125578571Y-125914285D01*
X125492857Y-125957142D01*
X125235714Y-125957142D01*
X125150000Y-125914285D01*
X125107142Y-125871428D01*
D11*
X125985714Y-128564285D02*
X125985714Y-126764285D01*
X126414285Y-126764285D01*
X126671428Y-126850000D01*
X126842857Y-127021428D01*
X126928571Y-127192857D01*
X127014285Y-127535714D01*
X127014285Y-127792857D01*
X126928571Y-128135714D01*
X126842857Y-128307142D01*
X126671428Y-128478571D01*
X126414285Y-128564285D01*
X125985714Y-128564285D01*
X127785714Y-128564285D02*
X127785714Y-126764285D01*
X128471428Y-126764285D01*
X128642857Y-126850000D01*
X128728571Y-126935714D01*
X128814285Y-127107142D01*
X128814285Y-127364285D01*
X128728571Y-127535714D01*
X128642857Y-127621428D01*
X128471428Y-127707142D01*
X127785714Y-127707142D01*
X130442857Y-128564285D02*
X129585714Y-128564285D01*
X129585714Y-126764285D01*
X132242857Y-127364285D02*
X132671428Y-128564285D01*
X133100000Y-127364285D01*
X133699999Y-126935714D02*
X133785714Y-126850000D01*
X133957142Y-126764285D01*
X134385714Y-126764285D01*
X134557142Y-126850000D01*
X134642857Y-126935714D01*
X134728571Y-127107142D01*
X134728571Y-127278571D01*
X134642857Y-127535714D01*
X133614285Y-128564285D01*
X134728571Y-128564285D01*
X135500000Y-128392857D02*
X135585714Y-128478571D01*
X135500000Y-128564285D01*
X135414285Y-128478571D01*
X135500000Y-128392857D01*
X135500000Y-128564285D01*
X136700000Y-126764285D02*
X136871428Y-126764285D01*
X137042857Y-126850000D01*
X137128571Y-126935714D01*
X137214285Y-127107142D01*
X137300000Y-127450000D01*
X137300000Y-127878571D01*
X137214285Y-128221428D01*
X137128571Y-128392857D01*
X137042857Y-128478571D01*
X136871428Y-128564285D01*
X136700000Y-128564285D01*
X136528571Y-128478571D01*
X136442857Y-128392857D01*
X136357142Y-128221428D01*
X136271428Y-127878571D01*
X136271428Y-127450000D01*
X136357142Y-127107142D01*
X136442857Y-126935714D01*
X136528571Y-126850000D01*
X136700000Y-126764285D01*
D12*
X116190000Y-51540000D02*
X126350000Y-51540000D01*
X126350000Y-51540000D02*
X126350000Y-117580000D01*
X126350000Y-117580000D02*
X116190000Y-117580000D01*
X116190000Y-117580000D02*
X116190000Y-51540000D01*
X121270000Y-51540000D02*
X121270000Y-117580000D01*
X120680000Y-47730000D02*
G75*
G03X120680000Y-47730000I-3200000J0D01*
G01*
X120680000Y-121390000D02*
G75*
G03X120680000Y-121390000I-3200000J0D01*
G01*
X206410000Y-125200000D02*
G75*
G03X206410000Y-125200000I-3200000J0D01*
G01*
X206410000Y-45190000D02*
G75*
G03X206410000Y-45190000I-3200000J0D01*
G01*
D10*
X161830000Y-46340000D02*
X161830000Y-123390000D01*
X161830000Y-123390000D02*
X182480000Y-123390000D01*
X182480000Y-123390000D02*
X182480000Y-46340000D01*
X182480000Y-46340000D02*
X161830000Y-46340000D01*
D13*
X152224214Y-68150000D02*
G75*
G03X152224214Y-68150000I-1414214J0D01*
G01*
X153930000Y-71120000D02*
X153930000Y-65180000D01*
X147690000Y-71120000D02*
X147690000Y-65180000D01*
X152150000Y-71270000D02*
X149470000Y-71270000D01*
X149470000Y-65030000D02*
X152150000Y-65030000D01*
X147575000Y-87800000D02*
X146475000Y-87800000D01*
X147575000Y-85900000D02*
X146475000Y-85900000D01*
X149725000Y-87750000D02*
X149725000Y-85950000D01*
X131350000Y-105520000D02*
X132550000Y-105520000D01*
X132550000Y-105520000D02*
X132550000Y-108220000D01*
X127750000Y-109520000D02*
X127750000Y-105520000D01*
X127750000Y-105520000D02*
X128950000Y-105520000D01*
D10*
X148250000Y-90285000D02*
X148025000Y-90285000D01*
X148250000Y-97535000D02*
X147925000Y-97535000D01*
X141000000Y-97535000D02*
X141325000Y-97535000D01*
X141000000Y-90285000D02*
X141325000Y-90285000D01*
X148250000Y-90285000D02*
X148250000Y-90610000D01*
X141000000Y-90285000D02*
X141000000Y-90610000D01*
X141000000Y-97535000D02*
X141000000Y-97210000D01*
X148250000Y-97535000D02*
X148250000Y-97210000D01*
X148025000Y-90285000D02*
X148025000Y-88860000D01*
D13*
X142010000Y-101428733D02*
X142010000Y-101771267D01*
X140990000Y-101428733D02*
X140990000Y-101771267D01*
X196921267Y-110210000D02*
X196578733Y-110210000D01*
X196921267Y-109190000D02*
X196578733Y-109190000D01*
X136171267Y-96420000D02*
X135828733Y-96420000D01*
X136171267Y-95400000D02*
X135828733Y-95400000D01*
X134581267Y-114410000D02*
X134238733Y-114410000D01*
X134581267Y-113390000D02*
X134238733Y-113390000D01*
X136171267Y-94820000D02*
X135828733Y-94820000D01*
X136171267Y-93800000D02*
X135828733Y-93800000D01*
X131018733Y-58690000D02*
X131361267Y-58690000D01*
X131018733Y-59710000D02*
X131361267Y-59710000D01*
X136171267Y-93210000D02*
X135828733Y-93210000D01*
X136171267Y-92190000D02*
X135828733Y-92190000D01*
X188410000Y-57668733D02*
X188410000Y-58011267D01*
X187390000Y-57668733D02*
X187390000Y-58011267D01*
X150910000Y-111928733D02*
X150910000Y-112271267D01*
X149890000Y-111928733D02*
X149890000Y-112271267D01*
X150171267Y-123810000D02*
X149828733Y-123810000D01*
X150171267Y-122790000D02*
X149828733Y-122790000D01*
X150821267Y-79660000D02*
X150478733Y-79660000D01*
X150821267Y-78640000D02*
X150478733Y-78640000D01*
X154128733Y-78640000D02*
X154471267Y-78640000D01*
X154128733Y-79660000D02*
X154471267Y-79660000D01*
X195170000Y-113010000D02*
X196100000Y-113010000D01*
X198330000Y-113010000D02*
X197400000Y-113010000D01*
X198330000Y-113010000D02*
X198330000Y-110850000D01*
X195170000Y-113010000D02*
X195170000Y-111550000D01*
X132830000Y-117210000D02*
X133760000Y-117210000D01*
X135990000Y-117210000D02*
X135060000Y-117210000D01*
X135990000Y-117210000D02*
X135990000Y-115050000D01*
X132830000Y-117210000D02*
X132830000Y-115750000D01*
X132770000Y-55890000D02*
X131840000Y-55890000D01*
X129610000Y-55890000D02*
X130540000Y-55890000D01*
X129610000Y-55890000D02*
X129610000Y-58050000D01*
X132770000Y-55890000D02*
X132770000Y-57350000D01*
X191260000Y-59420000D02*
X191260000Y-58490000D01*
X191260000Y-56260000D02*
X191260000Y-57190000D01*
X191260000Y-56260000D02*
X189100000Y-56260000D01*
X191260000Y-59420000D02*
X189800000Y-59420000D01*
X135810000Y-88938748D02*
X135810000Y-89461252D01*
X134390000Y-88938748D02*
X134390000Y-89461252D01*
X127340000Y-100780000D02*
X127340000Y-103440000D01*
X132480000Y-100780000D02*
X127340000Y-100780000D01*
X132480000Y-103440000D02*
X127340000Y-103440000D01*
X132480000Y-100780000D02*
X132480000Y-103440000D01*
X133750000Y-100780000D02*
X135080000Y-100780000D01*
X135080000Y-100780000D02*
X135080000Y-102110000D01*
X184050000Y-122060000D02*
X184050000Y-114440000D01*
X199290000Y-122060000D02*
X199290000Y-114440000D01*
X184050000Y-120790000D02*
X199290000Y-120790000D01*
X184050000Y-114440000D02*
X199290000Y-114440000D01*
X184050000Y-122060000D02*
X199290000Y-122060000D01*
X121710000Y-126160000D02*
X121710000Y-118540000D01*
X136950000Y-126160000D02*
X136950000Y-118540000D01*
X121710000Y-124890000D02*
X136950000Y-124890000D01*
X121710000Y-118540000D02*
X136950000Y-118540000D01*
X121710000Y-126160000D02*
X136950000Y-126160000D01*
X143890000Y-46940000D02*
X143890000Y-54560000D01*
X128650000Y-46940000D02*
X128650000Y-54560000D01*
X143890000Y-48210000D02*
X128650000Y-48210000D01*
X143890000Y-54560000D02*
X128650000Y-54560000D01*
X143890000Y-46940000D02*
X128650000Y-46940000D01*
X200210000Y-70540000D02*
X192590000Y-70540000D01*
X200210000Y-55300000D02*
X192590000Y-55300000D01*
X198940000Y-70540000D02*
X198940000Y-55300000D01*
X192590000Y-70540000D02*
X192590000Y-55300000D01*
X200210000Y-70540000D02*
X200210000Y-55300000D01*
X160700000Y-76680000D02*
X160700000Y-74020000D01*
X150480000Y-76680000D02*
X160700000Y-76680000D01*
X150480000Y-74020000D02*
X160700000Y-74020000D01*
X150480000Y-76680000D02*
X150480000Y-74020000D01*
X149210000Y-76680000D02*
X147880000Y-76680000D01*
X147880000Y-76680000D02*
X147880000Y-75350000D01*
X151160000Y-125140000D02*
X150780000Y-125140000D01*
X151160000Y-129190000D02*
X151160000Y-129450000D01*
X151160000Y-125140000D02*
X151160000Y-126910000D01*
X143540000Y-125140000D02*
X143920000Y-125140000D01*
X143540000Y-126910000D02*
X143540000Y-125140000D01*
X143540000Y-129450000D02*
X143540000Y-129190000D01*
X132410000Y-111328733D02*
X132410000Y-111671267D01*
X131390000Y-111328733D02*
X131390000Y-111671267D01*
X129571267Y-111110000D02*
X129228733Y-111110000D01*
X129571267Y-110090000D02*
X129228733Y-110090000D01*
X144890000Y-84071267D02*
X144890000Y-83728733D01*
X145910000Y-84071267D02*
X145910000Y-83728733D01*
X148140000Y-84071267D02*
X148140000Y-83728733D01*
X149160000Y-84071267D02*
X149160000Y-83728733D01*
X152478733Y-90240000D02*
X152821267Y-90240000D01*
X152478733Y-91260000D02*
X152821267Y-91260000D01*
X152478733Y-91790000D02*
X152821267Y-91790000D01*
X152478733Y-92810000D02*
X152821267Y-92810000D01*
X137460000Y-88878733D02*
X137460000Y-89221267D01*
X136440000Y-88878733D02*
X136440000Y-89221267D01*
X139010000Y-88878733D02*
X139010000Y-89221267D01*
X137990000Y-88878733D02*
X137990000Y-89221267D01*
X147371267Y-79660000D02*
X147028733Y-79660000D01*
X147371267Y-78640000D02*
X147028733Y-78640000D01*
X150171267Y-122260000D02*
X149828733Y-122260000D01*
X150171267Y-121240000D02*
X149828733Y-121240000D01*
X153310000Y-94578733D02*
X153310000Y-94921267D01*
X152290000Y-94578733D02*
X152290000Y-94921267D01*
D10*
X116718095Y-43372380D02*
X116718095Y-44181904D01*
X116765714Y-44277142D01*
X116813333Y-44324761D01*
X116908571Y-44372380D01*
X117099047Y-44372380D01*
X117194285Y-44324761D01*
X117241904Y-44277142D01*
X117289523Y-44181904D01*
X117289523Y-43372380D01*
X117956190Y-43372380D02*
X118051428Y-43372380D01*
X118146666Y-43420000D01*
X118194285Y-43467619D01*
X118241904Y-43562857D01*
X118289523Y-43753333D01*
X118289523Y-43991428D01*
X118241904Y-44181904D01*
X118194285Y-44277142D01*
X118146666Y-44324761D01*
X118051428Y-44372380D01*
X117956190Y-44372380D01*
X117860952Y-44324761D01*
X117813333Y-44277142D01*
X117765714Y-44181904D01*
X117718095Y-43991428D01*
X117718095Y-43753333D01*
X117765714Y-43562857D01*
X117813333Y-43467619D01*
X117860952Y-43420000D01*
X117956190Y-43372380D01*
X146914761Y-69483333D02*
X146962380Y-69340476D01*
X146962380Y-69102380D01*
X146914761Y-69007142D01*
X146867142Y-68959523D01*
X146771904Y-68911904D01*
X146676666Y-68911904D01*
X146581428Y-68959523D01*
X146533809Y-69007142D01*
X146486190Y-69102380D01*
X146438571Y-69292857D01*
X146390952Y-69388095D01*
X146343333Y-69435714D01*
X146248095Y-69483333D01*
X146152857Y-69483333D01*
X146057619Y-69435714D01*
X146010000Y-69388095D01*
X145962380Y-69292857D01*
X145962380Y-69054761D01*
X146010000Y-68911904D01*
X145962380Y-68578571D02*
X146962380Y-68340476D01*
X146248095Y-68150000D01*
X146962380Y-67959523D01*
X145962380Y-67721428D01*
X146962380Y-66816666D02*
X146962380Y-67388095D01*
X146962380Y-67102380D02*
X145962380Y-67102380D01*
X146105238Y-67197619D01*
X146200476Y-67292857D01*
X146248095Y-67388095D01*
X146596428Y-86828571D02*
X146596428Y-87257142D01*
X146296428Y-86357142D02*
X146596428Y-86828571D01*
X146896428Y-86357142D01*
X147667857Y-87257142D02*
X147153571Y-87257142D01*
X147410714Y-87257142D02*
X147410714Y-86357142D01*
X147325000Y-86485714D01*
X147239285Y-86571428D01*
X147153571Y-86614285D01*
X126552380Y-107611904D02*
X127361904Y-107611904D01*
X127457142Y-107564285D01*
X127504761Y-107516666D01*
X127552380Y-107421428D01*
X127552380Y-107230952D01*
X127504761Y-107135714D01*
X127457142Y-107088095D01*
X127361904Y-107040476D01*
X126552380Y-107040476D01*
X126647619Y-106611904D02*
X126600000Y-106564285D01*
X126552380Y-106469047D01*
X126552380Y-106230952D01*
X126600000Y-106135714D01*
X126647619Y-106088095D01*
X126742857Y-106040476D01*
X126838095Y-106040476D01*
X126980952Y-106088095D01*
X127552380Y-106659523D01*
X127552380Y-106040476D01*
X144047380Y-94671904D02*
X144856904Y-94671904D01*
X144952142Y-94624285D01*
X144999761Y-94576666D01*
X145047380Y-94481428D01*
X145047380Y-94290952D01*
X144999761Y-94195714D01*
X144952142Y-94148095D01*
X144856904Y-94100476D01*
X144047380Y-94100476D01*
X145047380Y-93100476D02*
X145047380Y-93671904D01*
X145047380Y-93386190D02*
X144047380Y-93386190D01*
X144190238Y-93481428D01*
X144285476Y-93576666D01*
X144333095Y-93671904D01*
X143382380Y-102242857D02*
X142906190Y-102576190D01*
X143382380Y-102814285D02*
X142382380Y-102814285D01*
X142382380Y-102433333D01*
X142430000Y-102338095D01*
X142477619Y-102290476D01*
X142572857Y-102242857D01*
X142715714Y-102242857D01*
X142810952Y-102290476D01*
X142858571Y-102338095D01*
X142906190Y-102433333D01*
X142906190Y-102814285D01*
X143382380Y-101290476D02*
X143382380Y-101861904D01*
X143382380Y-101576190D02*
X142382380Y-101576190D01*
X142525238Y-101671428D01*
X142620476Y-101766666D01*
X142668095Y-101861904D01*
X142477619Y-100909523D02*
X142430000Y-100861904D01*
X142382380Y-100766666D01*
X142382380Y-100528571D01*
X142430000Y-100433333D01*
X142477619Y-100385714D01*
X142572857Y-100338095D01*
X142668095Y-100338095D01*
X142810952Y-100385714D01*
X143382380Y-100957142D01*
X143382380Y-100338095D01*
X196107142Y-108852380D02*
X195773809Y-108376190D01*
X195535714Y-108852380D02*
X195535714Y-107852380D01*
X195916666Y-107852380D01*
X196011904Y-107900000D01*
X196059523Y-107947619D01*
X196107142Y-108042857D01*
X196107142Y-108185714D01*
X196059523Y-108280952D01*
X196011904Y-108328571D01*
X195916666Y-108376190D01*
X195535714Y-108376190D01*
X197059523Y-108852380D02*
X196488095Y-108852380D01*
X196773809Y-108852380D02*
X196773809Y-107852380D01*
X196678571Y-107995238D01*
X196583333Y-108090476D01*
X196488095Y-108138095D01*
X198011904Y-108852380D02*
X197440476Y-108852380D01*
X197726190Y-108852380D02*
X197726190Y-107852380D01*
X197630952Y-107995238D01*
X197535714Y-108090476D01*
X197440476Y-108138095D01*
X135357142Y-97792380D02*
X135023809Y-97316190D01*
X134785714Y-97792380D02*
X134785714Y-96792380D01*
X135166666Y-96792380D01*
X135261904Y-96840000D01*
X135309523Y-96887619D01*
X135357142Y-96982857D01*
X135357142Y-97125714D01*
X135309523Y-97220952D01*
X135261904Y-97268571D01*
X135166666Y-97316190D01*
X134785714Y-97316190D01*
X136309523Y-97792380D02*
X135738095Y-97792380D01*
X136023809Y-97792380D02*
X136023809Y-96792380D01*
X135928571Y-96935238D01*
X135833333Y-97030476D01*
X135738095Y-97078095D01*
X136928571Y-96792380D02*
X137023809Y-96792380D01*
X137119047Y-96840000D01*
X137166666Y-96887619D01*
X137214285Y-96982857D01*
X137261904Y-97173333D01*
X137261904Y-97411428D01*
X137214285Y-97601904D01*
X137166666Y-97697142D01*
X137119047Y-97744761D01*
X137023809Y-97792380D01*
X136928571Y-97792380D01*
X136833333Y-97744761D01*
X136785714Y-97697142D01*
X136738095Y-97601904D01*
X136690476Y-97411428D01*
X136690476Y-97173333D01*
X136738095Y-96982857D01*
X136785714Y-96887619D01*
X136833333Y-96840000D01*
X136928571Y-96792380D01*
X134260000Y-113157142D02*
X133960000Y-112728571D01*
X133745714Y-113157142D02*
X133745714Y-112257142D01*
X134088571Y-112257142D01*
X134174285Y-112300000D01*
X134217142Y-112342857D01*
X134260000Y-112428571D01*
X134260000Y-112557142D01*
X134217142Y-112642857D01*
X134174285Y-112685714D01*
X134088571Y-112728571D01*
X133745714Y-112728571D01*
X134688571Y-113157142D02*
X134860000Y-113157142D01*
X134945714Y-113114285D01*
X134988571Y-113071428D01*
X135074285Y-112942857D01*
X135117142Y-112771428D01*
X135117142Y-112428571D01*
X135074285Y-112342857D01*
X135031428Y-112300000D01*
X134945714Y-112257142D01*
X134774285Y-112257142D01*
X134688571Y-112300000D01*
X134645714Y-112342857D01*
X134602857Y-112428571D01*
X134602857Y-112642857D01*
X134645714Y-112728571D01*
X134688571Y-112771428D01*
X134774285Y-112814285D01*
X134945714Y-112814285D01*
X135031428Y-112771428D01*
X135074285Y-112728571D01*
X135117142Y-112642857D01*
X134252380Y-94486666D02*
X133776190Y-94820000D01*
X134252380Y-95058095D02*
X133252380Y-95058095D01*
X133252380Y-94677142D01*
X133300000Y-94581904D01*
X133347619Y-94534285D01*
X133442857Y-94486666D01*
X133585714Y-94486666D01*
X133680952Y-94534285D01*
X133728571Y-94581904D01*
X133776190Y-94677142D01*
X133776190Y-95058095D01*
X133680952Y-93915238D02*
X133633333Y-94010476D01*
X133585714Y-94058095D01*
X133490476Y-94105714D01*
X133442857Y-94105714D01*
X133347619Y-94058095D01*
X133300000Y-94010476D01*
X133252380Y-93915238D01*
X133252380Y-93724761D01*
X133300000Y-93629523D01*
X133347619Y-93581904D01*
X133442857Y-93534285D01*
X133490476Y-93534285D01*
X133585714Y-93581904D01*
X133633333Y-93629523D01*
X133680952Y-93724761D01*
X133680952Y-93915238D01*
X133728571Y-94010476D01*
X133776190Y-94058095D01*
X133871428Y-94105714D01*
X134061904Y-94105714D01*
X134157142Y-94058095D01*
X134204761Y-94010476D01*
X134252380Y-93915238D01*
X134252380Y-93724761D01*
X134204761Y-93629523D01*
X134157142Y-93581904D01*
X134061904Y-93534285D01*
X133871428Y-93534285D01*
X133776190Y-93581904D01*
X133728571Y-93629523D01*
X133680952Y-93724761D01*
X131023333Y-61052380D02*
X130690000Y-60576190D01*
X130451904Y-61052380D02*
X130451904Y-60052380D01*
X130832857Y-60052380D01*
X130928095Y-60100000D01*
X130975714Y-60147619D01*
X131023333Y-60242857D01*
X131023333Y-60385714D01*
X130975714Y-60480952D01*
X130928095Y-60528571D01*
X130832857Y-60576190D01*
X130451904Y-60576190D01*
X131356666Y-60052380D02*
X132023333Y-60052380D01*
X131594761Y-61052380D01*
X135833333Y-91852380D02*
X135500000Y-91376190D01*
X135261904Y-91852380D02*
X135261904Y-90852380D01*
X135642857Y-90852380D01*
X135738095Y-90900000D01*
X135785714Y-90947619D01*
X135833333Y-91042857D01*
X135833333Y-91185714D01*
X135785714Y-91280952D01*
X135738095Y-91328571D01*
X135642857Y-91376190D01*
X135261904Y-91376190D01*
X136690476Y-90852380D02*
X136500000Y-90852380D01*
X136404761Y-90900000D01*
X136357142Y-90947619D01*
X136261904Y-91090476D01*
X136214285Y-91280952D01*
X136214285Y-91661904D01*
X136261904Y-91757142D01*
X136309523Y-91804761D01*
X136404761Y-91852380D01*
X136595238Y-91852380D01*
X136690476Y-91804761D01*
X136738095Y-91757142D01*
X136785714Y-91661904D01*
X136785714Y-91423809D01*
X136738095Y-91328571D01*
X136690476Y-91280952D01*
X136595238Y-91233333D01*
X136404761Y-91233333D01*
X136309523Y-91280952D01*
X136261904Y-91328571D01*
X136214285Y-91423809D01*
X187733333Y-60642380D02*
X187400000Y-60166190D01*
X187161904Y-60642380D02*
X187161904Y-59642380D01*
X187542857Y-59642380D01*
X187638095Y-59690000D01*
X187685714Y-59737619D01*
X187733333Y-59832857D01*
X187733333Y-59975714D01*
X187685714Y-60070952D01*
X187638095Y-60118571D01*
X187542857Y-60166190D01*
X187161904Y-60166190D01*
X188638095Y-59642380D02*
X188161904Y-59642380D01*
X188114285Y-60118571D01*
X188161904Y-60070952D01*
X188257142Y-60023333D01*
X188495238Y-60023333D01*
X188590476Y-60070952D01*
X188638095Y-60118571D01*
X188685714Y-60213809D01*
X188685714Y-60451904D01*
X188638095Y-60547142D01*
X188590476Y-60594761D01*
X188495238Y-60642380D01*
X188257142Y-60642380D01*
X188161904Y-60594761D01*
X188114285Y-60547142D01*
X152282380Y-112266666D02*
X151806190Y-112600000D01*
X152282380Y-112838095D02*
X151282380Y-112838095D01*
X151282380Y-112457142D01*
X151330000Y-112361904D01*
X151377619Y-112314285D01*
X151472857Y-112266666D01*
X151615714Y-112266666D01*
X151710952Y-112314285D01*
X151758571Y-112361904D01*
X151806190Y-112457142D01*
X151806190Y-112838095D01*
X151615714Y-111409523D02*
X152282380Y-111409523D01*
X151234761Y-111647619D02*
X151949047Y-111885714D01*
X151949047Y-111266666D01*
X152802380Y-123466666D02*
X152326190Y-123800000D01*
X152802380Y-124038095D02*
X151802380Y-124038095D01*
X151802380Y-123657142D01*
X151850000Y-123561904D01*
X151897619Y-123514285D01*
X151992857Y-123466666D01*
X152135714Y-123466666D01*
X152230952Y-123514285D01*
X152278571Y-123561904D01*
X152326190Y-123657142D01*
X152326190Y-124038095D01*
X151802380Y-123133333D02*
X151802380Y-122514285D01*
X152183333Y-122847619D01*
X152183333Y-122704761D01*
X152230952Y-122609523D01*
X152278571Y-122561904D01*
X152373809Y-122514285D01*
X152611904Y-122514285D01*
X152707142Y-122561904D01*
X152754761Y-122609523D01*
X152802380Y-122704761D01*
X152802380Y-122990476D01*
X152754761Y-123085714D01*
X152707142Y-123133333D01*
X150483333Y-81032380D02*
X150150000Y-80556190D01*
X149911904Y-81032380D02*
X149911904Y-80032380D01*
X150292857Y-80032380D01*
X150388095Y-80080000D01*
X150435714Y-80127619D01*
X150483333Y-80222857D01*
X150483333Y-80365714D01*
X150435714Y-80460952D01*
X150388095Y-80508571D01*
X150292857Y-80556190D01*
X149911904Y-80556190D01*
X150864285Y-80127619D02*
X150911904Y-80080000D01*
X151007142Y-80032380D01*
X151245238Y-80032380D01*
X151340476Y-80080000D01*
X151388095Y-80127619D01*
X151435714Y-80222857D01*
X151435714Y-80318095D01*
X151388095Y-80460952D01*
X150816666Y-81032380D01*
X151435714Y-81032380D01*
X154133333Y-81002380D02*
X153800000Y-80526190D01*
X153561904Y-81002380D02*
X153561904Y-80002380D01*
X153942857Y-80002380D01*
X154038095Y-80050000D01*
X154085714Y-80097619D01*
X154133333Y-80192857D01*
X154133333Y-80335714D01*
X154085714Y-80430952D01*
X154038095Y-80478571D01*
X153942857Y-80526190D01*
X153561904Y-80526190D01*
X155085714Y-81002380D02*
X154514285Y-81002380D01*
X154800000Y-81002380D02*
X154800000Y-80002380D01*
X154704761Y-80145238D01*
X154609523Y-80240476D01*
X154514285Y-80288095D01*
X199797619Y-112345238D02*
X199750000Y-112440476D01*
X199654761Y-112535714D01*
X199511904Y-112678571D01*
X199464285Y-112773809D01*
X199464285Y-112869047D01*
X199702380Y-112821428D02*
X199654761Y-112916666D01*
X199559523Y-113011904D01*
X199369047Y-113059523D01*
X199035714Y-113059523D01*
X198845238Y-113011904D01*
X198750000Y-112916666D01*
X198702380Y-112821428D01*
X198702380Y-112630952D01*
X198750000Y-112535714D01*
X198845238Y-112440476D01*
X199035714Y-112392857D01*
X199369047Y-112392857D01*
X199559523Y-112440476D01*
X199654761Y-112535714D01*
X199702380Y-112630952D01*
X199702380Y-112821428D01*
X199035714Y-111535714D02*
X199702380Y-111535714D01*
X198654761Y-111773809D02*
X199369047Y-112011904D01*
X199369047Y-111392857D01*
X137457619Y-116545238D02*
X137410000Y-116640476D01*
X137314761Y-116735714D01*
X137171904Y-116878571D01*
X137124285Y-116973809D01*
X137124285Y-117069047D01*
X137362380Y-117021428D02*
X137314761Y-117116666D01*
X137219523Y-117211904D01*
X137029047Y-117259523D01*
X136695714Y-117259523D01*
X136505238Y-117211904D01*
X136410000Y-117116666D01*
X136362380Y-117021428D01*
X136362380Y-116830952D01*
X136410000Y-116735714D01*
X136505238Y-116640476D01*
X136695714Y-116592857D01*
X137029047Y-116592857D01*
X137219523Y-116640476D01*
X137314761Y-116735714D01*
X137362380Y-116830952D01*
X137362380Y-117021428D01*
X136362380Y-116259523D02*
X136362380Y-115640476D01*
X136743333Y-115973809D01*
X136743333Y-115830952D01*
X136790952Y-115735714D01*
X136838571Y-115688095D01*
X136933809Y-115640476D01*
X137171904Y-115640476D01*
X137267142Y-115688095D01*
X137314761Y-115735714D01*
X137362380Y-115830952D01*
X137362380Y-116116666D01*
X137314761Y-116211904D01*
X137267142Y-116259523D01*
X129237619Y-56745238D02*
X129190000Y-56840476D01*
X129094761Y-56935714D01*
X128951904Y-57078571D01*
X128904285Y-57173809D01*
X128904285Y-57269047D01*
X129142380Y-57221428D02*
X129094761Y-57316666D01*
X128999523Y-57411904D01*
X128809047Y-57459523D01*
X128475714Y-57459523D01*
X128285238Y-57411904D01*
X128190000Y-57316666D01*
X128142380Y-57221428D01*
X128142380Y-57030952D01*
X128190000Y-56935714D01*
X128285238Y-56840476D01*
X128475714Y-56792857D01*
X128809047Y-56792857D01*
X128999523Y-56840476D01*
X129094761Y-56935714D01*
X129142380Y-57030952D01*
X129142380Y-57221428D01*
X128237619Y-56411904D02*
X128190000Y-56364285D01*
X128142380Y-56269047D01*
X128142380Y-56030952D01*
X128190000Y-55935714D01*
X128237619Y-55888095D01*
X128332857Y-55840476D01*
X128428095Y-55840476D01*
X128570952Y-55888095D01*
X129142380Y-56459523D01*
X129142380Y-55840476D01*
X190404761Y-55887619D02*
X190309523Y-55840000D01*
X190214285Y-55744761D01*
X190071428Y-55601904D01*
X189976190Y-55554285D01*
X189880952Y-55554285D01*
X189928571Y-55792380D02*
X189833333Y-55744761D01*
X189738095Y-55649523D01*
X189690476Y-55459047D01*
X189690476Y-55125714D01*
X189738095Y-54935238D01*
X189833333Y-54840000D01*
X189928571Y-54792380D01*
X190119047Y-54792380D01*
X190214285Y-54840000D01*
X190309523Y-54935238D01*
X190357142Y-55125714D01*
X190357142Y-55459047D01*
X190309523Y-55649523D01*
X190214285Y-55744761D01*
X190119047Y-55792380D01*
X189928571Y-55792380D01*
X191309523Y-55792380D02*
X190738095Y-55792380D01*
X191023809Y-55792380D02*
X191023809Y-54792380D01*
X190928571Y-54935238D01*
X190833333Y-55030476D01*
X190738095Y-55078095D01*
X134002380Y-89366666D02*
X134002380Y-89842857D01*
X133002380Y-89842857D01*
X134002380Y-88509523D02*
X134002380Y-89080952D01*
X134002380Y-88795238D02*
X133002380Y-88795238D01*
X133145238Y-88890476D01*
X133240476Y-88985714D01*
X133288095Y-89080952D01*
X135532380Y-102943333D02*
X136246666Y-102943333D01*
X136389523Y-102990952D01*
X136484761Y-103086190D01*
X136532380Y-103229047D01*
X136532380Y-103324285D01*
X136532380Y-102467142D02*
X135532380Y-102467142D01*
X135532380Y-102086190D01*
X135580000Y-101990952D01*
X135627619Y-101943333D01*
X135722857Y-101895714D01*
X135865714Y-101895714D01*
X135960952Y-101943333D01*
X136008571Y-101990952D01*
X136056190Y-102086190D01*
X136056190Y-102467142D01*
X136532380Y-100943333D02*
X136532380Y-101514761D01*
X136532380Y-101229047D02*
X135532380Y-101229047D01*
X135675238Y-101324285D01*
X135770476Y-101419523D01*
X135818095Y-101514761D01*
X191306666Y-113052380D02*
X191306666Y-113766666D01*
X191259047Y-113909523D01*
X191163809Y-114004761D01*
X191020952Y-114052380D01*
X190925714Y-114052380D01*
X192211428Y-113052380D02*
X192020952Y-113052380D01*
X191925714Y-113100000D01*
X191878095Y-113147619D01*
X191782857Y-113290476D01*
X191735238Y-113480952D01*
X191735238Y-113861904D01*
X191782857Y-113957142D01*
X191830476Y-114004761D01*
X191925714Y-114052380D01*
X192116190Y-114052380D01*
X192211428Y-114004761D01*
X192259047Y-113957142D01*
X192306666Y-113861904D01*
X192306666Y-113623809D01*
X192259047Y-113528571D01*
X192211428Y-113480952D01*
X192116190Y-113433333D01*
X191925714Y-113433333D01*
X191830476Y-113480952D01*
X191782857Y-113528571D01*
X191735238Y-113623809D01*
X128966666Y-117152380D02*
X128966666Y-117866666D01*
X128919047Y-118009523D01*
X128823809Y-118104761D01*
X128680952Y-118152380D01*
X128585714Y-118152380D01*
X129919047Y-117152380D02*
X129442857Y-117152380D01*
X129395238Y-117628571D01*
X129442857Y-117580952D01*
X129538095Y-117533333D01*
X129776190Y-117533333D01*
X129871428Y-117580952D01*
X129919047Y-117628571D01*
X129966666Y-117723809D01*
X129966666Y-117961904D01*
X129919047Y-118057142D01*
X129871428Y-118104761D01*
X129776190Y-118152380D01*
X129538095Y-118152380D01*
X129442857Y-118104761D01*
X129395238Y-118057142D01*
X135966666Y-54852380D02*
X135966666Y-55566666D01*
X135919047Y-55709523D01*
X135823809Y-55804761D01*
X135680952Y-55852380D01*
X135585714Y-55852380D01*
X136871428Y-55185714D02*
X136871428Y-55852380D01*
X136633333Y-54804761D02*
X136395238Y-55519047D01*
X137014285Y-55519047D01*
X191202380Y-63283333D02*
X191916666Y-63283333D01*
X192059523Y-63330952D01*
X192154761Y-63426190D01*
X192202380Y-63569047D01*
X192202380Y-63664285D01*
X191202380Y-62902380D02*
X191202380Y-62283333D01*
X191583333Y-62616666D01*
X191583333Y-62473809D01*
X191630952Y-62378571D01*
X191678571Y-62330952D01*
X191773809Y-62283333D01*
X192011904Y-62283333D01*
X192107142Y-62330952D01*
X192154761Y-62378571D01*
X192202380Y-62473809D01*
X192202380Y-62759523D01*
X192154761Y-62854761D01*
X192107142Y-62902380D01*
X146332380Y-75683333D02*
X147046666Y-75683333D01*
X147189523Y-75730952D01*
X147284761Y-75826190D01*
X147332380Y-75969047D01*
X147332380Y-76064285D01*
X146427619Y-75254761D02*
X146380000Y-75207142D01*
X146332380Y-75111904D01*
X146332380Y-74873809D01*
X146380000Y-74778571D01*
X146427619Y-74730952D01*
X146522857Y-74683333D01*
X146618095Y-74683333D01*
X146760952Y-74730952D01*
X147332380Y-75302380D01*
X147332380Y-74683333D01*
X147016666Y-123002380D02*
X147016666Y-123716666D01*
X146969047Y-123859523D01*
X146873809Y-123954761D01*
X146730952Y-124002380D01*
X146635714Y-124002380D01*
X148016666Y-124002380D02*
X147445238Y-124002380D01*
X147730952Y-124002380D02*
X147730952Y-123002380D01*
X147635714Y-123145238D01*
X147540476Y-123240476D01*
X147445238Y-123288095D01*
X133421428Y-111928571D02*
X133464285Y-111971428D01*
X133507142Y-112100000D01*
X133507142Y-112185714D01*
X133464285Y-112314285D01*
X133378571Y-112400000D01*
X133292857Y-112442857D01*
X133121428Y-112485714D01*
X132992857Y-112485714D01*
X132821428Y-112442857D01*
X132735714Y-112400000D01*
X132650000Y-112314285D01*
X132607142Y-112185714D01*
X132607142Y-112100000D01*
X132650000Y-111971428D01*
X132692857Y-111928571D01*
X133507142Y-111542857D02*
X132907142Y-111542857D01*
X133078571Y-111542857D02*
X132992857Y-111500000D01*
X132950000Y-111457142D01*
X132907142Y-111371428D01*
X132907142Y-111285714D01*
X132692857Y-111028571D02*
X132650000Y-110985714D01*
X132607142Y-110900000D01*
X132607142Y-110685714D01*
X132650000Y-110600000D01*
X132692857Y-110557142D01*
X132778571Y-110514285D01*
X132864285Y-110514285D01*
X132992857Y-110557142D01*
X133507142Y-111071428D01*
X133507142Y-110514285D01*
X128971428Y-112221428D02*
X128928571Y-112264285D01*
X128800000Y-112307142D01*
X128714285Y-112307142D01*
X128585714Y-112264285D01*
X128500000Y-112178571D01*
X128457142Y-112092857D01*
X128414285Y-111921428D01*
X128414285Y-111792857D01*
X128457142Y-111621428D01*
X128500000Y-111535714D01*
X128585714Y-111450000D01*
X128714285Y-111407142D01*
X128800000Y-111407142D01*
X128928571Y-111450000D01*
X128971428Y-111492857D01*
X129357142Y-112307142D02*
X129357142Y-111707142D01*
X129357142Y-111878571D02*
X129400000Y-111792857D01*
X129442857Y-111750000D01*
X129528571Y-111707142D01*
X129614285Y-111707142D01*
X130385714Y-112307142D02*
X129871428Y-112307142D01*
X130128571Y-112307142D02*
X130128571Y-111407142D01*
X130042857Y-111535714D01*
X129957142Y-111621428D01*
X129871428Y-111664285D01*
X144327142Y-84495238D02*
X144374761Y-84542857D01*
X144422380Y-84685714D01*
X144422380Y-84780952D01*
X144374761Y-84923809D01*
X144279523Y-85019047D01*
X144184285Y-85066666D01*
X143993809Y-85114285D01*
X143850952Y-85114285D01*
X143660476Y-85066666D01*
X143565238Y-85019047D01*
X143470000Y-84923809D01*
X143422380Y-84780952D01*
X143422380Y-84685714D01*
X143470000Y-84542857D01*
X143517619Y-84495238D01*
X144374761Y-83638095D02*
X144422380Y-83733333D01*
X144422380Y-83923809D01*
X144374761Y-84019047D01*
X144327142Y-84066666D01*
X144231904Y-84114285D01*
X143946190Y-84114285D01*
X143850952Y-84066666D01*
X143803333Y-84019047D01*
X143755714Y-83923809D01*
X143755714Y-83733333D01*
X143803333Y-83638095D01*
X143517619Y-83257142D02*
X143470000Y-83209523D01*
X143422380Y-83114285D01*
X143422380Y-82876190D01*
X143470000Y-82780952D01*
X143517619Y-82733333D01*
X143612857Y-82685714D01*
X143708095Y-82685714D01*
X143850952Y-82733333D01*
X144422380Y-83304761D01*
X144422380Y-82685714D01*
X147577142Y-84495238D02*
X147624761Y-84542857D01*
X147672380Y-84685714D01*
X147672380Y-84780952D01*
X147624761Y-84923809D01*
X147529523Y-85019047D01*
X147434285Y-85066666D01*
X147243809Y-85114285D01*
X147100952Y-85114285D01*
X146910476Y-85066666D01*
X146815238Y-85019047D01*
X146720000Y-84923809D01*
X146672380Y-84780952D01*
X146672380Y-84685714D01*
X146720000Y-84542857D01*
X146767619Y-84495238D01*
X147624761Y-83638095D02*
X147672380Y-83733333D01*
X147672380Y-83923809D01*
X147624761Y-84019047D01*
X147577142Y-84066666D01*
X147481904Y-84114285D01*
X147196190Y-84114285D01*
X147100952Y-84066666D01*
X147053333Y-84019047D01*
X147005714Y-83923809D01*
X147005714Y-83733333D01*
X147053333Y-83638095D01*
X147672380Y-82685714D02*
X147672380Y-83257142D01*
X147672380Y-82971428D02*
X146672380Y-82971428D01*
X146815238Y-83066666D01*
X146910476Y-83161904D01*
X146958095Y-83257142D01*
X151664285Y-89821428D02*
X151621428Y-89864285D01*
X151492857Y-89907142D01*
X151407142Y-89907142D01*
X151278571Y-89864285D01*
X151192857Y-89778571D01*
X151150000Y-89692857D01*
X151107142Y-89521428D01*
X151107142Y-89392857D01*
X151150000Y-89221428D01*
X151192857Y-89135714D01*
X151278571Y-89050000D01*
X151407142Y-89007142D01*
X151492857Y-89007142D01*
X151621428Y-89050000D01*
X151664285Y-89092857D01*
X151964285Y-89007142D02*
X152521428Y-89007142D01*
X152221428Y-89350000D01*
X152350000Y-89350000D01*
X152435714Y-89392857D01*
X152478571Y-89435714D01*
X152521428Y-89521428D01*
X152521428Y-89735714D01*
X152478571Y-89821428D01*
X152435714Y-89864285D01*
X152350000Y-89907142D01*
X152092857Y-89907142D01*
X152007142Y-89864285D01*
X151964285Y-89821428D01*
X152907142Y-89907142D02*
X152907142Y-89007142D01*
X152907142Y-89350000D02*
X152992857Y-89307142D01*
X153164285Y-89307142D01*
X153250000Y-89350000D01*
X153292857Y-89392857D01*
X153335714Y-89478571D01*
X153335714Y-89735714D01*
X153292857Y-89821428D01*
X153250000Y-89864285D01*
X153164285Y-89907142D01*
X152992857Y-89907142D01*
X152907142Y-89864285D01*
X154192857Y-89907142D02*
X153678571Y-89907142D01*
X153935714Y-89907142D02*
X153935714Y-89007142D01*
X153850000Y-89135714D01*
X153764285Y-89221428D01*
X153678571Y-89264285D01*
X155221428Y-93285714D02*
X155264285Y-93328571D01*
X155307142Y-93457142D01*
X155307142Y-93542857D01*
X155264285Y-93671428D01*
X155178571Y-93757142D01*
X155092857Y-93800000D01*
X154921428Y-93842857D01*
X154792857Y-93842857D01*
X154621428Y-93800000D01*
X154535714Y-93757142D01*
X154450000Y-93671428D01*
X154407142Y-93542857D01*
X154407142Y-93457142D01*
X154450000Y-93328571D01*
X154492857Y-93285714D01*
X154407142Y-92985714D02*
X154407142Y-92428571D01*
X154750000Y-92728571D01*
X154750000Y-92600000D01*
X154792857Y-92514285D01*
X154835714Y-92471428D01*
X154921428Y-92428571D01*
X155135714Y-92428571D01*
X155221428Y-92471428D01*
X155264285Y-92514285D01*
X155307142Y-92600000D01*
X155307142Y-92857142D01*
X155264285Y-92942857D01*
X155221428Y-92985714D01*
X155307142Y-91657142D02*
X154835714Y-91657142D01*
X154750000Y-91700000D01*
X154707142Y-91785714D01*
X154707142Y-91957142D01*
X154750000Y-92042857D01*
X155264285Y-91657142D02*
X155307142Y-91742857D01*
X155307142Y-91957142D01*
X155264285Y-92042857D01*
X155178571Y-92085714D01*
X155092857Y-92085714D01*
X155007142Y-92042857D01*
X154964285Y-91957142D01*
X154964285Y-91742857D01*
X154921428Y-91657142D01*
X155307142Y-90757142D02*
X155307142Y-91271428D01*
X155307142Y-91014285D02*
X154407142Y-91014285D01*
X154535714Y-91100000D01*
X154621428Y-91185714D01*
X154664285Y-91271428D01*
X135964285Y-87221428D02*
X135921428Y-87264285D01*
X135792857Y-87307142D01*
X135707142Y-87307142D01*
X135578571Y-87264285D01*
X135492857Y-87178571D01*
X135450000Y-87092857D01*
X135407142Y-86921428D01*
X135407142Y-86792857D01*
X135450000Y-86621428D01*
X135492857Y-86535714D01*
X135578571Y-86450000D01*
X135707142Y-86407142D01*
X135792857Y-86407142D01*
X135921428Y-86450000D01*
X135964285Y-86492857D01*
X136307142Y-86492857D02*
X136350000Y-86450000D01*
X136435714Y-86407142D01*
X136650000Y-86407142D01*
X136735714Y-86450000D01*
X136778571Y-86492857D01*
X136821428Y-86578571D01*
X136821428Y-86664285D01*
X136778571Y-86792857D01*
X136264285Y-87307142D01*
X136821428Y-87307142D01*
X137207142Y-87307142D02*
X137207142Y-86407142D01*
X137207142Y-86750000D02*
X137292857Y-86707142D01*
X137464285Y-86707142D01*
X137550000Y-86750000D01*
X137592857Y-86792857D01*
X137635714Y-86878571D01*
X137635714Y-87135714D01*
X137592857Y-87221428D01*
X137550000Y-87264285D01*
X137464285Y-87307142D01*
X137292857Y-87307142D01*
X137207142Y-87264285D01*
X138492857Y-87307142D02*
X137978571Y-87307142D01*
X138235714Y-87307142D02*
X138235714Y-86407142D01*
X138150000Y-86535714D01*
X138064285Y-86621428D01*
X137978571Y-86664285D01*
X140021428Y-90035714D02*
X140064285Y-90078571D01*
X140107142Y-90207142D01*
X140107142Y-90292857D01*
X140064285Y-90421428D01*
X139978571Y-90507142D01*
X139892857Y-90550000D01*
X139721428Y-90592857D01*
X139592857Y-90592857D01*
X139421428Y-90550000D01*
X139335714Y-90507142D01*
X139250000Y-90421428D01*
X139207142Y-90292857D01*
X139207142Y-90207142D01*
X139250000Y-90078571D01*
X139292857Y-90035714D01*
X139292857Y-89692857D02*
X139250000Y-89650000D01*
X139207142Y-89564285D01*
X139207142Y-89350000D01*
X139250000Y-89264285D01*
X139292857Y-89221428D01*
X139378571Y-89178571D01*
X139464285Y-89178571D01*
X139592857Y-89221428D01*
X140107142Y-89735714D01*
X140107142Y-89178571D01*
X140107142Y-88407142D02*
X139635714Y-88407142D01*
X139550000Y-88450000D01*
X139507142Y-88535714D01*
X139507142Y-88707142D01*
X139550000Y-88792857D01*
X140064285Y-88407142D02*
X140107142Y-88492857D01*
X140107142Y-88707142D01*
X140064285Y-88792857D01*
X139978571Y-88835714D01*
X139892857Y-88835714D01*
X139807142Y-88792857D01*
X139764285Y-88707142D01*
X139764285Y-88492857D01*
X139721428Y-88407142D01*
X140107142Y-87507142D02*
X140107142Y-88021428D01*
X140107142Y-87764285D02*
X139207142Y-87764285D01*
X139335714Y-87850000D01*
X139421428Y-87935714D01*
X139464285Y-88021428D01*
X147033333Y-80937142D02*
X146985714Y-80984761D01*
X146842857Y-81032380D01*
X146747619Y-81032380D01*
X146604761Y-80984761D01*
X146509523Y-80889523D01*
X146461904Y-80794285D01*
X146414285Y-80603809D01*
X146414285Y-80460952D01*
X146461904Y-80270476D01*
X146509523Y-80175238D01*
X146604761Y-80080000D01*
X146747619Y-80032380D01*
X146842857Y-80032380D01*
X146985714Y-80080000D01*
X147033333Y-80127619D01*
X147890476Y-80032380D02*
X147700000Y-80032380D01*
X147604761Y-80080000D01*
X147557142Y-80127619D01*
X147461904Y-80270476D01*
X147414285Y-80460952D01*
X147414285Y-80841904D01*
X147461904Y-80937142D01*
X147509523Y-80984761D01*
X147604761Y-81032380D01*
X147795238Y-81032380D01*
X147890476Y-80984761D01*
X147938095Y-80937142D01*
X147985714Y-80841904D01*
X147985714Y-80603809D01*
X147938095Y-80508571D01*
X147890476Y-80460952D01*
X147795238Y-80413333D01*
X147604761Y-80413333D01*
X147509523Y-80460952D01*
X147461904Y-80508571D01*
X147414285Y-80603809D01*
X149833333Y-120807142D02*
X149785714Y-120854761D01*
X149642857Y-120902380D01*
X149547619Y-120902380D01*
X149404761Y-120854761D01*
X149309523Y-120759523D01*
X149261904Y-120664285D01*
X149214285Y-120473809D01*
X149214285Y-120330952D01*
X149261904Y-120140476D01*
X149309523Y-120045238D01*
X149404761Y-119950000D01*
X149547619Y-119902380D01*
X149642857Y-119902380D01*
X149785714Y-119950000D01*
X149833333Y-119997619D01*
X150738095Y-119902380D02*
X150261904Y-119902380D01*
X150214285Y-120378571D01*
X150261904Y-120330952D01*
X150357142Y-120283333D01*
X150595238Y-120283333D01*
X150690476Y-120330952D01*
X150738095Y-120378571D01*
X150785714Y-120473809D01*
X150785714Y-120711904D01*
X150738095Y-120807142D01*
X150690476Y-120854761D01*
X150595238Y-120902380D01*
X150357142Y-120902380D01*
X150261904Y-120854761D01*
X150214285Y-120807142D01*
X154587142Y-94916666D02*
X154634761Y-94964285D01*
X154682380Y-95107142D01*
X154682380Y-95202380D01*
X154634761Y-95345238D01*
X154539523Y-95440476D01*
X154444285Y-95488095D01*
X154253809Y-95535714D01*
X154110952Y-95535714D01*
X153920476Y-95488095D01*
X153825238Y-95440476D01*
X153730000Y-95345238D01*
X153682380Y-95202380D01*
X153682380Y-95107142D01*
X153730000Y-94964285D01*
X153777619Y-94916666D01*
X154015714Y-94059523D02*
X154682380Y-94059523D01*
X153634761Y-94297619D02*
X154349047Y-94535714D01*
X154349047Y-93916666D01*
M02*
