G04 #@! TF.GenerationSoftware,KiCad,Pcbnew,5.99.0-unknown-529461e~86~ubuntu18.04.1*
G04 #@! TF.CreationDate,2019-09-26T16:04:43-03:00*
G04 #@! TF.ProjectId,DPL,44504c2e-6b69-4636-9164-5f7063625858,rev?*
G04 #@! TF.SameCoordinates,Original*
G04 #@! TF.FileFunction,Copper,L2,Bot*
G04 #@! TF.FilePolarity,Positive*
%FSLAX46Y46*%
G04 Gerber Fmt 4.6, Leading zero omitted, Abs format (unit mm)*
G04 Created by KiCad (PCBNEW 5.99.0-unknown-529461e~86~ubuntu18.04.1) date 2019-09-26 16:04:43*
%MOMM*%
%LPD*%
G04 APERTURE LIST*
%ADD10C,6.350000*%
%ADD11C,1.600000*%
%ADD12R,1.600000X1.600000*%
%ADD13C,3.680000*%
%ADD14C,2.500000*%
%ADD15C,1.700000*%
%ADD16O,1.700000X1.700000*%
%ADD17R,1.700000X1.700000*%
%ADD18C,3.000000*%
%ADD19R,3.000000X3.000000*%
%ADD20R,1.400000X1.000000*%
%ADD21R,1.400000X1.200000*%
%ADD22C,1.000000*%
%ADD23C,0.550000*%
%ADD24C,0.450000*%
%ADD25C,2.000000*%
%ADD26C,1.200000*%
%ADD27C,0.254000*%
G04 APERTURE END LIST*
D10*
X203210000Y-45190000D03*
X203210000Y-125200000D03*
D11*
X120000000Y-116310000D03*
X117460000Y-116310000D03*
X120000000Y-113770000D03*
X117460000Y-113770000D03*
X120000000Y-111230000D03*
X117460000Y-111230000D03*
X120000000Y-108690000D03*
X117460000Y-108690000D03*
X120000000Y-106150000D03*
X117460000Y-106150000D03*
X120000000Y-103610000D03*
X117460000Y-103610000D03*
X120000000Y-101070000D03*
X117460000Y-101070000D03*
X120000000Y-98530000D03*
X117460000Y-98530000D03*
X120000000Y-95990000D03*
X117460000Y-95990000D03*
X120000000Y-93450000D03*
X117460000Y-93450000D03*
X120000000Y-90910000D03*
X117460000Y-90910000D03*
X120000000Y-88370000D03*
X117460000Y-88370000D03*
X120000000Y-85830000D03*
X117460000Y-85830000D03*
X120000000Y-83290000D03*
X117460000Y-83290000D03*
X120000000Y-80750000D03*
X117460000Y-80750000D03*
X120000000Y-78210000D03*
X117460000Y-78210000D03*
X120000000Y-75670000D03*
X117460000Y-75670000D03*
X120000000Y-73130000D03*
X117460000Y-73130000D03*
X120000000Y-70590000D03*
X117460000Y-70590000D03*
X120000000Y-68050000D03*
X117460000Y-68050000D03*
X120000000Y-65510000D03*
X117460000Y-65510000D03*
X120000000Y-62970000D03*
X117460000Y-62970000D03*
X120000000Y-60430000D03*
X117460000Y-60430000D03*
X120000000Y-57890000D03*
X117460000Y-57890000D03*
X120000000Y-55350000D03*
X117460000Y-55350000D03*
X120000000Y-52810000D03*
X117460000Y-52810000D03*
D12*
X125080000Y-116310000D03*
D11*
X122540000Y-116310000D03*
X125080000Y-113770000D03*
X122540000Y-113770000D03*
X125080000Y-111230000D03*
X122540000Y-111230000D03*
X125080000Y-108690000D03*
X122540000Y-108690000D03*
X125080000Y-106150000D03*
X122540000Y-106150000D03*
X125080000Y-103610000D03*
X122540000Y-103610000D03*
X125080000Y-101070000D03*
X122540000Y-101070000D03*
X125080000Y-98530000D03*
X122540000Y-98530000D03*
X125080000Y-95990000D03*
X122540000Y-95990000D03*
X125080000Y-93450000D03*
X122540000Y-93450000D03*
X125080000Y-90910000D03*
X122540000Y-90910000D03*
X125080000Y-88370000D03*
X122540000Y-88370000D03*
X125080000Y-85830000D03*
X122540000Y-85830000D03*
X125080000Y-83290000D03*
X122540000Y-83290000D03*
X125080000Y-80750000D03*
X122540000Y-80750000D03*
X125080000Y-78210000D03*
X122540000Y-78210000D03*
X125080000Y-75670000D03*
X122540000Y-75670000D03*
X125080000Y-73130000D03*
X122540000Y-73130000D03*
X125080000Y-70590000D03*
X122540000Y-70590000D03*
X125080000Y-68050000D03*
X122540000Y-68050000D03*
X125080000Y-65510000D03*
X122540000Y-65510000D03*
X125080000Y-62970000D03*
X122540000Y-62970000D03*
X125080000Y-60430000D03*
X122540000Y-60430000D03*
X125080000Y-57890000D03*
X122540000Y-57890000D03*
X125080000Y-55350000D03*
X122540000Y-55350000D03*
X125080000Y-52810000D03*
X122540000Y-52810000D03*
D10*
X117480000Y-47730000D03*
X117480000Y-121390000D03*
D13*
X164155000Y-57265000D03*
X180155000Y-112465000D03*
D14*
X164155000Y-120795000D03*
D15*
X148560000Y-71400000D03*
X148560000Y-64900000D03*
X153060000Y-71400000D03*
X153060000Y-64900000D03*
D16*
X128670000Y-102110000D03*
X131210000Y-102110000D03*
D17*
X133750000Y-102110000D03*
D18*
X196750000Y-118250000D03*
X191670000Y-118250000D03*
D19*
X186590000Y-118250000D03*
D18*
X134410000Y-122350000D03*
X129330000Y-122350000D03*
D19*
X124250000Y-122350000D03*
D18*
X131190000Y-50750000D03*
X136270000Y-50750000D03*
D19*
X141350000Y-50750000D03*
D18*
X196400000Y-57840000D03*
X196400000Y-62920000D03*
D19*
X196400000Y-68000000D03*
D16*
X159370000Y-75350000D03*
X156830000Y-75350000D03*
X154290000Y-75350000D03*
X151750000Y-75350000D03*
D17*
X149210000Y-75350000D03*
D20*
X145925000Y-111200000D03*
X145925000Y-113100000D03*
X148125000Y-113100000D03*
D21*
X148125000Y-111380000D03*
D22*
X187175000Y-73000000D03*
X179650000Y-117900000D03*
X154000000Y-105700000D03*
X154000000Y-98550000D03*
X134050000Y-73050000D03*
X134050000Y-77400000D03*
X156000000Y-120500000D03*
X187850000Y-109700000D03*
X194450000Y-109700000D03*
X194450000Y-111250000D03*
D11*
X178000000Y-124500000D03*
X181500000Y-124500000D03*
X166100000Y-125600000D03*
X162550000Y-125600000D03*
D22*
X127050000Y-108800000D03*
X127150000Y-110600000D03*
X130550000Y-112400000D03*
X132200000Y-113900000D03*
X131650000Y-117000000D03*
X136700000Y-61300000D03*
X133850000Y-58500000D03*
X133600000Y-57000000D03*
X183250000Y-63450000D03*
X186800000Y-59900000D03*
X189500000Y-59900000D03*
X180950000Y-62400000D03*
X196400000Y-70550000D03*
X187650000Y-102400000D03*
X151200000Y-73000000D03*
X147100000Y-73000000D03*
X140400000Y-75750000D03*
X140400000Y-87750000D03*
X147200000Y-62400000D03*
X142050000Y-87700000D03*
X142050000Y-93500000D03*
X138500000Y-92700000D03*
X141400000Y-53250000D03*
X132000000Y-91800000D03*
X138600000Y-94300000D03*
X130950000Y-92400000D03*
X142050000Y-95100000D03*
D11*
X172150000Y-41100000D03*
X176650000Y-45800000D03*
X168000000Y-45800000D03*
X127450000Y-52350000D03*
X128650000Y-98800000D03*
D22*
X144250000Y-102350000D03*
X142900000Y-103500000D03*
X140200000Y-102350000D03*
X144700000Y-101200000D03*
X145775000Y-100500000D03*
X133900000Y-97000000D03*
X129800000Y-65250000D03*
X133650000Y-98200000D03*
X128750000Y-66350000D03*
X135350000Y-112100000D03*
X138600000Y-112100000D03*
X136850000Y-115450000D03*
X140250000Y-107500000D03*
X135100000Y-99750000D03*
X141450000Y-108700000D03*
X133150000Y-108800000D03*
X133950000Y-80500000D03*
X147050000Y-83500000D03*
X147050000Y-84950000D03*
X157350000Y-89850000D03*
X153550000Y-89850000D03*
X152150000Y-89600000D03*
X149100000Y-120500000D03*
X136950000Y-91300000D03*
X138500000Y-91285000D03*
X157350000Y-93400000D03*
X154000000Y-93400000D03*
X153850000Y-95000000D03*
X152150000Y-88150000D03*
X149200000Y-89300000D03*
X148250000Y-114600000D03*
X145800000Y-114600000D03*
X152000000Y-114100000D03*
X144150000Y-112400000D03*
X134400000Y-119750000D03*
X130150000Y-103500000D03*
X196750000Y-115950000D03*
X194100000Y-57850000D03*
X131200000Y-53000000D03*
X155700000Y-96350000D03*
X155400000Y-87150000D03*
X150050000Y-81700000D03*
X150600000Y-96350000D03*
X149750000Y-77050000D03*
X151550000Y-76950000D03*
X156450000Y-79150000D03*
X159350000Y-78850000D03*
X152050000Y-82250000D03*
X155250000Y-82200000D03*
X151900000Y-80550000D03*
X146350000Y-77650000D03*
X146300000Y-81750000D03*
X155300000Y-71400000D03*
X152450000Y-85950000D03*
X154200000Y-63750000D03*
X154200000Y-58000000D03*
X151900000Y-63750000D03*
X151900000Y-58000000D03*
X145000000Y-79150000D03*
X138200000Y-79150000D03*
X144550000Y-120500000D03*
D23*
X187175000Y-73000000D02*
X151200000Y-73000000D01*
D24*
X118685001Y-79435001D02*
X127664999Y-79435001D01*
X117460000Y-78210000D02*
X118685001Y-79435001D01*
X127664999Y-79435001D02*
X134050000Y-73050000D01*
X121225001Y-81975001D02*
X129474999Y-81975001D01*
X120000000Y-80750000D02*
X121225001Y-81975001D01*
X129474999Y-81975001D02*
X134050000Y-77400000D01*
X149100000Y-120500000D02*
X156000000Y-120500000D01*
D25*
X185420000Y-124500000D02*
X181500000Y-124500000D01*
X132580000Y-125600000D02*
X162550000Y-125600000D01*
D24*
X133900000Y-58500000D02*
X136700000Y-61300000D01*
X133850000Y-58500000D02*
X133900000Y-58500000D01*
D25*
X136270000Y-50750000D02*
X136270000Y-52871320D01*
X136270000Y-52871320D02*
X144098679Y-60699999D01*
X144098679Y-60699999D02*
X184719999Y-60699999D01*
X184719999Y-60699999D02*
X191670000Y-67650000D01*
D23*
X196400000Y-70550000D02*
X196400000Y-68000000D01*
D25*
X191670000Y-118250000D02*
X191670000Y-67650000D01*
X191670000Y-67650000D02*
X196400000Y-62920000D01*
D23*
X187600000Y-102350000D02*
X187650000Y-102400000D01*
X144250000Y-102350000D02*
X187600000Y-102350000D01*
X144350000Y-75750000D02*
X147100000Y-73000000D01*
X140400000Y-75750000D02*
X144350000Y-75750000D01*
X140400000Y-90800000D02*
X140400000Y-87750000D01*
X138500000Y-92700000D02*
X140400000Y-90800000D01*
X147200000Y-62400000D02*
X180950000Y-62400000D01*
X142050000Y-93500000D02*
X142050000Y-87700000D01*
X141400000Y-53250000D02*
X141400000Y-50800000D01*
X141400000Y-50800000D02*
X141350000Y-50750000D01*
X134500000Y-94300000D02*
X132000000Y-91800000D01*
X138600000Y-94300000D02*
X134500000Y-94300000D01*
X134600000Y-96050000D02*
X130950000Y-92400000D01*
X140392894Y-96050000D02*
X134600000Y-96050000D01*
X142050000Y-95100000D02*
X141342894Y-95100000D01*
X141342894Y-95100000D02*
X140392894Y-96050000D01*
D26*
X127450000Y-52350000D02*
X126309999Y-51209999D01*
X128670000Y-98820000D02*
X128650000Y-98800000D01*
X128670000Y-102110000D02*
X128670000Y-98820000D01*
X124140001Y-51209999D02*
X126309999Y-51209999D01*
X122540000Y-52810000D02*
X124140001Y-51209999D01*
D25*
X191670000Y-118250000D02*
X185420000Y-124500000D01*
X129330000Y-122350000D02*
X132580000Y-125600000D01*
D23*
X176300000Y-103500000D02*
X186590000Y-113790000D01*
X186590000Y-113790000D02*
X186590000Y-118250000D01*
X142900000Y-103500000D02*
X176300000Y-103500000D01*
X137700000Y-102350000D02*
X140200000Y-102350000D01*
X135050000Y-97000000D02*
X138000000Y-99950000D01*
X138000000Y-99950000D02*
X145225000Y-99950000D01*
X145225000Y-99950000D02*
X145275001Y-100000001D01*
X145275001Y-100000001D02*
X145775000Y-100500000D01*
X133900000Y-97000000D02*
X135050000Y-97000000D01*
X137993002Y-101200000D02*
X144700000Y-101200000D01*
X133650000Y-98200000D02*
X134993002Y-98200000D01*
X134993002Y-98200000D02*
X137993002Y-101200000D01*
X127520000Y-62970000D02*
X129800000Y-65250000D01*
X125080000Y-62970000D02*
X127520000Y-62970000D01*
X127910000Y-65510000D02*
X128750000Y-66350000D01*
X125080000Y-65510000D02*
X127910000Y-65510000D01*
X138600000Y-112100000D02*
X135350000Y-112100000D01*
X136850000Y-115450000D02*
X129100000Y-115450000D01*
X129100000Y-115450000D02*
X124250000Y-120300000D01*
X124250000Y-120300000D02*
X124250000Y-122350000D01*
D24*
X140250000Y-107500000D02*
X137840000Y-107500000D01*
X137840000Y-107500000D02*
X133750000Y-103410000D01*
X133750000Y-103410000D02*
X133750000Y-102110000D01*
D23*
X135100000Y-99750000D02*
X137700000Y-102350000D01*
X141350000Y-108800000D02*
X141450000Y-108700000D01*
X133150000Y-108800000D02*
X141350000Y-108800000D01*
X133950000Y-80500000D02*
X148350000Y-80500000D01*
D24*
X153550000Y-89850000D02*
X157350000Y-89850000D01*
D23*
X152150000Y-89600000D02*
X152875001Y-88874999D01*
D24*
X154000000Y-93400000D02*
X157350000Y-93400000D01*
D23*
X151000000Y-89300000D02*
X152150000Y-88150000D01*
X149200000Y-89300000D02*
X151000000Y-89300000D01*
D24*
X148250000Y-113225000D02*
X148125000Y-113100000D01*
X148250000Y-114600000D02*
X148250000Y-113225000D01*
X145900000Y-113125000D02*
X145925000Y-113100000D01*
X145800000Y-114600000D02*
X145800000Y-113125000D01*
X151995000Y-114100000D02*
X152000000Y-114100000D01*
X148125000Y-111380000D02*
X149275000Y-111380000D01*
X149275000Y-111380000D02*
X151995000Y-114100000D01*
X144725000Y-112400000D02*
X145925000Y-111200000D01*
X144150000Y-112400000D02*
X144725000Y-112400000D01*
D23*
X134400000Y-122340000D02*
X134410000Y-122350000D01*
X134400000Y-119750000D02*
X134400000Y-122340000D01*
X130150000Y-103170000D02*
X131210000Y-102110000D01*
X130150000Y-103500000D02*
X130150000Y-103170000D01*
X196750000Y-115950000D02*
X196750000Y-118250000D01*
X196390000Y-57850000D02*
X196400000Y-57840000D01*
X194100000Y-57850000D02*
X196390000Y-57850000D01*
X131200000Y-50760000D02*
X131190000Y-50750000D01*
X131200000Y-53000000D02*
X131200000Y-50760000D01*
X150600000Y-96350000D02*
X155700000Y-96350000D01*
X155400000Y-87150000D02*
X150050000Y-81800000D01*
X150050000Y-81800000D02*
X150050000Y-81700000D01*
X148560000Y-66102081D02*
X148560000Y-71400000D01*
X148560000Y-64900000D02*
X148560000Y-66102081D01*
X149210000Y-72050000D02*
X148560000Y-71400000D01*
X149210000Y-75350000D02*
X149210000Y-72050000D01*
X149750000Y-75890000D02*
X149210000Y-75350000D01*
X149750000Y-77050000D02*
X149750000Y-75890000D01*
X151550000Y-75550000D02*
X151750000Y-75350000D01*
X151550000Y-76950000D02*
X151550000Y-75550000D01*
X156450000Y-75730000D02*
X156830000Y-75350000D01*
X156450000Y-79150000D02*
X156450000Y-75730000D01*
X159350000Y-75370000D02*
X159370000Y-75350000D01*
X159350000Y-78850000D02*
X159350000Y-75370000D01*
X152050000Y-82250000D02*
X155200000Y-82250000D01*
X155200000Y-82250000D02*
X155250000Y-82200000D01*
X148350000Y-80500000D02*
X151850000Y-80500000D01*
X151850000Y-80500000D02*
X151900000Y-80550000D01*
D24*
X154290000Y-75350000D02*
X154290000Y-75110000D01*
D23*
X153125001Y-86625001D02*
X152450000Y-85950000D01*
X152875001Y-88874999D02*
X153125001Y-88624999D01*
X153125001Y-88624999D02*
X153125001Y-86625001D01*
D24*
X153060000Y-64900000D02*
X153060000Y-64890000D01*
X153060000Y-64890000D02*
X154200000Y-63750000D01*
X153060000Y-64900000D02*
X153050000Y-64900000D01*
X153050000Y-64900000D02*
X151900000Y-63750000D01*
X145000000Y-79150000D02*
X138200000Y-79150000D01*
X149100000Y-120500000D02*
X144550000Y-120500000D01*
D27*
G36*
X207756001Y-51397755D02*
G01*
X202941640Y-56221650D01*
X202924875Y-56232227D01*
X202877126Y-56286291D01*
X202859147Y-56304306D01*
X202847706Y-56319603D01*
X202804657Y-56368347D01*
X202793540Y-56392027D01*
X202777876Y-56412970D01*
X202755119Y-56473862D01*
X202727311Y-56533091D01*
X202723533Y-56558370D01*
X202714298Y-56583079D01*
X202708959Y-56655883D01*
X202706000Y-56675690D01*
X202706000Y-56696253D01*
X202701019Y-56764196D01*
X202706000Y-56787418D01*
X202706001Y-69398986D01*
X202701555Y-69418633D01*
X202706001Y-69490289D01*
X202706001Y-69515446D01*
X202708755Y-69534677D01*
X202712800Y-69599887D01*
X202721575Y-69624195D01*
X202725238Y-69649770D01*
X202752277Y-69709241D01*
X202774598Y-69771070D01*
X202789619Y-69791369D01*
X202800403Y-69815088D01*
X202848317Y-69870693D01*
X202860361Y-69886971D01*
X202874675Y-69901284D01*
X202918947Y-69952664D01*
X202939149Y-69965758D01*
X207756000Y-74782611D01*
X207756001Y-84425085D01*
X203192081Y-88072442D01*
X203144874Y-88102228D01*
X203091218Y-88162981D01*
X203035772Y-88221986D01*
X203031260Y-88230871D01*
X203024657Y-88238348D01*
X202990217Y-88311703D01*
X202953554Y-88383910D01*
X202951716Y-88393708D01*
X202947311Y-88403093D01*
X202936915Y-88472647D01*
X202920087Y-88562407D01*
X202926000Y-88621847D01*
X202926001Y-106801643D01*
X202922900Y-106814024D01*
X202926001Y-106893403D01*
X202926001Y-106925449D01*
X202927723Y-106937471D01*
X202929989Y-106995485D01*
X202940536Y-107026938D01*
X202945238Y-107059770D01*
X202969268Y-107112622D01*
X202987726Y-107167667D01*
X203006674Y-107194892D01*
X203020403Y-107225088D01*
X203058301Y-107269070D01*
X203091692Y-107317048D01*
X203116981Y-107337171D01*
X203138946Y-107362663D01*
X203193217Y-107397840D01*
X203204511Y-107406827D01*
X203228146Y-107420479D01*
X203291338Y-107461439D01*
X203307337Y-107466224D01*
X207756000Y-110035949D01*
X207756001Y-128846000D01*
X204314950Y-128846000D01*
X204576896Y-128760888D01*
X204941622Y-128598501D01*
X205287377Y-128398880D01*
X205610371Y-128164211D01*
X205811813Y-127982833D01*
X203028980Y-125200000D01*
X203391019Y-125200000D01*
X205992833Y-127801813D01*
X206174211Y-127600371D01*
X206408880Y-127277377D01*
X206608501Y-126931622D01*
X206770888Y-126566896D01*
X206894261Y-126187195D01*
X206977268Y-125796677D01*
X207019000Y-125399621D01*
X207019000Y-125000379D01*
X206977268Y-124603323D01*
X206894261Y-124212805D01*
X206770888Y-123833104D01*
X206608501Y-123468378D01*
X206408880Y-123122623D01*
X206174211Y-122799629D01*
X205992833Y-122598187D01*
X203391019Y-125200000D01*
X203028980Y-125200000D01*
X200427167Y-122598187D01*
X200245789Y-122799629D01*
X200011120Y-123122623D01*
X199811499Y-123468378D01*
X199649112Y-123833104D01*
X199525739Y-124212805D01*
X199442732Y-124603323D01*
X199401000Y-125000379D01*
X199401000Y-125399621D01*
X199437697Y-125748777D01*
X199045142Y-125120074D01*
X199044684Y-125118471D01*
X198992463Y-125035704D01*
X198973705Y-125005664D01*
X198972924Y-125004738D01*
X198947772Y-124964874D01*
X198914692Y-124935659D01*
X198886251Y-124901920D01*
X198846986Y-124875862D01*
X198811654Y-124844658D01*
X198771699Y-124825899D01*
X198734933Y-124801501D01*
X198689935Y-124787512D01*
X198646912Y-124767312D01*
X198604637Y-124760993D01*
X198561518Y-124747588D01*
X198508991Y-124746699D01*
X198504310Y-124746000D01*
X198467657Y-124746000D01*
X198379940Y-124744516D01*
X198374527Y-124746000D01*
X188158850Y-124746000D01*
X188156703Y-124745387D01*
X188061957Y-124746000D01*
X188024549Y-124746000D01*
X188022781Y-124746253D01*
X187975102Y-124746561D01*
X187933360Y-124759060D01*
X187890230Y-124765237D01*
X187846810Y-124784978D01*
X187801130Y-124798657D01*
X187764579Y-124822367D01*
X187724911Y-124840402D01*
X187688785Y-124871532D01*
X187648444Y-124897699D01*
X187621094Y-124929858D01*
X187587336Y-124958946D01*
X187558433Y-125003538D01*
X187555033Y-125007536D01*
X187535863Y-125038359D01*
X187488561Y-125111338D01*
X187486789Y-125117262D01*
X185167697Y-128846000D01*
X125882610Y-128846000D01*
X123158522Y-126121912D01*
X123147772Y-126104874D01*
X123093949Y-126057339D01*
X123076170Y-126039559D01*
X123060632Y-126027915D01*
X123011652Y-125984657D01*
X122988259Y-125973674D01*
X122967589Y-125958182D01*
X122906415Y-125935249D01*
X122846911Y-125907311D01*
X122821934Y-125903578D01*
X122797538Y-125894433D01*
X122724343Y-125888993D01*
X122704313Y-125886000D01*
X122684062Y-125886000D01*
X122616435Y-125880975D01*
X122592895Y-125886000D01*
X117543210Y-125886000D01*
X117524268Y-125882198D01*
X117508269Y-125881401D01*
X117088647Y-125863080D01*
X116700291Y-125811952D01*
X116317861Y-125727168D01*
X115944288Y-125609383D01*
X115582369Y-125459472D01*
X115234921Y-125278602D01*
X114904550Y-125068132D01*
X114593768Y-124829661D01*
X114304972Y-124565028D01*
X114040329Y-124276219D01*
X113960998Y-124172833D01*
X114878187Y-124172833D01*
X115079629Y-124354211D01*
X115402623Y-124588880D01*
X115748378Y-124788501D01*
X116113104Y-124950888D01*
X116492805Y-125074261D01*
X116883323Y-125157268D01*
X117280379Y-125199000D01*
X117679621Y-125199000D01*
X118076677Y-125157268D01*
X118467195Y-125074261D01*
X118846896Y-124950888D01*
X119211622Y-124788501D01*
X119557377Y-124588880D01*
X119880371Y-124354211D01*
X120081813Y-124172833D01*
X117480000Y-121571019D01*
X114878187Y-124172833D01*
X113960998Y-124172833D01*
X113801873Y-123965458D01*
X113591398Y-123635079D01*
X113410528Y-123287631D01*
X113260620Y-122925720D01*
X113142832Y-122552142D01*
X113058048Y-122169709D01*
X113006920Y-121781353D01*
X112988225Y-121353150D01*
X112984000Y-121330686D01*
X112984000Y-121190379D01*
X113671000Y-121190379D01*
X113671000Y-121589621D01*
X113712732Y-121986677D01*
X113795739Y-122377195D01*
X113919112Y-122756896D01*
X114081499Y-123121622D01*
X114281120Y-123467377D01*
X114515789Y-123790371D01*
X114697167Y-123991813D01*
X117298981Y-121390000D01*
X117661019Y-121390000D01*
X120262833Y-123991813D01*
X120444211Y-123790371D01*
X120678880Y-123467377D01*
X120878501Y-123121622D01*
X121040888Y-122756896D01*
X121164261Y-122377195D01*
X121247268Y-121986677D01*
X121289000Y-121589621D01*
X121289000Y-121190379D01*
X121247268Y-120793323D01*
X121164261Y-120402805D01*
X121040888Y-120023104D01*
X120878501Y-119658378D01*
X120678880Y-119312623D01*
X120444211Y-118989629D01*
X120262833Y-118788187D01*
X117661019Y-121390000D01*
X117298981Y-121390000D01*
X114697167Y-118788187D01*
X114515789Y-118989629D01*
X114281120Y-119312623D01*
X114081499Y-119658378D01*
X113919112Y-120023104D01*
X113795739Y-120402805D01*
X113712732Y-120793323D01*
X113671000Y-121190379D01*
X112984000Y-121190379D01*
X112984000Y-108352609D01*
X115248088Y-106088522D01*
X115265126Y-106077772D01*
X115312661Y-106023949D01*
X115330440Y-106006171D01*
X115342084Y-105990634D01*
X115385343Y-105941653D01*
X115396325Y-105918262D01*
X115411818Y-105897589D01*
X115434753Y-105836412D01*
X115462689Y-105776911D01*
X115466422Y-105751935D01*
X115475567Y-105727539D01*
X115481006Y-105654343D01*
X115484000Y-105634313D01*
X115484000Y-105614062D01*
X115489025Y-105546435D01*
X115484000Y-105522895D01*
X115484000Y-80624541D01*
X116026000Y-80624541D01*
X116026000Y-80875459D01*
X116069571Y-81122564D01*
X116155391Y-81358349D01*
X116343982Y-81684999D01*
X117278981Y-80750000D01*
X117641019Y-80750000D01*
X118576018Y-81684999D01*
X118730000Y-81418294D01*
X118883982Y-81684999D01*
X119818981Y-80750000D01*
X118883982Y-79815001D01*
X118730000Y-80081706D01*
X118576018Y-79815001D01*
X117641019Y-80750000D01*
X117278981Y-80750000D01*
X116343982Y-79815001D01*
X116155391Y-80141651D01*
X116069571Y-80377436D01*
X116026000Y-80624541D01*
X115484000Y-80624541D01*
X115484000Y-79326018D01*
X116525001Y-79326018D01*
X116791706Y-79480000D01*
X116525001Y-79633982D01*
X117460000Y-80568981D01*
X118394999Y-79633982D01*
X118128294Y-79480000D01*
X118394999Y-79326018D01*
X117460000Y-78391019D01*
X116525001Y-79326018D01*
X115484000Y-79326018D01*
X115484000Y-78084541D01*
X116026000Y-78084541D01*
X116026000Y-78335459D01*
X116069571Y-78582564D01*
X116155391Y-78818349D01*
X116343982Y-79144999D01*
X117278981Y-78210000D01*
X116343982Y-77275001D01*
X116155391Y-77601651D01*
X116069571Y-77837436D01*
X116026000Y-78084541D01*
X115484000Y-78084541D01*
X115484000Y-65661010D01*
X115488445Y-65641368D01*
X115484000Y-65569728D01*
X115484000Y-65544553D01*
X115481245Y-65525316D01*
X115477200Y-65460111D01*
X115468427Y-65435810D01*
X115464764Y-65410232D01*
X115437720Y-65350751D01*
X115415402Y-65288930D01*
X115400383Y-65268631D01*
X115389597Y-65244911D01*
X115341681Y-65189302D01*
X115329638Y-65173027D01*
X115315326Y-65158716D01*
X115271054Y-65107336D01*
X115250852Y-65094242D01*
X112984000Y-62827390D01*
X112984000Y-50512833D01*
X114878187Y-50512833D01*
X115079629Y-50694211D01*
X115402623Y-50928880D01*
X115748378Y-51128501D01*
X116113104Y-51290888D01*
X116492805Y-51414261D01*
X116877417Y-51496013D01*
X116851651Y-51505391D01*
X116634349Y-51630850D01*
X116442136Y-51792136D01*
X116280850Y-51984349D01*
X116155391Y-52201651D01*
X116069571Y-52437436D01*
X116026000Y-52684541D01*
X116026000Y-52935459D01*
X116069571Y-53182564D01*
X116155391Y-53418349D01*
X116280850Y-53635651D01*
X116442136Y-53827864D01*
X116634349Y-53989150D01*
X116791706Y-54080000D01*
X116634349Y-54170850D01*
X116442136Y-54332136D01*
X116280850Y-54524349D01*
X116155391Y-54741651D01*
X116069571Y-54977436D01*
X116026000Y-55224541D01*
X116026000Y-55475459D01*
X116069571Y-55722564D01*
X116155391Y-55958349D01*
X116280850Y-56175651D01*
X116442136Y-56367864D01*
X116634349Y-56529150D01*
X116791706Y-56620000D01*
X116634349Y-56710850D01*
X116442136Y-56872136D01*
X116280850Y-57064349D01*
X116155391Y-57281651D01*
X116069571Y-57517436D01*
X116026000Y-57764541D01*
X116026000Y-58015459D01*
X116069571Y-58262564D01*
X116155391Y-58498349D01*
X116280850Y-58715651D01*
X116442136Y-58907864D01*
X116634349Y-59069150D01*
X116791706Y-59160000D01*
X116634349Y-59250850D01*
X116442136Y-59412136D01*
X116280850Y-59604349D01*
X116155391Y-59821651D01*
X116069571Y-60057436D01*
X116026000Y-60304541D01*
X116026000Y-60555459D01*
X116069571Y-60802564D01*
X116155391Y-61038349D01*
X116280850Y-61255651D01*
X116442136Y-61447864D01*
X116634349Y-61609150D01*
X116791706Y-61700000D01*
X116634349Y-61790850D01*
X116442136Y-61952136D01*
X116280850Y-62144349D01*
X116155391Y-62361651D01*
X116069571Y-62597436D01*
X116026000Y-62844541D01*
X116026000Y-63095459D01*
X116069571Y-63342564D01*
X116155391Y-63578349D01*
X116280850Y-63795651D01*
X116442136Y-63987864D01*
X116634349Y-64149150D01*
X116791706Y-64240000D01*
X116634349Y-64330850D01*
X116442136Y-64492136D01*
X116280850Y-64684349D01*
X116155391Y-64901651D01*
X116069571Y-65137436D01*
X116026000Y-65384541D01*
X116026000Y-65635459D01*
X116069571Y-65882564D01*
X116155391Y-66118349D01*
X116280850Y-66335651D01*
X116442136Y-66527864D01*
X116634349Y-66689150D01*
X116791706Y-66780000D01*
X116634349Y-66870850D01*
X116442136Y-67032136D01*
X116280850Y-67224349D01*
X116155391Y-67441651D01*
X116069571Y-67677436D01*
X116026000Y-67924541D01*
X116026000Y-68175459D01*
X116069571Y-68422564D01*
X116155391Y-68658349D01*
X116280850Y-68875651D01*
X116442136Y-69067864D01*
X116634349Y-69229150D01*
X116791706Y-69320000D01*
X116634349Y-69410850D01*
X116442136Y-69572136D01*
X116280850Y-69764349D01*
X116155391Y-69981651D01*
X116069571Y-70217436D01*
X116026000Y-70464541D01*
X116026000Y-70715459D01*
X116069571Y-70962564D01*
X116155391Y-71198349D01*
X116280850Y-71415651D01*
X116442136Y-71607864D01*
X116634349Y-71769150D01*
X116791706Y-71860000D01*
X116634349Y-71950850D01*
X116442136Y-72112136D01*
X116280850Y-72304349D01*
X116155391Y-72521651D01*
X116069571Y-72757436D01*
X116026000Y-73004541D01*
X116026000Y-73255459D01*
X116069571Y-73502564D01*
X116155391Y-73738349D01*
X116280850Y-73955651D01*
X116442136Y-74147864D01*
X116634349Y-74309150D01*
X116791706Y-74400000D01*
X116634349Y-74490850D01*
X116442136Y-74652136D01*
X116280850Y-74844349D01*
X116155391Y-75061651D01*
X116069571Y-75297436D01*
X116026000Y-75544541D01*
X116026000Y-75795459D01*
X116069571Y-76042564D01*
X116155391Y-76278349D01*
X116280850Y-76495651D01*
X116442136Y-76687864D01*
X116634349Y-76849150D01*
X116791706Y-76940000D01*
X116525001Y-77093982D01*
X117460000Y-78028981D01*
X118394999Y-77093982D01*
X118128294Y-76940000D01*
X118285651Y-76849150D01*
X118477864Y-76687864D01*
X118639150Y-76495651D01*
X118730000Y-76338294D01*
X118820850Y-76495651D01*
X118982136Y-76687864D01*
X119174349Y-76849150D01*
X119331706Y-76940000D01*
X119174349Y-77030850D01*
X118982136Y-77192136D01*
X118820850Y-77384349D01*
X118730000Y-77541706D01*
X118576018Y-77275001D01*
X117641019Y-78210000D01*
X118576018Y-79144999D01*
X118730000Y-78878294D01*
X118820850Y-79035651D01*
X118982136Y-79227864D01*
X119174349Y-79389150D01*
X119331706Y-79480000D01*
X119065001Y-79633982D01*
X120000000Y-80568981D01*
X120934999Y-79633982D01*
X120668294Y-79480000D01*
X120825651Y-79389150D01*
X121017864Y-79227864D01*
X121179150Y-79035651D01*
X121270000Y-78878294D01*
X121360850Y-79035651D01*
X121522136Y-79227864D01*
X121714349Y-79389150D01*
X121871706Y-79480000D01*
X121714349Y-79570850D01*
X121522136Y-79732136D01*
X121360850Y-79924349D01*
X121270000Y-80081706D01*
X121116018Y-79815001D01*
X120181019Y-80750000D01*
X121116018Y-81684999D01*
X121270000Y-81418294D01*
X121360850Y-81575651D01*
X121522136Y-81767864D01*
X121714349Y-81929150D01*
X121871706Y-82020000D01*
X121714349Y-82110850D01*
X121522136Y-82272136D01*
X121360850Y-82464349D01*
X121270000Y-82621706D01*
X121179150Y-82464349D01*
X121017864Y-82272136D01*
X120825651Y-82110850D01*
X120668294Y-82020000D01*
X120934999Y-81866018D01*
X120000000Y-80931019D01*
X119065001Y-81866018D01*
X119331706Y-82020000D01*
X119174349Y-82110850D01*
X118982136Y-82272136D01*
X118820850Y-82464349D01*
X118730000Y-82621706D01*
X118639150Y-82464349D01*
X118477864Y-82272136D01*
X118285651Y-82110850D01*
X118128294Y-82020000D01*
X118394999Y-81866018D01*
X117460000Y-80931019D01*
X116525001Y-81866018D01*
X116791706Y-82020000D01*
X116634349Y-82110850D01*
X116442136Y-82272136D01*
X116280850Y-82464349D01*
X116155391Y-82681651D01*
X116069571Y-82917436D01*
X116026000Y-83164541D01*
X116026000Y-83415459D01*
X116069571Y-83662564D01*
X116155391Y-83898349D01*
X116280850Y-84115651D01*
X116442136Y-84307864D01*
X116634349Y-84469150D01*
X116791706Y-84560000D01*
X116634349Y-84650850D01*
X116442136Y-84812136D01*
X116280850Y-85004349D01*
X116155391Y-85221651D01*
X116069571Y-85457436D01*
X116026000Y-85704541D01*
X116026000Y-85955459D01*
X116069571Y-86202564D01*
X116155391Y-86438349D01*
X116280850Y-86655651D01*
X116442136Y-86847864D01*
X116634349Y-87009150D01*
X116791706Y-87100000D01*
X116634349Y-87190850D01*
X116442136Y-87352136D01*
X116280850Y-87544349D01*
X116155391Y-87761651D01*
X116069571Y-87997436D01*
X116026000Y-88244541D01*
X116026000Y-88495459D01*
X116069571Y-88742564D01*
X116155391Y-88978349D01*
X116280850Y-89195651D01*
X116442136Y-89387864D01*
X116634349Y-89549150D01*
X116791706Y-89640000D01*
X116634349Y-89730850D01*
X116442136Y-89892136D01*
X116280850Y-90084349D01*
X116155391Y-90301651D01*
X116069571Y-90537436D01*
X116026000Y-90784541D01*
X116026000Y-91035459D01*
X116069571Y-91282564D01*
X116155391Y-91518349D01*
X116280850Y-91735651D01*
X116442136Y-91927864D01*
X116634349Y-92089150D01*
X116791706Y-92180000D01*
X116634349Y-92270850D01*
X116442136Y-92432136D01*
X116280850Y-92624349D01*
X116155391Y-92841651D01*
X116069571Y-93077436D01*
X116026000Y-93324541D01*
X116026000Y-93575459D01*
X116069571Y-93822564D01*
X116155391Y-94058349D01*
X116280850Y-94275651D01*
X116442136Y-94467864D01*
X116634349Y-94629150D01*
X116791706Y-94720000D01*
X116634349Y-94810850D01*
X116442136Y-94972136D01*
X116280850Y-95164349D01*
X116155391Y-95381651D01*
X116069571Y-95617436D01*
X116026000Y-95864541D01*
X116026000Y-96115459D01*
X116069571Y-96362564D01*
X116155391Y-96598349D01*
X116280850Y-96815651D01*
X116442136Y-97007864D01*
X116634349Y-97169150D01*
X116791706Y-97260000D01*
X116634349Y-97350850D01*
X116442136Y-97512136D01*
X116280850Y-97704349D01*
X116155391Y-97921651D01*
X116069571Y-98157436D01*
X116026000Y-98404541D01*
X116026000Y-98655459D01*
X116069571Y-98902564D01*
X116155391Y-99138349D01*
X116280850Y-99355651D01*
X116442136Y-99547864D01*
X116634349Y-99709150D01*
X116791706Y-99800000D01*
X116634349Y-99890850D01*
X116442136Y-100052136D01*
X116280850Y-100244349D01*
X116155391Y-100461651D01*
X116069571Y-100697436D01*
X116026000Y-100944541D01*
X116026000Y-101195459D01*
X116069571Y-101442564D01*
X116155391Y-101678349D01*
X116280850Y-101895651D01*
X116442136Y-102087864D01*
X116634349Y-102249150D01*
X116791706Y-102340000D01*
X116634349Y-102430850D01*
X116442136Y-102592136D01*
X116280850Y-102784349D01*
X116155391Y-103001651D01*
X116069571Y-103237436D01*
X116026000Y-103484541D01*
X116026000Y-103735459D01*
X116069571Y-103982564D01*
X116155391Y-104218349D01*
X116280850Y-104435651D01*
X116442136Y-104627864D01*
X116634349Y-104789150D01*
X116791706Y-104880000D01*
X116634349Y-104970850D01*
X116442136Y-105132136D01*
X116280850Y-105324349D01*
X116155391Y-105541651D01*
X116069571Y-105777436D01*
X116026000Y-106024541D01*
X116026000Y-106275459D01*
X116069571Y-106522564D01*
X116155391Y-106758349D01*
X116280850Y-106975651D01*
X116442136Y-107167864D01*
X116634349Y-107329150D01*
X116791706Y-107420000D01*
X116634349Y-107510850D01*
X116442136Y-107672136D01*
X116280850Y-107864349D01*
X116155391Y-108081651D01*
X116069571Y-108317436D01*
X116026000Y-108564541D01*
X116026000Y-108815459D01*
X116069571Y-109062564D01*
X116155391Y-109298349D01*
X116280850Y-109515651D01*
X116442136Y-109707864D01*
X116634349Y-109869150D01*
X116791706Y-109960000D01*
X116634349Y-110050850D01*
X116442136Y-110212136D01*
X116280850Y-110404349D01*
X116155391Y-110621651D01*
X116069571Y-110857436D01*
X116026000Y-111104541D01*
X116026000Y-111355459D01*
X116069571Y-111602564D01*
X116155391Y-111838349D01*
X116280850Y-112055651D01*
X116442136Y-112247864D01*
X116634349Y-112409150D01*
X116791706Y-112500000D01*
X116634349Y-112590850D01*
X116442136Y-112752136D01*
X116280850Y-112944349D01*
X116155391Y-113161651D01*
X116069571Y-113397436D01*
X116026000Y-113644541D01*
X116026000Y-113895459D01*
X116069571Y-114142564D01*
X116155391Y-114378349D01*
X116280850Y-114595651D01*
X116442136Y-114787864D01*
X116634349Y-114949150D01*
X116791706Y-115040000D01*
X116634349Y-115130850D01*
X116442136Y-115292136D01*
X116280850Y-115484349D01*
X116155391Y-115701651D01*
X116069571Y-115937436D01*
X116026000Y-116184541D01*
X116026000Y-116435459D01*
X116069571Y-116682564D01*
X116155391Y-116918349D01*
X116280850Y-117135651D01*
X116442136Y-117327864D01*
X116634349Y-117489150D01*
X116851651Y-117614609D01*
X116877417Y-117623987D01*
X116492805Y-117705739D01*
X116113104Y-117829112D01*
X115748378Y-117991499D01*
X115402623Y-118191120D01*
X115079629Y-118425789D01*
X114878187Y-118607167D01*
X117480000Y-121208981D01*
X120081813Y-118607167D01*
X119880371Y-118425789D01*
X119557377Y-118191120D01*
X119211622Y-117991499D01*
X118846896Y-117829112D01*
X118467195Y-117705739D01*
X118076677Y-117622732D01*
X118052898Y-117620233D01*
X118068349Y-117614609D01*
X118285651Y-117489150D01*
X118477864Y-117327864D01*
X118639150Y-117135651D01*
X118730000Y-116978294D01*
X118820850Y-117135651D01*
X118982136Y-117327864D01*
X119174349Y-117489150D01*
X119391651Y-117614609D01*
X119627436Y-117700429D01*
X119874541Y-117744000D01*
X120125459Y-117744000D01*
X120372564Y-117700429D01*
X120608349Y-117614609D01*
X120825651Y-117489150D01*
X121017864Y-117327864D01*
X121179150Y-117135651D01*
X121270000Y-116978294D01*
X121360850Y-117135651D01*
X121522136Y-117327864D01*
X121714349Y-117489150D01*
X121931651Y-117614609D01*
X122167436Y-117700429D01*
X122414541Y-117744000D01*
X122665459Y-117744000D01*
X122912564Y-117700429D01*
X123148349Y-117614609D01*
X123365651Y-117489150D01*
X123557864Y-117327864D01*
X123659606Y-117206613D01*
X123718795Y-117427512D01*
X123866185Y-117603165D01*
X124059814Y-117714956D01*
X124268976Y-117751837D01*
X125512645Y-117751837D01*
X123621547Y-119642935D01*
X123543024Y-119715141D01*
X123499994Y-119784542D01*
X123450629Y-119849578D01*
X123434656Y-119889921D01*
X123409294Y-119930826D01*
X123398669Y-119980813D01*
X123358948Y-120081136D01*
X123345597Y-120208163D01*
X122733412Y-120208163D01*
X122432489Y-120288795D01*
X122256835Y-120436185D01*
X122145044Y-120629814D01*
X122108163Y-120838976D01*
X122108163Y-123866588D01*
X122188795Y-124167512D01*
X122336185Y-124343165D01*
X122529814Y-124454956D01*
X122738976Y-124491837D01*
X125766588Y-124491837D01*
X126067512Y-124411205D01*
X126243165Y-124263815D01*
X126354956Y-124070186D01*
X126391837Y-123861024D01*
X126391837Y-122350000D01*
X127190789Y-122350000D01*
X127211608Y-122647721D01*
X127273658Y-122939646D01*
X127375734Y-123220095D01*
X127515846Y-123483609D01*
X127691270Y-123725058D01*
X127898589Y-123939743D01*
X128133769Y-124123486D01*
X128392231Y-124272710D01*
X128668948Y-124384511D01*
X128958530Y-124456711D01*
X129145544Y-124476367D01*
X131408016Y-126738839D01*
X131506806Y-126843307D01*
X131593683Y-126904139D01*
X131675876Y-126971174D01*
X131729322Y-126999115D01*
X131778727Y-127033708D01*
X131876065Y-127075831D01*
X131970057Y-127124968D01*
X132028021Y-127141588D01*
X132086447Y-127166871D01*
X132151100Y-127176881D01*
X132289152Y-127216466D01*
X132620127Y-127241934D01*
X132682925Y-127234000D01*
X162632937Y-127234000D01*
X162880255Y-127208879D01*
X163197020Y-127109610D01*
X163487354Y-126948675D01*
X163739397Y-126732648D01*
X163942855Y-126470352D01*
X164089415Y-126172503D01*
X164173091Y-125851267D01*
X164186522Y-125594964D01*
X164657555Y-125594964D01*
X164690123Y-125904827D01*
X164788469Y-126200466D01*
X164948006Y-126468090D01*
X165161289Y-126695213D01*
X165418367Y-126871240D01*
X165707249Y-126987955D01*
X166014454Y-127039914D01*
X166325650Y-127024694D01*
X166626318Y-126943004D01*
X166902431Y-126798656D01*
X167141106Y-126598384D01*
X167331207Y-126351532D01*
X167463866Y-126069617D01*
X167532943Y-125765574D01*
X167534064Y-125444433D01*
X167467111Y-125139916D01*
X167336423Y-124857081D01*
X167148050Y-124608909D01*
X167014166Y-124494964D01*
X176557555Y-124494964D01*
X176590123Y-124804827D01*
X176688469Y-125100466D01*
X176848006Y-125368090D01*
X177061289Y-125595213D01*
X177318367Y-125771240D01*
X177607249Y-125887955D01*
X177914454Y-125939914D01*
X178225650Y-125924694D01*
X178526318Y-125843004D01*
X178802431Y-125698656D01*
X179041106Y-125498384D01*
X179231207Y-125251532D01*
X179363866Y-124969617D01*
X179432943Y-124665574D01*
X179434064Y-124344433D01*
X179367111Y-124039916D01*
X179236423Y-123757081D01*
X179048050Y-123508909D01*
X178810779Y-123306975D01*
X178535681Y-123160702D01*
X178235590Y-123076916D01*
X177924508Y-123059523D01*
X177616948Y-123109337D01*
X177327260Y-123224033D01*
X177068958Y-123398259D01*
X176854094Y-123623888D01*
X176692693Y-123890393D01*
X176592286Y-124185338D01*
X176557555Y-124494964D01*
X167014166Y-124494964D01*
X166910779Y-124406975D01*
X166635681Y-124260702D01*
X166335590Y-124176916D01*
X166024508Y-124159523D01*
X165716948Y-124209337D01*
X165427260Y-124324033D01*
X165168958Y-124498259D01*
X164954094Y-124723888D01*
X164792693Y-124990393D01*
X164692286Y-125285338D01*
X164657555Y-125594964D01*
X164186522Y-125594964D01*
X164190463Y-125519768D01*
X164140824Y-125191546D01*
X164026201Y-124880009D01*
X163851276Y-124597883D01*
X163623194Y-124356693D01*
X163351273Y-124166292D01*
X163043552Y-124033129D01*
X162609925Y-123966000D01*
X135804463Y-123966000D01*
X135948819Y-123836021D01*
X136140658Y-123607397D01*
X136298811Y-123354299D01*
X136420200Y-123081653D01*
X136502464Y-122794767D01*
X136544000Y-122499224D01*
X136544000Y-122200776D01*
X136502464Y-121905233D01*
X136420200Y-121618347D01*
X136298811Y-121345701D01*
X136140658Y-121092603D01*
X135965617Y-120883997D01*
X162267821Y-120883997D01*
X162301705Y-121161962D01*
X162376302Y-121431866D01*
X162489975Y-121687778D01*
X162640224Y-121924079D01*
X162823751Y-122135576D01*
X163036524Y-122317621D01*
X163273866Y-122466218D01*
X163530567Y-122578101D01*
X163800985Y-122650812D01*
X164079179Y-122682755D01*
X164359041Y-122673226D01*
X164634419Y-122622436D01*
X164899265Y-122531500D01*
X165147761Y-122402418D01*
X165374448Y-122238022D01*
X165574345Y-122041926D01*
X165743062Y-121818436D01*
X165876892Y-121572465D01*
X165972896Y-121309413D01*
X166029295Y-121033434D01*
X166039447Y-120658275D01*
X165998054Y-120379650D01*
X165916418Y-120111792D01*
X165796085Y-119858942D01*
X165639701Y-119626656D01*
X165450700Y-119420036D01*
X165233235Y-119243622D01*
X164992084Y-119101289D01*
X164732543Y-118996164D01*
X164460314Y-118930556D01*
X164181378Y-118905908D01*
X163901863Y-118922759D01*
X163627908Y-118980739D01*
X163365533Y-119078577D01*
X163120502Y-119214121D01*
X162898196Y-119384394D01*
X162703500Y-119585656D01*
X162540691Y-119813485D01*
X162413346Y-120062876D01*
X162324261Y-120328350D01*
X162275395Y-120604077D01*
X162267821Y-120883997D01*
X135965617Y-120883997D01*
X135948819Y-120863979D01*
X135727030Y-120664279D01*
X135479606Y-120497389D01*
X135323415Y-120421210D01*
X135327661Y-120416592D01*
X135459888Y-120176072D01*
X135531099Y-119910308D01*
X135534209Y-119613416D01*
X135468579Y-119346218D01*
X135341417Y-119102981D01*
X135159907Y-118897098D01*
X134934526Y-118740455D01*
X134678286Y-118642094D01*
X134405981Y-118607694D01*
X134133330Y-118639241D01*
X133876075Y-118734912D01*
X133649065Y-118889187D01*
X133465409Y-119093159D01*
X133335708Y-119335051D01*
X133267451Y-119600897D01*
X133264576Y-119875352D01*
X133327252Y-120142570D01*
X133451858Y-120387124D01*
X133482832Y-120423008D01*
X133472231Y-120427291D01*
X133213769Y-120576514D01*
X132978589Y-120760257D01*
X132771270Y-120974942D01*
X132595846Y-121216391D01*
X132455734Y-121479905D01*
X132353658Y-121760354D01*
X132291608Y-122052279D01*
X132270789Y-122350000D01*
X132291608Y-122647721D01*
X132353658Y-122939646D01*
X132424154Y-123133330D01*
X131459487Y-122168664D01*
X131422464Y-121905233D01*
X131340200Y-121618347D01*
X131218811Y-121345701D01*
X131060658Y-121092603D01*
X130868819Y-120863979D01*
X130647030Y-120664279D01*
X130399606Y-120497389D01*
X130131363Y-120366559D01*
X129847522Y-120274333D01*
X129553609Y-120222508D01*
X129255343Y-120212092D01*
X128958530Y-120243289D01*
X128668948Y-120315489D01*
X128392231Y-120427290D01*
X128133769Y-120576514D01*
X127898589Y-120760257D01*
X127691270Y-120974942D01*
X127515846Y-121216391D01*
X127375734Y-121479905D01*
X127273658Y-121760354D01*
X127211608Y-122052279D01*
X127190789Y-122350000D01*
X126391837Y-122350000D01*
X126391837Y-120833412D01*
X126311205Y-120532489D01*
X126163815Y-120356835D01*
X125970186Y-120245044D01*
X125761024Y-120208163D01*
X125627355Y-120208163D01*
X129476519Y-116359000D01*
X136171405Y-116359000D01*
X136304931Y-116453893D01*
X136560126Y-116554932D01*
X136832058Y-116592182D01*
X137105024Y-116563491D01*
X137363267Y-116470518D01*
X137591879Y-116318628D01*
X137777661Y-116116592D01*
X137909888Y-115876072D01*
X137981099Y-115610308D01*
X137984209Y-115313416D01*
X137918579Y-115046218D01*
X137791417Y-114802981D01*
X137609907Y-114597098D01*
X137384526Y-114440455D01*
X137128286Y-114342094D01*
X136855981Y-114307694D01*
X136583330Y-114339241D01*
X136326075Y-114434912D01*
X136169972Y-114541000D01*
X129120174Y-114541000D01*
X129013652Y-114536535D01*
X128934155Y-114555180D01*
X128853256Y-114566262D01*
X128813435Y-114583494D01*
X128766578Y-114594485D01*
X128723720Y-114622317D01*
X128624691Y-114665171D01*
X128431144Y-114821903D01*
X128403058Y-114861423D01*
X126521837Y-116742644D01*
X126521837Y-115493412D01*
X126441205Y-115192489D01*
X126293815Y-115016835D01*
X126100186Y-114905044D01*
X125982868Y-114884358D01*
X126097864Y-114787864D01*
X126259150Y-114595651D01*
X126384609Y-114378349D01*
X126470429Y-114142564D01*
X126514000Y-113895459D01*
X126514000Y-113644541D01*
X126470429Y-113397436D01*
X126384609Y-113161651D01*
X126259150Y-112944349D01*
X126097864Y-112752136D01*
X125905651Y-112590850D01*
X125748294Y-112500000D01*
X125905651Y-112409150D01*
X126097864Y-112247864D01*
X126116753Y-112225352D01*
X134214576Y-112225352D01*
X134277252Y-112492570D01*
X134401858Y-112737124D01*
X134581203Y-112944897D01*
X134804931Y-113103893D01*
X135060126Y-113204932D01*
X135332058Y-113242182D01*
X135605024Y-113213491D01*
X135863267Y-113120518D01*
X136031114Y-113009000D01*
X137921405Y-113009000D01*
X138054931Y-113103893D01*
X138310126Y-113204932D01*
X138582058Y-113242182D01*
X138855024Y-113213491D01*
X139113267Y-113120518D01*
X139341879Y-112968628D01*
X139527661Y-112766592D01*
X139659888Y-112526072D01*
X139660080Y-112525352D01*
X143014576Y-112525352D01*
X143077252Y-112792570D01*
X143201858Y-113037124D01*
X143381203Y-113244897D01*
X143604931Y-113403893D01*
X143860126Y-113504932D01*
X144132058Y-113542182D01*
X144405024Y-113513491D01*
X144583163Y-113449357D01*
X144583163Y-113616588D01*
X144663795Y-113917512D01*
X144795195Y-114074109D01*
X144735708Y-114185051D01*
X144667451Y-114450897D01*
X144664576Y-114725352D01*
X144727252Y-114992570D01*
X144851858Y-115237124D01*
X145031203Y-115444897D01*
X145254931Y-115603893D01*
X145510126Y-115704932D01*
X145782058Y-115742182D01*
X146055024Y-115713491D01*
X146313267Y-115620518D01*
X146541879Y-115468628D01*
X146727661Y-115266592D01*
X146859888Y-115026072D01*
X146931099Y-114760308D01*
X146934209Y-114463416D01*
X146868579Y-114196218D01*
X146861608Y-114182883D01*
X146942512Y-114161205D01*
X147018539Y-114097411D01*
X147183723Y-114192779D01*
X147117451Y-114450897D01*
X147114576Y-114725352D01*
X147177252Y-114992570D01*
X147301858Y-115237124D01*
X147481203Y-115444897D01*
X147704931Y-115603893D01*
X147960126Y-115704932D01*
X148232058Y-115742182D01*
X148505024Y-115713491D01*
X148763267Y-115620518D01*
X148991879Y-115468628D01*
X149177661Y-115266592D01*
X149309888Y-115026072D01*
X149381099Y-114760308D01*
X149384209Y-114463416D01*
X149318579Y-114196218D01*
X149252171Y-114069190D01*
X149318165Y-114013814D01*
X149429956Y-113820186D01*
X149466837Y-113611024D01*
X149466837Y-112786645D01*
X150865001Y-114184809D01*
X150864576Y-114225352D01*
X150927252Y-114492570D01*
X151051858Y-114737124D01*
X151231203Y-114944897D01*
X151454931Y-115103893D01*
X151710126Y-115204932D01*
X151982058Y-115242182D01*
X152255024Y-115213491D01*
X152513267Y-115120518D01*
X152741879Y-114968628D01*
X152927661Y-114766592D01*
X153059888Y-114526072D01*
X153131099Y-114260308D01*
X153134209Y-113963416D01*
X153068579Y-113696218D01*
X152941417Y-113452981D01*
X152759907Y-113247098D01*
X152534526Y-113090455D01*
X152278286Y-112992094D01*
X152076399Y-112966590D01*
X151734805Y-112624996D01*
X177680860Y-112624996D01*
X177722909Y-112946567D01*
X177806573Y-113259899D01*
X177930420Y-113559629D01*
X178092329Y-113840630D01*
X178289531Y-114098094D01*
X178518652Y-114327615D01*
X178775771Y-114525267D01*
X179056490Y-114687667D01*
X179356004Y-114812036D01*
X179669189Y-114896247D01*
X179990687Y-114938858D01*
X180314996Y-114939140D01*
X180636567Y-114897091D01*
X180949899Y-114813427D01*
X181249629Y-114689580D01*
X181530630Y-114527671D01*
X181788094Y-114330469D01*
X182017615Y-114101348D01*
X182215267Y-113844229D01*
X182377667Y-113563510D01*
X182502036Y-113263996D01*
X182586247Y-112950811D01*
X182628858Y-112629313D01*
X182629140Y-112305004D01*
X182587091Y-111983433D01*
X182503427Y-111670101D01*
X182379580Y-111370371D01*
X182217671Y-111089370D01*
X182020469Y-110831906D01*
X181791348Y-110602385D01*
X181534229Y-110404733D01*
X181253510Y-110242333D01*
X180953996Y-110117964D01*
X180640811Y-110033753D01*
X180319313Y-109991142D01*
X179995004Y-109990860D01*
X179673433Y-110032909D01*
X179360101Y-110116573D01*
X179060371Y-110240420D01*
X178779370Y-110402329D01*
X178521906Y-110599531D01*
X178292385Y-110828652D01*
X178094733Y-111085771D01*
X177932333Y-111366490D01*
X177807964Y-111666004D01*
X177723753Y-111979189D01*
X177681142Y-112300687D01*
X177680860Y-112624996D01*
X151734805Y-112624996D01*
X149950456Y-110840649D01*
X149935880Y-110817547D01*
X149862902Y-110753095D01*
X149838843Y-110729035D01*
X149817818Y-110713278D01*
X149751455Y-110654668D01*
X149719760Y-110639787D01*
X149691748Y-110618794D01*
X149608858Y-110587719D01*
X149528370Y-110549930D01*
X149494590Y-110544882D01*
X149461352Y-110532422D01*
X149403798Y-110528145D01*
X149386205Y-110462489D01*
X149238815Y-110286835D01*
X149045186Y-110175044D01*
X148836024Y-110138163D01*
X147408412Y-110138163D01*
X147107489Y-110218795D01*
X147073078Y-110247669D01*
X147038815Y-110206836D01*
X146845186Y-110095044D01*
X146636024Y-110058163D01*
X145208412Y-110058163D01*
X144907489Y-110138795D01*
X144731835Y-110286185D01*
X144620044Y-110479814D01*
X144583163Y-110688976D01*
X144583163Y-111327029D01*
X144565447Y-111344745D01*
X144428286Y-111292094D01*
X144155981Y-111257694D01*
X143883330Y-111289241D01*
X143626075Y-111384912D01*
X143399065Y-111539187D01*
X143215409Y-111743159D01*
X143085708Y-111985051D01*
X143017451Y-112250897D01*
X143014576Y-112525352D01*
X139660080Y-112525352D01*
X139731099Y-112260308D01*
X139734209Y-111963416D01*
X139668579Y-111696218D01*
X139541417Y-111452981D01*
X139359907Y-111247098D01*
X139134526Y-111090455D01*
X138878286Y-110992094D01*
X138605981Y-110957694D01*
X138333330Y-110989241D01*
X138076075Y-111084912D01*
X137919972Y-111191000D01*
X136029192Y-111191000D01*
X135884526Y-111090455D01*
X135628286Y-110992094D01*
X135355981Y-110957694D01*
X135083330Y-110989241D01*
X134826075Y-111084912D01*
X134599065Y-111239187D01*
X134415409Y-111443159D01*
X134285708Y-111685051D01*
X134217451Y-111950897D01*
X134214576Y-112225352D01*
X126116753Y-112225352D01*
X126259150Y-112055651D01*
X126384609Y-111838349D01*
X126470429Y-111602564D01*
X126514000Y-111355459D01*
X126514000Y-111104541D01*
X126470429Y-110857436D01*
X126384609Y-110621651D01*
X126259150Y-110404349D01*
X126097864Y-110212136D01*
X125905651Y-110050850D01*
X125748294Y-109960000D01*
X125905651Y-109869150D01*
X126097864Y-109707864D01*
X126259150Y-109515651D01*
X126384609Y-109298349D01*
X126470429Y-109062564D01*
X126514000Y-108815459D01*
X126514000Y-108564541D01*
X126470429Y-108317436D01*
X126384609Y-108081651D01*
X126259150Y-107864349D01*
X126097864Y-107672136D01*
X125905651Y-107510850D01*
X125748294Y-107420000D01*
X125905651Y-107329150D01*
X126097864Y-107167864D01*
X126259150Y-106975651D01*
X126384609Y-106758349D01*
X126470429Y-106522564D01*
X126514000Y-106275459D01*
X126514000Y-106024541D01*
X126470429Y-105777436D01*
X126384609Y-105541651D01*
X126259150Y-105324349D01*
X126097864Y-105132136D01*
X125905651Y-104970850D01*
X125748294Y-104880000D01*
X125905651Y-104789150D01*
X126097864Y-104627864D01*
X126259150Y-104435651D01*
X126384609Y-104218349D01*
X126470429Y-103982564D01*
X126514000Y-103735459D01*
X126514000Y-103484541D01*
X126470429Y-103237436D01*
X126384609Y-103001651D01*
X126259150Y-102784349D01*
X126097864Y-102592136D01*
X125905651Y-102430850D01*
X125748294Y-102340000D01*
X125905651Y-102249150D01*
X126097864Y-102087864D01*
X126138160Y-102039841D01*
X127182292Y-102039841D01*
X127191740Y-102291508D01*
X127243456Y-102537983D01*
X127335961Y-102772222D01*
X127466610Y-102987526D01*
X127631669Y-103177739D01*
X127826416Y-103337422D01*
X128045284Y-103462009D01*
X128284831Y-103548960D01*
X128624648Y-103594000D01*
X128733190Y-103594000D01*
X128920942Y-103578069D01*
X129015328Y-103553571D01*
X129014576Y-103625353D01*
X129077252Y-103892570D01*
X129201858Y-104137124D01*
X129381203Y-104344897D01*
X129604931Y-104503893D01*
X129860126Y-104604932D01*
X130132058Y-104642182D01*
X130405024Y-104613491D01*
X130663267Y-104520518D01*
X130891879Y-104368628D01*
X131077661Y-104166592D01*
X131209888Y-103926072D01*
X131281099Y-103660308D01*
X131281801Y-103593269D01*
X131460942Y-103578069D01*
X131704708Y-103514800D01*
X131934329Y-103411363D01*
X132143240Y-103270716D01*
X132297535Y-103123526D01*
X132338795Y-103277512D01*
X132486185Y-103453165D01*
X132679814Y-103564956D01*
X132888976Y-103601837D01*
X132905932Y-103601837D01*
X132912096Y-103618909D01*
X132917059Y-103653567D01*
X132953699Y-103734151D01*
X132983892Y-103817787D01*
X133004211Y-103845248D01*
X133018901Y-103877556D01*
X133084174Y-103953310D01*
X133100314Y-103975123D01*
X133119495Y-103994303D01*
X133179514Y-104063960D01*
X133206905Y-104081713D01*
X137016192Y-107891000D01*
X133829192Y-107891000D01*
X133684526Y-107790455D01*
X133428286Y-107692094D01*
X133155981Y-107657694D01*
X132883330Y-107689241D01*
X132626075Y-107784912D01*
X132399065Y-107939187D01*
X132215409Y-108143159D01*
X132085708Y-108385051D01*
X132017451Y-108650897D01*
X132014576Y-108925352D01*
X132077252Y-109192570D01*
X132201858Y-109437124D01*
X132381203Y-109644897D01*
X132604931Y-109803893D01*
X132860126Y-109904932D01*
X133132058Y-109942182D01*
X133405024Y-109913491D01*
X133663267Y-109820518D01*
X133831114Y-109709000D01*
X140917832Y-109709000D01*
X141160126Y-109804932D01*
X141432058Y-109842182D01*
X141705024Y-109813491D01*
X141963267Y-109720518D01*
X142191879Y-109568628D01*
X142377661Y-109366592D01*
X142509888Y-109126072D01*
X142581099Y-108860308D01*
X142584209Y-108563416D01*
X142518579Y-108296218D01*
X142391417Y-108052981D01*
X142209907Y-107847098D01*
X141984526Y-107690455D01*
X141728286Y-107592094D01*
X141455981Y-107557693D01*
X141382084Y-107566243D01*
X141384209Y-107363416D01*
X141318579Y-107096218D01*
X141191417Y-106852981D01*
X141009907Y-106647098D01*
X140784526Y-106490455D01*
X140528286Y-106392094D01*
X140255981Y-106357694D01*
X139983330Y-106389241D01*
X139726075Y-106484912D01*
X139499066Y-106639187D01*
X139497434Y-106641000D01*
X138195809Y-106641000D01*
X135003696Y-103448888D01*
X135093165Y-103373815D01*
X135204956Y-103180186D01*
X135241837Y-102971024D01*
X135241837Y-101243412D01*
X135217659Y-101153177D01*
X137042950Y-102978469D01*
X137115140Y-103056976D01*
X137184545Y-103100008D01*
X137249576Y-103149371D01*
X137289920Y-103165344D01*
X137330824Y-103190705D01*
X137380809Y-103201330D01*
X137481135Y-103241052D01*
X137728820Y-103267084D01*
X137776617Y-103259000D01*
X139521405Y-103259000D01*
X139654931Y-103353893D01*
X139910126Y-103454932D01*
X140182058Y-103492182D01*
X140455024Y-103463491D01*
X140713267Y-103370518D01*
X140941879Y-103218628D01*
X141127661Y-103016592D01*
X141259888Y-102776072D01*
X141331099Y-102510308D01*
X141334209Y-102213416D01*
X141308562Y-102109000D01*
X143141046Y-102109000D01*
X143117451Y-102200897D01*
X143115531Y-102384166D01*
X142905981Y-102357694D01*
X142633330Y-102389241D01*
X142376075Y-102484912D01*
X142149065Y-102639187D01*
X141965409Y-102843159D01*
X141835708Y-103085051D01*
X141767451Y-103350897D01*
X141764576Y-103625352D01*
X141827252Y-103892570D01*
X141951858Y-104137124D01*
X142131203Y-104344897D01*
X142354931Y-104503893D01*
X142610126Y-104604932D01*
X142882058Y-104642182D01*
X143155024Y-104613491D01*
X143413267Y-104520518D01*
X143581114Y-104409000D01*
X175923482Y-104409000D01*
X185681000Y-114166520D01*
X185681001Y-116108163D01*
X185073412Y-116108163D01*
X184772489Y-116188795D01*
X184596835Y-116336185D01*
X184485044Y-116529814D01*
X184448163Y-116738976D01*
X184448163Y-119766588D01*
X184528795Y-120067512D01*
X184676185Y-120243165D01*
X184869814Y-120354956D01*
X185078976Y-120391837D01*
X187217339Y-120391837D01*
X184743177Y-122866000D01*
X181417063Y-122866000D01*
X181169745Y-122891121D01*
X180852980Y-122990390D01*
X180562646Y-123151325D01*
X180310603Y-123367352D01*
X180107145Y-123629648D01*
X179960585Y-123927497D01*
X179876909Y-124248733D01*
X179859537Y-124580232D01*
X179909176Y-124908454D01*
X180023799Y-125219991D01*
X180198724Y-125502117D01*
X180426806Y-125743307D01*
X180698727Y-125933708D01*
X181006448Y-126066871D01*
X181440075Y-126134000D01*
X185396607Y-126134000D01*
X185540287Y-126138013D01*
X185644729Y-126119598D01*
X185750255Y-126108879D01*
X185807815Y-126090841D01*
X185867199Y-126080369D01*
X185965809Y-126041327D01*
X186067020Y-126009610D01*
X186119770Y-125980370D01*
X186178951Y-125956939D01*
X186231733Y-125918308D01*
X186357354Y-125848675D01*
X186609397Y-125632648D01*
X186648204Y-125582619D01*
X189813657Y-122417167D01*
X200608187Y-122417167D01*
X203210000Y-125018981D01*
X205811813Y-122417167D01*
X205610371Y-122235789D01*
X205287377Y-122001120D01*
X204941622Y-121801499D01*
X204576896Y-121639112D01*
X204197195Y-121515739D01*
X203806677Y-121432732D01*
X203409621Y-121391000D01*
X203010379Y-121391000D01*
X202613323Y-121432732D01*
X202222805Y-121515739D01*
X201843104Y-121639112D01*
X201478378Y-121801499D01*
X201132623Y-122001120D01*
X200809629Y-122235789D01*
X200608187Y-122417167D01*
X189813657Y-122417167D01*
X191851876Y-120378949D01*
X191893609Y-120377492D01*
X192187522Y-120325667D01*
X192471363Y-120233441D01*
X192739606Y-120102611D01*
X192987030Y-119935721D01*
X193208819Y-119736021D01*
X193400658Y-119507397D01*
X193558811Y-119254299D01*
X193680200Y-118981653D01*
X193762464Y-118694767D01*
X193804000Y-118399224D01*
X193804000Y-118250000D01*
X194610789Y-118250000D01*
X194631608Y-118547721D01*
X194693658Y-118839646D01*
X194795734Y-119120095D01*
X194935846Y-119383609D01*
X195111270Y-119625058D01*
X195318589Y-119839743D01*
X195553769Y-120023486D01*
X195812231Y-120172710D01*
X196088948Y-120284511D01*
X196378530Y-120356711D01*
X196675343Y-120387908D01*
X196973609Y-120377492D01*
X197267522Y-120325667D01*
X197551363Y-120233441D01*
X197819606Y-120102611D01*
X198067030Y-119935721D01*
X198288819Y-119736021D01*
X198480658Y-119507397D01*
X198638811Y-119254299D01*
X198760200Y-118981653D01*
X198842464Y-118694767D01*
X198884000Y-118399224D01*
X198884000Y-118100776D01*
X198842464Y-117805233D01*
X198760200Y-117518347D01*
X198638811Y-117245701D01*
X198480658Y-116992603D01*
X198288819Y-116763979D01*
X198067030Y-116564279D01*
X197819606Y-116397389D01*
X197802702Y-116389144D01*
X197809888Y-116376073D01*
X197881099Y-116110308D01*
X197884209Y-115813416D01*
X197818579Y-115546218D01*
X197691417Y-115302981D01*
X197509907Y-115097098D01*
X197284526Y-114940455D01*
X197028286Y-114842094D01*
X196755981Y-114807694D01*
X196483330Y-114839241D01*
X196226075Y-114934912D01*
X195999065Y-115089187D01*
X195815409Y-115293159D01*
X195685708Y-115535051D01*
X195617451Y-115800897D01*
X195614576Y-116075352D01*
X195677252Y-116342570D01*
X195701918Y-116390980D01*
X195553769Y-116476514D01*
X195318589Y-116660257D01*
X195111270Y-116874942D01*
X194935846Y-117116391D01*
X194795734Y-117379905D01*
X194693658Y-117660354D01*
X194631608Y-117952279D01*
X194610789Y-118250000D01*
X193804000Y-118250000D01*
X193804000Y-118100776D01*
X193762464Y-117805233D01*
X193680200Y-117518347D01*
X193558811Y-117245701D01*
X193400658Y-116992603D01*
X193304000Y-116877411D01*
X193304000Y-68326823D01*
X194258163Y-67372660D01*
X194258163Y-69516588D01*
X194338795Y-69817512D01*
X194486185Y-69993165D01*
X194679814Y-70104956D01*
X194888976Y-70141837D01*
X195333965Y-70141837D01*
X195267451Y-70400897D01*
X195264576Y-70675352D01*
X195327252Y-70942570D01*
X195451858Y-71187124D01*
X195631203Y-71394897D01*
X195854931Y-71553893D01*
X196110126Y-71654932D01*
X196382058Y-71692182D01*
X196655024Y-71663491D01*
X196913267Y-71570518D01*
X197141879Y-71418628D01*
X197327661Y-71216592D01*
X197459888Y-70976072D01*
X197531099Y-70710308D01*
X197534209Y-70413416D01*
X197468579Y-70146218D01*
X197466289Y-70141837D01*
X197916588Y-70141837D01*
X198217512Y-70061205D01*
X198393165Y-69913815D01*
X198504956Y-69720186D01*
X198541837Y-69511024D01*
X198541837Y-66483412D01*
X198461205Y-66182489D01*
X198313815Y-66006835D01*
X198120186Y-65895044D01*
X197911024Y-65858163D01*
X195772661Y-65858163D01*
X196581875Y-65048949D01*
X196623609Y-65047492D01*
X196917522Y-64995667D01*
X197201363Y-64903441D01*
X197469606Y-64772611D01*
X197717030Y-64605721D01*
X197938819Y-64406021D01*
X198130658Y-64177397D01*
X198288811Y-63924299D01*
X198410200Y-63651653D01*
X198492464Y-63364767D01*
X198534000Y-63069224D01*
X198534000Y-62770776D01*
X198492464Y-62475233D01*
X198410200Y-62188347D01*
X198288811Y-61915701D01*
X198130658Y-61662603D01*
X197938819Y-61433979D01*
X197717030Y-61234279D01*
X197469606Y-61067389D01*
X197201363Y-60936559D01*
X196917522Y-60844333D01*
X196623609Y-60792508D01*
X196325343Y-60782092D01*
X196028530Y-60813289D01*
X195738948Y-60885489D01*
X195462231Y-60997290D01*
X195203769Y-61146514D01*
X194968589Y-61330257D01*
X194761270Y-61544942D01*
X194585846Y-61786391D01*
X194445734Y-62049905D01*
X194343658Y-62330354D01*
X194281607Y-62622280D01*
X194273692Y-62735485D01*
X191670000Y-65339176D01*
X185891982Y-59561159D01*
X185793193Y-59456692D01*
X185706309Y-59395855D01*
X185624122Y-59328825D01*
X185570680Y-59300886D01*
X185521271Y-59266291D01*
X185423928Y-59224166D01*
X185329941Y-59175031D01*
X185271974Y-59158411D01*
X185213552Y-59133128D01*
X185148898Y-59123119D01*
X185010847Y-59083533D01*
X184679872Y-59058065D01*
X184617074Y-59065999D01*
X165852677Y-59065999D01*
X166017615Y-58901348D01*
X166215267Y-58644229D01*
X166377667Y-58363510D01*
X166502036Y-58063996D01*
X166525871Y-57975352D01*
X192964576Y-57975352D01*
X193027252Y-58242570D01*
X193151858Y-58487124D01*
X193331203Y-58694897D01*
X193554931Y-58853893D01*
X193810126Y-58954932D01*
X194082058Y-58992182D01*
X194355024Y-58963491D01*
X194544245Y-58895368D01*
X194585846Y-58973609D01*
X194761270Y-59215058D01*
X194968589Y-59429743D01*
X195203769Y-59613486D01*
X195462231Y-59762710D01*
X195738948Y-59874511D01*
X196028530Y-59946711D01*
X196325343Y-59977908D01*
X196623609Y-59967492D01*
X196917522Y-59915667D01*
X197201363Y-59823441D01*
X197469606Y-59692611D01*
X197717030Y-59525721D01*
X197938819Y-59326021D01*
X198130658Y-59097397D01*
X198288811Y-58844299D01*
X198410200Y-58571653D01*
X198492464Y-58284767D01*
X198534000Y-57989224D01*
X198534000Y-57690776D01*
X198492464Y-57395233D01*
X198410200Y-57108347D01*
X198288811Y-56835701D01*
X198130658Y-56582603D01*
X197938819Y-56353979D01*
X197717030Y-56154279D01*
X197469606Y-55987389D01*
X197201363Y-55856559D01*
X196917522Y-55764333D01*
X196623609Y-55712508D01*
X196325343Y-55702092D01*
X196028530Y-55733289D01*
X195738948Y-55805489D01*
X195462231Y-55917290D01*
X195203769Y-56066514D01*
X194968589Y-56250257D01*
X194761270Y-56464942D01*
X194585846Y-56706391D01*
X194534898Y-56802212D01*
X194378286Y-56742094D01*
X194105981Y-56707694D01*
X193833330Y-56739241D01*
X193576075Y-56834912D01*
X193349065Y-56989187D01*
X193165409Y-57193159D01*
X193035708Y-57435051D01*
X192967451Y-57700897D01*
X192964576Y-57975352D01*
X166525871Y-57975352D01*
X166586247Y-57750811D01*
X166628858Y-57429313D01*
X166629140Y-57105004D01*
X166587091Y-56783433D01*
X166503427Y-56470101D01*
X166379580Y-56170371D01*
X166217671Y-55889370D01*
X166020469Y-55631906D01*
X165791348Y-55402385D01*
X165534229Y-55204733D01*
X165253510Y-55042333D01*
X164953996Y-54917964D01*
X164640811Y-54833753D01*
X164319313Y-54791142D01*
X163995004Y-54790860D01*
X163673433Y-54832909D01*
X163360101Y-54916573D01*
X163060371Y-55040420D01*
X162779370Y-55202329D01*
X162521906Y-55399531D01*
X162292385Y-55628652D01*
X162094733Y-55885771D01*
X161932333Y-56166490D01*
X161807964Y-56466004D01*
X161723753Y-56779189D01*
X161681142Y-57100687D01*
X161680860Y-57424996D01*
X161722909Y-57746567D01*
X161806573Y-58059899D01*
X161930420Y-58359629D01*
X162092329Y-58640630D01*
X162289531Y-58898094D01*
X162457143Y-59065999D01*
X144775503Y-59065999D01*
X137904000Y-52194497D01*
X137904000Y-52122589D01*
X138000658Y-52007397D01*
X138158811Y-51754299D01*
X138280200Y-51481653D01*
X138362464Y-51194767D01*
X138404000Y-50899224D01*
X138404000Y-50600776D01*
X138362464Y-50305233D01*
X138280200Y-50018347D01*
X138158811Y-49745701D01*
X138000658Y-49492603D01*
X137808819Y-49263979D01*
X137781051Y-49238976D01*
X139208163Y-49238976D01*
X139208163Y-52266588D01*
X139288795Y-52567512D01*
X139436185Y-52743165D01*
X139629814Y-52854956D01*
X139838976Y-52891837D01*
X140321128Y-52891837D01*
X140267451Y-53100897D01*
X140264576Y-53375352D01*
X140327252Y-53642570D01*
X140451858Y-53887124D01*
X140631203Y-54094897D01*
X140854931Y-54253893D01*
X141110126Y-54354932D01*
X141382058Y-54392182D01*
X141655024Y-54363491D01*
X141913267Y-54270518D01*
X142141879Y-54118628D01*
X142327661Y-53916592D01*
X142459888Y-53676072D01*
X142531099Y-53410308D01*
X142534209Y-53113416D01*
X142479784Y-52891837D01*
X142866588Y-52891837D01*
X143167512Y-52811205D01*
X143343165Y-52663815D01*
X143454956Y-52470186D01*
X143491837Y-52261024D01*
X143491837Y-49233412D01*
X143411205Y-48932489D01*
X143263815Y-48756835D01*
X143070186Y-48645044D01*
X142861024Y-48608163D01*
X139833412Y-48608163D01*
X139532489Y-48688795D01*
X139356835Y-48836185D01*
X139245044Y-49029814D01*
X139208163Y-49238976D01*
X137781051Y-49238976D01*
X137587030Y-49064279D01*
X137339606Y-48897389D01*
X137071363Y-48766559D01*
X136787522Y-48674333D01*
X136493609Y-48622508D01*
X136195343Y-48612092D01*
X135898530Y-48643289D01*
X135608948Y-48715489D01*
X135332231Y-48827290D01*
X135073769Y-48976514D01*
X134838589Y-49160257D01*
X134631270Y-49374942D01*
X134455846Y-49616391D01*
X134315734Y-49879905D01*
X134213658Y-50160354D01*
X134151608Y-50452279D01*
X134130789Y-50750000D01*
X134151608Y-51047721D01*
X134213658Y-51339646D01*
X134315734Y-51620095D01*
X134455846Y-51883609D01*
X134631270Y-52125058D01*
X134636001Y-52129957D01*
X134636001Y-52847893D01*
X134631987Y-52991608D01*
X134650405Y-53096063D01*
X134661122Y-53201575D01*
X134679157Y-53259124D01*
X134689631Y-53318519D01*
X134728674Y-53417132D01*
X134760391Y-53518341D01*
X134789630Y-53571089D01*
X134813061Y-53630271D01*
X134851699Y-53683063D01*
X134921326Y-53808674D01*
X135137353Y-54060717D01*
X135187374Y-54099517D01*
X142926713Y-61838857D01*
X143025485Y-61943306D01*
X143112362Y-62004138D01*
X143194555Y-62071173D01*
X143248001Y-62099114D01*
X143297406Y-62133707D01*
X143394744Y-62175830D01*
X143488736Y-62224967D01*
X143546700Y-62241587D01*
X143605126Y-62266870D01*
X143669779Y-62276880D01*
X143807831Y-62316465D01*
X144138806Y-62341933D01*
X144201604Y-62333999D01*
X146066580Y-62333999D01*
X146064576Y-62525352D01*
X146127252Y-62792570D01*
X146251858Y-63037124D01*
X146431203Y-63244897D01*
X146654931Y-63403893D01*
X146910126Y-63504932D01*
X147182058Y-63542182D01*
X147455024Y-63513491D01*
X147713267Y-63420518D01*
X147881114Y-63309000D01*
X180271405Y-63309000D01*
X180404931Y-63403893D01*
X180660126Y-63504932D01*
X180932058Y-63542182D01*
X181205024Y-63513491D01*
X181463267Y-63420518D01*
X181691879Y-63268628D01*
X181877661Y-63066592D01*
X182009888Y-62826072D01*
X182081099Y-62560308D01*
X182083470Y-62333999D01*
X184043176Y-62333999D01*
X190036001Y-68326825D01*
X190036000Y-116870044D01*
X190031270Y-116874942D01*
X189855846Y-117116391D01*
X189715734Y-117379905D01*
X189613658Y-117660354D01*
X189551607Y-117952280D01*
X189543692Y-118065485D01*
X188731837Y-118877339D01*
X188731837Y-116733412D01*
X188651205Y-116432489D01*
X188503815Y-116256835D01*
X188310186Y-116145044D01*
X188101024Y-116108163D01*
X187499000Y-116108163D01*
X187499000Y-113810183D01*
X187503465Y-113703652D01*
X187484820Y-113624155D01*
X187473738Y-113543256D01*
X187456506Y-113503435D01*
X187445515Y-113456578D01*
X187417683Y-113413720D01*
X187374829Y-113314691D01*
X187218097Y-113121144D01*
X187178580Y-113093061D01*
X177344518Y-103259000D01*
X186901046Y-103259000D01*
X187104931Y-103403893D01*
X187360126Y-103504932D01*
X187632058Y-103542182D01*
X187905024Y-103513491D01*
X188163267Y-103420518D01*
X188391879Y-103268628D01*
X188577661Y-103066592D01*
X188709888Y-102826072D01*
X188781099Y-102560308D01*
X188784209Y-102263416D01*
X188718579Y-101996218D01*
X188591417Y-101752981D01*
X188409907Y-101547098D01*
X188184526Y-101390455D01*
X187928286Y-101292094D01*
X187655981Y-101257694D01*
X187383330Y-101289241D01*
X187126075Y-101384912D01*
X187043544Y-101441000D01*
X146407951Y-101441000D01*
X146516879Y-101368628D01*
X146702661Y-101166592D01*
X146834888Y-100926072D01*
X146906099Y-100660308D01*
X146909209Y-100363416D01*
X146843579Y-100096218D01*
X146716417Y-99852981D01*
X146534907Y-99647098D01*
X146309526Y-99490455D01*
X146053287Y-99392094D01*
X145938055Y-99377537D01*
X145882061Y-99321543D01*
X145809861Y-99243025D01*
X145740452Y-99199989D01*
X145675422Y-99150629D01*
X145635084Y-99134657D01*
X145594174Y-99109294D01*
X145544187Y-99098669D01*
X145443864Y-99058948D01*
X145196180Y-99032916D01*
X145148383Y-99041000D01*
X138376519Y-99041000D01*
X136294518Y-96959000D01*
X140372720Y-96959000D01*
X140479242Y-96963465D01*
X140558740Y-96944819D01*
X140639637Y-96933738D01*
X140679468Y-96916503D01*
X140726316Y-96905514D01*
X140769170Y-96877684D01*
X140868203Y-96834829D01*
X141061750Y-96678097D01*
X141089835Y-96638578D01*
X141253061Y-96475352D01*
X149464576Y-96475352D01*
X149527252Y-96742570D01*
X149651858Y-96987124D01*
X149831203Y-97194897D01*
X150054931Y-97353893D01*
X150310126Y-97454932D01*
X150582058Y-97492182D01*
X150855024Y-97463491D01*
X151113267Y-97370518D01*
X151281114Y-97259000D01*
X155021405Y-97259000D01*
X155154931Y-97353893D01*
X155410126Y-97454932D01*
X155682058Y-97492182D01*
X155955024Y-97463491D01*
X156213267Y-97370518D01*
X156441879Y-97218628D01*
X156627661Y-97016592D01*
X156759888Y-96776072D01*
X156831099Y-96510308D01*
X156834209Y-96213416D01*
X156768579Y-95946218D01*
X156641417Y-95702981D01*
X156459907Y-95497098D01*
X156234526Y-95340455D01*
X155978286Y-95242094D01*
X155705981Y-95207694D01*
X155433330Y-95239241D01*
X155176075Y-95334912D01*
X155019972Y-95441000D01*
X151279192Y-95441000D01*
X151134526Y-95340455D01*
X150878286Y-95242094D01*
X150605981Y-95207694D01*
X150333330Y-95239241D01*
X150076075Y-95334912D01*
X149849065Y-95489187D01*
X149665409Y-95693159D01*
X149535708Y-95935051D01*
X149467451Y-96200897D01*
X149464576Y-96475352D01*
X141253061Y-96475352D01*
X141590602Y-96137812D01*
X141760126Y-96204932D01*
X142032058Y-96242182D01*
X142305024Y-96213491D01*
X142563267Y-96120518D01*
X142791879Y-95968628D01*
X142977661Y-95766592D01*
X143109888Y-95526072D01*
X143181099Y-95260308D01*
X143184209Y-94963416D01*
X143118579Y-94696218D01*
X142991417Y-94452981D01*
X142855782Y-94299134D01*
X142977661Y-94166592D01*
X143109888Y-93926072D01*
X143181099Y-93660308D01*
X143184209Y-93363416D01*
X143118579Y-93096218D01*
X142991417Y-92852981D01*
X142959000Y-92816211D01*
X142959000Y-88386885D01*
X142977661Y-88366592D01*
X143109888Y-88126072D01*
X143181099Y-87860308D01*
X143184209Y-87563416D01*
X143118579Y-87296218D01*
X142991417Y-87052981D01*
X142809907Y-86847098D01*
X142584526Y-86690455D01*
X142328286Y-86592094D01*
X142055981Y-86557694D01*
X141783330Y-86589241D01*
X141526075Y-86684912D01*
X141299065Y-86839187D01*
X141202956Y-86945928D01*
X141159907Y-86897098D01*
X140934526Y-86740455D01*
X140678286Y-86642094D01*
X140405981Y-86607694D01*
X140133330Y-86639241D01*
X139876075Y-86734912D01*
X139649065Y-86889187D01*
X139465409Y-87093159D01*
X139335708Y-87335051D01*
X139267451Y-87600897D01*
X139264576Y-87875352D01*
X139327252Y-88142570D01*
X139451858Y-88387124D01*
X139491001Y-88432472D01*
X139491000Y-90423481D01*
X138337267Y-91577214D01*
X138233330Y-91589241D01*
X137976075Y-91684912D01*
X137749065Y-91839187D01*
X137565409Y-92043159D01*
X137435708Y-92285051D01*
X137367451Y-92550897D01*
X137364576Y-92825352D01*
X137427252Y-93092570D01*
X137551858Y-93337124D01*
X137598363Y-93391000D01*
X134876519Y-93391000D01*
X133129415Y-91643896D01*
X133068579Y-91396218D01*
X132941417Y-91152981D01*
X132759907Y-90947098D01*
X132534526Y-90790455D01*
X132278286Y-90692094D01*
X132005981Y-90657694D01*
X131733330Y-90689241D01*
X131476075Y-90784912D01*
X131249065Y-90939187D01*
X131065409Y-91143159D01*
X131000950Y-91263374D01*
X130955981Y-91257694D01*
X130683330Y-91289241D01*
X130426075Y-91384912D01*
X130199065Y-91539187D01*
X130015409Y-91743159D01*
X129885708Y-91985051D01*
X129817451Y-92250897D01*
X129814576Y-92525352D01*
X129877252Y-92792570D01*
X130001858Y-93037124D01*
X130181203Y-93244897D01*
X130404931Y-93403893D01*
X130660126Y-93504932D01*
X130786760Y-93522278D01*
X133300650Y-96036170D01*
X133149065Y-96139187D01*
X132965409Y-96343159D01*
X132835708Y-96585051D01*
X132767451Y-96850897D01*
X132764576Y-97125352D01*
X132827252Y-97392570D01*
X132835834Y-97409413D01*
X132715409Y-97543159D01*
X132585708Y-97785051D01*
X132517451Y-98050897D01*
X132514576Y-98325352D01*
X132577252Y-98592570D01*
X132701858Y-98837124D01*
X132881203Y-99044897D01*
X133104931Y-99203893D01*
X133360126Y-99304932D01*
X133632058Y-99342182D01*
X133905024Y-99313491D01*
X134081296Y-99250029D01*
X134035708Y-99335051D01*
X133967451Y-99600897D01*
X133964576Y-99875352D01*
X134027252Y-100142570D01*
X134151858Y-100387124D01*
X134331203Y-100594897D01*
X134363941Y-100618163D01*
X132883412Y-100618163D01*
X132582489Y-100698795D01*
X132406835Y-100846185D01*
X132295044Y-101039814D01*
X132286796Y-101086588D01*
X132248331Y-101042261D01*
X132053584Y-100882578D01*
X131834716Y-100757991D01*
X131595169Y-100671040D01*
X131255352Y-100626000D01*
X131146810Y-100626000D01*
X130959058Y-100641931D01*
X130715292Y-100705200D01*
X130485671Y-100808637D01*
X130276760Y-100949284D01*
X130094534Y-101123119D01*
X129944203Y-101325172D01*
X129937564Y-101338230D01*
X129904000Y-101282918D01*
X129904000Y-99503095D01*
X130013866Y-99269617D01*
X130082943Y-98965574D01*
X130084064Y-98644433D01*
X130017111Y-98339916D01*
X129886423Y-98057081D01*
X129698050Y-97808909D01*
X129460779Y-97606975D01*
X129185681Y-97460702D01*
X128885590Y-97376916D01*
X128574508Y-97359523D01*
X128266948Y-97409337D01*
X127977260Y-97524033D01*
X127718958Y-97698259D01*
X127504094Y-97923888D01*
X127342693Y-98190393D01*
X127242286Y-98485338D01*
X127207555Y-98794964D01*
X127240123Y-99104827D01*
X127338469Y-99400466D01*
X127436001Y-99564076D01*
X127436000Y-101282435D01*
X127404203Y-101325172D01*
X127290064Y-101549666D01*
X127215382Y-101790181D01*
X127182292Y-102039841D01*
X126138160Y-102039841D01*
X126259150Y-101895651D01*
X126384609Y-101678349D01*
X126470429Y-101442564D01*
X126514000Y-101195459D01*
X126514000Y-100944541D01*
X126470429Y-100697436D01*
X126384609Y-100461651D01*
X126259150Y-100244349D01*
X126097864Y-100052136D01*
X125905651Y-99890850D01*
X125748294Y-99800000D01*
X125905651Y-99709150D01*
X126097864Y-99547864D01*
X126259150Y-99355651D01*
X126384609Y-99138349D01*
X126470429Y-98902564D01*
X126514000Y-98655459D01*
X126514000Y-98404541D01*
X126470429Y-98157436D01*
X126384609Y-97921651D01*
X126259150Y-97704349D01*
X126097864Y-97512136D01*
X125905651Y-97350850D01*
X125748294Y-97260000D01*
X125905651Y-97169150D01*
X126097864Y-97007864D01*
X126259150Y-96815651D01*
X126384609Y-96598349D01*
X126470429Y-96362564D01*
X126514000Y-96115459D01*
X126514000Y-95864541D01*
X126470429Y-95617436D01*
X126384609Y-95381651D01*
X126259150Y-95164349D01*
X126097864Y-94972136D01*
X125905651Y-94810850D01*
X125748294Y-94720000D01*
X125905651Y-94629150D01*
X126097864Y-94467864D01*
X126259150Y-94275651D01*
X126384609Y-94058349D01*
X126470429Y-93822564D01*
X126514000Y-93575459D01*
X126514000Y-93324541D01*
X126470429Y-93077436D01*
X126384609Y-92841651D01*
X126259150Y-92624349D01*
X126097864Y-92432136D01*
X125905651Y-92270850D01*
X125748294Y-92180000D01*
X125905651Y-92089150D01*
X126097864Y-91927864D01*
X126259150Y-91735651D01*
X126384609Y-91518349D01*
X126470429Y-91282564D01*
X126514000Y-91035459D01*
X126514000Y-90784541D01*
X126470429Y-90537436D01*
X126384609Y-90301651D01*
X126259150Y-90084349D01*
X126097864Y-89892136D01*
X125905651Y-89730850D01*
X125748294Y-89640000D01*
X125905651Y-89549150D01*
X126097864Y-89387864D01*
X126259150Y-89195651D01*
X126384609Y-88978349D01*
X126470429Y-88742564D01*
X126514000Y-88495459D01*
X126514000Y-88244541D01*
X126470429Y-87997436D01*
X126384609Y-87761651D01*
X126259150Y-87544349D01*
X126097864Y-87352136D01*
X125905651Y-87190850D01*
X125748294Y-87100000D01*
X125905651Y-87009150D01*
X126097864Y-86847864D01*
X126259150Y-86655651D01*
X126384609Y-86438349D01*
X126470429Y-86202564D01*
X126514000Y-85955459D01*
X126514000Y-85704541D01*
X126470429Y-85457436D01*
X126384609Y-85221651D01*
X126259150Y-85004349D01*
X126097864Y-84812136D01*
X125905651Y-84650850D01*
X125748294Y-84560000D01*
X125905651Y-84469150D01*
X126097864Y-84307864D01*
X126259150Y-84115651D01*
X126384609Y-83898349D01*
X126470429Y-83662564D01*
X126514000Y-83415459D01*
X126514000Y-83164541D01*
X126470429Y-82917436D01*
X126384609Y-82681651D01*
X126259150Y-82464349D01*
X126097864Y-82272136D01*
X125905651Y-82110850D01*
X125748294Y-82020000D01*
X125905651Y-81929150D01*
X126097864Y-81767864D01*
X126259150Y-81575651D01*
X126384609Y-81358349D01*
X126470429Y-81122564D01*
X126514000Y-80875459D01*
X126514000Y-80625352D01*
X132814576Y-80625352D01*
X132877252Y-80892570D01*
X133001858Y-81137124D01*
X133181203Y-81344897D01*
X133404931Y-81503893D01*
X133660126Y-81604932D01*
X133932058Y-81642182D01*
X134205024Y-81613491D01*
X134463267Y-81520518D01*
X134631114Y-81409000D01*
X148953883Y-81409000D01*
X148917451Y-81550897D01*
X148914576Y-81825352D01*
X148977252Y-82092570D01*
X149101858Y-82337124D01*
X149281203Y-82544897D01*
X149504931Y-82703893D01*
X149760127Y-82804932D01*
X149770888Y-82806406D01*
X151910189Y-84945708D01*
X151699065Y-85089187D01*
X151515409Y-85293159D01*
X151385708Y-85535051D01*
X151317451Y-85800897D01*
X151314576Y-86075352D01*
X151377252Y-86342570D01*
X151501858Y-86587124D01*
X151681203Y-86794897D01*
X151904931Y-86953893D01*
X152066860Y-87018005D01*
X151883330Y-87039241D01*
X151626075Y-87134912D01*
X151399065Y-87289187D01*
X151215409Y-87493159D01*
X151085708Y-87735051D01*
X151018787Y-87995693D01*
X150623481Y-88391000D01*
X149879192Y-88391000D01*
X149734526Y-88290455D01*
X149478286Y-88192094D01*
X149205981Y-88157694D01*
X148933330Y-88189241D01*
X148676075Y-88284912D01*
X148449065Y-88439187D01*
X148265409Y-88643159D01*
X148135708Y-88885051D01*
X148067451Y-89150897D01*
X148064576Y-89425352D01*
X148127252Y-89692570D01*
X148251858Y-89937124D01*
X148431203Y-90144897D01*
X148654931Y-90303893D01*
X148910126Y-90404932D01*
X149182058Y-90442182D01*
X149455024Y-90413491D01*
X149713267Y-90320518D01*
X149881114Y-90209000D01*
X150979826Y-90209000D01*
X151086348Y-90213465D01*
X151165846Y-90194819D01*
X151179359Y-90192968D01*
X151201858Y-90237124D01*
X151381203Y-90444897D01*
X151604931Y-90603893D01*
X151860126Y-90704932D01*
X152132058Y-90742182D01*
X152405024Y-90713491D01*
X152663267Y-90620518D01*
X152891879Y-90468628D01*
X153077661Y-90266592D01*
X153209888Y-90026072D01*
X153281099Y-89760308D01*
X153281161Y-89754358D01*
X153562089Y-89473431D01*
X153562095Y-89473423D01*
X153753450Y-89282068D01*
X153831976Y-89209860D01*
X153875010Y-89140454D01*
X153924372Y-89075422D01*
X153940345Y-89035079D01*
X153965707Y-88994174D01*
X153976332Y-88944187D01*
X154016053Y-88843864D01*
X154042085Y-88596179D01*
X154034001Y-88548382D01*
X154034001Y-87069522D01*
X154272159Y-87307679D01*
X154327252Y-87542570D01*
X154451858Y-87787124D01*
X154631203Y-87994897D01*
X154854931Y-88153893D01*
X155110126Y-88254932D01*
X155382058Y-88292182D01*
X155655024Y-88263491D01*
X155913267Y-88170518D01*
X156141879Y-88018628D01*
X156327661Y-87816592D01*
X156459888Y-87576072D01*
X156531099Y-87310308D01*
X156534209Y-87013416D01*
X156468579Y-86746218D01*
X156341417Y-86502981D01*
X156159907Y-86297098D01*
X155934526Y-86140455D01*
X155678287Y-86042094D01*
X155563056Y-86027537D01*
X152709127Y-83173609D01*
X152731115Y-83159000D01*
X154641761Y-83159000D01*
X154704931Y-83203893D01*
X154960126Y-83304932D01*
X155232058Y-83342182D01*
X155505024Y-83313491D01*
X155763267Y-83220518D01*
X155991879Y-83068628D01*
X156177661Y-82866592D01*
X156309888Y-82626072D01*
X156381099Y-82360308D01*
X156384209Y-82063416D01*
X156318579Y-81796218D01*
X156191417Y-81552981D01*
X156009907Y-81347098D01*
X155784526Y-81190455D01*
X155528286Y-81092094D01*
X155255981Y-81057694D01*
X154983330Y-81089241D01*
X154726075Y-81184912D01*
X154499066Y-81339187D01*
X154497434Y-81341000D01*
X152729192Y-81341000D01*
X152719473Y-81334245D01*
X152827661Y-81216592D01*
X152959888Y-80976072D01*
X153031099Y-80710308D01*
X153034209Y-80413416D01*
X152968579Y-80146218D01*
X152841417Y-79902981D01*
X152659907Y-79697098D01*
X152434526Y-79540455D01*
X152178286Y-79442094D01*
X151905981Y-79407694D01*
X151633330Y-79439241D01*
X151376075Y-79534912D01*
X151293544Y-79591000D01*
X134629192Y-79591000D01*
X134484526Y-79490455D01*
X134228286Y-79392094D01*
X133955981Y-79357694D01*
X133683330Y-79389241D01*
X133426075Y-79484912D01*
X133199065Y-79639187D01*
X133015409Y-79843159D01*
X132885708Y-80085051D01*
X132817451Y-80350897D01*
X132814576Y-80625352D01*
X126514000Y-80625352D01*
X126514000Y-80624541D01*
X126470429Y-80377436D01*
X126384609Y-80141651D01*
X126259150Y-79924349D01*
X126097864Y-79732136D01*
X125905651Y-79570850D01*
X125748294Y-79480000D01*
X125905651Y-79389150D01*
X126097864Y-79227864D01*
X126259150Y-79035651D01*
X126384609Y-78818349D01*
X126470429Y-78582564D01*
X126514000Y-78335459D01*
X126514000Y-78084541D01*
X126470429Y-77837436D01*
X126384609Y-77601651D01*
X126259150Y-77384349D01*
X126097864Y-77192136D01*
X125905651Y-77030850D01*
X125748294Y-76940000D01*
X125905651Y-76849150D01*
X126097864Y-76687864D01*
X126259150Y-76495651D01*
X126384609Y-76278349D01*
X126470429Y-76042564D01*
X126499912Y-75875352D01*
X139264576Y-75875352D01*
X139327252Y-76142570D01*
X139451858Y-76387124D01*
X139631203Y-76594897D01*
X139854931Y-76753893D01*
X140110126Y-76854932D01*
X140382058Y-76892182D01*
X140655024Y-76863491D01*
X140913267Y-76770518D01*
X141081114Y-76659000D01*
X144329826Y-76659000D01*
X144436348Y-76663465D01*
X144515846Y-76644819D01*
X144596743Y-76633738D01*
X144636574Y-76616503D01*
X144683422Y-76605514D01*
X144726276Y-76577684D01*
X144825309Y-76534829D01*
X145018856Y-76378097D01*
X145046944Y-76338574D01*
X147262280Y-74123239D01*
X147355024Y-74113491D01*
X147613267Y-74020518D01*
X147841879Y-73868628D01*
X148027661Y-73666592D01*
X148159888Y-73426072D01*
X148231099Y-73160308D01*
X148234209Y-72863416D01*
X148231433Y-72852116D01*
X148301001Y-72862079D01*
X148301000Y-73869527D01*
X148042489Y-73938795D01*
X147866835Y-74086185D01*
X147755044Y-74279814D01*
X147718163Y-74488976D01*
X147718163Y-76216588D01*
X147798795Y-76517512D01*
X147946185Y-76693165D01*
X148139814Y-76804956D01*
X148348976Y-76841837D01*
X148632615Y-76841837D01*
X148617451Y-76900897D01*
X148614576Y-77175352D01*
X148677252Y-77442570D01*
X148801858Y-77687124D01*
X148981203Y-77894897D01*
X149204931Y-78053893D01*
X149460126Y-78154932D01*
X149732058Y-78192182D01*
X150005024Y-78163491D01*
X150263267Y-78070518D01*
X150491879Y-77918628D01*
X150677661Y-77716592D01*
X150691649Y-77691148D01*
X150781203Y-77794897D01*
X151004931Y-77953893D01*
X151260126Y-78054932D01*
X151532058Y-78092182D01*
X151805024Y-78063491D01*
X152063267Y-77970518D01*
X152291879Y-77818628D01*
X152477661Y-77616592D01*
X152609888Y-77376072D01*
X152681099Y-77110308D01*
X152684209Y-76813416D01*
X152620272Y-76553109D01*
X152683240Y-76510716D01*
X152865466Y-76336881D01*
X153015797Y-76134828D01*
X153022436Y-76121770D01*
X153086610Y-76227526D01*
X153251669Y-76417739D01*
X153446416Y-76577422D01*
X153665284Y-76702009D01*
X153904831Y-76788960D01*
X154162000Y-76823047D01*
X154162000Y-75222000D01*
X154418000Y-75222000D01*
X154418000Y-76849978D01*
X154784708Y-76754800D01*
X155014329Y-76651363D01*
X155223240Y-76510716D01*
X155405466Y-76336881D01*
X155541001Y-76154715D01*
X155541000Y-78464738D01*
X155515409Y-78493159D01*
X155385708Y-78735051D01*
X155317451Y-79000897D01*
X155314576Y-79275352D01*
X155377252Y-79542570D01*
X155501858Y-79787124D01*
X155681203Y-79994897D01*
X155904931Y-80153893D01*
X156160126Y-80254932D01*
X156432058Y-80292182D01*
X156705024Y-80263491D01*
X156963267Y-80170518D01*
X157191879Y-80018628D01*
X157377661Y-79816592D01*
X157509888Y-79576072D01*
X157581099Y-79310308D01*
X157584209Y-79013416D01*
X157518579Y-78746218D01*
X157391417Y-78502981D01*
X157359000Y-78466211D01*
X157359000Y-76739353D01*
X157554329Y-76651363D01*
X157763240Y-76510716D01*
X157945466Y-76336881D01*
X158095797Y-76134828D01*
X158102436Y-76121770D01*
X158166610Y-76227526D01*
X158331669Y-76417740D01*
X158441001Y-76507386D01*
X158441000Y-78164738D01*
X158415409Y-78193159D01*
X158285708Y-78435051D01*
X158217451Y-78700897D01*
X158214576Y-78975352D01*
X158277252Y-79242570D01*
X158401858Y-79487124D01*
X158581203Y-79694897D01*
X158804931Y-79853893D01*
X159060126Y-79954932D01*
X159332058Y-79992182D01*
X159605024Y-79963491D01*
X159863267Y-79870518D01*
X160091879Y-79718628D01*
X160277661Y-79516592D01*
X160409888Y-79276072D01*
X160481099Y-79010308D01*
X160484209Y-78713416D01*
X160418579Y-78446218D01*
X160291417Y-78202981D01*
X160259000Y-78166211D01*
X160259000Y-76540500D01*
X160303240Y-76510717D01*
X160485466Y-76336881D01*
X160635797Y-76134828D01*
X160749936Y-75910334D01*
X160824618Y-75669819D01*
X160857708Y-75420159D01*
X160848260Y-75168492D01*
X160796544Y-74922017D01*
X160704039Y-74687778D01*
X160573390Y-74472474D01*
X160408331Y-74282261D01*
X160213584Y-74122578D01*
X159994716Y-73997991D01*
X159755169Y-73911040D01*
X159739778Y-73909000D01*
X186496405Y-73909000D01*
X186629931Y-74003893D01*
X186885126Y-74104932D01*
X187157058Y-74142182D01*
X187430024Y-74113491D01*
X187688267Y-74020518D01*
X187916879Y-73868628D01*
X188102661Y-73666592D01*
X188234888Y-73426072D01*
X188306099Y-73160308D01*
X188309209Y-72863416D01*
X188243579Y-72596218D01*
X188116417Y-72352981D01*
X187934907Y-72147098D01*
X187709526Y-71990455D01*
X187453286Y-71892094D01*
X187180981Y-71857694D01*
X186908330Y-71889241D01*
X186651075Y-71984912D01*
X186494972Y-72091000D01*
X154374974Y-72091000D01*
X154405393Y-72038840D01*
X154493796Y-71803022D01*
X154541318Y-71555082D01*
X154544240Y-71275974D01*
X154501922Y-71027094D01*
X154418477Y-70789476D01*
X154296187Y-70569314D01*
X154196235Y-70444784D01*
X153060000Y-71581020D01*
X151919118Y-70440137D01*
X151766293Y-70662083D01*
X151660457Y-70890609D01*
X151594639Y-71133699D01*
X151570720Y-71384404D01*
X151589384Y-71635554D01*
X151650097Y-71879970D01*
X151691198Y-71973823D01*
X151478286Y-71892094D01*
X151205981Y-71857694D01*
X150933330Y-71889241D01*
X150676075Y-71984912D01*
X150449065Y-72139187D01*
X150265409Y-72343159D01*
X150135708Y-72585051D01*
X150119000Y-72650125D01*
X150119000Y-72070174D01*
X150123465Y-71963652D01*
X150104820Y-71884155D01*
X150093738Y-71803256D01*
X150076506Y-71763435D01*
X150065515Y-71716578D01*
X150037682Y-71673718D01*
X150024444Y-71643126D01*
X150041318Y-71555082D01*
X150044240Y-71275974D01*
X150001922Y-71027094D01*
X149918477Y-70789476D01*
X149796188Y-70569315D01*
X149638554Y-70372907D01*
X149512788Y-70261443D01*
X152102462Y-70261443D01*
X153060000Y-71218981D01*
X154025969Y-70253012D01*
X153736157Y-70072969D01*
X153502899Y-69978016D01*
X153256977Y-69923721D01*
X153005424Y-69911638D01*
X152755431Y-69942113D01*
X152514147Y-70014272D01*
X152288470Y-70126053D01*
X152102462Y-70261443D01*
X149512788Y-70261443D01*
X149469000Y-70222635D01*
X149469000Y-66075026D01*
X149513487Y-66037231D01*
X152103788Y-66037231D01*
X152261960Y-66157509D01*
X152485246Y-66273992D01*
X152724966Y-66351190D01*
X152974266Y-66386892D01*
X153226017Y-66380080D01*
X153473022Y-66330948D01*
X153708216Y-66240901D01*
X154029497Y-66050516D01*
X153060000Y-65081019D01*
X152103788Y-66037231D01*
X149513487Y-66037231D01*
X149616807Y-65949455D01*
X149778521Y-65756391D01*
X149905393Y-65538840D01*
X149993796Y-65303022D01*
X150041318Y-65055082D01*
X150043104Y-64884404D01*
X151570720Y-64884404D01*
X151589384Y-65135554D01*
X151650097Y-65379970D01*
X151751123Y-65610662D01*
X151916712Y-65862269D01*
X152878981Y-64900000D01*
X153241019Y-64900000D01*
X154211807Y-65870788D01*
X154405393Y-65538840D01*
X154493796Y-65303022D01*
X154541318Y-65055082D01*
X154544240Y-64775974D01*
X154501922Y-64527094D01*
X154418477Y-64289476D01*
X154296187Y-64069314D01*
X154196235Y-63944784D01*
X153241019Y-64900000D01*
X152878981Y-64900000D01*
X151919118Y-63940137D01*
X151766293Y-64162083D01*
X151660457Y-64390609D01*
X151594639Y-64633699D01*
X151570720Y-64884404D01*
X150043104Y-64884404D01*
X150044240Y-64775974D01*
X150001922Y-64527094D01*
X149918477Y-64289476D01*
X149796188Y-64069315D01*
X149638554Y-63872907D01*
X149512789Y-63761443D01*
X152102462Y-63761443D01*
X153060000Y-64718981D01*
X154025969Y-63753012D01*
X153736157Y-63572969D01*
X153502899Y-63478016D01*
X153256977Y-63423721D01*
X153005424Y-63411638D01*
X152755431Y-63442113D01*
X152514147Y-63514272D01*
X152288470Y-63626053D01*
X152102462Y-63761443D01*
X149512789Y-63761443D01*
X149450080Y-63705866D01*
X149236156Y-63572969D01*
X149002899Y-63478016D01*
X148756977Y-63423721D01*
X148505424Y-63411638D01*
X148255431Y-63442113D01*
X148014147Y-63514272D01*
X147788470Y-63626053D01*
X147584854Y-63774261D01*
X147409120Y-63954656D01*
X147266293Y-64162083D01*
X147160457Y-64390609D01*
X147094639Y-64633699D01*
X147070720Y-64884404D01*
X147089384Y-65135554D01*
X147150097Y-65379970D01*
X147251123Y-65610662D01*
X147389575Y-65821033D01*
X147561493Y-66005071D01*
X147651000Y-66073134D01*
X147651001Y-70226114D01*
X147584854Y-70274261D01*
X147409120Y-70454656D01*
X147266293Y-70662083D01*
X147160457Y-70890609D01*
X147094639Y-71133699D01*
X147070720Y-71384404D01*
X147089384Y-71635554D01*
X147145813Y-71862725D01*
X147105982Y-71857693D01*
X146833330Y-71889241D01*
X146576075Y-71984912D01*
X146349065Y-72139187D01*
X146165409Y-72343159D01*
X146035708Y-72585051D01*
X145968787Y-72845693D01*
X143973482Y-74841000D01*
X141079192Y-74841000D01*
X140934526Y-74740455D01*
X140678286Y-74642094D01*
X140405981Y-74607694D01*
X140133330Y-74639241D01*
X139876075Y-74734912D01*
X139649065Y-74889187D01*
X139465409Y-75093159D01*
X139335708Y-75335051D01*
X139267451Y-75600897D01*
X139264576Y-75875352D01*
X126499912Y-75875352D01*
X126514000Y-75795459D01*
X126514000Y-75544541D01*
X126470429Y-75297436D01*
X126384609Y-75061651D01*
X126259150Y-74844349D01*
X126097864Y-74652136D01*
X125905651Y-74490850D01*
X125748294Y-74400000D01*
X125905651Y-74309150D01*
X126097864Y-74147864D01*
X126259150Y-73955651D01*
X126384609Y-73738349D01*
X126470429Y-73502564D01*
X126514000Y-73255459D01*
X126514000Y-73004541D01*
X126470429Y-72757436D01*
X126384609Y-72521651D01*
X126259150Y-72304349D01*
X126097864Y-72112136D01*
X125905651Y-71950850D01*
X125748294Y-71860000D01*
X125905651Y-71769150D01*
X126097864Y-71607864D01*
X126259150Y-71415651D01*
X126384609Y-71198349D01*
X126470429Y-70962564D01*
X126514000Y-70715459D01*
X126514000Y-70464541D01*
X126470429Y-70217436D01*
X126384609Y-69981651D01*
X126259150Y-69764349D01*
X126097864Y-69572136D01*
X125905651Y-69410850D01*
X125748294Y-69320000D01*
X125905651Y-69229150D01*
X126097864Y-69067864D01*
X126259150Y-68875651D01*
X126384609Y-68658349D01*
X126470429Y-68422564D01*
X126514000Y-68175459D01*
X126514000Y-67924541D01*
X126470429Y-67677436D01*
X126384609Y-67441651D01*
X126259150Y-67224349D01*
X126097864Y-67032136D01*
X125905651Y-66870850D01*
X125748294Y-66780000D01*
X125905651Y-66689150D01*
X126097864Y-66527864D01*
X126189211Y-66419000D01*
X127533482Y-66419000D01*
X127622158Y-66507676D01*
X127677252Y-66742570D01*
X127801858Y-66987124D01*
X127981203Y-67194897D01*
X128204931Y-67353893D01*
X128460126Y-67454932D01*
X128732058Y-67492182D01*
X129005024Y-67463491D01*
X129263267Y-67370518D01*
X129491879Y-67218628D01*
X129677661Y-67016592D01*
X129809888Y-66776072D01*
X129881099Y-66510308D01*
X129882447Y-66381630D01*
X130055024Y-66363491D01*
X130313267Y-66270518D01*
X130541879Y-66118628D01*
X130727661Y-65916592D01*
X130859888Y-65676072D01*
X130931099Y-65410308D01*
X130934209Y-65113416D01*
X130868579Y-64846218D01*
X130741417Y-64602981D01*
X130559907Y-64397098D01*
X130334526Y-64240455D01*
X130078287Y-64142094D01*
X129963056Y-64127537D01*
X128177061Y-62341543D01*
X128104861Y-62263025D01*
X128035452Y-62219989D01*
X127970422Y-62170629D01*
X127930084Y-62154657D01*
X127889174Y-62129294D01*
X127839187Y-62118669D01*
X127738864Y-62078948D01*
X127491180Y-62052916D01*
X127443383Y-62061000D01*
X126189211Y-62061000D01*
X126097864Y-61952136D01*
X125905651Y-61790850D01*
X125748294Y-61700000D01*
X125905651Y-61609150D01*
X126097864Y-61447864D01*
X126259150Y-61255651D01*
X126384609Y-61038349D01*
X126470429Y-60802564D01*
X126514000Y-60555459D01*
X126514000Y-60304541D01*
X126470429Y-60057436D01*
X126384609Y-59821651D01*
X126259150Y-59604349D01*
X126097864Y-59412136D01*
X125905651Y-59250850D01*
X125748294Y-59160000D01*
X125905651Y-59069150D01*
X126097864Y-58907864D01*
X126259150Y-58715651D01*
X126384609Y-58498349D01*
X126470429Y-58262564D01*
X126514000Y-58015459D01*
X126514000Y-57764541D01*
X126470429Y-57517436D01*
X126384609Y-57281651D01*
X126259150Y-57064349D01*
X126097864Y-56872136D01*
X125905651Y-56710850D01*
X125748294Y-56620000D01*
X125905651Y-56529150D01*
X126097864Y-56367864D01*
X126259150Y-56175651D01*
X126384609Y-55958349D01*
X126470429Y-55722564D01*
X126514000Y-55475459D01*
X126514000Y-55224541D01*
X126470429Y-54977436D01*
X126384609Y-54741651D01*
X126259150Y-54524349D01*
X126097864Y-54332136D01*
X125905651Y-54170850D01*
X125748294Y-54080000D01*
X125905651Y-53989150D01*
X126097864Y-53827864D01*
X126259150Y-53635651D01*
X126384609Y-53418349D01*
X126412948Y-53340490D01*
X126511289Y-53445213D01*
X126768367Y-53621240D01*
X127057249Y-53737955D01*
X127364454Y-53789914D01*
X127675650Y-53774694D01*
X127976318Y-53693004D01*
X128252431Y-53548656D01*
X128491106Y-53348384D01*
X128681207Y-53101532D01*
X128813866Y-52819617D01*
X128882943Y-52515574D01*
X128884064Y-52194433D01*
X128817111Y-51889916D01*
X128686423Y-51607081D01*
X128498050Y-51358909D01*
X128260779Y-51156975D01*
X127985681Y-51010702D01*
X127805546Y-50960408D01*
X127595138Y-50750000D01*
X129050789Y-50750000D01*
X129071608Y-51047721D01*
X129133658Y-51339646D01*
X129235734Y-51620095D01*
X129375846Y-51883609D01*
X129551270Y-52125058D01*
X129758589Y-52339743D01*
X129993769Y-52523486D01*
X130131150Y-52602803D01*
X130067451Y-52850897D01*
X130064576Y-53125352D01*
X130127252Y-53392570D01*
X130251858Y-53637124D01*
X130431203Y-53844897D01*
X130654931Y-54003893D01*
X130910126Y-54104932D01*
X131182058Y-54142182D01*
X131455024Y-54113491D01*
X131713267Y-54020518D01*
X131941879Y-53868628D01*
X132127661Y-53666592D01*
X132259888Y-53426072D01*
X132331099Y-53160308D01*
X132334209Y-52863416D01*
X132268651Y-52596510D01*
X132507030Y-52435721D01*
X132728819Y-52236021D01*
X132920658Y-52007397D01*
X133078811Y-51754299D01*
X133200200Y-51481653D01*
X133282464Y-51194767D01*
X133324000Y-50899224D01*
X133324000Y-50600776D01*
X133282464Y-50305233D01*
X133200200Y-50018347D01*
X133078811Y-49745701D01*
X132920658Y-49492603D01*
X132728819Y-49263979D01*
X132507030Y-49064279D01*
X132259606Y-48897389D01*
X131991363Y-48766559D01*
X131707522Y-48674333D01*
X131413609Y-48622508D01*
X131115343Y-48612092D01*
X130818530Y-48643289D01*
X130528948Y-48715489D01*
X130252231Y-48827290D01*
X129993769Y-48976514D01*
X129758589Y-49160257D01*
X129551270Y-49374942D01*
X129375846Y-49616391D01*
X129235734Y-49879905D01*
X129133658Y-50160354D01*
X129071608Y-50452279D01*
X129050789Y-50750000D01*
X127595138Y-50750000D01*
X127248738Y-50403600D01*
X127218630Y-50362687D01*
X127146812Y-50301674D01*
X127131650Y-50286511D01*
X127092578Y-50255599D01*
X126999336Y-50176383D01*
X126979925Y-50166471D01*
X126962841Y-50152955D01*
X126852030Y-50101165D01*
X126739528Y-50043719D01*
X126722600Y-50040673D01*
X126702159Y-50031120D01*
X126420440Y-49972523D01*
X126291974Y-49975999D01*
X124233569Y-49975999D01*
X124183359Y-49968361D01*
X124089455Y-49975999D01*
X124067992Y-49975999D01*
X124018477Y-49981772D01*
X123896558Y-49991689D01*
X123875834Y-49998402D01*
X123854188Y-50000926D01*
X123739162Y-50042679D01*
X123619037Y-50081593D01*
X123604918Y-50091406D01*
X123583707Y-50099105D01*
X123343067Y-50256877D01*
X123254656Y-50350205D01*
X122189113Y-51415749D01*
X122167436Y-51419571D01*
X121931651Y-51505391D01*
X121714349Y-51630850D01*
X121522136Y-51792136D01*
X121360850Y-51984349D01*
X121270000Y-52141706D01*
X121179150Y-51984349D01*
X121017864Y-51792136D01*
X120825651Y-51630850D01*
X120608349Y-51505391D01*
X120372564Y-51419571D01*
X120125459Y-51376000D01*
X119874541Y-51376000D01*
X119627436Y-51419571D01*
X119391651Y-51505391D01*
X119174349Y-51630850D01*
X118982136Y-51792136D01*
X118820850Y-51984349D01*
X118730000Y-52141706D01*
X118639150Y-51984349D01*
X118477864Y-51792136D01*
X118285651Y-51630850D01*
X118068349Y-51505391D01*
X118052898Y-51499767D01*
X118076677Y-51497268D01*
X118467195Y-51414261D01*
X118846896Y-51290888D01*
X119211622Y-51128501D01*
X119557377Y-50928880D01*
X119880371Y-50694211D01*
X120081813Y-50512833D01*
X117480000Y-47911019D01*
X114878187Y-50512833D01*
X112984000Y-50512833D01*
X112984000Y-47793210D01*
X112987802Y-47774268D01*
X112988599Y-47758269D01*
X112998548Y-47530379D01*
X113671000Y-47530379D01*
X113671000Y-47929621D01*
X113712732Y-48326677D01*
X113795739Y-48717195D01*
X113919112Y-49096896D01*
X114081499Y-49461622D01*
X114281120Y-49807377D01*
X114515789Y-50130371D01*
X114697167Y-50331813D01*
X117298981Y-47730000D01*
X117661019Y-47730000D01*
X120262833Y-50331813D01*
X120444211Y-50130371D01*
X120678880Y-49807377D01*
X120878501Y-49461622D01*
X121040888Y-49096896D01*
X121164261Y-48717195D01*
X121247268Y-48326677D01*
X121284458Y-47972833D01*
X200608187Y-47972833D01*
X200809629Y-48154211D01*
X201132623Y-48388880D01*
X201478378Y-48588501D01*
X201843104Y-48750888D01*
X202222805Y-48874261D01*
X202613323Y-48957268D01*
X203010379Y-48999000D01*
X203409621Y-48999000D01*
X203806677Y-48957268D01*
X204197195Y-48874261D01*
X204576896Y-48750888D01*
X204941622Y-48588501D01*
X205287377Y-48388880D01*
X205610371Y-48154211D01*
X205811813Y-47972833D01*
X203210000Y-45371019D01*
X200608187Y-47972833D01*
X121284458Y-47972833D01*
X121289000Y-47929621D01*
X121289000Y-47530379D01*
X121247268Y-47133323D01*
X121164261Y-46742805D01*
X121040888Y-46363104D01*
X120878501Y-45998378D01*
X120678880Y-45652623D01*
X120444211Y-45329629D01*
X120262833Y-45128187D01*
X117661019Y-47730000D01*
X117298981Y-47730000D01*
X114697167Y-45128187D01*
X114515789Y-45329629D01*
X114281120Y-45652623D01*
X114081499Y-45998378D01*
X113919112Y-46363104D01*
X113795739Y-46742805D01*
X113712732Y-47133323D01*
X113671000Y-47530379D01*
X112998548Y-47530379D01*
X113006920Y-47338647D01*
X113058048Y-46950291D01*
X113142832Y-46567858D01*
X113260620Y-46194280D01*
X113410528Y-45832369D01*
X113591398Y-45484921D01*
X113801873Y-45154542D01*
X113960997Y-44947167D01*
X114878187Y-44947167D01*
X117480000Y-47548981D01*
X120038601Y-44990379D01*
X199401000Y-44990379D01*
X199401000Y-45389621D01*
X199442732Y-45786677D01*
X199525739Y-46177195D01*
X199649112Y-46556896D01*
X199811499Y-46921622D01*
X200011120Y-47267377D01*
X200245789Y-47590371D01*
X200427167Y-47791813D01*
X203028981Y-45190000D01*
X203391019Y-45190000D01*
X205992833Y-47791813D01*
X206174211Y-47590371D01*
X206408880Y-47267377D01*
X206608501Y-46921622D01*
X206770888Y-46556896D01*
X206894261Y-46177195D01*
X206977268Y-45786677D01*
X207019000Y-45389621D01*
X207019000Y-44990379D01*
X206977268Y-44593323D01*
X206894261Y-44202805D01*
X206770888Y-43823104D01*
X206608501Y-43458378D01*
X206408880Y-43112623D01*
X206174211Y-42789629D01*
X205992833Y-42588187D01*
X203391019Y-45190000D01*
X203028981Y-45190000D01*
X200427167Y-42588187D01*
X200245789Y-42789629D01*
X200011120Y-43112623D01*
X199811499Y-43458378D01*
X199649112Y-43823104D01*
X199525739Y-44202805D01*
X199442732Y-44593323D01*
X199401000Y-44990379D01*
X120038601Y-44990379D01*
X120081813Y-44947167D01*
X119880371Y-44765789D01*
X119557377Y-44531120D01*
X119211622Y-44331499D01*
X118846896Y-44169112D01*
X118467195Y-44045739D01*
X118076677Y-43962732D01*
X117679621Y-43921000D01*
X117280379Y-43921000D01*
X116883323Y-43962732D01*
X116492805Y-44045739D01*
X116113104Y-44169112D01*
X115748378Y-44331499D01*
X115402623Y-44531120D01*
X115079629Y-44765789D01*
X114878187Y-44947167D01*
X113960997Y-44947167D01*
X114040329Y-44843781D01*
X114304972Y-44554972D01*
X114593768Y-44290339D01*
X114904550Y-44051868D01*
X115234921Y-43841398D01*
X115582369Y-43660528D01*
X115944288Y-43510617D01*
X116317861Y-43392832D01*
X116700291Y-43308048D01*
X117088647Y-43256920D01*
X117516850Y-43238225D01*
X117539314Y-43234000D01*
X122397390Y-43234000D01*
X123651481Y-44488093D01*
X123662229Y-44505127D01*
X123716043Y-44552654D01*
X123733828Y-44570440D01*
X123749372Y-44582090D01*
X123798347Y-44625343D01*
X123821738Y-44636325D01*
X123842412Y-44651819D01*
X123903582Y-44674750D01*
X123963090Y-44702689D01*
X123988066Y-44706421D01*
X124012460Y-44715566D01*
X124085653Y-44721006D01*
X124105687Y-44724000D01*
X124125941Y-44724000D01*
X124193564Y-44729025D01*
X124217104Y-44724000D01*
X133298632Y-44724000D01*
X133317920Y-44728387D01*
X133389938Y-44724000D01*
X133415446Y-44724000D01*
X133434331Y-44721296D01*
X133499188Y-44717345D01*
X133523837Y-44708477D01*
X133549770Y-44704763D01*
X133608932Y-44677865D01*
X133670439Y-44655737D01*
X133691028Y-44640537D01*
X133715088Y-44629598D01*
X133770365Y-44581968D01*
X133786437Y-44570103D01*
X133801012Y-44555560D01*
X133852665Y-44511053D01*
X133865563Y-44491153D01*
X135954201Y-42407167D01*
X200608187Y-42407167D01*
X203210000Y-45008981D01*
X205811813Y-42407167D01*
X205610371Y-42225789D01*
X205287377Y-41991120D01*
X204941622Y-41791499D01*
X204576896Y-41629112D01*
X204197195Y-41505739D01*
X203806677Y-41422732D01*
X203409621Y-41381000D01*
X203010379Y-41381000D01*
X202613323Y-41422732D01*
X202222805Y-41505739D01*
X201843104Y-41629112D01*
X201478378Y-41791499D01*
X201132623Y-41991120D01*
X200809629Y-42225789D01*
X200608187Y-42407167D01*
X135954201Y-42407167D01*
X138122197Y-40244000D01*
X207756000Y-40244000D01*
X207756001Y-51397755D01*
X207756001Y-51397755D01*
G37*
X207756001Y-51397755D02*
X202941640Y-56221650D01*
X202924875Y-56232227D01*
X202877126Y-56286291D01*
X202859147Y-56304306D01*
X202847706Y-56319603D01*
X202804657Y-56368347D01*
X202793540Y-56392027D01*
X202777876Y-56412970D01*
X202755119Y-56473862D01*
X202727311Y-56533091D01*
X202723533Y-56558370D01*
X202714298Y-56583079D01*
X202708959Y-56655883D01*
X202706000Y-56675690D01*
X202706000Y-56696253D01*
X202701019Y-56764196D01*
X202706000Y-56787418D01*
X202706001Y-69398986D01*
X202701555Y-69418633D01*
X202706001Y-69490289D01*
X202706001Y-69515446D01*
X202708755Y-69534677D01*
X202712800Y-69599887D01*
X202721575Y-69624195D01*
X202725238Y-69649770D01*
X202752277Y-69709241D01*
X202774598Y-69771070D01*
X202789619Y-69791369D01*
X202800403Y-69815088D01*
X202848317Y-69870693D01*
X202860361Y-69886971D01*
X202874675Y-69901284D01*
X202918947Y-69952664D01*
X202939149Y-69965758D01*
X207756000Y-74782611D01*
X207756001Y-84425085D01*
X203192081Y-88072442D01*
X203144874Y-88102228D01*
X203091218Y-88162981D01*
X203035772Y-88221986D01*
X203031260Y-88230871D01*
X203024657Y-88238348D01*
X202990217Y-88311703D01*
X202953554Y-88383910D01*
X202951716Y-88393708D01*
X202947311Y-88403093D01*
X202936915Y-88472647D01*
X202920087Y-88562407D01*
X202926000Y-88621847D01*
X202926001Y-106801643D01*
X202922900Y-106814024D01*
X202926001Y-106893403D01*
X202926001Y-106925449D01*
X202927723Y-106937471D01*
X202929989Y-106995485D01*
X202940536Y-107026938D01*
X202945238Y-107059770D01*
X202969268Y-107112622D01*
X202987726Y-107167667D01*
X203006674Y-107194892D01*
X203020403Y-107225088D01*
X203058301Y-107269070D01*
X203091692Y-107317048D01*
X203116981Y-107337171D01*
X203138946Y-107362663D01*
X203193217Y-107397840D01*
X203204511Y-107406827D01*
X203228146Y-107420479D01*
X203291338Y-107461439D01*
X203307337Y-107466224D01*
X207756000Y-110035949D01*
X207756001Y-128846000D01*
X204314950Y-128846000D01*
X204576896Y-128760888D01*
X204941622Y-128598501D01*
X205287377Y-128398880D01*
X205610371Y-128164211D01*
X205811813Y-127982833D01*
X203028980Y-125200000D01*
X203391019Y-125200000D01*
X205992833Y-127801813D01*
X206174211Y-127600371D01*
X206408880Y-127277377D01*
X206608501Y-126931622D01*
X206770888Y-126566896D01*
X206894261Y-126187195D01*
X206977268Y-125796677D01*
X207019000Y-125399621D01*
X207019000Y-125000379D01*
X206977268Y-124603323D01*
X206894261Y-124212805D01*
X206770888Y-123833104D01*
X206608501Y-123468378D01*
X206408880Y-123122623D01*
X206174211Y-122799629D01*
X205992833Y-122598187D01*
X203391019Y-125200000D01*
X203028980Y-125200000D01*
X200427167Y-122598187D01*
X200245789Y-122799629D01*
X200011120Y-123122623D01*
X199811499Y-123468378D01*
X199649112Y-123833104D01*
X199525739Y-124212805D01*
X199442732Y-124603323D01*
X199401000Y-125000379D01*
X199401000Y-125399621D01*
X199437697Y-125748777D01*
X199045142Y-125120074D01*
X199044684Y-125118471D01*
X198992463Y-125035704D01*
X198973705Y-125005664D01*
X198972924Y-125004738D01*
X198947772Y-124964874D01*
X198914692Y-124935659D01*
X198886251Y-124901920D01*
X198846986Y-124875862D01*
X198811654Y-124844658D01*
X198771699Y-124825899D01*
X198734933Y-124801501D01*
X198689935Y-124787512D01*
X198646912Y-124767312D01*
X198604637Y-124760993D01*
X198561518Y-124747588D01*
X198508991Y-124746699D01*
X198504310Y-124746000D01*
X198467657Y-124746000D01*
X198379940Y-124744516D01*
X198374527Y-124746000D01*
X188158850Y-124746000D01*
X188156703Y-124745387D01*
X188061957Y-124746000D01*
X188024549Y-124746000D01*
X188022781Y-124746253D01*
X187975102Y-124746561D01*
X187933360Y-124759060D01*
X187890230Y-124765237D01*
X187846810Y-124784978D01*
X187801130Y-124798657D01*
X187764579Y-124822367D01*
X187724911Y-124840402D01*
X187688785Y-124871532D01*
X187648444Y-124897699D01*
X187621094Y-124929858D01*
X187587336Y-124958946D01*
X187558433Y-125003538D01*
X187555033Y-125007536D01*
X187535863Y-125038359D01*
X187488561Y-125111338D01*
X187486789Y-125117262D01*
X185167697Y-128846000D01*
X125882610Y-128846000D01*
X123158522Y-126121912D01*
X123147772Y-126104874D01*
X123093949Y-126057339D01*
X123076170Y-126039559D01*
X123060632Y-126027915D01*
X123011652Y-125984657D01*
X122988259Y-125973674D01*
X122967589Y-125958182D01*
X122906415Y-125935249D01*
X122846911Y-125907311D01*
X122821934Y-125903578D01*
X122797538Y-125894433D01*
X122724343Y-125888993D01*
X122704313Y-125886000D01*
X122684062Y-125886000D01*
X122616435Y-125880975D01*
X122592895Y-125886000D01*
X117543210Y-125886000D01*
X117524268Y-125882198D01*
X117508269Y-125881401D01*
X117088647Y-125863080D01*
X116700291Y-125811952D01*
X116317861Y-125727168D01*
X115944288Y-125609383D01*
X115582369Y-125459472D01*
X115234921Y-125278602D01*
X114904550Y-125068132D01*
X114593768Y-124829661D01*
X114304972Y-124565028D01*
X114040329Y-124276219D01*
X113960998Y-124172833D01*
X114878187Y-124172833D01*
X115079629Y-124354211D01*
X115402623Y-124588880D01*
X115748378Y-124788501D01*
X116113104Y-124950888D01*
X116492805Y-125074261D01*
X116883323Y-125157268D01*
X117280379Y-125199000D01*
X117679621Y-125199000D01*
X118076677Y-125157268D01*
X118467195Y-125074261D01*
X118846896Y-124950888D01*
X119211622Y-124788501D01*
X119557377Y-124588880D01*
X119880371Y-124354211D01*
X120081813Y-124172833D01*
X117480000Y-121571019D01*
X114878187Y-124172833D01*
X113960998Y-124172833D01*
X113801873Y-123965458D01*
X113591398Y-123635079D01*
X113410528Y-123287631D01*
X113260620Y-122925720D01*
X113142832Y-122552142D01*
X113058048Y-122169709D01*
X113006920Y-121781353D01*
X112988225Y-121353150D01*
X112984000Y-121330686D01*
X112984000Y-121190379D01*
X113671000Y-121190379D01*
X113671000Y-121589621D01*
X113712732Y-121986677D01*
X113795739Y-122377195D01*
X113919112Y-122756896D01*
X114081499Y-123121622D01*
X114281120Y-123467377D01*
X114515789Y-123790371D01*
X114697167Y-123991813D01*
X117298981Y-121390000D01*
X117661019Y-121390000D01*
X120262833Y-123991813D01*
X120444211Y-123790371D01*
X120678880Y-123467377D01*
X120878501Y-123121622D01*
X121040888Y-122756896D01*
X121164261Y-122377195D01*
X121247268Y-121986677D01*
X121289000Y-121589621D01*
X121289000Y-121190379D01*
X121247268Y-120793323D01*
X121164261Y-120402805D01*
X121040888Y-120023104D01*
X120878501Y-119658378D01*
X120678880Y-119312623D01*
X120444211Y-118989629D01*
X120262833Y-118788187D01*
X117661019Y-121390000D01*
X117298981Y-121390000D01*
X114697167Y-118788187D01*
X114515789Y-118989629D01*
X114281120Y-119312623D01*
X114081499Y-119658378D01*
X113919112Y-120023104D01*
X113795739Y-120402805D01*
X113712732Y-120793323D01*
X113671000Y-121190379D01*
X112984000Y-121190379D01*
X112984000Y-108352609D01*
X115248088Y-106088522D01*
X115265126Y-106077772D01*
X115312661Y-106023949D01*
X115330440Y-106006171D01*
X115342084Y-105990634D01*
X115385343Y-105941653D01*
X115396325Y-105918262D01*
X115411818Y-105897589D01*
X115434753Y-105836412D01*
X115462689Y-105776911D01*
X115466422Y-105751935D01*
X115475567Y-105727539D01*
X115481006Y-105654343D01*
X115484000Y-105634313D01*
X115484000Y-105614062D01*
X115489025Y-105546435D01*
X115484000Y-105522895D01*
X115484000Y-80624541D01*
X116026000Y-80624541D01*
X116026000Y-80875459D01*
X116069571Y-81122564D01*
X116155391Y-81358349D01*
X116343982Y-81684999D01*
X117278981Y-80750000D01*
X117641019Y-80750000D01*
X118576018Y-81684999D01*
X118730000Y-81418294D01*
X118883982Y-81684999D01*
X119818981Y-80750000D01*
X118883982Y-79815001D01*
X118730000Y-80081706D01*
X118576018Y-79815001D01*
X117641019Y-80750000D01*
X117278981Y-80750000D01*
X116343982Y-79815001D01*
X116155391Y-80141651D01*
X116069571Y-80377436D01*
X116026000Y-80624541D01*
X115484000Y-80624541D01*
X115484000Y-79326018D01*
X116525001Y-79326018D01*
X116791706Y-79480000D01*
X116525001Y-79633982D01*
X117460000Y-80568981D01*
X118394999Y-79633982D01*
X118128294Y-79480000D01*
X118394999Y-79326018D01*
X117460000Y-78391019D01*
X116525001Y-79326018D01*
X115484000Y-79326018D01*
X115484000Y-78084541D01*
X116026000Y-78084541D01*
X116026000Y-78335459D01*
X116069571Y-78582564D01*
X116155391Y-78818349D01*
X116343982Y-79144999D01*
X117278981Y-78210000D01*
X116343982Y-77275001D01*
X116155391Y-77601651D01*
X116069571Y-77837436D01*
X116026000Y-78084541D01*
X115484000Y-78084541D01*
X115484000Y-65661010D01*
X115488445Y-65641368D01*
X115484000Y-65569728D01*
X115484000Y-65544553D01*
X115481245Y-65525316D01*
X115477200Y-65460111D01*
X115468427Y-65435810D01*
X115464764Y-65410232D01*
X115437720Y-65350751D01*
X115415402Y-65288930D01*
X115400383Y-65268631D01*
X115389597Y-65244911D01*
X115341681Y-65189302D01*
X115329638Y-65173027D01*
X115315326Y-65158716D01*
X115271054Y-65107336D01*
X115250852Y-65094242D01*
X112984000Y-62827390D01*
X112984000Y-50512833D01*
X114878187Y-50512833D01*
X115079629Y-50694211D01*
X115402623Y-50928880D01*
X115748378Y-51128501D01*
X116113104Y-51290888D01*
X116492805Y-51414261D01*
X116877417Y-51496013D01*
X116851651Y-51505391D01*
X116634349Y-51630850D01*
X116442136Y-51792136D01*
X116280850Y-51984349D01*
X116155391Y-52201651D01*
X116069571Y-52437436D01*
X116026000Y-52684541D01*
X116026000Y-52935459D01*
X116069571Y-53182564D01*
X116155391Y-53418349D01*
X116280850Y-53635651D01*
X116442136Y-53827864D01*
X116634349Y-53989150D01*
X116791706Y-54080000D01*
X116634349Y-54170850D01*
X116442136Y-54332136D01*
X116280850Y-54524349D01*
X116155391Y-54741651D01*
X116069571Y-54977436D01*
X116026000Y-55224541D01*
X116026000Y-55475459D01*
X116069571Y-55722564D01*
X116155391Y-55958349D01*
X116280850Y-56175651D01*
X116442136Y-56367864D01*
X116634349Y-56529150D01*
X116791706Y-56620000D01*
X116634349Y-56710850D01*
X116442136Y-56872136D01*
X116280850Y-57064349D01*
X116155391Y-57281651D01*
X116069571Y-57517436D01*
X116026000Y-57764541D01*
X116026000Y-58015459D01*
X116069571Y-58262564D01*
X116155391Y-58498349D01*
X116280850Y-58715651D01*
X116442136Y-58907864D01*
X116634349Y-59069150D01*
X116791706Y-59160000D01*
X116634349Y-59250850D01*
X116442136Y-59412136D01*
X116280850Y-59604349D01*
X116155391Y-59821651D01*
X116069571Y-60057436D01*
X116026000Y-60304541D01*
X116026000Y-60555459D01*
X116069571Y-60802564D01*
X116155391Y-61038349D01*
X116280850Y-61255651D01*
X116442136Y-61447864D01*
X116634349Y-61609150D01*
X116791706Y-61700000D01*
X116634349Y-61790850D01*
X116442136Y-61952136D01*
X116280850Y-62144349D01*
X116155391Y-62361651D01*
X116069571Y-62597436D01*
X116026000Y-62844541D01*
X116026000Y-63095459D01*
X116069571Y-63342564D01*
X116155391Y-63578349D01*
X116280850Y-63795651D01*
X116442136Y-63987864D01*
X116634349Y-64149150D01*
X116791706Y-64240000D01*
X116634349Y-64330850D01*
X116442136Y-64492136D01*
X116280850Y-64684349D01*
X116155391Y-64901651D01*
X116069571Y-65137436D01*
X116026000Y-65384541D01*
X116026000Y-65635459D01*
X116069571Y-65882564D01*
X116155391Y-66118349D01*
X116280850Y-66335651D01*
X116442136Y-66527864D01*
X116634349Y-66689150D01*
X116791706Y-66780000D01*
X116634349Y-66870850D01*
X116442136Y-67032136D01*
X116280850Y-67224349D01*
X116155391Y-67441651D01*
X116069571Y-67677436D01*
X116026000Y-67924541D01*
X116026000Y-68175459D01*
X116069571Y-68422564D01*
X116155391Y-68658349D01*
X116280850Y-68875651D01*
X116442136Y-69067864D01*
X116634349Y-69229150D01*
X116791706Y-69320000D01*
X116634349Y-69410850D01*
X116442136Y-69572136D01*
X116280850Y-69764349D01*
X116155391Y-69981651D01*
X116069571Y-70217436D01*
X116026000Y-70464541D01*
X116026000Y-70715459D01*
X116069571Y-70962564D01*
X116155391Y-71198349D01*
X116280850Y-71415651D01*
X116442136Y-71607864D01*
X116634349Y-71769150D01*
X116791706Y-71860000D01*
X116634349Y-71950850D01*
X116442136Y-72112136D01*
X116280850Y-72304349D01*
X116155391Y-72521651D01*
X116069571Y-72757436D01*
X116026000Y-73004541D01*
X116026000Y-73255459D01*
X116069571Y-73502564D01*
X116155391Y-73738349D01*
X116280850Y-73955651D01*
X116442136Y-74147864D01*
X116634349Y-74309150D01*
X116791706Y-74400000D01*
X116634349Y-74490850D01*
X116442136Y-74652136D01*
X116280850Y-74844349D01*
X116155391Y-75061651D01*
X116069571Y-75297436D01*
X116026000Y-75544541D01*
X116026000Y-75795459D01*
X116069571Y-76042564D01*
X116155391Y-76278349D01*
X116280850Y-76495651D01*
X116442136Y-76687864D01*
X116634349Y-76849150D01*
X116791706Y-76940000D01*
X116525001Y-77093982D01*
X117460000Y-78028981D01*
X118394999Y-77093982D01*
X118128294Y-76940000D01*
X118285651Y-76849150D01*
X118477864Y-76687864D01*
X118639150Y-76495651D01*
X118730000Y-76338294D01*
X118820850Y-76495651D01*
X118982136Y-76687864D01*
X119174349Y-76849150D01*
X119331706Y-76940000D01*
X119174349Y-77030850D01*
X118982136Y-77192136D01*
X118820850Y-77384349D01*
X118730000Y-77541706D01*
X118576018Y-77275001D01*
X117641019Y-78210000D01*
X118576018Y-79144999D01*
X118730000Y-78878294D01*
X118820850Y-79035651D01*
X118982136Y-79227864D01*
X119174349Y-79389150D01*
X119331706Y-79480000D01*
X119065001Y-79633982D01*
X120000000Y-80568981D01*
X120934999Y-79633982D01*
X120668294Y-79480000D01*
X120825651Y-79389150D01*
X121017864Y-79227864D01*
X121179150Y-79035651D01*
X121270000Y-78878294D01*
X121360850Y-79035651D01*
X121522136Y-79227864D01*
X121714349Y-79389150D01*
X121871706Y-79480000D01*
X121714349Y-79570850D01*
X121522136Y-79732136D01*
X121360850Y-79924349D01*
X121270000Y-80081706D01*
X121116018Y-79815001D01*
X120181019Y-80750000D01*
X121116018Y-81684999D01*
X121270000Y-81418294D01*
X121360850Y-81575651D01*
X121522136Y-81767864D01*
X121714349Y-81929150D01*
X121871706Y-82020000D01*
X121714349Y-82110850D01*
X121522136Y-82272136D01*
X121360850Y-82464349D01*
X121270000Y-82621706D01*
X121179150Y-82464349D01*
X121017864Y-82272136D01*
X120825651Y-82110850D01*
X120668294Y-82020000D01*
X120934999Y-81866018D01*
X120000000Y-80931019D01*
X119065001Y-81866018D01*
X119331706Y-82020000D01*
X119174349Y-82110850D01*
X118982136Y-82272136D01*
X118820850Y-82464349D01*
X118730000Y-82621706D01*
X118639150Y-82464349D01*
X118477864Y-82272136D01*
X118285651Y-82110850D01*
X118128294Y-82020000D01*
X118394999Y-81866018D01*
X117460000Y-80931019D01*
X116525001Y-81866018D01*
X116791706Y-82020000D01*
X116634349Y-82110850D01*
X116442136Y-82272136D01*
X116280850Y-82464349D01*
X116155391Y-82681651D01*
X116069571Y-82917436D01*
X116026000Y-83164541D01*
X116026000Y-83415459D01*
X116069571Y-83662564D01*
X116155391Y-83898349D01*
X116280850Y-84115651D01*
X116442136Y-84307864D01*
X116634349Y-84469150D01*
X116791706Y-84560000D01*
X116634349Y-84650850D01*
X116442136Y-84812136D01*
X116280850Y-85004349D01*
X116155391Y-85221651D01*
X116069571Y-85457436D01*
X116026000Y-85704541D01*
X116026000Y-85955459D01*
X116069571Y-86202564D01*
X116155391Y-86438349D01*
X116280850Y-86655651D01*
X116442136Y-86847864D01*
X116634349Y-87009150D01*
X116791706Y-87100000D01*
X116634349Y-87190850D01*
X116442136Y-87352136D01*
X116280850Y-87544349D01*
X116155391Y-87761651D01*
X116069571Y-87997436D01*
X116026000Y-88244541D01*
X116026000Y-88495459D01*
X116069571Y-88742564D01*
X116155391Y-88978349D01*
X116280850Y-89195651D01*
X116442136Y-89387864D01*
X116634349Y-89549150D01*
X116791706Y-89640000D01*
X116634349Y-89730850D01*
X116442136Y-89892136D01*
X116280850Y-90084349D01*
X116155391Y-90301651D01*
X116069571Y-90537436D01*
X116026000Y-90784541D01*
X116026000Y-91035459D01*
X116069571Y-91282564D01*
X116155391Y-91518349D01*
X116280850Y-91735651D01*
X116442136Y-91927864D01*
X116634349Y-92089150D01*
X116791706Y-92180000D01*
X116634349Y-92270850D01*
X116442136Y-92432136D01*
X116280850Y-92624349D01*
X116155391Y-92841651D01*
X116069571Y-93077436D01*
X116026000Y-93324541D01*
X116026000Y-93575459D01*
X116069571Y-93822564D01*
X116155391Y-94058349D01*
X116280850Y-94275651D01*
X116442136Y-94467864D01*
X116634349Y-94629150D01*
X116791706Y-94720000D01*
X116634349Y-94810850D01*
X116442136Y-94972136D01*
X116280850Y-95164349D01*
X116155391Y-95381651D01*
X116069571Y-95617436D01*
X116026000Y-95864541D01*
X116026000Y-96115459D01*
X116069571Y-96362564D01*
X116155391Y-96598349D01*
X116280850Y-96815651D01*
X116442136Y-97007864D01*
X116634349Y-97169150D01*
X116791706Y-97260000D01*
X116634349Y-97350850D01*
X116442136Y-97512136D01*
X116280850Y-97704349D01*
X116155391Y-97921651D01*
X116069571Y-98157436D01*
X116026000Y-98404541D01*
X116026000Y-98655459D01*
X116069571Y-98902564D01*
X116155391Y-99138349D01*
X116280850Y-99355651D01*
X116442136Y-99547864D01*
X116634349Y-99709150D01*
X116791706Y-99800000D01*
X116634349Y-99890850D01*
X116442136Y-100052136D01*
X116280850Y-100244349D01*
X116155391Y-100461651D01*
X116069571Y-100697436D01*
X116026000Y-100944541D01*
X116026000Y-101195459D01*
X116069571Y-101442564D01*
X116155391Y-101678349D01*
X116280850Y-101895651D01*
X116442136Y-102087864D01*
X116634349Y-102249150D01*
X116791706Y-102340000D01*
X116634349Y-102430850D01*
X116442136Y-102592136D01*
X116280850Y-102784349D01*
X116155391Y-103001651D01*
X116069571Y-103237436D01*
X116026000Y-103484541D01*
X116026000Y-103735459D01*
X116069571Y-103982564D01*
X116155391Y-104218349D01*
X116280850Y-104435651D01*
X116442136Y-104627864D01*
X116634349Y-104789150D01*
X116791706Y-104880000D01*
X116634349Y-104970850D01*
X116442136Y-105132136D01*
X116280850Y-105324349D01*
X116155391Y-105541651D01*
X116069571Y-105777436D01*
X116026000Y-106024541D01*
X116026000Y-106275459D01*
X116069571Y-106522564D01*
X116155391Y-106758349D01*
X116280850Y-106975651D01*
X116442136Y-107167864D01*
X116634349Y-107329150D01*
X116791706Y-107420000D01*
X116634349Y-107510850D01*
X116442136Y-107672136D01*
X116280850Y-107864349D01*
X116155391Y-108081651D01*
X116069571Y-108317436D01*
X116026000Y-108564541D01*
X116026000Y-108815459D01*
X116069571Y-109062564D01*
X116155391Y-109298349D01*
X116280850Y-109515651D01*
X116442136Y-109707864D01*
X116634349Y-109869150D01*
X116791706Y-109960000D01*
X116634349Y-110050850D01*
X116442136Y-110212136D01*
X116280850Y-110404349D01*
X116155391Y-110621651D01*
X116069571Y-110857436D01*
X116026000Y-111104541D01*
X116026000Y-111355459D01*
X116069571Y-111602564D01*
X116155391Y-111838349D01*
X116280850Y-112055651D01*
X116442136Y-112247864D01*
X116634349Y-112409150D01*
X116791706Y-112500000D01*
X116634349Y-112590850D01*
X116442136Y-112752136D01*
X116280850Y-112944349D01*
X116155391Y-113161651D01*
X116069571Y-113397436D01*
X116026000Y-113644541D01*
X116026000Y-113895459D01*
X116069571Y-114142564D01*
X116155391Y-114378349D01*
X116280850Y-114595651D01*
X116442136Y-114787864D01*
X116634349Y-114949150D01*
X116791706Y-115040000D01*
X116634349Y-115130850D01*
X116442136Y-115292136D01*
X116280850Y-115484349D01*
X116155391Y-115701651D01*
X116069571Y-115937436D01*
X116026000Y-116184541D01*
X116026000Y-116435459D01*
X116069571Y-116682564D01*
X116155391Y-116918349D01*
X116280850Y-117135651D01*
X116442136Y-117327864D01*
X116634349Y-117489150D01*
X116851651Y-117614609D01*
X116877417Y-117623987D01*
X116492805Y-117705739D01*
X116113104Y-117829112D01*
X115748378Y-117991499D01*
X115402623Y-118191120D01*
X115079629Y-118425789D01*
X114878187Y-118607167D01*
X117480000Y-121208981D01*
X120081813Y-118607167D01*
X119880371Y-118425789D01*
X119557377Y-118191120D01*
X119211622Y-117991499D01*
X118846896Y-117829112D01*
X118467195Y-117705739D01*
X118076677Y-117622732D01*
X118052898Y-117620233D01*
X118068349Y-117614609D01*
X118285651Y-117489150D01*
X118477864Y-117327864D01*
X118639150Y-117135651D01*
X118730000Y-116978294D01*
X118820850Y-117135651D01*
X118982136Y-117327864D01*
X119174349Y-117489150D01*
X119391651Y-117614609D01*
X119627436Y-117700429D01*
X119874541Y-117744000D01*
X120125459Y-117744000D01*
X120372564Y-117700429D01*
X120608349Y-117614609D01*
X120825651Y-117489150D01*
X121017864Y-117327864D01*
X121179150Y-117135651D01*
X121270000Y-116978294D01*
X121360850Y-117135651D01*
X121522136Y-117327864D01*
X121714349Y-117489150D01*
X121931651Y-117614609D01*
X122167436Y-117700429D01*
X122414541Y-117744000D01*
X122665459Y-117744000D01*
X122912564Y-117700429D01*
X123148349Y-117614609D01*
X123365651Y-117489150D01*
X123557864Y-117327864D01*
X123659606Y-117206613D01*
X123718795Y-117427512D01*
X123866185Y-117603165D01*
X124059814Y-117714956D01*
X124268976Y-117751837D01*
X125512645Y-117751837D01*
X123621547Y-119642935D01*
X123543024Y-119715141D01*
X123499994Y-119784542D01*
X123450629Y-119849578D01*
X123434656Y-119889921D01*
X123409294Y-119930826D01*
X123398669Y-119980813D01*
X123358948Y-120081136D01*
X123345597Y-120208163D01*
X122733412Y-120208163D01*
X122432489Y-120288795D01*
X122256835Y-120436185D01*
X122145044Y-120629814D01*
X122108163Y-120838976D01*
X122108163Y-123866588D01*
X122188795Y-124167512D01*
X122336185Y-124343165D01*
X122529814Y-124454956D01*
X122738976Y-124491837D01*
X125766588Y-124491837D01*
X126067512Y-124411205D01*
X126243165Y-124263815D01*
X126354956Y-124070186D01*
X126391837Y-123861024D01*
X126391837Y-122350000D01*
X127190789Y-122350000D01*
X127211608Y-122647721D01*
X127273658Y-122939646D01*
X127375734Y-123220095D01*
X127515846Y-123483609D01*
X127691270Y-123725058D01*
X127898589Y-123939743D01*
X128133769Y-124123486D01*
X128392231Y-124272710D01*
X128668948Y-124384511D01*
X128958530Y-124456711D01*
X129145544Y-124476367D01*
X131408016Y-126738839D01*
X131506806Y-126843307D01*
X131593683Y-126904139D01*
X131675876Y-126971174D01*
X131729322Y-126999115D01*
X131778727Y-127033708D01*
X131876065Y-127075831D01*
X131970057Y-127124968D01*
X132028021Y-127141588D01*
X132086447Y-127166871D01*
X132151100Y-127176881D01*
X132289152Y-127216466D01*
X132620127Y-127241934D01*
X132682925Y-127234000D01*
X162632937Y-127234000D01*
X162880255Y-127208879D01*
X163197020Y-127109610D01*
X163487354Y-126948675D01*
X163739397Y-126732648D01*
X163942855Y-126470352D01*
X164089415Y-126172503D01*
X164173091Y-125851267D01*
X164186522Y-125594964D01*
X164657555Y-125594964D01*
X164690123Y-125904827D01*
X164788469Y-126200466D01*
X164948006Y-126468090D01*
X165161289Y-126695213D01*
X165418367Y-126871240D01*
X165707249Y-126987955D01*
X166014454Y-127039914D01*
X166325650Y-127024694D01*
X166626318Y-126943004D01*
X166902431Y-126798656D01*
X167141106Y-126598384D01*
X167331207Y-126351532D01*
X167463866Y-126069617D01*
X167532943Y-125765574D01*
X167534064Y-125444433D01*
X167467111Y-125139916D01*
X167336423Y-124857081D01*
X167148050Y-124608909D01*
X167014166Y-124494964D01*
X176557555Y-124494964D01*
X176590123Y-124804827D01*
X176688469Y-125100466D01*
X176848006Y-125368090D01*
X177061289Y-125595213D01*
X177318367Y-125771240D01*
X177607249Y-125887955D01*
X177914454Y-125939914D01*
X178225650Y-125924694D01*
X178526318Y-125843004D01*
X178802431Y-125698656D01*
X179041106Y-125498384D01*
X179231207Y-125251532D01*
X179363866Y-124969617D01*
X179432943Y-124665574D01*
X179434064Y-124344433D01*
X179367111Y-124039916D01*
X179236423Y-123757081D01*
X179048050Y-123508909D01*
X178810779Y-123306975D01*
X178535681Y-123160702D01*
X178235590Y-123076916D01*
X177924508Y-123059523D01*
X177616948Y-123109337D01*
X177327260Y-123224033D01*
X177068958Y-123398259D01*
X176854094Y-123623888D01*
X176692693Y-123890393D01*
X176592286Y-124185338D01*
X176557555Y-124494964D01*
X167014166Y-124494964D01*
X166910779Y-124406975D01*
X166635681Y-124260702D01*
X166335590Y-124176916D01*
X166024508Y-124159523D01*
X165716948Y-124209337D01*
X165427260Y-124324033D01*
X165168958Y-124498259D01*
X164954094Y-124723888D01*
X164792693Y-124990393D01*
X164692286Y-125285338D01*
X164657555Y-125594964D01*
X164186522Y-125594964D01*
X164190463Y-125519768D01*
X164140824Y-125191546D01*
X164026201Y-124880009D01*
X163851276Y-124597883D01*
X163623194Y-124356693D01*
X163351273Y-124166292D01*
X163043552Y-124033129D01*
X162609925Y-123966000D01*
X135804463Y-123966000D01*
X135948819Y-123836021D01*
X136140658Y-123607397D01*
X136298811Y-123354299D01*
X136420200Y-123081653D01*
X136502464Y-122794767D01*
X136544000Y-122499224D01*
X136544000Y-122200776D01*
X136502464Y-121905233D01*
X136420200Y-121618347D01*
X136298811Y-121345701D01*
X136140658Y-121092603D01*
X135965617Y-120883997D01*
X162267821Y-120883997D01*
X162301705Y-121161962D01*
X162376302Y-121431866D01*
X162489975Y-121687778D01*
X162640224Y-121924079D01*
X162823751Y-122135576D01*
X163036524Y-122317621D01*
X163273866Y-122466218D01*
X163530567Y-122578101D01*
X163800985Y-122650812D01*
X164079179Y-122682755D01*
X164359041Y-122673226D01*
X164634419Y-122622436D01*
X164899265Y-122531500D01*
X165147761Y-122402418D01*
X165374448Y-122238022D01*
X165574345Y-122041926D01*
X165743062Y-121818436D01*
X165876892Y-121572465D01*
X165972896Y-121309413D01*
X166029295Y-121033434D01*
X166039447Y-120658275D01*
X165998054Y-120379650D01*
X165916418Y-120111792D01*
X165796085Y-119858942D01*
X165639701Y-119626656D01*
X165450700Y-119420036D01*
X165233235Y-119243622D01*
X164992084Y-119101289D01*
X164732543Y-118996164D01*
X164460314Y-118930556D01*
X164181378Y-118905908D01*
X163901863Y-118922759D01*
X163627908Y-118980739D01*
X163365533Y-119078577D01*
X163120502Y-119214121D01*
X162898196Y-119384394D01*
X162703500Y-119585656D01*
X162540691Y-119813485D01*
X162413346Y-120062876D01*
X162324261Y-120328350D01*
X162275395Y-120604077D01*
X162267821Y-120883997D01*
X135965617Y-120883997D01*
X135948819Y-120863979D01*
X135727030Y-120664279D01*
X135479606Y-120497389D01*
X135323415Y-120421210D01*
X135327661Y-120416592D01*
X135459888Y-120176072D01*
X135531099Y-119910308D01*
X135534209Y-119613416D01*
X135468579Y-119346218D01*
X135341417Y-119102981D01*
X135159907Y-118897098D01*
X134934526Y-118740455D01*
X134678286Y-118642094D01*
X134405981Y-118607694D01*
X134133330Y-118639241D01*
X133876075Y-118734912D01*
X133649065Y-118889187D01*
X133465409Y-119093159D01*
X133335708Y-119335051D01*
X133267451Y-119600897D01*
X133264576Y-119875352D01*
X133327252Y-120142570D01*
X133451858Y-120387124D01*
X133482832Y-120423008D01*
X133472231Y-120427291D01*
X133213769Y-120576514D01*
X132978589Y-120760257D01*
X132771270Y-120974942D01*
X132595846Y-121216391D01*
X132455734Y-121479905D01*
X132353658Y-121760354D01*
X132291608Y-122052279D01*
X132270789Y-122350000D01*
X132291608Y-122647721D01*
X132353658Y-122939646D01*
X132424154Y-123133330D01*
X131459487Y-122168664D01*
X131422464Y-121905233D01*
X131340200Y-121618347D01*
X131218811Y-121345701D01*
X131060658Y-121092603D01*
X130868819Y-120863979D01*
X130647030Y-120664279D01*
X130399606Y-120497389D01*
X130131363Y-120366559D01*
X129847522Y-120274333D01*
X129553609Y-120222508D01*
X129255343Y-120212092D01*
X128958530Y-120243289D01*
X128668948Y-120315489D01*
X128392231Y-120427290D01*
X128133769Y-120576514D01*
X127898589Y-120760257D01*
X127691270Y-120974942D01*
X127515846Y-121216391D01*
X127375734Y-121479905D01*
X127273658Y-121760354D01*
X127211608Y-122052279D01*
X127190789Y-122350000D01*
X126391837Y-122350000D01*
X126391837Y-120833412D01*
X126311205Y-120532489D01*
X126163815Y-120356835D01*
X125970186Y-120245044D01*
X125761024Y-120208163D01*
X125627355Y-120208163D01*
X129476519Y-116359000D01*
X136171405Y-116359000D01*
X136304931Y-116453893D01*
X136560126Y-116554932D01*
X136832058Y-116592182D01*
X137105024Y-116563491D01*
X137363267Y-116470518D01*
X137591879Y-116318628D01*
X137777661Y-116116592D01*
X137909888Y-115876072D01*
X137981099Y-115610308D01*
X137984209Y-115313416D01*
X137918579Y-115046218D01*
X137791417Y-114802981D01*
X137609907Y-114597098D01*
X137384526Y-114440455D01*
X137128286Y-114342094D01*
X136855981Y-114307694D01*
X136583330Y-114339241D01*
X136326075Y-114434912D01*
X136169972Y-114541000D01*
X129120174Y-114541000D01*
X129013652Y-114536535D01*
X128934155Y-114555180D01*
X128853256Y-114566262D01*
X128813435Y-114583494D01*
X128766578Y-114594485D01*
X128723720Y-114622317D01*
X128624691Y-114665171D01*
X128431144Y-114821903D01*
X128403058Y-114861423D01*
X126521837Y-116742644D01*
X126521837Y-115493412D01*
X126441205Y-115192489D01*
X126293815Y-115016835D01*
X126100186Y-114905044D01*
X125982868Y-114884358D01*
X126097864Y-114787864D01*
X126259150Y-114595651D01*
X126384609Y-114378349D01*
X126470429Y-114142564D01*
X126514000Y-113895459D01*
X126514000Y-113644541D01*
X126470429Y-113397436D01*
X126384609Y-113161651D01*
X126259150Y-112944349D01*
X126097864Y-112752136D01*
X125905651Y-112590850D01*
X125748294Y-112500000D01*
X125905651Y-112409150D01*
X126097864Y-112247864D01*
X126116753Y-112225352D01*
X134214576Y-112225352D01*
X134277252Y-112492570D01*
X134401858Y-112737124D01*
X134581203Y-112944897D01*
X134804931Y-113103893D01*
X135060126Y-113204932D01*
X135332058Y-113242182D01*
X135605024Y-113213491D01*
X135863267Y-113120518D01*
X136031114Y-113009000D01*
X137921405Y-113009000D01*
X138054931Y-113103893D01*
X138310126Y-113204932D01*
X138582058Y-113242182D01*
X138855024Y-113213491D01*
X139113267Y-113120518D01*
X139341879Y-112968628D01*
X139527661Y-112766592D01*
X139659888Y-112526072D01*
X139660080Y-112525352D01*
X143014576Y-112525352D01*
X143077252Y-112792570D01*
X143201858Y-113037124D01*
X143381203Y-113244897D01*
X143604931Y-113403893D01*
X143860126Y-113504932D01*
X144132058Y-113542182D01*
X144405024Y-113513491D01*
X144583163Y-113449357D01*
X144583163Y-113616588D01*
X144663795Y-113917512D01*
X144795195Y-114074109D01*
X144735708Y-114185051D01*
X144667451Y-114450897D01*
X144664576Y-114725352D01*
X144727252Y-114992570D01*
X144851858Y-115237124D01*
X145031203Y-115444897D01*
X145254931Y-115603893D01*
X145510126Y-115704932D01*
X145782058Y-115742182D01*
X146055024Y-115713491D01*
X146313267Y-115620518D01*
X146541879Y-115468628D01*
X146727661Y-115266592D01*
X146859888Y-115026072D01*
X146931099Y-114760308D01*
X146934209Y-114463416D01*
X146868579Y-114196218D01*
X146861608Y-114182883D01*
X146942512Y-114161205D01*
X147018539Y-114097411D01*
X147183723Y-114192779D01*
X147117451Y-114450897D01*
X147114576Y-114725352D01*
X147177252Y-114992570D01*
X147301858Y-115237124D01*
X147481203Y-115444897D01*
X147704931Y-115603893D01*
X147960126Y-115704932D01*
X148232058Y-115742182D01*
X148505024Y-115713491D01*
X148763267Y-115620518D01*
X148991879Y-115468628D01*
X149177661Y-115266592D01*
X149309888Y-115026072D01*
X149381099Y-114760308D01*
X149384209Y-114463416D01*
X149318579Y-114196218D01*
X149252171Y-114069190D01*
X149318165Y-114013814D01*
X149429956Y-113820186D01*
X149466837Y-113611024D01*
X149466837Y-112786645D01*
X150865001Y-114184809D01*
X150864576Y-114225352D01*
X150927252Y-114492570D01*
X151051858Y-114737124D01*
X151231203Y-114944897D01*
X151454931Y-115103893D01*
X151710126Y-115204932D01*
X151982058Y-115242182D01*
X152255024Y-115213491D01*
X152513267Y-115120518D01*
X152741879Y-114968628D01*
X152927661Y-114766592D01*
X153059888Y-114526072D01*
X153131099Y-114260308D01*
X153134209Y-113963416D01*
X153068579Y-113696218D01*
X152941417Y-113452981D01*
X152759907Y-113247098D01*
X152534526Y-113090455D01*
X152278286Y-112992094D01*
X152076399Y-112966590D01*
X151734805Y-112624996D01*
X177680860Y-112624996D01*
X177722909Y-112946567D01*
X177806573Y-113259899D01*
X177930420Y-113559629D01*
X178092329Y-113840630D01*
X178289531Y-114098094D01*
X178518652Y-114327615D01*
X178775771Y-114525267D01*
X179056490Y-114687667D01*
X179356004Y-114812036D01*
X179669189Y-114896247D01*
X179990687Y-114938858D01*
X180314996Y-114939140D01*
X180636567Y-114897091D01*
X180949899Y-114813427D01*
X181249629Y-114689580D01*
X181530630Y-114527671D01*
X181788094Y-114330469D01*
X182017615Y-114101348D01*
X182215267Y-113844229D01*
X182377667Y-113563510D01*
X182502036Y-113263996D01*
X182586247Y-112950811D01*
X182628858Y-112629313D01*
X182629140Y-112305004D01*
X182587091Y-111983433D01*
X182503427Y-111670101D01*
X182379580Y-111370371D01*
X182217671Y-111089370D01*
X182020469Y-110831906D01*
X181791348Y-110602385D01*
X181534229Y-110404733D01*
X181253510Y-110242333D01*
X180953996Y-110117964D01*
X180640811Y-110033753D01*
X180319313Y-109991142D01*
X179995004Y-109990860D01*
X179673433Y-110032909D01*
X179360101Y-110116573D01*
X179060371Y-110240420D01*
X178779370Y-110402329D01*
X178521906Y-110599531D01*
X178292385Y-110828652D01*
X178094733Y-111085771D01*
X177932333Y-111366490D01*
X177807964Y-111666004D01*
X177723753Y-111979189D01*
X177681142Y-112300687D01*
X177680860Y-112624996D01*
X151734805Y-112624996D01*
X149950456Y-110840649D01*
X149935880Y-110817547D01*
X149862902Y-110753095D01*
X149838843Y-110729035D01*
X149817818Y-110713278D01*
X149751455Y-110654668D01*
X149719760Y-110639787D01*
X149691748Y-110618794D01*
X149608858Y-110587719D01*
X149528370Y-110549930D01*
X149494590Y-110544882D01*
X149461352Y-110532422D01*
X149403798Y-110528145D01*
X149386205Y-110462489D01*
X149238815Y-110286835D01*
X149045186Y-110175044D01*
X148836024Y-110138163D01*
X147408412Y-110138163D01*
X147107489Y-110218795D01*
X147073078Y-110247669D01*
X147038815Y-110206836D01*
X146845186Y-110095044D01*
X146636024Y-110058163D01*
X145208412Y-110058163D01*
X144907489Y-110138795D01*
X144731835Y-110286185D01*
X144620044Y-110479814D01*
X144583163Y-110688976D01*
X144583163Y-111327029D01*
X144565447Y-111344745D01*
X144428286Y-111292094D01*
X144155981Y-111257694D01*
X143883330Y-111289241D01*
X143626075Y-111384912D01*
X143399065Y-111539187D01*
X143215409Y-111743159D01*
X143085708Y-111985051D01*
X143017451Y-112250897D01*
X143014576Y-112525352D01*
X139660080Y-112525352D01*
X139731099Y-112260308D01*
X139734209Y-111963416D01*
X139668579Y-111696218D01*
X139541417Y-111452981D01*
X139359907Y-111247098D01*
X139134526Y-111090455D01*
X138878286Y-110992094D01*
X138605981Y-110957694D01*
X138333330Y-110989241D01*
X138076075Y-111084912D01*
X137919972Y-111191000D01*
X136029192Y-111191000D01*
X135884526Y-111090455D01*
X135628286Y-110992094D01*
X135355981Y-110957694D01*
X135083330Y-110989241D01*
X134826075Y-111084912D01*
X134599065Y-111239187D01*
X134415409Y-111443159D01*
X134285708Y-111685051D01*
X134217451Y-111950897D01*
X134214576Y-112225352D01*
X126116753Y-112225352D01*
X126259150Y-112055651D01*
X126384609Y-111838349D01*
X126470429Y-111602564D01*
X126514000Y-111355459D01*
X126514000Y-111104541D01*
X126470429Y-110857436D01*
X126384609Y-110621651D01*
X126259150Y-110404349D01*
X126097864Y-110212136D01*
X125905651Y-110050850D01*
X125748294Y-109960000D01*
X125905651Y-109869150D01*
X126097864Y-109707864D01*
X126259150Y-109515651D01*
X126384609Y-109298349D01*
X126470429Y-109062564D01*
X126514000Y-108815459D01*
X126514000Y-108564541D01*
X126470429Y-108317436D01*
X126384609Y-108081651D01*
X126259150Y-107864349D01*
X126097864Y-107672136D01*
X125905651Y-107510850D01*
X125748294Y-107420000D01*
X125905651Y-107329150D01*
X126097864Y-107167864D01*
X126259150Y-106975651D01*
X126384609Y-106758349D01*
X126470429Y-106522564D01*
X126514000Y-106275459D01*
X126514000Y-106024541D01*
X126470429Y-105777436D01*
X126384609Y-105541651D01*
X126259150Y-105324349D01*
X126097864Y-105132136D01*
X125905651Y-104970850D01*
X125748294Y-104880000D01*
X125905651Y-104789150D01*
X126097864Y-104627864D01*
X126259150Y-104435651D01*
X126384609Y-104218349D01*
X126470429Y-103982564D01*
X126514000Y-103735459D01*
X126514000Y-103484541D01*
X126470429Y-103237436D01*
X126384609Y-103001651D01*
X126259150Y-102784349D01*
X126097864Y-102592136D01*
X125905651Y-102430850D01*
X125748294Y-102340000D01*
X125905651Y-102249150D01*
X126097864Y-102087864D01*
X126138160Y-102039841D01*
X127182292Y-102039841D01*
X127191740Y-102291508D01*
X127243456Y-102537983D01*
X127335961Y-102772222D01*
X127466610Y-102987526D01*
X127631669Y-103177739D01*
X127826416Y-103337422D01*
X128045284Y-103462009D01*
X128284831Y-103548960D01*
X128624648Y-103594000D01*
X128733190Y-103594000D01*
X128920942Y-103578069D01*
X129015328Y-103553571D01*
X129014576Y-103625353D01*
X129077252Y-103892570D01*
X129201858Y-104137124D01*
X129381203Y-104344897D01*
X129604931Y-104503893D01*
X129860126Y-104604932D01*
X130132058Y-104642182D01*
X130405024Y-104613491D01*
X130663267Y-104520518D01*
X130891879Y-104368628D01*
X131077661Y-104166592D01*
X131209888Y-103926072D01*
X131281099Y-103660308D01*
X131281801Y-103593269D01*
X131460942Y-103578069D01*
X131704708Y-103514800D01*
X131934329Y-103411363D01*
X132143240Y-103270716D01*
X132297535Y-103123526D01*
X132338795Y-103277512D01*
X132486185Y-103453165D01*
X132679814Y-103564956D01*
X132888976Y-103601837D01*
X132905932Y-103601837D01*
X132912096Y-103618909D01*
X132917059Y-103653567D01*
X132953699Y-103734151D01*
X132983892Y-103817787D01*
X133004211Y-103845248D01*
X133018901Y-103877556D01*
X133084174Y-103953310D01*
X133100314Y-103975123D01*
X133119495Y-103994303D01*
X133179514Y-104063960D01*
X133206905Y-104081713D01*
X137016192Y-107891000D01*
X133829192Y-107891000D01*
X133684526Y-107790455D01*
X133428286Y-107692094D01*
X133155981Y-107657694D01*
X132883330Y-107689241D01*
X132626075Y-107784912D01*
X132399065Y-107939187D01*
X132215409Y-108143159D01*
X132085708Y-108385051D01*
X132017451Y-108650897D01*
X132014576Y-108925352D01*
X132077252Y-109192570D01*
X132201858Y-109437124D01*
X132381203Y-109644897D01*
X132604931Y-109803893D01*
X132860126Y-109904932D01*
X133132058Y-109942182D01*
X133405024Y-109913491D01*
X133663267Y-109820518D01*
X133831114Y-109709000D01*
X140917832Y-109709000D01*
X141160126Y-109804932D01*
X141432058Y-109842182D01*
X141705024Y-109813491D01*
X141963267Y-109720518D01*
X142191879Y-109568628D01*
X142377661Y-109366592D01*
X142509888Y-109126072D01*
X142581099Y-108860308D01*
X142584209Y-108563416D01*
X142518579Y-108296218D01*
X142391417Y-108052981D01*
X142209907Y-107847098D01*
X141984526Y-107690455D01*
X141728286Y-107592094D01*
X141455981Y-107557693D01*
X141382084Y-107566243D01*
X141384209Y-107363416D01*
X141318579Y-107096218D01*
X141191417Y-106852981D01*
X141009907Y-106647098D01*
X140784526Y-106490455D01*
X140528286Y-106392094D01*
X140255981Y-106357694D01*
X139983330Y-106389241D01*
X139726075Y-106484912D01*
X139499066Y-106639187D01*
X139497434Y-106641000D01*
X138195809Y-106641000D01*
X135003696Y-103448888D01*
X135093165Y-103373815D01*
X135204956Y-103180186D01*
X135241837Y-102971024D01*
X135241837Y-101243412D01*
X135217659Y-101153177D01*
X137042950Y-102978469D01*
X137115140Y-103056976D01*
X137184545Y-103100008D01*
X137249576Y-103149371D01*
X137289920Y-103165344D01*
X137330824Y-103190705D01*
X137380809Y-103201330D01*
X137481135Y-103241052D01*
X137728820Y-103267084D01*
X137776617Y-103259000D01*
X139521405Y-103259000D01*
X139654931Y-103353893D01*
X139910126Y-103454932D01*
X140182058Y-103492182D01*
X140455024Y-103463491D01*
X140713267Y-103370518D01*
X140941879Y-103218628D01*
X141127661Y-103016592D01*
X141259888Y-102776072D01*
X141331099Y-102510308D01*
X141334209Y-102213416D01*
X141308562Y-102109000D01*
X143141046Y-102109000D01*
X143117451Y-102200897D01*
X143115531Y-102384166D01*
X142905981Y-102357694D01*
X142633330Y-102389241D01*
X142376075Y-102484912D01*
X142149065Y-102639187D01*
X141965409Y-102843159D01*
X141835708Y-103085051D01*
X141767451Y-103350897D01*
X141764576Y-103625352D01*
X141827252Y-103892570D01*
X141951858Y-104137124D01*
X142131203Y-104344897D01*
X142354931Y-104503893D01*
X142610126Y-104604932D01*
X142882058Y-104642182D01*
X143155024Y-104613491D01*
X143413267Y-104520518D01*
X143581114Y-104409000D01*
X175923482Y-104409000D01*
X185681000Y-114166520D01*
X185681001Y-116108163D01*
X185073412Y-116108163D01*
X184772489Y-116188795D01*
X184596835Y-116336185D01*
X184485044Y-116529814D01*
X184448163Y-116738976D01*
X184448163Y-119766588D01*
X184528795Y-120067512D01*
X184676185Y-120243165D01*
X184869814Y-120354956D01*
X185078976Y-120391837D01*
X187217339Y-120391837D01*
X184743177Y-122866000D01*
X181417063Y-122866000D01*
X181169745Y-122891121D01*
X180852980Y-122990390D01*
X180562646Y-123151325D01*
X180310603Y-123367352D01*
X180107145Y-123629648D01*
X179960585Y-123927497D01*
X179876909Y-124248733D01*
X179859537Y-124580232D01*
X179909176Y-124908454D01*
X180023799Y-125219991D01*
X180198724Y-125502117D01*
X180426806Y-125743307D01*
X180698727Y-125933708D01*
X181006448Y-126066871D01*
X181440075Y-126134000D01*
X185396607Y-126134000D01*
X185540287Y-126138013D01*
X185644729Y-126119598D01*
X185750255Y-126108879D01*
X185807815Y-126090841D01*
X185867199Y-126080369D01*
X185965809Y-126041327D01*
X186067020Y-126009610D01*
X186119770Y-125980370D01*
X186178951Y-125956939D01*
X186231733Y-125918308D01*
X186357354Y-125848675D01*
X186609397Y-125632648D01*
X186648204Y-125582619D01*
X189813657Y-122417167D01*
X200608187Y-122417167D01*
X203210000Y-125018981D01*
X205811813Y-122417167D01*
X205610371Y-122235789D01*
X205287377Y-122001120D01*
X204941622Y-121801499D01*
X204576896Y-121639112D01*
X204197195Y-121515739D01*
X203806677Y-121432732D01*
X203409621Y-121391000D01*
X203010379Y-121391000D01*
X202613323Y-121432732D01*
X202222805Y-121515739D01*
X201843104Y-121639112D01*
X201478378Y-121801499D01*
X201132623Y-122001120D01*
X200809629Y-122235789D01*
X200608187Y-122417167D01*
X189813657Y-122417167D01*
X191851876Y-120378949D01*
X191893609Y-120377492D01*
X192187522Y-120325667D01*
X192471363Y-120233441D01*
X192739606Y-120102611D01*
X192987030Y-119935721D01*
X193208819Y-119736021D01*
X193400658Y-119507397D01*
X193558811Y-119254299D01*
X193680200Y-118981653D01*
X193762464Y-118694767D01*
X193804000Y-118399224D01*
X193804000Y-118250000D01*
X194610789Y-118250000D01*
X194631608Y-118547721D01*
X194693658Y-118839646D01*
X194795734Y-119120095D01*
X194935846Y-119383609D01*
X195111270Y-119625058D01*
X195318589Y-119839743D01*
X195553769Y-120023486D01*
X195812231Y-120172710D01*
X196088948Y-120284511D01*
X196378530Y-120356711D01*
X196675343Y-120387908D01*
X196973609Y-120377492D01*
X197267522Y-120325667D01*
X197551363Y-120233441D01*
X197819606Y-120102611D01*
X198067030Y-119935721D01*
X198288819Y-119736021D01*
X198480658Y-119507397D01*
X198638811Y-119254299D01*
X198760200Y-118981653D01*
X198842464Y-118694767D01*
X198884000Y-118399224D01*
X198884000Y-118100776D01*
X198842464Y-117805233D01*
X198760200Y-117518347D01*
X198638811Y-117245701D01*
X198480658Y-116992603D01*
X198288819Y-116763979D01*
X198067030Y-116564279D01*
X197819606Y-116397389D01*
X197802702Y-116389144D01*
X197809888Y-116376073D01*
X197881099Y-116110308D01*
X197884209Y-115813416D01*
X197818579Y-115546218D01*
X197691417Y-115302981D01*
X197509907Y-115097098D01*
X197284526Y-114940455D01*
X197028286Y-114842094D01*
X196755981Y-114807694D01*
X196483330Y-114839241D01*
X196226075Y-114934912D01*
X195999065Y-115089187D01*
X195815409Y-115293159D01*
X195685708Y-115535051D01*
X195617451Y-115800897D01*
X195614576Y-116075352D01*
X195677252Y-116342570D01*
X195701918Y-116390980D01*
X195553769Y-116476514D01*
X195318589Y-116660257D01*
X195111270Y-116874942D01*
X194935846Y-117116391D01*
X194795734Y-117379905D01*
X194693658Y-117660354D01*
X194631608Y-117952279D01*
X194610789Y-118250000D01*
X193804000Y-118250000D01*
X193804000Y-118100776D01*
X193762464Y-117805233D01*
X193680200Y-117518347D01*
X193558811Y-117245701D01*
X193400658Y-116992603D01*
X193304000Y-116877411D01*
X193304000Y-68326823D01*
X194258163Y-67372660D01*
X194258163Y-69516588D01*
X194338795Y-69817512D01*
X194486185Y-69993165D01*
X194679814Y-70104956D01*
X194888976Y-70141837D01*
X195333965Y-70141837D01*
X195267451Y-70400897D01*
X195264576Y-70675352D01*
X195327252Y-70942570D01*
X195451858Y-71187124D01*
X195631203Y-71394897D01*
X195854931Y-71553893D01*
X196110126Y-71654932D01*
X196382058Y-71692182D01*
X196655024Y-71663491D01*
X196913267Y-71570518D01*
X197141879Y-71418628D01*
X197327661Y-71216592D01*
X197459888Y-70976072D01*
X197531099Y-70710308D01*
X197534209Y-70413416D01*
X197468579Y-70146218D01*
X197466289Y-70141837D01*
X197916588Y-70141837D01*
X198217512Y-70061205D01*
X198393165Y-69913815D01*
X198504956Y-69720186D01*
X198541837Y-69511024D01*
X198541837Y-66483412D01*
X198461205Y-66182489D01*
X198313815Y-66006835D01*
X198120186Y-65895044D01*
X197911024Y-65858163D01*
X195772661Y-65858163D01*
X196581875Y-65048949D01*
X196623609Y-65047492D01*
X196917522Y-64995667D01*
X197201363Y-64903441D01*
X197469606Y-64772611D01*
X197717030Y-64605721D01*
X197938819Y-64406021D01*
X198130658Y-64177397D01*
X198288811Y-63924299D01*
X198410200Y-63651653D01*
X198492464Y-63364767D01*
X198534000Y-63069224D01*
X198534000Y-62770776D01*
X198492464Y-62475233D01*
X198410200Y-62188347D01*
X198288811Y-61915701D01*
X198130658Y-61662603D01*
X197938819Y-61433979D01*
X197717030Y-61234279D01*
X197469606Y-61067389D01*
X197201363Y-60936559D01*
X196917522Y-60844333D01*
X196623609Y-60792508D01*
X196325343Y-60782092D01*
X196028530Y-60813289D01*
X195738948Y-60885489D01*
X195462231Y-60997290D01*
X195203769Y-61146514D01*
X194968589Y-61330257D01*
X194761270Y-61544942D01*
X194585846Y-61786391D01*
X194445734Y-62049905D01*
X194343658Y-62330354D01*
X194281607Y-62622280D01*
X194273692Y-62735485D01*
X191670000Y-65339176D01*
X185891982Y-59561159D01*
X185793193Y-59456692D01*
X185706309Y-59395855D01*
X185624122Y-59328825D01*
X185570680Y-59300886D01*
X185521271Y-59266291D01*
X185423928Y-59224166D01*
X185329941Y-59175031D01*
X185271974Y-59158411D01*
X185213552Y-59133128D01*
X185148898Y-59123119D01*
X185010847Y-59083533D01*
X184679872Y-59058065D01*
X184617074Y-59065999D01*
X165852677Y-59065999D01*
X166017615Y-58901348D01*
X166215267Y-58644229D01*
X166377667Y-58363510D01*
X166502036Y-58063996D01*
X166525871Y-57975352D01*
X192964576Y-57975352D01*
X193027252Y-58242570D01*
X193151858Y-58487124D01*
X193331203Y-58694897D01*
X193554931Y-58853893D01*
X193810126Y-58954932D01*
X194082058Y-58992182D01*
X194355024Y-58963491D01*
X194544245Y-58895368D01*
X194585846Y-58973609D01*
X194761270Y-59215058D01*
X194968589Y-59429743D01*
X195203769Y-59613486D01*
X195462231Y-59762710D01*
X195738948Y-59874511D01*
X196028530Y-59946711D01*
X196325343Y-59977908D01*
X196623609Y-59967492D01*
X196917522Y-59915667D01*
X197201363Y-59823441D01*
X197469606Y-59692611D01*
X197717030Y-59525721D01*
X197938819Y-59326021D01*
X198130658Y-59097397D01*
X198288811Y-58844299D01*
X198410200Y-58571653D01*
X198492464Y-58284767D01*
X198534000Y-57989224D01*
X198534000Y-57690776D01*
X198492464Y-57395233D01*
X198410200Y-57108347D01*
X198288811Y-56835701D01*
X198130658Y-56582603D01*
X197938819Y-56353979D01*
X197717030Y-56154279D01*
X197469606Y-55987389D01*
X197201363Y-55856559D01*
X196917522Y-55764333D01*
X196623609Y-55712508D01*
X196325343Y-55702092D01*
X196028530Y-55733289D01*
X195738948Y-55805489D01*
X195462231Y-55917290D01*
X195203769Y-56066514D01*
X194968589Y-56250257D01*
X194761270Y-56464942D01*
X194585846Y-56706391D01*
X194534898Y-56802212D01*
X194378286Y-56742094D01*
X194105981Y-56707694D01*
X193833330Y-56739241D01*
X193576075Y-56834912D01*
X193349065Y-56989187D01*
X193165409Y-57193159D01*
X193035708Y-57435051D01*
X192967451Y-57700897D01*
X192964576Y-57975352D01*
X166525871Y-57975352D01*
X166586247Y-57750811D01*
X166628858Y-57429313D01*
X166629140Y-57105004D01*
X166587091Y-56783433D01*
X166503427Y-56470101D01*
X166379580Y-56170371D01*
X166217671Y-55889370D01*
X166020469Y-55631906D01*
X165791348Y-55402385D01*
X165534229Y-55204733D01*
X165253510Y-55042333D01*
X164953996Y-54917964D01*
X164640811Y-54833753D01*
X164319313Y-54791142D01*
X163995004Y-54790860D01*
X163673433Y-54832909D01*
X163360101Y-54916573D01*
X163060371Y-55040420D01*
X162779370Y-55202329D01*
X162521906Y-55399531D01*
X162292385Y-55628652D01*
X162094733Y-55885771D01*
X161932333Y-56166490D01*
X161807964Y-56466004D01*
X161723753Y-56779189D01*
X161681142Y-57100687D01*
X161680860Y-57424996D01*
X161722909Y-57746567D01*
X161806573Y-58059899D01*
X161930420Y-58359629D01*
X162092329Y-58640630D01*
X162289531Y-58898094D01*
X162457143Y-59065999D01*
X144775503Y-59065999D01*
X137904000Y-52194497D01*
X137904000Y-52122589D01*
X138000658Y-52007397D01*
X138158811Y-51754299D01*
X138280200Y-51481653D01*
X138362464Y-51194767D01*
X138404000Y-50899224D01*
X138404000Y-50600776D01*
X138362464Y-50305233D01*
X138280200Y-50018347D01*
X138158811Y-49745701D01*
X138000658Y-49492603D01*
X137808819Y-49263979D01*
X137781051Y-49238976D01*
X139208163Y-49238976D01*
X139208163Y-52266588D01*
X139288795Y-52567512D01*
X139436185Y-52743165D01*
X139629814Y-52854956D01*
X139838976Y-52891837D01*
X140321128Y-52891837D01*
X140267451Y-53100897D01*
X140264576Y-53375352D01*
X140327252Y-53642570D01*
X140451858Y-53887124D01*
X140631203Y-54094897D01*
X140854931Y-54253893D01*
X141110126Y-54354932D01*
X141382058Y-54392182D01*
X141655024Y-54363491D01*
X141913267Y-54270518D01*
X142141879Y-54118628D01*
X142327661Y-53916592D01*
X142459888Y-53676072D01*
X142531099Y-53410308D01*
X142534209Y-53113416D01*
X142479784Y-52891837D01*
X142866588Y-52891837D01*
X143167512Y-52811205D01*
X143343165Y-52663815D01*
X143454956Y-52470186D01*
X143491837Y-52261024D01*
X143491837Y-49233412D01*
X143411205Y-48932489D01*
X143263815Y-48756835D01*
X143070186Y-48645044D01*
X142861024Y-48608163D01*
X139833412Y-48608163D01*
X139532489Y-48688795D01*
X139356835Y-48836185D01*
X139245044Y-49029814D01*
X139208163Y-49238976D01*
X137781051Y-49238976D01*
X137587030Y-49064279D01*
X137339606Y-48897389D01*
X137071363Y-48766559D01*
X136787522Y-48674333D01*
X136493609Y-48622508D01*
X136195343Y-48612092D01*
X135898530Y-48643289D01*
X135608948Y-48715489D01*
X135332231Y-48827290D01*
X135073769Y-48976514D01*
X134838589Y-49160257D01*
X134631270Y-49374942D01*
X134455846Y-49616391D01*
X134315734Y-49879905D01*
X134213658Y-50160354D01*
X134151608Y-50452279D01*
X134130789Y-50750000D01*
X134151608Y-51047721D01*
X134213658Y-51339646D01*
X134315734Y-51620095D01*
X134455846Y-51883609D01*
X134631270Y-52125058D01*
X134636001Y-52129957D01*
X134636001Y-52847893D01*
X134631987Y-52991608D01*
X134650405Y-53096063D01*
X134661122Y-53201575D01*
X134679157Y-53259124D01*
X134689631Y-53318519D01*
X134728674Y-53417132D01*
X134760391Y-53518341D01*
X134789630Y-53571089D01*
X134813061Y-53630271D01*
X134851699Y-53683063D01*
X134921326Y-53808674D01*
X135137353Y-54060717D01*
X135187374Y-54099517D01*
X142926713Y-61838857D01*
X143025485Y-61943306D01*
X143112362Y-62004138D01*
X143194555Y-62071173D01*
X143248001Y-62099114D01*
X143297406Y-62133707D01*
X143394744Y-62175830D01*
X143488736Y-62224967D01*
X143546700Y-62241587D01*
X143605126Y-62266870D01*
X143669779Y-62276880D01*
X143807831Y-62316465D01*
X144138806Y-62341933D01*
X144201604Y-62333999D01*
X146066580Y-62333999D01*
X146064576Y-62525352D01*
X146127252Y-62792570D01*
X146251858Y-63037124D01*
X146431203Y-63244897D01*
X146654931Y-63403893D01*
X146910126Y-63504932D01*
X147182058Y-63542182D01*
X147455024Y-63513491D01*
X147713267Y-63420518D01*
X147881114Y-63309000D01*
X180271405Y-63309000D01*
X180404931Y-63403893D01*
X180660126Y-63504932D01*
X180932058Y-63542182D01*
X181205024Y-63513491D01*
X181463267Y-63420518D01*
X181691879Y-63268628D01*
X181877661Y-63066592D01*
X182009888Y-62826072D01*
X182081099Y-62560308D01*
X182083470Y-62333999D01*
X184043176Y-62333999D01*
X190036001Y-68326825D01*
X190036000Y-116870044D01*
X190031270Y-116874942D01*
X189855846Y-117116391D01*
X189715734Y-117379905D01*
X189613658Y-117660354D01*
X189551607Y-117952280D01*
X189543692Y-118065485D01*
X188731837Y-118877339D01*
X188731837Y-116733412D01*
X188651205Y-116432489D01*
X188503815Y-116256835D01*
X188310186Y-116145044D01*
X188101024Y-116108163D01*
X187499000Y-116108163D01*
X187499000Y-113810183D01*
X187503465Y-113703652D01*
X187484820Y-113624155D01*
X187473738Y-113543256D01*
X187456506Y-113503435D01*
X187445515Y-113456578D01*
X187417683Y-113413720D01*
X187374829Y-113314691D01*
X187218097Y-113121144D01*
X187178580Y-113093061D01*
X177344518Y-103259000D01*
X186901046Y-103259000D01*
X187104931Y-103403893D01*
X187360126Y-103504932D01*
X187632058Y-103542182D01*
X187905024Y-103513491D01*
X188163267Y-103420518D01*
X188391879Y-103268628D01*
X188577661Y-103066592D01*
X188709888Y-102826072D01*
X188781099Y-102560308D01*
X188784209Y-102263416D01*
X188718579Y-101996218D01*
X188591417Y-101752981D01*
X188409907Y-101547098D01*
X188184526Y-101390455D01*
X187928286Y-101292094D01*
X187655981Y-101257694D01*
X187383330Y-101289241D01*
X187126075Y-101384912D01*
X187043544Y-101441000D01*
X146407951Y-101441000D01*
X146516879Y-101368628D01*
X146702661Y-101166592D01*
X146834888Y-100926072D01*
X146906099Y-100660308D01*
X146909209Y-100363416D01*
X146843579Y-100096218D01*
X146716417Y-99852981D01*
X146534907Y-99647098D01*
X146309526Y-99490455D01*
X146053287Y-99392094D01*
X145938055Y-99377537D01*
X145882061Y-99321543D01*
X145809861Y-99243025D01*
X145740452Y-99199989D01*
X145675422Y-99150629D01*
X145635084Y-99134657D01*
X145594174Y-99109294D01*
X145544187Y-99098669D01*
X145443864Y-99058948D01*
X145196180Y-99032916D01*
X145148383Y-99041000D01*
X138376519Y-99041000D01*
X136294518Y-96959000D01*
X140372720Y-96959000D01*
X140479242Y-96963465D01*
X140558740Y-96944819D01*
X140639637Y-96933738D01*
X140679468Y-96916503D01*
X140726316Y-96905514D01*
X140769170Y-96877684D01*
X140868203Y-96834829D01*
X141061750Y-96678097D01*
X141089835Y-96638578D01*
X141253061Y-96475352D01*
X149464576Y-96475352D01*
X149527252Y-96742570D01*
X149651858Y-96987124D01*
X149831203Y-97194897D01*
X150054931Y-97353893D01*
X150310126Y-97454932D01*
X150582058Y-97492182D01*
X150855024Y-97463491D01*
X151113267Y-97370518D01*
X151281114Y-97259000D01*
X155021405Y-97259000D01*
X155154931Y-97353893D01*
X155410126Y-97454932D01*
X155682058Y-97492182D01*
X155955024Y-97463491D01*
X156213267Y-97370518D01*
X156441879Y-97218628D01*
X156627661Y-97016592D01*
X156759888Y-96776072D01*
X156831099Y-96510308D01*
X156834209Y-96213416D01*
X156768579Y-95946218D01*
X156641417Y-95702981D01*
X156459907Y-95497098D01*
X156234526Y-95340455D01*
X155978286Y-95242094D01*
X155705981Y-95207694D01*
X155433330Y-95239241D01*
X155176075Y-95334912D01*
X155019972Y-95441000D01*
X151279192Y-95441000D01*
X151134526Y-95340455D01*
X150878286Y-95242094D01*
X150605981Y-95207694D01*
X150333330Y-95239241D01*
X150076075Y-95334912D01*
X149849065Y-95489187D01*
X149665409Y-95693159D01*
X149535708Y-95935051D01*
X149467451Y-96200897D01*
X149464576Y-96475352D01*
X141253061Y-96475352D01*
X141590602Y-96137812D01*
X141760126Y-96204932D01*
X142032058Y-96242182D01*
X142305024Y-96213491D01*
X142563267Y-96120518D01*
X142791879Y-95968628D01*
X142977661Y-95766592D01*
X143109888Y-95526072D01*
X143181099Y-95260308D01*
X143184209Y-94963416D01*
X143118579Y-94696218D01*
X142991417Y-94452981D01*
X142855782Y-94299134D01*
X142977661Y-94166592D01*
X143109888Y-93926072D01*
X143181099Y-93660308D01*
X143184209Y-93363416D01*
X143118579Y-93096218D01*
X142991417Y-92852981D01*
X142959000Y-92816211D01*
X142959000Y-88386885D01*
X142977661Y-88366592D01*
X143109888Y-88126072D01*
X143181099Y-87860308D01*
X143184209Y-87563416D01*
X143118579Y-87296218D01*
X142991417Y-87052981D01*
X142809907Y-86847098D01*
X142584526Y-86690455D01*
X142328286Y-86592094D01*
X142055981Y-86557694D01*
X141783330Y-86589241D01*
X141526075Y-86684912D01*
X141299065Y-86839187D01*
X141202956Y-86945928D01*
X141159907Y-86897098D01*
X140934526Y-86740455D01*
X140678286Y-86642094D01*
X140405981Y-86607694D01*
X140133330Y-86639241D01*
X139876075Y-86734912D01*
X139649065Y-86889187D01*
X139465409Y-87093159D01*
X139335708Y-87335051D01*
X139267451Y-87600897D01*
X139264576Y-87875352D01*
X139327252Y-88142570D01*
X139451858Y-88387124D01*
X139491001Y-88432472D01*
X139491000Y-90423481D01*
X138337267Y-91577214D01*
X138233330Y-91589241D01*
X137976075Y-91684912D01*
X137749065Y-91839187D01*
X137565409Y-92043159D01*
X137435708Y-92285051D01*
X137367451Y-92550897D01*
X137364576Y-92825352D01*
X137427252Y-93092570D01*
X137551858Y-93337124D01*
X137598363Y-93391000D01*
X134876519Y-93391000D01*
X133129415Y-91643896D01*
X133068579Y-91396218D01*
X132941417Y-91152981D01*
X132759907Y-90947098D01*
X132534526Y-90790455D01*
X132278286Y-90692094D01*
X132005981Y-90657694D01*
X131733330Y-90689241D01*
X131476075Y-90784912D01*
X131249065Y-90939187D01*
X131065409Y-91143159D01*
X131000950Y-91263374D01*
X130955981Y-91257694D01*
X130683330Y-91289241D01*
X130426075Y-91384912D01*
X130199065Y-91539187D01*
X130015409Y-91743159D01*
X129885708Y-91985051D01*
X129817451Y-92250897D01*
X129814576Y-92525352D01*
X129877252Y-92792570D01*
X130001858Y-93037124D01*
X130181203Y-93244897D01*
X130404931Y-93403893D01*
X130660126Y-93504932D01*
X130786760Y-93522278D01*
X133300650Y-96036170D01*
X133149065Y-96139187D01*
X132965409Y-96343159D01*
X132835708Y-96585051D01*
X132767451Y-96850897D01*
X132764576Y-97125352D01*
X132827252Y-97392570D01*
X132835834Y-97409413D01*
X132715409Y-97543159D01*
X132585708Y-97785051D01*
X132517451Y-98050897D01*
X132514576Y-98325352D01*
X132577252Y-98592570D01*
X132701858Y-98837124D01*
X132881203Y-99044897D01*
X133104931Y-99203893D01*
X133360126Y-99304932D01*
X133632058Y-99342182D01*
X133905024Y-99313491D01*
X134081296Y-99250029D01*
X134035708Y-99335051D01*
X133967451Y-99600897D01*
X133964576Y-99875352D01*
X134027252Y-100142570D01*
X134151858Y-100387124D01*
X134331203Y-100594897D01*
X134363941Y-100618163D01*
X132883412Y-100618163D01*
X132582489Y-100698795D01*
X132406835Y-100846185D01*
X132295044Y-101039814D01*
X132286796Y-101086588D01*
X132248331Y-101042261D01*
X132053584Y-100882578D01*
X131834716Y-100757991D01*
X131595169Y-100671040D01*
X131255352Y-100626000D01*
X131146810Y-100626000D01*
X130959058Y-100641931D01*
X130715292Y-100705200D01*
X130485671Y-100808637D01*
X130276760Y-100949284D01*
X130094534Y-101123119D01*
X129944203Y-101325172D01*
X129937564Y-101338230D01*
X129904000Y-101282918D01*
X129904000Y-99503095D01*
X130013866Y-99269617D01*
X130082943Y-98965574D01*
X130084064Y-98644433D01*
X130017111Y-98339916D01*
X129886423Y-98057081D01*
X129698050Y-97808909D01*
X129460779Y-97606975D01*
X129185681Y-97460702D01*
X128885590Y-97376916D01*
X128574508Y-97359523D01*
X128266948Y-97409337D01*
X127977260Y-97524033D01*
X127718958Y-97698259D01*
X127504094Y-97923888D01*
X127342693Y-98190393D01*
X127242286Y-98485338D01*
X127207555Y-98794964D01*
X127240123Y-99104827D01*
X127338469Y-99400466D01*
X127436001Y-99564076D01*
X127436000Y-101282435D01*
X127404203Y-101325172D01*
X127290064Y-101549666D01*
X127215382Y-101790181D01*
X127182292Y-102039841D01*
X126138160Y-102039841D01*
X126259150Y-101895651D01*
X126384609Y-101678349D01*
X126470429Y-101442564D01*
X126514000Y-101195459D01*
X126514000Y-100944541D01*
X126470429Y-100697436D01*
X126384609Y-100461651D01*
X126259150Y-100244349D01*
X126097864Y-100052136D01*
X125905651Y-99890850D01*
X125748294Y-99800000D01*
X125905651Y-99709150D01*
X126097864Y-99547864D01*
X126259150Y-99355651D01*
X126384609Y-99138349D01*
X126470429Y-98902564D01*
X126514000Y-98655459D01*
X126514000Y-98404541D01*
X126470429Y-98157436D01*
X126384609Y-97921651D01*
X126259150Y-97704349D01*
X126097864Y-97512136D01*
X125905651Y-97350850D01*
X125748294Y-97260000D01*
X125905651Y-97169150D01*
X126097864Y-97007864D01*
X126259150Y-96815651D01*
X126384609Y-96598349D01*
X126470429Y-96362564D01*
X126514000Y-96115459D01*
X126514000Y-95864541D01*
X126470429Y-95617436D01*
X126384609Y-95381651D01*
X126259150Y-95164349D01*
X126097864Y-94972136D01*
X125905651Y-94810850D01*
X125748294Y-94720000D01*
X125905651Y-94629150D01*
X126097864Y-94467864D01*
X126259150Y-94275651D01*
X126384609Y-94058349D01*
X126470429Y-93822564D01*
X126514000Y-93575459D01*
X126514000Y-93324541D01*
X126470429Y-93077436D01*
X126384609Y-92841651D01*
X126259150Y-92624349D01*
X126097864Y-92432136D01*
X125905651Y-92270850D01*
X125748294Y-92180000D01*
X125905651Y-92089150D01*
X126097864Y-91927864D01*
X126259150Y-91735651D01*
X126384609Y-91518349D01*
X126470429Y-91282564D01*
X126514000Y-91035459D01*
X126514000Y-90784541D01*
X126470429Y-90537436D01*
X126384609Y-90301651D01*
X126259150Y-90084349D01*
X126097864Y-89892136D01*
X125905651Y-89730850D01*
X125748294Y-89640000D01*
X125905651Y-89549150D01*
X126097864Y-89387864D01*
X126259150Y-89195651D01*
X126384609Y-88978349D01*
X126470429Y-88742564D01*
X126514000Y-88495459D01*
X126514000Y-88244541D01*
X126470429Y-87997436D01*
X126384609Y-87761651D01*
X126259150Y-87544349D01*
X126097864Y-87352136D01*
X125905651Y-87190850D01*
X125748294Y-87100000D01*
X125905651Y-87009150D01*
X126097864Y-86847864D01*
X126259150Y-86655651D01*
X126384609Y-86438349D01*
X126470429Y-86202564D01*
X126514000Y-85955459D01*
X126514000Y-85704541D01*
X126470429Y-85457436D01*
X126384609Y-85221651D01*
X126259150Y-85004349D01*
X126097864Y-84812136D01*
X125905651Y-84650850D01*
X125748294Y-84560000D01*
X125905651Y-84469150D01*
X126097864Y-84307864D01*
X126259150Y-84115651D01*
X126384609Y-83898349D01*
X126470429Y-83662564D01*
X126514000Y-83415459D01*
X126514000Y-83164541D01*
X126470429Y-82917436D01*
X126384609Y-82681651D01*
X126259150Y-82464349D01*
X126097864Y-82272136D01*
X125905651Y-82110850D01*
X125748294Y-82020000D01*
X125905651Y-81929150D01*
X126097864Y-81767864D01*
X126259150Y-81575651D01*
X126384609Y-81358349D01*
X126470429Y-81122564D01*
X126514000Y-80875459D01*
X126514000Y-80625352D01*
X132814576Y-80625352D01*
X132877252Y-80892570D01*
X133001858Y-81137124D01*
X133181203Y-81344897D01*
X133404931Y-81503893D01*
X133660126Y-81604932D01*
X133932058Y-81642182D01*
X134205024Y-81613491D01*
X134463267Y-81520518D01*
X134631114Y-81409000D01*
X148953883Y-81409000D01*
X148917451Y-81550897D01*
X148914576Y-81825352D01*
X148977252Y-82092570D01*
X149101858Y-82337124D01*
X149281203Y-82544897D01*
X149504931Y-82703893D01*
X149760127Y-82804932D01*
X149770888Y-82806406D01*
X151910189Y-84945708D01*
X151699065Y-85089187D01*
X151515409Y-85293159D01*
X151385708Y-85535051D01*
X151317451Y-85800897D01*
X151314576Y-86075352D01*
X151377252Y-86342570D01*
X151501858Y-86587124D01*
X151681203Y-86794897D01*
X151904931Y-86953893D01*
X152066860Y-87018005D01*
X151883330Y-87039241D01*
X151626075Y-87134912D01*
X151399065Y-87289187D01*
X151215409Y-87493159D01*
X151085708Y-87735051D01*
X151018787Y-87995693D01*
X150623481Y-88391000D01*
X149879192Y-88391000D01*
X149734526Y-88290455D01*
X149478286Y-88192094D01*
X149205981Y-88157694D01*
X148933330Y-88189241D01*
X148676075Y-88284912D01*
X148449065Y-88439187D01*
X148265409Y-88643159D01*
X148135708Y-88885051D01*
X148067451Y-89150897D01*
X148064576Y-89425352D01*
X148127252Y-89692570D01*
X148251858Y-89937124D01*
X148431203Y-90144897D01*
X148654931Y-90303893D01*
X148910126Y-90404932D01*
X149182058Y-90442182D01*
X149455024Y-90413491D01*
X149713267Y-90320518D01*
X149881114Y-90209000D01*
X150979826Y-90209000D01*
X151086348Y-90213465D01*
X151165846Y-90194819D01*
X151179359Y-90192968D01*
X151201858Y-90237124D01*
X151381203Y-90444897D01*
X151604931Y-90603893D01*
X151860126Y-90704932D01*
X152132058Y-90742182D01*
X152405024Y-90713491D01*
X152663267Y-90620518D01*
X152891879Y-90468628D01*
X153077661Y-90266592D01*
X153209888Y-90026072D01*
X153281099Y-89760308D01*
X153281161Y-89754358D01*
X153562089Y-89473431D01*
X153562095Y-89473423D01*
X153753450Y-89282068D01*
X153831976Y-89209860D01*
X153875010Y-89140454D01*
X153924372Y-89075422D01*
X153940345Y-89035079D01*
X153965707Y-88994174D01*
X153976332Y-88944187D01*
X154016053Y-88843864D01*
X154042085Y-88596179D01*
X154034001Y-88548382D01*
X154034001Y-87069522D01*
X154272159Y-87307679D01*
X154327252Y-87542570D01*
X154451858Y-87787124D01*
X154631203Y-87994897D01*
X154854931Y-88153893D01*
X155110126Y-88254932D01*
X155382058Y-88292182D01*
X155655024Y-88263491D01*
X155913267Y-88170518D01*
X156141879Y-88018628D01*
X156327661Y-87816592D01*
X156459888Y-87576072D01*
X156531099Y-87310308D01*
X156534209Y-87013416D01*
X156468579Y-86746218D01*
X156341417Y-86502981D01*
X156159907Y-86297098D01*
X155934526Y-86140455D01*
X155678287Y-86042094D01*
X155563056Y-86027537D01*
X152709127Y-83173609D01*
X152731115Y-83159000D01*
X154641761Y-83159000D01*
X154704931Y-83203893D01*
X154960126Y-83304932D01*
X155232058Y-83342182D01*
X155505024Y-83313491D01*
X155763267Y-83220518D01*
X155991879Y-83068628D01*
X156177661Y-82866592D01*
X156309888Y-82626072D01*
X156381099Y-82360308D01*
X156384209Y-82063416D01*
X156318579Y-81796218D01*
X156191417Y-81552981D01*
X156009907Y-81347098D01*
X155784526Y-81190455D01*
X155528286Y-81092094D01*
X155255981Y-81057694D01*
X154983330Y-81089241D01*
X154726075Y-81184912D01*
X154499066Y-81339187D01*
X154497434Y-81341000D01*
X152729192Y-81341000D01*
X152719473Y-81334245D01*
X152827661Y-81216592D01*
X152959888Y-80976072D01*
X153031099Y-80710308D01*
X153034209Y-80413416D01*
X152968579Y-80146218D01*
X152841417Y-79902981D01*
X152659907Y-79697098D01*
X152434526Y-79540455D01*
X152178286Y-79442094D01*
X151905981Y-79407694D01*
X151633330Y-79439241D01*
X151376075Y-79534912D01*
X151293544Y-79591000D01*
X134629192Y-79591000D01*
X134484526Y-79490455D01*
X134228286Y-79392094D01*
X133955981Y-79357694D01*
X133683330Y-79389241D01*
X133426075Y-79484912D01*
X133199065Y-79639187D01*
X133015409Y-79843159D01*
X132885708Y-80085051D01*
X132817451Y-80350897D01*
X132814576Y-80625352D01*
X126514000Y-80625352D01*
X126514000Y-80624541D01*
X126470429Y-80377436D01*
X126384609Y-80141651D01*
X126259150Y-79924349D01*
X126097864Y-79732136D01*
X125905651Y-79570850D01*
X125748294Y-79480000D01*
X125905651Y-79389150D01*
X126097864Y-79227864D01*
X126259150Y-79035651D01*
X126384609Y-78818349D01*
X126470429Y-78582564D01*
X126514000Y-78335459D01*
X126514000Y-78084541D01*
X126470429Y-77837436D01*
X126384609Y-77601651D01*
X126259150Y-77384349D01*
X126097864Y-77192136D01*
X125905651Y-77030850D01*
X125748294Y-76940000D01*
X125905651Y-76849150D01*
X126097864Y-76687864D01*
X126259150Y-76495651D01*
X126384609Y-76278349D01*
X126470429Y-76042564D01*
X126499912Y-75875352D01*
X139264576Y-75875352D01*
X139327252Y-76142570D01*
X139451858Y-76387124D01*
X139631203Y-76594897D01*
X139854931Y-76753893D01*
X140110126Y-76854932D01*
X140382058Y-76892182D01*
X140655024Y-76863491D01*
X140913267Y-76770518D01*
X141081114Y-76659000D01*
X144329826Y-76659000D01*
X144436348Y-76663465D01*
X144515846Y-76644819D01*
X144596743Y-76633738D01*
X144636574Y-76616503D01*
X144683422Y-76605514D01*
X144726276Y-76577684D01*
X144825309Y-76534829D01*
X145018856Y-76378097D01*
X145046944Y-76338574D01*
X147262280Y-74123239D01*
X147355024Y-74113491D01*
X147613267Y-74020518D01*
X147841879Y-73868628D01*
X148027661Y-73666592D01*
X148159888Y-73426072D01*
X148231099Y-73160308D01*
X148234209Y-72863416D01*
X148231433Y-72852116D01*
X148301001Y-72862079D01*
X148301000Y-73869527D01*
X148042489Y-73938795D01*
X147866835Y-74086185D01*
X147755044Y-74279814D01*
X147718163Y-74488976D01*
X147718163Y-76216588D01*
X147798795Y-76517512D01*
X147946185Y-76693165D01*
X148139814Y-76804956D01*
X148348976Y-76841837D01*
X148632615Y-76841837D01*
X148617451Y-76900897D01*
X148614576Y-77175352D01*
X148677252Y-77442570D01*
X148801858Y-77687124D01*
X148981203Y-77894897D01*
X149204931Y-78053893D01*
X149460126Y-78154932D01*
X149732058Y-78192182D01*
X150005024Y-78163491D01*
X150263267Y-78070518D01*
X150491879Y-77918628D01*
X150677661Y-77716592D01*
X150691649Y-77691148D01*
X150781203Y-77794897D01*
X151004931Y-77953893D01*
X151260126Y-78054932D01*
X151532058Y-78092182D01*
X151805024Y-78063491D01*
X152063267Y-77970518D01*
X152291879Y-77818628D01*
X152477661Y-77616592D01*
X152609888Y-77376072D01*
X152681099Y-77110308D01*
X152684209Y-76813416D01*
X152620272Y-76553109D01*
X152683240Y-76510716D01*
X152865466Y-76336881D01*
X153015797Y-76134828D01*
X153022436Y-76121770D01*
X153086610Y-76227526D01*
X153251669Y-76417739D01*
X153446416Y-76577422D01*
X153665284Y-76702009D01*
X153904831Y-76788960D01*
X154162000Y-76823047D01*
X154162000Y-75222000D01*
X154418000Y-75222000D01*
X154418000Y-76849978D01*
X154784708Y-76754800D01*
X155014329Y-76651363D01*
X155223240Y-76510716D01*
X155405466Y-76336881D01*
X155541001Y-76154715D01*
X155541000Y-78464738D01*
X155515409Y-78493159D01*
X155385708Y-78735051D01*
X155317451Y-79000897D01*
X155314576Y-79275352D01*
X155377252Y-79542570D01*
X155501858Y-79787124D01*
X155681203Y-79994897D01*
X155904931Y-80153893D01*
X156160126Y-80254932D01*
X156432058Y-80292182D01*
X156705024Y-80263491D01*
X156963267Y-80170518D01*
X157191879Y-80018628D01*
X157377661Y-79816592D01*
X157509888Y-79576072D01*
X157581099Y-79310308D01*
X157584209Y-79013416D01*
X157518579Y-78746218D01*
X157391417Y-78502981D01*
X157359000Y-78466211D01*
X157359000Y-76739353D01*
X157554329Y-76651363D01*
X157763240Y-76510716D01*
X157945466Y-76336881D01*
X158095797Y-76134828D01*
X158102436Y-76121770D01*
X158166610Y-76227526D01*
X158331669Y-76417740D01*
X158441001Y-76507386D01*
X158441000Y-78164738D01*
X158415409Y-78193159D01*
X158285708Y-78435051D01*
X158217451Y-78700897D01*
X158214576Y-78975352D01*
X158277252Y-79242570D01*
X158401858Y-79487124D01*
X158581203Y-79694897D01*
X158804931Y-79853893D01*
X159060126Y-79954932D01*
X159332058Y-79992182D01*
X159605024Y-79963491D01*
X159863267Y-79870518D01*
X160091879Y-79718628D01*
X160277661Y-79516592D01*
X160409888Y-79276072D01*
X160481099Y-79010308D01*
X160484209Y-78713416D01*
X160418579Y-78446218D01*
X160291417Y-78202981D01*
X160259000Y-78166211D01*
X160259000Y-76540500D01*
X160303240Y-76510717D01*
X160485466Y-76336881D01*
X160635797Y-76134828D01*
X160749936Y-75910334D01*
X160824618Y-75669819D01*
X160857708Y-75420159D01*
X160848260Y-75168492D01*
X160796544Y-74922017D01*
X160704039Y-74687778D01*
X160573390Y-74472474D01*
X160408331Y-74282261D01*
X160213584Y-74122578D01*
X159994716Y-73997991D01*
X159755169Y-73911040D01*
X159739778Y-73909000D01*
X186496405Y-73909000D01*
X186629931Y-74003893D01*
X186885126Y-74104932D01*
X187157058Y-74142182D01*
X187430024Y-74113491D01*
X187688267Y-74020518D01*
X187916879Y-73868628D01*
X188102661Y-73666592D01*
X188234888Y-73426072D01*
X188306099Y-73160308D01*
X188309209Y-72863416D01*
X188243579Y-72596218D01*
X188116417Y-72352981D01*
X187934907Y-72147098D01*
X187709526Y-71990455D01*
X187453286Y-71892094D01*
X187180981Y-71857694D01*
X186908330Y-71889241D01*
X186651075Y-71984912D01*
X186494972Y-72091000D01*
X154374974Y-72091000D01*
X154405393Y-72038840D01*
X154493796Y-71803022D01*
X154541318Y-71555082D01*
X154544240Y-71275974D01*
X154501922Y-71027094D01*
X154418477Y-70789476D01*
X154296187Y-70569314D01*
X154196235Y-70444784D01*
X153060000Y-71581020D01*
X151919118Y-70440137D01*
X151766293Y-70662083D01*
X151660457Y-70890609D01*
X151594639Y-71133699D01*
X151570720Y-71384404D01*
X151589384Y-71635554D01*
X151650097Y-71879970D01*
X151691198Y-71973823D01*
X151478286Y-71892094D01*
X151205981Y-71857694D01*
X150933330Y-71889241D01*
X150676075Y-71984912D01*
X150449065Y-72139187D01*
X150265409Y-72343159D01*
X150135708Y-72585051D01*
X150119000Y-72650125D01*
X150119000Y-72070174D01*
X150123465Y-71963652D01*
X150104820Y-71884155D01*
X150093738Y-71803256D01*
X150076506Y-71763435D01*
X150065515Y-71716578D01*
X150037682Y-71673718D01*
X150024444Y-71643126D01*
X150041318Y-71555082D01*
X150044240Y-71275974D01*
X150001922Y-71027094D01*
X149918477Y-70789476D01*
X149796188Y-70569315D01*
X149638554Y-70372907D01*
X149512788Y-70261443D01*
X152102462Y-70261443D01*
X153060000Y-71218981D01*
X154025969Y-70253012D01*
X153736157Y-70072969D01*
X153502899Y-69978016D01*
X153256977Y-69923721D01*
X153005424Y-69911638D01*
X152755431Y-69942113D01*
X152514147Y-70014272D01*
X152288470Y-70126053D01*
X152102462Y-70261443D01*
X149512788Y-70261443D01*
X149469000Y-70222635D01*
X149469000Y-66075026D01*
X149513487Y-66037231D01*
X152103788Y-66037231D01*
X152261960Y-66157509D01*
X152485246Y-66273992D01*
X152724966Y-66351190D01*
X152974266Y-66386892D01*
X153226017Y-66380080D01*
X153473022Y-66330948D01*
X153708216Y-66240901D01*
X154029497Y-66050516D01*
X153060000Y-65081019D01*
X152103788Y-66037231D01*
X149513487Y-66037231D01*
X149616807Y-65949455D01*
X149778521Y-65756391D01*
X149905393Y-65538840D01*
X149993796Y-65303022D01*
X150041318Y-65055082D01*
X150043104Y-64884404D01*
X151570720Y-64884404D01*
X151589384Y-65135554D01*
X151650097Y-65379970D01*
X151751123Y-65610662D01*
X151916712Y-65862269D01*
X152878981Y-64900000D01*
X153241019Y-64900000D01*
X154211807Y-65870788D01*
X154405393Y-65538840D01*
X154493796Y-65303022D01*
X154541318Y-65055082D01*
X154544240Y-64775974D01*
X154501922Y-64527094D01*
X154418477Y-64289476D01*
X154296187Y-64069314D01*
X154196235Y-63944784D01*
X153241019Y-64900000D01*
X152878981Y-64900000D01*
X151919118Y-63940137D01*
X151766293Y-64162083D01*
X151660457Y-64390609D01*
X151594639Y-64633699D01*
X151570720Y-64884404D01*
X150043104Y-64884404D01*
X150044240Y-64775974D01*
X150001922Y-64527094D01*
X149918477Y-64289476D01*
X149796188Y-64069315D01*
X149638554Y-63872907D01*
X149512789Y-63761443D01*
X152102462Y-63761443D01*
X153060000Y-64718981D01*
X154025969Y-63753012D01*
X153736157Y-63572969D01*
X153502899Y-63478016D01*
X153256977Y-63423721D01*
X153005424Y-63411638D01*
X152755431Y-63442113D01*
X152514147Y-63514272D01*
X152288470Y-63626053D01*
X152102462Y-63761443D01*
X149512789Y-63761443D01*
X149450080Y-63705866D01*
X149236156Y-63572969D01*
X149002899Y-63478016D01*
X148756977Y-63423721D01*
X148505424Y-63411638D01*
X148255431Y-63442113D01*
X148014147Y-63514272D01*
X147788470Y-63626053D01*
X147584854Y-63774261D01*
X147409120Y-63954656D01*
X147266293Y-64162083D01*
X147160457Y-64390609D01*
X147094639Y-64633699D01*
X147070720Y-64884404D01*
X147089384Y-65135554D01*
X147150097Y-65379970D01*
X147251123Y-65610662D01*
X147389575Y-65821033D01*
X147561493Y-66005071D01*
X147651000Y-66073134D01*
X147651001Y-70226114D01*
X147584854Y-70274261D01*
X147409120Y-70454656D01*
X147266293Y-70662083D01*
X147160457Y-70890609D01*
X147094639Y-71133699D01*
X147070720Y-71384404D01*
X147089384Y-71635554D01*
X147145813Y-71862725D01*
X147105982Y-71857693D01*
X146833330Y-71889241D01*
X146576075Y-71984912D01*
X146349065Y-72139187D01*
X146165409Y-72343159D01*
X146035708Y-72585051D01*
X145968787Y-72845693D01*
X143973482Y-74841000D01*
X141079192Y-74841000D01*
X140934526Y-74740455D01*
X140678286Y-74642094D01*
X140405981Y-74607694D01*
X140133330Y-74639241D01*
X139876075Y-74734912D01*
X139649065Y-74889187D01*
X139465409Y-75093159D01*
X139335708Y-75335051D01*
X139267451Y-75600897D01*
X139264576Y-75875352D01*
X126499912Y-75875352D01*
X126514000Y-75795459D01*
X126514000Y-75544541D01*
X126470429Y-75297436D01*
X126384609Y-75061651D01*
X126259150Y-74844349D01*
X126097864Y-74652136D01*
X125905651Y-74490850D01*
X125748294Y-74400000D01*
X125905651Y-74309150D01*
X126097864Y-74147864D01*
X126259150Y-73955651D01*
X126384609Y-73738349D01*
X126470429Y-73502564D01*
X126514000Y-73255459D01*
X126514000Y-73004541D01*
X126470429Y-72757436D01*
X126384609Y-72521651D01*
X126259150Y-72304349D01*
X126097864Y-72112136D01*
X125905651Y-71950850D01*
X125748294Y-71860000D01*
X125905651Y-71769150D01*
X126097864Y-71607864D01*
X126259150Y-71415651D01*
X126384609Y-71198349D01*
X126470429Y-70962564D01*
X126514000Y-70715459D01*
X126514000Y-70464541D01*
X126470429Y-70217436D01*
X126384609Y-69981651D01*
X126259150Y-69764349D01*
X126097864Y-69572136D01*
X125905651Y-69410850D01*
X125748294Y-69320000D01*
X125905651Y-69229150D01*
X126097864Y-69067864D01*
X126259150Y-68875651D01*
X126384609Y-68658349D01*
X126470429Y-68422564D01*
X126514000Y-68175459D01*
X126514000Y-67924541D01*
X126470429Y-67677436D01*
X126384609Y-67441651D01*
X126259150Y-67224349D01*
X126097864Y-67032136D01*
X125905651Y-66870850D01*
X125748294Y-66780000D01*
X125905651Y-66689150D01*
X126097864Y-66527864D01*
X126189211Y-66419000D01*
X127533482Y-66419000D01*
X127622158Y-66507676D01*
X127677252Y-66742570D01*
X127801858Y-66987124D01*
X127981203Y-67194897D01*
X128204931Y-67353893D01*
X128460126Y-67454932D01*
X128732058Y-67492182D01*
X129005024Y-67463491D01*
X129263267Y-67370518D01*
X129491879Y-67218628D01*
X129677661Y-67016592D01*
X129809888Y-66776072D01*
X129881099Y-66510308D01*
X129882447Y-66381630D01*
X130055024Y-66363491D01*
X130313267Y-66270518D01*
X130541879Y-66118628D01*
X130727661Y-65916592D01*
X130859888Y-65676072D01*
X130931099Y-65410308D01*
X130934209Y-65113416D01*
X130868579Y-64846218D01*
X130741417Y-64602981D01*
X130559907Y-64397098D01*
X130334526Y-64240455D01*
X130078287Y-64142094D01*
X129963056Y-64127537D01*
X128177061Y-62341543D01*
X128104861Y-62263025D01*
X128035452Y-62219989D01*
X127970422Y-62170629D01*
X127930084Y-62154657D01*
X127889174Y-62129294D01*
X127839187Y-62118669D01*
X127738864Y-62078948D01*
X127491180Y-62052916D01*
X127443383Y-62061000D01*
X126189211Y-62061000D01*
X126097864Y-61952136D01*
X125905651Y-61790850D01*
X125748294Y-61700000D01*
X125905651Y-61609150D01*
X126097864Y-61447864D01*
X126259150Y-61255651D01*
X126384609Y-61038349D01*
X126470429Y-60802564D01*
X126514000Y-60555459D01*
X126514000Y-60304541D01*
X126470429Y-60057436D01*
X126384609Y-59821651D01*
X126259150Y-59604349D01*
X126097864Y-59412136D01*
X125905651Y-59250850D01*
X125748294Y-59160000D01*
X125905651Y-59069150D01*
X126097864Y-58907864D01*
X126259150Y-58715651D01*
X126384609Y-58498349D01*
X126470429Y-58262564D01*
X126514000Y-58015459D01*
X126514000Y-57764541D01*
X126470429Y-57517436D01*
X126384609Y-57281651D01*
X126259150Y-57064349D01*
X126097864Y-56872136D01*
X125905651Y-56710850D01*
X125748294Y-56620000D01*
X125905651Y-56529150D01*
X126097864Y-56367864D01*
X126259150Y-56175651D01*
X126384609Y-55958349D01*
X126470429Y-55722564D01*
X126514000Y-55475459D01*
X126514000Y-55224541D01*
X126470429Y-54977436D01*
X126384609Y-54741651D01*
X126259150Y-54524349D01*
X126097864Y-54332136D01*
X125905651Y-54170850D01*
X125748294Y-54080000D01*
X125905651Y-53989150D01*
X126097864Y-53827864D01*
X126259150Y-53635651D01*
X126384609Y-53418349D01*
X126412948Y-53340490D01*
X126511289Y-53445213D01*
X126768367Y-53621240D01*
X127057249Y-53737955D01*
X127364454Y-53789914D01*
X127675650Y-53774694D01*
X127976318Y-53693004D01*
X128252431Y-53548656D01*
X128491106Y-53348384D01*
X128681207Y-53101532D01*
X128813866Y-52819617D01*
X128882943Y-52515574D01*
X128884064Y-52194433D01*
X128817111Y-51889916D01*
X128686423Y-51607081D01*
X128498050Y-51358909D01*
X128260779Y-51156975D01*
X127985681Y-51010702D01*
X127805546Y-50960408D01*
X127595138Y-50750000D01*
X129050789Y-50750000D01*
X129071608Y-51047721D01*
X129133658Y-51339646D01*
X129235734Y-51620095D01*
X129375846Y-51883609D01*
X129551270Y-52125058D01*
X129758589Y-52339743D01*
X129993769Y-52523486D01*
X130131150Y-52602803D01*
X130067451Y-52850897D01*
X130064576Y-53125352D01*
X130127252Y-53392570D01*
X130251858Y-53637124D01*
X130431203Y-53844897D01*
X130654931Y-54003893D01*
X130910126Y-54104932D01*
X131182058Y-54142182D01*
X131455024Y-54113491D01*
X131713267Y-54020518D01*
X131941879Y-53868628D01*
X132127661Y-53666592D01*
X132259888Y-53426072D01*
X132331099Y-53160308D01*
X132334209Y-52863416D01*
X132268651Y-52596510D01*
X132507030Y-52435721D01*
X132728819Y-52236021D01*
X132920658Y-52007397D01*
X133078811Y-51754299D01*
X133200200Y-51481653D01*
X133282464Y-51194767D01*
X133324000Y-50899224D01*
X133324000Y-50600776D01*
X133282464Y-50305233D01*
X133200200Y-50018347D01*
X133078811Y-49745701D01*
X132920658Y-49492603D01*
X132728819Y-49263979D01*
X132507030Y-49064279D01*
X132259606Y-48897389D01*
X131991363Y-48766559D01*
X131707522Y-48674333D01*
X131413609Y-48622508D01*
X131115343Y-48612092D01*
X130818530Y-48643289D01*
X130528948Y-48715489D01*
X130252231Y-48827290D01*
X129993769Y-48976514D01*
X129758589Y-49160257D01*
X129551270Y-49374942D01*
X129375846Y-49616391D01*
X129235734Y-49879905D01*
X129133658Y-50160354D01*
X129071608Y-50452279D01*
X129050789Y-50750000D01*
X127595138Y-50750000D01*
X127248738Y-50403600D01*
X127218630Y-50362687D01*
X127146812Y-50301674D01*
X127131650Y-50286511D01*
X127092578Y-50255599D01*
X126999336Y-50176383D01*
X126979925Y-50166471D01*
X126962841Y-50152955D01*
X126852030Y-50101165D01*
X126739528Y-50043719D01*
X126722600Y-50040673D01*
X126702159Y-50031120D01*
X126420440Y-49972523D01*
X126291974Y-49975999D01*
X124233569Y-49975999D01*
X124183359Y-49968361D01*
X124089455Y-49975999D01*
X124067992Y-49975999D01*
X124018477Y-49981772D01*
X123896558Y-49991689D01*
X123875834Y-49998402D01*
X123854188Y-50000926D01*
X123739162Y-50042679D01*
X123619037Y-50081593D01*
X123604918Y-50091406D01*
X123583707Y-50099105D01*
X123343067Y-50256877D01*
X123254656Y-50350205D01*
X122189113Y-51415749D01*
X122167436Y-51419571D01*
X121931651Y-51505391D01*
X121714349Y-51630850D01*
X121522136Y-51792136D01*
X121360850Y-51984349D01*
X121270000Y-52141706D01*
X121179150Y-51984349D01*
X121017864Y-51792136D01*
X120825651Y-51630850D01*
X120608349Y-51505391D01*
X120372564Y-51419571D01*
X120125459Y-51376000D01*
X119874541Y-51376000D01*
X119627436Y-51419571D01*
X119391651Y-51505391D01*
X119174349Y-51630850D01*
X118982136Y-51792136D01*
X118820850Y-51984349D01*
X118730000Y-52141706D01*
X118639150Y-51984349D01*
X118477864Y-51792136D01*
X118285651Y-51630850D01*
X118068349Y-51505391D01*
X118052898Y-51499767D01*
X118076677Y-51497268D01*
X118467195Y-51414261D01*
X118846896Y-51290888D01*
X119211622Y-51128501D01*
X119557377Y-50928880D01*
X119880371Y-50694211D01*
X120081813Y-50512833D01*
X117480000Y-47911019D01*
X114878187Y-50512833D01*
X112984000Y-50512833D01*
X112984000Y-47793210D01*
X112987802Y-47774268D01*
X112988599Y-47758269D01*
X112998548Y-47530379D01*
X113671000Y-47530379D01*
X113671000Y-47929621D01*
X113712732Y-48326677D01*
X113795739Y-48717195D01*
X113919112Y-49096896D01*
X114081499Y-49461622D01*
X114281120Y-49807377D01*
X114515789Y-50130371D01*
X114697167Y-50331813D01*
X117298981Y-47730000D01*
X117661019Y-47730000D01*
X120262833Y-50331813D01*
X120444211Y-50130371D01*
X120678880Y-49807377D01*
X120878501Y-49461622D01*
X121040888Y-49096896D01*
X121164261Y-48717195D01*
X121247268Y-48326677D01*
X121284458Y-47972833D01*
X200608187Y-47972833D01*
X200809629Y-48154211D01*
X201132623Y-48388880D01*
X201478378Y-48588501D01*
X201843104Y-48750888D01*
X202222805Y-48874261D01*
X202613323Y-48957268D01*
X203010379Y-48999000D01*
X203409621Y-48999000D01*
X203806677Y-48957268D01*
X204197195Y-48874261D01*
X204576896Y-48750888D01*
X204941622Y-48588501D01*
X205287377Y-48388880D01*
X205610371Y-48154211D01*
X205811813Y-47972833D01*
X203210000Y-45371019D01*
X200608187Y-47972833D01*
X121284458Y-47972833D01*
X121289000Y-47929621D01*
X121289000Y-47530379D01*
X121247268Y-47133323D01*
X121164261Y-46742805D01*
X121040888Y-46363104D01*
X120878501Y-45998378D01*
X120678880Y-45652623D01*
X120444211Y-45329629D01*
X120262833Y-45128187D01*
X117661019Y-47730000D01*
X117298981Y-47730000D01*
X114697167Y-45128187D01*
X114515789Y-45329629D01*
X114281120Y-45652623D01*
X114081499Y-45998378D01*
X113919112Y-46363104D01*
X113795739Y-46742805D01*
X113712732Y-47133323D01*
X113671000Y-47530379D01*
X112998548Y-47530379D01*
X113006920Y-47338647D01*
X113058048Y-46950291D01*
X113142832Y-46567858D01*
X113260620Y-46194280D01*
X113410528Y-45832369D01*
X113591398Y-45484921D01*
X113801873Y-45154542D01*
X113960997Y-44947167D01*
X114878187Y-44947167D01*
X117480000Y-47548981D01*
X120038601Y-44990379D01*
X199401000Y-44990379D01*
X199401000Y-45389621D01*
X199442732Y-45786677D01*
X199525739Y-46177195D01*
X199649112Y-46556896D01*
X199811499Y-46921622D01*
X200011120Y-47267377D01*
X200245789Y-47590371D01*
X200427167Y-47791813D01*
X203028981Y-45190000D01*
X203391019Y-45190000D01*
X205992833Y-47791813D01*
X206174211Y-47590371D01*
X206408880Y-47267377D01*
X206608501Y-46921622D01*
X206770888Y-46556896D01*
X206894261Y-46177195D01*
X206977268Y-45786677D01*
X207019000Y-45389621D01*
X207019000Y-44990379D01*
X206977268Y-44593323D01*
X206894261Y-44202805D01*
X206770888Y-43823104D01*
X206608501Y-43458378D01*
X206408880Y-43112623D01*
X206174211Y-42789629D01*
X205992833Y-42588187D01*
X203391019Y-45190000D01*
X203028981Y-45190000D01*
X200427167Y-42588187D01*
X200245789Y-42789629D01*
X200011120Y-43112623D01*
X199811499Y-43458378D01*
X199649112Y-43823104D01*
X199525739Y-44202805D01*
X199442732Y-44593323D01*
X199401000Y-44990379D01*
X120038601Y-44990379D01*
X120081813Y-44947167D01*
X119880371Y-44765789D01*
X119557377Y-44531120D01*
X119211622Y-44331499D01*
X118846896Y-44169112D01*
X118467195Y-44045739D01*
X118076677Y-43962732D01*
X117679621Y-43921000D01*
X117280379Y-43921000D01*
X116883323Y-43962732D01*
X116492805Y-44045739D01*
X116113104Y-44169112D01*
X115748378Y-44331499D01*
X115402623Y-44531120D01*
X115079629Y-44765789D01*
X114878187Y-44947167D01*
X113960997Y-44947167D01*
X114040329Y-44843781D01*
X114304972Y-44554972D01*
X114593768Y-44290339D01*
X114904550Y-44051868D01*
X115234921Y-43841398D01*
X115582369Y-43660528D01*
X115944288Y-43510617D01*
X116317861Y-43392832D01*
X116700291Y-43308048D01*
X117088647Y-43256920D01*
X117516850Y-43238225D01*
X117539314Y-43234000D01*
X122397390Y-43234000D01*
X123651481Y-44488093D01*
X123662229Y-44505127D01*
X123716043Y-44552654D01*
X123733828Y-44570440D01*
X123749372Y-44582090D01*
X123798347Y-44625343D01*
X123821738Y-44636325D01*
X123842412Y-44651819D01*
X123903582Y-44674750D01*
X123963090Y-44702689D01*
X123988066Y-44706421D01*
X124012460Y-44715566D01*
X124085653Y-44721006D01*
X124105687Y-44724000D01*
X124125941Y-44724000D01*
X124193564Y-44729025D01*
X124217104Y-44724000D01*
X133298632Y-44724000D01*
X133317920Y-44728387D01*
X133389938Y-44724000D01*
X133415446Y-44724000D01*
X133434331Y-44721296D01*
X133499188Y-44717345D01*
X133523837Y-44708477D01*
X133549770Y-44704763D01*
X133608932Y-44677865D01*
X133670439Y-44655737D01*
X133691028Y-44640537D01*
X133715088Y-44629598D01*
X133770365Y-44581968D01*
X133786437Y-44570103D01*
X133801012Y-44555560D01*
X133852665Y-44511053D01*
X133865563Y-44491153D01*
X135954201Y-42407167D01*
X200608187Y-42407167D01*
X203210000Y-45008981D01*
X205811813Y-42407167D01*
X205610371Y-42225789D01*
X205287377Y-41991120D01*
X204941622Y-41791499D01*
X204576896Y-41629112D01*
X204197195Y-41505739D01*
X203806677Y-41422732D01*
X203409621Y-41381000D01*
X203010379Y-41381000D01*
X202613323Y-41422732D01*
X202222805Y-41505739D01*
X201843104Y-41629112D01*
X201478378Y-41791499D01*
X201132623Y-41991120D01*
X200809629Y-42225789D01*
X200608187Y-42407167D01*
X135954201Y-42407167D01*
X138122197Y-40244000D01*
X207756000Y-40244000D01*
X207756001Y-51397755D01*
M02*
