M48
; DRILL file {KiCad 5.99.0-unknown-529461e~86~ubuntu18.04.1} date jue 26 sep 2019 16:04:54 -03
; FORMAT={-:-/ absolute / inch / decimal}
; #@! TF.CreationDate,2019-09-26T16:04:54-03:00
; #@! TF.GenerationSoftware,Kicad,Pcbnew,5.99.0-unknown-529461e~86~ubuntu18.04.1
FMAT,2
INCH
T1C0.0157
T2C0.0315
T3C0.0394
T4C0.0400
T5C0.0598
T6C0.1260
T7C0.0941
T8C0.1378
%
G90
G05
T1
X5.002Y-4.2835
X5.0059Y-4.3543
X5.0689Y-2.6122
X5.1102Y-2.5689
X5.124Y-4.0748
X5.1398Y-4.4252
X5.1555Y-3.6378
X5.1654Y-2.0866
X5.1831Y-4.6063
X5.1969Y-3.6142
X5.2047Y-4.4843
X5.2421Y-4.2835
X5.2598Y-2.2441
X5.2618Y-3.8661
X5.2697Y-2.3031
X5.2717Y-3.8189
X5.2736Y-3.1693
X5.2776Y-2.876
X5.2776Y-3.0472
X5.2913Y-4.7146
X5.3189Y-3.9272
X5.3287Y-4.4134
X5.3819Y-2.4134
X5.3878Y-4.5453
X5.3917Y-3.5945
X5.4409Y-3.1161
X5.4528Y-3.5939
X5.4528Y-3.6496
X5.4567Y-3.7126
X5.4567Y-4.4134
X5.5197Y-4.0295
X5.5217Y-4.2323
X5.5276Y-2.9823
X5.5276Y-3.4547
X5.5669Y-2.0965
X5.5689Y-4.2795
X5.5925Y-3.4528
X5.5925Y-3.6811
X5.5925Y-3.7441
X5.626Y-4.0748
X5.6752Y-4.4252
X5.6791Y-4.0295
X5.6909Y-4.7441
X5.6969Y-3.9843
X5.7087Y-3.1161
X5.7392Y-3.9567
X5.7402Y-4.5118
X5.7598Y-3.2185
X5.7618Y-3.0571
X5.7894Y-3.2874
X5.7894Y-3.3445
X5.7913Y-2.874
X5.7953Y-2.4567
X5.8366Y-4.5118
X5.8701Y-4.7441
X5.874Y-3.5157
X5.8957Y-3.0335
X5.9075Y-3.2165
X5.9291Y-3.7933
X5.9528Y-2.874
X5.9665Y-3.0295
X5.9803Y-2.2835
X5.9803Y-2.5098
X5.9803Y-3.1713
X5.9843Y-4.4921
X5.9862Y-3.2382
X5.9902Y-3.4705
X5.9902Y-3.5276
X6.002Y-3.3839
X6.0453Y-3.5374
X6.0571Y-3.7402
X6.063Y-3.6772
X6.063Y-3.8799
X6.063Y-4.1614
X6.0709Y-2.2835
X6.0709Y-2.5098
X6.1122Y-3.2362
X6.1142Y-2.811
X6.1181Y-3.4311
X6.1299Y-3.7933
X6.1417Y-4.7441
X6.1594Y-3.1161
X6.1949Y-3.5374
X6.1949Y-3.6772
X6.2736Y-3.1043
X7.0728Y-4.6417
X7.124Y-2.4567
X7.2146Y-2.498
X7.3543Y-2.3583
X7.3691Y-2.874
X7.3878Y-4.0315
X7.3957Y-4.3189
X7.4606Y-2.3583
X7.6417Y-2.2776
X7.6555Y-4.3189
X7.6555Y-4.3799
X7.7323Y-2.7776
X7.7461Y-4.565
T2
X5.0177Y-2.061
X5.065Y-3.8898
X6.3996Y-4.9449
X6.5394Y-4.9449
X6.6142Y-1.8031
X6.7776Y-1.6181
X6.9547Y-1.8031
X7.0079Y-4.9016
X7.1457Y-4.9016
T3
X5.0657Y-4.0201
X5.1657Y-4.0201
X5.2657Y-4.0201
X5.8488Y-2.5551
X5.8488Y-2.811
X6.026Y-2.5551
X6.026Y-2.811
X5.8744Y-2.9665
X5.9744Y-2.9665
X6.0744Y-2.9665
X6.1744Y-2.9665
X6.2744Y-2.9665
T4
X4.6244Y-2.0791
X4.6244Y-2.1791
X4.6244Y-2.2791
X4.6244Y-2.3791
X4.6244Y-2.4791
X4.6244Y-2.5791
X4.6244Y-2.6791
X4.6244Y-2.7791
X4.6244Y-2.8791
X4.6244Y-2.9791
X4.6244Y-3.0791
X4.6244Y-3.1791
X4.6244Y-3.2791
X4.6244Y-3.3791
X4.6244Y-3.4791
X4.6244Y-3.5791
X4.6244Y-3.6791
X4.6244Y-3.7791
X4.6244Y-3.8791
X4.6244Y-3.9791
X4.6244Y-4.0791
X4.6244Y-4.1791
X4.6244Y-4.2791
X4.6244Y-4.3791
X4.6244Y-4.4791
X4.6244Y-4.5791
X4.7244Y-2.0791
X4.7244Y-2.1791
X4.7244Y-2.2791
X4.7244Y-2.3791
X4.7244Y-2.4791
X4.7244Y-2.5791
X4.7244Y-2.6791
X4.7244Y-2.7791
X4.7244Y-2.8791
X4.7244Y-2.9791
X4.7244Y-3.0791
X4.7244Y-3.1791
X4.7244Y-3.2791
X4.7244Y-3.3791
X4.7244Y-3.4791
X4.7244Y-3.5791
X4.7244Y-3.6791
X4.7244Y-3.7791
X4.7244Y-3.8791
X4.7244Y-3.9791
X4.7244Y-4.0791
X4.7244Y-4.1791
X4.7244Y-4.2791
X4.7244Y-4.3791
X4.7244Y-4.4791
X4.7244Y-4.5791
X4.8244Y-2.0791
X4.8244Y-2.1791
X4.8244Y-2.2791
X4.8244Y-2.3791
X4.8244Y-2.4791
X4.8244Y-2.5791
X4.8244Y-2.6791
X4.8244Y-2.7791
X4.8244Y-2.8791
X4.8244Y-2.9791
X4.8244Y-3.0791
X4.8244Y-3.1791
X4.8244Y-3.2791
X4.8244Y-3.3791
X4.8244Y-3.4791
X4.8244Y-3.5791
X4.8244Y-3.6791
X4.8244Y-3.7791
X4.8244Y-3.8791
X4.8244Y-3.9791
X4.8244Y-4.0791
X4.8244Y-4.1791
X4.8244Y-4.2791
X4.8244Y-4.3791
X4.8244Y-4.4791
X4.8244Y-4.5791
X4.9244Y-2.0791
X4.9244Y-2.1791
X4.9244Y-2.2791
X4.9244Y-2.3791
X4.9244Y-2.4791
X4.9244Y-2.5791
X4.9244Y-2.6791
X4.9244Y-2.7791
X4.9244Y-2.8791
X4.9244Y-2.9791
X4.9244Y-3.0791
X4.9244Y-3.1791
X4.9244Y-3.2791
X4.9244Y-3.3791
X4.9244Y-3.4791
X4.9244Y-3.5791
X4.9244Y-3.6791
X4.9244Y-3.7791
X4.9244Y-3.8791
X4.9244Y-3.9791
X4.9244Y-4.0791
X4.9244Y-4.1791
X4.9244Y-4.2791
X4.9244Y-4.3791
X4.9244Y-4.4791
X4.9244Y-4.5791
T5
X7.3461Y-4.6555
X7.5461Y-4.6555
X7.7461Y-4.6555
X5.165Y-1.998
X5.365Y-1.998
X5.565Y-1.998
X4.8917Y-4.8169
X5.0917Y-4.8169
X5.2917Y-4.8169
X7.7323Y-2.2772
X7.7323Y-2.4772
X7.7323Y-2.6772
T6
X4.6252Y-1.8791
X4.6252Y-4.7791
X8.0004Y-1.7791
X8.0004Y-4.9291
T7
X6.4628Y-4.7557
T8
X6.4628Y-2.2545
X7.0927Y-4.4278
T0
M30
