M48
; DRILL file {KiCad 6.0.0-unknown-daad58e~86~ubuntu18.04.1} date vie 14 jun 2019 12:13:56 -04
; FORMAT={-:-/ absolute / inch / decimal}
; #@! TF.CreationDate,2019-06-14T12:13:56-04:00
; #@! TF.GenerationSoftware,Kicad,Pcbnew,6.0.0-unknown-daad58e~86~ubuntu18.04.1
FMAT,2
INCH
T1C0.0315
T2C0.0354
T3C0.0358
T4C0.0394
T5C0.0433
T6C0.0520
T7C0.1181
T8C0.1260
%
G90
G05
T1
X3.4862Y-5.1673
X3.5039Y-2.2441
X3.5413Y-2.9272
X3.5413Y-3.2776
X3.5472Y-3.563
X3.5748Y-4.4311
X3.7146Y-4.3543
X3.7303Y-3.2697
X3.7638Y-3.0571
X3.9035Y-3.7205
X4.0886Y-3.4331
X4.0886Y-3.9685
X4.1378Y-4.0374
X4.2224Y-3.7756
X4.248Y-4.9154
X4.248Y-5.0807
X4.2913Y-3.8307
X4.3091Y-3.626
X4.3406Y-2.315
X4.4052Y-3.4295
X4.4291Y-3.8799
X4.4382Y-3.5568
X4.4449Y-3.4902
X4.4705Y-3.3051
X4.4764Y-3.2343
X4.4843Y-2.0689
X4.5Y-2.6516
X4.5059Y-3.7815
X4.5366Y-3.4913
X4.5492Y-4.5689
X4.565Y-3.9547
X4.5748Y-2.5295
X4.622Y-3.1398
X4.6673Y-3.9547
X4.6673Y-4.6358
X4.675Y-2.2373
X4.6851Y-2.3035
X4.7441Y-3.6693
X4.7461Y-3.7402
X4.7677Y-4.3602
X4.7799Y-4.2799
X4.8012Y-3.9331
X4.8041Y-2.3035
X4.8041Y-2.7835
X4.8169Y-2.6535
X4.8307Y-4.1516
X4.8504Y-2.4469
X4.8504Y-2.878
X4.8681Y-2.8051
X4.8878Y-3.8799
X4.9016Y-2.1339
X4.9409Y-4.8327
X4.9469Y-4.7087
X5.0295Y-4.9016
X5.1102Y-3.7776
X5.1142Y-3.3996
X5.1746Y-3.217
X5.1791Y-4.3524
X5.2162Y-3.102
X5.221Y-3.1687
X5.2461Y-3.2687
X5.2815Y-3.7992
X5.2953Y-3.3839
X5.3107Y-3.3141
X5.3819Y-4.3425
X5.4109Y-3.4001
X5.4247Y-3.5284
X5.4843Y-3.8996
X5.4882Y-4.1516
X5.4941Y-3.1673
X5.4941Y-4.2323
X5.5025Y-3.2381
X5.5511Y-3.902
X5.6378Y-4.5925
X5.6555Y-2.5984
X5.6986Y-3.5762
X5.7461Y-4.5906
X5.7569Y-2.8287
X5.7638Y-3.4803
X5.7697Y-4.5039
X5.7697Y-5.2657
X5.872Y-3.622
X5.9134Y-2.8917
X6.0331Y-1.9689
X6.0591Y-3.9272
X6.0787Y-3.7185
X6.1929Y-2.9528
X6.4606Y-2.7224
X4.3406Y-5.3169
X4.0846Y-1.9705
X3.6358Y-5.3169
X4.2358Y-5.3169
X4.9213Y-4.9169
X4.9213Y-5.3169
X3.7929Y-3.3402
X4.4846Y-1.9705
X5.0929Y-1.935
X5.6929Y-1.935
X6.0587Y-3.8366
X6.4587Y-3.8366
X4.3406Y-4.9169
X4.1929Y-3.3402
X6.4508Y-2.9173
X6.4508Y-3.5173
X4.9882Y-1.935
X4.9882Y-2.335
X5.089Y-5.3169
X6.4587Y-3.9413
X6.4587Y-4.5413
X5.689Y-5.3169
X3.6063Y-2.1142
X4.2063Y-2.1142
X6.0508Y-3.622
X6.4508Y-3.622
T2
X4.3839Y-2.9783
X5.0315Y-2.7972
X5.6299Y-4.8425
X5.9252Y-4.8425
T3
X3.149Y-2.3789
X3.149Y-2.4789
X3.149Y-2.5789
X3.149Y-2.6789
X3.149Y-2.7789
X3.149Y-2.8789
X3.149Y-2.9789
X3.149Y-3.0789
X3.149Y-3.1789
X3.149Y-3.2789
X3.149Y-3.3789
X3.149Y-3.4789
X3.149Y-3.5789
X3.149Y-3.6789
X3.149Y-3.7789
X3.149Y-3.8789
X3.149Y-3.9789
X3.149Y-4.0789
X3.149Y-4.1789
X3.149Y-4.2789
X3.149Y-4.3789
X3.149Y-4.4789
X3.149Y-4.5789
X3.149Y-4.6789
X3.149Y-4.7789
X3.149Y-4.8789
X3.249Y-2.3789
X3.249Y-2.4789
X3.249Y-2.5789
X3.249Y-2.6789
X3.249Y-2.7789
X3.249Y-2.8789
X3.249Y-2.9789
X3.249Y-3.0789
X3.249Y-3.1789
X3.249Y-3.2789
X3.249Y-3.3789
X3.249Y-3.4789
X3.249Y-3.5789
X3.249Y-3.6789
X3.249Y-3.7789
X3.249Y-3.8789
X3.249Y-3.9789
X3.249Y-4.0789
X3.249Y-4.1789
X3.249Y-4.2789
X3.249Y-4.3789
X3.249Y-4.4789
X3.249Y-4.5789
X3.249Y-4.6789
X3.249Y-4.7789
X3.249Y-4.8789
X3.349Y-2.3789
X3.349Y-2.4789
X3.349Y-2.5789
X3.349Y-2.6789
X3.349Y-2.7789
X3.349Y-2.8789
X3.349Y-2.9789
X3.349Y-3.0789
X3.349Y-3.1789
X3.349Y-3.2789
X3.349Y-3.3789
X3.349Y-3.4789
X3.349Y-3.5789
X3.349Y-3.6789
X3.349Y-3.7789
X3.349Y-3.8789
X3.349Y-3.9789
X3.349Y-4.0789
X3.349Y-4.1789
X3.349Y-4.2789
X3.349Y-4.3789
X3.349Y-4.4789
X3.349Y-4.5789
X3.349Y-4.6789
X3.349Y-4.7789
X3.349Y-4.8789
X3.449Y-2.3789
X3.449Y-2.4789
X3.449Y-2.5789
X3.449Y-2.6789
X3.449Y-2.7789
X3.449Y-2.8789
X3.449Y-2.9789
X3.449Y-3.0789
X3.449Y-3.1789
X3.449Y-3.2789
X3.449Y-3.3789
X3.449Y-3.4789
X3.449Y-3.5789
X3.449Y-3.6789
X3.449Y-3.7789
X3.449Y-3.8789
X3.449Y-3.9789
X3.449Y-4.0789
X3.449Y-4.1789
X3.449Y-4.2789
X3.449Y-4.3789
X3.449Y-4.4789
X3.449Y-4.5789
X3.449Y-4.6789
X3.449Y-4.7789
X3.449Y-4.8789
T4
X3.622Y-3.0402
X3.622Y-3.1402
X3.622Y-3.2402
X3.622Y-3.3402
X3.622Y-3.4402
X4.3681Y-4.0697
X4.3681Y-4.4697
X4.4681Y-4.0697
X4.4681Y-4.4697
X4.5681Y-4.0697
X4.5681Y-4.4697
X4.6681Y-4.0697
X4.6681Y-4.4697
X4.7681Y-4.0697
X4.7681Y-4.4697
X4.8681Y-4.0697
X4.8681Y-4.4697
X3.8039Y-3.628
X3.9039Y-3.628
X4.0039Y-3.628
T5
X5.6654Y-3.2067
X5.6654Y-3.3067
X5.6654Y-3.4067
X5.6614Y-4.2303
X5.6614Y-4.3303
X5.6614Y-4.4303
X3.8154Y-4.5217
X3.9154Y-4.5217
X5.1799Y-4.5217
X5.2799Y-4.5217
X5.3799Y-4.5217
X3.7154Y-4.5217
X4.2028Y-2.4516
X4.2028Y-2.5516
X4.2028Y-2.6516
X5.376Y-2.7067
X5.476Y-2.7067
X5.576Y-2.7067
T6
X5.9843Y-2.4803
X5.9843Y-4.1339
X5.9843Y-4.3307
X5.9843Y-2.6772
X3.8071Y-2.5512
X4.0039Y-2.5512
X3.8146Y-4.8425
X4.0114Y-4.8425
X5.2791Y-4.8425
X5.476Y-4.8425
X5.9843Y-3.1102
X5.9843Y-3.3071
X5.2791Y-2.3878
X5.476Y-2.3878
T7
X3.6024Y-5.1969
X3.6181Y-2.2323
X4.2008Y-5.1969
X4.2126Y-2.2323
X5.0728Y-5.1969
X5.0906Y-2.0551
X5.6654Y-5.1969
X5.685Y-2.0551
X6.3307Y-2.9213
X6.3307Y-3.5157
X6.3386Y-3.9449
X6.3386Y-4.5394
T8
X3.1498Y-2.1789
X3.1498Y-5.0789
X6.525Y-2.0789
X6.525Y-5.2289
T0
M30
