G04 #@! TF.GenerationSoftware,KiCad,Pcbnew,6.0.0-unknown-daad58e~86~ubuntu18.04.1*
G04 #@! TF.CreationDate,2019-06-14T12:13:53-04:00*
G04 #@! TF.ProjectId,DPL,44504c2e-6b69-4636-9164-5f7063625858,rev?*
G04 #@! TF.SameCoordinates,Original*
G04 #@! TF.FileFunction,Paste,Bot*
G04 #@! TF.FilePolarity,Positive*
%FSLAX46Y46*%
G04 Gerber Fmt 4.6, Leading zero omitted, Abs format (unit mm)*
G04 Created by KiCad (PCBNEW 6.0.0-unknown-daad58e~86~ubuntu18.04.1) date 2019-06-14 12:13:53*
%MOMM*%
%LPD*%
G04 APERTURE LIST*
%ADD10C,0.100000*%
%ADD11C,0.950000*%
%ADD12R,1.400000X1.000000*%
%ADD13R,1.400000X1.200000*%
G04 APERTURE END LIST*
D10*
G36*
X117984100Y-59770533D02*
G01*
X118063997Y-59828581D01*
X118113376Y-59914108D01*
X118125000Y-59987500D01*
X118125000Y-60562500D01*
X118104467Y-60659100D01*
X118046419Y-60738997D01*
X117960892Y-60788376D01*
X117887500Y-60800000D01*
X117412500Y-60800000D01*
X117315900Y-60779467D01*
X117236003Y-60721419D01*
X117186624Y-60635892D01*
X117175000Y-60562500D01*
X117175000Y-59987500D01*
X117195533Y-59890900D01*
X117253581Y-59811003D01*
X117339108Y-59761624D01*
X117412500Y-59750000D01*
X117887500Y-59750000D01*
X117984100Y-59770533D01*
X117984100Y-59770533D01*
G37*
D11*
X117650000Y-60275000D03*
D10*
G36*
X117984100Y-61520533D02*
G01*
X118063997Y-61578581D01*
X118113376Y-61664108D01*
X118125000Y-61737500D01*
X118125000Y-62312500D01*
X118104467Y-62409100D01*
X118046419Y-62488997D01*
X117960892Y-62538376D01*
X117887500Y-62550000D01*
X117412500Y-62550000D01*
X117315900Y-62529467D01*
X117236003Y-62471419D01*
X117186624Y-62385892D01*
X117175000Y-62312500D01*
X117175000Y-61737500D01*
X117195533Y-61640900D01*
X117253581Y-61561003D01*
X117339108Y-61511624D01*
X117412500Y-61500000D01*
X117887500Y-61500000D01*
X117984100Y-61520533D01*
X117984100Y-61520533D01*
G37*
D11*
X117650000Y-62025000D03*
D12*
X121625000Y-62200000D03*
X121625000Y-60300000D03*
X119425000Y-60300000D03*
D13*
X119425000Y-62020000D03*
D10*
G36*
X116434100Y-59770533D02*
G01*
X116513997Y-59828581D01*
X116563376Y-59914108D01*
X116575000Y-59987500D01*
X116575000Y-60562500D01*
X116554467Y-60659100D01*
X116496419Y-60738997D01*
X116410892Y-60788376D01*
X116337500Y-60800000D01*
X115862500Y-60800000D01*
X115765900Y-60779467D01*
X115686003Y-60721419D01*
X115636624Y-60635892D01*
X115625000Y-60562500D01*
X115625000Y-59987500D01*
X115645533Y-59890900D01*
X115703581Y-59811003D01*
X115789108Y-59761624D01*
X115862500Y-59750000D01*
X116337500Y-59750000D01*
X116434100Y-59770533D01*
X116434100Y-59770533D01*
G37*
D11*
X116100000Y-60275000D03*
D10*
G36*
X116434100Y-61520533D02*
G01*
X116513997Y-61578581D01*
X116563376Y-61664108D01*
X116575000Y-61737500D01*
X116575000Y-62312500D01*
X116554467Y-62409100D01*
X116496419Y-62488997D01*
X116410892Y-62538376D01*
X116337500Y-62550000D01*
X115862500Y-62550000D01*
X115765900Y-62529467D01*
X115686003Y-62471419D01*
X115636624Y-62385892D01*
X115625000Y-62312500D01*
X115625000Y-61737500D01*
X115645533Y-61640900D01*
X115703581Y-61561003D01*
X115789108Y-61511624D01*
X115862500Y-61500000D01*
X116337500Y-61500000D01*
X116434100Y-61520533D01*
X116434100Y-61520533D01*
G37*
D11*
X116100000Y-62025000D03*
M02*
