G04 #@! TF.GenerationSoftware,KiCad,Pcbnew,6.0.0-unknown-bc26ccf~86~ubuntu18.04.1*
G04 #@! TF.CreationDate,2019-06-19T17:05:38-04:00*
G04 #@! TF.ProjectId,DPL,44504c2e-6b69-4636-9164-5f7063625858,rev?*
G04 #@! TF.SameCoordinates,Original*
G04 #@! TF.FileFunction,Legend,Bot*
G04 #@! TF.FilePolarity,Positive*
%FSLAX46Y46*%
G04 Gerber Fmt 4.6, Leading zero omitted, Abs format (unit mm)*
G04 Created by KiCad (PCBNEW 6.0.0-unknown-bc26ccf~86~ubuntu18.04.1) date 2019-06-19 17:05:38*
%MOMM*%
%LPD*%
G04 APERTURE LIST*
%ADD10C,0.120000*%
%ADD11C,0.150000*%
G04 APERTURE END LIST*
D10*
X110020000Y-69930000D02*
X110020000Y-59690000D01*
X105379000Y-69930000D02*
X105379000Y-59690000D01*
X110020000Y-69930000D02*
X105379000Y-69930000D01*
X110020000Y-59690000D02*
X105379000Y-59690000D01*
X108510000Y-69930000D02*
X108510000Y-59690000D01*
X110020000Y-66660000D02*
X108510000Y-66660000D01*
X110020000Y-62959000D02*
X108510000Y-62959000D01*
X145700000Y-60350000D02*
X158300000Y-60350000D01*
X158300000Y-60350000D02*
X158300000Y-70700000D01*
X158300000Y-70700000D02*
X157350000Y-70700000D01*
X157350000Y-70700000D02*
X157600000Y-71200000D01*
X157600000Y-71200000D02*
X155700000Y-71200000D01*
X155700000Y-71200000D02*
X155650000Y-71200000D01*
X155650000Y-71200000D02*
X155900000Y-70700000D01*
X155900000Y-70700000D02*
X150500000Y-70700000D01*
X150500000Y-70700000D02*
X150800000Y-71200000D01*
X150800000Y-71200000D02*
X145700000Y-71200000D01*
X145700000Y-71200000D02*
X145700000Y-60350000D01*
X141740000Y-116700000D02*
X141740000Y-129300000D01*
X141740000Y-129300000D02*
X131390000Y-129300000D01*
X131390000Y-129300000D02*
X131390000Y-128350000D01*
X131390000Y-128350000D02*
X130890000Y-128600000D01*
X130890000Y-128600000D02*
X130890000Y-126700000D01*
X130890000Y-126700000D02*
X130890000Y-126650000D01*
X130890000Y-126650000D02*
X131390000Y-126900000D01*
X131390000Y-126900000D02*
X131390000Y-121500000D01*
X131390000Y-121500000D02*
X130890000Y-121800000D01*
X130890000Y-121800000D02*
X130890000Y-116700000D01*
X130890000Y-116700000D02*
X141740000Y-116700000D01*
X119325000Y-59700000D02*
X121725000Y-59700000D01*
X121725000Y-62800000D02*
X118775000Y-62800000D01*
X133970000Y-72020000D02*
X144210000Y-72020000D01*
X133970000Y-67379000D02*
X144210000Y-67379000D01*
X133970000Y-72020000D02*
X133970000Y-67379000D01*
X144210000Y-72020000D02*
X144210000Y-67379000D01*
X133970000Y-70510000D02*
X144210000Y-70510000D01*
X137240000Y-72020000D02*
X137240000Y-70510000D01*
X140941000Y-72020000D02*
X140941000Y-70510000D01*
X140630000Y-78870000D02*
X140630000Y-89110000D01*
X145271000Y-78870000D02*
X145271000Y-89110000D01*
X140630000Y-78870000D02*
X145271000Y-78870000D01*
X140630000Y-89110000D02*
X145271000Y-89110000D01*
X142140000Y-78870000D02*
X142140000Y-89110000D01*
X140630000Y-82140000D02*
X142140000Y-82140000D01*
X140630000Y-85841000D02*
X142140000Y-85841000D01*
X140530000Y-104870000D02*
X140530000Y-115110000D01*
X145171000Y-104870000D02*
X145171000Y-115110000D01*
X140530000Y-104870000D02*
X145171000Y-104870000D01*
X140530000Y-115110000D02*
X145171000Y-115110000D01*
X142040000Y-104870000D02*
X142040000Y-115110000D01*
X140530000Y-108140000D02*
X142040000Y-108140000D01*
X140530000Y-111841000D02*
X142040000Y-111841000D01*
X139230000Y-111580000D02*
X128990000Y-111580000D01*
X139230000Y-116221000D02*
X128990000Y-116221000D01*
X139230000Y-111580000D02*
X139230000Y-116221000D01*
X128990000Y-111580000D02*
X128990000Y-116221000D01*
X139230000Y-113090000D02*
X128990000Y-113090000D01*
X135960000Y-111580000D02*
X135960000Y-113090000D01*
X132259000Y-111580000D02*
X132259000Y-113090000D01*
X102030000Y-111580000D02*
X91790000Y-111580000D01*
X102030000Y-116221000D02*
X91790000Y-116221000D01*
X102030000Y-111580000D02*
X102030000Y-116221000D01*
X91790000Y-111580000D02*
X91790000Y-116221000D01*
X102030000Y-113090000D02*
X91790000Y-113090000D01*
X98760000Y-111580000D02*
X98760000Y-113090000D01*
X95059000Y-111580000D02*
X95059000Y-113090000D01*
X94050000Y-71100000D02*
X94050000Y-58500000D01*
X94050000Y-58500000D02*
X104400000Y-58500000D01*
X104400000Y-58500000D02*
X104400000Y-59450000D01*
X104400000Y-59450000D02*
X104900000Y-59200000D01*
X104900000Y-59200000D02*
X104900000Y-61100000D01*
X104900000Y-61100000D02*
X104900000Y-61150000D01*
X104900000Y-61150000D02*
X104400000Y-60900000D01*
X104400000Y-60900000D02*
X104400000Y-66300000D01*
X104400000Y-66300000D02*
X104900000Y-66000000D01*
X104900000Y-66000000D02*
X104900000Y-71100000D01*
X104900000Y-71100000D02*
X94050000Y-71100000D01*
X131440000Y-66950000D02*
X131440000Y-54350000D01*
X131440000Y-54350000D02*
X141790000Y-54350000D01*
X141790000Y-54350000D02*
X141790000Y-55300000D01*
X141790000Y-55300000D02*
X142290000Y-55050000D01*
X142290000Y-55050000D02*
X142290000Y-56950000D01*
X142290000Y-56950000D02*
X142290000Y-57000000D01*
X142290000Y-57000000D02*
X141790000Y-56750000D01*
X141790000Y-56750000D02*
X141790000Y-62150000D01*
X141790000Y-62150000D02*
X142290000Y-61850000D01*
X142290000Y-61850000D02*
X142290000Y-66950000D01*
X142290000Y-66950000D02*
X131440000Y-66950000D01*
X145700000Y-76350000D02*
X158300000Y-76350000D01*
X158300000Y-76350000D02*
X158300000Y-86700000D01*
X158300000Y-86700000D02*
X157350000Y-86700000D01*
X157350000Y-86700000D02*
X157600000Y-87200000D01*
X157600000Y-87200000D02*
X155700000Y-87200000D01*
X155700000Y-87200000D02*
X155650000Y-87200000D01*
X155650000Y-87200000D02*
X155900000Y-86700000D01*
X155900000Y-86700000D02*
X150500000Y-86700000D01*
X150500000Y-86700000D02*
X150800000Y-87200000D01*
X150800000Y-87200000D02*
X145700000Y-87200000D01*
X145700000Y-87200000D02*
X145700000Y-76350000D01*
X145700000Y-102350000D02*
X158300000Y-102350000D01*
X158300000Y-102350000D02*
X158300000Y-112700000D01*
X158300000Y-112700000D02*
X157350000Y-112700000D01*
X157350000Y-112700000D02*
X157600000Y-113200000D01*
X157600000Y-113200000D02*
X155700000Y-113200000D01*
X155700000Y-113200000D02*
X155650000Y-113200000D01*
X155650000Y-113200000D02*
X155900000Y-112700000D01*
X155900000Y-112700000D02*
X150500000Y-112700000D01*
X150500000Y-112700000D02*
X150800000Y-113200000D01*
X150800000Y-113200000D02*
X145700000Y-113200000D01*
X145700000Y-113200000D02*
X145700000Y-102350000D01*
X104540000Y-116700000D02*
X104540000Y-129300000D01*
X104540000Y-129300000D02*
X94190000Y-129300000D01*
X94190000Y-129300000D02*
X94190000Y-128350000D01*
X94190000Y-128350000D02*
X93690000Y-128600000D01*
X93690000Y-128600000D02*
X93690000Y-126700000D01*
X93690000Y-126700000D02*
X93690000Y-126650000D01*
X93690000Y-126650000D02*
X94190000Y-126900000D01*
X94190000Y-126900000D02*
X94190000Y-121500000D01*
X94190000Y-121500000D02*
X93690000Y-121800000D01*
X93690000Y-121800000D02*
X93690000Y-116700000D01*
X93690000Y-116700000D02*
X104540000Y-116700000D01*
D11*
X111567619Y-64714761D02*
X111520000Y-64619523D01*
X111424761Y-64524285D01*
X111281904Y-64381428D01*
X111234285Y-64286190D01*
X111234285Y-64190952D01*
X111472380Y-64238571D02*
X111424761Y-64143333D01*
X111329523Y-64048095D01*
X111139047Y-64000476D01*
X110805714Y-64000476D01*
X110615238Y-64048095D01*
X110520000Y-64143333D01*
X110472380Y-64238571D01*
X110472380Y-64429047D01*
X110520000Y-64524285D01*
X110615238Y-64619523D01*
X110805714Y-64667142D01*
X111139047Y-64667142D01*
X111329523Y-64619523D01*
X111424761Y-64524285D01*
X111472380Y-64429047D01*
X111472380Y-64238571D01*
X110472380Y-65524285D02*
X110472380Y-65333809D01*
X110520000Y-65238571D01*
X110567619Y-65190952D01*
X110710476Y-65095714D01*
X110900952Y-65048095D01*
X111281904Y-65048095D01*
X111377142Y-65095714D01*
X111424761Y-65143333D01*
X111472380Y-65238571D01*
X111472380Y-65429047D01*
X111424761Y-65524285D01*
X111377142Y-65571904D01*
X111281904Y-65619523D01*
X111043809Y-65619523D01*
X110948571Y-65571904D01*
X110900952Y-65524285D01*
X110853333Y-65429047D01*
X110853333Y-65238571D01*
X110900952Y-65143333D01*
X110948571Y-65095714D01*
X111043809Y-65048095D01*
X116752380Y-108116666D02*
X117466666Y-108116666D01*
X117609523Y-108069047D01*
X117704761Y-107973809D01*
X117752380Y-107830952D01*
X117752380Y-107735714D01*
X117752380Y-108640476D02*
X117752380Y-108830952D01*
X117704761Y-108926190D01*
X117657142Y-108973809D01*
X117514285Y-109069047D01*
X117323809Y-109116666D01*
X116942857Y-109116666D01*
X116847619Y-109069047D01*
X116800000Y-109021428D01*
X116752380Y-108926190D01*
X116752380Y-108735714D01*
X116800000Y-108640476D01*
X116847619Y-108592857D01*
X116942857Y-108545238D01*
X117180952Y-108545238D01*
X117276190Y-108592857D01*
X117323809Y-108640476D01*
X117371428Y-108735714D01*
X117371428Y-108926190D01*
X117323809Y-109021428D01*
X117276190Y-109069047D01*
X117180952Y-109116666D01*
X144462380Y-60746666D02*
X145176666Y-60746666D01*
X145319523Y-60699047D01*
X145414761Y-60603809D01*
X145462380Y-60460952D01*
X145462380Y-60365714D01*
X144890952Y-61365714D02*
X144843333Y-61270476D01*
X144795714Y-61222857D01*
X144700476Y-61175238D01*
X144652857Y-61175238D01*
X144557619Y-61222857D01*
X144510000Y-61270476D01*
X144462380Y-61365714D01*
X144462380Y-61556190D01*
X144510000Y-61651428D01*
X144557619Y-61699047D01*
X144652857Y-61746666D01*
X144700476Y-61746666D01*
X144795714Y-61699047D01*
X144843333Y-61651428D01*
X144890952Y-61556190D01*
X144890952Y-61365714D01*
X144938571Y-61270476D01*
X144986190Y-61222857D01*
X145081428Y-61175238D01*
X145271904Y-61175238D01*
X145367142Y-61222857D01*
X145414761Y-61270476D01*
X145462380Y-61365714D01*
X145462380Y-61556190D01*
X145414761Y-61651428D01*
X145367142Y-61699047D01*
X145271904Y-61746666D01*
X145081428Y-61746666D01*
X144986190Y-61699047D01*
X144938571Y-61651428D01*
X144890952Y-61556190D01*
X141343333Y-115462380D02*
X141343333Y-116176666D01*
X141390952Y-116319523D01*
X141486190Y-116414761D01*
X141629047Y-116462380D01*
X141724285Y-116462380D01*
X140914761Y-115557619D02*
X140867142Y-115510000D01*
X140771904Y-115462380D01*
X140533809Y-115462380D01*
X140438571Y-115510000D01*
X140390952Y-115557619D01*
X140343333Y-115652857D01*
X140343333Y-115748095D01*
X140390952Y-115890952D01*
X140962380Y-116462380D01*
X140343333Y-116462380D01*
X121283095Y-64082380D02*
X121283095Y-63082380D01*
X121045000Y-63082380D01*
X120902142Y-63130000D01*
X120806904Y-63225238D01*
X120759285Y-63320476D01*
X120711666Y-63510952D01*
X120711666Y-63653809D01*
X120759285Y-63844285D01*
X120806904Y-63939523D01*
X120902142Y-64034761D01*
X121045000Y-64082380D01*
X121283095Y-64082380D01*
X119759285Y-64082380D02*
X120330714Y-64082380D01*
X120045000Y-64082380D02*
X120045000Y-63082380D01*
X120140238Y-63225238D01*
X120235476Y-63320476D01*
X120330714Y-63368095D01*
X139185238Y-73567619D02*
X139280476Y-73520000D01*
X139375714Y-73424761D01*
X139518571Y-73281904D01*
X139613809Y-73234285D01*
X139709047Y-73234285D01*
X139661428Y-73472380D02*
X139756666Y-73424761D01*
X139851904Y-73329523D01*
X139899523Y-73139047D01*
X139899523Y-72805714D01*
X139851904Y-72615238D01*
X139756666Y-72520000D01*
X139661428Y-72472380D01*
X139470952Y-72472380D01*
X139375714Y-72520000D01*
X139280476Y-72615238D01*
X139232857Y-72805714D01*
X139232857Y-73139047D01*
X139280476Y-73329523D01*
X139375714Y-73424761D01*
X139470952Y-73472380D01*
X139661428Y-73472380D01*
X138328095Y-72472380D02*
X138804285Y-72472380D01*
X138851904Y-72948571D01*
X138804285Y-72900952D01*
X138709047Y-72853333D01*
X138470952Y-72853333D01*
X138375714Y-72900952D01*
X138328095Y-72948571D01*
X138280476Y-73043809D01*
X138280476Y-73281904D01*
X138328095Y-73377142D01*
X138375714Y-73424761D01*
X138470952Y-73472380D01*
X138709047Y-73472380D01*
X138804285Y-73424761D01*
X138851904Y-73377142D01*
X140177619Y-83894761D02*
X140130000Y-83799523D01*
X140034761Y-83704285D01*
X139891904Y-83561428D01*
X139844285Y-83466190D01*
X139844285Y-83370952D01*
X140082380Y-83418571D02*
X140034761Y-83323333D01*
X139939523Y-83228095D01*
X139749047Y-83180476D01*
X139415714Y-83180476D01*
X139225238Y-83228095D01*
X139130000Y-83323333D01*
X139082380Y-83418571D01*
X139082380Y-83609047D01*
X139130000Y-83704285D01*
X139225238Y-83799523D01*
X139415714Y-83847142D01*
X139749047Y-83847142D01*
X139939523Y-83799523D01*
X140034761Y-83704285D01*
X140082380Y-83609047D01*
X140082380Y-83418571D01*
X139415714Y-84704285D02*
X140082380Y-84704285D01*
X139034761Y-84466190D02*
X139749047Y-84228095D01*
X139749047Y-84847142D01*
X140077619Y-109894761D02*
X140030000Y-109799523D01*
X139934761Y-109704285D01*
X139791904Y-109561428D01*
X139744285Y-109466190D01*
X139744285Y-109370952D01*
X139982380Y-109418571D02*
X139934761Y-109323333D01*
X139839523Y-109228095D01*
X139649047Y-109180476D01*
X139315714Y-109180476D01*
X139125238Y-109228095D01*
X139030000Y-109323333D01*
X138982380Y-109418571D01*
X138982380Y-109609047D01*
X139030000Y-109704285D01*
X139125238Y-109799523D01*
X139315714Y-109847142D01*
X139649047Y-109847142D01*
X139839523Y-109799523D01*
X139934761Y-109704285D01*
X139982380Y-109609047D01*
X139982380Y-109418571D01*
X138982380Y-110180476D02*
X138982380Y-110799523D01*
X139363333Y-110466190D01*
X139363333Y-110609047D01*
X139410952Y-110704285D01*
X139458571Y-110751904D01*
X139553809Y-110799523D01*
X139791904Y-110799523D01*
X139887142Y-110751904D01*
X139934761Y-110704285D01*
X139982380Y-110609047D01*
X139982380Y-110323333D01*
X139934761Y-110228095D01*
X139887142Y-110180476D01*
X134205238Y-111127619D02*
X134300476Y-111080000D01*
X134395714Y-110984761D01*
X134538571Y-110841904D01*
X134633809Y-110794285D01*
X134729047Y-110794285D01*
X134681428Y-111032380D02*
X134776666Y-110984761D01*
X134871904Y-110889523D01*
X134919523Y-110699047D01*
X134919523Y-110365714D01*
X134871904Y-110175238D01*
X134776666Y-110080000D01*
X134681428Y-110032380D01*
X134490952Y-110032380D01*
X134395714Y-110080000D01*
X134300476Y-110175238D01*
X134252857Y-110365714D01*
X134252857Y-110699047D01*
X134300476Y-110889523D01*
X134395714Y-110984761D01*
X134490952Y-111032380D01*
X134681428Y-111032380D01*
X133871904Y-110127619D02*
X133824285Y-110080000D01*
X133729047Y-110032380D01*
X133490952Y-110032380D01*
X133395714Y-110080000D01*
X133348095Y-110127619D01*
X133300476Y-110222857D01*
X133300476Y-110318095D01*
X133348095Y-110460952D01*
X133919523Y-111032380D01*
X133300476Y-111032380D01*
X97005238Y-111127619D02*
X97100476Y-111080000D01*
X97195714Y-110984761D01*
X97338571Y-110841904D01*
X97433809Y-110794285D01*
X97529047Y-110794285D01*
X97481428Y-111032380D02*
X97576666Y-110984761D01*
X97671904Y-110889523D01*
X97719523Y-110699047D01*
X97719523Y-110365714D01*
X97671904Y-110175238D01*
X97576666Y-110080000D01*
X97481428Y-110032380D01*
X97290952Y-110032380D01*
X97195714Y-110080000D01*
X97100476Y-110175238D01*
X97052857Y-110365714D01*
X97052857Y-110699047D01*
X97100476Y-110889523D01*
X97195714Y-110984761D01*
X97290952Y-111032380D01*
X97481428Y-111032380D01*
X96100476Y-111032380D02*
X96671904Y-111032380D01*
X96386190Y-111032380D02*
X96386190Y-110032380D01*
X96481428Y-110175238D01*
X96576666Y-110270476D01*
X96671904Y-110318095D01*
X95113333Y-71242380D02*
X95113333Y-71956666D01*
X95160952Y-72099523D01*
X95256190Y-72194761D01*
X95399047Y-72242380D01*
X95494285Y-72242380D01*
X94208571Y-71242380D02*
X94399047Y-71242380D01*
X94494285Y-71290000D01*
X94541904Y-71337619D01*
X94637142Y-71480476D01*
X94684761Y-71670952D01*
X94684761Y-72051904D01*
X94637142Y-72147142D01*
X94589523Y-72194761D01*
X94494285Y-72242380D01*
X94303809Y-72242380D01*
X94208571Y-72194761D01*
X94160952Y-72147142D01*
X94113333Y-72051904D01*
X94113333Y-71813809D01*
X94160952Y-71718571D01*
X94208571Y-71670952D01*
X94303809Y-71623333D01*
X94494285Y-71623333D01*
X94589523Y-71670952D01*
X94637142Y-71718571D01*
X94684761Y-71813809D01*
X132503333Y-67092380D02*
X132503333Y-67806666D01*
X132550952Y-67949523D01*
X132646190Y-68044761D01*
X132789047Y-68092380D01*
X132884285Y-68092380D01*
X131550952Y-67092380D02*
X132027142Y-67092380D01*
X132074761Y-67568571D01*
X132027142Y-67520952D01*
X131931904Y-67473333D01*
X131693809Y-67473333D01*
X131598571Y-67520952D01*
X131550952Y-67568571D01*
X131503333Y-67663809D01*
X131503333Y-67901904D01*
X131550952Y-67997142D01*
X131598571Y-68044761D01*
X131693809Y-68092380D01*
X131931904Y-68092380D01*
X132027142Y-68044761D01*
X132074761Y-67997142D01*
X144462380Y-76746666D02*
X145176666Y-76746666D01*
X145319523Y-76699047D01*
X145414761Y-76603809D01*
X145462380Y-76460952D01*
X145462380Y-76365714D01*
X144795714Y-77651428D02*
X145462380Y-77651428D01*
X144414761Y-77413333D02*
X145129047Y-77175238D01*
X145129047Y-77794285D01*
X144462380Y-102746666D02*
X145176666Y-102746666D01*
X145319523Y-102699047D01*
X145414761Y-102603809D01*
X145462380Y-102460952D01*
X145462380Y-102365714D01*
X144462380Y-103127619D02*
X144462380Y-103746666D01*
X144843333Y-103413333D01*
X144843333Y-103556190D01*
X144890952Y-103651428D01*
X144938571Y-103699047D01*
X145033809Y-103746666D01*
X145271904Y-103746666D01*
X145367142Y-103699047D01*
X145414761Y-103651428D01*
X145462380Y-103556190D01*
X145462380Y-103270476D01*
X145414761Y-103175238D01*
X145367142Y-103127619D01*
X104143333Y-115462380D02*
X104143333Y-116176666D01*
X104190952Y-116319523D01*
X104286190Y-116414761D01*
X104429047Y-116462380D01*
X104524285Y-116462380D01*
X103143333Y-116462380D02*
X103714761Y-116462380D01*
X103429047Y-116462380D02*
X103429047Y-115462380D01*
X103524285Y-115605238D01*
X103619523Y-115700476D01*
X103714761Y-115748095D01*
M02*
