G04 #@! TF.GenerationSoftware,KiCad,Pcbnew,6.0.0-unknown-dc56678~86~ubuntu18.04.1*
G04 #@! TF.CreationDate,2019-06-15T15:52:31-04:00*
G04 #@! TF.ProjectId,DPL,44504c2e-6b69-4636-9164-5f7063625858,rev?*
G04 #@! TF.SameCoordinates,Original*
G04 #@! TF.FileFunction,Paste,Top*
G04 #@! TF.FilePolarity,Positive*
%FSLAX46Y46*%
G04 Gerber Fmt 4.6, Leading zero omitted, Abs format (unit mm)*
G04 Created by KiCad (PCBNEW 6.0.0-unknown-dc56678~86~ubuntu18.04.1) date 2019-06-15 15:52:31*
%MOMM*%
%LPD*%
G04 APERTURE LIST*
%ADD10C,0.100000*%
%ADD11C,0.950000*%
%ADD12R,1.750000X1.800000*%
%ADD13C,1.000000*%
%ADD14R,1.840000X2.200000*%
%ADD15R,1.500000X1.000000*%
%ADD16R,1.800000X1.000000*%
%ADD17C,0.850000*%
%ADD18R,1.600000X0.550000*%
%ADD19R,0.550000X1.600000*%
%ADD20C,1.150000*%
%ADD21R,1.175000X1.900000*%
%ADD22R,2.375000X1.900000*%
%ADD23R,1.475000X2.100000*%
%ADD24R,0.450000X1.380000*%
%ADD25R,0.700000X0.600000*%
G04 APERTURE END LIST*
D10*
G36*
X118759100Y-52995533D02*
G01*
X118838997Y-53053581D01*
X118888376Y-53139108D01*
X118900000Y-53212500D01*
X118900000Y-53687500D01*
X118879467Y-53784100D01*
X118821419Y-53863997D01*
X118735892Y-53913376D01*
X118662500Y-53925000D01*
X118087500Y-53925000D01*
X117990900Y-53904467D01*
X117911003Y-53846419D01*
X117861624Y-53760892D01*
X117850000Y-53687500D01*
X117850000Y-53212500D01*
X117870533Y-53115900D01*
X117928581Y-53036003D01*
X118014108Y-52986624D01*
X118087500Y-52975000D01*
X118662500Y-52975000D01*
X118759100Y-52995533D01*
X118759100Y-52995533D01*
G37*
D11*
X118375000Y-53450000D03*
D10*
G36*
X117009100Y-52995533D02*
G01*
X117088997Y-53053581D01*
X117138376Y-53139108D01*
X117150000Y-53212500D01*
X117150000Y-53687500D01*
X117129467Y-53784100D01*
X117071419Y-53863997D01*
X116985892Y-53913376D01*
X116912500Y-53925000D01*
X116337500Y-53925000D01*
X116240900Y-53904467D01*
X116161003Y-53846419D01*
X116111624Y-53760892D01*
X116100000Y-53687500D01*
X116100000Y-53212500D01*
X116120533Y-53115900D01*
X116178581Y-53036003D01*
X116264108Y-52986624D01*
X116337500Y-52975000D01*
X116912500Y-52975000D01*
X117009100Y-52995533D01*
X117009100Y-52995533D01*
G37*
D11*
X116625000Y-53450000D03*
D12*
X122150000Y-90600000D03*
X118900000Y-90600000D03*
D13*
X100566200Y-97600000D03*
D10*
G36*
X100066200Y-96500000D02*
G01*
X101066200Y-97200000D01*
X101066200Y-98000000D01*
X100066200Y-98700000D01*
X100066200Y-96500000D01*
X100066200Y-96500000D01*
G37*
D14*
X99156500Y-97600000D03*
D15*
X101970000Y-96100000D03*
D16*
X101823500Y-97600000D03*
D15*
X101970000Y-99100000D03*
D17*
X97823000Y-97600000D03*
D10*
G36*
X98248000Y-98700000D02*
G01*
X97398000Y-98100000D01*
X97398000Y-97100000D01*
X98248000Y-96500000D01*
X98248000Y-98700000D01*
X98248000Y-98700000D01*
G37*
D18*
X118675000Y-86650000D03*
X118675000Y-85850000D03*
X118675000Y-85050000D03*
X118675000Y-84250000D03*
X118675000Y-83450000D03*
X118675000Y-82650000D03*
X118675000Y-81850000D03*
X118675000Y-81050000D03*
D19*
X120125000Y-79600000D03*
X120925000Y-79600000D03*
X121725000Y-79600000D03*
X122525000Y-79600000D03*
X123325000Y-79600000D03*
X124125000Y-79600000D03*
X124925000Y-79600000D03*
X125725000Y-79600000D03*
D18*
X127175000Y-81050000D03*
X127175000Y-81850000D03*
X127175000Y-82650000D03*
X127175000Y-83450000D03*
X127175000Y-84250000D03*
X127175000Y-85050000D03*
X127175000Y-85850000D03*
X127175000Y-86650000D03*
D19*
X125725000Y-88100000D03*
X124925000Y-88100000D03*
X124125000Y-88100000D03*
X123325000Y-88100000D03*
X122525000Y-88100000D03*
X121725000Y-88100000D03*
X120925000Y-88100000D03*
X120125000Y-88100000D03*
D10*
G36*
X133045671Y-85819030D02*
G01*
X133126777Y-85873223D01*
X133180970Y-85954329D01*
X133200000Y-86049999D01*
X133200000Y-86700001D01*
X133180970Y-86795671D01*
X133126777Y-86876777D01*
X133045671Y-86930970D01*
X132950001Y-86950000D01*
X132049999Y-86950000D01*
X131954329Y-86930970D01*
X131873223Y-86876777D01*
X131819030Y-86795671D01*
X131800000Y-86700001D01*
X131800000Y-86049999D01*
X131819030Y-85954329D01*
X131873223Y-85873223D01*
X131954329Y-85819030D01*
X132049999Y-85800000D01*
X132950001Y-85800000D01*
X133045671Y-85819030D01*
X133045671Y-85819030D01*
G37*
D20*
X132500000Y-86375000D03*
D10*
G36*
X133045671Y-87869030D02*
G01*
X133126777Y-87923223D01*
X133180970Y-88004329D01*
X133200000Y-88099999D01*
X133200000Y-88750001D01*
X133180970Y-88845671D01*
X133126777Y-88926777D01*
X133045671Y-88980970D01*
X132950001Y-89000000D01*
X132049999Y-89000000D01*
X131954329Y-88980970D01*
X131873223Y-88926777D01*
X131819030Y-88845671D01*
X131800000Y-88750001D01*
X131800000Y-88099999D01*
X131819030Y-88004329D01*
X131873223Y-87923223D01*
X131954329Y-87869030D01*
X132049999Y-87850000D01*
X132950001Y-87850000D01*
X133045671Y-87869030D01*
X133045671Y-87869030D01*
G37*
D20*
X132500000Y-88425000D03*
D21*
X119360000Y-48650000D03*
X121040000Y-48650000D03*
D22*
X117290000Y-48650000D03*
X123110000Y-48650000D03*
D23*
X117737500Y-50950000D03*
X122662500Y-50950000D03*
D24*
X118900000Y-51310000D03*
X119550000Y-51310000D03*
X120200000Y-51310000D03*
X120850000Y-51310000D03*
X121500000Y-51310000D03*
D25*
X116600000Y-75150000D03*
X116600000Y-76550000D03*
D10*
G36*
X105959100Y-95445533D02*
G01*
X106038997Y-95503581D01*
X106088376Y-95589108D01*
X106100000Y-95662500D01*
X106100000Y-96137500D01*
X106079467Y-96234100D01*
X106021419Y-96313997D01*
X105935892Y-96363376D01*
X105862500Y-96375000D01*
X105287500Y-96375000D01*
X105190900Y-96354467D01*
X105111003Y-96296419D01*
X105061624Y-96210892D01*
X105050000Y-96137500D01*
X105050000Y-95662500D01*
X105070533Y-95565900D01*
X105128581Y-95486003D01*
X105214108Y-95436624D01*
X105287500Y-95425000D01*
X105862500Y-95425000D01*
X105959100Y-95445533D01*
X105959100Y-95445533D01*
G37*
D11*
X105575000Y-95900000D03*
D10*
G36*
X104209100Y-95445533D02*
G01*
X104288997Y-95503581D01*
X104338376Y-95589108D01*
X104350000Y-95662500D01*
X104350000Y-96137500D01*
X104329467Y-96234100D01*
X104271419Y-96313997D01*
X104185892Y-96363376D01*
X104112500Y-96375000D01*
X103537500Y-96375000D01*
X103440900Y-96354467D01*
X103361003Y-96296419D01*
X103311624Y-96210892D01*
X103300000Y-96137500D01*
X103300000Y-95662500D01*
X103320533Y-95565900D01*
X103378581Y-95486003D01*
X103464108Y-95436624D01*
X103537500Y-95425000D01*
X104112500Y-95425000D01*
X104209100Y-95445533D01*
X104209100Y-95445533D01*
G37*
D11*
X103825000Y-95900000D03*
D10*
G36*
X104134100Y-98720533D02*
G01*
X104213997Y-98778581D01*
X104263376Y-98864108D01*
X104275000Y-98937500D01*
X104275000Y-99512500D01*
X104254467Y-99609100D01*
X104196419Y-99688997D01*
X104110892Y-99738376D01*
X104037500Y-99750000D01*
X103562500Y-99750000D01*
X103465900Y-99729467D01*
X103386003Y-99671419D01*
X103336624Y-99585892D01*
X103325000Y-99512500D01*
X103325000Y-98937500D01*
X103345533Y-98840900D01*
X103403581Y-98761003D01*
X103489108Y-98711624D01*
X103562500Y-98700000D01*
X104037500Y-98700000D01*
X104134100Y-98720533D01*
X104134100Y-98720533D01*
G37*
D11*
X103800000Y-99225000D03*
D10*
G36*
X104134100Y-96970533D02*
G01*
X104213997Y-97028581D01*
X104263376Y-97114108D01*
X104275000Y-97187500D01*
X104275000Y-97762500D01*
X104254467Y-97859100D01*
X104196419Y-97938997D01*
X104110892Y-97988376D01*
X104037500Y-98000000D01*
X103562500Y-98000000D01*
X103465900Y-97979467D01*
X103386003Y-97921419D01*
X103336624Y-97835892D01*
X103325000Y-97762500D01*
X103325000Y-97187500D01*
X103345533Y-97090900D01*
X103403581Y-97011003D01*
X103489108Y-96961624D01*
X103562500Y-96950000D01*
X104037500Y-96950000D01*
X104134100Y-96970533D01*
X104134100Y-96970533D01*
G37*
D11*
X103800000Y-97475000D03*
D10*
G36*
X114259100Y-86595533D02*
G01*
X114338997Y-86653581D01*
X114388376Y-86739108D01*
X114400000Y-86812500D01*
X114400000Y-87287500D01*
X114379467Y-87384100D01*
X114321419Y-87463997D01*
X114235892Y-87513376D01*
X114162500Y-87525000D01*
X113587500Y-87525000D01*
X113490900Y-87504467D01*
X113411003Y-87446419D01*
X113361624Y-87360892D01*
X113350000Y-87287500D01*
X113350000Y-86812500D01*
X113370533Y-86715900D01*
X113428581Y-86636003D01*
X113514108Y-86586624D01*
X113587500Y-86575000D01*
X114162500Y-86575000D01*
X114259100Y-86595533D01*
X114259100Y-86595533D01*
G37*
D11*
X113875000Y-87050000D03*
D10*
G36*
X116009100Y-86595533D02*
G01*
X116088997Y-86653581D01*
X116138376Y-86739108D01*
X116150000Y-86812500D01*
X116150000Y-87287500D01*
X116129467Y-87384100D01*
X116071419Y-87463997D01*
X115985892Y-87513376D01*
X115912500Y-87525000D01*
X115337500Y-87525000D01*
X115240900Y-87504467D01*
X115161003Y-87446419D01*
X115111624Y-87360892D01*
X115100000Y-87287500D01*
X115100000Y-86812500D01*
X115120533Y-86715900D01*
X115178581Y-86636003D01*
X115264108Y-86586624D01*
X115337500Y-86575000D01*
X115912500Y-86575000D01*
X116009100Y-86595533D01*
X116009100Y-86595533D01*
G37*
D11*
X115625000Y-87050000D03*
D10*
G36*
X114259100Y-85045533D02*
G01*
X114338997Y-85103581D01*
X114388376Y-85189108D01*
X114400000Y-85262500D01*
X114400000Y-85737500D01*
X114379467Y-85834100D01*
X114321419Y-85913997D01*
X114235892Y-85963376D01*
X114162500Y-85975000D01*
X113587500Y-85975000D01*
X113490900Y-85954467D01*
X113411003Y-85896419D01*
X113361624Y-85810892D01*
X113350000Y-85737500D01*
X113350000Y-85262500D01*
X113370533Y-85165900D01*
X113428581Y-85086003D01*
X113514108Y-85036624D01*
X113587500Y-85025000D01*
X114162500Y-85025000D01*
X114259100Y-85045533D01*
X114259100Y-85045533D01*
G37*
D11*
X113875000Y-85500000D03*
D10*
G36*
X116009100Y-85045533D02*
G01*
X116088997Y-85103581D01*
X116138376Y-85189108D01*
X116150000Y-85262500D01*
X116150000Y-85737500D01*
X116129467Y-85834100D01*
X116071419Y-85913997D01*
X115985892Y-85963376D01*
X115912500Y-85975000D01*
X115337500Y-85975000D01*
X115240900Y-85954467D01*
X115161003Y-85896419D01*
X115111624Y-85810892D01*
X115100000Y-85737500D01*
X115100000Y-85262500D01*
X115120533Y-85165900D01*
X115178581Y-85086003D01*
X115264108Y-85036624D01*
X115337500Y-85025000D01*
X115912500Y-85025000D01*
X116009100Y-85045533D01*
X116009100Y-85045533D01*
G37*
D11*
X115625000Y-85500000D03*
D10*
G36*
X131084100Y-85820533D02*
G01*
X131163997Y-85878581D01*
X131213376Y-85964108D01*
X131225000Y-86037500D01*
X131225000Y-86612500D01*
X131204467Y-86709100D01*
X131146419Y-86788997D01*
X131060892Y-86838376D01*
X130987500Y-86850000D01*
X130512500Y-86850000D01*
X130415900Y-86829467D01*
X130336003Y-86771419D01*
X130286624Y-86685892D01*
X130275000Y-86612500D01*
X130275000Y-86037500D01*
X130295533Y-85940900D01*
X130353581Y-85861003D01*
X130439108Y-85811624D01*
X130512500Y-85800000D01*
X130987500Y-85800000D01*
X131084100Y-85820533D01*
X131084100Y-85820533D01*
G37*
D11*
X130750000Y-86325000D03*
D10*
G36*
X131084100Y-87570533D02*
G01*
X131163997Y-87628581D01*
X131213376Y-87714108D01*
X131225000Y-87787500D01*
X131225000Y-88362500D01*
X131204467Y-88459100D01*
X131146419Y-88538997D01*
X131060892Y-88588376D01*
X130987500Y-88600000D01*
X130512500Y-88600000D01*
X130415900Y-88579467D01*
X130336003Y-88521419D01*
X130286624Y-88435892D01*
X130275000Y-88362500D01*
X130275000Y-87787500D01*
X130295533Y-87690900D01*
X130353581Y-87611003D01*
X130439108Y-87561624D01*
X130512500Y-87550000D01*
X130987500Y-87550000D01*
X131084100Y-87570533D01*
X131084100Y-87570533D01*
G37*
D11*
X130750000Y-88075000D03*
D10*
G36*
X129384100Y-85820533D02*
G01*
X129463997Y-85878581D01*
X129513376Y-85964108D01*
X129525000Y-86037500D01*
X129525000Y-86612500D01*
X129504467Y-86709100D01*
X129446419Y-86788997D01*
X129360892Y-86838376D01*
X129287500Y-86850000D01*
X128812500Y-86850000D01*
X128715900Y-86829467D01*
X128636003Y-86771419D01*
X128586624Y-86685892D01*
X128575000Y-86612500D01*
X128575000Y-86037500D01*
X128595533Y-85940900D01*
X128653581Y-85861003D01*
X128739108Y-85811624D01*
X128812500Y-85800000D01*
X129287500Y-85800000D01*
X129384100Y-85820533D01*
X129384100Y-85820533D01*
G37*
D11*
X129050000Y-86325000D03*
D10*
G36*
X129384100Y-87570533D02*
G01*
X129463997Y-87628581D01*
X129513376Y-87714108D01*
X129525000Y-87787500D01*
X129525000Y-88362500D01*
X129504467Y-88459100D01*
X129446419Y-88538997D01*
X129360892Y-88588376D01*
X129287500Y-88600000D01*
X128812500Y-88600000D01*
X128715900Y-88579467D01*
X128636003Y-88521419D01*
X128586624Y-88435892D01*
X128575000Y-88362500D01*
X128575000Y-87787500D01*
X128595533Y-87690900D01*
X128653581Y-87611003D01*
X128739108Y-87561624D01*
X128812500Y-87550000D01*
X129287500Y-87550000D01*
X129384100Y-87570533D01*
X129384100Y-87570533D01*
G37*
D11*
X129050000Y-88075000D03*
D10*
G36*
X122484100Y-93920533D02*
G01*
X122563997Y-93978581D01*
X122613376Y-94064108D01*
X122625000Y-94137500D01*
X122625000Y-94712500D01*
X122604467Y-94809100D01*
X122546419Y-94888997D01*
X122460892Y-94938376D01*
X122387500Y-94950000D01*
X121912500Y-94950000D01*
X121815900Y-94929467D01*
X121736003Y-94871419D01*
X121686624Y-94785892D01*
X121675000Y-94712500D01*
X121675000Y-94137500D01*
X121695533Y-94040900D01*
X121753581Y-93961003D01*
X121839108Y-93911624D01*
X121912500Y-93900000D01*
X122387500Y-93900000D01*
X122484100Y-93920533D01*
X122484100Y-93920533D01*
G37*
D11*
X122150000Y-94425000D03*
D10*
G36*
X122484100Y-92170533D02*
G01*
X122563997Y-92228581D01*
X122613376Y-92314108D01*
X122625000Y-92387500D01*
X122625000Y-92962500D01*
X122604467Y-93059100D01*
X122546419Y-93138997D01*
X122460892Y-93188376D01*
X122387500Y-93200000D01*
X121912500Y-93200000D01*
X121815900Y-93179467D01*
X121736003Y-93121419D01*
X121686624Y-93035892D01*
X121675000Y-92962500D01*
X121675000Y-92387500D01*
X121695533Y-92290900D01*
X121753581Y-92211003D01*
X121839108Y-92161624D01*
X121912500Y-92150000D01*
X122387500Y-92150000D01*
X122484100Y-92170533D01*
X122484100Y-92170533D01*
G37*
D11*
X122150000Y-92675000D03*
D10*
G36*
X119234100Y-93920533D02*
G01*
X119313997Y-93978581D01*
X119363376Y-94064108D01*
X119375000Y-94137500D01*
X119375000Y-94712500D01*
X119354467Y-94809100D01*
X119296419Y-94888997D01*
X119210892Y-94938376D01*
X119137500Y-94950000D01*
X118662500Y-94950000D01*
X118565900Y-94929467D01*
X118486003Y-94871419D01*
X118436624Y-94785892D01*
X118425000Y-94712500D01*
X118425000Y-94137500D01*
X118445533Y-94040900D01*
X118503581Y-93961003D01*
X118589108Y-93911624D01*
X118662500Y-93900000D01*
X119137500Y-93900000D01*
X119234100Y-93920533D01*
X119234100Y-93920533D01*
G37*
D11*
X118900000Y-94425000D03*
D10*
G36*
X119234100Y-92170533D02*
G01*
X119313997Y-92228581D01*
X119363376Y-92314108D01*
X119375000Y-92387500D01*
X119375000Y-92962500D01*
X119354467Y-93059100D01*
X119296419Y-93138997D01*
X119210892Y-93188376D01*
X119137500Y-93200000D01*
X118662500Y-93200000D01*
X118565900Y-93179467D01*
X118486003Y-93121419D01*
X118436624Y-93035892D01*
X118425000Y-92962500D01*
X118425000Y-92387500D01*
X118445533Y-92290900D01*
X118503581Y-92211003D01*
X118589108Y-92161624D01*
X118662500Y-92150000D01*
X119137500Y-92150000D01*
X119234100Y-92170533D01*
X119234100Y-92170533D01*
G37*
D11*
X118900000Y-92675000D03*
D10*
G36*
X115534100Y-81620533D02*
G01*
X115613997Y-81678581D01*
X115663376Y-81764108D01*
X115675000Y-81837500D01*
X115675000Y-82412500D01*
X115654467Y-82509100D01*
X115596419Y-82588997D01*
X115510892Y-82638376D01*
X115437500Y-82650000D01*
X114962500Y-82650000D01*
X114865900Y-82629467D01*
X114786003Y-82571419D01*
X114736624Y-82485892D01*
X114725000Y-82412500D01*
X114725000Y-81837500D01*
X114745533Y-81740900D01*
X114803581Y-81661003D01*
X114889108Y-81611624D01*
X114962500Y-81600000D01*
X115437500Y-81600000D01*
X115534100Y-81620533D01*
X115534100Y-81620533D01*
G37*
D11*
X115200000Y-82125000D03*
D10*
G36*
X115534100Y-83370533D02*
G01*
X115613997Y-83428581D01*
X115663376Y-83514108D01*
X115675000Y-83587500D01*
X115675000Y-84162500D01*
X115654467Y-84259100D01*
X115596419Y-84338997D01*
X115510892Y-84388376D01*
X115437500Y-84400000D01*
X114962500Y-84400000D01*
X114865900Y-84379467D01*
X114786003Y-84321419D01*
X114736624Y-84235892D01*
X114725000Y-84162500D01*
X114725000Y-83587500D01*
X114745533Y-83490900D01*
X114803581Y-83411003D01*
X114889108Y-83361624D01*
X114962500Y-83350000D01*
X115437500Y-83350000D01*
X115534100Y-83370533D01*
X115534100Y-83370533D01*
G37*
D11*
X115200000Y-83875000D03*
D10*
G36*
X118759100Y-54545533D02*
G01*
X118838997Y-54603581D01*
X118888376Y-54689108D01*
X118900000Y-54762500D01*
X118900000Y-55237500D01*
X118879467Y-55334100D01*
X118821419Y-55413997D01*
X118735892Y-55463376D01*
X118662500Y-55475000D01*
X118087500Y-55475000D01*
X117990900Y-55454467D01*
X117911003Y-55396419D01*
X117861624Y-55310892D01*
X117850000Y-55237500D01*
X117850000Y-54762500D01*
X117870533Y-54665900D01*
X117928581Y-54586003D01*
X118014108Y-54536624D01*
X118087500Y-54525000D01*
X118662500Y-54525000D01*
X118759100Y-54545533D01*
X118759100Y-54545533D01*
G37*
D11*
X118375000Y-55000000D03*
D10*
G36*
X117009100Y-54545533D02*
G01*
X117088997Y-54603581D01*
X117138376Y-54689108D01*
X117150000Y-54762500D01*
X117150000Y-55237500D01*
X117129467Y-55334100D01*
X117071419Y-55413997D01*
X116985892Y-55463376D01*
X116912500Y-55475000D01*
X116337500Y-55475000D01*
X116240900Y-55454467D01*
X116161003Y-55396419D01*
X116111624Y-55310892D01*
X116100000Y-55237500D01*
X116100000Y-54762500D01*
X116120533Y-54665900D01*
X116178581Y-54586003D01*
X116264108Y-54536624D01*
X116337500Y-54525000D01*
X116912500Y-54525000D01*
X117009100Y-54545533D01*
X117009100Y-54545533D01*
G37*
D11*
X116625000Y-55000000D03*
M02*
