G04 #@! TF.GenerationSoftware,KiCad,Pcbnew,6.0.0-unknown-dc56678~86~ubuntu18.04.1*
G04 #@! TF.CreationDate,2019-06-15T15:52:31-04:00*
G04 #@! TF.ProjectId,DPL,44504c2e-6b69-4636-9164-5f7063625858,rev?*
G04 #@! TF.SameCoordinates,Original*
G04 #@! TF.FileFunction,Legend,Top*
G04 #@! TF.FilePolarity,Positive*
%FSLAX46Y46*%
G04 Gerber Fmt 4.6, Leading zero omitted, Abs format (unit mm)*
G04 Created by KiCad (PCBNEW 6.0.0-unknown-dc56678~86~ubuntu18.04.1) date 2019-06-15 15:52:31*
%MOMM*%
%LPD*%
G04 APERTURE LIST*
%ADD10C,0.120000*%
%ADD11C,0.200000*%
%ADD12C,0.150000*%
G04 APERTURE END LIST*
D10*
X93330000Y-88710000D02*
X92000000Y-88710000D01*
X93330000Y-87380000D02*
X93330000Y-88710000D01*
X93330000Y-86110000D02*
X90670000Y-86110000D01*
X90670000Y-86110000D02*
X90670000Y-75890000D01*
X93330000Y-86110000D02*
X93330000Y-75890000D01*
X93330000Y-75890000D02*
X90670000Y-75890000D01*
X110250000Y-125930000D02*
X110250000Y-126700000D01*
X110250000Y-134010000D02*
X110250000Y-133240000D01*
X108880000Y-126700000D02*
X108880000Y-133240000D01*
X111620000Y-126700000D02*
X108880000Y-126700000D01*
X111620000Y-133240000D02*
X111620000Y-126700000D01*
X108880000Y-133240000D02*
X111620000Y-133240000D01*
D11*
X168935000Y-52805000D02*
G75*
G03X168935000Y-52805000I-3200000J0D01*
G01*
X168935000Y-132815000D02*
G75*
G03X168935000Y-132815000I-3200000J0D01*
G01*
X83205000Y-129005000D02*
G75*
G03X83205000Y-129005000I-3200000J0D01*
G01*
X83205000Y-55345000D02*
G75*
G03X83205000Y-55345000I-3200000J0D01*
G01*
X83795000Y-59155000D02*
X83795000Y-125195000D01*
X78715000Y-125195000D02*
X78715000Y-59155000D01*
X88875000Y-125195000D02*
X78715000Y-125195000D01*
X88875000Y-59155000D02*
X88875000Y-125195000D01*
X78715000Y-59155000D02*
X88875000Y-59155000D01*
D10*
X103030000Y-90820000D02*
X103030000Y-92150000D01*
X101700000Y-90820000D02*
X103030000Y-90820000D01*
X100430000Y-90820000D02*
X100430000Y-93480000D01*
X100430000Y-93480000D02*
X95290000Y-93480000D01*
X100430000Y-90820000D02*
X95290000Y-90820000D01*
X95290000Y-90820000D02*
X95290000Y-93480000D01*
X105800000Y-53700000D02*
X103840000Y-53700000D01*
X92640000Y-53700000D02*
X94600000Y-53700000D01*
X103840000Y-51980000D02*
X94600000Y-51980000D01*
X103840000Y-55420000D02*
X103840000Y-51980000D01*
X94600000Y-55420000D02*
X103840000Y-55420000D01*
X94600000Y-51980000D02*
X94600000Y-55420000D01*
X130400000Y-49150000D02*
X132360000Y-49150000D01*
X143560000Y-49150000D02*
X141600000Y-49150000D01*
X132360000Y-50870000D02*
X141600000Y-50870000D01*
X132360000Y-47430000D02*
X132360000Y-50870000D01*
X141600000Y-47430000D02*
X132360000Y-47430000D01*
X141600000Y-50870000D02*
X141600000Y-47430000D01*
X163850000Y-88300000D02*
X163850000Y-86340000D01*
X163850000Y-75140000D02*
X163850000Y-77100000D01*
X165570000Y-86340000D02*
X165570000Y-77100000D01*
X162130000Y-86340000D02*
X165570000Y-86340000D01*
X162130000Y-77100000D02*
X162130000Y-86340000D01*
X165570000Y-77100000D02*
X162130000Y-77100000D01*
X164050000Y-101150000D02*
X164050000Y-103110000D01*
X164050000Y-114310000D02*
X164050000Y-112350000D01*
X162330000Y-103110000D02*
X162330000Y-112350000D01*
X165770000Y-103110000D02*
X162330000Y-103110000D01*
X165770000Y-112350000D02*
X165770000Y-103110000D01*
X162330000Y-112350000D02*
X165770000Y-112350000D01*
X130300000Y-135050000D02*
X132260000Y-135050000D01*
X143460000Y-135050000D02*
X141500000Y-135050000D01*
X132260000Y-136770000D02*
X141500000Y-136770000D01*
X132260000Y-133330000D02*
X132260000Y-136770000D01*
X141500000Y-133330000D02*
X132260000Y-133330000D01*
X141500000Y-136770000D02*
X141500000Y-133330000D01*
X106550000Y-135050000D02*
X104590000Y-135050000D01*
X93390000Y-135050000D02*
X95350000Y-135050000D01*
X104590000Y-133330000D02*
X95350000Y-133330000D01*
X104590000Y-136770000D02*
X104590000Y-133330000D01*
X95350000Y-136770000D02*
X104590000Y-136770000D01*
X95350000Y-133330000D02*
X95350000Y-136770000D01*
X117328733Y-53960000D02*
X117671267Y-53960000D01*
X117328733Y-52940000D02*
X117671267Y-52940000D01*
X117825000Y-89700000D02*
X117825000Y-91500000D01*
X119975000Y-91550000D02*
X121075000Y-91550000D01*
X119975000Y-89650000D02*
X121075000Y-89650000D01*
X98710000Y-100000000D02*
X98710000Y-98800000D01*
X102710000Y-100000000D02*
X98710000Y-100000000D01*
X98710000Y-95200000D02*
X101410000Y-95200000D01*
X98710000Y-96400000D02*
X98710000Y-95200000D01*
D12*
X119525000Y-87475000D02*
X119525000Y-88900000D01*
X119300000Y-80225000D02*
X119300000Y-80550000D01*
X126550000Y-80225000D02*
X126550000Y-80550000D01*
X126550000Y-87475000D02*
X126550000Y-87150000D01*
X119300000Y-87475000D02*
X119300000Y-87150000D01*
X126550000Y-87475000D02*
X126225000Y-87475000D01*
X126550000Y-80225000D02*
X126225000Y-80225000D01*
X119300000Y-80225000D02*
X119625000Y-80225000D01*
X119300000Y-87475000D02*
X119525000Y-87475000D01*
D10*
X112870000Y-50050000D02*
X112100000Y-50050000D01*
X104790000Y-50050000D02*
X105560000Y-50050000D01*
X112100000Y-48680000D02*
X105560000Y-48680000D01*
X112100000Y-51420000D02*
X112100000Y-48680000D01*
X105560000Y-51420000D02*
X112100000Y-51420000D01*
X105560000Y-48680000D02*
X105560000Y-51420000D01*
X126700000Y-58270000D02*
X126700000Y-57500000D01*
X126700000Y-50190000D02*
X126700000Y-50960000D01*
X128070000Y-57500000D02*
X128070000Y-50960000D01*
X125330000Y-57500000D02*
X128070000Y-57500000D01*
X125330000Y-50960000D02*
X125330000Y-57500000D01*
X128070000Y-50960000D02*
X125330000Y-50960000D01*
X154730000Y-92000000D02*
X155500000Y-92000000D01*
X162810000Y-92000000D02*
X162040000Y-92000000D01*
X155500000Y-93370000D02*
X162040000Y-93370000D01*
X155500000Y-90630000D02*
X155500000Y-93370000D01*
X162040000Y-90630000D02*
X155500000Y-90630000D01*
X162040000Y-93370000D02*
X162040000Y-90630000D01*
X154930000Y-97450000D02*
X155700000Y-97450000D01*
X163010000Y-97450000D02*
X162240000Y-97450000D01*
X155700000Y-98820000D02*
X162240000Y-98820000D01*
X155700000Y-96080000D02*
X155700000Y-98820000D01*
X162240000Y-96080000D02*
X155700000Y-96080000D01*
X162240000Y-98820000D02*
X162240000Y-96080000D01*
X125000000Y-125930000D02*
X125000000Y-126700000D01*
X125000000Y-134010000D02*
X125000000Y-133240000D01*
X123630000Y-126700000D02*
X123630000Y-133240000D01*
X126370000Y-126700000D02*
X123630000Y-126700000D01*
X126370000Y-133240000D02*
X126370000Y-126700000D01*
X123630000Y-133240000D02*
X126370000Y-133240000D01*
X97380000Y-84840000D02*
X98150000Y-84840000D01*
X105460000Y-84840000D02*
X104690000Y-84840000D01*
X98150000Y-86210000D02*
X104690000Y-86210000D01*
X98150000Y-83470000D02*
X98150000Y-86210000D01*
X104690000Y-83470000D02*
X98150000Y-83470000D01*
X104690000Y-86210000D02*
X104690000Y-83470000D01*
X133210000Y-87661252D02*
X133210000Y-87138748D01*
X131790000Y-87661252D02*
X131790000Y-87138748D01*
X124010000Y-47250000D02*
X124010000Y-47510000D01*
X124010000Y-49790000D02*
X124010000Y-51560000D01*
X124010000Y-51560000D02*
X123630000Y-51560000D01*
X116390000Y-51560000D02*
X116390000Y-49790000D01*
X116390000Y-47510000D02*
X116390000Y-47250000D01*
X116390000Y-51560000D02*
X116770000Y-51560000D01*
X116000000Y-76550000D02*
X116000000Y-74700000D01*
X117200000Y-76550000D02*
X117200000Y-74700000D01*
X117200000Y-74700000D02*
X116000000Y-74700000D01*
X104528733Y-96410000D02*
X104871267Y-96410000D01*
X104528733Y-95390000D02*
X104871267Y-95390000D01*
X103290000Y-98178733D02*
X103290000Y-98521267D01*
X104310000Y-98178733D02*
X104310000Y-98521267D01*
X114921267Y-86540000D02*
X114578733Y-86540000D01*
X114921267Y-87560000D02*
X114578733Y-87560000D01*
X114921267Y-84990000D02*
X114578733Y-84990000D01*
X114921267Y-86010000D02*
X114578733Y-86010000D01*
X131260000Y-87371267D02*
X131260000Y-87028733D01*
X130240000Y-87371267D02*
X130240000Y-87028733D01*
X129560000Y-87371267D02*
X129560000Y-87028733D01*
X128540000Y-87371267D02*
X128540000Y-87028733D01*
X121640000Y-93378733D02*
X121640000Y-93721267D01*
X122660000Y-93378733D02*
X122660000Y-93721267D01*
X118390000Y-93378733D02*
X118390000Y-93721267D01*
X119410000Y-93378733D02*
X119410000Y-93721267D01*
X115710000Y-83171267D02*
X115710000Y-82828733D01*
X114690000Y-83171267D02*
X114690000Y-82828733D01*
X117328733Y-55510000D02*
X117671267Y-55510000D01*
X117328733Y-54490000D02*
X117671267Y-54490000D01*
D12*
X91666666Y-89162380D02*
X91666666Y-89876666D01*
X91619047Y-90019523D01*
X91523809Y-90114761D01*
X91380952Y-90162380D01*
X91285714Y-90162380D01*
X92333333Y-89162380D02*
X92428571Y-89162380D01*
X92523809Y-89210000D01*
X92571428Y-89257619D01*
X92619047Y-89352857D01*
X92666666Y-89543333D01*
X92666666Y-89781428D01*
X92619047Y-89971904D01*
X92571428Y-90067142D01*
X92523809Y-90114761D01*
X92428571Y-90162380D01*
X92333333Y-90162380D01*
X92238095Y-90114761D01*
X92190476Y-90067142D01*
X92142857Y-89971904D01*
X92095238Y-89781428D01*
X92095238Y-89543333D01*
X92142857Y-89352857D01*
X92190476Y-89257619D01*
X92238095Y-89210000D01*
X92333333Y-89162380D01*
X110722380Y-130136666D02*
X110246190Y-130470000D01*
X110722380Y-130708095D02*
X109722380Y-130708095D01*
X109722380Y-130327142D01*
X109770000Y-130231904D01*
X109817619Y-130184285D01*
X109912857Y-130136666D01*
X110055714Y-130136666D01*
X110150952Y-130184285D01*
X110198571Y-130231904D01*
X110246190Y-130327142D01*
X110246190Y-130708095D01*
X110722380Y-129184285D02*
X110722380Y-129755714D01*
X110722380Y-129470000D02*
X109722380Y-129470000D01*
X109865238Y-129565238D01*
X109960476Y-129660476D01*
X110008095Y-129755714D01*
X79243095Y-50987380D02*
X79243095Y-51796904D01*
X79290714Y-51892142D01*
X79338333Y-51939761D01*
X79433571Y-51987380D01*
X79624047Y-51987380D01*
X79719285Y-51939761D01*
X79766904Y-51892142D01*
X79814523Y-51796904D01*
X79814523Y-50987380D01*
X80814523Y-51987380D02*
X80243095Y-51987380D01*
X80528809Y-51987380D02*
X80528809Y-50987380D01*
X80433571Y-51130238D01*
X80338333Y-51225476D01*
X80243095Y-51273095D01*
X103482380Y-92983333D02*
X104196666Y-92983333D01*
X104339523Y-93030952D01*
X104434761Y-93126190D01*
X104482380Y-93269047D01*
X104482380Y-93364285D01*
X104482380Y-92507142D02*
X103482380Y-92507142D01*
X103482380Y-92126190D01*
X103530000Y-92030952D01*
X103577619Y-91983333D01*
X103672857Y-91935714D01*
X103815714Y-91935714D01*
X103910952Y-91983333D01*
X103958571Y-92030952D01*
X104006190Y-92126190D01*
X104006190Y-92507142D01*
X104482380Y-90983333D02*
X104482380Y-91554761D01*
X104482380Y-91269047D02*
X103482380Y-91269047D01*
X103625238Y-91364285D01*
X103720476Y-91459523D01*
X103768095Y-91554761D01*
X97916666Y-54104761D02*
X98059523Y-54152380D01*
X98297619Y-54152380D01*
X98392857Y-54104761D01*
X98440476Y-54057142D01*
X98488095Y-53961904D01*
X98488095Y-53866666D01*
X98440476Y-53771428D01*
X98392857Y-53723809D01*
X98297619Y-53676190D01*
X98107142Y-53628571D01*
X98011904Y-53580952D01*
X97964285Y-53533333D01*
X97916666Y-53438095D01*
X97916666Y-53342857D01*
X97964285Y-53247619D01*
X98011904Y-53200000D01*
X98107142Y-53152380D01*
X98345238Y-53152380D01*
X98488095Y-53200000D01*
X98821428Y-53152380D02*
X99059523Y-54152380D01*
X99250000Y-53438095D01*
X99440476Y-54152380D01*
X99678571Y-53152380D01*
X100488095Y-53152380D02*
X100297619Y-53152380D01*
X100202380Y-53200000D01*
X100154761Y-53247619D01*
X100059523Y-53390476D01*
X100011904Y-53580952D01*
X100011904Y-53961904D01*
X100059523Y-54057142D01*
X100107142Y-54104761D01*
X100202380Y-54152380D01*
X100392857Y-54152380D01*
X100488095Y-54104761D01*
X100535714Y-54057142D01*
X100583333Y-53961904D01*
X100583333Y-53723809D01*
X100535714Y-53628571D01*
X100488095Y-53580952D01*
X100392857Y-53533333D01*
X100202380Y-53533333D01*
X100107142Y-53580952D01*
X100059523Y-53628571D01*
X100011904Y-53723809D01*
X135646666Y-49604761D02*
X135789523Y-49652380D01*
X136027619Y-49652380D01*
X136122857Y-49604761D01*
X136170476Y-49557142D01*
X136218095Y-49461904D01*
X136218095Y-49366666D01*
X136170476Y-49271428D01*
X136122857Y-49223809D01*
X136027619Y-49176190D01*
X135837142Y-49128571D01*
X135741904Y-49080952D01*
X135694285Y-49033333D01*
X135646666Y-48938095D01*
X135646666Y-48842857D01*
X135694285Y-48747619D01*
X135741904Y-48700000D01*
X135837142Y-48652380D01*
X136075238Y-48652380D01*
X136218095Y-48700000D01*
X136551428Y-48652380D02*
X136789523Y-49652380D01*
X136980000Y-48938095D01*
X137170476Y-49652380D01*
X137408571Y-48652380D01*
X138265714Y-48652380D02*
X137789523Y-48652380D01*
X137741904Y-49128571D01*
X137789523Y-49080952D01*
X137884761Y-49033333D01*
X138122857Y-49033333D01*
X138218095Y-49080952D01*
X138265714Y-49128571D01*
X138313333Y-49223809D01*
X138313333Y-49461904D01*
X138265714Y-49557142D01*
X138218095Y-49604761D01*
X138122857Y-49652380D01*
X137884761Y-49652380D01*
X137789523Y-49604761D01*
X137741904Y-49557142D01*
X164254761Y-83053333D02*
X164302380Y-82910476D01*
X164302380Y-82672380D01*
X164254761Y-82577142D01*
X164207142Y-82529523D01*
X164111904Y-82481904D01*
X164016666Y-82481904D01*
X163921428Y-82529523D01*
X163873809Y-82577142D01*
X163826190Y-82672380D01*
X163778571Y-82862857D01*
X163730952Y-82958095D01*
X163683333Y-83005714D01*
X163588095Y-83053333D01*
X163492857Y-83053333D01*
X163397619Y-83005714D01*
X163350000Y-82958095D01*
X163302380Y-82862857D01*
X163302380Y-82624761D01*
X163350000Y-82481904D01*
X163302380Y-82148571D02*
X164302380Y-81910476D01*
X163588095Y-81720000D01*
X164302380Y-81529523D01*
X163302380Y-81291428D01*
X163635714Y-80481904D02*
X164302380Y-80481904D01*
X163254761Y-80720000D02*
X163969047Y-80958095D01*
X163969047Y-80339047D01*
X164454761Y-109063333D02*
X164502380Y-108920476D01*
X164502380Y-108682380D01*
X164454761Y-108587142D01*
X164407142Y-108539523D01*
X164311904Y-108491904D01*
X164216666Y-108491904D01*
X164121428Y-108539523D01*
X164073809Y-108587142D01*
X164026190Y-108682380D01*
X163978571Y-108872857D01*
X163930952Y-108968095D01*
X163883333Y-109015714D01*
X163788095Y-109063333D01*
X163692857Y-109063333D01*
X163597619Y-109015714D01*
X163550000Y-108968095D01*
X163502380Y-108872857D01*
X163502380Y-108634761D01*
X163550000Y-108491904D01*
X163502380Y-108158571D02*
X164502380Y-107920476D01*
X163788095Y-107730000D01*
X164502380Y-107539523D01*
X163502380Y-107301428D01*
X163502380Y-107015714D02*
X163502380Y-106396666D01*
X163883333Y-106730000D01*
X163883333Y-106587142D01*
X163930952Y-106491904D01*
X163978571Y-106444285D01*
X164073809Y-106396666D01*
X164311904Y-106396666D01*
X164407142Y-106444285D01*
X164454761Y-106491904D01*
X164502380Y-106587142D01*
X164502380Y-106872857D01*
X164454761Y-106968095D01*
X164407142Y-107015714D01*
X135546666Y-135454761D02*
X135689523Y-135502380D01*
X135927619Y-135502380D01*
X136022857Y-135454761D01*
X136070476Y-135407142D01*
X136118095Y-135311904D01*
X136118095Y-135216666D01*
X136070476Y-135121428D01*
X136022857Y-135073809D01*
X135927619Y-135026190D01*
X135737142Y-134978571D01*
X135641904Y-134930952D01*
X135594285Y-134883333D01*
X135546666Y-134788095D01*
X135546666Y-134692857D01*
X135594285Y-134597619D01*
X135641904Y-134550000D01*
X135737142Y-134502380D01*
X135975238Y-134502380D01*
X136118095Y-134550000D01*
X136451428Y-134502380D02*
X136689523Y-135502380D01*
X136880000Y-134788095D01*
X137070476Y-135502380D01*
X137308571Y-134502380D01*
X137641904Y-134597619D02*
X137689523Y-134550000D01*
X137784761Y-134502380D01*
X138022857Y-134502380D01*
X138118095Y-134550000D01*
X138165714Y-134597619D01*
X138213333Y-134692857D01*
X138213333Y-134788095D01*
X138165714Y-134930952D01*
X137594285Y-135502380D01*
X138213333Y-135502380D01*
X98666666Y-135404761D02*
X98809523Y-135452380D01*
X99047619Y-135452380D01*
X99142857Y-135404761D01*
X99190476Y-135357142D01*
X99238095Y-135261904D01*
X99238095Y-135166666D01*
X99190476Y-135071428D01*
X99142857Y-135023809D01*
X99047619Y-134976190D01*
X98857142Y-134928571D01*
X98761904Y-134880952D01*
X98714285Y-134833333D01*
X98666666Y-134738095D01*
X98666666Y-134642857D01*
X98714285Y-134547619D01*
X98761904Y-134500000D01*
X98857142Y-134452380D01*
X99095238Y-134452380D01*
X99238095Y-134500000D01*
X99571428Y-134452380D02*
X99809523Y-135452380D01*
X100000000Y-134738095D01*
X100190476Y-135452380D01*
X100428571Y-134452380D01*
X101333333Y-135452380D02*
X100761904Y-135452380D01*
X101047619Y-135452380D02*
X101047619Y-134452380D01*
X100952380Y-134595238D01*
X100857142Y-134690476D01*
X100761904Y-134738095D01*
X114747619Y-53283333D02*
X115223809Y-52950000D01*
X114747619Y-52711904D02*
X115747619Y-52711904D01*
X115747619Y-53092857D01*
X115700000Y-53188095D01*
X115652380Y-53235714D01*
X115557142Y-53283333D01*
X115414285Y-53283333D01*
X115319047Y-53235714D01*
X115271428Y-53188095D01*
X115223809Y-53092857D01*
X115223809Y-52711904D01*
X115747619Y-53616666D02*
X115747619Y-54283333D01*
X114747619Y-53854761D01*
X120096428Y-90628571D02*
X120096428Y-91057142D01*
X119796428Y-90157142D02*
X120096428Y-90628571D01*
X120396428Y-90157142D01*
X121167857Y-91057142D02*
X120653571Y-91057142D01*
X120910714Y-91057142D02*
X120910714Y-90157142D01*
X120825000Y-90285714D01*
X120739285Y-90371428D01*
X120653571Y-90414285D01*
X99278095Y-100252380D02*
X99278095Y-101061904D01*
X99325714Y-101157142D01*
X99373333Y-101204761D01*
X99468571Y-101252380D01*
X99659047Y-101252380D01*
X99754285Y-101204761D01*
X99801904Y-101157142D01*
X99849523Y-101061904D01*
X99849523Y-100252380D01*
X100278095Y-100347619D02*
X100325714Y-100300000D01*
X100420952Y-100252380D01*
X100659047Y-100252380D01*
X100754285Y-100300000D01*
X100801904Y-100347619D01*
X100849523Y-100442857D01*
X100849523Y-100538095D01*
X100801904Y-100680952D01*
X100230476Y-101252380D01*
X100849523Y-101252380D01*
X122377380Y-84611904D02*
X123186904Y-84611904D01*
X123282142Y-84564285D01*
X123329761Y-84516666D01*
X123377380Y-84421428D01*
X123377380Y-84230952D01*
X123329761Y-84135714D01*
X123282142Y-84088095D01*
X123186904Y-84040476D01*
X122377380Y-84040476D01*
X122377380Y-83373809D02*
X122377380Y-83278571D01*
X122425000Y-83183333D01*
X122472619Y-83135714D01*
X122567857Y-83088095D01*
X122758333Y-83040476D01*
X122996428Y-83040476D01*
X123186904Y-83088095D01*
X123282142Y-83135714D01*
X123329761Y-83183333D01*
X123377380Y-83278571D01*
X123377380Y-83373809D01*
X123329761Y-83469047D01*
X123282142Y-83516666D01*
X123186904Y-83564285D01*
X122996428Y-83611904D01*
X122758333Y-83611904D01*
X122567857Y-83564285D01*
X122472619Y-83516666D01*
X122425000Y-83469047D01*
X122377380Y-83373809D01*
X108663333Y-50502380D02*
X108330000Y-50026190D01*
X108091904Y-50502380D02*
X108091904Y-49502380D01*
X108472857Y-49502380D01*
X108568095Y-49550000D01*
X108615714Y-49597619D01*
X108663333Y-49692857D01*
X108663333Y-49835714D01*
X108615714Y-49930952D01*
X108568095Y-49978571D01*
X108472857Y-50026190D01*
X108091904Y-50026190D01*
X109520476Y-49502380D02*
X109330000Y-49502380D01*
X109234761Y-49550000D01*
X109187142Y-49597619D01*
X109091904Y-49740476D01*
X109044285Y-49930952D01*
X109044285Y-50311904D01*
X109091904Y-50407142D01*
X109139523Y-50454761D01*
X109234761Y-50502380D01*
X109425238Y-50502380D01*
X109520476Y-50454761D01*
X109568095Y-50407142D01*
X109615714Y-50311904D01*
X109615714Y-50073809D01*
X109568095Y-49978571D01*
X109520476Y-49930952D01*
X109425238Y-49883333D01*
X109234761Y-49883333D01*
X109139523Y-49930952D01*
X109091904Y-49978571D01*
X109044285Y-50073809D01*
X127152380Y-54396666D02*
X126676190Y-54730000D01*
X127152380Y-54968095D02*
X126152380Y-54968095D01*
X126152380Y-54587142D01*
X126200000Y-54491904D01*
X126247619Y-54444285D01*
X126342857Y-54396666D01*
X126485714Y-54396666D01*
X126580952Y-54444285D01*
X126628571Y-54491904D01*
X126676190Y-54587142D01*
X126676190Y-54968095D01*
X126152380Y-53491904D02*
X126152380Y-53968095D01*
X126628571Y-54015714D01*
X126580952Y-53968095D01*
X126533333Y-53872857D01*
X126533333Y-53634761D01*
X126580952Y-53539523D01*
X126628571Y-53491904D01*
X126723809Y-53444285D01*
X126961904Y-53444285D01*
X127057142Y-53491904D01*
X127104761Y-53539523D01*
X127152380Y-53634761D01*
X127152380Y-53872857D01*
X127104761Y-53968095D01*
X127057142Y-54015714D01*
X158603333Y-92422380D02*
X158270000Y-91946190D01*
X158031904Y-92422380D02*
X158031904Y-91422380D01*
X158412857Y-91422380D01*
X158508095Y-91470000D01*
X158555714Y-91517619D01*
X158603333Y-91612857D01*
X158603333Y-91755714D01*
X158555714Y-91850952D01*
X158508095Y-91898571D01*
X158412857Y-91946190D01*
X158031904Y-91946190D01*
X159460476Y-91755714D02*
X159460476Y-92422380D01*
X159222380Y-91374761D02*
X158984285Y-92089047D01*
X159603333Y-92089047D01*
X158803333Y-97902380D02*
X158470000Y-97426190D01*
X158231904Y-97902380D02*
X158231904Y-96902380D01*
X158612857Y-96902380D01*
X158708095Y-96950000D01*
X158755714Y-96997619D01*
X158803333Y-97092857D01*
X158803333Y-97235714D01*
X158755714Y-97330952D01*
X158708095Y-97378571D01*
X158612857Y-97426190D01*
X158231904Y-97426190D01*
X159136666Y-96902380D02*
X159755714Y-96902380D01*
X159422380Y-97283333D01*
X159565238Y-97283333D01*
X159660476Y-97330952D01*
X159708095Y-97378571D01*
X159755714Y-97473809D01*
X159755714Y-97711904D01*
X159708095Y-97807142D01*
X159660476Y-97854761D01*
X159565238Y-97902380D01*
X159279523Y-97902380D01*
X159184285Y-97854761D01*
X159136666Y-97807142D01*
X125452380Y-130136666D02*
X124976190Y-130470000D01*
X125452380Y-130708095D02*
X124452380Y-130708095D01*
X124452380Y-130327142D01*
X124500000Y-130231904D01*
X124547619Y-130184285D01*
X124642857Y-130136666D01*
X124785714Y-130136666D01*
X124880952Y-130184285D01*
X124928571Y-130231904D01*
X124976190Y-130327142D01*
X124976190Y-130708095D01*
X124547619Y-129755714D02*
X124500000Y-129708095D01*
X124452380Y-129612857D01*
X124452380Y-129374761D01*
X124500000Y-129279523D01*
X124547619Y-129231904D01*
X124642857Y-129184285D01*
X124738095Y-129184285D01*
X124880952Y-129231904D01*
X125452380Y-129803333D01*
X125452380Y-129184285D01*
X101223333Y-85292380D02*
X100890000Y-84816190D01*
X100651904Y-85292380D02*
X100651904Y-84292380D01*
X101032857Y-84292380D01*
X101128095Y-84340000D01*
X101175714Y-84387619D01*
X101223333Y-84482857D01*
X101223333Y-84625714D01*
X101175714Y-84720952D01*
X101128095Y-84768571D01*
X101032857Y-84816190D01*
X100651904Y-84816190D01*
X101842380Y-84292380D02*
X101937619Y-84292380D01*
X102032857Y-84340000D01*
X102080476Y-84387619D01*
X102128095Y-84482857D01*
X102175714Y-84673333D01*
X102175714Y-84911428D01*
X102128095Y-85101904D01*
X102080476Y-85197142D01*
X102032857Y-85244761D01*
X101937619Y-85292380D01*
X101842380Y-85292380D01*
X101747142Y-85244761D01*
X101699523Y-85197142D01*
X101651904Y-85101904D01*
X101604285Y-84911428D01*
X101604285Y-84673333D01*
X101651904Y-84482857D01*
X101699523Y-84387619D01*
X101747142Y-84340000D01*
X101842380Y-84292380D01*
X134552380Y-87566666D02*
X134552380Y-88042857D01*
X133552380Y-88042857D01*
X134552380Y-86709523D02*
X134552380Y-87280952D01*
X134552380Y-86995238D02*
X133552380Y-86995238D01*
X133695238Y-87090476D01*
X133790476Y-87185714D01*
X133838095Y-87280952D01*
X119866666Y-52602380D02*
X119866666Y-53316666D01*
X119819047Y-53459523D01*
X119723809Y-53554761D01*
X119580952Y-53602380D01*
X119485714Y-53602380D01*
X120247619Y-52602380D02*
X120914285Y-52602380D01*
X120485714Y-53602380D01*
X118352380Y-76588095D02*
X117352380Y-76588095D01*
X117352380Y-76350000D01*
X117400000Y-76207142D01*
X117495238Y-76111904D01*
X117590476Y-76064285D01*
X117780952Y-76016666D01*
X117923809Y-76016666D01*
X118114285Y-76064285D01*
X118209523Y-76111904D01*
X118304761Y-76207142D01*
X118352380Y-76350000D01*
X118352380Y-76588095D01*
X117352380Y-75683333D02*
X117352380Y-75064285D01*
X117733333Y-75397619D01*
X117733333Y-75254761D01*
X117780952Y-75159523D01*
X117828571Y-75111904D01*
X117923809Y-75064285D01*
X118161904Y-75064285D01*
X118257142Y-75111904D01*
X118304761Y-75159523D01*
X118352380Y-75254761D01*
X118352380Y-75540476D01*
X118304761Y-75635714D01*
X118257142Y-75683333D01*
X104223809Y-94827142D02*
X104176190Y-94874761D01*
X104033333Y-94922380D01*
X103938095Y-94922380D01*
X103795238Y-94874761D01*
X103700000Y-94779523D01*
X103652380Y-94684285D01*
X103604761Y-94493809D01*
X103604761Y-94350952D01*
X103652380Y-94160476D01*
X103700000Y-94065238D01*
X103795238Y-93970000D01*
X103938095Y-93922380D01*
X104033333Y-93922380D01*
X104176190Y-93970000D01*
X104223809Y-94017619D01*
X104652380Y-94922380D02*
X104652380Y-94255714D01*
X104652380Y-94446190D02*
X104700000Y-94350952D01*
X104747619Y-94303333D01*
X104842857Y-94255714D01*
X104938095Y-94255714D01*
X105223809Y-94017619D02*
X105271428Y-93970000D01*
X105366666Y-93922380D01*
X105604761Y-93922380D01*
X105700000Y-93970000D01*
X105747619Y-94017619D01*
X105795238Y-94112857D01*
X105795238Y-94208095D01*
X105747619Y-94350952D01*
X105176190Y-94922380D01*
X105795238Y-94922380D01*
X105587142Y-98826190D02*
X105634761Y-98873809D01*
X105682380Y-99016666D01*
X105682380Y-99111904D01*
X105634761Y-99254761D01*
X105539523Y-99350000D01*
X105444285Y-99397619D01*
X105253809Y-99445238D01*
X105110952Y-99445238D01*
X104920476Y-99397619D01*
X104825238Y-99350000D01*
X104730000Y-99254761D01*
X104682380Y-99111904D01*
X104682380Y-99016666D01*
X104730000Y-98873809D01*
X104777619Y-98826190D01*
X105682380Y-98397619D02*
X105015714Y-98397619D01*
X105206190Y-98397619D02*
X105110952Y-98350000D01*
X105063333Y-98302380D01*
X105015714Y-98207142D01*
X105015714Y-98111904D01*
X105682380Y-97254761D02*
X105682380Y-97826190D01*
X105682380Y-97540476D02*
X104682380Y-97540476D01*
X104825238Y-97635714D01*
X104920476Y-97730952D01*
X104968095Y-97826190D01*
X113764285Y-88621428D02*
X113721428Y-88664285D01*
X113592857Y-88707142D01*
X113507142Y-88707142D01*
X113378571Y-88664285D01*
X113292857Y-88578571D01*
X113250000Y-88492857D01*
X113207142Y-88321428D01*
X113207142Y-88192857D01*
X113250000Y-88021428D01*
X113292857Y-87935714D01*
X113378571Y-87850000D01*
X113507142Y-87807142D01*
X113592857Y-87807142D01*
X113721428Y-87850000D01*
X113764285Y-87892857D01*
X114064285Y-87807142D02*
X114621428Y-87807142D01*
X114321428Y-88150000D01*
X114450000Y-88150000D01*
X114535714Y-88192857D01*
X114578571Y-88235714D01*
X114621428Y-88321428D01*
X114621428Y-88535714D01*
X114578571Y-88621428D01*
X114535714Y-88664285D01*
X114450000Y-88707142D01*
X114192857Y-88707142D01*
X114107142Y-88664285D01*
X114064285Y-88621428D01*
X115007142Y-88707142D02*
X115007142Y-87807142D01*
X115007142Y-88150000D02*
X115092857Y-88107142D01*
X115264285Y-88107142D01*
X115350000Y-88150000D01*
X115392857Y-88192857D01*
X115435714Y-88278571D01*
X115435714Y-88535714D01*
X115392857Y-88621428D01*
X115350000Y-88664285D01*
X115264285Y-88707142D01*
X115092857Y-88707142D01*
X115007142Y-88664285D01*
X116292857Y-88707142D02*
X115778571Y-88707142D01*
X116035714Y-88707142D02*
X116035714Y-87807142D01*
X115950000Y-87935714D01*
X115864285Y-88021428D01*
X115778571Y-88064285D01*
X117321428Y-86485714D02*
X117364285Y-86528571D01*
X117407142Y-86657142D01*
X117407142Y-86742857D01*
X117364285Y-86871428D01*
X117278571Y-86957142D01*
X117192857Y-87000000D01*
X117021428Y-87042857D01*
X116892857Y-87042857D01*
X116721428Y-87000000D01*
X116635714Y-86957142D01*
X116550000Y-86871428D01*
X116507142Y-86742857D01*
X116507142Y-86657142D01*
X116550000Y-86528571D01*
X116592857Y-86485714D01*
X116507142Y-86185714D02*
X116507142Y-85628571D01*
X116850000Y-85928571D01*
X116850000Y-85800000D01*
X116892857Y-85714285D01*
X116935714Y-85671428D01*
X117021428Y-85628571D01*
X117235714Y-85628571D01*
X117321428Y-85671428D01*
X117364285Y-85714285D01*
X117407142Y-85800000D01*
X117407142Y-86057142D01*
X117364285Y-86142857D01*
X117321428Y-86185714D01*
X117407142Y-84857142D02*
X116935714Y-84857142D01*
X116850000Y-84900000D01*
X116807142Y-84985714D01*
X116807142Y-85157142D01*
X116850000Y-85242857D01*
X117364285Y-84857142D02*
X117407142Y-84942857D01*
X117407142Y-85157142D01*
X117364285Y-85242857D01*
X117278571Y-85285714D01*
X117192857Y-85285714D01*
X117107142Y-85242857D01*
X117064285Y-85157142D01*
X117064285Y-84942857D01*
X117021428Y-84857142D01*
X117407142Y-83957142D02*
X117407142Y-84471428D01*
X117407142Y-84214285D02*
X116507142Y-84214285D01*
X116635714Y-84300000D01*
X116721428Y-84385714D01*
X116764285Y-84471428D01*
X129714285Y-85371428D02*
X129671428Y-85414285D01*
X129542857Y-85457142D01*
X129457142Y-85457142D01*
X129328571Y-85414285D01*
X129242857Y-85328571D01*
X129200000Y-85242857D01*
X129157142Y-85071428D01*
X129157142Y-84942857D01*
X129200000Y-84771428D01*
X129242857Y-84685714D01*
X129328571Y-84600000D01*
X129457142Y-84557142D01*
X129542857Y-84557142D01*
X129671428Y-84600000D01*
X129714285Y-84642857D01*
X130057142Y-84642857D02*
X130100000Y-84600000D01*
X130185714Y-84557142D01*
X130400000Y-84557142D01*
X130485714Y-84600000D01*
X130528571Y-84642857D01*
X130571428Y-84728571D01*
X130571428Y-84814285D01*
X130528571Y-84942857D01*
X130014285Y-85457142D01*
X130571428Y-85457142D01*
X130957142Y-85457142D02*
X130957142Y-84557142D01*
X130957142Y-84900000D02*
X131042857Y-84857142D01*
X131214285Y-84857142D01*
X131300000Y-84900000D01*
X131342857Y-84942857D01*
X131385714Y-85028571D01*
X131385714Y-85285714D01*
X131342857Y-85371428D01*
X131300000Y-85414285D01*
X131214285Y-85457142D01*
X131042857Y-85457142D01*
X130957142Y-85414285D01*
X132242857Y-85457142D02*
X131728571Y-85457142D01*
X131985714Y-85457142D02*
X131985714Y-84557142D01*
X131900000Y-84685714D01*
X131814285Y-84771428D01*
X131728571Y-84814285D01*
X128064285Y-89771428D02*
X128021428Y-89814285D01*
X127892857Y-89857142D01*
X127807142Y-89857142D01*
X127678571Y-89814285D01*
X127592857Y-89728571D01*
X127550000Y-89642857D01*
X127507142Y-89471428D01*
X127507142Y-89342857D01*
X127550000Y-89171428D01*
X127592857Y-89085714D01*
X127678571Y-89000000D01*
X127807142Y-88957142D01*
X127892857Y-88957142D01*
X128021428Y-89000000D01*
X128064285Y-89042857D01*
X128407142Y-89042857D02*
X128450000Y-89000000D01*
X128535714Y-88957142D01*
X128750000Y-88957142D01*
X128835714Y-89000000D01*
X128878571Y-89042857D01*
X128921428Y-89128571D01*
X128921428Y-89214285D01*
X128878571Y-89342857D01*
X128364285Y-89857142D01*
X128921428Y-89857142D01*
X129692857Y-89857142D02*
X129692857Y-89385714D01*
X129650000Y-89300000D01*
X129564285Y-89257142D01*
X129392857Y-89257142D01*
X129307142Y-89300000D01*
X129692857Y-89814285D02*
X129607142Y-89857142D01*
X129392857Y-89857142D01*
X129307142Y-89814285D01*
X129264285Y-89728571D01*
X129264285Y-89642857D01*
X129307142Y-89557142D01*
X129392857Y-89514285D01*
X129607142Y-89514285D01*
X129692857Y-89471428D01*
X130592857Y-89857142D02*
X130078571Y-89857142D01*
X130335714Y-89857142D02*
X130335714Y-88957142D01*
X130250000Y-89085714D01*
X130164285Y-89171428D01*
X130078571Y-89214285D01*
X123937142Y-94645238D02*
X123984761Y-94692857D01*
X124032380Y-94835714D01*
X124032380Y-94930952D01*
X123984761Y-95073809D01*
X123889523Y-95169047D01*
X123794285Y-95216666D01*
X123603809Y-95264285D01*
X123460952Y-95264285D01*
X123270476Y-95216666D01*
X123175238Y-95169047D01*
X123080000Y-95073809D01*
X123032380Y-94930952D01*
X123032380Y-94835714D01*
X123080000Y-94692857D01*
X123127619Y-94645238D01*
X124032380Y-93692857D02*
X124032380Y-94264285D01*
X124032380Y-93978571D02*
X123032380Y-93978571D01*
X123175238Y-94073809D01*
X123270476Y-94169047D01*
X123318095Y-94264285D01*
X124032380Y-93264285D02*
X123032380Y-93264285D01*
X123413333Y-93264285D02*
X123365714Y-93169047D01*
X123365714Y-92978571D01*
X123413333Y-92883333D01*
X123460952Y-92835714D01*
X123556190Y-92788095D01*
X123841904Y-92788095D01*
X123937142Y-92835714D01*
X123984761Y-92883333D01*
X124032380Y-92978571D01*
X124032380Y-93169047D01*
X123984761Y-93264285D01*
X124032380Y-91835714D02*
X124032380Y-92407142D01*
X124032380Y-92121428D02*
X123032380Y-92121428D01*
X123175238Y-92216666D01*
X123270476Y-92311904D01*
X123318095Y-92407142D01*
X117957142Y-94645238D02*
X118004761Y-94692857D01*
X118052380Y-94835714D01*
X118052380Y-94930952D01*
X118004761Y-95073809D01*
X117909523Y-95169047D01*
X117814285Y-95216666D01*
X117623809Y-95264285D01*
X117480952Y-95264285D01*
X117290476Y-95216666D01*
X117195238Y-95169047D01*
X117100000Y-95073809D01*
X117052380Y-94930952D01*
X117052380Y-94835714D01*
X117100000Y-94692857D01*
X117147619Y-94645238D01*
X118052380Y-93692857D02*
X118052380Y-94264285D01*
X118052380Y-93978571D02*
X117052380Y-93978571D01*
X117195238Y-94073809D01*
X117290476Y-94169047D01*
X117338095Y-94264285D01*
X118052380Y-92835714D02*
X117528571Y-92835714D01*
X117433333Y-92883333D01*
X117385714Y-92978571D01*
X117385714Y-93169047D01*
X117433333Y-93264285D01*
X118004761Y-92835714D02*
X118052380Y-92930952D01*
X118052380Y-93169047D01*
X118004761Y-93264285D01*
X117909523Y-93311904D01*
X117814285Y-93311904D01*
X117719047Y-93264285D01*
X117671428Y-93169047D01*
X117671428Y-92930952D01*
X117623809Y-92835714D01*
X118052380Y-91835714D02*
X118052380Y-92407142D01*
X118052380Y-92121428D02*
X117052380Y-92121428D01*
X117195238Y-92216666D01*
X117290476Y-92311904D01*
X117338095Y-92407142D01*
X116657142Y-83166666D02*
X116704761Y-83214285D01*
X116752380Y-83357142D01*
X116752380Y-83452380D01*
X116704761Y-83595238D01*
X116609523Y-83690476D01*
X116514285Y-83738095D01*
X116323809Y-83785714D01*
X116180952Y-83785714D01*
X115990476Y-83738095D01*
X115895238Y-83690476D01*
X115800000Y-83595238D01*
X115752380Y-83452380D01*
X115752380Y-83357142D01*
X115800000Y-83214285D01*
X115847619Y-83166666D01*
X116085714Y-82309523D02*
X116752380Y-82309523D01*
X115704761Y-82547619D02*
X116419047Y-82785714D01*
X116419047Y-82166666D01*
X116033333Y-56757142D02*
X115985714Y-56804761D01*
X115842857Y-56852380D01*
X115747619Y-56852380D01*
X115604761Y-56804761D01*
X115509523Y-56709523D01*
X115461904Y-56614285D01*
X115414285Y-56423809D01*
X115414285Y-56280952D01*
X115461904Y-56090476D01*
X115509523Y-55995238D01*
X115604761Y-55900000D01*
X115747619Y-55852380D01*
X115842857Y-55852380D01*
X115985714Y-55900000D01*
X116033333Y-55947619D01*
X116652380Y-55852380D02*
X116747619Y-55852380D01*
X116842857Y-55900000D01*
X116890476Y-55947619D01*
X116938095Y-56042857D01*
X116985714Y-56233333D01*
X116985714Y-56471428D01*
X116938095Y-56661904D01*
X116890476Y-56757142D01*
X116842857Y-56804761D01*
X116747619Y-56852380D01*
X116652380Y-56852380D01*
X116557142Y-56804761D01*
X116509523Y-56757142D01*
X116461904Y-56661904D01*
X116414285Y-56471428D01*
X116414285Y-56233333D01*
X116461904Y-56042857D01*
X116509523Y-55947619D01*
X116557142Y-55900000D01*
X116652380Y-55852380D01*
M02*
