G04 #@! TF.GenerationSoftware,KiCad,Pcbnew,5.99.0-unknown-c7daca1~86~ubuntu18.04.1*
G04 #@! TF.CreationDate,2020-03-27T23:30:00-03:00*
G04 #@! TF.ProjectId,DPL,44504c2e-6b69-4636-9164-5f7063625858,rev?*
G04 #@! TF.SameCoordinates,Original*
G04 #@! TF.FileFunction,Legend,Top*
G04 #@! TF.FilePolarity,Positive*
%FSLAX46Y46*%
G04 Gerber Fmt 4.6, Leading zero omitted, Abs format (unit mm)*
G04 Created by KiCad (PCBNEW 5.99.0-unknown-c7daca1~86~ubuntu18.04.1) date 2020-03-27 23:30:00*
%MOMM*%
%LPD*%
G01*
G04 APERTURE LIST*
%ADD10C,0.250000*%
%ADD11C,0.120000*%
%ADD12C,0.150000*%
G04 APERTURE END LIST*
D10*
X106000000Y-117042857D02*
X106000000Y-115842857D01*
X106285714Y-115842857D01*
X106457142Y-115900000D01*
X106571428Y-116014285D01*
X106628571Y-116128571D01*
X106685714Y-116357142D01*
X106685714Y-116528571D01*
X106628571Y-116757142D01*
X106571428Y-116871428D01*
X106457142Y-116985714D01*
X106285714Y-117042857D01*
X106000000Y-117042857D01*
X107200000Y-117042857D02*
X107200000Y-115842857D01*
X107657142Y-115842857D01*
X107771428Y-115900000D01*
X107828571Y-115957142D01*
X107885714Y-116071428D01*
X107885714Y-116242857D01*
X107828571Y-116357142D01*
X107771428Y-116414285D01*
X107657142Y-116471428D01*
X107200000Y-116471428D01*
X108971428Y-117042857D02*
X108400000Y-117042857D01*
X108400000Y-115842857D01*
X109371428Y-116585714D02*
X110285714Y-116585714D01*
X110800000Y-116700000D02*
X111371428Y-116700000D01*
X110685714Y-117042857D02*
X111085714Y-115842857D01*
X111485714Y-117042857D01*
X112685714Y-116242857D02*
X112971428Y-117042857D01*
X113257142Y-116242857D01*
X114342857Y-117042857D02*
X113657142Y-117042857D01*
X114000000Y-117042857D02*
X114000000Y-115842857D01*
X113885714Y-116014285D01*
X113771428Y-116128571D01*
X113657142Y-116185714D01*
X114857142Y-116928571D02*
X114914285Y-116985714D01*
X114857142Y-117042857D01*
X114800000Y-116985714D01*
X114857142Y-116928571D01*
X114857142Y-117042857D01*
X115657142Y-115842857D02*
X115771428Y-115842857D01*
X115885714Y-115900000D01*
X115942857Y-115957142D01*
X116000000Y-116071428D01*
X116057142Y-116300000D01*
X116057142Y-116585714D01*
X116000000Y-116814285D01*
X115942857Y-116928571D01*
X115885714Y-116985714D01*
X115771428Y-117042857D01*
X115657142Y-117042857D01*
X115542857Y-116985714D01*
X115485714Y-116928571D01*
X115428571Y-116814285D01*
X115371428Y-116585714D01*
X115371428Y-116300000D01*
X115428571Y-116071428D01*
X115485714Y-115957142D01*
X115542857Y-115900000D01*
X115657142Y-115842857D01*
D11*
X130453733Y-136140000D02*
X130796267Y-136140000D01*
X130453733Y-137160000D02*
X130796267Y-137160000D01*
X131621267Y-123860000D02*
X131278733Y-123860000D01*
X131621267Y-122840000D02*
X131278733Y-122840000D01*
X151000000Y-137850000D02*
X151000000Y-137550000D01*
X151000000Y-137550000D02*
X150500000Y-137550000D01*
X154375000Y-138140000D02*
X150710000Y-138140000D01*
X150710000Y-138140000D02*
X150710000Y-137840000D01*
X150710000Y-137840000D02*
X149640000Y-137840000D01*
X149640000Y-137840000D02*
X149640000Y-143560000D01*
X149640000Y-143560000D02*
X154375000Y-143560000D01*
X154375000Y-138140000D02*
X158040000Y-138140000D01*
X158040000Y-138140000D02*
X158040000Y-137840000D01*
X158040000Y-137840000D02*
X159110000Y-137840000D01*
X159110000Y-137840000D02*
X159110000Y-143560000D01*
X159110000Y-143560000D02*
X154375000Y-143560000D01*
X124750000Y-137850000D02*
X124750000Y-137550000D01*
X124750000Y-137550000D02*
X124250000Y-137550000D01*
X128125000Y-138140000D02*
X124460000Y-138140000D01*
X124460000Y-138140000D02*
X124460000Y-137840000D01*
X124460000Y-137840000D02*
X123390000Y-137840000D01*
X123390000Y-137840000D02*
X123390000Y-143560000D01*
X123390000Y-143560000D02*
X128125000Y-143560000D01*
X128125000Y-138140000D02*
X131790000Y-138140000D01*
X131790000Y-138140000D02*
X131790000Y-137840000D01*
X131790000Y-137840000D02*
X132860000Y-137840000D01*
X132860000Y-137840000D02*
X132860000Y-143560000D01*
X132860000Y-143560000D02*
X128125000Y-143560000D01*
X145060000Y-139615000D02*
X144680000Y-139615000D01*
X145060000Y-143665000D02*
X145060000Y-143925000D01*
X145060000Y-139615000D02*
X145060000Y-141385000D01*
X137440000Y-139615000D02*
X137820000Y-139615000D01*
X137440000Y-141385000D02*
X137440000Y-139615000D01*
X137440000Y-143925000D02*
X137440000Y-143665000D01*
X141475000Y-121150000D02*
X140375000Y-121150000D01*
X141475000Y-119250000D02*
X140375000Y-119250000D01*
X143625000Y-121100000D02*
X143625000Y-119300000D01*
X126660000Y-135500000D02*
X126660000Y-136810000D01*
X126660000Y-136810000D02*
X123940000Y-136810000D01*
X122800000Y-132320000D02*
X123940000Y-132320000D01*
X126660000Y-132090000D02*
X126660000Y-133400000D01*
X123940000Y-132090000D02*
X126660000Y-132090000D01*
X123940000Y-132090000D02*
X123940000Y-132320000D01*
X123940000Y-136810000D02*
X123940000Y-136580000D01*
D12*
X142150000Y-123325000D02*
X141925000Y-123325000D01*
X142150000Y-130575000D02*
X141825000Y-130575000D01*
X134900000Y-130575000D02*
X135225000Y-130575000D01*
X134900000Y-123325000D02*
X135225000Y-123325000D01*
X142150000Y-123325000D02*
X142150000Y-123650000D01*
X134900000Y-123325000D02*
X134900000Y-123650000D01*
X134900000Y-130575000D02*
X134900000Y-130250000D01*
X142150000Y-130575000D02*
X142150000Y-130250000D01*
X141925000Y-123325000D02*
X141925000Y-121900000D01*
D11*
X169828733Y-125490000D02*
X170171267Y-125490000D01*
X169828733Y-126510000D02*
X170171267Y-126510000D01*
X169828733Y-127115000D02*
X170171267Y-127115000D01*
X169828733Y-128135000D02*
X170171267Y-128135000D01*
X169828733Y-128690000D02*
X170171267Y-128690000D01*
X169828733Y-129710000D02*
X170171267Y-129710000D01*
X110960000Y-127778733D02*
X110960000Y-128121267D01*
X109940000Y-127778733D02*
X109940000Y-128121267D01*
X173010000Y-125878733D02*
X173010000Y-126221267D01*
X171990000Y-125878733D02*
X171990000Y-126221267D01*
X145110000Y-132128733D02*
X145110000Y-132471267D01*
X144090000Y-132128733D02*
X144090000Y-132471267D01*
X147490000Y-137121267D02*
X147490000Y-136778733D01*
X148510000Y-137121267D02*
X148510000Y-136778733D01*
X159110000Y-128878733D02*
X159110000Y-129221267D01*
X158090000Y-128878733D02*
X158090000Y-129221267D01*
X153578733Y-132890000D02*
X153921267Y-132890000D01*
X153578733Y-133910000D02*
X153921267Y-133910000D01*
X103490000Y-124270000D02*
X103490000Y-125200000D01*
X103490000Y-127430000D02*
X103490000Y-126500000D01*
X103490000Y-127430000D02*
X105650000Y-127430000D01*
X103490000Y-124270000D02*
X104950000Y-124270000D01*
X179160000Y-127830000D02*
X179160000Y-126900000D01*
X179160000Y-124670000D02*
X179160000Y-125600000D01*
X179160000Y-124670000D02*
X177000000Y-124670000D01*
X179160000Y-127830000D02*
X177700000Y-127830000D01*
X129461252Y-120760000D02*
X128938748Y-120760000D01*
X129461252Y-119340000D02*
X128938748Y-119340000D01*
X167660000Y-121015000D02*
X164240000Y-121015000D01*
X164240000Y-121015000D02*
X164240000Y-137985000D01*
X164240000Y-137985000D02*
X167660000Y-137985000D01*
X167660000Y-137985000D02*
X167660000Y-121015000D01*
X164750000Y-129500000D02*
X164750000Y-121525000D01*
X164750000Y-121525000D02*
X165500000Y-121525000D01*
X165500000Y-121525000D02*
X165500000Y-121325000D01*
X165500000Y-121325000D02*
X166300000Y-121325000D01*
X166300000Y-121325000D02*
X166300000Y-121525000D01*
X166300000Y-121525000D02*
X167150000Y-121525000D01*
X167150000Y-121525000D02*
X167150000Y-129500000D01*
X164750000Y-129500000D02*
X164750000Y-137475000D01*
X164750000Y-137475000D02*
X165500000Y-137475000D01*
X165500000Y-137475000D02*
X165500000Y-137675000D01*
X165500000Y-137675000D02*
X166300000Y-137675000D01*
X166300000Y-137675000D02*
X166300000Y-137475000D01*
X166300000Y-137475000D02*
X167150000Y-137475000D01*
X167150000Y-137475000D02*
X167150000Y-129500000D01*
X163950000Y-120725000D02*
X164950000Y-120725000D01*
X163950000Y-120725000D02*
X163950000Y-121725000D01*
X114840000Y-137985000D02*
X118260000Y-137985000D01*
X118260000Y-137985000D02*
X118260000Y-121015000D01*
X118260000Y-121015000D02*
X114840000Y-121015000D01*
X114840000Y-121015000D02*
X114840000Y-137985000D01*
X117750000Y-129500000D02*
X117750000Y-137475000D01*
X117750000Y-137475000D02*
X117000000Y-137475000D01*
X117000000Y-137475000D02*
X117000000Y-137675000D01*
X117000000Y-137675000D02*
X116200000Y-137675000D01*
X116200000Y-137675000D02*
X116200000Y-137475000D01*
X116200000Y-137475000D02*
X115350000Y-137475000D01*
X115350000Y-137475000D02*
X115350000Y-129500000D01*
X117750000Y-129500000D02*
X117750000Y-121525000D01*
X117750000Y-121525000D02*
X117000000Y-121525000D01*
X117000000Y-121525000D02*
X117000000Y-121325000D01*
X117000000Y-121325000D02*
X116200000Y-121325000D01*
X116200000Y-121325000D02*
X116200000Y-121525000D01*
X116200000Y-121525000D02*
X115350000Y-121525000D01*
X115350000Y-121525000D02*
X115350000Y-129500000D01*
X118550000Y-138275000D02*
X117550000Y-138275000D01*
X118550000Y-138275000D02*
X118550000Y-137275000D01*
X120871267Y-136660000D02*
X120528733Y-136660000D01*
X120871267Y-135640000D02*
X120528733Y-135640000D01*
X121090000Y-133871267D02*
X121090000Y-133528733D01*
X122110000Y-133871267D02*
X122110000Y-133528733D01*
X138790000Y-117421267D02*
X138790000Y-117078733D01*
X139810000Y-117421267D02*
X139810000Y-117078733D01*
X142040000Y-117421267D02*
X142040000Y-117078733D01*
X143060000Y-117421267D02*
X143060000Y-117078733D01*
X148410000Y-126778733D02*
X148410000Y-127121267D01*
X147390000Y-126778733D02*
X147390000Y-127121267D01*
X149960000Y-126778733D02*
X149960000Y-127121267D01*
X148940000Y-126778733D02*
X148940000Y-127121267D01*
X131621267Y-122310000D02*
X131278733Y-122310000D01*
X131621267Y-121290000D02*
X131278733Y-121290000D01*
X159110000Y-132253733D02*
X159110000Y-132596267D01*
X158090000Y-132253733D02*
X158090000Y-132596267D01*
X145890000Y-137121267D02*
X145890000Y-136778733D01*
X146910000Y-137121267D02*
X146910000Y-136778733D01*
X146860000Y-126778733D02*
X146860000Y-127121267D01*
X145840000Y-126778733D02*
X145840000Y-127121267D01*
D12*
X130046428Y-135857142D02*
X129746428Y-135428571D01*
X129532142Y-135857142D02*
X129532142Y-134957142D01*
X129875000Y-134957142D01*
X129960714Y-135000000D01*
X130003571Y-135042857D01*
X130046428Y-135128571D01*
X130046428Y-135257142D01*
X130003571Y-135342857D01*
X129960714Y-135385714D01*
X129875000Y-135428571D01*
X129532142Y-135428571D01*
X130903571Y-135857142D02*
X130389285Y-135857142D01*
X130646428Y-135857142D02*
X130646428Y-134957142D01*
X130560714Y-135085714D01*
X130475000Y-135171428D01*
X130389285Y-135214285D01*
X131460714Y-134957142D02*
X131546428Y-134957142D01*
X131632142Y-135000000D01*
X131675000Y-135042857D01*
X131717857Y-135128571D01*
X131760714Y-135300000D01*
X131760714Y-135514285D01*
X131717857Y-135685714D01*
X131675000Y-135771428D01*
X131632142Y-135814285D01*
X131546428Y-135857142D01*
X131460714Y-135857142D01*
X131375000Y-135814285D01*
X131332142Y-135771428D01*
X131289285Y-135685714D01*
X131246428Y-135514285D01*
X131246428Y-135300000D01*
X131289285Y-135128571D01*
X131332142Y-135042857D01*
X131375000Y-135000000D01*
X131460714Y-134957142D01*
X130573809Y-124885714D02*
X130535714Y-124923809D01*
X130421428Y-124961904D01*
X130345238Y-124961904D01*
X130230952Y-124923809D01*
X130154761Y-124847619D01*
X130116666Y-124771428D01*
X130078571Y-124619047D01*
X130078571Y-124504761D01*
X130116666Y-124352380D01*
X130154761Y-124276190D01*
X130230952Y-124200000D01*
X130345238Y-124161904D01*
X130421428Y-124161904D01*
X130535714Y-124200000D01*
X130573809Y-124238095D01*
X130878571Y-124238095D02*
X130916666Y-124200000D01*
X130992857Y-124161904D01*
X131183333Y-124161904D01*
X131259523Y-124200000D01*
X131297619Y-124238095D01*
X131335714Y-124314285D01*
X131335714Y-124390476D01*
X131297619Y-124504761D01*
X130840476Y-124961904D01*
X131335714Y-124961904D01*
X132021428Y-124961904D02*
X132021428Y-124542857D01*
X131983333Y-124466666D01*
X131907142Y-124428571D01*
X131754761Y-124428571D01*
X131678571Y-124466666D01*
X132021428Y-124923809D02*
X131945238Y-124961904D01*
X131754761Y-124961904D01*
X131678571Y-124923809D01*
X131640476Y-124847619D01*
X131640476Y-124771428D01*
X131678571Y-124695238D01*
X131754761Y-124657142D01*
X131945238Y-124657142D01*
X132021428Y-124619047D01*
X132821428Y-124961904D02*
X132364285Y-124961904D01*
X132592857Y-124961904D02*
X132592857Y-124161904D01*
X132516666Y-124276190D01*
X132440476Y-124352380D01*
X132364285Y-124390476D01*
X154036666Y-136502380D02*
X154036666Y-137216666D01*
X153989047Y-137359523D01*
X153893809Y-137454761D01*
X153750952Y-137502380D01*
X153655714Y-137502380D01*
X154417619Y-136502380D02*
X155036666Y-136502380D01*
X154703333Y-136883333D01*
X154846190Y-136883333D01*
X154941428Y-136930952D01*
X154989047Y-136978571D01*
X155036666Y-137073809D01*
X155036666Y-137311904D01*
X154989047Y-137407142D01*
X154941428Y-137454761D01*
X154846190Y-137502380D01*
X154560476Y-137502380D01*
X154465238Y-137454761D01*
X154417619Y-137407142D01*
X150060476Y-142902380D02*
X150060476Y-141902380D01*
X150441428Y-141902380D01*
X150536666Y-141950000D01*
X150584285Y-141997619D01*
X150631904Y-142092857D01*
X150631904Y-142235714D01*
X150584285Y-142330952D01*
X150536666Y-142378571D01*
X150441428Y-142426190D01*
X150060476Y-142426190D01*
X151060476Y-142902380D02*
X151060476Y-142235714D01*
X151060476Y-142426190D02*
X151108095Y-142330952D01*
X151155714Y-142283333D01*
X151250952Y-142235714D01*
X151346190Y-142235714D01*
X151822380Y-142902380D02*
X151727142Y-142854761D01*
X151679523Y-142807142D01*
X151631904Y-142711904D01*
X151631904Y-142426190D01*
X151679523Y-142330952D01*
X151727142Y-142283333D01*
X151822380Y-142235714D01*
X151965238Y-142235714D01*
X152060476Y-142283333D01*
X152108095Y-142330952D01*
X152155714Y-142426190D01*
X152155714Y-142711904D01*
X152108095Y-142807142D01*
X152060476Y-142854761D01*
X151965238Y-142902380D01*
X151822380Y-142902380D01*
X153012857Y-142235714D02*
X153012857Y-143045238D01*
X152965238Y-143140476D01*
X152917619Y-143188095D01*
X152822380Y-143235714D01*
X152679523Y-143235714D01*
X152584285Y-143188095D01*
X153012857Y-142854761D02*
X152917619Y-142902380D01*
X152727142Y-142902380D01*
X152631904Y-142854761D01*
X152584285Y-142807142D01*
X152536666Y-142711904D01*
X152536666Y-142426190D01*
X152584285Y-142330952D01*
X152631904Y-142283333D01*
X152727142Y-142235714D01*
X152917619Y-142235714D01*
X153012857Y-142283333D01*
X153489047Y-142902380D02*
X153489047Y-142235714D01*
X153489047Y-142426190D02*
X153536666Y-142330952D01*
X153584285Y-142283333D01*
X153679523Y-142235714D01*
X153774761Y-142235714D01*
X154536666Y-142902380D02*
X154536666Y-142378571D01*
X154489047Y-142283333D01*
X154393809Y-142235714D01*
X154203333Y-142235714D01*
X154108095Y-142283333D01*
X154536666Y-142854761D02*
X154441428Y-142902380D01*
X154203333Y-142902380D01*
X154108095Y-142854761D01*
X154060476Y-142759523D01*
X154060476Y-142664285D01*
X154108095Y-142569047D01*
X154203333Y-142521428D01*
X154441428Y-142521428D01*
X154536666Y-142473809D01*
X155012857Y-142902380D02*
X155012857Y-142235714D01*
X155012857Y-142330952D02*
X155060476Y-142283333D01*
X155155714Y-142235714D01*
X155298571Y-142235714D01*
X155393809Y-142283333D01*
X155441428Y-142378571D01*
X155441428Y-142902380D01*
X155441428Y-142378571D02*
X155489047Y-142283333D01*
X155584285Y-142235714D01*
X155727142Y-142235714D01*
X155822380Y-142283333D01*
X155870000Y-142378571D01*
X155870000Y-142902380D01*
X156346190Y-142902380D02*
X156346190Y-142235714D01*
X156346190Y-142330952D02*
X156393809Y-142283333D01*
X156489047Y-142235714D01*
X156631904Y-142235714D01*
X156727142Y-142283333D01*
X156774761Y-142378571D01*
X156774761Y-142902380D01*
X156774761Y-142378571D02*
X156822380Y-142283333D01*
X156917619Y-142235714D01*
X157060476Y-142235714D01*
X157155714Y-142283333D01*
X157203333Y-142378571D01*
X157203333Y-142902380D01*
X158060476Y-142854761D02*
X157965238Y-142902380D01*
X157774761Y-142902380D01*
X157679523Y-142854761D01*
X157631904Y-142759523D01*
X157631904Y-142378571D01*
X157679523Y-142283333D01*
X157774761Y-142235714D01*
X157965238Y-142235714D01*
X158060476Y-142283333D01*
X158108095Y-142378571D01*
X158108095Y-142473809D01*
X157631904Y-142569047D01*
X158536666Y-142902380D02*
X158536666Y-142235714D01*
X158536666Y-142426190D02*
X158584285Y-142330952D01*
X158631904Y-142283333D01*
X158727142Y-142235714D01*
X158822380Y-142235714D01*
X127786666Y-136502380D02*
X127786666Y-137216666D01*
X127739047Y-137359523D01*
X127643809Y-137454761D01*
X127500952Y-137502380D01*
X127405714Y-137502380D01*
X128215238Y-136597619D02*
X128262857Y-136550000D01*
X128358095Y-136502380D01*
X128596190Y-136502380D01*
X128691428Y-136550000D01*
X128739047Y-136597619D01*
X128786666Y-136692857D01*
X128786666Y-136788095D01*
X128739047Y-136930952D01*
X128167619Y-137502380D01*
X128786666Y-137502380D01*
X127143809Y-142952380D02*
X127143809Y-141952380D01*
X127572380Y-142047619D02*
X127620000Y-142000000D01*
X127715238Y-141952380D01*
X127953333Y-141952380D01*
X128048571Y-142000000D01*
X128096190Y-142047619D01*
X128143809Y-142142857D01*
X128143809Y-142238095D01*
X128096190Y-142380952D01*
X127524761Y-142952380D01*
X128143809Y-142952380D01*
X129143809Y-142857142D02*
X129096190Y-142904761D01*
X128953333Y-142952380D01*
X128858095Y-142952380D01*
X128715238Y-142904761D01*
X128620000Y-142809523D01*
X128572380Y-142714285D01*
X128524761Y-142523809D01*
X128524761Y-142380952D01*
X128572380Y-142190476D01*
X128620000Y-142095238D01*
X128715238Y-142000000D01*
X128858095Y-141952380D01*
X128953333Y-141952380D01*
X129096190Y-142000000D01*
X129143809Y-142047619D01*
X140916666Y-137477380D02*
X140916666Y-138191666D01*
X140869047Y-138334523D01*
X140773809Y-138429761D01*
X140630952Y-138477380D01*
X140535714Y-138477380D01*
X141916666Y-138477380D02*
X141345238Y-138477380D01*
X141630952Y-138477380D02*
X141630952Y-137477380D01*
X141535714Y-137620238D01*
X141440476Y-137715476D01*
X141345238Y-137763095D01*
X140544047Y-120180952D02*
X140544047Y-120561904D01*
X140277380Y-119761904D02*
X140544047Y-120180952D01*
X140810714Y-119761904D01*
X141496428Y-120561904D02*
X141039285Y-120561904D01*
X141267857Y-120561904D02*
X141267857Y-119761904D01*
X141191666Y-119876190D01*
X141115476Y-119952380D01*
X141039285Y-119990476D01*
X124538095Y-130402380D02*
X124538095Y-131211904D01*
X124585714Y-131307142D01*
X124633333Y-131354761D01*
X124728571Y-131402380D01*
X124919047Y-131402380D01*
X125014285Y-131354761D01*
X125061904Y-131307142D01*
X125109523Y-131211904D01*
X125109523Y-130402380D01*
X125538095Y-130497619D02*
X125585714Y-130450000D01*
X125680952Y-130402380D01*
X125919047Y-130402380D01*
X126014285Y-130450000D01*
X126061904Y-130497619D01*
X126109523Y-130592857D01*
X126109523Y-130688095D01*
X126061904Y-130830952D01*
X125490476Y-131402380D01*
X126109523Y-131402380D01*
X137967380Y-127711904D02*
X138776904Y-127711904D01*
X138872142Y-127664285D01*
X138919761Y-127616666D01*
X138967380Y-127521428D01*
X138967380Y-127330952D01*
X138919761Y-127235714D01*
X138872142Y-127188095D01*
X138776904Y-127140476D01*
X137967380Y-127140476D01*
X138967380Y-126140476D02*
X138967380Y-126711904D01*
X138967380Y-126426190D02*
X137967380Y-126426190D01*
X138110238Y-126521428D01*
X138205476Y-126616666D01*
X138253095Y-126711904D01*
X169866666Y-125186904D02*
X169600000Y-124805952D01*
X169409523Y-125186904D02*
X169409523Y-124386904D01*
X169714285Y-124386904D01*
X169790476Y-124425000D01*
X169828571Y-124463095D01*
X169866666Y-124539285D01*
X169866666Y-124653571D01*
X169828571Y-124729761D01*
X169790476Y-124767857D01*
X169714285Y-124805952D01*
X169409523Y-124805952D01*
X170247619Y-125186904D02*
X170400000Y-125186904D01*
X170476190Y-125148809D01*
X170514285Y-125110714D01*
X170590476Y-124996428D01*
X170628571Y-124844047D01*
X170628571Y-124539285D01*
X170590476Y-124463095D01*
X170552380Y-124425000D01*
X170476190Y-124386904D01*
X170323809Y-124386904D01*
X170247619Y-124425000D01*
X170209523Y-124463095D01*
X170171428Y-124539285D01*
X170171428Y-124729761D01*
X170209523Y-124805952D01*
X170247619Y-124844047D01*
X170323809Y-124882142D01*
X170476190Y-124882142D01*
X170552380Y-124844047D01*
X170590476Y-124805952D01*
X170628571Y-124729761D01*
X168611904Y-127758333D02*
X168230952Y-128025000D01*
X168611904Y-128215476D02*
X167811904Y-128215476D01*
X167811904Y-127910714D01*
X167850000Y-127834523D01*
X167888095Y-127796428D01*
X167964285Y-127758333D01*
X168078571Y-127758333D01*
X168154761Y-127796428D01*
X168192857Y-127834523D01*
X168230952Y-127910714D01*
X168230952Y-128215476D01*
X168154761Y-127301190D02*
X168116666Y-127377380D01*
X168078571Y-127415476D01*
X168002380Y-127453571D01*
X167964285Y-127453571D01*
X167888095Y-127415476D01*
X167850000Y-127377380D01*
X167811904Y-127301190D01*
X167811904Y-127148809D01*
X167850000Y-127072619D01*
X167888095Y-127034523D01*
X167964285Y-126996428D01*
X168002380Y-126996428D01*
X168078571Y-127034523D01*
X168116666Y-127072619D01*
X168154761Y-127148809D01*
X168154761Y-127301190D01*
X168192857Y-127377380D01*
X168230952Y-127415476D01*
X168307142Y-127453571D01*
X168459523Y-127453571D01*
X168535714Y-127415476D01*
X168573809Y-127377380D01*
X168611904Y-127301190D01*
X168611904Y-127148809D01*
X168573809Y-127072619D01*
X168535714Y-127034523D01*
X168459523Y-126996428D01*
X168307142Y-126996428D01*
X168230952Y-127034523D01*
X168192857Y-127072619D01*
X168154761Y-127148809D01*
X172461904Y-129333333D02*
X172080952Y-129600000D01*
X172461904Y-129790476D02*
X171661904Y-129790476D01*
X171661904Y-129485714D01*
X171700000Y-129409523D01*
X171738095Y-129371428D01*
X171814285Y-129333333D01*
X171928571Y-129333333D01*
X172004761Y-129371428D01*
X172042857Y-129409523D01*
X172080952Y-129485714D01*
X172080952Y-129790476D01*
X171661904Y-129066666D02*
X171661904Y-128533333D01*
X172461904Y-128876190D01*
X110300000Y-126257142D02*
X110000000Y-125828571D01*
X109785714Y-126257142D02*
X109785714Y-125357142D01*
X110128571Y-125357142D01*
X110214285Y-125400000D01*
X110257142Y-125442857D01*
X110300000Y-125528571D01*
X110300000Y-125657142D01*
X110257142Y-125742857D01*
X110214285Y-125785714D01*
X110128571Y-125828571D01*
X109785714Y-125828571D01*
X111071428Y-125357142D02*
X110900000Y-125357142D01*
X110814285Y-125400000D01*
X110771428Y-125442857D01*
X110685714Y-125571428D01*
X110642857Y-125742857D01*
X110642857Y-126085714D01*
X110685714Y-126171428D01*
X110728571Y-126214285D01*
X110814285Y-126257142D01*
X110985714Y-126257142D01*
X111071428Y-126214285D01*
X111114285Y-126171428D01*
X111157142Y-126085714D01*
X111157142Y-125871428D01*
X111114285Y-125785714D01*
X111071428Y-125742857D01*
X110985714Y-125700000D01*
X110814285Y-125700000D01*
X110728571Y-125742857D01*
X110685714Y-125785714D01*
X110642857Y-125871428D01*
X173911904Y-126183333D02*
X173530952Y-126450000D01*
X173911904Y-126640476D02*
X173111904Y-126640476D01*
X173111904Y-126335714D01*
X173150000Y-126259523D01*
X173188095Y-126221428D01*
X173264285Y-126183333D01*
X173378571Y-126183333D01*
X173454761Y-126221428D01*
X173492857Y-126259523D01*
X173530952Y-126335714D01*
X173530952Y-126640476D01*
X173111904Y-125459523D02*
X173111904Y-125840476D01*
X173492857Y-125878571D01*
X173454761Y-125840476D01*
X173416666Y-125764285D01*
X173416666Y-125573809D01*
X173454761Y-125497619D01*
X173492857Y-125459523D01*
X173569047Y-125421428D01*
X173759523Y-125421428D01*
X173835714Y-125459523D01*
X173873809Y-125497619D01*
X173911904Y-125573809D01*
X173911904Y-125764285D01*
X173873809Y-125840476D01*
X173835714Y-125878571D01*
X146482380Y-132466666D02*
X146006190Y-132800000D01*
X146482380Y-133038095D02*
X145482380Y-133038095D01*
X145482380Y-132657142D01*
X145530000Y-132561904D01*
X145577619Y-132514285D01*
X145672857Y-132466666D01*
X145815714Y-132466666D01*
X145910952Y-132514285D01*
X145958571Y-132561904D01*
X146006190Y-132657142D01*
X146006190Y-133038095D01*
X145815714Y-131609523D02*
X146482380Y-131609523D01*
X145434761Y-131847619D02*
X146149047Y-132085714D01*
X146149047Y-131466666D01*
X147833333Y-139702380D02*
X147500000Y-139226190D01*
X147261904Y-139702380D02*
X147261904Y-138702380D01*
X147642857Y-138702380D01*
X147738095Y-138750000D01*
X147785714Y-138797619D01*
X147833333Y-138892857D01*
X147833333Y-139035714D01*
X147785714Y-139130952D01*
X147738095Y-139178571D01*
X147642857Y-139226190D01*
X147261904Y-139226190D01*
X148166666Y-138702380D02*
X148785714Y-138702380D01*
X148452380Y-139083333D01*
X148595238Y-139083333D01*
X148690476Y-139130952D01*
X148738095Y-139178571D01*
X148785714Y-139273809D01*
X148785714Y-139511904D01*
X148738095Y-139607142D01*
X148690476Y-139654761D01*
X148595238Y-139702380D01*
X148309523Y-139702380D01*
X148214285Y-139654761D01*
X148166666Y-139607142D01*
X158466666Y-127311904D02*
X158200000Y-126930952D01*
X158009523Y-127311904D02*
X158009523Y-126511904D01*
X158314285Y-126511904D01*
X158390476Y-126550000D01*
X158428571Y-126588095D01*
X158466666Y-126664285D01*
X158466666Y-126778571D01*
X158428571Y-126854761D01*
X158390476Y-126892857D01*
X158314285Y-126930952D01*
X158009523Y-126930952D01*
X158771428Y-126588095D02*
X158809523Y-126550000D01*
X158885714Y-126511904D01*
X159076190Y-126511904D01*
X159152380Y-126550000D01*
X159190476Y-126588095D01*
X159228571Y-126664285D01*
X159228571Y-126740476D01*
X159190476Y-126854761D01*
X158733333Y-127311904D01*
X159228571Y-127311904D01*
X153616666Y-135011904D02*
X153350000Y-134630952D01*
X153159523Y-135011904D02*
X153159523Y-134211904D01*
X153464285Y-134211904D01*
X153540476Y-134250000D01*
X153578571Y-134288095D01*
X153616666Y-134364285D01*
X153616666Y-134478571D01*
X153578571Y-134554761D01*
X153540476Y-134592857D01*
X153464285Y-134630952D01*
X153159523Y-134630952D01*
X154378571Y-135011904D02*
X153921428Y-135011904D01*
X154150000Y-135011904D02*
X154150000Y-134211904D01*
X154073809Y-134326190D01*
X153997619Y-134402380D01*
X153921428Y-134440476D01*
X104164285Y-128642857D02*
X104078571Y-128600000D01*
X103992857Y-128514285D01*
X103864285Y-128385714D01*
X103778571Y-128342857D01*
X103692857Y-128342857D01*
X103735714Y-128557142D02*
X103650000Y-128514285D01*
X103564285Y-128428571D01*
X103521428Y-128257142D01*
X103521428Y-127957142D01*
X103564285Y-127785714D01*
X103650000Y-127700000D01*
X103735714Y-127657142D01*
X103907142Y-127657142D01*
X103992857Y-127700000D01*
X104078571Y-127785714D01*
X104121428Y-127957142D01*
X104121428Y-128257142D01*
X104078571Y-128428571D01*
X103992857Y-128514285D01*
X103907142Y-128557142D01*
X103735714Y-128557142D01*
X104464285Y-127742857D02*
X104507142Y-127700000D01*
X104592857Y-127657142D01*
X104807142Y-127657142D01*
X104892857Y-127700000D01*
X104935714Y-127742857D01*
X104978571Y-127828571D01*
X104978571Y-127914285D01*
X104935714Y-128042857D01*
X104421428Y-128557142D01*
X104978571Y-128557142D01*
X178314285Y-129042857D02*
X178228571Y-129000000D01*
X178142857Y-128914285D01*
X178014285Y-128785714D01*
X177928571Y-128742857D01*
X177842857Y-128742857D01*
X177885714Y-128957142D02*
X177800000Y-128914285D01*
X177714285Y-128828571D01*
X177671428Y-128657142D01*
X177671428Y-128357142D01*
X177714285Y-128185714D01*
X177800000Y-128100000D01*
X177885714Y-128057142D01*
X178057142Y-128057142D01*
X178142857Y-128100000D01*
X178228571Y-128185714D01*
X178271428Y-128357142D01*
X178271428Y-128657142D01*
X178228571Y-128828571D01*
X178142857Y-128914285D01*
X178057142Y-128957142D01*
X177885714Y-128957142D01*
X179128571Y-128957142D02*
X178614285Y-128957142D01*
X178871428Y-128957142D02*
X178871428Y-128057142D01*
X178785714Y-128185714D01*
X178700000Y-128271428D01*
X178614285Y-128314285D01*
X132007142Y-120200000D02*
X132007142Y-120628571D01*
X131107142Y-120628571D01*
X132007142Y-119428571D02*
X132007142Y-119942857D01*
X132007142Y-119685714D02*
X131107142Y-119685714D01*
X131235714Y-119771428D01*
X131321428Y-119857142D01*
X131364285Y-119942857D01*
X162902380Y-129833333D02*
X163616666Y-129833333D01*
X163759523Y-129880952D01*
X163854761Y-129976190D01*
X163902380Y-130119047D01*
X163902380Y-130214285D01*
X162902380Y-128880952D02*
X162902380Y-129357142D01*
X163378571Y-129404761D01*
X163330952Y-129357142D01*
X163283333Y-129261904D01*
X163283333Y-129023809D01*
X163330952Y-128928571D01*
X163378571Y-128880952D01*
X163473809Y-128833333D01*
X163711904Y-128833333D01*
X163807142Y-128880952D01*
X163854761Y-128928571D01*
X163902380Y-129023809D01*
X163902380Y-129261904D01*
X163854761Y-129357142D01*
X163807142Y-129404761D01*
X113352380Y-129828333D02*
X114066666Y-129828333D01*
X114209523Y-129875952D01*
X114304761Y-129971190D01*
X114352380Y-130114047D01*
X114352380Y-130209285D01*
X113685714Y-128923571D02*
X114352380Y-128923571D01*
X113304761Y-129161666D02*
X114019047Y-129399761D01*
X114019047Y-128780714D01*
X120223809Y-137937142D02*
X120176190Y-137984761D01*
X120033333Y-138032380D01*
X119938095Y-138032380D01*
X119795238Y-137984761D01*
X119700000Y-137889523D01*
X119652380Y-137794285D01*
X119604761Y-137603809D01*
X119604761Y-137460952D01*
X119652380Y-137270476D01*
X119700000Y-137175238D01*
X119795238Y-137080000D01*
X119938095Y-137032380D01*
X120033333Y-137032380D01*
X120176190Y-137080000D01*
X120223809Y-137127619D01*
X120652380Y-138032380D02*
X120652380Y-137365714D01*
X120652380Y-137556190D02*
X120700000Y-137460952D01*
X120747619Y-137413333D01*
X120842857Y-137365714D01*
X120938095Y-137365714D01*
X121223809Y-137127619D02*
X121271428Y-137080000D01*
X121366666Y-137032380D01*
X121604761Y-137032380D01*
X121700000Y-137080000D01*
X121747619Y-137127619D01*
X121795238Y-137222857D01*
X121795238Y-137318095D01*
X121747619Y-137460952D01*
X121176190Y-138032380D01*
X121795238Y-138032380D01*
X120527142Y-134176190D02*
X120574761Y-134223809D01*
X120622380Y-134366666D01*
X120622380Y-134461904D01*
X120574761Y-134604761D01*
X120479523Y-134700000D01*
X120384285Y-134747619D01*
X120193809Y-134795238D01*
X120050952Y-134795238D01*
X119860476Y-134747619D01*
X119765238Y-134700000D01*
X119670000Y-134604761D01*
X119622380Y-134461904D01*
X119622380Y-134366666D01*
X119670000Y-134223809D01*
X119717619Y-134176190D01*
X120622380Y-133747619D02*
X119955714Y-133747619D01*
X120146190Y-133747619D02*
X120050952Y-133700000D01*
X120003333Y-133652380D01*
X119955714Y-133557142D01*
X119955714Y-133461904D01*
X120622380Y-132604761D02*
X120622380Y-133176190D01*
X120622380Y-132890476D02*
X119622380Y-132890476D01*
X119765238Y-132985714D01*
X119860476Y-133080952D01*
X119908095Y-133176190D01*
X138227142Y-117845238D02*
X138274761Y-117892857D01*
X138322380Y-118035714D01*
X138322380Y-118130952D01*
X138274761Y-118273809D01*
X138179523Y-118369047D01*
X138084285Y-118416666D01*
X137893809Y-118464285D01*
X137750952Y-118464285D01*
X137560476Y-118416666D01*
X137465238Y-118369047D01*
X137370000Y-118273809D01*
X137322380Y-118130952D01*
X137322380Y-118035714D01*
X137370000Y-117892857D01*
X137417619Y-117845238D01*
X138274761Y-116988095D02*
X138322380Y-117083333D01*
X138322380Y-117273809D01*
X138274761Y-117369047D01*
X138227142Y-117416666D01*
X138131904Y-117464285D01*
X137846190Y-117464285D01*
X137750952Y-117416666D01*
X137703333Y-117369047D01*
X137655714Y-117273809D01*
X137655714Y-117083333D01*
X137703333Y-116988095D01*
X137417619Y-116607142D02*
X137370000Y-116559523D01*
X137322380Y-116464285D01*
X137322380Y-116226190D01*
X137370000Y-116130952D01*
X137417619Y-116083333D01*
X137512857Y-116035714D01*
X137608095Y-116035714D01*
X137750952Y-116083333D01*
X138322380Y-116654761D01*
X138322380Y-116035714D01*
X141477142Y-117845238D02*
X141524761Y-117892857D01*
X141572380Y-118035714D01*
X141572380Y-118130952D01*
X141524761Y-118273809D01*
X141429523Y-118369047D01*
X141334285Y-118416666D01*
X141143809Y-118464285D01*
X141000952Y-118464285D01*
X140810476Y-118416666D01*
X140715238Y-118369047D01*
X140620000Y-118273809D01*
X140572380Y-118130952D01*
X140572380Y-118035714D01*
X140620000Y-117892857D01*
X140667619Y-117845238D01*
X141524761Y-116988095D02*
X141572380Y-117083333D01*
X141572380Y-117273809D01*
X141524761Y-117369047D01*
X141477142Y-117416666D01*
X141381904Y-117464285D01*
X141096190Y-117464285D01*
X141000952Y-117416666D01*
X140953333Y-117369047D01*
X140905714Y-117273809D01*
X140905714Y-117083333D01*
X140953333Y-116988095D01*
X141572380Y-116035714D02*
X141572380Y-116607142D01*
X141572380Y-116321428D02*
X140572380Y-116321428D01*
X140715238Y-116416666D01*
X140810476Y-116511904D01*
X140858095Y-116607142D01*
X147023809Y-125135714D02*
X146985714Y-125173809D01*
X146871428Y-125211904D01*
X146795238Y-125211904D01*
X146680952Y-125173809D01*
X146604761Y-125097619D01*
X146566666Y-125021428D01*
X146528571Y-124869047D01*
X146528571Y-124754761D01*
X146566666Y-124602380D01*
X146604761Y-124526190D01*
X146680952Y-124450000D01*
X146795238Y-124411904D01*
X146871428Y-124411904D01*
X146985714Y-124450000D01*
X147023809Y-124488095D01*
X147290476Y-124411904D02*
X147785714Y-124411904D01*
X147519047Y-124716666D01*
X147633333Y-124716666D01*
X147709523Y-124754761D01*
X147747619Y-124792857D01*
X147785714Y-124869047D01*
X147785714Y-125059523D01*
X147747619Y-125135714D01*
X147709523Y-125173809D01*
X147633333Y-125211904D01*
X147404761Y-125211904D01*
X147328571Y-125173809D01*
X147290476Y-125135714D01*
X148128571Y-125211904D02*
X148128571Y-124411904D01*
X148128571Y-124716666D02*
X148204761Y-124678571D01*
X148357142Y-124678571D01*
X148433333Y-124716666D01*
X148471428Y-124754761D01*
X148509523Y-124830952D01*
X148509523Y-125059523D01*
X148471428Y-125135714D01*
X148433333Y-125173809D01*
X148357142Y-125211904D01*
X148204761Y-125211904D01*
X148128571Y-125173809D01*
X149271428Y-125211904D02*
X148814285Y-125211904D01*
X149042857Y-125211904D02*
X149042857Y-124411904D01*
X148966666Y-124526190D01*
X148890476Y-124602380D01*
X148814285Y-124640476D01*
X150985714Y-127826190D02*
X151023809Y-127864285D01*
X151061904Y-127978571D01*
X151061904Y-128054761D01*
X151023809Y-128169047D01*
X150947619Y-128245238D01*
X150871428Y-128283333D01*
X150719047Y-128321428D01*
X150604761Y-128321428D01*
X150452380Y-128283333D01*
X150376190Y-128245238D01*
X150300000Y-128169047D01*
X150261904Y-128054761D01*
X150261904Y-127978571D01*
X150300000Y-127864285D01*
X150338095Y-127826190D01*
X150261904Y-127559523D02*
X150261904Y-127064285D01*
X150566666Y-127330952D01*
X150566666Y-127216666D01*
X150604761Y-127140476D01*
X150642857Y-127102380D01*
X150719047Y-127064285D01*
X150909523Y-127064285D01*
X150985714Y-127102380D01*
X151023809Y-127140476D01*
X151061904Y-127216666D01*
X151061904Y-127445238D01*
X151023809Y-127521428D01*
X150985714Y-127559523D01*
X151061904Y-126378571D02*
X150642857Y-126378571D01*
X150566666Y-126416666D01*
X150528571Y-126492857D01*
X150528571Y-126645238D01*
X150566666Y-126721428D01*
X151023809Y-126378571D02*
X151061904Y-126454761D01*
X151061904Y-126645238D01*
X151023809Y-126721428D01*
X150947619Y-126759523D01*
X150871428Y-126759523D01*
X150795238Y-126721428D01*
X150757142Y-126645238D01*
X150757142Y-126454761D01*
X150719047Y-126378571D01*
X151061904Y-125578571D02*
X151061904Y-126035714D01*
X151061904Y-125807142D02*
X150261904Y-125807142D01*
X150376190Y-125883333D01*
X150452380Y-125959523D01*
X150490476Y-126035714D01*
X129585714Y-123126190D02*
X129623809Y-123164285D01*
X129661904Y-123278571D01*
X129661904Y-123354761D01*
X129623809Y-123469047D01*
X129547619Y-123545238D01*
X129471428Y-123583333D01*
X129319047Y-123621428D01*
X129204761Y-123621428D01*
X129052380Y-123583333D01*
X128976190Y-123545238D01*
X128900000Y-123469047D01*
X128861904Y-123354761D01*
X128861904Y-123278571D01*
X128900000Y-123164285D01*
X128938095Y-123126190D01*
X128938095Y-122821428D02*
X128900000Y-122783333D01*
X128861904Y-122707142D01*
X128861904Y-122516666D01*
X128900000Y-122440476D01*
X128938095Y-122402380D01*
X129014285Y-122364285D01*
X129090476Y-122364285D01*
X129204761Y-122402380D01*
X129661904Y-122859523D01*
X129661904Y-122364285D01*
X129661904Y-122021428D02*
X128861904Y-122021428D01*
X129166666Y-122021428D02*
X129128571Y-121945238D01*
X129128571Y-121792857D01*
X129166666Y-121716666D01*
X129204761Y-121678571D01*
X129280952Y-121640476D01*
X129509523Y-121640476D01*
X129585714Y-121678571D01*
X129623809Y-121716666D01*
X129661904Y-121792857D01*
X129661904Y-121945238D01*
X129623809Y-122021428D01*
X129661904Y-120878571D02*
X129661904Y-121335714D01*
X129661904Y-121107142D02*
X128861904Y-121107142D01*
X128976190Y-121183333D01*
X129052380Y-121259523D01*
X129090476Y-121335714D01*
X157735714Y-132583333D02*
X157773809Y-132621428D01*
X157811904Y-132735714D01*
X157811904Y-132811904D01*
X157773809Y-132926190D01*
X157697619Y-133002380D01*
X157621428Y-133040476D01*
X157469047Y-133078571D01*
X157354761Y-133078571D01*
X157202380Y-133040476D01*
X157126190Y-133002380D01*
X157050000Y-132926190D01*
X157011904Y-132811904D01*
X157011904Y-132735714D01*
X157050000Y-132621428D01*
X157088095Y-132583333D01*
X157011904Y-131897619D02*
X157011904Y-132050000D01*
X157050000Y-132126190D01*
X157088095Y-132164285D01*
X157202380Y-132240476D01*
X157354761Y-132278571D01*
X157659523Y-132278571D01*
X157735714Y-132240476D01*
X157773809Y-132202380D01*
X157811904Y-132126190D01*
X157811904Y-131973809D01*
X157773809Y-131897619D01*
X157735714Y-131859523D01*
X157659523Y-131821428D01*
X157469047Y-131821428D01*
X157392857Y-131859523D01*
X157354761Y-131897619D01*
X157316666Y-131973809D01*
X157316666Y-132126190D01*
X157354761Y-132202380D01*
X157392857Y-132240476D01*
X157469047Y-132278571D01*
X146266666Y-135185714D02*
X146228571Y-135223809D01*
X146114285Y-135261904D01*
X146038095Y-135261904D01*
X145923809Y-135223809D01*
X145847619Y-135147619D01*
X145809523Y-135071428D01*
X145771428Y-134919047D01*
X145771428Y-134804761D01*
X145809523Y-134652380D01*
X145847619Y-134576190D01*
X145923809Y-134500000D01*
X146038095Y-134461904D01*
X146114285Y-134461904D01*
X146228571Y-134500000D01*
X146266666Y-134538095D01*
X146990476Y-134461904D02*
X146609523Y-134461904D01*
X146571428Y-134842857D01*
X146609523Y-134804761D01*
X146685714Y-134766666D01*
X146876190Y-134766666D01*
X146952380Y-134804761D01*
X146990476Y-134842857D01*
X147028571Y-134919047D01*
X147028571Y-135109523D01*
X146990476Y-135185714D01*
X146952380Y-135223809D01*
X146876190Y-135261904D01*
X146685714Y-135261904D01*
X146609523Y-135223809D01*
X146571428Y-135185714D01*
X146200000Y-129521428D02*
X146157142Y-129564285D01*
X146028571Y-129607142D01*
X145942857Y-129607142D01*
X145814285Y-129564285D01*
X145728571Y-129478571D01*
X145685714Y-129392857D01*
X145642857Y-129221428D01*
X145642857Y-129092857D01*
X145685714Y-128921428D01*
X145728571Y-128835714D01*
X145814285Y-128750000D01*
X145942857Y-128707142D01*
X146028571Y-128707142D01*
X146157142Y-128750000D01*
X146200000Y-128792857D01*
X146971428Y-129007142D02*
X146971428Y-129607142D01*
X146757142Y-128664285D02*
X146542857Y-129307142D01*
X147100000Y-129307142D01*
M02*
