G04 #@! TF.GenerationSoftware,KiCad,Pcbnew,5.99.0-unknown-c7daca1~86~ubuntu18.04.1*
G04 #@! TF.CreationDate,2020-03-27T23:30:00-03:00*
G04 #@! TF.ProjectId,DPL,44504c2e-6b69-4636-9164-5f7063625858,rev?*
G04 #@! TF.SameCoordinates,Original*
G04 #@! TF.FileFunction,Legend,Bot*
G04 #@! TF.FilePolarity,Positive*
%FSLAX46Y46*%
G04 Gerber Fmt 4.6, Leading zero omitted, Abs format (unit mm)*
G04 Created by KiCad (PCBNEW 5.99.0-unknown-c7daca1~86~ubuntu18.04.1) date 2020-03-27 23:30:00*
%MOMM*%
%LPD*%
G01*
G04 APERTURE LIST*
%ADD10C,0.150000*%
%ADD11C,0.300000*%
%ADD12C,0.120000*%
%ADD13C,0.010000*%
G04 APERTURE END LIST*
D10*
X130438095Y-143554642D02*
X129638095Y-143287976D01*
X130438095Y-143021309D01*
X129866666Y-142792738D02*
X129866666Y-142411785D01*
X129638095Y-142868928D02*
X130438095Y-142602261D01*
X129638095Y-142335595D01*
X130438095Y-142068928D02*
X129790476Y-142068928D01*
X129714285Y-142030833D01*
X129676190Y-141992738D01*
X129638095Y-141916547D01*
X129638095Y-141764166D01*
X129676190Y-141687976D01*
X129714285Y-141649880D01*
X129790476Y-141611785D01*
X130438095Y-141611785D01*
X130438095Y-141307023D02*
X129638095Y-140773690D01*
X130438095Y-140773690D02*
X129638095Y-141307023D01*
X130361904Y-140507023D02*
X130400000Y-140468928D01*
X130438095Y-140392738D01*
X130438095Y-140202261D01*
X130400000Y-140126071D01*
X130361904Y-140087976D01*
X130285714Y-140049880D01*
X130209523Y-140049880D01*
X130095238Y-140087976D01*
X129638095Y-140545119D01*
X129638095Y-140049880D01*
X154852380Y-136602380D02*
X155185714Y-136126190D01*
X155423809Y-136602380D02*
X155423809Y-135602380D01*
X155042857Y-135602380D01*
X154947619Y-135650000D01*
X154900000Y-135697619D01*
X154852380Y-135792857D01*
X154852380Y-135935714D01*
X154900000Y-136030952D01*
X154947619Y-136078571D01*
X155042857Y-136126190D01*
X155423809Y-136126190D01*
X154423809Y-136078571D02*
X154090476Y-136078571D01*
X153947619Y-136602380D02*
X154423809Y-136602380D01*
X154423809Y-135602380D01*
X153947619Y-135602380D01*
X153566666Y-136554761D02*
X153423809Y-136602380D01*
X153185714Y-136602380D01*
X153090476Y-136554761D01*
X153042857Y-136507142D01*
X152995238Y-136411904D01*
X152995238Y-136316666D01*
X153042857Y-136221428D01*
X153090476Y-136173809D01*
X153185714Y-136126190D01*
X153376190Y-136078571D01*
X153471428Y-136030952D01*
X153519047Y-135983333D01*
X153566666Y-135888095D01*
X153566666Y-135792857D01*
X153519047Y-135697619D01*
X153471428Y-135650000D01*
X153376190Y-135602380D01*
X153138095Y-135602380D01*
X152995238Y-135650000D01*
X152566666Y-136078571D02*
X152233333Y-136078571D01*
X152090476Y-136602380D02*
X152566666Y-136602380D01*
X152566666Y-135602380D01*
X152090476Y-135602380D01*
X151804761Y-135602380D02*
X151233333Y-135602380D01*
X151519047Y-136602380D02*
X151519047Y-135602380D01*
X102047619Y-128971309D02*
X103047619Y-128971309D01*
X103047619Y-128590357D01*
X103000000Y-128495119D01*
X102952380Y-128447500D01*
X102857142Y-128399880D01*
X102714285Y-128399880D01*
X102619047Y-128447500D01*
X102571428Y-128495119D01*
X102523809Y-128590357D01*
X102523809Y-128971309D01*
X103047619Y-127780833D02*
X103047619Y-127590357D01*
X103000000Y-127495119D01*
X102904761Y-127399880D01*
X102714285Y-127352261D01*
X102380952Y-127352261D01*
X102190476Y-127399880D01*
X102095238Y-127495119D01*
X102047619Y-127590357D01*
X102047619Y-127780833D01*
X102095238Y-127876071D01*
X102190476Y-127971309D01*
X102380952Y-128018928D01*
X102714285Y-128018928D01*
X102904761Y-127971309D01*
X103000000Y-127876071D01*
X103047619Y-127780833D01*
X102047619Y-126352261D02*
X102523809Y-126685595D01*
X102047619Y-126923690D02*
X103047619Y-126923690D01*
X103047619Y-126542738D01*
X103000000Y-126447500D01*
X102952380Y-126399880D01*
X102857142Y-126352261D01*
X102714285Y-126352261D01*
X102619047Y-126399880D01*
X102571428Y-126447500D01*
X102523809Y-126542738D01*
X102523809Y-126923690D01*
X103047619Y-126066547D02*
X103047619Y-125495119D01*
X102047619Y-125780833D02*
X103047619Y-125780833D01*
X102952380Y-125209404D02*
X103000000Y-125161785D01*
X103047619Y-125066547D01*
X103047619Y-124828452D01*
X103000000Y-124733214D01*
X102952380Y-124685595D01*
X102857142Y-124637976D01*
X102761904Y-124637976D01*
X102619047Y-124685595D01*
X102047619Y-125257023D01*
X102047619Y-124637976D01*
X179347619Y-128971309D02*
X180347619Y-128971309D01*
X180347619Y-128590357D01*
X180300000Y-128495119D01*
X180252380Y-128447500D01*
X180157142Y-128399880D01*
X180014285Y-128399880D01*
X179919047Y-128447500D01*
X179871428Y-128495119D01*
X179823809Y-128590357D01*
X179823809Y-128971309D01*
X180347619Y-127780833D02*
X180347619Y-127590357D01*
X180300000Y-127495119D01*
X180204761Y-127399880D01*
X180014285Y-127352261D01*
X179680952Y-127352261D01*
X179490476Y-127399880D01*
X179395238Y-127495119D01*
X179347619Y-127590357D01*
X179347619Y-127780833D01*
X179395238Y-127876071D01*
X179490476Y-127971309D01*
X179680952Y-128018928D01*
X180014285Y-128018928D01*
X180204761Y-127971309D01*
X180300000Y-127876071D01*
X180347619Y-127780833D01*
X179347619Y-126352261D02*
X179823809Y-126685595D01*
X179347619Y-126923690D02*
X180347619Y-126923690D01*
X180347619Y-126542738D01*
X180300000Y-126447500D01*
X180252380Y-126399880D01*
X180157142Y-126352261D01*
X180014285Y-126352261D01*
X179919047Y-126399880D01*
X179871428Y-126447500D01*
X179823809Y-126542738D01*
X179823809Y-126923690D01*
X180347619Y-126066547D02*
X180347619Y-125495119D01*
X179347619Y-125780833D02*
X180347619Y-125780833D01*
X179347619Y-124637976D02*
X179347619Y-125209404D01*
X179347619Y-124923690D02*
X180347619Y-124923690D01*
X180204761Y-125018928D01*
X180109523Y-125114166D01*
X180061904Y-125209404D01*
X120583214Y-135250000D02*
X120678452Y-135202380D01*
X120821309Y-135202380D01*
X120964166Y-135250000D01*
X121059404Y-135345238D01*
X121107023Y-135440476D01*
X121154642Y-135630952D01*
X121154642Y-135773809D01*
X121107023Y-135964285D01*
X121059404Y-136059523D01*
X120964166Y-136154761D01*
X120821309Y-136202380D01*
X120726071Y-136202380D01*
X120583214Y-136154761D01*
X120535595Y-136107142D01*
X120535595Y-135773809D01*
X120726071Y-135773809D01*
X120107023Y-136202380D02*
X120107023Y-135202380D01*
X119535595Y-136202380D01*
X119535595Y-135202380D01*
X119059404Y-136202380D02*
X119059404Y-135202380D01*
X118821309Y-135202380D01*
X118678452Y-135250000D01*
X118583214Y-135345238D01*
X118535595Y-135440476D01*
X118487976Y-135630952D01*
X118487976Y-135773809D01*
X118535595Y-135964285D01*
X118583214Y-136059523D01*
X118678452Y-136154761D01*
X118821309Y-136202380D01*
X119059404Y-136202380D01*
X121916547Y-132702380D02*
X121583214Y-133702380D01*
X121249880Y-132702380D01*
X120964166Y-133416666D02*
X120487976Y-133416666D01*
X121059404Y-133702380D02*
X120726071Y-132702380D01*
X120392738Y-133702380D01*
X120059404Y-132702380D02*
X120059404Y-133511904D01*
X120011785Y-133607142D01*
X119964166Y-133654761D01*
X119868928Y-133702380D01*
X119678452Y-133702380D01*
X119583214Y-133654761D01*
X119535595Y-133607142D01*
X119487976Y-133511904D01*
X119487976Y-132702380D01*
X119107023Y-132702380D02*
X118440357Y-133702380D01*
X118440357Y-132702380D02*
X119107023Y-133702380D01*
X123911785Y-131782142D02*
X123911785Y-130882142D01*
X123697500Y-130882142D01*
X123568928Y-130925000D01*
X123483214Y-131010714D01*
X123440357Y-131096428D01*
X123397500Y-131267857D01*
X123397500Y-131396428D01*
X123440357Y-131567857D01*
X123483214Y-131653571D01*
X123568928Y-131739285D01*
X123697500Y-131782142D01*
X123911785Y-131782142D01*
X123011785Y-131782142D02*
X123011785Y-130882142D01*
X122668928Y-130882142D01*
X122583214Y-130925000D01*
X122540357Y-130967857D01*
X122497500Y-131053571D01*
X122497500Y-131182142D01*
X122540357Y-131267857D01*
X122583214Y-131310714D01*
X122668928Y-131353571D01*
X123011785Y-131353571D01*
X121683214Y-131782142D02*
X122111785Y-131782142D01*
X122111785Y-130882142D01*
X121597500Y-131867857D02*
X120911785Y-131867857D01*
X120697500Y-131310714D02*
X120397500Y-131310714D01*
X120268928Y-131782142D02*
X120697500Y-131782142D01*
X120697500Y-130882142D01*
X120268928Y-130882142D01*
X119883214Y-131782142D02*
X119883214Y-130882142D01*
X119368928Y-131782142D01*
X119368928Y-130882142D01*
X119026071Y-130882142D02*
X118468928Y-130882142D01*
X118768928Y-131225000D01*
X118640357Y-131225000D01*
X118554642Y-131267857D01*
X118511785Y-131310714D01*
X118468928Y-131396428D01*
X118468928Y-131610714D01*
X118511785Y-131696428D01*
X118554642Y-131739285D01*
X118640357Y-131782142D01*
X118897500Y-131782142D01*
X118983214Y-131739285D01*
X119026071Y-131696428D01*
X124468928Y-130532142D02*
X124468928Y-129632142D01*
X124254642Y-129632142D01*
X124126071Y-129675000D01*
X124040357Y-129760714D01*
X123997500Y-129846428D01*
X123954642Y-130017857D01*
X123954642Y-130146428D01*
X123997500Y-130317857D01*
X124040357Y-130403571D01*
X124126071Y-130489285D01*
X124254642Y-130532142D01*
X124468928Y-130532142D01*
X123568928Y-130532142D02*
X123568928Y-129632142D01*
X123226071Y-129632142D01*
X123140357Y-129675000D01*
X123097500Y-129717857D01*
X123054642Y-129803571D01*
X123054642Y-129932142D01*
X123097500Y-130017857D01*
X123140357Y-130060714D01*
X123226071Y-130103571D01*
X123568928Y-130103571D01*
X122240357Y-130532142D02*
X122668928Y-130532142D01*
X122668928Y-129632142D01*
X122154642Y-130617857D02*
X121468928Y-130617857D01*
X121297500Y-130489285D02*
X121168928Y-130532142D01*
X120954642Y-130532142D01*
X120868928Y-130489285D01*
X120826071Y-130446428D01*
X120783214Y-130360714D01*
X120783214Y-130275000D01*
X120826071Y-130189285D01*
X120868928Y-130146428D01*
X120954642Y-130103571D01*
X121126071Y-130060714D01*
X121211785Y-130017857D01*
X121254642Y-129975000D01*
X121297500Y-129889285D01*
X121297500Y-129803571D01*
X121254642Y-129717857D01*
X121211785Y-129675000D01*
X121126071Y-129632142D01*
X120911785Y-129632142D01*
X120783214Y-129675000D01*
X120526071Y-129632142D02*
X120011785Y-129632142D01*
X120268928Y-130532142D02*
X120268928Y-129632142D01*
X119754642Y-130275000D02*
X119326071Y-130275000D01*
X119840357Y-130532142D02*
X119540357Y-129632142D01*
X119240357Y-130532142D01*
X119026071Y-129632142D02*
X118468928Y-129632142D01*
X118768928Y-129975000D01*
X118640357Y-129975000D01*
X118554642Y-130017857D01*
X118511785Y-130060714D01*
X118468928Y-130146428D01*
X118468928Y-130360714D01*
X118511785Y-130446428D01*
X118554642Y-130489285D01*
X118640357Y-130532142D01*
X118897500Y-130532142D01*
X118983214Y-130489285D01*
X119026071Y-130446428D01*
X123911785Y-129282142D02*
X123911785Y-128382142D01*
X123697500Y-128382142D01*
X123568928Y-128425000D01*
X123483214Y-128510714D01*
X123440357Y-128596428D01*
X123397500Y-128767857D01*
X123397500Y-128896428D01*
X123440357Y-129067857D01*
X123483214Y-129153571D01*
X123568928Y-129239285D01*
X123697500Y-129282142D01*
X123911785Y-129282142D01*
X123011785Y-129282142D02*
X123011785Y-128382142D01*
X122668928Y-128382142D01*
X122583214Y-128425000D01*
X122540357Y-128467857D01*
X122497500Y-128553571D01*
X122497500Y-128682142D01*
X122540357Y-128767857D01*
X122583214Y-128810714D01*
X122668928Y-128853571D01*
X123011785Y-128853571D01*
X121683214Y-129282142D02*
X122111785Y-129282142D01*
X122111785Y-128382142D01*
X121597500Y-129367857D02*
X120911785Y-129367857D01*
X120697500Y-128810714D02*
X120397500Y-128810714D01*
X120268928Y-129282142D02*
X120697500Y-129282142D01*
X120697500Y-128382142D01*
X120268928Y-128382142D01*
X119883214Y-129282142D02*
X119883214Y-128382142D01*
X119368928Y-129282142D01*
X119368928Y-128382142D01*
X118554642Y-128682142D02*
X118554642Y-129282142D01*
X118768928Y-128339285D02*
X118983214Y-128982142D01*
X118426071Y-128982142D01*
X124468928Y-128032142D02*
X124468928Y-127132142D01*
X124254642Y-127132142D01*
X124126071Y-127175000D01*
X124040357Y-127260714D01*
X123997500Y-127346428D01*
X123954642Y-127517857D01*
X123954642Y-127646428D01*
X123997500Y-127817857D01*
X124040357Y-127903571D01*
X124126071Y-127989285D01*
X124254642Y-128032142D01*
X124468928Y-128032142D01*
X123568928Y-128032142D02*
X123568928Y-127132142D01*
X123226071Y-127132142D01*
X123140357Y-127175000D01*
X123097500Y-127217857D01*
X123054642Y-127303571D01*
X123054642Y-127432142D01*
X123097500Y-127517857D01*
X123140357Y-127560714D01*
X123226071Y-127603571D01*
X123568928Y-127603571D01*
X122240357Y-128032142D02*
X122668928Y-128032142D01*
X122668928Y-127132142D01*
X122154642Y-128117857D02*
X121468928Y-128117857D01*
X121297500Y-127989285D02*
X121168928Y-128032142D01*
X120954642Y-128032142D01*
X120868928Y-127989285D01*
X120826071Y-127946428D01*
X120783214Y-127860714D01*
X120783214Y-127775000D01*
X120826071Y-127689285D01*
X120868928Y-127646428D01*
X120954642Y-127603571D01*
X121126071Y-127560714D01*
X121211785Y-127517857D01*
X121254642Y-127475000D01*
X121297500Y-127389285D01*
X121297500Y-127303571D01*
X121254642Y-127217857D01*
X121211785Y-127175000D01*
X121126071Y-127132142D01*
X120911785Y-127132142D01*
X120783214Y-127175000D01*
X120526071Y-127132142D02*
X120011785Y-127132142D01*
X120268928Y-128032142D02*
X120268928Y-127132142D01*
X119754642Y-127775000D02*
X119326071Y-127775000D01*
X119840357Y-128032142D02*
X119540357Y-127132142D01*
X119240357Y-128032142D01*
X118554642Y-127432142D02*
X118554642Y-128032142D01*
X118768928Y-127089285D02*
X118983214Y-127732142D01*
X118426071Y-127732142D01*
X123911785Y-126782142D02*
X123911785Y-125882142D01*
X123697500Y-125882142D01*
X123568928Y-125925000D01*
X123483214Y-126010714D01*
X123440357Y-126096428D01*
X123397500Y-126267857D01*
X123397500Y-126396428D01*
X123440357Y-126567857D01*
X123483214Y-126653571D01*
X123568928Y-126739285D01*
X123697500Y-126782142D01*
X123911785Y-126782142D01*
X123011785Y-126782142D02*
X123011785Y-125882142D01*
X122668928Y-125882142D01*
X122583214Y-125925000D01*
X122540357Y-125967857D01*
X122497500Y-126053571D01*
X122497500Y-126182142D01*
X122540357Y-126267857D01*
X122583214Y-126310714D01*
X122668928Y-126353571D01*
X123011785Y-126353571D01*
X121683214Y-126782142D02*
X122111785Y-126782142D01*
X122111785Y-125882142D01*
X121597500Y-126867857D02*
X120911785Y-126867857D01*
X120697500Y-126310714D02*
X120397500Y-126310714D01*
X120268928Y-126782142D02*
X120697500Y-126782142D01*
X120697500Y-125882142D01*
X120268928Y-125882142D01*
X119883214Y-126782142D02*
X119883214Y-125882142D01*
X119368928Y-126782142D01*
X119368928Y-125882142D01*
X118511785Y-125882142D02*
X118940357Y-125882142D01*
X118983214Y-126310714D01*
X118940357Y-126267857D01*
X118854642Y-126225000D01*
X118640357Y-126225000D01*
X118554642Y-126267857D01*
X118511785Y-126310714D01*
X118468928Y-126396428D01*
X118468928Y-126610714D01*
X118511785Y-126696428D01*
X118554642Y-126739285D01*
X118640357Y-126782142D01*
X118854642Y-126782142D01*
X118940357Y-126739285D01*
X118983214Y-126696428D01*
X124468928Y-125532142D02*
X124468928Y-124632142D01*
X124254642Y-124632142D01*
X124126071Y-124675000D01*
X124040357Y-124760714D01*
X123997500Y-124846428D01*
X123954642Y-125017857D01*
X123954642Y-125146428D01*
X123997500Y-125317857D01*
X124040357Y-125403571D01*
X124126071Y-125489285D01*
X124254642Y-125532142D01*
X124468928Y-125532142D01*
X123568928Y-125532142D02*
X123568928Y-124632142D01*
X123226071Y-124632142D01*
X123140357Y-124675000D01*
X123097500Y-124717857D01*
X123054642Y-124803571D01*
X123054642Y-124932142D01*
X123097500Y-125017857D01*
X123140357Y-125060714D01*
X123226071Y-125103571D01*
X123568928Y-125103571D01*
X122240357Y-125532142D02*
X122668928Y-125532142D01*
X122668928Y-124632142D01*
X122154642Y-125617857D02*
X121468928Y-125617857D01*
X121297500Y-125489285D02*
X121168928Y-125532142D01*
X120954642Y-125532142D01*
X120868928Y-125489285D01*
X120826071Y-125446428D01*
X120783214Y-125360714D01*
X120783214Y-125275000D01*
X120826071Y-125189285D01*
X120868928Y-125146428D01*
X120954642Y-125103571D01*
X121126071Y-125060714D01*
X121211785Y-125017857D01*
X121254642Y-124975000D01*
X121297500Y-124889285D01*
X121297500Y-124803571D01*
X121254642Y-124717857D01*
X121211785Y-124675000D01*
X121126071Y-124632142D01*
X120911785Y-124632142D01*
X120783214Y-124675000D01*
X120526071Y-124632142D02*
X120011785Y-124632142D01*
X120268928Y-125532142D02*
X120268928Y-124632142D01*
X119754642Y-125275000D02*
X119326071Y-125275000D01*
X119840357Y-125532142D02*
X119540357Y-124632142D01*
X119240357Y-125532142D01*
X118511785Y-124632142D02*
X118940357Y-124632142D01*
X118983214Y-125060714D01*
X118940357Y-125017857D01*
X118854642Y-124975000D01*
X118640357Y-124975000D01*
X118554642Y-125017857D01*
X118511785Y-125060714D01*
X118468928Y-125146428D01*
X118468928Y-125360714D01*
X118511785Y-125446428D01*
X118554642Y-125489285D01*
X118640357Y-125532142D01*
X118854642Y-125532142D01*
X118940357Y-125489285D01*
X118983214Y-125446428D01*
X155885714Y-142511785D02*
X155842857Y-142383214D01*
X155842857Y-142168928D01*
X155885714Y-142083214D01*
X155928571Y-142040357D01*
X156014285Y-141997500D01*
X156100000Y-141997500D01*
X156185714Y-142040357D01*
X156228571Y-142083214D01*
X156271428Y-142168928D01*
X156314285Y-142340357D01*
X156357142Y-142426071D01*
X156400000Y-142468928D01*
X156485714Y-142511785D01*
X156571428Y-142511785D01*
X156657142Y-142468928D01*
X156700000Y-142426071D01*
X156742857Y-142340357D01*
X156742857Y-142126071D01*
X156700000Y-141997500D01*
X156742857Y-141697500D02*
X155842857Y-141483214D01*
X156485714Y-141311785D01*
X155842857Y-141140357D01*
X156742857Y-140926071D01*
X155842857Y-140583214D02*
X156742857Y-140583214D01*
X156742857Y-140368928D01*
X156700000Y-140240357D01*
X156614285Y-140154642D01*
X156528571Y-140111785D01*
X156357142Y-140068928D01*
X156228571Y-140068928D01*
X156057142Y-140111785D01*
X155971428Y-140154642D01*
X155885714Y-140240357D01*
X155842857Y-140368928D01*
X155842857Y-140583214D01*
X154635714Y-142511785D02*
X154592857Y-142383214D01*
X154592857Y-142168928D01*
X154635714Y-142083214D01*
X154678571Y-142040357D01*
X154764285Y-141997500D01*
X154850000Y-141997500D01*
X154935714Y-142040357D01*
X154978571Y-142083214D01*
X155021428Y-142168928D01*
X155064285Y-142340357D01*
X155107142Y-142426071D01*
X155150000Y-142468928D01*
X155235714Y-142511785D01*
X155321428Y-142511785D01*
X155407142Y-142468928D01*
X155450000Y-142426071D01*
X155492857Y-142340357D01*
X155492857Y-142126071D01*
X155450000Y-141997500D01*
X155492857Y-141697500D02*
X154592857Y-141483214D01*
X155235714Y-141311785D01*
X154592857Y-141140357D01*
X155492857Y-140926071D01*
X154678571Y-140068928D02*
X154635714Y-140111785D01*
X154592857Y-140240357D01*
X154592857Y-140326071D01*
X154635714Y-140454642D01*
X154721428Y-140540357D01*
X154807142Y-140583214D01*
X154978571Y-140626071D01*
X155107142Y-140626071D01*
X155278571Y-140583214D01*
X155364285Y-140540357D01*
X155450000Y-140454642D01*
X155492857Y-140326071D01*
X155492857Y-140240357D01*
X155450000Y-140111785D01*
X155407142Y-140068928D01*
X154200000Y-141954642D02*
X154242857Y-142040357D01*
X154242857Y-142168928D01*
X154200000Y-142297500D01*
X154114285Y-142383214D01*
X154028571Y-142426071D01*
X153857142Y-142468928D01*
X153728571Y-142468928D01*
X153557142Y-142426071D01*
X153471428Y-142383214D01*
X153385714Y-142297500D01*
X153342857Y-142168928D01*
X153342857Y-142083214D01*
X153385714Y-141954642D01*
X153428571Y-141911785D01*
X153728571Y-141911785D01*
X153728571Y-142083214D01*
X153342857Y-141526071D02*
X154242857Y-141526071D01*
X153342857Y-141011785D01*
X154242857Y-141011785D01*
X153342857Y-140583214D02*
X154242857Y-140583214D01*
X154242857Y-140368928D01*
X154200000Y-140240357D01*
X154114285Y-140154642D01*
X154028571Y-140111785D01*
X153857142Y-140068928D01*
X153728571Y-140068928D01*
X153557142Y-140111785D01*
X153471428Y-140154642D01*
X153385714Y-140240357D01*
X153342857Y-140368928D01*
X153342857Y-140583214D01*
X152992857Y-142254642D02*
X152992857Y-141697500D01*
X152650000Y-141997500D01*
X152650000Y-141868928D01*
X152607142Y-141783214D01*
X152564285Y-141740357D01*
X152478571Y-141697500D01*
X152264285Y-141697500D01*
X152178571Y-141740357D01*
X152135714Y-141783214D01*
X152092857Y-141868928D01*
X152092857Y-142126071D01*
X152135714Y-142211785D01*
X152178571Y-142254642D01*
X152992857Y-141440357D02*
X152092857Y-141140357D01*
X152992857Y-140840357D01*
X152992857Y-140626071D02*
X152992857Y-140068928D01*
X152650000Y-140368928D01*
X152650000Y-140240357D01*
X152607142Y-140154642D01*
X152564285Y-140111785D01*
X152478571Y-140068928D01*
X152264285Y-140068928D01*
X152178571Y-140111785D01*
X152135714Y-140154642D01*
X152092857Y-140240357D01*
X152092857Y-140497500D01*
X152135714Y-140583214D01*
X152178571Y-140626071D01*
X150842857Y-141611785D02*
X151271428Y-141911785D01*
X150842857Y-142126071D02*
X151742857Y-142126071D01*
X151742857Y-141783214D01*
X151700000Y-141697500D01*
X151657142Y-141654642D01*
X151571428Y-141611785D01*
X151442857Y-141611785D01*
X151357142Y-141654642D01*
X151314285Y-141697500D01*
X151271428Y-141783214D01*
X151271428Y-142126071D01*
X150885714Y-141268928D02*
X150842857Y-141140357D01*
X150842857Y-140926071D01*
X150885714Y-140840357D01*
X150928571Y-140797500D01*
X151014285Y-140754642D01*
X151100000Y-140754642D01*
X151185714Y-140797500D01*
X151228571Y-140840357D01*
X151271428Y-140926071D01*
X151314285Y-141097500D01*
X151357142Y-141183214D01*
X151400000Y-141226071D01*
X151485714Y-141268928D01*
X151571428Y-141268928D01*
X151657142Y-141226071D01*
X151700000Y-141183214D01*
X151742857Y-141097500D01*
X151742857Y-140883214D01*
X151700000Y-140754642D01*
X151742857Y-140497500D02*
X151742857Y-139983214D01*
X150842857Y-140240357D02*
X151742857Y-140240357D01*
X125885714Y-142211785D02*
X125842857Y-142083214D01*
X125842857Y-141868928D01*
X125885714Y-141783214D01*
X125928571Y-141740357D01*
X126014285Y-141697500D01*
X126100000Y-141697500D01*
X126185714Y-141740357D01*
X126228571Y-141783214D01*
X126271428Y-141868928D01*
X126314285Y-142040357D01*
X126357142Y-142126071D01*
X126400000Y-142168928D01*
X126485714Y-142211785D01*
X126571428Y-142211785D01*
X126657142Y-142168928D01*
X126700000Y-142126071D01*
X126742857Y-142040357D01*
X126742857Y-141826071D01*
X126700000Y-141697500D01*
X125928571Y-140797500D02*
X125885714Y-140840357D01*
X125842857Y-140968928D01*
X125842857Y-141054642D01*
X125885714Y-141183214D01*
X125971428Y-141268928D01*
X126057142Y-141311785D01*
X126228571Y-141354642D01*
X126357142Y-141354642D01*
X126528571Y-141311785D01*
X126614285Y-141268928D01*
X126700000Y-141183214D01*
X126742857Y-141054642D01*
X126742857Y-140968928D01*
X126700000Y-140840357D01*
X126657142Y-140797500D01*
X125842857Y-139983214D02*
X125842857Y-140411785D01*
X126742857Y-140411785D01*
X124635714Y-142254642D02*
X124592857Y-142126071D01*
X124592857Y-141911785D01*
X124635714Y-141826071D01*
X124678571Y-141783214D01*
X124764285Y-141740357D01*
X124850000Y-141740357D01*
X124935714Y-141783214D01*
X124978571Y-141826071D01*
X125021428Y-141911785D01*
X125064285Y-142083214D01*
X125107142Y-142168928D01*
X125150000Y-142211785D01*
X125235714Y-142254642D01*
X125321428Y-142254642D01*
X125407142Y-142211785D01*
X125450000Y-142168928D01*
X125492857Y-142083214D01*
X125492857Y-141868928D01*
X125450000Y-141740357D01*
X124592857Y-141354642D02*
X125492857Y-141354642D01*
X125492857Y-141140357D01*
X125450000Y-141011785D01*
X125364285Y-140926071D01*
X125278571Y-140883214D01*
X125107142Y-140840357D01*
X124978571Y-140840357D01*
X124807142Y-140883214D01*
X124721428Y-140926071D01*
X124635714Y-141011785D01*
X124592857Y-141140357D01*
X124592857Y-141354642D01*
X124850000Y-140497500D02*
X124850000Y-140068928D01*
X124592857Y-140583214D02*
X125492857Y-140283214D01*
X124592857Y-139983214D01*
X127992857Y-142254642D02*
X127992857Y-141697500D01*
X127650000Y-141997500D01*
X127650000Y-141868928D01*
X127607142Y-141783214D01*
X127564285Y-141740357D01*
X127478571Y-141697500D01*
X127264285Y-141697500D01*
X127178571Y-141740357D01*
X127135714Y-141783214D01*
X127092857Y-141868928D01*
X127092857Y-142126071D01*
X127135714Y-142211785D01*
X127178571Y-142254642D01*
X127992857Y-141440357D02*
X127092857Y-141140357D01*
X127992857Y-140840357D01*
X127992857Y-140626071D02*
X127992857Y-140068928D01*
X127650000Y-140368928D01*
X127650000Y-140240357D01*
X127607142Y-140154642D01*
X127564285Y-140111785D01*
X127478571Y-140068928D01*
X127264285Y-140068928D01*
X127178571Y-140111785D01*
X127135714Y-140154642D01*
X127092857Y-140240357D01*
X127092857Y-140497500D01*
X127135714Y-140583214D01*
X127178571Y-140626071D01*
X129200000Y-141954642D02*
X129242857Y-142040357D01*
X129242857Y-142168928D01*
X129200000Y-142297500D01*
X129114285Y-142383214D01*
X129028571Y-142426071D01*
X128857142Y-142468928D01*
X128728571Y-142468928D01*
X128557142Y-142426071D01*
X128471428Y-142383214D01*
X128385714Y-142297500D01*
X128342857Y-142168928D01*
X128342857Y-142083214D01*
X128385714Y-141954642D01*
X128428571Y-141911785D01*
X128728571Y-141911785D01*
X128728571Y-142083214D01*
X128342857Y-141526071D02*
X129242857Y-141526071D01*
X128342857Y-141011785D01*
X129242857Y-141011785D01*
X128342857Y-140583214D02*
X129242857Y-140583214D01*
X129242857Y-140368928D01*
X129200000Y-140240357D01*
X129114285Y-140154642D01*
X129028571Y-140111785D01*
X128857142Y-140068928D01*
X128728571Y-140068928D01*
X128557142Y-140111785D01*
X128471428Y-140154642D01*
X128385714Y-140240357D01*
X128342857Y-140368928D01*
X128342857Y-140583214D01*
X131742857Y-143154642D02*
X130842857Y-142854642D01*
X131742857Y-142554642D01*
X131100000Y-142297500D02*
X131100000Y-141868928D01*
X130842857Y-142383214D02*
X131742857Y-142083214D01*
X130842857Y-141783214D01*
X131742857Y-141483214D02*
X131014285Y-141483214D01*
X130928571Y-141440357D01*
X130885714Y-141397500D01*
X130842857Y-141311785D01*
X130842857Y-141140357D01*
X130885714Y-141054642D01*
X130928571Y-141011785D01*
X131014285Y-140968928D01*
X131742857Y-140968928D01*
X131742857Y-140626071D02*
X130842857Y-140026071D01*
X131742857Y-140026071D02*
X130842857Y-140626071D01*
D11*
X147500000Y-123678571D02*
X147500000Y-122178571D01*
X147142857Y-122178571D01*
X146928571Y-122250000D01*
X146785714Y-122392857D01*
X146714285Y-122535714D01*
X146642857Y-122821428D01*
X146642857Y-123035714D01*
X146714285Y-123321428D01*
X146785714Y-123464285D01*
X146928571Y-123607142D01*
X147142857Y-123678571D01*
X147500000Y-123678571D01*
X146000000Y-123678571D02*
X146000000Y-122178571D01*
X145428571Y-122178571D01*
X145285714Y-122250000D01*
X145214285Y-122321428D01*
X145142857Y-122464285D01*
X145142857Y-122678571D01*
X145214285Y-122821428D01*
X145285714Y-122892857D01*
X145428571Y-122964285D01*
X146000000Y-122964285D01*
X143785714Y-123678571D02*
X144500000Y-123678571D01*
X144500000Y-122178571D01*
X143285714Y-123107142D02*
X142142857Y-123107142D01*
X141500000Y-123250000D02*
X140785714Y-123250000D01*
X141642857Y-123678571D02*
X141142857Y-122178571D01*
X140642857Y-123678571D01*
X139142857Y-122678571D02*
X138785714Y-123678571D01*
X138428571Y-122678571D01*
X137071428Y-123678571D02*
X137928571Y-123678571D01*
X137500000Y-123678571D02*
X137500000Y-122178571D01*
X137642857Y-122392857D01*
X137785714Y-122535714D01*
X137928571Y-122607142D01*
X136428571Y-123535714D02*
X136357142Y-123607142D01*
X136428571Y-123678571D01*
X136500000Y-123607142D01*
X136428571Y-123535714D01*
X136428571Y-123678571D01*
X135428571Y-122178571D02*
X135285714Y-122178571D01*
X135142857Y-122250000D01*
X135071428Y-122321428D01*
X135000000Y-122464285D01*
X134928571Y-122750000D01*
X134928571Y-123107142D01*
X135000000Y-123392857D01*
X135071428Y-123535714D01*
X135142857Y-123607142D01*
X135285714Y-123678571D01*
X135428571Y-123678571D01*
X135571428Y-123607142D01*
X135642857Y-123535714D01*
X135714285Y-123392857D01*
X135785714Y-123107142D01*
X135785714Y-122750000D01*
X135714285Y-122464285D01*
X135642857Y-122321428D01*
X135571428Y-122250000D01*
X135428571Y-122178571D01*
D12*
X168590000Y-127750000D02*
X168590000Y-124890000D01*
X168590000Y-124890000D02*
X170510000Y-124890000D01*
X170510000Y-124890000D02*
X170510000Y-127750000D01*
X178660000Y-124270000D02*
X171040000Y-124270000D01*
X171040000Y-124270000D02*
X171040000Y-128970000D01*
X171040000Y-128970000D02*
X178660000Y-128970000D01*
X178660000Y-128970000D02*
X178660000Y-124270000D01*
X171040000Y-128270000D02*
X178660000Y-128270000D01*
X111560000Y-124270000D02*
X103940000Y-124270000D01*
X103940000Y-124270000D02*
X103940000Y-128970000D01*
X103940000Y-128970000D02*
X111560000Y-128970000D01*
X111560000Y-128970000D02*
X111560000Y-124270000D01*
X103940000Y-128270000D02*
X111560000Y-128270000D01*
G36*
X135729734Y-131791645D02*
G01*
X135735366Y-131797835D01*
X135740456Y-131806041D01*
X135744543Y-131817817D01*
X135747721Y-131835276D01*
X135750087Y-131860530D01*
X135751738Y-131895690D01*
X135752769Y-131942869D01*
X135753277Y-132004177D01*
X135753359Y-132081727D01*
X135753109Y-132177631D01*
X135752625Y-132294000D01*
X135752557Y-132308175D01*
X135751971Y-132369937D01*
X135750648Y-132413620D01*
X135748103Y-132443001D01*
X135743848Y-132461855D01*
X135737396Y-132473959D01*
X135728262Y-132483089D01*
X135694804Y-132500506D01*
X135659856Y-132497604D01*
X135628953Y-132473100D01*
X135619944Y-132459897D01*
X135612492Y-132441361D01*
X135608124Y-132415333D01*
X135606069Y-132376787D01*
X135605556Y-132320700D01*
X135605556Y-132198045D01*
X135108845Y-132198045D01*
X135108845Y-132332871D01*
X135108772Y-132368662D01*
X135108009Y-132414992D01*
X135105833Y-132445526D01*
X135101536Y-132464557D01*
X135094412Y-132476374D01*
X135083755Y-132485271D01*
X135051504Y-132500341D01*
X135016217Y-132497673D01*
X134985486Y-132473100D01*
X134980831Y-132466845D01*
X134974895Y-132456321D01*
X134970364Y-132442391D01*
X134967048Y-132422317D01*
X134964759Y-132393360D01*
X134963308Y-132352780D01*
X134962505Y-132297840D01*
X134962162Y-132225799D01*
X134962089Y-132133920D01*
X134962089Y-131824485D01*
X134989798Y-131796776D01*
X135021177Y-131774533D01*
X135054406Y-131771844D01*
X135086267Y-131791645D01*
X135094553Y-131801415D01*
X135101965Y-131817307D01*
X135106302Y-131841275D01*
X135108338Y-131878148D01*
X135108845Y-131932756D01*
X135108845Y-132051289D01*
X135605556Y-132051289D01*
X135605556Y-131935776D01*
X135605994Y-131884078D01*
X135607958Y-131849554D01*
X135612474Y-131826978D01*
X135620567Y-131811126D01*
X135633265Y-131796776D01*
X135664643Y-131774533D01*
X135697872Y-131771844D01*
X135729734Y-131791645D01*
G37*
D13*
X135729734Y-131791645D02*
X135735366Y-131797835D01*
X135740456Y-131806041D01*
X135744543Y-131817817D01*
X135747721Y-131835276D01*
X135750087Y-131860530D01*
X135751738Y-131895690D01*
X135752769Y-131942869D01*
X135753277Y-132004177D01*
X135753359Y-132081727D01*
X135753109Y-132177631D01*
X135752625Y-132294000D01*
X135752557Y-132308175D01*
X135751971Y-132369937D01*
X135750648Y-132413620D01*
X135748103Y-132443001D01*
X135743848Y-132461855D01*
X135737396Y-132473959D01*
X135728262Y-132483089D01*
X135694804Y-132500506D01*
X135659856Y-132497604D01*
X135628953Y-132473100D01*
X135619944Y-132459897D01*
X135612492Y-132441361D01*
X135608124Y-132415333D01*
X135606069Y-132376787D01*
X135605556Y-132320700D01*
X135605556Y-132198045D01*
X135108845Y-132198045D01*
X135108845Y-132332871D01*
X135108772Y-132368662D01*
X135108009Y-132414992D01*
X135105833Y-132445526D01*
X135101536Y-132464557D01*
X135094412Y-132476374D01*
X135083755Y-132485271D01*
X135051504Y-132500341D01*
X135016217Y-132497673D01*
X134985486Y-132473100D01*
X134980831Y-132466845D01*
X134974895Y-132456321D01*
X134970364Y-132442391D01*
X134967048Y-132422317D01*
X134964759Y-132393360D01*
X134963308Y-132352780D01*
X134962505Y-132297840D01*
X134962162Y-132225799D01*
X134962089Y-132133920D01*
X134962089Y-131824485D01*
X134989798Y-131796776D01*
X135021177Y-131774533D01*
X135054406Y-131771844D01*
X135086267Y-131791645D01*
X135094553Y-131801415D01*
X135101965Y-131817307D01*
X135106302Y-131841275D01*
X135108338Y-131878148D01*
X135108845Y-131932756D01*
X135108845Y-132051289D01*
X135605556Y-132051289D01*
X135605556Y-131935776D01*
X135605994Y-131884078D01*
X135607958Y-131849554D01*
X135612474Y-131826978D01*
X135620567Y-131811126D01*
X135633265Y-131796776D01*
X135664643Y-131774533D01*
X135697872Y-131771844D01*
X135729734Y-131791645D01*
G36*
X136405767Y-131769068D02*
G01*
X136499890Y-131769158D01*
X136574405Y-131769498D01*
X136631811Y-131770239D01*
X136674611Y-131771535D01*
X136705304Y-131773537D01*
X136726391Y-131776396D01*
X136740373Y-131780266D01*
X136749750Y-131785298D01*
X136757022Y-131791645D01*
X136775828Y-131824362D01*
X136777275Y-131861939D01*
X136760917Y-131895178D01*
X136759557Y-131896631D01*
X136748354Y-131904992D01*
X136731252Y-131910547D01*
X136704082Y-131913840D01*
X136662678Y-131915418D01*
X136602873Y-131915822D01*
X136463511Y-131915822D01*
X136463511Y-132179589D01*
X136463436Y-132255417D01*
X136463028Y-132322083D01*
X136462046Y-132371867D01*
X136460250Y-132407784D01*
X136457399Y-132432850D01*
X136453253Y-132450081D01*
X136447571Y-132462492D01*
X136440114Y-132473100D01*
X136437824Y-132475906D01*
X136406646Y-132498548D01*
X136372266Y-132500112D01*
X136339334Y-132480267D01*
X136332355Y-132472191D01*
X136326883Y-132461593D01*
X136322863Y-132445749D01*
X136320072Y-132421773D01*
X136318288Y-132386774D01*
X136317289Y-132337864D01*
X136316852Y-132272154D01*
X136316756Y-132186756D01*
X136316756Y-131915822D01*
X136170820Y-131915822D01*
X136159720Y-131915821D01*
X136103202Y-131915596D01*
X136064358Y-131914457D01*
X136038965Y-131911657D01*
X136022804Y-131906450D01*
X136011652Y-131898089D01*
X136001289Y-131885826D01*
X135985441Y-131855138D01*
X135988543Y-131821358D01*
X136014187Y-131788822D01*
X136019129Y-131785105D01*
X136029338Y-131780269D01*
X136044764Y-131776506D01*
X136067886Y-131773683D01*
X136101183Y-131771670D01*
X136147137Y-131770333D01*
X136208228Y-131769542D01*
X136286935Y-131769163D01*
X136385740Y-131769067D01*
X136405767Y-131769068D01*
G37*
X136405767Y-131769068D02*
X136499890Y-131769158D01*
X136574405Y-131769498D01*
X136631811Y-131770239D01*
X136674611Y-131771535D01*
X136705304Y-131773537D01*
X136726391Y-131776396D01*
X136740373Y-131780266D01*
X136749750Y-131785298D01*
X136757022Y-131791645D01*
X136775828Y-131824362D01*
X136777275Y-131861939D01*
X136760917Y-131895178D01*
X136759557Y-131896631D01*
X136748354Y-131904992D01*
X136731252Y-131910547D01*
X136704082Y-131913840D01*
X136662678Y-131915418D01*
X136602873Y-131915822D01*
X136463511Y-131915822D01*
X136463511Y-132179589D01*
X136463436Y-132255417D01*
X136463028Y-132322083D01*
X136462046Y-132371867D01*
X136460250Y-132407784D01*
X136457399Y-132432850D01*
X136453253Y-132450081D01*
X136447571Y-132462492D01*
X136440114Y-132473100D01*
X136437824Y-132475906D01*
X136406646Y-132498548D01*
X136372266Y-132500112D01*
X136339334Y-132480267D01*
X136332355Y-132472191D01*
X136326883Y-132461593D01*
X136322863Y-132445749D01*
X136320072Y-132421773D01*
X136318288Y-132386774D01*
X136317289Y-132337864D01*
X136316852Y-132272154D01*
X136316756Y-132186756D01*
X136316756Y-131915822D01*
X136170820Y-131915822D01*
X136159720Y-131915821D01*
X136103202Y-131915596D01*
X136064358Y-131914457D01*
X136038965Y-131911657D01*
X136022804Y-131906450D01*
X136011652Y-131898089D01*
X136001289Y-131885826D01*
X135985441Y-131855138D01*
X135988543Y-131821358D01*
X136014187Y-131788822D01*
X136019129Y-131785105D01*
X136029338Y-131780269D01*
X136044764Y-131776506D01*
X136067886Y-131773683D01*
X136101183Y-131771670D01*
X136147137Y-131770333D01*
X136208228Y-131769542D01*
X136286935Y-131769163D01*
X136385740Y-131769067D01*
X136405767Y-131769068D01*
G36*
X137105406Y-131774949D02*
G01*
X137131127Y-131790647D01*
X137157778Y-131812227D01*
X137157778Y-132459684D01*
X137131127Y-132481264D01*
X137099767Y-132498739D01*
X137063966Y-132499575D01*
X137032528Y-132479082D01*
X137028652Y-132474416D01*
X137023186Y-132464949D01*
X137018979Y-132451267D01*
X137015867Y-132430748D01*
X137013687Y-132400768D01*
X137012276Y-132358704D01*
X137011471Y-132301932D01*
X137011107Y-132227830D01*
X137011022Y-132133773D01*
X137011022Y-131812227D01*
X137037673Y-131790647D01*
X137061386Y-131775877D01*
X137084400Y-131769067D01*
X137105406Y-131774949D01*
G37*
X137105406Y-131774949D02*
X137131127Y-131790647D01*
X137157778Y-131812227D01*
X137157778Y-132459684D01*
X137131127Y-132481264D01*
X137099767Y-132498739D01*
X137063966Y-132499575D01*
X137032528Y-132479082D01*
X137028652Y-132474416D01*
X137023186Y-132464949D01*
X137018979Y-132451267D01*
X137015867Y-132430748D01*
X137013687Y-132400768D01*
X137012276Y-132358704D01*
X137011471Y-132301932D01*
X137011107Y-132227830D01*
X137011022Y-132133773D01*
X137011022Y-131812227D01*
X137037673Y-131790647D01*
X137061386Y-131775877D01*
X137084400Y-131769067D01*
X137105406Y-131774949D01*
G36*
X137539702Y-131778478D02*
G01*
X137557663Y-131796989D01*
X137578263Y-131828071D01*
X137603095Y-131873756D01*
X137633750Y-131936078D01*
X137671820Y-132017071D01*
X137686454Y-132048454D01*
X137716203Y-132111638D01*
X137742297Y-132166244D01*
X137763292Y-132209290D01*
X137777739Y-132237793D01*
X137784191Y-132248770D01*
X137785550Y-132248189D01*
X137795542Y-132234242D01*
X137812833Y-132204704D01*
X137835430Y-132163087D01*
X137861338Y-132112903D01*
X137877311Y-132081414D01*
X137906261Y-132026061D01*
X137928749Y-131987044D01*
X137946965Y-131961566D01*
X137963096Y-131946831D01*
X137979330Y-131940042D01*
X137997857Y-131938400D01*
X138008360Y-131938875D01*
X138024476Y-131943082D01*
X138039790Y-131953946D01*
X138056388Y-131974219D01*
X138076357Y-132006654D01*
X138101783Y-132054004D01*
X138134752Y-132119022D01*
X138144485Y-132138277D01*
X138168943Y-132184946D01*
X138189178Y-132221109D01*
X138203311Y-132243497D01*
X138209460Y-132248845D01*
X138210827Y-132245573D01*
X138220202Y-132224664D01*
X138237062Y-132187725D01*
X138259979Y-132137874D01*
X138287520Y-132078226D01*
X138318255Y-132011898D01*
X138344970Y-131954677D01*
X138374593Y-131892688D01*
X138397664Y-131846949D01*
X138415643Y-131814908D01*
X138429990Y-131794014D01*
X138442166Y-131781718D01*
X138453632Y-131775466D01*
X138463042Y-131772574D01*
X138488147Y-131772425D01*
X138515290Y-131787768D01*
X138516590Y-131788753D01*
X138538674Y-131811388D01*
X138549723Y-131833613D01*
X138549769Y-131834253D01*
X138545228Y-131851915D01*
X138532364Y-131886481D01*
X138512605Y-131934826D01*
X138487381Y-131993825D01*
X138458119Y-132060355D01*
X138426250Y-132131291D01*
X138393201Y-132203507D01*
X138360401Y-132273880D01*
X138329280Y-132339285D01*
X138301265Y-132396597D01*
X138277786Y-132442692D01*
X138260272Y-132474446D01*
X138250151Y-132488733D01*
X138215743Y-132502102D01*
X138174046Y-132495741D01*
X138168681Y-132491044D01*
X138152852Y-132468893D01*
X138130650Y-132432132D01*
X138104233Y-132384415D01*
X138075760Y-132329393D01*
X137995986Y-132170150D01*
X137922799Y-132316742D01*
X137913103Y-132336032D01*
X137886125Y-132388380D01*
X137862096Y-132433170D01*
X137843332Y-132466154D01*
X137832146Y-132483089D01*
X137831000Y-132484332D01*
X137802879Y-132499619D01*
X137767817Y-132501302D01*
X137736776Y-132488733D01*
X137734350Y-132485884D01*
X137722090Y-132465259D01*
X137702352Y-132427708D01*
X137676448Y-132375880D01*
X137645685Y-132312423D01*
X137611375Y-132239985D01*
X137574825Y-132161216D01*
X137554585Y-132117093D01*
X137517812Y-132036365D01*
X137489355Y-131972687D01*
X137468331Y-131923752D01*
X137453854Y-131887257D01*
X137445039Y-131860895D01*
X137441004Y-131842361D01*
X137440862Y-131829352D01*
X137443730Y-131819561D01*
X137458387Y-131798678D01*
X137484990Y-131778377D01*
X137485745Y-131778035D01*
X137505335Y-131771034D01*
X137522790Y-131770504D01*
X137539702Y-131778478D01*
G37*
X137539702Y-131778478D02*
X137557663Y-131796989D01*
X137578263Y-131828071D01*
X137603095Y-131873756D01*
X137633750Y-131936078D01*
X137671820Y-132017071D01*
X137686454Y-132048454D01*
X137716203Y-132111638D01*
X137742297Y-132166244D01*
X137763292Y-132209290D01*
X137777739Y-132237793D01*
X137784191Y-132248770D01*
X137785550Y-132248189D01*
X137795542Y-132234242D01*
X137812833Y-132204704D01*
X137835430Y-132163087D01*
X137861338Y-132112903D01*
X137877311Y-132081414D01*
X137906261Y-132026061D01*
X137928749Y-131987044D01*
X137946965Y-131961566D01*
X137963096Y-131946831D01*
X137979330Y-131940042D01*
X137997857Y-131938400D01*
X138008360Y-131938875D01*
X138024476Y-131943082D01*
X138039790Y-131953946D01*
X138056388Y-131974219D01*
X138076357Y-132006654D01*
X138101783Y-132054004D01*
X138134752Y-132119022D01*
X138144485Y-132138277D01*
X138168943Y-132184946D01*
X138189178Y-132221109D01*
X138203311Y-132243497D01*
X138209460Y-132248845D01*
X138210827Y-132245573D01*
X138220202Y-132224664D01*
X138237062Y-132187725D01*
X138259979Y-132137874D01*
X138287520Y-132078226D01*
X138318255Y-132011898D01*
X138344970Y-131954677D01*
X138374593Y-131892688D01*
X138397664Y-131846949D01*
X138415643Y-131814908D01*
X138429990Y-131794014D01*
X138442166Y-131781718D01*
X138453632Y-131775466D01*
X138463042Y-131772574D01*
X138488147Y-131772425D01*
X138515290Y-131787768D01*
X138516590Y-131788753D01*
X138538674Y-131811388D01*
X138549723Y-131833613D01*
X138549769Y-131834253D01*
X138545228Y-131851915D01*
X138532364Y-131886481D01*
X138512605Y-131934826D01*
X138487381Y-131993825D01*
X138458119Y-132060355D01*
X138426250Y-132131291D01*
X138393201Y-132203507D01*
X138360401Y-132273880D01*
X138329280Y-132339285D01*
X138301265Y-132396597D01*
X138277786Y-132442692D01*
X138260272Y-132474446D01*
X138250151Y-132488733D01*
X138215743Y-132502102D01*
X138174046Y-132495741D01*
X138168681Y-132491044D01*
X138152852Y-132468893D01*
X138130650Y-132432132D01*
X138104233Y-132384415D01*
X138075760Y-132329393D01*
X137995986Y-132170150D01*
X137922799Y-132316742D01*
X137913103Y-132336032D01*
X137886125Y-132388380D01*
X137862096Y-132433170D01*
X137843332Y-132466154D01*
X137832146Y-132483089D01*
X137831000Y-132484332D01*
X137802879Y-132499619D01*
X137767817Y-132501302D01*
X137736776Y-132488733D01*
X137734350Y-132485884D01*
X137722090Y-132465259D01*
X137702352Y-132427708D01*
X137676448Y-132375880D01*
X137645685Y-132312423D01*
X137611375Y-132239985D01*
X137574825Y-132161216D01*
X137554585Y-132117093D01*
X137517812Y-132036365D01*
X137489355Y-131972687D01*
X137468331Y-131923752D01*
X137453854Y-131887257D01*
X137445039Y-131860895D01*
X137441004Y-131842361D01*
X137440862Y-131829352D01*
X137443730Y-131819561D01*
X137458387Y-131798678D01*
X137484990Y-131778377D01*
X137485745Y-131778035D01*
X137505335Y-131771034D01*
X137522790Y-131770504D01*
X137539702Y-131778478D01*
G36*
X140433163Y-132413175D02*
G01*
X140430235Y-132436095D01*
X140426158Y-132451897D01*
X140420743Y-132463319D01*
X140413803Y-132473100D01*
X140390406Y-132502845D01*
X140224714Y-132502251D01*
X140189918Y-132501953D01*
X140091435Y-132498522D01*
X140010473Y-132490839D01*
X139943379Y-132478282D01*
X139886496Y-132460227D01*
X139836169Y-132436052D01*
X139832810Y-132434135D01*
X139774998Y-132397417D01*
X139732644Y-132360451D01*
X139699828Y-132316966D01*
X139670628Y-132260689D01*
X139666346Y-132251073D01*
X139643769Y-132187887D01*
X139638034Y-132142333D01*
X139787279Y-132142333D01*
X139792892Y-132167061D01*
X139798618Y-132182939D01*
X139831548Y-132242847D01*
X139878886Y-132288600D01*
X139942652Y-132321736D01*
X140024861Y-132343790D01*
X140027655Y-132344292D01*
X140073940Y-132350255D01*
X140130336Y-132354483D01*
X140185274Y-132356089D01*
X140279156Y-132356089D01*
X140279156Y-131915822D01*
X140191667Y-131916270D01*
X140124747Y-131918746D01*
X140032349Y-131929998D01*
X139953034Y-131949537D01*
X139891060Y-131976511D01*
X139860120Y-131997240D01*
X139832000Y-132027006D01*
X139808660Y-132069434D01*
X139801533Y-132085400D01*
X139789709Y-132117902D01*
X139787279Y-132142333D01*
X139638034Y-132142333D01*
X139636797Y-132132509D01*
X139645399Y-132077483D01*
X139669541Y-132015351D01*
X139670337Y-132013658D01*
X139710788Y-131944236D01*
X139761473Y-131887638D01*
X139824198Y-131843070D01*
X139900774Y-131809741D01*
X139993009Y-131786861D01*
X140102712Y-131773636D01*
X140231691Y-131769275D01*
X140235263Y-131769270D01*
X140295283Y-131769410D01*
X140337214Y-131770446D01*
X140365328Y-131773040D01*
X140383897Y-131777853D01*
X140397194Y-131785544D01*
X140409491Y-131796776D01*
X140437200Y-131824485D01*
X140437200Y-132133920D01*
X140437175Y-132195526D01*
X140436950Y-132274311D01*
X140436332Y-132335021D01*
X140435775Y-132356089D01*
X140435133Y-132380396D01*
X140433163Y-132413175D01*
G37*
X140433163Y-132413175D02*
X140430235Y-132436095D01*
X140426158Y-132451897D01*
X140420743Y-132463319D01*
X140413803Y-132473100D01*
X140390406Y-132502845D01*
X140224714Y-132502251D01*
X140189918Y-132501953D01*
X140091435Y-132498522D01*
X140010473Y-132490839D01*
X139943379Y-132478282D01*
X139886496Y-132460227D01*
X139836169Y-132436052D01*
X139832810Y-132434135D01*
X139774998Y-132397417D01*
X139732644Y-132360451D01*
X139699828Y-132316966D01*
X139670628Y-132260689D01*
X139666346Y-132251073D01*
X139643769Y-132187887D01*
X139638034Y-132142333D01*
X139787279Y-132142333D01*
X139792892Y-132167061D01*
X139798618Y-132182939D01*
X139831548Y-132242847D01*
X139878886Y-132288600D01*
X139942652Y-132321736D01*
X140024861Y-132343790D01*
X140027655Y-132344292D01*
X140073940Y-132350255D01*
X140130336Y-132354483D01*
X140185274Y-132356089D01*
X140279156Y-132356089D01*
X140279156Y-131915822D01*
X140191667Y-131916270D01*
X140124747Y-131918746D01*
X140032349Y-131929998D01*
X139953034Y-131949537D01*
X139891060Y-131976511D01*
X139860120Y-131997240D01*
X139832000Y-132027006D01*
X139808660Y-132069434D01*
X139801533Y-132085400D01*
X139789709Y-132117902D01*
X139787279Y-132142333D01*
X139638034Y-132142333D01*
X139636797Y-132132509D01*
X139645399Y-132077483D01*
X139669541Y-132015351D01*
X139670337Y-132013658D01*
X139710788Y-131944236D01*
X139761473Y-131887638D01*
X139824198Y-131843070D01*
X139900774Y-131809741D01*
X139993009Y-131786861D01*
X140102712Y-131773636D01*
X140231691Y-131769275D01*
X140235263Y-131769270D01*
X140295283Y-131769410D01*
X140337214Y-131770446D01*
X140365328Y-131773040D01*
X140383897Y-131777853D01*
X140397194Y-131785544D01*
X140409491Y-131796776D01*
X140437200Y-131824485D01*
X140437200Y-132133920D01*
X140437175Y-132195526D01*
X140436950Y-132274311D01*
X140436332Y-132335021D01*
X140435775Y-132356089D01*
X140435133Y-132380396D01*
X140433163Y-132413175D01*
G36*
X141429803Y-131798811D02*
G01*
X141434752Y-131805495D01*
X141440596Y-131816066D01*
X141445057Y-131830153D01*
X141448321Y-131850478D01*
X141450574Y-131879765D01*
X141452002Y-131920737D01*
X141452792Y-131976117D01*
X141453129Y-132048628D01*
X141453200Y-132140994D01*
X141453171Y-132206911D01*
X141452939Y-132285228D01*
X141452319Y-132345496D01*
X141451126Y-132390393D01*
X141449179Y-132422602D01*
X141446294Y-132444800D01*
X141442288Y-132459669D01*
X141436979Y-132469889D01*
X141430183Y-132478138D01*
X141425668Y-132482795D01*
X141417438Y-132489282D01*
X141406078Y-132494194D01*
X141388810Y-132497749D01*
X141362855Y-132500167D01*
X141325436Y-132501667D01*
X141273773Y-132502467D01*
X141205089Y-132502787D01*
X141116606Y-132502845D01*
X141096931Y-132502838D01*
X141009906Y-132502572D01*
X140942254Y-132501806D01*
X140891299Y-132500392D01*
X140854367Y-132498180D01*
X140828783Y-132495022D01*
X140811871Y-132490769D01*
X140800957Y-132485271D01*
X140790464Y-132475285D01*
X140777203Y-132444168D01*
X140778386Y-132408280D01*
X140794550Y-132376733D01*
X140796739Y-132374457D01*
X140805427Y-132368189D01*
X140818769Y-132363523D01*
X140839752Y-132360227D01*
X140871363Y-132358068D01*
X140916590Y-132356814D01*
X140978420Y-132356231D01*
X141059839Y-132356089D01*
X141306445Y-132356089D01*
X141306445Y-132198045D01*
X141144006Y-132198045D01*
X141108338Y-132197964D01*
X141052568Y-132197167D01*
X141013430Y-132195162D01*
X140986976Y-132191521D01*
X140969259Y-132185812D01*
X140956329Y-132177607D01*
X140952686Y-132174423D01*
X140934278Y-132143448D01*
X140933644Y-132107112D01*
X140951183Y-132073493D01*
X140951245Y-132073424D01*
X140960916Y-132064798D01*
X140974209Y-132058742D01*
X140994917Y-132054811D01*
X141026828Y-132052556D01*
X141073734Y-132051531D01*
X141139424Y-132051289D01*
X141307571Y-132051289D01*
X141304186Y-131986378D01*
X141300800Y-131921467D01*
X141058723Y-131918414D01*
X141033707Y-131918086D01*
X140952087Y-131916606D01*
X140889768Y-131914222D01*
X140844154Y-131910227D01*
X140812652Y-131903913D01*
X140792667Y-131894574D01*
X140781604Y-131881503D01*
X140776869Y-131863992D01*
X140775867Y-131841335D01*
X140775873Y-131838970D01*
X140777027Y-131818939D01*
X140781824Y-131803146D01*
X140792632Y-131791090D01*
X140811817Y-131782267D01*
X140841745Y-131776175D01*
X140884783Y-131772311D01*
X140943299Y-131770174D01*
X141019657Y-131769260D01*
X141116226Y-131769067D01*
X141406406Y-131769067D01*
X141429803Y-131798811D01*
G37*
X141429803Y-131798811D02*
X141434752Y-131805495D01*
X141440596Y-131816066D01*
X141445057Y-131830153D01*
X141448321Y-131850478D01*
X141450574Y-131879765D01*
X141452002Y-131920737D01*
X141452792Y-131976117D01*
X141453129Y-132048628D01*
X141453200Y-132140994D01*
X141453171Y-132206911D01*
X141452939Y-132285228D01*
X141452319Y-132345496D01*
X141451126Y-132390393D01*
X141449179Y-132422602D01*
X141446294Y-132444800D01*
X141442288Y-132459669D01*
X141436979Y-132469889D01*
X141430183Y-132478138D01*
X141425668Y-132482795D01*
X141417438Y-132489282D01*
X141406078Y-132494194D01*
X141388810Y-132497749D01*
X141362855Y-132500167D01*
X141325436Y-132501667D01*
X141273773Y-132502467D01*
X141205089Y-132502787D01*
X141116606Y-132502845D01*
X141096931Y-132502838D01*
X141009906Y-132502572D01*
X140942254Y-132501806D01*
X140891299Y-132500392D01*
X140854367Y-132498180D01*
X140828783Y-132495022D01*
X140811871Y-132490769D01*
X140800957Y-132485271D01*
X140790464Y-132475285D01*
X140777203Y-132444168D01*
X140778386Y-132408280D01*
X140794550Y-132376733D01*
X140796739Y-132374457D01*
X140805427Y-132368189D01*
X140818769Y-132363523D01*
X140839752Y-132360227D01*
X140871363Y-132358068D01*
X140916590Y-132356814D01*
X140978420Y-132356231D01*
X141059839Y-132356089D01*
X141306445Y-132356089D01*
X141306445Y-132198045D01*
X141144006Y-132198045D01*
X141108338Y-132197964D01*
X141052568Y-132197167D01*
X141013430Y-132195162D01*
X140986976Y-132191521D01*
X140969259Y-132185812D01*
X140956329Y-132177607D01*
X140952686Y-132174423D01*
X140934278Y-132143448D01*
X140933644Y-132107112D01*
X140951183Y-132073493D01*
X140951245Y-132073424D01*
X140960916Y-132064798D01*
X140974209Y-132058742D01*
X140994917Y-132054811D01*
X141026828Y-132052556D01*
X141073734Y-132051531D01*
X141139424Y-132051289D01*
X141307571Y-132051289D01*
X141304186Y-131986378D01*
X141300800Y-131921467D01*
X141058723Y-131918414D01*
X141033707Y-131918086D01*
X140952087Y-131916606D01*
X140889768Y-131914222D01*
X140844154Y-131910227D01*
X140812652Y-131903913D01*
X140792667Y-131894574D01*
X140781604Y-131881503D01*
X140776869Y-131863992D01*
X140775867Y-131841335D01*
X140775873Y-131838970D01*
X140777027Y-131818939D01*
X140781824Y-131803146D01*
X140792632Y-131791090D01*
X140811817Y-131782267D01*
X140841745Y-131776175D01*
X140884783Y-131772311D01*
X140943299Y-131770174D01*
X141019657Y-131769260D01*
X141116226Y-131769067D01*
X141406406Y-131769067D01*
X141429803Y-131798811D01*
G36*
X142581893Y-131767892D02*
G01*
X142593301Y-131774029D01*
X142603850Y-131784691D01*
X142615136Y-131798811D01*
X142619589Y-131804772D01*
X142625588Y-131815268D01*
X142630167Y-131829093D01*
X142633519Y-131848998D01*
X142635833Y-131877732D01*
X142637301Y-131918045D01*
X142638113Y-131972687D01*
X142638460Y-132044407D01*
X142638534Y-132135956D01*
X142638511Y-132194486D01*
X142638292Y-132273573D01*
X142637683Y-132334516D01*
X142636492Y-132380062D01*
X142634529Y-132412963D01*
X142631603Y-132435968D01*
X142627523Y-132451826D01*
X142622097Y-132463286D01*
X142615136Y-132473100D01*
X142584708Y-132497493D01*
X142549765Y-132500372D01*
X142512784Y-132481282D01*
X142508600Y-132477807D01*
X142500424Y-132469279D01*
X142494364Y-132457728D01*
X142489981Y-132439896D01*
X142486839Y-132412524D01*
X142484502Y-132372354D01*
X142482531Y-132316128D01*
X142480489Y-132240589D01*
X142474845Y-132021458D01*
X142209556Y-132262099D01*
X142135722Y-132328875D01*
X142070542Y-132386991D01*
X142018348Y-132431949D01*
X141977273Y-132464871D01*
X141945455Y-132486879D01*
X141921026Y-132499094D01*
X141902124Y-132502639D01*
X141886883Y-132498636D01*
X141873439Y-132488207D01*
X141859927Y-132472474D01*
X141853682Y-132463991D01*
X141848050Y-132453413D01*
X141843839Y-132439255D01*
X141840887Y-132418803D01*
X141839032Y-132389342D01*
X141838113Y-132348161D01*
X141837968Y-132292544D01*
X141838435Y-132219779D01*
X141839352Y-132127151D01*
X141842667Y-131812199D01*
X141869318Y-131790633D01*
X141895383Y-131774441D01*
X141928241Y-131771670D01*
X141962772Y-131790623D01*
X141967084Y-131794208D01*
X141975216Y-131802737D01*
X141981245Y-131814329D01*
X141985606Y-131832235D01*
X141988734Y-131859706D01*
X141991063Y-131899994D01*
X141993029Y-131956351D01*
X141995067Y-132032029D01*
X142000711Y-132251878D01*
X142181334Y-132088084D01*
X142268072Y-132009451D01*
X142343843Y-131941058D01*
X142405980Y-131885708D01*
X142456078Y-131842338D01*
X142495735Y-131809881D01*
X142526548Y-131787273D01*
X142550114Y-131773448D01*
X142568030Y-131767343D01*
X142581893Y-131767892D01*
G37*
X142581893Y-131767892D02*
X142593301Y-131774029D01*
X142603850Y-131784691D01*
X142615136Y-131798811D01*
X142619589Y-131804772D01*
X142625588Y-131815268D01*
X142630167Y-131829093D01*
X142633519Y-131848998D01*
X142635833Y-131877732D01*
X142637301Y-131918045D01*
X142638113Y-131972687D01*
X142638460Y-132044407D01*
X142638534Y-132135956D01*
X142638511Y-132194486D01*
X142638292Y-132273573D01*
X142637683Y-132334516D01*
X142636492Y-132380062D01*
X142634529Y-132412963D01*
X142631603Y-132435968D01*
X142627523Y-132451826D01*
X142622097Y-132463286D01*
X142615136Y-132473100D01*
X142584708Y-132497493D01*
X142549765Y-132500372D01*
X142512784Y-132481282D01*
X142508600Y-132477807D01*
X142500424Y-132469279D01*
X142494364Y-132457728D01*
X142489981Y-132439896D01*
X142486839Y-132412524D01*
X142484502Y-132372354D01*
X142482531Y-132316128D01*
X142480489Y-132240589D01*
X142474845Y-132021458D01*
X142209556Y-132262099D01*
X142135722Y-132328875D01*
X142070542Y-132386991D01*
X142018348Y-132431949D01*
X141977273Y-132464871D01*
X141945455Y-132486879D01*
X141921026Y-132499094D01*
X141902124Y-132502639D01*
X141886883Y-132498636D01*
X141873439Y-132488207D01*
X141859927Y-132472474D01*
X141853682Y-132463991D01*
X141848050Y-132453413D01*
X141843839Y-132439255D01*
X141840887Y-132418803D01*
X141839032Y-132389342D01*
X141838113Y-132348161D01*
X141837968Y-132292544D01*
X141838435Y-132219779D01*
X141839352Y-132127151D01*
X141842667Y-131812199D01*
X141869318Y-131790633D01*
X141895383Y-131774441D01*
X141928241Y-131771670D01*
X141962772Y-131790623D01*
X141967084Y-131794208D01*
X141975216Y-131802737D01*
X141981245Y-131814329D01*
X141985606Y-131832235D01*
X141988734Y-131859706D01*
X141991063Y-131899994D01*
X141993029Y-131956351D01*
X141995067Y-132032029D01*
X142000711Y-132251878D01*
X142181334Y-132088084D01*
X142268072Y-132009451D01*
X142343843Y-131941058D01*
X142405980Y-131885708D01*
X142456078Y-131842338D01*
X142495735Y-131809881D01*
X142526548Y-131787273D01*
X142550114Y-131773448D01*
X142568030Y-131767343D01*
X142581893Y-131767892D01*
G36*
X143379150Y-131774179D02*
G01*
X143485157Y-131790494D01*
X143578969Y-131818545D01*
X143657765Y-131857452D01*
X143718719Y-131906334D01*
X143744789Y-131939195D01*
X143774297Y-131988394D01*
X143799568Y-132042252D01*
X143817218Y-132093419D01*
X143823858Y-132134544D01*
X143822298Y-132154259D01*
X143809357Y-132205592D01*
X143786194Y-132262118D01*
X143756302Y-132316035D01*
X143723173Y-132359539D01*
X143712977Y-132369887D01*
X143645892Y-132421662D01*
X143565766Y-132461554D01*
X143479556Y-132485956D01*
X143424592Y-132494068D01*
X143331139Y-132500673D01*
X143241358Y-132498586D01*
X143158869Y-132488340D01*
X143087286Y-132470470D01*
X143030228Y-132445508D01*
X142991311Y-132413988D01*
X142989936Y-132412012D01*
X142982848Y-132386786D01*
X142978609Y-132339535D01*
X142977200Y-132270071D01*
X142978060Y-132207838D01*
X142982780Y-132160456D01*
X142994470Y-132128353D01*
X143016239Y-132108800D01*
X143051198Y-132099070D01*
X143102456Y-132096433D01*
X143173123Y-132098161D01*
X143221743Y-132101173D01*
X143271939Y-132109366D01*
X143304433Y-132123419D01*
X143321892Y-132144654D01*
X143326983Y-132174394D01*
X143326877Y-132178936D01*
X143318175Y-132213730D01*
X143294165Y-132237147D01*
X143252900Y-132250347D01*
X143192431Y-132254489D01*
X143123956Y-132254489D01*
X143123956Y-132292841D01*
X143124006Y-132301976D01*
X143126227Y-132319227D01*
X143135494Y-132329521D01*
X143156875Y-132336459D01*
X143195436Y-132343641D01*
X143200910Y-132344575D01*
X143297860Y-132354478D01*
X143387852Y-132351559D01*
X143468760Y-132336829D01*
X143538459Y-132311299D01*
X143594824Y-132275978D01*
X143635729Y-132231879D01*
X143659051Y-132180012D01*
X143662663Y-132121388D01*
X143657145Y-132092494D01*
X143630461Y-132036604D01*
X143584273Y-131990945D01*
X143519291Y-131956108D01*
X143436229Y-131932690D01*
X143411555Y-131928241D01*
X143322226Y-131917742D01*
X143242419Y-131918971D01*
X143164326Y-131931906D01*
X143129183Y-131938696D01*
X143083745Y-131939713D01*
X143052430Y-131927182D01*
X143032277Y-131900395D01*
X143025893Y-131872148D01*
X143035379Y-131840924D01*
X143044708Y-131827499D01*
X143078943Y-131803967D01*
X143131565Y-131786095D01*
X143200081Y-131774599D01*
X143282000Y-131770192D01*
X143379150Y-131774179D01*
G37*
X143379150Y-131774179D02*
X143485157Y-131790494D01*
X143578969Y-131818545D01*
X143657765Y-131857452D01*
X143718719Y-131906334D01*
X143744789Y-131939195D01*
X143774297Y-131988394D01*
X143799568Y-132042252D01*
X143817218Y-132093419D01*
X143823858Y-132134544D01*
X143822298Y-132154259D01*
X143809357Y-132205592D01*
X143786194Y-132262118D01*
X143756302Y-132316035D01*
X143723173Y-132359539D01*
X143712977Y-132369887D01*
X143645892Y-132421662D01*
X143565766Y-132461554D01*
X143479556Y-132485956D01*
X143424592Y-132494068D01*
X143331139Y-132500673D01*
X143241358Y-132498586D01*
X143158869Y-132488340D01*
X143087286Y-132470470D01*
X143030228Y-132445508D01*
X142991311Y-132413988D01*
X142989936Y-132412012D01*
X142982848Y-132386786D01*
X142978609Y-132339535D01*
X142977200Y-132270071D01*
X142978060Y-132207838D01*
X142982780Y-132160456D01*
X142994470Y-132128353D01*
X143016239Y-132108800D01*
X143051198Y-132099070D01*
X143102456Y-132096433D01*
X143173123Y-132098161D01*
X143221743Y-132101173D01*
X143271939Y-132109366D01*
X143304433Y-132123419D01*
X143321892Y-132144654D01*
X143326983Y-132174394D01*
X143326877Y-132178936D01*
X143318175Y-132213730D01*
X143294165Y-132237147D01*
X143252900Y-132250347D01*
X143192431Y-132254489D01*
X143123956Y-132254489D01*
X143123956Y-132292841D01*
X143124006Y-132301976D01*
X143126227Y-132319227D01*
X143135494Y-132329521D01*
X143156875Y-132336459D01*
X143195436Y-132343641D01*
X143200910Y-132344575D01*
X143297860Y-132354478D01*
X143387852Y-132351559D01*
X143468760Y-132336829D01*
X143538459Y-132311299D01*
X143594824Y-132275978D01*
X143635729Y-132231879D01*
X143659051Y-132180012D01*
X143662663Y-132121388D01*
X143657145Y-132092494D01*
X143630461Y-132036604D01*
X143584273Y-131990945D01*
X143519291Y-131956108D01*
X143436229Y-131932690D01*
X143411555Y-131928241D01*
X143322226Y-131917742D01*
X143242419Y-131918971D01*
X143164326Y-131931906D01*
X143129183Y-131938696D01*
X143083745Y-131939713D01*
X143052430Y-131927182D01*
X143032277Y-131900395D01*
X143025893Y-131872148D01*
X143035379Y-131840924D01*
X143044708Y-131827499D01*
X143078943Y-131803967D01*
X143131565Y-131786095D01*
X143200081Y-131774599D01*
X143282000Y-131770192D01*
X143379150Y-131774179D01*
G36*
X144236137Y-131773463D02*
G01*
X144270291Y-131796776D01*
X144298000Y-131824485D01*
X144298000Y-132137537D01*
X144297959Y-132221567D01*
X144297701Y-132295789D01*
X144297030Y-132352541D01*
X144295752Y-132394512D01*
X144293673Y-132424389D01*
X144290599Y-132444861D01*
X144286334Y-132458614D01*
X144280684Y-132468337D01*
X144273455Y-132476717D01*
X144241991Y-132498181D01*
X144206826Y-132499947D01*
X144173822Y-132480267D01*
X144168516Y-132474398D01*
X144163066Y-132465314D01*
X144158900Y-132451973D01*
X144155846Y-132431757D01*
X144153732Y-132402049D01*
X144152386Y-132360232D01*
X144151638Y-132303689D01*
X144151314Y-132229802D01*
X144151245Y-132135956D01*
X144151284Y-132060294D01*
X144151539Y-131982385D01*
X144152183Y-131922375D01*
X144153387Y-131877648D01*
X144155324Y-131845585D01*
X144158164Y-131823571D01*
X144162079Y-131808987D01*
X144167242Y-131799218D01*
X144173822Y-131791645D01*
X144203006Y-131772623D01*
X144236137Y-131773463D01*
G37*
X144236137Y-131773463D02*
X144270291Y-131796776D01*
X144298000Y-131824485D01*
X144298000Y-132137537D01*
X144297959Y-132221567D01*
X144297701Y-132295789D01*
X144297030Y-132352541D01*
X144295752Y-132394512D01*
X144293673Y-132424389D01*
X144290599Y-132444861D01*
X144286334Y-132458614D01*
X144280684Y-132468337D01*
X144273455Y-132476717D01*
X144241991Y-132498181D01*
X144206826Y-132499947D01*
X144173822Y-132480267D01*
X144168516Y-132474398D01*
X144163066Y-132465314D01*
X144158900Y-132451973D01*
X144155846Y-132431757D01*
X144153732Y-132402049D01*
X144152386Y-132360232D01*
X144151638Y-132303689D01*
X144151314Y-132229802D01*
X144151245Y-132135956D01*
X144151284Y-132060294D01*
X144151539Y-131982385D01*
X144152183Y-131922375D01*
X144153387Y-131877648D01*
X144155324Y-131845585D01*
X144158164Y-131823571D01*
X144162079Y-131808987D01*
X144167242Y-131799218D01*
X144173822Y-131791645D01*
X144203006Y-131772623D01*
X144236137Y-131773463D01*
G36*
X145090853Y-131769936D02*
G01*
X145157100Y-131775366D01*
X145212400Y-131784964D01*
X145263283Y-131799825D01*
X145334595Y-131832958D01*
X145385752Y-131875640D01*
X145416575Y-131927705D01*
X145426889Y-131988983D01*
X145425952Y-132020232D01*
X145420160Y-132045029D01*
X145405353Y-132066699D01*
X145377380Y-132094049D01*
X145369402Y-132101378D01*
X145345692Y-132122281D01*
X145323298Y-132139251D01*
X145299265Y-132153205D01*
X145270637Y-132165056D01*
X145234460Y-132175720D01*
X145187780Y-132186111D01*
X145127641Y-132197146D01*
X145051090Y-132209738D01*
X144955171Y-132224804D01*
X144936808Y-132227838D01*
X144874478Y-132241458D01*
X144829260Y-132257192D01*
X144802976Y-132274263D01*
X144797447Y-132291897D01*
X144800068Y-132296168D01*
X144818000Y-132311233D01*
X144846126Y-132327867D01*
X144858926Y-132333857D01*
X144880224Y-132341050D01*
X144906610Y-132345827D01*
X144942454Y-132348646D01*
X144992128Y-132349964D01*
X145060000Y-132350237D01*
X145077785Y-132350164D01*
X145145406Y-132349053D01*
X145210345Y-132346828D01*
X145265970Y-132343762D01*
X145305651Y-132340127D01*
X145341162Y-132336059D01*
X145370415Y-132335276D01*
X145389315Y-132339876D01*
X145404429Y-132350551D01*
X145408085Y-132354144D01*
X145424427Y-132385918D01*
X145423107Y-132421572D01*
X145404150Y-132452190D01*
X145383780Y-132463796D01*
X145347796Y-132476491D01*
X145305372Y-132486541D01*
X145301922Y-132487140D01*
X145259252Y-132492356D01*
X145201866Y-132496730D01*
X145136849Y-132499818D01*
X145071289Y-132501177D01*
X145055057Y-132501218D01*
X144956744Y-132498741D01*
X144876692Y-132490735D01*
X144811513Y-132476203D01*
X144757817Y-132454149D01*
X144712216Y-132423576D01*
X144671323Y-132383486D01*
X144651202Y-132357259D01*
X144639576Y-132327712D01*
X144636667Y-132287995D01*
X144636808Y-132276026D01*
X144640681Y-132243345D01*
X144653065Y-132216819D01*
X144678230Y-132185971D01*
X144699442Y-132163831D01*
X144725838Y-132141285D01*
X144755555Y-132122917D01*
X144791785Y-132107661D01*
X144837717Y-132094449D01*
X144896544Y-132082214D01*
X144971456Y-132069889D01*
X145065645Y-132056406D01*
X145110957Y-132049396D01*
X145178911Y-132034837D01*
X145228047Y-132018337D01*
X145257614Y-132000439D01*
X145266864Y-131981685D01*
X145255048Y-131962615D01*
X145221416Y-131943771D01*
X145218370Y-131942557D01*
X145172011Y-131930479D01*
X145109361Y-131922279D01*
X145035927Y-131918119D01*
X144957217Y-131918161D01*
X144878739Y-131922569D01*
X144806000Y-131931505D01*
X144802073Y-131932154D01*
X144753257Y-131939861D01*
X144721005Y-131943473D01*
X144700008Y-131942876D01*
X144684954Y-131937954D01*
X144670534Y-131928596D01*
X144669364Y-131927725D01*
X144644847Y-131897351D01*
X144640054Y-131861850D01*
X144655860Y-131827269D01*
X144660406Y-131822813D01*
X144690020Y-131807673D01*
X144737002Y-131794550D01*
X144797306Y-131783750D01*
X144866888Y-131775581D01*
X144941703Y-131770351D01*
X145017706Y-131768367D01*
X145090853Y-131769936D01*
G37*
X145090853Y-131769936D02*
X145157100Y-131775366D01*
X145212400Y-131784964D01*
X145263283Y-131799825D01*
X145334595Y-131832958D01*
X145385752Y-131875640D01*
X145416575Y-131927705D01*
X145426889Y-131988983D01*
X145425952Y-132020232D01*
X145420160Y-132045029D01*
X145405353Y-132066699D01*
X145377380Y-132094049D01*
X145369402Y-132101378D01*
X145345692Y-132122281D01*
X145323298Y-132139251D01*
X145299265Y-132153205D01*
X145270637Y-132165056D01*
X145234460Y-132175720D01*
X145187780Y-132186111D01*
X145127641Y-132197146D01*
X145051090Y-132209738D01*
X144955171Y-132224804D01*
X144936808Y-132227838D01*
X144874478Y-132241458D01*
X144829260Y-132257192D01*
X144802976Y-132274263D01*
X144797447Y-132291897D01*
X144800068Y-132296168D01*
X144818000Y-132311233D01*
X144846126Y-132327867D01*
X144858926Y-132333857D01*
X144880224Y-132341050D01*
X144906610Y-132345827D01*
X144942454Y-132348646D01*
X144992128Y-132349964D01*
X145060000Y-132350237D01*
X145077785Y-132350164D01*
X145145406Y-132349053D01*
X145210345Y-132346828D01*
X145265970Y-132343762D01*
X145305651Y-132340127D01*
X145341162Y-132336059D01*
X145370415Y-132335276D01*
X145389315Y-132339876D01*
X145404429Y-132350551D01*
X145408085Y-132354144D01*
X145424427Y-132385918D01*
X145423107Y-132421572D01*
X145404150Y-132452190D01*
X145383780Y-132463796D01*
X145347796Y-132476491D01*
X145305372Y-132486541D01*
X145301922Y-132487140D01*
X145259252Y-132492356D01*
X145201866Y-132496730D01*
X145136849Y-132499818D01*
X145071289Y-132501177D01*
X145055057Y-132501218D01*
X144956744Y-132498741D01*
X144876692Y-132490735D01*
X144811513Y-132476203D01*
X144757817Y-132454149D01*
X144712216Y-132423576D01*
X144671323Y-132383486D01*
X144651202Y-132357259D01*
X144639576Y-132327712D01*
X144636667Y-132287995D01*
X144636808Y-132276026D01*
X144640681Y-132243345D01*
X144653065Y-132216819D01*
X144678230Y-132185971D01*
X144699442Y-132163831D01*
X144725838Y-132141285D01*
X144755555Y-132122917D01*
X144791785Y-132107661D01*
X144837717Y-132094449D01*
X144896544Y-132082214D01*
X144971456Y-132069889D01*
X145065645Y-132056406D01*
X145110957Y-132049396D01*
X145178911Y-132034837D01*
X145228047Y-132018337D01*
X145257614Y-132000439D01*
X145266864Y-131981685D01*
X145255048Y-131962615D01*
X145221416Y-131943771D01*
X145218370Y-131942557D01*
X145172011Y-131930479D01*
X145109361Y-131922279D01*
X145035927Y-131918119D01*
X144957217Y-131918161D01*
X144878739Y-131922569D01*
X144806000Y-131931505D01*
X144802073Y-131932154D01*
X144753257Y-131939861D01*
X144721005Y-131943473D01*
X144700008Y-131942876D01*
X144684954Y-131937954D01*
X144670534Y-131928596D01*
X144669364Y-131927725D01*
X144644847Y-131897351D01*
X144640054Y-131861850D01*
X144655860Y-131827269D01*
X144660406Y-131822813D01*
X144690020Y-131807673D01*
X144737002Y-131794550D01*
X144797306Y-131783750D01*
X144866888Y-131775581D01*
X144941703Y-131770351D01*
X145017706Y-131768367D01*
X145090853Y-131769936D01*
G36*
X146106734Y-131769083D02*
G01*
X146183831Y-131769275D01*
X146242777Y-131769860D01*
X146286364Y-131771051D01*
X146317383Y-131773064D01*
X146338625Y-131776112D01*
X146352882Y-131780409D01*
X146362945Y-131786172D01*
X146371606Y-131793612D01*
X146373391Y-131795293D01*
X146380635Y-131802832D01*
X146386277Y-131811850D01*
X146390517Y-131824984D01*
X146393556Y-131844872D01*
X146395594Y-131874151D01*
X146396830Y-131915458D01*
X146397465Y-131971431D01*
X146397700Y-132044707D01*
X146397734Y-132137923D01*
X146397697Y-132210713D01*
X146397448Y-132288889D01*
X146396812Y-132349103D01*
X146395615Y-132393982D01*
X146393684Y-132426152D01*
X146390846Y-132448239D01*
X146386927Y-132462870D01*
X146381755Y-132472670D01*
X146375156Y-132480267D01*
X146371822Y-132483444D01*
X146363300Y-132489554D01*
X146351298Y-132494229D01*
X146333087Y-132497659D01*
X146305940Y-132500036D01*
X146267129Y-132501552D01*
X146213924Y-132502398D01*
X146143598Y-132502765D01*
X146053422Y-132502845D01*
X146011314Y-132502833D01*
X145930167Y-132502651D01*
X145867675Y-132502098D01*
X145821109Y-132500982D01*
X145787741Y-132499113D01*
X145764844Y-132496298D01*
X145749688Y-132492346D01*
X145739546Y-132487066D01*
X145731689Y-132480267D01*
X145716963Y-132458667D01*
X145709111Y-132429467D01*
X145714610Y-132405560D01*
X145731689Y-132378667D01*
X145736668Y-132374059D01*
X145746443Y-132367772D01*
X145760559Y-132363146D01*
X145782054Y-132359930D01*
X145813968Y-132357870D01*
X145859342Y-132356712D01*
X145921213Y-132356202D01*
X146002622Y-132356089D01*
X146250978Y-132356089D01*
X146250978Y-132198045D01*
X146089801Y-132198045D01*
X146053983Y-132197899D01*
X145988359Y-132196176D01*
X145941118Y-132191741D01*
X145909383Y-132183637D01*
X145890277Y-132170906D01*
X145880923Y-132152592D01*
X145878445Y-132127738D01*
X145879242Y-132107482D01*
X145884494Y-132085656D01*
X145897288Y-132070304D01*
X145920628Y-132060309D01*
X145957517Y-132054553D01*
X146010959Y-132051919D01*
X146083958Y-132051289D01*
X146252105Y-132051289D01*
X146248719Y-131986378D01*
X146245334Y-131921467D01*
X145997617Y-131918418D01*
X145935026Y-131917539D01*
X145866565Y-131916095D01*
X145815661Y-131914164D01*
X145779408Y-131911514D01*
X145754901Y-131907910D01*
X145739235Y-131903121D01*
X145729506Y-131896913D01*
X145723491Y-131890510D01*
X145710482Y-131858828D01*
X145714043Y-131823142D01*
X145733818Y-131792084D01*
X145737069Y-131789161D01*
X145746049Y-131782810D01*
X145758153Y-131777957D01*
X145776159Y-131774403D01*
X145802847Y-131771946D01*
X145840997Y-131770385D01*
X145893386Y-131769518D01*
X145962794Y-131769146D01*
X146052001Y-131769067D01*
X146106734Y-131769083D01*
G37*
X146106734Y-131769083D02*
X146183831Y-131769275D01*
X146242777Y-131769860D01*
X146286364Y-131771051D01*
X146317383Y-131773064D01*
X146338625Y-131776112D01*
X146352882Y-131780409D01*
X146362945Y-131786172D01*
X146371606Y-131793612D01*
X146373391Y-131795293D01*
X146380635Y-131802832D01*
X146386277Y-131811850D01*
X146390517Y-131824984D01*
X146393556Y-131844872D01*
X146395594Y-131874151D01*
X146396830Y-131915458D01*
X146397465Y-131971431D01*
X146397700Y-132044707D01*
X146397734Y-132137923D01*
X146397697Y-132210713D01*
X146397448Y-132288889D01*
X146396812Y-132349103D01*
X146395615Y-132393982D01*
X146393684Y-132426152D01*
X146390846Y-132448239D01*
X146386927Y-132462870D01*
X146381755Y-132472670D01*
X146375156Y-132480267D01*
X146371822Y-132483444D01*
X146363300Y-132489554D01*
X146351298Y-132494229D01*
X146333087Y-132497659D01*
X146305940Y-132500036D01*
X146267129Y-132501552D01*
X146213924Y-132502398D01*
X146143598Y-132502765D01*
X146053422Y-132502845D01*
X146011314Y-132502833D01*
X145930167Y-132502651D01*
X145867675Y-132502098D01*
X145821109Y-132500982D01*
X145787741Y-132499113D01*
X145764844Y-132496298D01*
X145749688Y-132492346D01*
X145739546Y-132487066D01*
X145731689Y-132480267D01*
X145716963Y-132458667D01*
X145709111Y-132429467D01*
X145714610Y-132405560D01*
X145731689Y-132378667D01*
X145736668Y-132374059D01*
X145746443Y-132367772D01*
X145760559Y-132363146D01*
X145782054Y-132359930D01*
X145813968Y-132357870D01*
X145859342Y-132356712D01*
X145921213Y-132356202D01*
X146002622Y-132356089D01*
X146250978Y-132356089D01*
X146250978Y-132198045D01*
X146089801Y-132198045D01*
X146053983Y-132197899D01*
X145988359Y-132196176D01*
X145941118Y-132191741D01*
X145909383Y-132183637D01*
X145890277Y-132170906D01*
X145880923Y-132152592D01*
X145878445Y-132127738D01*
X145879242Y-132107482D01*
X145884494Y-132085656D01*
X145897288Y-132070304D01*
X145920628Y-132060309D01*
X145957517Y-132054553D01*
X146010959Y-132051919D01*
X146083958Y-132051289D01*
X146252105Y-132051289D01*
X146248719Y-131986378D01*
X146245334Y-131921467D01*
X145997617Y-131918418D01*
X145935026Y-131917539D01*
X145866565Y-131916095D01*
X145815661Y-131914164D01*
X145779408Y-131911514D01*
X145754901Y-131907910D01*
X145739235Y-131903121D01*
X145729506Y-131896913D01*
X145723491Y-131890510D01*
X145710482Y-131858828D01*
X145714043Y-131823142D01*
X145733818Y-131792084D01*
X145737069Y-131789161D01*
X145746049Y-131782810D01*
X145758153Y-131777957D01*
X145776159Y-131774403D01*
X145802847Y-131771946D01*
X145840997Y-131770385D01*
X145893386Y-131769518D01*
X145962794Y-131769146D01*
X146052001Y-131769067D01*
X146106734Y-131769083D01*
G36*
X147526870Y-132035041D02*
G01*
X147526622Y-132135956D01*
X147526583Y-132211617D01*
X147526328Y-132289526D01*
X147525684Y-132349536D01*
X147524480Y-132394264D01*
X147522543Y-132426326D01*
X147519703Y-132448340D01*
X147515788Y-132462924D01*
X147510626Y-132472694D01*
X147504045Y-132480267D01*
X147497077Y-132486501D01*
X147484079Y-132493801D01*
X147464931Y-132498554D01*
X147435528Y-132501292D01*
X147391762Y-132502545D01*
X147329528Y-132502845D01*
X147280582Y-132502469D01*
X147173722Y-132498041D01*
X147084494Y-132487953D01*
X147009696Y-132471365D01*
X146946125Y-132447435D01*
X146890579Y-132415321D01*
X146839854Y-132374182D01*
X146833866Y-132368330D01*
X146796999Y-132319821D01*
X146765899Y-132259013D01*
X146744417Y-132194769D01*
X146739136Y-132156026D01*
X146886353Y-132156026D01*
X146904635Y-132206961D01*
X146934305Y-132252878D01*
X146981002Y-132295287D01*
X147042392Y-132325090D01*
X147121538Y-132344226D01*
X147123028Y-132344464D01*
X147171999Y-132350256D01*
X147230693Y-132354396D01*
X147286734Y-132356004D01*
X147379867Y-132356089D01*
X147379867Y-131915822D01*
X147303667Y-131915808D01*
X147300639Y-131915817D01*
X147249519Y-131917782D01*
X147189416Y-131922507D01*
X147132708Y-131929035D01*
X147082750Y-131938331D01*
X147007998Y-131964600D01*
X146950489Y-132003899D01*
X146908988Y-132056933D01*
X146887771Y-132108200D01*
X146886353Y-132156026D01*
X146739136Y-132156026D01*
X146736400Y-132135956D01*
X146737679Y-132114739D01*
X146749991Y-132057323D01*
X146772520Y-131997413D01*
X146801750Y-131943363D01*
X146834167Y-131903532D01*
X146853708Y-131886510D01*
X146908420Y-131847322D01*
X146968723Y-131817193D01*
X147037919Y-131795232D01*
X147119311Y-131780550D01*
X147216200Y-131772259D01*
X147331889Y-131769467D01*
X147371371Y-131769066D01*
X147417082Y-131768653D01*
X147452883Y-131770457D01*
X147479974Y-131776739D01*
X147499556Y-131789759D01*
X147512830Y-131811778D01*
X147520998Y-131845055D01*
X147525260Y-131891851D01*
X147525857Y-131915822D01*
X147526817Y-131954427D01*
X147526870Y-132035041D01*
G37*
X147526870Y-132035041D02*
X147526622Y-132135956D01*
X147526583Y-132211617D01*
X147526328Y-132289526D01*
X147525684Y-132349536D01*
X147524480Y-132394264D01*
X147522543Y-132426326D01*
X147519703Y-132448340D01*
X147515788Y-132462924D01*
X147510626Y-132472694D01*
X147504045Y-132480267D01*
X147497077Y-132486501D01*
X147484079Y-132493801D01*
X147464931Y-132498554D01*
X147435528Y-132501292D01*
X147391762Y-132502545D01*
X147329528Y-132502845D01*
X147280582Y-132502469D01*
X147173722Y-132498041D01*
X147084494Y-132487953D01*
X147009696Y-132471365D01*
X146946125Y-132447435D01*
X146890579Y-132415321D01*
X146839854Y-132374182D01*
X146833866Y-132368330D01*
X146796999Y-132319821D01*
X146765899Y-132259013D01*
X146744417Y-132194769D01*
X146739136Y-132156026D01*
X146886353Y-132156026D01*
X146904635Y-132206961D01*
X146934305Y-132252878D01*
X146981002Y-132295287D01*
X147042392Y-132325090D01*
X147121538Y-132344226D01*
X147123028Y-132344464D01*
X147171999Y-132350256D01*
X147230693Y-132354396D01*
X147286734Y-132356004D01*
X147379867Y-132356089D01*
X147379867Y-131915822D01*
X147303667Y-131915808D01*
X147300639Y-131915817D01*
X147249519Y-131917782D01*
X147189416Y-131922507D01*
X147132708Y-131929035D01*
X147082750Y-131938331D01*
X147007998Y-131964600D01*
X146950489Y-132003899D01*
X146908988Y-132056933D01*
X146887771Y-132108200D01*
X146886353Y-132156026D01*
X146739136Y-132156026D01*
X146736400Y-132135956D01*
X146737679Y-132114739D01*
X146749991Y-132057323D01*
X146772520Y-131997413D01*
X146801750Y-131943363D01*
X146834167Y-131903532D01*
X146853708Y-131886510D01*
X146908420Y-131847322D01*
X146968723Y-131817193D01*
X147037919Y-131795232D01*
X147119311Y-131780550D01*
X147216200Y-131772259D01*
X147331889Y-131769467D01*
X147371371Y-131769066D01*
X147417082Y-131768653D01*
X147452883Y-131770457D01*
X147479974Y-131776739D01*
X147499556Y-131789759D01*
X147512830Y-131811778D01*
X147520998Y-131845055D01*
X147525260Y-131891851D01*
X147525857Y-131915822D01*
X147526817Y-131954427D01*
X147526870Y-132035041D01*
G36*
X143704562Y-126532850D02*
G01*
X143787313Y-126560053D01*
X143862406Y-126605484D01*
X143934298Y-126671302D01*
X143972846Y-126715567D01*
X144012256Y-126773961D01*
X144037446Y-126834586D01*
X144050861Y-126903865D01*
X144054948Y-126988222D01*
X144054669Y-127034307D01*
X144052460Y-127075450D01*
X144046894Y-127107582D01*
X144036586Y-127138122D01*
X144020148Y-127174489D01*
X144006200Y-127201728D01*
X143947665Y-127287429D01*
X143875619Y-127356617D01*
X143791947Y-127407741D01*
X143698531Y-127439250D01*
X143665434Y-127446225D01*
X143624960Y-127453094D01*
X143591999Y-127454919D01*
X143557698Y-127451947D01*
X143513200Y-127444426D01*
X143461934Y-127432002D01*
X143371434Y-127394112D01*
X143292345Y-127339836D01*
X143226528Y-127271770D01*
X143175840Y-127192511D01*
X143142140Y-127104654D01*
X143127286Y-127010795D01*
X143133136Y-126913530D01*
X143159399Y-126817220D01*
X143204418Y-126728494D01*
X143265373Y-126653419D01*
X143340184Y-126593641D01*
X143426768Y-126550809D01*
X143523043Y-126526571D01*
X143626928Y-126522576D01*
X143704562Y-126532850D01*
G37*
X143704562Y-126532850D02*
X143787313Y-126560053D01*
X143862406Y-126605484D01*
X143934298Y-126671302D01*
X143972846Y-126715567D01*
X144012256Y-126773961D01*
X144037446Y-126834586D01*
X144050861Y-126903865D01*
X144054948Y-126988222D01*
X144054669Y-127034307D01*
X144052460Y-127075450D01*
X144046894Y-127107582D01*
X144036586Y-127138122D01*
X144020148Y-127174489D01*
X144006200Y-127201728D01*
X143947665Y-127287429D01*
X143875619Y-127356617D01*
X143791947Y-127407741D01*
X143698531Y-127439250D01*
X143665434Y-127446225D01*
X143624960Y-127453094D01*
X143591999Y-127454919D01*
X143557698Y-127451947D01*
X143513200Y-127444426D01*
X143461934Y-127432002D01*
X143371434Y-127394112D01*
X143292345Y-127339836D01*
X143226528Y-127271770D01*
X143175840Y-127192511D01*
X143142140Y-127104654D01*
X143127286Y-127010795D01*
X143133136Y-126913530D01*
X143159399Y-126817220D01*
X143204418Y-126728494D01*
X143265373Y-126653419D01*
X143340184Y-126593641D01*
X143426768Y-126550809D01*
X143523043Y-126526571D01*
X143626928Y-126522576D01*
X143704562Y-126532850D01*
G36*
X137435268Y-129820158D02*
G01*
X137426689Y-129971594D01*
X137407833Y-130108283D01*
X137377837Y-130234276D01*
X137335836Y-130353625D01*
X137280969Y-130470381D01*
X137214167Y-130581179D01*
X137123363Y-130694739D01*
X137019708Y-130790211D01*
X136903887Y-130867073D01*
X136776586Y-130924797D01*
X136638489Y-130962858D01*
X136600793Y-130968666D01*
X136521752Y-130974396D01*
X136433629Y-130974583D01*
X136344236Y-130969539D01*
X136261384Y-130959578D01*
X136192887Y-130945012D01*
X136162035Y-130935364D01*
X136084730Y-130905123D01*
X136007679Y-130867617D01*
X135938200Y-130826614D01*
X135883615Y-130785879D01*
X135860916Y-130766505D01*
X135838201Y-130748662D01*
X135826779Y-130741778D01*
X135825537Y-130743424D01*
X135822728Y-130761205D01*
X135820776Y-130794370D01*
X135820045Y-130837733D01*
X135820045Y-130933689D01*
X134961896Y-130933689D01*
X134996161Y-130872974D01*
X135001355Y-130863868D01*
X135009715Y-130849249D01*
X135017288Y-130835173D01*
X135024112Y-130820540D01*
X135030227Y-130804249D01*
X135035673Y-130785198D01*
X135040487Y-130762286D01*
X135044708Y-130734413D01*
X135048377Y-130700478D01*
X135051531Y-130659379D01*
X135054211Y-130610015D01*
X135056454Y-130551286D01*
X135058299Y-130482090D01*
X135059787Y-130401326D01*
X135060955Y-130307894D01*
X135061844Y-130200692D01*
X135062491Y-130078620D01*
X135062936Y-129940576D01*
X135063218Y-129785459D01*
X135063375Y-129612168D01*
X135063448Y-129419603D01*
X135063474Y-129206662D01*
X135063485Y-129070530D01*
X135865200Y-129070530D01*
X135865200Y-130220721D01*
X135935756Y-130267089D01*
X135976417Y-130290791D01*
X136030546Y-130316639D01*
X136079689Y-130334829D01*
X136143165Y-130350551D01*
X136239331Y-130361541D01*
X136323900Y-130353365D01*
X136397219Y-130325805D01*
X136459637Y-130278642D01*
X136511502Y-130211658D01*
X136553160Y-130124633D01*
X136584962Y-130017350D01*
X136587545Y-130005009D01*
X136596000Y-129943772D01*
X136601663Y-129866692D01*
X136604576Y-129779002D01*
X136604783Y-129685934D01*
X136602330Y-129592720D01*
X136597261Y-129504594D01*
X136589619Y-129426788D01*
X136579448Y-129364533D01*
X136578167Y-129358666D01*
X136549126Y-129248121D01*
X136514610Y-129157575D01*
X136473456Y-129084953D01*
X136424499Y-129028181D01*
X136366574Y-128985184D01*
X136334620Y-128969615D01*
X136261784Y-128950722D01*
X136180443Y-128947465D01*
X136095319Y-128959389D01*
X136011133Y-128986040D01*
X135932608Y-129026962D01*
X135865200Y-129070530D01*
X135063485Y-129070530D01*
X135063493Y-128972245D01*
X135063689Y-127287378D01*
X135969017Y-127287378D01*
X135944585Y-127324067D01*
X135938318Y-127333647D01*
X135912208Y-127379981D01*
X135894469Y-127427102D01*
X135882908Y-127482251D01*
X135875331Y-127552667D01*
X135874839Y-127559650D01*
X135873062Y-127597641D01*
X135871444Y-127651576D01*
X135869999Y-127718703D01*
X135868740Y-127796271D01*
X135867680Y-127881528D01*
X135866829Y-127971724D01*
X135866203Y-128064107D01*
X135865812Y-128155925D01*
X135865670Y-128244427D01*
X135865790Y-128326862D01*
X135866183Y-128400479D01*
X135866862Y-128462526D01*
X135867841Y-128510251D01*
X135869132Y-128540904D01*
X135870747Y-128551733D01*
X135878957Y-128547333D01*
X135900647Y-128532362D01*
X135930014Y-128510448D01*
X135978879Y-128476236D01*
X136067125Y-128429714D01*
X136165916Y-128396046D01*
X136278510Y-128374231D01*
X136408164Y-128363265D01*
X136500670Y-128362219D01*
X136622011Y-128372014D01*
X136732099Y-128396174D01*
X136835389Y-128435785D01*
X136936338Y-128491932D01*
X136981503Y-128522883D01*
X137086911Y-128614115D01*
X137178538Y-128723106D01*
X137256332Y-128849726D01*
X137320241Y-128993845D01*
X137370214Y-129155332D01*
X137406198Y-129334059D01*
X137428143Y-129529895D01*
X137433900Y-129685934D01*
X137435994Y-129742711D01*
X137435268Y-129820158D01*
G37*
X137435268Y-129820158D02*
X137426689Y-129971594D01*
X137407833Y-130108283D01*
X137377837Y-130234276D01*
X137335836Y-130353625D01*
X137280969Y-130470381D01*
X137214167Y-130581179D01*
X137123363Y-130694739D01*
X137019708Y-130790211D01*
X136903887Y-130867073D01*
X136776586Y-130924797D01*
X136638489Y-130962858D01*
X136600793Y-130968666D01*
X136521752Y-130974396D01*
X136433629Y-130974583D01*
X136344236Y-130969539D01*
X136261384Y-130959578D01*
X136192887Y-130945012D01*
X136162035Y-130935364D01*
X136084730Y-130905123D01*
X136007679Y-130867617D01*
X135938200Y-130826614D01*
X135883615Y-130785879D01*
X135860916Y-130766505D01*
X135838201Y-130748662D01*
X135826779Y-130741778D01*
X135825537Y-130743424D01*
X135822728Y-130761205D01*
X135820776Y-130794370D01*
X135820045Y-130837733D01*
X135820045Y-130933689D01*
X134961896Y-130933689D01*
X134996161Y-130872974D01*
X135001355Y-130863868D01*
X135009715Y-130849249D01*
X135017288Y-130835173D01*
X135024112Y-130820540D01*
X135030227Y-130804249D01*
X135035673Y-130785198D01*
X135040487Y-130762286D01*
X135044708Y-130734413D01*
X135048377Y-130700478D01*
X135051531Y-130659379D01*
X135054211Y-130610015D01*
X135056454Y-130551286D01*
X135058299Y-130482090D01*
X135059787Y-130401326D01*
X135060955Y-130307894D01*
X135061844Y-130200692D01*
X135062491Y-130078620D01*
X135062936Y-129940576D01*
X135063218Y-129785459D01*
X135063375Y-129612168D01*
X135063448Y-129419603D01*
X135063474Y-129206662D01*
X135063485Y-129070530D01*
X135865200Y-129070530D01*
X135865200Y-130220721D01*
X135935756Y-130267089D01*
X135976417Y-130290791D01*
X136030546Y-130316639D01*
X136079689Y-130334829D01*
X136143165Y-130350551D01*
X136239331Y-130361541D01*
X136323900Y-130353365D01*
X136397219Y-130325805D01*
X136459637Y-130278642D01*
X136511502Y-130211658D01*
X136553160Y-130124633D01*
X136584962Y-130017350D01*
X136587545Y-130005009D01*
X136596000Y-129943772D01*
X136601663Y-129866692D01*
X136604576Y-129779002D01*
X136604783Y-129685934D01*
X136602330Y-129592720D01*
X136597261Y-129504594D01*
X136589619Y-129426788D01*
X136579448Y-129364533D01*
X136578167Y-129358666D01*
X136549126Y-129248121D01*
X136514610Y-129157575D01*
X136473456Y-129084953D01*
X136424499Y-129028181D01*
X136366574Y-128985184D01*
X136334620Y-128969615D01*
X136261784Y-128950722D01*
X136180443Y-128947465D01*
X136095319Y-128959389D01*
X136011133Y-128986040D01*
X135932608Y-129026962D01*
X135865200Y-129070530D01*
X135063485Y-129070530D01*
X135063493Y-128972245D01*
X135063689Y-127287378D01*
X135969017Y-127287378D01*
X135944585Y-127324067D01*
X135938318Y-127333647D01*
X135912208Y-127379981D01*
X135894469Y-127427102D01*
X135882908Y-127482251D01*
X135875331Y-127552667D01*
X135874839Y-127559650D01*
X135873062Y-127597641D01*
X135871444Y-127651576D01*
X135869999Y-127718703D01*
X135868740Y-127796271D01*
X135867680Y-127881528D01*
X135866829Y-127971724D01*
X135866203Y-128064107D01*
X135865812Y-128155925D01*
X135865670Y-128244427D01*
X135865790Y-128326862D01*
X135866183Y-128400479D01*
X135866862Y-128462526D01*
X135867841Y-128510251D01*
X135869132Y-128540904D01*
X135870747Y-128551733D01*
X135878957Y-128547333D01*
X135900647Y-128532362D01*
X135930014Y-128510448D01*
X135978879Y-128476236D01*
X136067125Y-128429714D01*
X136165916Y-128396046D01*
X136278510Y-128374231D01*
X136408164Y-128363265D01*
X136500670Y-128362219D01*
X136622011Y-128372014D01*
X136732099Y-128396174D01*
X136835389Y-128435785D01*
X136936338Y-128491932D01*
X136981503Y-128522883D01*
X137086911Y-128614115D01*
X137178538Y-128723106D01*
X137256332Y-128849726D01*
X137320241Y-128993845D01*
X137370214Y-129155332D01*
X137406198Y-129334059D01*
X137428143Y-129529895D01*
X137433900Y-129685934D01*
X137435994Y-129742711D01*
X137435268Y-129820158D01*
G36*
X139977261Y-130177363D02*
G01*
X139973632Y-130252202D01*
X139966022Y-130314401D01*
X139953688Y-130370984D01*
X139909313Y-130497076D01*
X139846400Y-130611679D01*
X139766238Y-130712568D01*
X139669740Y-130798924D01*
X139557822Y-130869932D01*
X139431397Y-130924776D01*
X139291378Y-130962638D01*
X139255149Y-130968351D01*
X139176155Y-130974313D01*
X139087841Y-130974646D01*
X138998075Y-130969659D01*
X138914722Y-130959666D01*
X138845651Y-130944978D01*
X138759187Y-130914749D01*
X138649286Y-130860057D01*
X138551956Y-130792543D01*
X138489867Y-130741556D01*
X138486605Y-130837622D01*
X138483343Y-130933689D01*
X138060450Y-130933689D01*
X138049543Y-130933686D01*
X137955056Y-130933380D01*
X137868331Y-130932616D01*
X137791837Y-130931451D01*
X137728043Y-130929942D01*
X137679418Y-130928147D01*
X137648433Y-130926121D01*
X137637556Y-130923922D01*
X137637578Y-130923463D01*
X137644614Y-130907910D01*
X137660434Y-130885071D01*
X137664734Y-130879638D01*
X137675777Y-130865606D01*
X137685311Y-130852186D01*
X137693461Y-130837722D01*
X137700352Y-130820556D01*
X137706111Y-130799034D01*
X137710862Y-130771498D01*
X137714731Y-130736292D01*
X137717844Y-130691760D01*
X137720325Y-130636246D01*
X137722300Y-130568093D01*
X137723894Y-130485645D01*
X137725234Y-130387246D01*
X137726444Y-130271239D01*
X137727649Y-130135968D01*
X137728594Y-130024586D01*
X138529378Y-130024586D01*
X138529378Y-130220462D01*
X138574048Y-130276973D01*
X138586785Y-130292212D01*
X138633604Y-130334844D01*
X138694255Y-130370672D01*
X138704897Y-130375850D01*
X138743676Y-130392745D01*
X138778692Y-130402909D01*
X138818722Y-130408325D01*
X138872541Y-130410978D01*
X138890648Y-130411383D01*
X138966011Y-130408540D01*
X139026743Y-130396620D01*
X139078452Y-130374037D01*
X139126746Y-130339211D01*
X139131803Y-130334798D01*
X139180272Y-130279160D01*
X139208459Y-130215333D01*
X139217752Y-130140282D01*
X139210520Y-130068693D01*
X139185796Y-130005645D01*
X139141249Y-129947758D01*
X139086319Y-129900808D01*
X139013894Y-129860961D01*
X138927340Y-129833263D01*
X138824670Y-129817096D01*
X138703894Y-129811842D01*
X138695007Y-129811857D01*
X138639660Y-129812655D01*
X138592736Y-129814488D01*
X138558953Y-129817111D01*
X138543028Y-129820274D01*
X138538943Y-129826741D01*
X138534572Y-129848875D01*
X138531604Y-129887988D01*
X138529914Y-129945939D01*
X138529378Y-130024586D01*
X137728594Y-130024586D01*
X137728975Y-129979778D01*
X137730228Y-129837012D01*
X137731651Y-129691942D01*
X137733176Y-129566027D01*
X137734933Y-129457436D01*
X137737051Y-129364334D01*
X137739660Y-129284891D01*
X137742890Y-129217273D01*
X137746869Y-129159649D01*
X137751728Y-129110185D01*
X137757597Y-129067050D01*
X137764604Y-129028410D01*
X137772880Y-128992434D01*
X137782554Y-128957289D01*
X137793756Y-128921142D01*
X137806616Y-128882161D01*
X137822090Y-128839091D01*
X137864994Y-128746871D01*
X137918735Y-128667099D01*
X137987576Y-128592965D01*
X138065185Y-128529405D01*
X138169761Y-128467725D01*
X138289244Y-128420202D01*
X138424508Y-128386567D01*
X138576426Y-128366552D01*
X138745872Y-128359889D01*
X138803890Y-128360287D01*
X138869398Y-128362335D01*
X138930693Y-128366704D01*
X138992097Y-128374035D01*
X139057932Y-128384969D01*
X139132520Y-128400147D01*
X139220184Y-128420209D01*
X139325245Y-128445797D01*
X139353806Y-128452820D01*
X139429054Y-128470776D01*
X139499388Y-128486820D01*
X139560567Y-128500028D01*
X139608354Y-128509474D01*
X139638511Y-128514231D01*
X139666783Y-128517910D01*
X139693060Y-128523187D01*
X139703059Y-128527942D01*
X139699952Y-128536781D01*
X139689194Y-128564072D01*
X139671864Y-128606906D01*
X139649126Y-128662425D01*
X139622147Y-128727772D01*
X139592090Y-128800089D01*
X139585493Y-128815879D01*
X139546907Y-128906484D01*
X139515768Y-128976217D01*
X139491917Y-129025405D01*
X139475198Y-129054374D01*
X139465454Y-129063452D01*
X139457766Y-129061405D01*
X139431415Y-129051760D01*
X139392982Y-129036190D01*
X139347822Y-129016815D01*
X139253293Y-128978814D01*
X139116480Y-128937780D01*
X138975289Y-128912612D01*
X138937314Y-128908611D01*
X138834059Y-128906447D01*
X138746952Y-128919622D01*
X138675129Y-128948756D01*
X138617731Y-128994466D01*
X138573896Y-129057372D01*
X138542762Y-129138092D01*
X138523470Y-129237245D01*
X138516050Y-129296224D01*
X138677936Y-129289445D01*
X138804495Y-129287813D01*
X138955951Y-129294194D01*
X139104396Y-129308777D01*
X139240578Y-129330882D01*
X139305245Y-129345821D01*
X139437490Y-129388741D01*
X139559762Y-129445340D01*
X139669685Y-129514017D01*
X139764883Y-129593170D01*
X139842980Y-129681196D01*
X139901599Y-129776493D01*
X139925595Y-129828864D01*
X139951232Y-129899590D01*
X139967478Y-129970812D01*
X139975822Y-130049712D01*
X139977690Y-130140282D01*
X139977755Y-130143467D01*
X139977261Y-130177363D01*
G37*
X139977261Y-130177363D02*
X139973632Y-130252202D01*
X139966022Y-130314401D01*
X139953688Y-130370984D01*
X139909313Y-130497076D01*
X139846400Y-130611679D01*
X139766238Y-130712568D01*
X139669740Y-130798924D01*
X139557822Y-130869932D01*
X139431397Y-130924776D01*
X139291378Y-130962638D01*
X139255149Y-130968351D01*
X139176155Y-130974313D01*
X139087841Y-130974646D01*
X138998075Y-130969659D01*
X138914722Y-130959666D01*
X138845651Y-130944978D01*
X138759187Y-130914749D01*
X138649286Y-130860057D01*
X138551956Y-130792543D01*
X138489867Y-130741556D01*
X138486605Y-130837622D01*
X138483343Y-130933689D01*
X138060450Y-130933689D01*
X138049543Y-130933686D01*
X137955056Y-130933380D01*
X137868331Y-130932616D01*
X137791837Y-130931451D01*
X137728043Y-130929942D01*
X137679418Y-130928147D01*
X137648433Y-130926121D01*
X137637556Y-130923922D01*
X137637578Y-130923463D01*
X137644614Y-130907910D01*
X137660434Y-130885071D01*
X137664734Y-130879638D01*
X137675777Y-130865606D01*
X137685311Y-130852186D01*
X137693461Y-130837722D01*
X137700352Y-130820556D01*
X137706111Y-130799034D01*
X137710862Y-130771498D01*
X137714731Y-130736292D01*
X137717844Y-130691760D01*
X137720325Y-130636246D01*
X137722300Y-130568093D01*
X137723894Y-130485645D01*
X137725234Y-130387246D01*
X137726444Y-130271239D01*
X137727649Y-130135968D01*
X137728594Y-130024586D01*
X138529378Y-130024586D01*
X138529378Y-130220462D01*
X138574048Y-130276973D01*
X138586785Y-130292212D01*
X138633604Y-130334844D01*
X138694255Y-130370672D01*
X138704897Y-130375850D01*
X138743676Y-130392745D01*
X138778692Y-130402909D01*
X138818722Y-130408325D01*
X138872541Y-130410978D01*
X138890648Y-130411383D01*
X138966011Y-130408540D01*
X139026743Y-130396620D01*
X139078452Y-130374037D01*
X139126746Y-130339211D01*
X139131803Y-130334798D01*
X139180272Y-130279160D01*
X139208459Y-130215333D01*
X139217752Y-130140282D01*
X139210520Y-130068693D01*
X139185796Y-130005645D01*
X139141249Y-129947758D01*
X139086319Y-129900808D01*
X139013894Y-129860961D01*
X138927340Y-129833263D01*
X138824670Y-129817096D01*
X138703894Y-129811842D01*
X138695007Y-129811857D01*
X138639660Y-129812655D01*
X138592736Y-129814488D01*
X138558953Y-129817111D01*
X138543028Y-129820274D01*
X138538943Y-129826741D01*
X138534572Y-129848875D01*
X138531604Y-129887988D01*
X138529914Y-129945939D01*
X138529378Y-130024586D01*
X137728594Y-130024586D01*
X137728975Y-129979778D01*
X137730228Y-129837012D01*
X137731651Y-129691942D01*
X137733176Y-129566027D01*
X137734933Y-129457436D01*
X137737051Y-129364334D01*
X137739660Y-129284891D01*
X137742890Y-129217273D01*
X137746869Y-129159649D01*
X137751728Y-129110185D01*
X137757597Y-129067050D01*
X137764604Y-129028410D01*
X137772880Y-128992434D01*
X137782554Y-128957289D01*
X137793756Y-128921142D01*
X137806616Y-128882161D01*
X137822090Y-128839091D01*
X137864994Y-128746871D01*
X137918735Y-128667099D01*
X137987576Y-128592965D01*
X138065185Y-128529405D01*
X138169761Y-128467725D01*
X138289244Y-128420202D01*
X138424508Y-128386567D01*
X138576426Y-128366552D01*
X138745872Y-128359889D01*
X138803890Y-128360287D01*
X138869398Y-128362335D01*
X138930693Y-128366704D01*
X138992097Y-128374035D01*
X139057932Y-128384969D01*
X139132520Y-128400147D01*
X139220184Y-128420209D01*
X139325245Y-128445797D01*
X139353806Y-128452820D01*
X139429054Y-128470776D01*
X139499388Y-128486820D01*
X139560567Y-128500028D01*
X139608354Y-128509474D01*
X139638511Y-128514231D01*
X139666783Y-128517910D01*
X139693060Y-128523187D01*
X139703059Y-128527942D01*
X139699952Y-128536781D01*
X139689194Y-128564072D01*
X139671864Y-128606906D01*
X139649126Y-128662425D01*
X139622147Y-128727772D01*
X139592090Y-128800089D01*
X139585493Y-128815879D01*
X139546907Y-128906484D01*
X139515768Y-128976217D01*
X139491917Y-129025405D01*
X139475198Y-129054374D01*
X139465454Y-129063452D01*
X139457766Y-129061405D01*
X139431415Y-129051760D01*
X139392982Y-129036190D01*
X139347822Y-129016815D01*
X139253293Y-128978814D01*
X139116480Y-128937780D01*
X138975289Y-128912612D01*
X138937314Y-128908611D01*
X138834059Y-128906447D01*
X138746952Y-128919622D01*
X138675129Y-128948756D01*
X138617731Y-128994466D01*
X138573896Y-129057372D01*
X138542762Y-129138092D01*
X138523470Y-129237245D01*
X138516050Y-129296224D01*
X138677936Y-129289445D01*
X138804495Y-129287813D01*
X138955951Y-129294194D01*
X139104396Y-129308777D01*
X139240578Y-129330882D01*
X139305245Y-129345821D01*
X139437490Y-129388741D01*
X139559762Y-129445340D01*
X139669685Y-129514017D01*
X139764883Y-129593170D01*
X139842980Y-129681196D01*
X139901599Y-129776493D01*
X139925595Y-129828864D01*
X139951232Y-129899590D01*
X139967478Y-129970812D01*
X139975822Y-130049712D01*
X139977690Y-130140282D01*
X139977755Y-130143467D01*
X139977261Y-130177363D01*
G36*
X141238711Y-127462033D02*
G01*
X141334268Y-127479523D01*
X141498558Y-127524564D01*
X141652589Y-127587656D01*
X141798509Y-127669915D01*
X141938466Y-127772457D01*
X142074608Y-127896399D01*
X142118473Y-127941661D01*
X142230758Y-128073865D01*
X142323972Y-128211832D01*
X142400719Y-128359750D01*
X142463603Y-128521803D01*
X142467420Y-128533391D01*
X142517507Y-128719392D01*
X142550899Y-128915521D01*
X142567584Y-129117568D01*
X142567551Y-129321325D01*
X142550791Y-129522581D01*
X142517292Y-129717128D01*
X142467044Y-129900756D01*
X142423190Y-130018053D01*
X142345348Y-130180951D01*
X142251828Y-130334866D01*
X142144822Y-130476671D01*
X142026519Y-130603239D01*
X141899111Y-130711441D01*
X141821606Y-130764120D01*
X141694725Y-130833750D01*
X141557243Y-130892468D01*
X141415716Y-130937587D01*
X141276702Y-130966422D01*
X141262597Y-130968106D01*
X141219153Y-130971434D01*
X141161723Y-130974275D01*
X141096122Y-130976373D01*
X141028167Y-130977468D01*
X140901378Y-130975140D01*
X140753673Y-130962136D01*
X140615779Y-130937133D01*
X140482014Y-130899318D01*
X140458562Y-130890889D01*
X140410612Y-130871408D01*
X140354140Y-130846473D01*
X140292379Y-130817722D01*
X140228563Y-130786790D01*
X140165926Y-130755315D01*
X140107703Y-130724934D01*
X140057127Y-130697283D01*
X140017433Y-130673999D01*
X139991854Y-130656718D01*
X139983625Y-130647079D01*
X139985076Y-130643984D01*
X139996250Y-130624079D01*
X140017134Y-130588420D01*
X140046265Y-130539459D01*
X140082181Y-130479646D01*
X140123420Y-130411433D01*
X140168517Y-130337271D01*
X140349785Y-130040008D01*
X140396315Y-130084539D01*
X140487723Y-130162865D01*
X140601334Y-130237439D01*
X140719122Y-130291474D01*
X140839559Y-130324290D01*
X140961117Y-130335211D01*
X141002585Y-130333868D01*
X141120080Y-130315612D01*
X141230089Y-130276617D01*
X141331430Y-130217670D01*
X141422921Y-130139557D01*
X141503380Y-130043064D01*
X141571627Y-129928978D01*
X141587908Y-129894724D01*
X141633982Y-129771240D01*
X141669106Y-129632918D01*
X141693197Y-129483561D01*
X141706173Y-129326973D01*
X141707949Y-129166956D01*
X141698443Y-129007314D01*
X141677572Y-128851850D01*
X141645252Y-128704366D01*
X141601399Y-128568667D01*
X141563982Y-128482076D01*
X141499185Y-128368688D01*
X141423772Y-128275070D01*
X141337418Y-128200959D01*
X141239795Y-128146094D01*
X141130577Y-128110212D01*
X141009439Y-128093051D01*
X140940038Y-128091880D01*
X140817168Y-128106141D01*
X140701664Y-128141241D01*
X140594953Y-128196682D01*
X140498464Y-128271964D01*
X140482720Y-128286440D01*
X140452150Y-128312962D01*
X140429809Y-128330138D01*
X140419691Y-128334787D01*
X140417706Y-128332597D01*
X140403241Y-128313721D01*
X140379400Y-128280397D01*
X140348029Y-128235380D01*
X140310974Y-128181425D01*
X140270083Y-128121285D01*
X140227202Y-128057718D01*
X140184178Y-127993476D01*
X140142857Y-127931315D01*
X140105086Y-127873991D01*
X140072712Y-127824257D01*
X140047582Y-127784868D01*
X140031542Y-127758580D01*
X140026439Y-127748147D01*
X140031050Y-127743941D01*
X140050267Y-127738933D01*
X140059838Y-127736386D01*
X140087809Y-127725249D01*
X140129448Y-127706802D01*
X140180995Y-127682725D01*
X140238690Y-127654699D01*
X140249957Y-127649154D01*
X140427687Y-127569889D01*
X140597490Y-127510385D01*
X140761430Y-127470245D01*
X140921571Y-127449071D01*
X141079977Y-127446466D01*
X141238711Y-127462033D01*
G37*
X141238711Y-127462033D02*
X141334268Y-127479523D01*
X141498558Y-127524564D01*
X141652589Y-127587656D01*
X141798509Y-127669915D01*
X141938466Y-127772457D01*
X142074608Y-127896399D01*
X142118473Y-127941661D01*
X142230758Y-128073865D01*
X142323972Y-128211832D01*
X142400719Y-128359750D01*
X142463603Y-128521803D01*
X142467420Y-128533391D01*
X142517507Y-128719392D01*
X142550899Y-128915521D01*
X142567584Y-129117568D01*
X142567551Y-129321325D01*
X142550791Y-129522581D01*
X142517292Y-129717128D01*
X142467044Y-129900756D01*
X142423190Y-130018053D01*
X142345348Y-130180951D01*
X142251828Y-130334866D01*
X142144822Y-130476671D01*
X142026519Y-130603239D01*
X141899111Y-130711441D01*
X141821606Y-130764120D01*
X141694725Y-130833750D01*
X141557243Y-130892468D01*
X141415716Y-130937587D01*
X141276702Y-130966422D01*
X141262597Y-130968106D01*
X141219153Y-130971434D01*
X141161723Y-130974275D01*
X141096122Y-130976373D01*
X141028167Y-130977468D01*
X140901378Y-130975140D01*
X140753673Y-130962136D01*
X140615779Y-130937133D01*
X140482014Y-130899318D01*
X140458562Y-130890889D01*
X140410612Y-130871408D01*
X140354140Y-130846473D01*
X140292379Y-130817722D01*
X140228563Y-130786790D01*
X140165926Y-130755315D01*
X140107703Y-130724934D01*
X140057127Y-130697283D01*
X140017433Y-130673999D01*
X139991854Y-130656718D01*
X139983625Y-130647079D01*
X139985076Y-130643984D01*
X139996250Y-130624079D01*
X140017134Y-130588420D01*
X140046265Y-130539459D01*
X140082181Y-130479646D01*
X140123420Y-130411433D01*
X140168517Y-130337271D01*
X140349785Y-130040008D01*
X140396315Y-130084539D01*
X140487723Y-130162865D01*
X140601334Y-130237439D01*
X140719122Y-130291474D01*
X140839559Y-130324290D01*
X140961117Y-130335211D01*
X141002585Y-130333868D01*
X141120080Y-130315612D01*
X141230089Y-130276617D01*
X141331430Y-130217670D01*
X141422921Y-130139557D01*
X141503380Y-130043064D01*
X141571627Y-129928978D01*
X141587908Y-129894724D01*
X141633982Y-129771240D01*
X141669106Y-129632918D01*
X141693197Y-129483561D01*
X141706173Y-129326973D01*
X141707949Y-129166956D01*
X141698443Y-129007314D01*
X141677572Y-128851850D01*
X141645252Y-128704366D01*
X141601399Y-128568667D01*
X141563982Y-128482076D01*
X141499185Y-128368688D01*
X141423772Y-128275070D01*
X141337418Y-128200959D01*
X141239795Y-128146094D01*
X141130577Y-128110212D01*
X141009439Y-128093051D01*
X140940038Y-128091880D01*
X140817168Y-128106141D01*
X140701664Y-128141241D01*
X140594953Y-128196682D01*
X140498464Y-128271964D01*
X140482720Y-128286440D01*
X140452150Y-128312962D01*
X140429809Y-128330138D01*
X140419691Y-128334787D01*
X140417706Y-128332597D01*
X140403241Y-128313721D01*
X140379400Y-128280397D01*
X140348029Y-128235380D01*
X140310974Y-128181425D01*
X140270083Y-128121285D01*
X140227202Y-128057718D01*
X140184178Y-127993476D01*
X140142857Y-127931315D01*
X140105086Y-127873991D01*
X140072712Y-127824257D01*
X140047582Y-127784868D01*
X140031542Y-127758580D01*
X140026439Y-127748147D01*
X140031050Y-127743941D01*
X140050267Y-127738933D01*
X140059838Y-127736386D01*
X140087809Y-127725249D01*
X140129448Y-127706802D01*
X140180995Y-127682725D01*
X140238690Y-127654699D01*
X140249957Y-127649154D01*
X140427687Y-127569889D01*
X140597490Y-127510385D01*
X140761430Y-127470245D01*
X140921571Y-127449071D01*
X141079977Y-127446466D01*
X141238711Y-127462033D01*
G36*
X147526059Y-127743011D02*
G01*
X147526362Y-127890216D01*
X147526548Y-128054349D01*
X147526642Y-128236352D01*
X147526671Y-128437165D01*
X147526661Y-128657732D01*
X147526636Y-128898992D01*
X147526622Y-129161889D01*
X147526622Y-129204040D01*
X147526646Y-129464668D01*
X147526685Y-129703796D01*
X147526708Y-129922360D01*
X147526687Y-130121295D01*
X147526593Y-130301535D01*
X147526395Y-130464015D01*
X147526063Y-130609670D01*
X147525569Y-130739434D01*
X147524883Y-130854243D01*
X147523976Y-130955030D01*
X147522817Y-131042730D01*
X147521378Y-131118279D01*
X147519629Y-131182611D01*
X147517540Y-131236661D01*
X147515083Y-131281363D01*
X147512227Y-131317652D01*
X147508943Y-131346463D01*
X147505202Y-131368731D01*
X147500974Y-131385390D01*
X147496229Y-131397375D01*
X147490939Y-131405621D01*
X147485073Y-131411062D01*
X147478602Y-131414634D01*
X147471497Y-131417270D01*
X147463728Y-131419906D01*
X147455266Y-131423477D01*
X147450908Y-131425145D01*
X147442395Y-131427111D01*
X147429694Y-131428911D01*
X147411885Y-131430555D01*
X147388049Y-131432047D01*
X147357266Y-131433397D01*
X147318617Y-131434611D01*
X147271182Y-131435697D01*
X147214043Y-131436661D01*
X147146279Y-131437511D01*
X147066971Y-131438253D01*
X146975199Y-131438897D01*
X146870044Y-131439447D01*
X146750587Y-131439913D01*
X146615908Y-131440300D01*
X146465088Y-131440616D01*
X146297206Y-131440869D01*
X146111345Y-131441066D01*
X145906583Y-131441213D01*
X145682002Y-131441318D01*
X145436682Y-131441389D01*
X145169704Y-131441432D01*
X145131321Y-131441437D01*
X144865922Y-131441480D01*
X144622050Y-131441525D01*
X144398783Y-131441548D01*
X144195196Y-131441524D01*
X144010367Y-131441430D01*
X143843373Y-131441243D01*
X143693290Y-131440939D01*
X143559196Y-131440494D01*
X143440166Y-131439885D01*
X143335279Y-131439089D01*
X143243610Y-131438080D01*
X143164237Y-131436837D01*
X143096237Y-131435335D01*
X143038686Y-131433551D01*
X142990662Y-131431461D01*
X142951240Y-131429042D01*
X142919499Y-131426270D01*
X142894514Y-131423121D01*
X142875364Y-131419572D01*
X142861123Y-131415598D01*
X142850871Y-131411178D01*
X142843682Y-131406286D01*
X142838635Y-131400900D01*
X142834805Y-131394996D01*
X142831271Y-131388549D01*
X142827108Y-131381537D01*
X142826025Y-131379687D01*
X142823813Y-131374180D01*
X142821786Y-131365868D01*
X142819938Y-131353809D01*
X142818261Y-131337063D01*
X142816745Y-131314687D01*
X142815383Y-131285740D01*
X142814167Y-131249280D01*
X142813089Y-131204367D01*
X142812140Y-131150057D01*
X142811312Y-131085410D01*
X142810597Y-131009484D01*
X142809987Y-130921338D01*
X142809943Y-130912493D01*
X143101378Y-130912493D01*
X143105260Y-130913765D01*
X143128520Y-130915791D01*
X143170874Y-130917626D01*
X143230132Y-130919227D01*
X143304107Y-130920549D01*
X143390610Y-130921548D01*
X143487452Y-130922180D01*
X143592445Y-130922400D01*
X144290651Y-130922400D01*
X145445090Y-130922400D01*
X145444456Y-130846200D01*
X145445574Y-130804160D01*
X145451304Y-130768334D01*
X145463890Y-130730772D01*
X145485568Y-130682577D01*
X145488789Y-130675897D01*
X145514188Y-130626359D01*
X145540996Y-130578369D01*
X145563917Y-130541466D01*
X145568485Y-130534834D01*
X145590516Y-130503593D01*
X145622693Y-130458654D01*
X145663457Y-130402147D01*
X145711245Y-130336204D01*
X145764498Y-130262957D01*
X145821655Y-130184536D01*
X145881155Y-130103072D01*
X145941437Y-130020698D01*
X146000940Y-129939544D01*
X146058105Y-129861742D01*
X146111370Y-129789423D01*
X146159174Y-129724718D01*
X146199957Y-129669759D01*
X146232158Y-129626676D01*
X146254216Y-129597602D01*
X146264571Y-129584667D01*
X146269044Y-129580351D01*
X146273236Y-129578312D01*
X146276643Y-129580926D01*
X146279325Y-129589986D01*
X146281341Y-129607285D01*
X146282748Y-129634614D01*
X146283605Y-129673765D01*
X146283970Y-129726533D01*
X146283903Y-129794707D01*
X146283460Y-129880082D01*
X146282702Y-129984449D01*
X146281685Y-130109600D01*
X146281308Y-130154300D01*
X146280169Y-130275395D01*
X146278972Y-130376688D01*
X146277636Y-130460262D01*
X146276077Y-130528204D01*
X146274215Y-130582599D01*
X146271966Y-130625532D01*
X146269248Y-130659089D01*
X146265979Y-130685355D01*
X146262078Y-130706416D01*
X146257461Y-130724357D01*
X146249192Y-130750770D01*
X146225583Y-130812772D01*
X146199685Y-130865573D01*
X146174535Y-130902645D01*
X146173339Y-130904075D01*
X146171168Y-130908424D01*
X146173328Y-130912026D01*
X146181644Y-130914951D01*
X146197940Y-130917269D01*
X146224041Y-130919051D01*
X146261771Y-130920367D01*
X146312956Y-130921286D01*
X146379420Y-130921878D01*
X146462987Y-130922215D01*
X146565483Y-130922365D01*
X146688732Y-130922400D01*
X147220296Y-130922400D01*
X147181523Y-130864783D01*
X147175432Y-130855893D01*
X147164976Y-130841069D01*
X147155579Y-130827422D01*
X147147183Y-130813765D01*
X147139733Y-130798911D01*
X147133173Y-130781670D01*
X147127446Y-130760855D01*
X147122495Y-130735280D01*
X147118266Y-130703755D01*
X147114701Y-130665093D01*
X147111744Y-130618107D01*
X147109340Y-130561608D01*
X147107431Y-130494409D01*
X147105962Y-130415322D01*
X147104876Y-130323160D01*
X147104118Y-130216734D01*
X147103630Y-130094857D01*
X147103358Y-129956341D01*
X147103243Y-129799999D01*
X147103231Y-129624642D01*
X147103265Y-129429082D01*
X147103289Y-129212133D01*
X147103280Y-129089513D01*
X147103243Y-128884447D01*
X147103227Y-128700116D01*
X147103288Y-128535334D01*
X147103484Y-128388916D01*
X147103870Y-128259674D01*
X147104505Y-128146422D01*
X147105444Y-128047975D01*
X147106745Y-127963144D01*
X147108464Y-127890744D01*
X147110659Y-127829589D01*
X147113385Y-127778492D01*
X147116701Y-127736267D01*
X147120662Y-127701727D01*
X147125325Y-127673686D01*
X147130747Y-127650958D01*
X147136986Y-127632356D01*
X147144097Y-127616693D01*
X147152138Y-127602784D01*
X147161166Y-127589441D01*
X147171236Y-127575479D01*
X147182407Y-127559711D01*
X147222197Y-127501867D01*
X146162314Y-127501867D01*
X146200311Y-127564966D01*
X146214993Y-127590005D01*
X146229531Y-127617586D01*
X146241627Y-127645700D01*
X146251532Y-127676551D01*
X146259494Y-127712344D01*
X146265761Y-127755283D01*
X146270582Y-127807574D01*
X146274206Y-127871419D01*
X146276881Y-127949025D01*
X146278857Y-128042594D01*
X146280382Y-128154333D01*
X146281704Y-128286445D01*
X146282613Y-128406434D01*
X146283020Y-128523063D01*
X146282767Y-128618531D01*
X146281857Y-128692556D01*
X146280293Y-128744855D01*
X146278079Y-128775149D01*
X146275220Y-128783156D01*
X146272161Y-128779858D01*
X146254006Y-128758408D01*
X146224275Y-128721889D01*
X146184639Y-128672442D01*
X146136771Y-128612207D01*
X146082343Y-128543327D01*
X146023027Y-128467943D01*
X145960495Y-128388196D01*
X145896421Y-128306228D01*
X145832475Y-128224180D01*
X145770331Y-128144194D01*
X145711661Y-128068411D01*
X145658137Y-127998973D01*
X145611430Y-127938021D01*
X145573214Y-127887696D01*
X145545161Y-127850140D01*
X145528943Y-127827495D01*
X145483635Y-127755212D01*
X145443661Y-127675463D01*
X145422130Y-127607188D01*
X145418827Y-127549844D01*
X145424116Y-127501867D01*
X144292356Y-127502117D01*
X144331867Y-127532722D01*
X144341248Y-127540089D01*
X144404183Y-127594438D01*
X144472997Y-127662259D01*
X144549596Y-127745516D01*
X144635888Y-127846178D01*
X144653052Y-127866847D01*
X144693833Y-127916409D01*
X144743588Y-127977326D01*
X144800955Y-128047898D01*
X144864569Y-128126424D01*
X144933069Y-128211204D01*
X145005090Y-128300537D01*
X145079270Y-128392722D01*
X145094517Y-128411702D01*
X145154246Y-128486060D01*
X145228653Y-128578848D01*
X145301131Y-128669388D01*
X145370314Y-128755978D01*
X145434841Y-128836918D01*
X145493347Y-128910506D01*
X145544470Y-128975044D01*
X145586847Y-129028829D01*
X145619115Y-129070162D01*
X145639910Y-129097342D01*
X145647869Y-129108668D01*
X145646111Y-129112771D01*
X145633230Y-129133334D01*
X145608885Y-129169561D01*
X145574247Y-129219824D01*
X145530486Y-129282492D01*
X145478775Y-129355936D01*
X145420284Y-129438527D01*
X145356184Y-129528636D01*
X145287646Y-129624631D01*
X145215843Y-129724885D01*
X145141944Y-129827768D01*
X145067121Y-129931650D01*
X144992545Y-130034901D01*
X144919387Y-130135892D01*
X144848819Y-130232994D01*
X144782011Y-130324577D01*
X144720135Y-130409011D01*
X144664361Y-130484667D01*
X144615862Y-130549916D01*
X144575807Y-130603128D01*
X144545369Y-130642673D01*
X144524944Y-130668026D01*
X144478899Y-130722295D01*
X144428612Y-130778775D01*
X144381815Y-130828669D01*
X144290651Y-130922400D01*
X143592445Y-130922400D01*
X143661356Y-130922349D01*
X143759607Y-130922091D01*
X143849030Y-130921637D01*
X143927333Y-130921010D01*
X143992223Y-130920235D01*
X144041411Y-130919335D01*
X144072604Y-130918334D01*
X144083511Y-130917257D01*
X144082322Y-130914037D01*
X144072176Y-130896452D01*
X144055040Y-130870158D01*
X144046540Y-130857691D01*
X144037329Y-130843622D01*
X144029233Y-130829351D01*
X144022185Y-130813479D01*
X144016117Y-130794609D01*
X144010961Y-130771341D01*
X144006651Y-130742278D01*
X144003119Y-130706021D01*
X144000297Y-130661170D01*
X143998118Y-130606328D01*
X143996514Y-130540097D01*
X143995419Y-130461077D01*
X143994765Y-130367871D01*
X143994484Y-130259079D01*
X143994509Y-130133303D01*
X143994772Y-129989145D01*
X143995206Y-129825207D01*
X143995745Y-129640089D01*
X143996279Y-129461232D01*
X143996805Y-129302374D01*
X143997350Y-129163316D01*
X143997945Y-129042665D01*
X143998619Y-128939028D01*
X143999403Y-128851011D01*
X144000326Y-128777223D01*
X144001419Y-128716269D01*
X144002712Y-128666757D01*
X144004235Y-128627293D01*
X144006019Y-128596484D01*
X144008092Y-128572938D01*
X144010486Y-128555260D01*
X144013230Y-128542059D01*
X144016356Y-128531940D01*
X144019892Y-128523511D01*
X144023791Y-128515375D01*
X144043438Y-128478544D01*
X144062225Y-128448391D01*
X144063272Y-128446908D01*
X144077602Y-128424659D01*
X144083511Y-128411702D01*
X144082504Y-128411249D01*
X144065305Y-128409803D01*
X144028656Y-128408480D01*
X143974962Y-128407316D01*
X143906630Y-128406347D01*
X143826064Y-128405611D01*
X143735670Y-128405142D01*
X143637853Y-128404978D01*
X143192195Y-128404978D01*
X143189120Y-129581845D01*
X143186045Y-130758711D01*
X143159407Y-130817622D01*
X143147485Y-130842183D01*
X143130246Y-130872434D01*
X143117074Y-130889560D01*
X143109076Y-130897591D01*
X143101378Y-130912493D01*
X142809943Y-130912493D01*
X142809474Y-130820029D01*
X142809050Y-130704617D01*
X142808706Y-130574160D01*
X142808434Y-130427716D01*
X142808227Y-130264344D01*
X142808076Y-130083101D01*
X142807972Y-129883048D01*
X142807908Y-129663241D01*
X142807876Y-129422739D01*
X142807867Y-129160602D01*
X142807867Y-126969031D01*
X142846249Y-126930649D01*
X142873355Y-126906911D01*
X142900253Y-126895111D01*
X142936560Y-126892267D01*
X142988489Y-126892267D01*
X142988489Y-126980206D01*
X142990427Y-127030102D01*
X143009199Y-127140523D01*
X143046217Y-127241987D01*
X143099369Y-127333152D01*
X143166546Y-127412673D01*
X143245638Y-127479205D01*
X143334534Y-127531406D01*
X143431125Y-127567930D01*
X143533300Y-127587434D01*
X143638950Y-127588573D01*
X143745964Y-127570005D01*
X143852232Y-127530384D01*
X143949219Y-127472516D01*
X144034293Y-127397684D01*
X144103015Y-127309615D01*
X144153918Y-127210616D01*
X144185535Y-127102993D01*
X144196400Y-126989054D01*
X144196400Y-126892267D01*
X145816753Y-126892267D01*
X146027897Y-126892280D01*
X146232020Y-126892330D01*
X146415686Y-126892430D01*
X146579991Y-126892592D01*
X146726029Y-126892829D01*
X146854894Y-126893153D01*
X146967683Y-126893575D01*
X147065488Y-126894109D01*
X147149404Y-126894767D01*
X147220527Y-126895561D01*
X147279950Y-126896504D01*
X147328768Y-126897608D01*
X147368077Y-126898884D01*
X147398969Y-126900347D01*
X147422541Y-126902007D01*
X147439886Y-126903878D01*
X147452099Y-126905972D01*
X147460275Y-126908300D01*
X147465508Y-126910876D01*
X147471504Y-126914445D01*
X147478279Y-126917978D01*
X147484478Y-126921488D01*
X147490126Y-126925918D01*
X147495247Y-126932208D01*
X147499869Y-126941301D01*
X147504015Y-126954139D01*
X147507713Y-126971662D01*
X147510987Y-126994813D01*
X147513863Y-127024534D01*
X147516367Y-127061765D01*
X147518524Y-127107449D01*
X147520360Y-127162527D01*
X147521900Y-127227941D01*
X147523170Y-127304633D01*
X147524195Y-127393544D01*
X147525001Y-127495617D01*
X147525034Y-127501867D01*
X147525614Y-127611792D01*
X147526059Y-127743011D01*
G37*
X147526059Y-127743011D02*
X147526362Y-127890216D01*
X147526548Y-128054349D01*
X147526642Y-128236352D01*
X147526671Y-128437165D01*
X147526661Y-128657732D01*
X147526636Y-128898992D01*
X147526622Y-129161889D01*
X147526622Y-129204040D01*
X147526646Y-129464668D01*
X147526685Y-129703796D01*
X147526708Y-129922360D01*
X147526687Y-130121295D01*
X147526593Y-130301535D01*
X147526395Y-130464015D01*
X147526063Y-130609670D01*
X147525569Y-130739434D01*
X147524883Y-130854243D01*
X147523976Y-130955030D01*
X147522817Y-131042730D01*
X147521378Y-131118279D01*
X147519629Y-131182611D01*
X147517540Y-131236661D01*
X147515083Y-131281363D01*
X147512227Y-131317652D01*
X147508943Y-131346463D01*
X147505202Y-131368731D01*
X147500974Y-131385390D01*
X147496229Y-131397375D01*
X147490939Y-131405621D01*
X147485073Y-131411062D01*
X147478602Y-131414634D01*
X147471497Y-131417270D01*
X147463728Y-131419906D01*
X147455266Y-131423477D01*
X147450908Y-131425145D01*
X147442395Y-131427111D01*
X147429694Y-131428911D01*
X147411885Y-131430555D01*
X147388049Y-131432047D01*
X147357266Y-131433397D01*
X147318617Y-131434611D01*
X147271182Y-131435697D01*
X147214043Y-131436661D01*
X147146279Y-131437511D01*
X147066971Y-131438253D01*
X146975199Y-131438897D01*
X146870044Y-131439447D01*
X146750587Y-131439913D01*
X146615908Y-131440300D01*
X146465088Y-131440616D01*
X146297206Y-131440869D01*
X146111345Y-131441066D01*
X145906583Y-131441213D01*
X145682002Y-131441318D01*
X145436682Y-131441389D01*
X145169704Y-131441432D01*
X145131321Y-131441437D01*
X144865922Y-131441480D01*
X144622050Y-131441525D01*
X144398783Y-131441548D01*
X144195196Y-131441524D01*
X144010367Y-131441430D01*
X143843373Y-131441243D01*
X143693290Y-131440939D01*
X143559196Y-131440494D01*
X143440166Y-131439885D01*
X143335279Y-131439089D01*
X143243610Y-131438080D01*
X143164237Y-131436837D01*
X143096237Y-131435335D01*
X143038686Y-131433551D01*
X142990662Y-131431461D01*
X142951240Y-131429042D01*
X142919499Y-131426270D01*
X142894514Y-131423121D01*
X142875364Y-131419572D01*
X142861123Y-131415598D01*
X142850871Y-131411178D01*
X142843682Y-131406286D01*
X142838635Y-131400900D01*
X142834805Y-131394996D01*
X142831271Y-131388549D01*
X142827108Y-131381537D01*
X142826025Y-131379687D01*
X142823813Y-131374180D01*
X142821786Y-131365868D01*
X142819938Y-131353809D01*
X142818261Y-131337063D01*
X142816745Y-131314687D01*
X142815383Y-131285740D01*
X142814167Y-131249280D01*
X142813089Y-131204367D01*
X142812140Y-131150057D01*
X142811312Y-131085410D01*
X142810597Y-131009484D01*
X142809987Y-130921338D01*
X142809943Y-130912493D01*
X143101378Y-130912493D01*
X143105260Y-130913765D01*
X143128520Y-130915791D01*
X143170874Y-130917626D01*
X143230132Y-130919227D01*
X143304107Y-130920549D01*
X143390610Y-130921548D01*
X143487452Y-130922180D01*
X143592445Y-130922400D01*
X144290651Y-130922400D01*
X145445090Y-130922400D01*
X145444456Y-130846200D01*
X145445574Y-130804160D01*
X145451304Y-130768334D01*
X145463890Y-130730772D01*
X145485568Y-130682577D01*
X145488789Y-130675897D01*
X145514188Y-130626359D01*
X145540996Y-130578369D01*
X145563917Y-130541466D01*
X145568485Y-130534834D01*
X145590516Y-130503593D01*
X145622693Y-130458654D01*
X145663457Y-130402147D01*
X145711245Y-130336204D01*
X145764498Y-130262957D01*
X145821655Y-130184536D01*
X145881155Y-130103072D01*
X145941437Y-130020698D01*
X146000940Y-129939544D01*
X146058105Y-129861742D01*
X146111370Y-129789423D01*
X146159174Y-129724718D01*
X146199957Y-129669759D01*
X146232158Y-129626676D01*
X146254216Y-129597602D01*
X146264571Y-129584667D01*
X146269044Y-129580351D01*
X146273236Y-129578312D01*
X146276643Y-129580926D01*
X146279325Y-129589986D01*
X146281341Y-129607285D01*
X146282748Y-129634614D01*
X146283605Y-129673765D01*
X146283970Y-129726533D01*
X146283903Y-129794707D01*
X146283460Y-129880082D01*
X146282702Y-129984449D01*
X146281685Y-130109600D01*
X146281308Y-130154300D01*
X146280169Y-130275395D01*
X146278972Y-130376688D01*
X146277636Y-130460262D01*
X146276077Y-130528204D01*
X146274215Y-130582599D01*
X146271966Y-130625532D01*
X146269248Y-130659089D01*
X146265979Y-130685355D01*
X146262078Y-130706416D01*
X146257461Y-130724357D01*
X146249192Y-130750770D01*
X146225583Y-130812772D01*
X146199685Y-130865573D01*
X146174535Y-130902645D01*
X146173339Y-130904075D01*
X146171168Y-130908424D01*
X146173328Y-130912026D01*
X146181644Y-130914951D01*
X146197940Y-130917269D01*
X146224041Y-130919051D01*
X146261771Y-130920367D01*
X146312956Y-130921286D01*
X146379420Y-130921878D01*
X146462987Y-130922215D01*
X146565483Y-130922365D01*
X146688732Y-130922400D01*
X147220296Y-130922400D01*
X147181523Y-130864783D01*
X147175432Y-130855893D01*
X147164976Y-130841069D01*
X147155579Y-130827422D01*
X147147183Y-130813765D01*
X147139733Y-130798911D01*
X147133173Y-130781670D01*
X147127446Y-130760855D01*
X147122495Y-130735280D01*
X147118266Y-130703755D01*
X147114701Y-130665093D01*
X147111744Y-130618107D01*
X147109340Y-130561608D01*
X147107431Y-130494409D01*
X147105962Y-130415322D01*
X147104876Y-130323160D01*
X147104118Y-130216734D01*
X147103630Y-130094857D01*
X147103358Y-129956341D01*
X147103243Y-129799999D01*
X147103231Y-129624642D01*
X147103265Y-129429082D01*
X147103289Y-129212133D01*
X147103280Y-129089513D01*
X147103243Y-128884447D01*
X147103227Y-128700116D01*
X147103288Y-128535334D01*
X147103484Y-128388916D01*
X147103870Y-128259674D01*
X147104505Y-128146422D01*
X147105444Y-128047975D01*
X147106745Y-127963144D01*
X147108464Y-127890744D01*
X147110659Y-127829589D01*
X147113385Y-127778492D01*
X147116701Y-127736267D01*
X147120662Y-127701727D01*
X147125325Y-127673686D01*
X147130747Y-127650958D01*
X147136986Y-127632356D01*
X147144097Y-127616693D01*
X147152138Y-127602784D01*
X147161166Y-127589441D01*
X147171236Y-127575479D01*
X147182407Y-127559711D01*
X147222197Y-127501867D01*
X146162314Y-127501867D01*
X146200311Y-127564966D01*
X146214993Y-127590005D01*
X146229531Y-127617586D01*
X146241627Y-127645700D01*
X146251532Y-127676551D01*
X146259494Y-127712344D01*
X146265761Y-127755283D01*
X146270582Y-127807574D01*
X146274206Y-127871419D01*
X146276881Y-127949025D01*
X146278857Y-128042594D01*
X146280382Y-128154333D01*
X146281704Y-128286445D01*
X146282613Y-128406434D01*
X146283020Y-128523063D01*
X146282767Y-128618531D01*
X146281857Y-128692556D01*
X146280293Y-128744855D01*
X146278079Y-128775149D01*
X146275220Y-128783156D01*
X146272161Y-128779858D01*
X146254006Y-128758408D01*
X146224275Y-128721889D01*
X146184639Y-128672442D01*
X146136771Y-128612207D01*
X146082343Y-128543327D01*
X146023027Y-128467943D01*
X145960495Y-128388196D01*
X145896421Y-128306228D01*
X145832475Y-128224180D01*
X145770331Y-128144194D01*
X145711661Y-128068411D01*
X145658137Y-127998973D01*
X145611430Y-127938021D01*
X145573214Y-127887696D01*
X145545161Y-127850140D01*
X145528943Y-127827495D01*
X145483635Y-127755212D01*
X145443661Y-127675463D01*
X145422130Y-127607188D01*
X145418827Y-127549844D01*
X145424116Y-127501867D01*
X144292356Y-127502117D01*
X144331867Y-127532722D01*
X144341248Y-127540089D01*
X144404183Y-127594438D01*
X144472997Y-127662259D01*
X144549596Y-127745516D01*
X144635888Y-127846178D01*
X144653052Y-127866847D01*
X144693833Y-127916409D01*
X144743588Y-127977326D01*
X144800955Y-128047898D01*
X144864569Y-128126424D01*
X144933069Y-128211204D01*
X145005090Y-128300537D01*
X145079270Y-128392722D01*
X145094517Y-128411702D01*
X145154246Y-128486060D01*
X145228653Y-128578848D01*
X145301131Y-128669388D01*
X145370314Y-128755978D01*
X145434841Y-128836918D01*
X145493347Y-128910506D01*
X145544470Y-128975044D01*
X145586847Y-129028829D01*
X145619115Y-129070162D01*
X145639910Y-129097342D01*
X145647869Y-129108668D01*
X145646111Y-129112771D01*
X145633230Y-129133334D01*
X145608885Y-129169561D01*
X145574247Y-129219824D01*
X145530486Y-129282492D01*
X145478775Y-129355936D01*
X145420284Y-129438527D01*
X145356184Y-129528636D01*
X145287646Y-129624631D01*
X145215843Y-129724885D01*
X145141944Y-129827768D01*
X145067121Y-129931650D01*
X144992545Y-130034901D01*
X144919387Y-130135892D01*
X144848819Y-130232994D01*
X144782011Y-130324577D01*
X144720135Y-130409011D01*
X144664361Y-130484667D01*
X144615862Y-130549916D01*
X144575807Y-130603128D01*
X144545369Y-130642673D01*
X144524944Y-130668026D01*
X144478899Y-130722295D01*
X144428612Y-130778775D01*
X144381815Y-130828669D01*
X144290651Y-130922400D01*
X143592445Y-130922400D01*
X143661356Y-130922349D01*
X143759607Y-130922091D01*
X143849030Y-130921637D01*
X143927333Y-130921010D01*
X143992223Y-130920235D01*
X144041411Y-130919335D01*
X144072604Y-130918334D01*
X144083511Y-130917257D01*
X144082322Y-130914037D01*
X144072176Y-130896452D01*
X144055040Y-130870158D01*
X144046540Y-130857691D01*
X144037329Y-130843622D01*
X144029233Y-130829351D01*
X144022185Y-130813479D01*
X144016117Y-130794609D01*
X144010961Y-130771341D01*
X144006651Y-130742278D01*
X144003119Y-130706021D01*
X144000297Y-130661170D01*
X143998118Y-130606328D01*
X143996514Y-130540097D01*
X143995419Y-130461077D01*
X143994765Y-130367871D01*
X143994484Y-130259079D01*
X143994509Y-130133303D01*
X143994772Y-129989145D01*
X143995206Y-129825207D01*
X143995745Y-129640089D01*
X143996279Y-129461232D01*
X143996805Y-129302374D01*
X143997350Y-129163316D01*
X143997945Y-129042665D01*
X143998619Y-128939028D01*
X143999403Y-128851011D01*
X144000326Y-128777223D01*
X144001419Y-128716269D01*
X144002712Y-128666757D01*
X144004235Y-128627293D01*
X144006019Y-128596484D01*
X144008092Y-128572938D01*
X144010486Y-128555260D01*
X144013230Y-128542059D01*
X144016356Y-128531940D01*
X144019892Y-128523511D01*
X144023791Y-128515375D01*
X144043438Y-128478544D01*
X144062225Y-128448391D01*
X144063272Y-128446908D01*
X144077602Y-128424659D01*
X144083511Y-128411702D01*
X144082504Y-128411249D01*
X144065305Y-128409803D01*
X144028656Y-128408480D01*
X143974962Y-128407316D01*
X143906630Y-128406347D01*
X143826064Y-128405611D01*
X143735670Y-128405142D01*
X143637853Y-128404978D01*
X143192195Y-128404978D01*
X143189120Y-129581845D01*
X143186045Y-130758711D01*
X143159407Y-130817622D01*
X143147485Y-130842183D01*
X143130246Y-130872434D01*
X143117074Y-130889560D01*
X143109076Y-130897591D01*
X143101378Y-130912493D01*
X142809943Y-130912493D01*
X142809474Y-130820029D01*
X142809050Y-130704617D01*
X142808706Y-130574160D01*
X142808434Y-130427716D01*
X142808227Y-130264344D01*
X142808076Y-130083101D01*
X142807972Y-129883048D01*
X142807908Y-129663241D01*
X142807876Y-129422739D01*
X142807867Y-129160602D01*
X142807867Y-126969031D01*
X142846249Y-126930649D01*
X142873355Y-126906911D01*
X142900253Y-126895111D01*
X142936560Y-126892267D01*
X142988489Y-126892267D01*
X142988489Y-126980206D01*
X142990427Y-127030102D01*
X143009199Y-127140523D01*
X143046217Y-127241987D01*
X143099369Y-127333152D01*
X143166546Y-127412673D01*
X143245638Y-127479205D01*
X143334534Y-127531406D01*
X143431125Y-127567930D01*
X143533300Y-127587434D01*
X143638950Y-127588573D01*
X143745964Y-127570005D01*
X143852232Y-127530384D01*
X143949219Y-127472516D01*
X144034293Y-127397684D01*
X144103015Y-127309615D01*
X144153918Y-127210616D01*
X144185535Y-127102993D01*
X144196400Y-126989054D01*
X144196400Y-126892267D01*
X145816753Y-126892267D01*
X146027897Y-126892280D01*
X146232020Y-126892330D01*
X146415686Y-126892430D01*
X146579991Y-126892592D01*
X146726029Y-126892829D01*
X146854894Y-126893153D01*
X146967683Y-126893575D01*
X147065488Y-126894109D01*
X147149404Y-126894767D01*
X147220527Y-126895561D01*
X147279950Y-126896504D01*
X147328768Y-126897608D01*
X147368077Y-126898884D01*
X147398969Y-126900347D01*
X147422541Y-126902007D01*
X147439886Y-126903878D01*
X147452099Y-126905972D01*
X147460275Y-126908300D01*
X147465508Y-126910876D01*
X147471504Y-126914445D01*
X147478279Y-126917978D01*
X147484478Y-126921488D01*
X147490126Y-126925918D01*
X147495247Y-126932208D01*
X147499869Y-126941301D01*
X147504015Y-126954139D01*
X147507713Y-126971662D01*
X147510987Y-126994813D01*
X147513863Y-127024534D01*
X147516367Y-127061765D01*
X147518524Y-127107449D01*
X147520360Y-127162527D01*
X147521900Y-127227941D01*
X147523170Y-127304633D01*
X147524195Y-127393544D01*
X147525001Y-127495617D01*
X147525034Y-127501867D01*
X147525614Y-127611792D01*
X147526059Y-127743011D01*
D12*
X154814214Y-132200000D02*
G75*
G03*
X154814214Y-132200000I-1414214J0D01*
G01*
X156370000Y-135320000D02*
X150430000Y-135320000D01*
X156370000Y-129080000D02*
X150430000Y-129080000D01*
X156520000Y-133540000D02*
X156520000Y-130860000D01*
X150280000Y-130860000D02*
X150280000Y-133540000D01*
X111990000Y-128800000D02*
X111990000Y-125940000D01*
X111990000Y-125940000D02*
X113910000Y-125940000D01*
X113910000Y-125940000D02*
X113910000Y-128800000D01*
X142125000Y-137050000D02*
X139725000Y-137050000D01*
X139725000Y-133950000D02*
X142675000Y-133950000D01*
D10*
X170214285Y-129607142D02*
X170214285Y-128707142D01*
X170000000Y-128707142D01*
X169871428Y-128750000D01*
X169785714Y-128835714D01*
X169742857Y-128921428D01*
X169700000Y-129092857D01*
X169700000Y-129221428D01*
X169742857Y-129392857D01*
X169785714Y-129478571D01*
X169871428Y-129564285D01*
X170000000Y-129607142D01*
X170214285Y-129607142D01*
X169357142Y-128792857D02*
X169314285Y-128750000D01*
X169228571Y-128707142D01*
X169014285Y-128707142D01*
X168928571Y-128750000D01*
X168885714Y-128792857D01*
X168842857Y-128878571D01*
X168842857Y-128964285D01*
X168885714Y-129092857D01*
X169400000Y-129607142D01*
X168842857Y-129607142D01*
X175611904Y-125852380D02*
X175611904Y-126661904D01*
X175564285Y-126757142D01*
X175516666Y-126804761D01*
X175421428Y-126852380D01*
X175230952Y-126852380D01*
X175135714Y-126804761D01*
X175088095Y-126757142D01*
X175040476Y-126661904D01*
X175040476Y-125852380D01*
X174659523Y-125852380D02*
X174040476Y-125852380D01*
X174373809Y-126233333D01*
X174230952Y-126233333D01*
X174135714Y-126280952D01*
X174088095Y-126328571D01*
X174040476Y-126423809D01*
X174040476Y-126661904D01*
X174088095Y-126757142D01*
X174135714Y-126804761D01*
X174230952Y-126852380D01*
X174516666Y-126852380D01*
X174611904Y-126804761D01*
X174659523Y-126757142D01*
X108511904Y-125952380D02*
X108511904Y-126761904D01*
X108464285Y-126857142D01*
X108416666Y-126904761D01*
X108321428Y-126952380D01*
X108130952Y-126952380D01*
X108035714Y-126904761D01*
X107988095Y-126857142D01*
X107940476Y-126761904D01*
X107940476Y-125952380D01*
X107035714Y-126285714D02*
X107035714Y-126952380D01*
X107273809Y-125904761D02*
X107511904Y-126619047D01*
X106892857Y-126619047D01*
X154600000Y-132564285D02*
X154471428Y-132607142D01*
X154257142Y-132607142D01*
X154171428Y-132564285D01*
X154128571Y-132521428D01*
X154085714Y-132435714D01*
X154085714Y-132350000D01*
X154128571Y-132264285D01*
X154171428Y-132221428D01*
X154257142Y-132178571D01*
X154428571Y-132135714D01*
X154514285Y-132092857D01*
X154557142Y-132050000D01*
X154600000Y-131964285D01*
X154600000Y-131878571D01*
X154557142Y-131792857D01*
X154514285Y-131750000D01*
X154428571Y-131707142D01*
X154214285Y-131707142D01*
X154085714Y-131750000D01*
X153785714Y-131707142D02*
X153571428Y-132607142D01*
X153400000Y-131964285D01*
X153228571Y-132607142D01*
X153014285Y-131707142D01*
X152200000Y-132607142D02*
X152714285Y-132607142D01*
X152457142Y-132607142D02*
X152457142Y-131707142D01*
X152542857Y-131835714D01*
X152628571Y-131921428D01*
X152714285Y-131964285D01*
X114142857Y-128414285D02*
X115042857Y-128414285D01*
X115042857Y-128200000D01*
X115000000Y-128071428D01*
X114914285Y-127985714D01*
X114828571Y-127942857D01*
X114657142Y-127900000D01*
X114528571Y-127900000D01*
X114357142Y-127942857D01*
X114271428Y-127985714D01*
X114185714Y-128071428D01*
X114142857Y-128200000D01*
X114142857Y-128414285D01*
X115042857Y-127600000D02*
X115042857Y-127042857D01*
X114700000Y-127342857D01*
X114700000Y-127214285D01*
X114657142Y-127128571D01*
X114614285Y-127085714D01*
X114528571Y-127042857D01*
X114314285Y-127042857D01*
X114228571Y-127085714D01*
X114185714Y-127128571D01*
X114142857Y-127214285D01*
X114142857Y-127471428D01*
X114185714Y-127557142D01*
X114228571Y-127600000D01*
X141564285Y-138157142D02*
X141564285Y-137257142D01*
X141350000Y-137257142D01*
X141221428Y-137300000D01*
X141135714Y-137385714D01*
X141092857Y-137471428D01*
X141050000Y-137642857D01*
X141050000Y-137771428D01*
X141092857Y-137942857D01*
X141135714Y-138028571D01*
X141221428Y-138114285D01*
X141350000Y-138157142D01*
X141564285Y-138157142D01*
X140192857Y-138157142D02*
X140707142Y-138157142D01*
X140450000Y-138157142D02*
X140450000Y-137257142D01*
X140535714Y-137385714D01*
X140621428Y-137471428D01*
X140707142Y-137514285D01*
M02*
